<?xml version="1.0" encoding="UTF-8" standalone="no"?>
<!-- Created with Inkscape (http://www.inkscape.org/) -->

<svg
   xmlns:dc="http://purl.org/dc/elements/1.1/"
   xmlns:cc="http://creativecommons.org/ns#"
   xmlns:rdf="http://www.w3.org/1999/02/22-rdf-syntax-ns#"
   xmlns:svg="http://www.w3.org/2000/svg"
   xmlns="http://www.w3.org/2000/svg"
   xmlns:xlink="http://www.w3.org/1999/xlink"
   xmlns:sodipodi="http://sodipodi.sourceforge.net/DTD/sodipodi-0.dtd"
   xmlns:inkscape="http://www.inkscape.org/namespaces/inkscape"
   width="251.60869"
   height="169.56599"
   viewBox="0 0 66.57146 44.864339"
   version="1.1"
   id="svg23489"
   inkscape:version="0.48.5 r10040"
   sodipodi:docname="rock_08.svg">
  <defs
     id="defs23483">
    <linearGradient
       id="linearGradient18210"
       inkscape:collect="always">
      <stop
         id="stop18212"
         offset="0"
         style="stop-color:#c7e1e9;stop-opacity:1;" />
      <stop
         id="stop18214"
         offset="1"
         style="stop-color:#a8ccd7;stop-opacity:1" />
    </linearGradient>
    <linearGradient
       inkscape:collect="always"
       id="linearGradient17961">
      <stop
         style="stop-color:#c7e1e9;stop-opacity:1;"
         offset="0"
         id="stop17963" />
      <stop
         style="stop-color:#bed9e1;stop-opacity:1"
         offset="1"
         id="stop17965" />
    </linearGradient>
    <linearGradient
       inkscape:collect="always"
       xlink:href="#linearGradient17961"
       id="linearGradient4159"
       gradientUnits="userSpaceOnUse"
       x1="257.72763"
       y1="112.99445"
       x2="266.72488"
       y2="121.99171" />
    <linearGradient
       inkscape:collect="always"
       xlink:href="#linearGradient18210"
       id="linearGradient4171"
       gradientUnits="userSpaceOnUse"
       x1="140.8502"
       y1="215.79919"
       x2="185.84737"
       y2="248.0616" />
    <linearGradient
       inkscape:collect="always"
       xlink:href="#linearGradient18210"
       id="linearGradient4173"
       gradientUnits="userSpaceOnUse"
       x1="4572.6768"
       y1="1271.2262"
       x2="4579.1211"
       y2="1286.9503" />
    <linearGradient
       inkscape:collect="always"
       xlink:href="#linearGradient17961"
       id="linearGradient4175"
       gradientUnits="userSpaceOnUse"
       x1="1150.6195"
       y1="363.3812"
       x2="1170.1863"
       y2="365.82114" />
    <linearGradient
       inkscape:collect="always"
       xlink:href="#linearGradient17961"
       id="linearGradient4177"
       gradientUnits="userSpaceOnUse"
       x1="1150.6195"
       y1="363.3812"
       x2="1170.1863"
       y2="365.82114" />
    <linearGradient
       inkscape:collect="always"
       xlink:href="#linearGradient18210"
       id="linearGradient4179"
       gradientUnits="userSpaceOnUse"
       gradientTransform="translate(1203.4691,-943.80247)"
       x1="461.952"
       y1="837.54803"
       x2="466.28781"
       y2="901.13947" />
  </defs>
  <sodipodi:namedview
     id="base"
     pagecolor="#7d848b"
     bordercolor="#666666"
     borderopacity="1.0"
     inkscape:pageopacity="0"
     inkscape:pageshadow="2"
     inkscape:zoom="0.4049134"
     inkscape:cx="156.59216"
     inkscape:cy="76.093762"
     inkscape:document-units="px"
     inkscape:current-layer="layer1"
     showgrid="false"
     inkscape:pagecheckerboard="false"
     showborder="true"
     units="px"
     inkscape:window-width="1920"
     inkscape:window-height="1017"
     inkscape:window-x="-8"
     inkscape:window-y="-8"
     inkscape:window-maximized="1"
     inkscape:showpageshadow="false"
     guidetolerance="28"
     fit-margin-top="10"
     fit-margin-left="10"
     fit-margin-right="10"
     fit-margin-bottom="10">
    <inkscape:grid
       type="xygrid"
       id="grid24034"
       spacingx="1px"
       spacingy="1px"
       empspacing="8"
       visible="true"
       enabled="true"
       snapvisiblegridlinesonly="true"
       originx="-1482.4749px"
       originy="-827.51622px" />
  </sodipodi:namedview>
  <metadata
     id="metadata23486">
    <rdf:RDF>
      <cc:Work
         rdf:about="">
        <dc:format>image/svg+xml</dc:format>
        <dc:type
           rdf:resource="http://purl.org/dc/dcmitype/StillImage" />
        <dc:title></dc:title>
        <cc:license
           rdf:resource="" />
        <dc:creator>
          <cc:Agent>
            <dc:title>Robert Brooks</dc:title>
          </cc:Agent>
        </dc:creator>
      </cc:Work>
    </rdf:RDF>
  </metadata>
  <g
     inkscape:label="Layer 1"
     inkscape:groupmode="layer"
     id="layer1"
     transform="translate(-392.23818,-33.188661)">
    <g
       id="g20622"
       transform="translate(-83.630352,31.062872)">
      <g
         transform="translate(58.76514,-88.688494)"
         id="g20335">
        <path
           style="opacity:0.25;color:#000000;fill:#000000;fill-opacity:1;fill-rule:nonzero;stroke:#000000;stroke-width:3.17500019;stroke-linejoin:round;stroke-miterlimit:4;stroke-dasharray:none;marker:none;visibility:visible;display:inline;overflow:visible;enable-background:accumulate"
           d="m 430.6663,105.67957 c -1.26183,0.54079 -9.34248,10.32548 -9.34248,11.22678 0,0 6.09507,8.93423 7.3569,9.29475 l 14.78708,5.22757 c 1.44209,0.18027 15.8808,-5.94463 16.94455,-6.21057 2.88418,-0.72103 7.94779,-0.3472 10.12844,-0.85058 3.78548,-1.80262 8.8892,-8.85821 8.8892,-8.85821 0,0 -3.45037,-7.1738 -4.35169,-8.07511 -0.18029,-1.26183 -5.94864,5.22757 -7.03021,1.80261 -0.2714,-0.85947 -9.1933,11.17619 -3.6052,-0.72104 0.39076,-0.83195 -33.77659,-2.8362 -33.77659,-2.8362 z"
           id="path20262-9"
           inkscape:connector-curvature="0"
           sodipodi:nodetypes="ccccccccccc"
           gds_color="shadow"
           gds_opacity="shadow"
           gds_switchable="shadow" />
        <g
           id="g19919"
           transform="matrix(0.9502488,0,0,0.9502488,11.137029,-6.2359853)">
          <g
             transform="translate(-309.77962,-283.32723)"
             id="g16057">
            <path
               style="color:#000000;fill:#141c1e;fill-opacity:1;fill-rule:nonzero;stroke:#141c1e;stroke-width:14.73298359;stroke-linejoin:round;stroke-miterlimit:4;stroke-opacity:1;stroke-dasharray:none;marker:none;visibility:visible;display:inline;overflow:visible;enable-background:accumulate"
               d="m 2867.2812,1404.5938 c -5.246,3.1477 -8.035,6.9588 -17.5624,15.3124 l 10.1874,0.3438 -14.75,-0.3438 c -13.8711,12.1616 -27.5624,24.9688 -27.5624,24.9688 l -5.2813,45.875 c 25.9522,42.2234 24.4918,12.8697 29.9815,1.6632 l 47.6122,40.5243 c 0,0 93.4593,-32.763 86.7755,-31.4728 -39.7881,7.6805 -12.2105,17.6228 19.4121,12.4103 l 29.9374,-29.9375 -5.2812,-45.1563 -63.5625,-25.625 -49.5313,-7.2812 -2.9374,3.3438 z"
               transform="matrix(0.26458334,0,0,0.26458334,-6.3049604e-6,18.562493)"
               id="path16026"
               inkscape:connector-curvature="0"
               sodipodi:nodetypes="ccccccccsccccccc" />
            <path
               inkscape:connector-curvature="0"
               id="path16008"
               d="m 745.48593,400.85133 -1.39837,12.13587 5.76335,9.36544 14.7686,5.04295 c 0,0 17.29008,-6.84399 19.09114,-6.84399 1.80103,0 9.00525,-1.44085 9.00525,-1.44085 l 7.92461,-7.92461 -1.39992,-11.94299 z"
               style="color:#000000;fill:#9bb5bd;fill-opacity:1;fill-rule:nonzero;stroke:none;stroke-width:14;marker:none;visibility:visible;display:inline;overflow:visible;enable-background:accumulate"
               sodipodi:nodetypes="ccccscccc" />
            <path
               inkscape:connector-curvature="0"
               style="color:#000000;fill:#88a7b0;fill-opacity:1;fill-rule:nonzero;stroke:none;stroke-width:10;marker:none;visibility:visible;display:inline;overflow:visible;enable-background:accumulate"
               d="m 2834.0312,1444.375 -16.4374,0.5 -5.2813,45.875 21.5937,35.0938 c 0.812,-7.1269 5.375,-57.2813 5.375,-57.2813 0,0 6.9442,-12.0516 -5.25,-24.1875 z"
               id="path16048"
               transform="matrix(0.26458334,0,0,0.26458334,-6.3049604e-6,18.562493)" />
            <path
               inkscape:connector-curvature="0"
               style="color:#000000;fill:#88a7b0;fill-opacity:1;fill-rule:nonzero;stroke:none;stroke-width:10;marker:none;visibility:visible;display:inline;overflow:visible;enable-background:accumulate"
               d="m 2995.3438,1439.5312 -29.875,0.9063 c -4.7855,10.2862 -9.5626,22 -9.5626,22 -0.4115,14.1969 2.0296,40.2349 3.875,57.2813 1.0085,-0.2361 1.8046,-0.375 2.2813,-0.375 6.807,0 34.0313,-5.4688 34.0313,-5.4688 l 0.6562,-0.6562 c -0.5279,-6.1238 -0.9479,-11.6543 -2.3125,-23.4063 -0.9865,-8.4963 -2.1043,-17.3017 -3.1563,-24.7813 -1.0519,-7.4795 -2.0384,-13.6404 -2.8437,-16.7812 0,0 -0.646,1.1364 -1.25,2.0625 -0.302,0.4631 -0.5849,0.8662 -0.7813,1.0625 -0.098,0.098 -0.1791,0.1558 -0.2187,0.125 -0.04,-0.031 -0.04,-0.1424 0,-0.3438 0.081,-0.4026 1.4678,-2.4051 3.6875,-5.2187 1.4154,-1.7942 3.5287,-4.1714 5.4688,-6.4063 z"
               id="path16046"
               transform="matrix(0.26458334,0,0,0.26458334,-6.3049604e-6,18.562493)" />
            <path
               inkscape:connector-curvature="0"
               style="color:#000000;fill:#6c929e;fill-opacity:1;fill-rule:nonzero;stroke:none;stroke-width:10;marker:none;visibility:visible;display:inline;overflow:visible;enable-background:accumulate"
               d="m 2995.3438,1439.5312 c -1.9401,2.2349 -4.0534,4.6121 -5.4688,6.4063 -2.2197,2.8136 -3.607,4.8161 -3.6875,5.2187 -0.04,0.2014 -0.04,0.313 0,0.3438 0.04,0.031 0.1206,-0.027 0.2187,-0.125 0.1964,-0.1963 0.4793,-0.5994 0.7813,-1.0625 0.604,-0.9261 1.25,-2.0625 1.25,-2.0625 0.8053,3.1408 1.7918,9.3017 2.8437,16.7812 1.052,7.4796 2.1698,16.285 3.1563,24.7813 1.3646,11.752 1.7846,17.2825 2.3125,23.4063 l 29.2812,-29.2813 -5.2812,-45.1563 -25.4062,0.75 z"
               id="path16038"
               transform="matrix(0.26458334,0,0,0.26458334,-6.3049604e-6,18.562493)" />
            <path
               sodipodi:nodetypes="cccsccc"
               transform="matrix(0.26458334,0,0,0.26458334,-6.3049604e-6,18.562493)"
               inkscape:connector-curvature="0"
               id="path16016"
               d="m 2817.5846,1444.8712 c 27.405,40.2875 48.0482,31.6672 44.6119,-5.1486 l 27.3383,2.4208 c 0,0 54.1184,-12.8853 60.5611,-12.8853 6.4426,0 17.3952,5.154 17.3952,5.154 13.3523,7.5121 2.926,47.7196 53.2607,4.3809 z"
               style="color:#000000;fill:#141c1e;fill-opacity:1;fill-rule:nonzero;stroke:#141c1e;stroke-width:14.73298359;stroke-linejoin:round;stroke-miterlimit:4;stroke-opacity:1;stroke-dasharray:none;marker:none;visibility:visible;display:inline;overflow:visible;enable-background:accumulate" />
            <path
               style="color:#000000;fill:#c1dce4;fill-opacity:1;fill-rule:nonzero;stroke:none;stroke-width:14;marker:none;visibility:visible;display:inline;overflow:visible;enable-background:accumulate"
               d="m 2845.1562,1419.9062 c -13.8737,12.1648 -26.6513,23.1465 -27.5624,24.9688 7.0104,17.2855 14.0208,22.6667 21.0312,34 l 52.8438,18.0312 c 0,0 61.8385,-24.4687 68.2812,-24.4687 6.4426,0 32.2188,-5.1563 32.2188,-5.1563 l 28.7812,-28.5 -63.5625,-25.625 -49.5313,-7.2812 -14.25,16.2812 -33.5,-1.9062 z"
               id="path16023"
               transform="matrix(0.26458334,0,0,0.26458334,-6.3049604e-6,18.562493)"
               inkscape:connector-curvature="0"
               sodipodi:nodetypes="ccccsccccccc" />
            <path
               style="color:#000000;fill:#9bb5bd;fill-opacity:1;fill-rule:nonzero;stroke:none;stroke-width:14;marker:none;visibility:visible;display:inline;overflow:visible;enable-background:accumulate"
               d="m 2849.7119,1419.9062 9.7387,0.3438 33.9556,1.9062 11.7444,-12.8645 -37.8659,-4.6826 c -5.246,3.1477 -8.0454,6.9435 -17.5728,15.2971 z"
               id="path16006"
               transform="matrix(0.26458334,0,0,0.26458334,-6.3049604e-6,18.562493)"
               inkscape:connector-curvature="0"
               sodipodi:nodetypes="cccccc" />
            <path
               inkscape:connector-curvature="0"
               style="color:#000000;fill:#dbf5fd;fill-opacity:1;fill-rule:nonzero;stroke:none;stroke-width:10;marker:none;visibility:visible;display:inline;overflow:visible;enable-background:accumulate"
               d="m 2907.6562,1405.875 -14.25,16.2812 -33.5,-1.9062 -14.75,-0.3438 c -13.8737,12.1649 -26.6513,23.1465 -27.5624,24.9688 4.3643,10.761 8.7294,16.908 13.0937,22.75 -4.1887,-8.6216 -9.2366,-18.5521 -8,-21.4375 1.3667,-3.189 20.9408,-22.3125 23.2187,-22.3125 2.2779,0 49.4278,3.407 51.25,1.8125 1.8224,-1.5945 12.5305,-14.3528 14.125,-14.125 1.5945,0.2278 43.0438,2.7451 45.0938,3.6563 2.0501,0.9112 56.7369,22.3117 56.2812,23.9062 -0.4556,1.5945 -21.1874,28.0312 -21.1874,28.0312 0,0 1.1355,-0.6761 1.5312,-0.9062 l 27.75,-27.4688 -63.5625,-25.625 -49.5313,-7.2812 z"
               transform="matrix(0.26458334,0,0,0.26458334,-6.3049604e-6,18.562493)"
               id="path16031" />
            <path
               style="color:#000000;fill:#dbf5fd;fill-opacity:1;fill-rule:nonzero;stroke:none;stroke-width:10;marker:none;visibility:visible;display:inline;overflow:visible;enable-background:accumulate"
               d="m 2843.6376,1480.3656 c 5.4668,1.8223 44.8732,13.4392 47.3788,12.9836 2.5056,-0.4555 52.8456,-15.9447 51.2511,-15.4892 -1.5945,0.4556 -49.8844,19.8171 -50.7955,20.7282 -0.9111,0.9112 -2.0501,33.7119 -2.2778,30.5229 -0.2278,-3.1889 -1.3667,-31.6618 -1.3667,-31.6618 z"
               id="path16036"
               inkscape:connector-curvature="0"
               transform="matrix(0.26458334,0,0,0.26458334,-6.3049604e-6,18.562493)" />
            <path
               inkscape:connector-curvature="0"
               style="color:#000000;fill:#dbf5fd;fill-opacity:1;fill-rule:nonzero;stroke:none;stroke-width:10;marker:none;visibility:visible;display:inline;overflow:visible;enable-background:accumulate"
               d="m 2867.2812,1404.5938 c -5.246,3.1477 -8.035,6.9588 -17.5624,15.3124 l 5.4062,0.1876 c 3.0323,-3.005 13.5625,-12.625 13.5625,-12.625 l 34.5937,3.875 1.875,-2.0626 -37.875,-4.6874 z"
               transform="matrix(0.26458334,0,0,0.26458334,-6.3049604e-6,18.562493)"
               id="path16052" />
          </g>
          <g
             transform="matrix(0.75002674,0,0,0.75002674,-74.696983,193.26616)"
             id="g18421">
            <path
               style="color:#000000;fill:#dbf5fd;fill-opacity:1;fill-rule:nonzero;stroke:none;stroke-width:14;marker:none;visibility:visible;display:inline;overflow:visible;enable-background:accumulate"
               d="m 2715.6433,-403.01449 c -5.0584,4.57665 -9.876,10.35769 -9.876,10.35769 0,0 12.5256,6.2628 15.1753,5.05841 2.6496,-1.20438 31.7957,-12.76646 31.7957,-12.76646 l 2.4087,-11.80296 z"
               id="path18414"
               inkscape:connector-curvature="0"
               transform="matrix(0.26458334,0,0,0.26458334,-6.3049604e-6,18.562493)" />
            <path
               style="color:#000000;fill:#6c929e;fill-opacity:1;fill-rule:nonzero;stroke:none;stroke-width:14;marker:none;visibility:visible;display:inline;overflow:visible;enable-background:accumulate"
               d="m 2708.417,-394.10206 c 0,0 5.2993,-8.67156 7.708,-9.63506 2.4088,-0.96351 27.9417,-10.59857 29.1461,-10.59857 1.2044,0 10.5986,1.44525 10.5986,1.44525 0,0 -3.3723,9.15332 -4.8176,10.11682 -1.4452,0.96351 -29.146,11.56208 -31.5548,11.80296 -2.4088,0.24088 -10.5986,-1.68614 -10.5986,-1.68614 z"
               id="path18412"
               inkscape:connector-curvature="0"
               transform="matrix(0.26458334,0,0,0.26458334,-6.3049604e-6,18.562493)" />
            <path
               inkscape:connector-curvature="0"
               style="color:#000000;fill:#587b86;fill-opacity:1;fill-rule:nonzero;stroke:none;stroke-width:14;marker:none;visibility:visible;display:inline;overflow:visible;enable-background:accumulate"
               d="m 2745.2812,-414.34375 c -1.2044,0 -26.7474,9.63024 -29.1562,10.59375 -2.4087,0.9635 -7.7188,9.65625 -7.7188,9.65625 l 0.3438,1 c 2.012,-2.48288 7.4323,-6.5755 8.3438,-7.03125 0.9635,-0.48176 30.3437,-10.59375 30.3437,-10.59375 l 8.3125,-1.8125 c 0.023,-0.0606 0.125,-0.34375 0.125,-0.34375 0,0 -9.3893,-1.46875 -10.5938,-1.46875 z"
               transform="matrix(0.26458334,0,0,0.26458334,-6.3049604e-6,18.562493)"
               id="path18416" />
          </g>
        </g>
      </g>
    </g>
  </g>
</svg>
