<?xml version="1.0" encoding="UTF-8" standalone="no"?>
<!-- Created with Inkscape (http://www.inkscape.org/) -->

<svg
   xmlns:dc="http://purl.org/dc/elements/1.1/"
   xmlns:cc="http://creativecommons.org/ns#"
   xmlns:rdf="http://www.w3.org/1999/02/22-rdf-syntax-ns#"
   xmlns:svg="http://www.w3.org/2000/svg"
   xmlns="http://www.w3.org/2000/svg"
   xmlns:xlink="http://www.w3.org/1999/xlink"
   xmlns:sodipodi="http://sodipodi.sourceforge.net/DTD/sodipodi-0.dtd"
   xmlns:inkscape="http://www.inkscape.org/namespaces/inkscape"
   width="77.100487"
   height="67.233795"
   viewBox="0 0 20.399503 17.788943"
   version="1.1"
   id="svg23489"
   inkscape:version="0.48.5 r10040"
   sodipodi:docname="rock_17.svg">
  <defs
     id="defs23483">
    <linearGradient
       id="linearGradient18210"
       inkscape:collect="always">
      <stop
         id="stop18212"
         offset="0"
         style="stop-color:#c7e1e9;stop-opacity:1;" />
      <stop
         id="stop18214"
         offset="1"
         style="stop-color:#a8ccd7;stop-opacity:1" />
    </linearGradient>
    <linearGradient
       inkscape:collect="always"
       id="linearGradient17961">
      <stop
         style="stop-color:#c7e1e9;stop-opacity:1;"
         offset="0"
         id="stop17963" />
      <stop
         style="stop-color:#bed9e1;stop-opacity:1"
         offset="1"
         id="stop17965" />
    </linearGradient>
    <linearGradient
       inkscape:collect="always"
       xlink:href="#linearGradient17961"
       id="linearGradient4245"
       gradientUnits="userSpaceOnUse"
       x1="1150.6195"
       y1="363.3812"
       x2="1170.1863"
       y2="365.82114" />
    <linearGradient
       inkscape:collect="always"
       xlink:href="#linearGradient17961"
       id="linearGradient4249"
       gradientUnits="userSpaceOnUse"
       x1="257.72763"
       y1="112.99445"
       x2="266.72488"
       y2="121.99171" />
    <linearGradient
       inkscape:collect="always"
       xlink:href="#linearGradient18210"
       id="linearGradient4251"
       gradientUnits="userSpaceOnUse"
       x1="140.8502"
       y1="215.79919"
       x2="185.84737"
       y2="248.0616" />
    <linearGradient
       inkscape:collect="always"
       xlink:href="#linearGradient18210"
       id="linearGradient4253"
       gradientUnits="userSpaceOnUse"
       x1="4572.6768"
       y1="1271.2262"
       x2="4579.1211"
       y2="1286.9503" />
    <linearGradient
       inkscape:collect="always"
       xlink:href="#linearGradient17961"
       id="linearGradient4255"
       gradientUnits="userSpaceOnUse"
       x1="1150.6195"
       y1="363.3812"
       x2="1170.1863"
       y2="365.82114" />
    <linearGradient
       inkscape:collect="always"
       xlink:href="#linearGradient18210"
       id="linearGradient4257"
       gradientUnits="userSpaceOnUse"
       gradientTransform="translate(1203.4691,-943.80247)"
       x1="461.952"
       y1="837.54803"
       x2="466.28781"
       y2="901.13947" />
  </defs>
  <sodipodi:namedview
     id="base"
     pagecolor="#7d848b"
     bordercolor="#666666"
     borderopacity="1.0"
     inkscape:pageopacity="0"
     inkscape:pageshadow="2"
     inkscape:zoom="0.4049134"
     inkscape:cx="490.471"
     inkscape:cy="270.8653"
     inkscape:document-units="px"
     inkscape:current-layer="layer1"
     showgrid="false"
     inkscape:pagecheckerboard="false"
     showborder="true"
     units="px"
     inkscape:window-width="1920"
     inkscape:window-height="1017"
     inkscape:window-x="-8"
     inkscape:window-y="-8"
     inkscape:window-maximized="1"
     inkscape:showpageshadow="false"
     guidetolerance="28"
     fit-margin-top="10"
     fit-margin-left="10"
     fit-margin-right="10"
     fit-margin-bottom="10">
    <inkscape:grid
       type="xygrid"
       id="grid24034"
       spacingx="1px"
       spacingy="1px"
       empspacing="8"
       visible="true"
       enabled="true"
       snapvisiblegridlinesonly="true"
       originx="-1148.596px"
       originy="-632.74465px" />
  </sodipodi:namedview>
  <metadata
     id="metadata23486">
    <rdf:RDF>
      <cc:Work
         rdf:about="">
        <dc:format>image/svg+xml</dc:format>
        <dc:type
           rdf:resource="http://purl.org/dc/dcmitype/StillImage" />
        <dc:title></dc:title>
        <cc:license
           rdf:resource="" />
        <dc:creator>
          <cc:Agent>
            <dc:title>Robert Brooks</dc:title>
          </cc:Agent>
        </dc:creator>
      </cc:Work>
    </rdf:RDF>
  </metadata>
  <g
     inkscape:label="Layer 1"
     inkscape:groupmode="layer"
     id="layer1"
     transform="translate(-303.8994,-111.79737)">
    <g
       id="g20402"
       transform="matrix(0.64300046,0,0,0.64300046,285.92374,35.417858)">
      <g
         transform="matrix(0.9502488,0,0,0.9502488,-212.83133,82.345962)"
         id="g19842">
        <g
           id="g15946"
           transform="matrix(0.70394287,0,0,0.70394287,-258.39797,-192.79552)">
          <path
             style="opacity:0.23999999;color:#000000;fill:#2c4249;fill-opacity:1;fill-rule:nonzero;stroke:#000000;stroke-width:7.38172293;stroke-linejoin:round;stroke-miterlimit:4;stroke-opacity:1;stroke-dasharray:none;marker:none;visibility:visible;display:inline;overflow:visible;enable-background:accumulate"
             d="m 764.61647,354.52722 c 0,3.54591 -5.80455,5.34618 -13.46172,5.34618 -7.65721,0 -14.26744,-1.80027 -14.26744,-5.34618 0,-3.54588 6.20739,-6.42039 13.8646,-6.42039 7.65717,0 13.86456,2.87451 13.86456,6.42039 z"
             id="path15934"
             gds_color="shadow"
             inkscape:connector-curvature="0"
             sodipodi:nodetypes="sssss"
             gds_switchable="shadow"
             gds_opacity="shadow" />
          <path
             sodipodi:nodetypes="sssss"
             inkscape:connector-curvature="0"
             id="path15936"
             d="m 761.0765,351.44751 c 0,3.81049 -4.6177,3.66072 -10.31391,3.66072 -5.69621,0 -10.31391,0.14977 -10.31391,-3.66072 0,-3.8105 0.60275,-11.21047 10.31391,-12.56935 8.48082,-1.1867 10.31391,8.75885 10.31391,12.56935 z"
             style="color:#000000;fill:#141c1e;fill-opacity:1;fill-rule:nonzero;stroke:#141c1e;stroke-width:8.61200905;stroke-miterlimit:4;stroke-opacity:1;stroke-dasharray:none;marker:none;visibility:visible;display:inline;overflow:visible;enable-background:accumulate" />
          <path
             style="color:#000000;fill:#9bb5bd;fill-opacity:1;fill-rule:nonzero;stroke:none;stroke-width:16;marker:none;visibility:visible;display:inline;overflow:visible;enable-background:accumulate"
             d="m 761.0765,351.44751 c 0,3.81049 -4.6177,6.8995 -10.3139,6.8995 -5.69622,0 -10.31392,-3.08901 -10.31392,-6.8995 0,-3.8105 0.60276,-11.21047 10.31392,-12.56934 8.48082,-1.18671 10.3139,8.75884 10.3139,12.56934 z"
             id="path15938"
             inkscape:connector-curvature="0"
             sodipodi:nodetypes="sssss" />
          <path
             style="color:#000000;fill:#7e9faa;fill-opacity:1;fill-rule:nonzero;stroke:none;stroke-width:16;marker:none;visibility:visible;display:inline;overflow:visible;enable-background:accumulate"
             d="m 757.98953,341.62218 c 1.23754,5.32882 0.58338,11.67435 -7.28432,12.7865 -6.86374,0.97022 -9.99683,-0.95367 -9.93839,-6.70934 -0.26593,1.38592 -0.31421,2.70077 -0.31421,3.7455 0,3.8105 4.61428,6.90398 10.31049,6.90398 5.69619,0 10.3105,-3.09348 10.3105,-6.90398 0,-2.30606 -0.67414,-6.84996 -3.08407,-9.82266 z"
             id="path15940"
             inkscape:connector-curvature="0"
             sodipodi:nodetypes="cscsssc" />
          <path
             style="color:#000000;fill:#d0edf5;fill-opacity:1;fill-rule:nonzero;stroke:none;stroke-width:16;marker:none;visibility:visible;display:inline;overflow:visible;enable-background:accumulate"
             d="m 752.2762,338.77791 c -0.47929,-0.008 -0.98306,0.0251 -1.5131,0.0992 -9.71116,1.35887 -10.31049,8.75723 -10.31049,12.56771 0,0.19928 0.008,0.40034 0.0331,0.59531 0.22381,-3.99013 0.91329,-10.56923 10.27742,-11.87958 8.25101,-1.15459 9.8888,7.67451 10.2526,12.04495 0.0405,-0.24829 0.0579,-0.50517 0.0579,-0.76068 0,-3.57233 -1.60804,-12.53813 -8.7974,-12.66693 z"
             id="path15942"
             inkscape:connector-curvature="0"
             sodipodi:nodetypes="csscscsc" />
          <path
             style="opacity:0.45132745;color:#000000;fill:#d0edf5;fill-opacity:1;fill-rule:nonzero;stroke:none;stroke-width:16;marker:none;visibility:visible;display:inline;overflow:visible;enable-background:accumulate"
             d="m 750.89539,338.86062 c -0.0447,0.006 -0.0872,0.0103 -0.13229,0.0164 -4.53559,0.63469 -7.08784,2.58922 -8.51628,4.87829 -0.65275,2.27301 0.29808,4.65449 2.62105,5.62239 4.61176,1.92159 12.61906,-5.6116 9.92888,-8.68614 -1.25179,-1.43062 -2.28325,-1.94095 -3.90136,-1.83105 z"
             id="path15944"
             inkscape:connector-curvature="0"
             sodipodi:nodetypes="cccssc" />
        </g>
      </g>
    </g>
  </g>
</svg>
