<?xml version="1.0" encoding="UTF-8" standalone="no"?>
<!-- Created with Inkscape (http://www.inkscape.org/) -->

<svg
   xmlns:dc="http://purl.org/dc/elements/1.1/"
   xmlns:cc="http://creativecommons.org/ns#"
   xmlns:rdf="http://www.w3.org/1999/02/22-rdf-syntax-ns#"
   xmlns:svg="http://www.w3.org/2000/svg"
   xmlns="http://www.w3.org/2000/svg"
   xmlns:xlink="http://www.w3.org/1999/xlink"
   xmlns:sodipodi="http://sodipodi.sourceforge.net/DTD/sodipodi-0.dtd"
   xmlns:inkscape="http://www.inkscape.org/namespaces/inkscape"
   width="128.5137"
   height="137.39215"
   viewBox="0 0 34.002583 36.351677"
   version="1.1"
   id="svg23489"
   inkscape:version="0.48.5 r10040"
   sodipodi:docname="rock_16.svg">
  <defs
     id="defs23483">
    <linearGradient
       id="linearGradient18210"
       inkscape:collect="always">
      <stop
         id="stop18212"
         offset="0"
         style="stop-color:#c7e1e9;stop-opacity:1;" />
      <stop
         id="stop18214"
         offset="1"
         style="stop-color:#a8ccd7;stop-opacity:1" />
    </linearGradient>
    <linearGradient
       inkscape:collect="always"
       id="linearGradient17961">
      <stop
         style="stop-color:#c7e1e9;stop-opacity:1;"
         offset="0"
         id="stop17963" />
      <stop
         style="stop-color:#bed9e1;stop-opacity:1"
         offset="1"
         id="stop17965" />
    </linearGradient>
    <linearGradient
       inkscape:collect="always"
       xlink:href="#linearGradient17961"
       id="linearGradient4205"
       gradientUnits="userSpaceOnUse"
       x1="257.72763"
       y1="112.99445"
       x2="266.72488"
       y2="121.99171" />
    <linearGradient
       inkscape:collect="always"
       xlink:href="#linearGradient18210"
       id="linearGradient4207"
       gradientUnits="userSpaceOnUse"
       x1="140.8502"
       y1="215.79919"
       x2="185.84737"
       y2="248.0616" />
    <linearGradient
       inkscape:collect="always"
       xlink:href="#linearGradient18210"
       id="linearGradient4209"
       gradientUnits="userSpaceOnUse"
       x1="4572.6768"
       y1="1271.2262"
       x2="4579.1211"
       y2="1286.9503" />
    <linearGradient
       inkscape:collect="always"
       xlink:href="#linearGradient17961"
       id="linearGradient4211"
       gradientUnits="userSpaceOnUse"
       x1="1150.6195"
       y1="363.3812"
       x2="1170.1863"
       y2="365.82114" />
    <linearGradient
       inkscape:collect="always"
       xlink:href="#linearGradient17961"
       id="linearGradient4213"
       gradientUnits="userSpaceOnUse"
       x1="1150.6195"
       y1="363.3812"
       x2="1170.1863"
       y2="365.82114" />
    <linearGradient
       inkscape:collect="always"
       xlink:href="#linearGradient18210"
       id="linearGradient4215"
       gradientUnits="userSpaceOnUse"
       gradientTransform="translate(1203.4691,-943.80247)"
       x1="461.952"
       y1="837.54803"
       x2="466.28781"
       y2="901.13947" />
    <linearGradient
       inkscape:collect="always"
       xlink:href="#linearGradient17961"
       id="linearGradient4217"
       gradientUnits="userSpaceOnUse"
       x1="1150.6195"
       y1="363.3812"
       x2="1170.1863"
       y2="365.82114" />
    <linearGradient
       inkscape:collect="always"
       xlink:href="#linearGradient17961"
       id="linearGradient4219"
       gradientUnits="userSpaceOnUse"
       x1="257.72763"
       y1="112.99445"
       x2="266.72488"
       y2="121.99171" />
    <linearGradient
       inkscape:collect="always"
       xlink:href="#linearGradient18210"
       id="linearGradient4221"
       gradientUnits="userSpaceOnUse"
       x1="140.8502"
       y1="215.79919"
       x2="185.84737"
       y2="248.0616" />
    <linearGradient
       inkscape:collect="always"
       xlink:href="#linearGradient17961"
       id="linearGradient4223"
       gradientUnits="userSpaceOnUse"
       x1="1150.6195"
       y1="363.3812"
       x2="1170.1863"
       y2="365.82114" />
    <linearGradient
       inkscape:collect="always"
       xlink:href="#linearGradient18210"
       id="linearGradient4225"
       gradientUnits="userSpaceOnUse"
       gradientTransform="translate(1203.4691,-943.80247)"
       x1="461.952"
       y1="837.54803"
       x2="466.28781"
       y2="901.13947" />
    <linearGradient
       inkscape:collect="always"
       xlink:href="#linearGradient17961"
       id="linearGradient4227"
       gradientUnits="userSpaceOnUse"
       x1="257.72763"
       y1="112.99445"
       x2="266.72488"
       y2="121.99171" />
    <linearGradient
       inkscape:collect="always"
       xlink:href="#linearGradient18210"
       id="linearGradient4229"
       gradientUnits="userSpaceOnUse"
       x1="140.8502"
       y1="215.79919"
       x2="185.84737"
       y2="248.0616" />
    <linearGradient
       inkscape:collect="always"
       xlink:href="#linearGradient18210"
       id="linearGradient4231"
       gradientUnits="userSpaceOnUse"
       x1="4572.6768"
       y1="1271.2262"
       x2="4579.1211"
       y2="1286.9503" />
    <linearGradient
       inkscape:collect="always"
       xlink:href="#linearGradient17961"
       id="linearGradient4233"
       gradientUnits="userSpaceOnUse"
       x1="1150.6195"
       y1="363.3812"
       x2="1170.1863"
       y2="365.82114" />
    <linearGradient
       inkscape:collect="always"
       xlink:href="#linearGradient18210"
       id="linearGradient4235"
       gradientUnits="userSpaceOnUse"
       gradientTransform="translate(1203.4691,-943.80247)"
       x1="461.952"
       y1="837.54803"
       x2="466.28781"
       y2="901.13947" />
    <linearGradient
       inkscape:collect="always"
       xlink:href="#linearGradient17961"
       id="linearGradient4237"
       gradientUnits="userSpaceOnUse"
       x1="257.72763"
       y1="112.99445"
       x2="266.72488"
       y2="121.99171" />
    <linearGradient
       inkscape:collect="always"
       xlink:href="#linearGradient18210"
       id="linearGradient4239"
       gradientUnits="userSpaceOnUse"
       x1="140.8502"
       y1="215.79919"
       x2="185.84737"
       y2="248.0616" />
    <linearGradient
       inkscape:collect="always"
       xlink:href="#linearGradient18210"
       id="linearGradient4241"
       gradientUnits="userSpaceOnUse"
       x1="4572.6768"
       y1="1271.2262"
       x2="4579.1211"
       y2="1286.9503" />
    <linearGradient
       inkscape:collect="always"
       xlink:href="#linearGradient17961"
       id="linearGradient4243"
       gradientUnits="userSpaceOnUse"
       x1="1150.6195"
       y1="363.3812"
       x2="1170.1863"
       y2="365.82114" />
    <linearGradient
       inkscape:collect="always"
       xlink:href="#linearGradient17961"
       id="linearGradient4245"
       gradientUnits="userSpaceOnUse"
       x1="1150.6195"
       y1="363.3812"
       x2="1170.1863"
       y2="365.82114" />
    <linearGradient
       inkscape:collect="always"
       xlink:href="#linearGradient18210"
       id="linearGradient4247"
       gradientUnits="userSpaceOnUse"
       gradientTransform="translate(1203.4691,-943.80247)"
       x1="461.952"
       y1="837.54803"
       x2="466.28781"
       y2="901.13947" />
    <linearGradient
       inkscape:collect="always"
       xlink:href="#linearGradient17961"
       id="linearGradient4249"
       gradientUnits="userSpaceOnUse"
       x1="257.72763"
       y1="112.99445"
       x2="266.72488"
       y2="121.99171" />
    <linearGradient
       inkscape:collect="always"
       xlink:href="#linearGradient18210"
       id="linearGradient4251"
       gradientUnits="userSpaceOnUse"
       x1="140.8502"
       y1="215.79919"
       x2="185.84737"
       y2="248.0616" />
    <linearGradient
       inkscape:collect="always"
       xlink:href="#linearGradient18210"
       id="linearGradient4253"
       gradientUnits="userSpaceOnUse"
       x1="4572.6768"
       y1="1271.2262"
       x2="4579.1211"
       y2="1286.9503" />
    <linearGradient
       inkscape:collect="always"
       xlink:href="#linearGradient17961"
       id="linearGradient4255"
       gradientUnits="userSpaceOnUse"
       x1="1150.6195"
       y1="363.3812"
       x2="1170.1863"
       y2="365.82114" />
    <linearGradient
       inkscape:collect="always"
       xlink:href="#linearGradient18210"
       id="linearGradient4257"
       gradientUnits="userSpaceOnUse"
       gradientTransform="translate(1203.4691,-943.80247)"
       x1="461.952"
       y1="837.54803"
       x2="466.28781"
       y2="901.13947" />
  </defs>
  <sodipodi:namedview
     id="base"
     pagecolor="#7d848b"
     bordercolor="#666666"
     borderopacity="1.0"
     inkscape:pageopacity="0"
     inkscape:pageshadow="2"
     inkscape:zoom="0.4049134"
     inkscape:cx="607.25"
     inkscape:cy="272.98566"
     inkscape:document-units="px"
     inkscape:current-layer="layer1"
     showgrid="false"
     inkscape:pagecheckerboard="false"
     showborder="true"
     units="px"
     inkscape:window-width="1920"
     inkscape:window-height="1017"
     inkscape:window-x="-8"
     inkscape:window-y="-8"
     inkscape:window-maximized="1"
     inkscape:showpageshadow="false"
     guidetolerance="28"
     fit-margin-top="10"
     fit-margin-left="10"
     fit-margin-right="10"
     fit-margin-bottom="10">
    <inkscape:grid
       type="xygrid"
       id="grid24034"
       spacingx="1px"
       spacingy="1px"
       empspacing="8"
       visible="true"
       enabled="true"
       snapvisiblegridlinesonly="true"
       originx="-1031.817px"
       originy="-630.62429px" />
  </sodipodi:namedview>
  <metadata
     id="metadata23486">
    <rdf:RDF>
      <cc:Work
         rdf:about="">
        <dc:format>image/svg+xml</dc:format>
        <dc:type
           rdf:resource="http://purl.org/dc/dcmitype/StillImage" />
        <dc:title></dc:title>
        <cc:license
           rdf:resource="" />
        <dc:creator>
          <cc:Agent>
            <dc:title>Robert Brooks</dc:title>
          </cc:Agent>
        </dc:creator>
      </cc:Work>
    </rdf:RDF>
  </metadata>
  <g
     inkscape:label="Layer 1"
     inkscape:groupmode="layer"
     id="layer1"
     transform="translate(-273.00162,-93.79565)">
    <g
       id="g20697"
       transform="translate(-70.00543,50.825076)">
      <path
         transform="matrix(0.26458334,0,0,0.26458334,-6.3049604e-6,18.562493)"
         inkscape:connector-curvature="0"
         id="path20357"
         d="m 1338.3707,181.17881 c -11.2311,-1.11387 -30.8069,3.24535 -24.8857,6.88038 10.8393,6.6542 43.4561,24.44906 47.3101,25.41257 3.854,0.96351 36.0111,-2.67223 36.0111,-2.67223 7.2036,-3.05605 -8.2574,-12.48073 -17.9147,-18.5704 -9.6577,-6.08968 -40.5208,-11.05032 -40.5208,-11.05032 z"
         style="opacity:0.25;color:#000000;fill:#000000;fill-opacity:1;fill-rule:nonzero;stroke:#000000;stroke-width:12;stroke-linejoin:round;stroke-miterlimit:4;stroke-dasharray:none;marker:none;visibility:visible;display:inline;overflow:visible;enable-background:accumulate"
         gds_color="shadow"
         sodipodi:nodetypes="cssccc"
         gds_switchable="shadow"
         gds_opacity="shadow" />
      <g
         transform="matrix(0.9502488,0,0,0.9502488,-223.68095,138.06649)"
         id="g18470">
        <g
           id="g18252"
           transform="translate(171.43518,-83.474484)">
          <g
             id="g18222">
            <g
               id="g16882"
               transform="translate(318.41787,-249.71441)">
              <path
                 sodipodi:nodetypes="cccccscccccccc"
                 inkscape:connector-curvature="0"
                 id="path18187"
                 transform="matrix(0.26458334,0,0,0.26458334,-318.41788,268.2769)"
                 d="m 1660.0312,-115 c -3.4595,0.006 -5.9762,0.60243 -6.7812,2.09375 -3.0062,10.3547 -7.455,22.594685 -11.8125,34.28125 -0.6041,7.097842 -0.8468,10.584193 -0.8468,10.584193 l -3.9032,2.103307 c -6.1623,16.458731 -10.8457,29.527893 -8.7813,30.4375 57.7813,25.458867 43.3488,6.062401 32.75,1.4375 1.0106,-24.498782 16.4993,14.981925 16.5938,14.875 -8.3234,2.859622 25.717,7.337983 30.5938,5.875 l 15.4374,-71.5625 c 0.241,-2.40876 -5.9062,-13.78125 -5.9062,-13.78125 l -17.8438,-8.40625 -2.2812,-1.0625 c -0.5516,0.433 -24.8633,-6.89568 -37.2188,-6.875 z"
                 style="color:#000000;fill:#141c1e;fill-opacity:1;fill-rule:nonzero;stroke:#141c1e;stroke-width:14.73298359;stroke-linejoin:round;stroke-miterlimit:4;stroke-opacity:1;stroke-dasharray:none;marker:none;visibility:visible;display:inline;overflow:visible;enable-background:accumulate" />
              <path
                 id="path16880"
                 transform="matrix(0.26458334,0,0,0.26458334,-318.41788,268.2769)"
                 d="m 1697.25,-108.125 c -16.5587,33.02593 -19.919,67.24598 -22.625,101.53125 10.5986,-2.89052 32.75,-3.34375 32.75,-3.34375 l 15.9062,-74.9375 c 0.2409,-2.40876 -5.9062,-13.78125 -5.9062,-13.78125 l -20.125,-9.46875 z"
                 style="color:#000000;fill:#6c929e;fill-opacity:1;fill-rule:nonzero;stroke:none;stroke-width:14;marker:none;visibility:visible;display:inline;overflow:visible;enable-background:accumulate"
                 inkscape:connector-curvature="0" />
              <path
                 style="color:#000000;fill:#c7e1e9;fill-opacity:1;fill-rule:nonzero;stroke:none;stroke-width:14;marker:none;visibility:visible;display:inline;overflow:visible;enable-background:accumulate"
                 d="m 1697.25,-108.125 c -2.7405,5.46589 -5.1137,10.973502 -7.1875,16.5 4.6695,0.281894 9.0937,0.3125 9.0937,0.3125 3.0743,0 15.1439,2.668532 23.7813,4.65625 -1.2495,-3.999699 -5.5625,-12 -5.5625,-12 l -20.125,-9.46875 z"
                 transform="matrix(0.26458334,0,0,0.26458334,-318.41788,268.2769)"
                 id="path18199"
                 inkscape:connector-curvature="0" />
              <path
                 sodipodi:nodetypes="sccccccscs"
                 inkscape:connector-curvature="0"
                 id="path16878"
                 transform="matrix(0.26458334,0,0,0.26458334,-318.41788,268.2769)"
                 d="m 1660.0312,-115.09375 c -3.4526,0.0658 -5.9762,0.69618 -6.7812,2.1875 -3.0141,10.38196 -7.4534,22.617723 -11.8125,34.3125 -0.6032,7.084089 -1.5282,10.212292 -1.5282,10.212292 l -3.1905,2.443958 c -6.1414,16.410598 -10.8281,29.429717 -8.8126,30.4375 3.8541,1.92701 46.7188,28.90625 46.7188,28.90625 1.1671,1.73448 16.0274,-51.45041 25.0312,-80.90625 1.1947,-3.90835 0.9066,-19.07888 -2.4062,-20.625 -0.6354,-0.29657 -24.888,-7.20389 -37.2188,-6.96875 z"
                 style="color:#000000;fill:url(#linearGradient4257);fill-opacity:1;fill-rule:nonzero;stroke:none;stroke-width:14;marker:none;visibility:visible;display:inline;overflow:visible;enable-background:accumulate" />
              <path
                 id="path18194"
                 transform="matrix(0.26458334,0,0,0.26458334,-318.41788,268.2769)"
                 d="m 1660.0312,-115.09375 c -3.4526,0.0658 -5.9762,0.69618 -6.7812,2.1875 -3.0221,10.4095 -7.4552,22.626109 -11.8125,34.3125 -0.096,1.124425 -0.1886,2.114298 -0.2813,3.15625 7.5345,-15.217054 16.1353,-34.1875 18.9688,-34.1875 3.3723,0 33.2292,4.32823 35.1562,7.21875 1.9272,2.890518 1.4688,9.65625 1.4688,9.65625 0,0 -10.8424,48.072219 -13.7188,61.375 5.2144,-17.393933 11.7413,-40.147795 16.625,-56.125 1.1948,-3.90835 0.9066,-19.07888 -2.4062,-20.625 -0.6354,-0.29657 -24.8879,-7.20389 -37.2188,-6.96875 z"
                 style="color:#000000;fill:#f7f9fa;fill-opacity:1;fill-rule:nonzero;stroke:none;stroke-width:14;marker:none;visibility:visible;display:inline;overflow:visible;enable-background:accumulate"
                 inkscape:connector-curvature="0" />
              <path
                 id="path18247"
                 transform="matrix(0.26458334,0,0,0.26458334,-318.41788,268.2769)"
                 d="m 1641.3438,-77.5625 c -0.6004,6.325551 -1.4376,9.1875 -1.4376,9.1875 l -2.5,1.90625 c 4.3551,2.808959 13.375,5.9375 13.375,5.9375 0,0 -5.1647,-10.354391 -9.4374,-17.03125 z"
                 style="opacity:0.68584074;color:#000000;fill:#6c929e;fill-opacity:1;fill-rule:nonzero;stroke:none;stroke-width:14;marker:none;visibility:visible;display:inline;overflow:visible;enable-background:accumulate"
                 inkscape:connector-curvature="0" />
            </g>
          </g>
        </g>
      </g>
    </g>
  </g>
</svg>
