<?xml version="1.0" encoding="UTF-8" standalone="no"?>
<!-- Created with Inkscape (http://www.inkscape.org/) -->

<svg
   xmlns:dc="http://purl.org/dc/elements/1.1/"
   xmlns:cc="http://creativecommons.org/ns#"
   xmlns:rdf="http://www.w3.org/1999/02/22-rdf-syntax-ns#"
   xmlns:svg="http://www.w3.org/2000/svg"
   xmlns="http://www.w3.org/2000/svg"
   xmlns:xlink="http://www.w3.org/1999/xlink"
   xmlns:sodipodi="http://sodipodi.sourceforge.net/DTD/sodipodi-0.dtd"
   xmlns:inkscape="http://www.inkscape.org/namespaces/inkscape"
   width="177.21468"
   height="192.36879"
   viewBox="0 0 46.888048 50.89758"
   version="1.1"
   id="svg23489"
   inkscape:version="0.48.5 r10040"
   sodipodi:docname="rock_12.svg">
  <defs
     id="defs23483">
    <linearGradient
       id="linearGradient18210"
       inkscape:collect="always">
      <stop
         id="stop18212"
         offset="0"
         style="stop-color:#c7e1e9;stop-opacity:1;" />
      <stop
         id="stop18214"
         offset="1"
         style="stop-color:#a8ccd7;stop-opacity:1" />
    </linearGradient>
    <linearGradient
       inkscape:collect="always"
       id="linearGradient17961">
      <stop
         style="stop-color:#c7e1e9;stop-opacity:1;"
         offset="0"
         id="stop17963" />
      <stop
         style="stop-color:#bed9e1;stop-opacity:1"
         offset="1"
         id="stop17965" />
    </linearGradient>
    <linearGradient
       inkscape:collect="always"
       xlink:href="#linearGradient17961"
       id="linearGradient4205"
       gradientUnits="userSpaceOnUse"
       x1="257.72763"
       y1="112.99445"
       x2="266.72488"
       y2="121.99171" />
    <linearGradient
       inkscape:collect="always"
       xlink:href="#linearGradient18210"
       id="linearGradient4207"
       gradientUnits="userSpaceOnUse"
       x1="140.8502"
       y1="215.79919"
       x2="185.84737"
       y2="248.0616" />
    <linearGradient
       inkscape:collect="always"
       xlink:href="#linearGradient18210"
       id="linearGradient4209"
       gradientUnits="userSpaceOnUse"
       x1="4572.6768"
       y1="1271.2262"
       x2="4579.1211"
       y2="1286.9503" />
    <linearGradient
       inkscape:collect="always"
       xlink:href="#linearGradient17961"
       id="linearGradient4211"
       gradientUnits="userSpaceOnUse"
       x1="1150.6195"
       y1="363.3812"
       x2="1170.1863"
       y2="365.82114" />
    <linearGradient
       inkscape:collect="always"
       xlink:href="#linearGradient17961"
       id="linearGradient4213"
       gradientUnits="userSpaceOnUse"
       x1="1150.6195"
       y1="363.3812"
       x2="1170.1863"
       y2="365.82114" />
    <linearGradient
       inkscape:collect="always"
       xlink:href="#linearGradient18210"
       id="linearGradient4215"
       gradientUnits="userSpaceOnUse"
       gradientTransform="translate(1203.4691,-943.80247)"
       x1="461.952"
       y1="837.54803"
       x2="466.28781"
       y2="901.13947" />
  </defs>
  <sodipodi:namedview
     id="base"
     pagecolor="#7d848b"
     bordercolor="#666666"
     borderopacity="1.0"
     inkscape:pageopacity="0"
     inkscape:pageshadow="2"
     inkscape:zoom="0.4049134"
     inkscape:cx="1383.1803"
     inkscape:cy="274.32211"
     inkscape:document-units="px"
     inkscape:current-layer="layer1"
     showgrid="false"
     inkscape:pagecheckerboard="false"
     showborder="true"
     units="px"
     inkscape:window-width="1920"
     inkscape:window-height="1017"
     inkscape:window-x="-8"
     inkscape:window-y="-8"
     inkscape:window-maximized="1"
     inkscape:showpageshadow="false"
     guidetolerance="28"
     fit-margin-top="10"
     fit-margin-left="10"
     fit-margin-right="10"
     fit-margin-bottom="10">
    <inkscape:grid
       type="xygrid"
       id="grid24034"
       spacingx="1px"
       spacingy="1px"
       empspacing="8"
       visible="true"
       enabled="true"
       snapvisiblegridlinesonly="true"
       originx="-255.88673px"
       originy="-629.28785px" />
  </sodipodi:namedview>
  <metadata
     id="metadata23486">
    <rdf:RDF>
      <cc:Work
         rdf:about="">
        <dc:format>image/svg+xml</dc:format>
        <dc:type
           rdf:resource="http://purl.org/dc/dcmitype/StillImage" />
        <dc:title></dc:title>
        <cc:license
           rdf:resource="" />
        <dc:creator>
          <cc:Agent>
            <dc:title>Robert Brooks</dc:title>
          </cc:Agent>
        </dc:creator>
      </cc:Work>
    </rdf:RDF>
  </metadata>
  <g
     inkscape:label="Layer 1"
     inkscape:groupmode="layer"
     id="layer1"
     transform="translate(-67.70337,-79.603344)">
    <g
       id="g20412"
       transform="translate(-120.83051,-24.971893)">
      <path
         transform="matrix(0.26458334,0,0,0.26458334,-6.3049604e-6,18.562493)"
         inkscape:connector-curvature="0"
         id="path20367"
         d="m 746.93588,383.04892 c -10.73441,12.05141 -22.01356,29.5449 -17.19603,31.47191 4.81754,1.92702 56.22626,29.41272 54.84183,34.85764 -3.01839,11.87128 -6.55527,27.95777 -4.26586,30.06855 4.21943,3.45012 34.92289,26.13905 39.74042,21.32152 4.81753,-4.81753 41.0847,-35.30365 49.75625,-45.90223 5.21922,-6.37905 -9.17682,-14.91083 -16.88488,-18.76486 -7.70805,-3.85403 -105.99173,-53.05253 -105.99173,-53.05253 z"
         style="opacity:0.25;color:#000000;fill:#000000;fill-opacity:1;fill-rule:nonzero;stroke:#000000;stroke-width:12;stroke-linejoin:round;stroke-miterlimit:4;stroke-dasharray:none;marker:none;visibility:visible;display:inline;overflow:visible;enable-background:accumulate"
         gds_color="shadow"
         gds_switchable="shadow"
         sodipodi:nodetypes="csscsssc"
         gds_opacity="shadow" />
      <g
         transform="matrix(0.9502488,0,0,0.9502488,-197.81214,125.46554)"
         id="g19762">
        <g
           id="g37800"
           transform="matrix(2.0086969,0,0,1.7331398,-1994.5187,-620.5627)">
          <path
             style="color:#000000;fill:#141c1e;fill-opacity:1;fill-rule:nonzero;stroke:#141c1e;stroke-width:14.73298359;stroke-linejoin:round;stroke-miterlimit:4;stroke-opacity:1;stroke-dasharray:none;marker:none;visibility:visible;display:inline;overflow:visible;enable-background:accumulate"
             d="m 1604.7188,-135.34375 c -2.8941,-0.0166 -5.9291,0.009 -6.5313,0.25 -19.8747,16.40276 -35.4856,32.81985 -37.2187,34.65625 l -0.6563,-0.15625 c -5.5839,22.373715 0.3091,37.749581 -1.7187,37.09375 0,0 53.2758,30.206154 56.8124,34.65625 0,0.0021 -0.062,0.09375 -0.062,0.09375 0,0 0.2103,0.180705 0.2187,0.1875 0,0.01 0.028,0.02176 0.031,0.03125 1.3973,13.275118 -12.2576,36.4817533 18.0929,33.5912336 0,0 11.84,12.2440644 15.5008,9.8754214 1.8304,-1.184387 34.0961,-22.1574773 47.5937,-37.060405 l 8.4688,-45.3125 -3.7188,-4.3125 -91.1562,-63.5 c 0,0 -2.7622,-0.0772 -5.6562,-0.0937 z"
             transform="matrix(0.1317189,0,0,0.15266128,992.94159,368.76725)"
             id="path19757"
             inkscape:connector-curvature="0"
             sodipodi:nodetypes="sccccccccccccccs" />
          <path
             sodipodi:nodetypes="cccccccc"
             inkscape:connector-curvature="0"
             id="path37774"
             d="m 1198.464,353.41034 c -0.7355,3.4156 0.041,5.76527 -0.2261,5.66515 0,0 7.3854,4.85421 7.5059,5.33633 -0.094,0.48215 -0.6648,5.49529 -0.6612,5.49529 0,0 4.6058,3.63257 5.088,3.27097 0.2411,-0.18081 4.4899,-5.51447 6.2678,-7.78957 l 1.1151,-6.91569 z"
             style="color:#000000;fill:#82a2ad;fill-opacity:1;fill-rule:nonzero;stroke:none;stroke-width:16;marker:none;visibility:visible;display:inline;overflow:visible;enable-background:accumulate" />
          <path
             inkscape:connector-curvature="0"
             style="color:#000000;fill:#6c929e;fill-opacity:1;fill-rule:nonzero;stroke:none;stroke-width:16;marker:none;visibility:visible;display:inline;overflow:visible;enable-background:accumulate"
             d="m 1665.5312,-76.53125 c -0.668,1.65308 -0.9719,3.219708 -1.125,4.75 -0.6813,6.81302 -8.1562,41.5625 -8.1562,41.5625 -4.0878,8.175624 -6.1312,19.06224 -6.8125,22.46875 -0.4623,2.3113191 -0.6085,23.231851 -0.6563,36.78125 0.1586,-0.0258 0.2995,-0.05587 0.4063,-0.125 1.8304,-1.184387 34.0961,-36.1283223 47.5937,-51.03125 l 8.4688,-45.3125 -39.7188,-9.09375 z"
             transform="matrix(0.1317189,0,0,0.15266128,992.94159,368.76725)"
             id="path19747" />
          <path
             style="color:#000000;fill:#6c929e;fill-opacity:1;fill-rule:nonzero;stroke:none;stroke-width:16;marker:none;visibility:visible;display:inline;overflow:visible;enable-background:accumulate"
             d="m 1560.3106,-100.59375 c -5.5839,22.373715 -1.9171,36.786074 -1.9577,37.09375 0,0 56.326,31.810647 57.2409,34.96875 0.056,0.191927 0.086,0.509142 0.094,0.90625 10.2113,-8.817941 22.4912,-25.568358 30.3437,-40.75 0,0 0.021,-5.178254 2.75,-12 z"
             transform="matrix(0.1317189,0,0,0.15266128,992.94159,368.76725)"
             id="path19744"
             inkscape:connector-curvature="0"
             sodipodi:nodetypes="ccscccc" />
          <path
             inkscape:connector-curvature="0"
             id="path19787"
             transform="matrix(0.1317189,0,0,0.15266128,995.73365,372.00323)"
             d="m 1670.7812,-91.65625 c -1.0529,19.297598 -2.8512,49.419815 -5.8437,56.6875 -0.4863,1.180899 -0.9845,2.891601 -1.4375,4.875 4.598,-5.00853 8.9267,-9.721947 12.0938,-13.21875 l 8.4687,-45.3125 -13.2813,-3.03125 z"
             style="color:#000000;fill:#5c808b;fill-opacity:1;fill-rule:nonzero;stroke:none;stroke-width:16;marker:none;visibility:visible;display:inline;overflow:visible;enable-background:accumulate" />
          <path
             sodipodi:nodetypes="cccccc"
             inkscape:connector-curvature="0"
             id="path19782"
             transform="matrix(0.1317189,0,0,0.15266128,995.73365,372.00323)"
             d="m 1539.125,-121.78125 c -5.5839,22.373715 -1.9281,36.786074 -1.9688,37.09375 0,0 6.2003,3.501344 14.2813,8.15625 0.092,-1.403005 0.1751,-2.710075 0.2813,-3.71875 0.8936,-8.489282 1.704,-28.04381 2.1531,-33.82154 z"
             style="color:#000000;fill:#557781;fill-opacity:1;fill-rule:nonzero;stroke:none;stroke-width:16;marker:none;visibility:visible;display:inline;overflow:visible;enable-background:accumulate" />
          <path
             style="color:#000000;fill:url(#linearGradient4209);fill-opacity:1;fill-rule:nonzero;stroke:none;stroke-width:16;marker:none;visibility:visible;display:inline;overflow:visible;enable-background:accumulate"
             d="m 4548.4817,1245.6684 c -10.478,10.0225 -18.8541,20.3925 -18.8541,20.3925 0,0 32.8573,24.5619 33.3129,26.3841 0.4556,1.8223 -5.9223,14.5781 -5.9223,14.5781 0,0 15.0336,14.1225 16.8559,12.7558 1.8222,-1.3667 27.9028,-35.0785 27.9028,-35.0785 l -1.8437,-2.4965 -45.3886,-36.6362 c 0,0 -5.4633,-0.1773 -6.0629,0.1007 z"
             id="path37770"
             inkscape:connector-curvature="0"
             transform="matrix(0.26458334,0,0,0.26458334,-6.3049604e-6,18.562493)"
             sodipodi:nodetypes="ccccccccc" />
          <path
             inkscape:connector-curvature="0"
             style="color:#000000;fill:#e9f8fc;fill-opacity:1;fill-rule:nonzero;stroke:none;stroke-width:16;marker:none;visibility:visible;display:inline;overflow:visible;enable-background:accumulate"
             d="m 1604.7188,-135.34375 c -2.8941,-0.0166 -5.9291,0.009 -6.5313,0.25 -21.0471,17.37039 -37.875,35.34375 -37.875,35.34375 0,0 48.041,31.004367 62.6563,42.03125 3.3468,1.473961 4.9497,1.826946 3.9062,0.59375 -5.2992,-6.262793 -58.2891,-40.471479 -56.8438,-43.84375 1.4453,-3.37228 29.875,-28.40625 29.875,-28.40625 l 11.0626,-0.96875 c 0,0 88.651,60.229237 87.6874,62.15625 -0.5324,1.064982 -9.7003,15.299574 -18,27.96875 12.709,-13.993834 24.5938,-27.21875 24.5938,-27.21875 l -3.7188,-4.3125 -91.1562,-63.5 c 0,0 -2.7622,-0.0772 -5.6562,-0.0937 z"
             transform="matrix(0.1317189,0,0,0.15266128,992.94159,368.76725)"
             id="path19752" />
        </g>
        <path
           style="color:#000000;fill:#e9f8fc;fill-opacity:1;fill-rule:nonzero;stroke:#202c30;stroke-width:0;stroke-linecap:round;stroke-linejoin:round;stroke-miterlimit:4;stroke-opacity:1;stroke-dasharray:none;stroke-dashoffset:37.6;marker:none;visibility:visible;display:inline;overflow:visible;enable-background:accumulate"
           d="m 1619.6545,-25.319916 c 6.2628,5.781039 25.533,17.8248712 27.9417,16.8613646 2.4088,-0.9635066 32.2775,-30.8322106 29.8687,-27.9416906 -2.4087,2.89052 -25.5329,28.4234439 -26.4964,31.3139636 -0.9635,2.8905197 -1.927,32.2774704 -2.8905,28.9051974 -0.9635,-3.372273 0.4817,-27.4599375 -1.927,-29.3869507 -2.4088,-1.9270131 -26.4965,-19.7518843 -26.4965,-19.7518843 z"
           id="path19755"
           inkscape:connector-curvature="0"
           transform="matrix(0.26458334,0,0,0.26458334,-6.3049604e-6,18.562493)" />
      </g>
    </g>
  </g>
</svg>
