<?xml version="1.0" encoding="UTF-8" standalone="no"?><!-- Created with Inkscape (http://www.inkscape.org/) --><svg xmlns:dc="http://purl.org/dc/elements/1.1/" xmlns:cc="http://creativecommons.org/ns#" xmlns:rdf="http://www.w3.org/1999/02/22-rdf-syntax-ns#" xmlns:svg="http://www.w3.org/2000/svg" xmlns="http://www.w3.org/2000/svg" xmlns:sodipodi="http://sodipodi.sourceforge.net/DTD/sodipodi-0.dtd" xmlns:inkscape="http://www.inkscape.org/namespaces/inkscape" width="76.598572" height="79.66053" viewBox="0 0 20.266704 21.076847" version="1.1" id="svg23489" inkscape:version="0.48.5 r10040" sodipodi:docname="cep_02.svg">
  <defs id="defs23483">
    <clipPath clipPathUnits="userSpaceOnUse" id="clipPath22932">
      <path style="opacity: 0.39823; color: rgb(0, 0, 0); fill: rgb(186, 255, 81); fill-opacity: 1; fill-rule: nonzero; stroke: none; stroke-width: 0; marker: none; visibility: visible; display: inline; overflow: visible;" d="m 544.30169,181.88988 c 0.28587,0.59217 2.59866,1.15837 3.74216,0.1578 0.98015,2.77708 16.86469,0 16.86469,0 l 0,-16.17162 -30.55281,0 0,15.42079 c 0,0 6.65838,3.49263 9.94596,0.59303 z" id="path22934" inkscape:connector-curvature="0" sodipodi:nodetypes="ccccccc"/>
    </clipPath>
    <clipPath clipPathUnits="userSpaceOnUse" id="clipPath22874">
      <path style="opacity: 0.39823; color: rgb(0, 0, 0); fill: rgb(186, 255, 81); fill-opacity: 1; fill-rule: nonzero; stroke: none; stroke-width: 0; marker: none; visibility: visible; display: inline; overflow: visible;" d="m 507.96393,172.04108 c 5.63585,4.14521 4.40861,7.03756 4.24526,7.42553 -0.16336,0.38797 -0.45419,0.84609 -0.55527,0.75946 0,0 -0.23077,1.39392 -0.96715,1.52387 0,0 0.7281,2.05291 -3.23333,2.91054 -3.96143,0.85763 -12.08849,-2.45037 -11.76178,-7.80034 0.32672,-5.34998 9.00511,-7.35111 12.27227,-4.81906 z" id="path22876" inkscape:connector-curvature="0" sodipodi:nodetypes="csccssc"/>
    </clipPath>
    <clipPath clipPathUnits="userSpaceOnUse" id="clipPath22894">
      <path style="opacity: 0.39823; color: rgb(0, 0, 0); fill: rgb(186, 255, 81); fill-opacity: 1; fill-rule: nonzero; stroke: none; stroke-width: 0; marker: none; visibility: visible; display: inline; overflow: visible;" d="m 519.13353,181.84256 c 1.53,1.07862 2.21773,-0.85703 2.00114,-1.06183 0.0817,0.0408 1.9603,0.65343 4.32899,-2.85877 2.36869,-3.51219 0,-9.96483 -8.00455,-11.96597 -8.00454,-2.00113 -11.2717,3.47136 -11.47589,10.16904 -0.2042,6.69767 5.75836,9.27056 9.76064,9.7198 4.00227,0.44923 3.38967,-4.00227 3.38967,-4.00227 z" id="path22896" inkscape:connector-curvature="0" sodipodi:nodetypes="ccssssc"/>
    </clipPath>
    <clipPath clipPathUnits="userSpaceOnUse" id="clipPath23263">
      <path style="opacity: 0.39823; color: rgb(0, 0, 0); fill: rgb(186, 255, 81); fill-opacity: 1; fill-rule: nonzero; stroke: none; stroke-width: 0; marker: none; visibility: visible; display: inline; overflow: visible;" d="m 507.96393,172.04108 c 5.63585,4.14521 4.40861,7.03756 4.24526,7.42553 -0.16336,0.38797 -0.45419,0.84609 -0.55527,0.75946 0,0 -0.23077,1.39392 -0.96715,1.52387 0,0 0.7281,2.05291 -3.23333,2.91054 -3.96143,0.85763 -12.08849,-2.45037 -11.76178,-7.80034 0.32672,-5.34998 9.00511,-7.35111 12.27227,-4.81906 z" id="path23265" inkscape:connector-curvature="0" sodipodi:nodetypes="csccssc"/>
    </clipPath>
    <clipPath clipPathUnits="userSpaceOnUse" id="clipPath22907">
      <path style="opacity: 0.39823; color: rgb(0, 0, 0); fill: rgb(186, 255, 81); fill-opacity: 1; fill-rule: nonzero; stroke: none; stroke-width: 0; marker: none; visibility: visible; display: inline; overflow: visible;" d="m 525.58617,181.98549 c 0.89522,0.98185 2.40724,0.64233 3.04255,0.12252 0.16124,0.72559 12.13955,0.23486 11.90471,0 -0.23482,-0.23483 4.09811,-23.83249 0,-26.19853 -4.09811,-2.36605 -15.11061,0 -21.31822,0 -6.2076,0 -9.48879,8.76153 -8.08444,14.00265 1.40436,5.24112 4.81751,7.15803 7.00687,9.97898 2.18936,2.82095 7.44853,2.09438 7.44853,2.09438 z" id="path22909" inkscape:connector-curvature="0" sodipodi:nodetypes="ccsssssc"/>
    </clipPath>
    <clipPath clipPathUnits="userSpaceOnUse" id="clipPath23269">
      <path style="opacity: 0.39823; color: rgb(0, 0, 0); fill: rgb(186, 255, 81); fill-opacity: 1; fill-rule: nonzero; stroke: none; stroke-width: 0; marker: none; visibility: visible; display: inline; overflow: visible;" d="m 525.58617,181.98549 c 0.89522,0.98185 2.40724,0.64233 3.04255,0.12252 0.16124,0.72559 12.13955,0.23486 11.90471,0 -0.23482,-0.23483 4.09811,-23.83249 0,-26.19853 -4.09811,-2.36605 -15.11061,0 -21.31822,0 -6.2076,0 -9.48879,8.76153 -8.08444,14.00265 1.40436,5.24112 4.81751,7.15803 7.00687,9.97898 2.18936,2.82095 7.44853,2.09438 7.44853,2.09438 z" id="path23271" inkscape:connector-curvature="0" sodipodi:nodetypes="ccsssssc"/>
    </clipPath>
    <clipPath clipPathUnits="userSpaceOnUse" id="clipPath23273">
      <path style="opacity: 0.39823; color: rgb(0, 0, 0); fill: rgb(186, 255, 81); fill-opacity: 1; fill-rule: nonzero; stroke: none; stroke-width: 0; marker: none; visibility: visible; display: inline; overflow: visible;" d="m 507.96393,172.04108 c 5.63585,4.14521 4.40861,7.03756 4.24526,7.42553 -0.16336,0.38797 -0.45419,0.84609 -0.55527,0.75946 0,0 -0.23077,1.39392 -0.96715,1.52387 0,0 0.7281,2.05291 -3.23333,2.91054 -3.96143,0.85763 -12.08849,-2.45037 -11.76178,-7.80034 0.32672,-5.34998 9.00511,-7.35111 12.27227,-4.81906 z" id="path23275" inkscape:connector-curvature="0" sodipodi:nodetypes="csccssc"/>
    </clipPath>
    <clipPath clipPathUnits="userSpaceOnUse" id="clipPath23277">
      <path style="opacity: 0.39823; color: rgb(0, 0, 0); fill: rgb(186, 255, 81); fill-opacity: 1; fill-rule: nonzero; stroke: none; stroke-width: 0; marker: none; visibility: visible; display: inline; overflow: visible;" d="m 519.13353,181.84256 c 1.53,1.07862 2.21773,-0.85703 2.00114,-1.06183 0.0817,0.0408 1.9603,0.65343 4.32899,-2.85877 2.36869,-3.51219 0,-9.96483 -8.00455,-11.96597 -8.00454,-2.00113 -11.2717,3.47136 -11.47589,10.16904 -0.2042,6.69767 5.75836,9.27056 9.76064,9.7198 4.00227,0.44923 3.38967,-4.00227 3.38967,-4.00227 z" id="path23279" inkscape:connector-curvature="0" sodipodi:nodetypes="ccssssc"/>
    </clipPath>
    <clipPath clipPathUnits="userSpaceOnUse" id="clipPath23281">
      <path style="opacity: 0.39823; color: rgb(0, 0, 0); fill: rgb(186, 255, 81); fill-opacity: 1; fill-rule: nonzero; stroke: none; stroke-width: 0; marker: none; visibility: visible; display: inline; overflow: visible;" d="m 525.58617,181.98549 c 0.89522,0.98185 2.40724,0.64233 3.04255,0.12252 0.16124,0.72559 12.13955,0.23486 11.90471,0 -0.23482,-0.23483 4.09811,-23.83249 0,-26.19853 -4.09811,-2.36605 -15.11061,0 -21.31822,0 -6.2076,0 -9.48879,8.76153 -8.08444,14.00265 1.40436,5.24112 4.81751,7.15803 7.00687,9.97898 2.18936,2.82095 7.44853,2.09438 7.44853,2.09438 z" id="path23283" inkscape:connector-curvature="0" sodipodi:nodetypes="ccsssssc"/>
    </clipPath>
    <clipPath clipPathUnits="userSpaceOnUse" id="clipPath23285">
      <path style="opacity: 0.39823; color: rgb(0, 0, 0); fill: rgb(186, 255, 81); fill-opacity: 1; fill-rule: nonzero; stroke: none; stroke-width: 0; marker: none; visibility: visible; display: inline; overflow: visible;" d="m 544.30169,181.88988 c 0.28587,0.59217 2.59866,1.15837 3.74216,0.1578 0.98015,2.77708 16.86469,0 16.86469,0 l 0,-16.17162 -30.55281,0 0,15.42079 c 0,0 6.65838,3.49263 9.94596,0.59303 z" id="path23287" inkscape:connector-curvature="0" sodipodi:nodetypes="ccccccc"/>
    </clipPath>
    <clipPath clipPathUnits="userSpaceOnUse" id="clipPath23289">
      <path style="opacity: 0.39823; color: rgb(0, 0, 0); fill: rgb(186, 255, 81); fill-opacity: 1; fill-rule: nonzero; stroke: none; stroke-width: 0; marker: none; visibility: visible; display: inline; overflow: visible;" d="m 507.96393,172.04108 c 5.63585,4.14521 4.40861,7.03756 4.24526,7.42553 -0.16336,0.38797 -0.45419,0.84609 -0.55527,0.75946 0,0 -0.23077,1.39392 -0.96715,1.52387 0,0 0.7281,2.05291 -3.23333,2.91054 -3.96143,0.85763 -12.08849,-2.45037 -11.76178,-7.80034 0.32672,-5.34998 9.00511,-7.35111 12.27227,-4.81906 z" id="path23291" inkscape:connector-curvature="0" sodipodi:nodetypes="csccssc"/>
    </clipPath>
    <clipPath clipPathUnits="userSpaceOnUse" id="clipPath22919">
      <path style="opacity: 0.39823; color: rgb(0, 0, 0); fill: rgb(186, 255, 81); fill-opacity: 1; fill-rule: nonzero; stroke: none; stroke-width: 0; marker: none; visibility: visible; display: inline; overflow: visible;" d="m 533.24358,180.67863 c -0.16336,1.16393 0.51049,2.00114 2.00114,1.20477 -1.74256,1.5022 -0.71572,1.26164 1.42124,3.05207 2.13697,1.79043 11.4934,0.98185 12.12872,0.5198 0.63531,-0.46205 8.02805,-6.41089 8.0858,-8.66336 0.0578,-2.25248 -1.90593,-15.01651 -5.19801,-17.78878 -3.29208,-2.77228 -16.4604,-0.57756 -19.75248,-0.0578 -3.29208,0.5198 -10.16501,5.71782 -9.93399,5.77558 0.23102,0.0577 2.83003,15.42079 2.77228,15.65181 -0.0578,0.23102 2.42574,4.15842 2.83003,3.92739 0.40429,-0.23102 3.95121,-3.17246 3.95121,-3.17246 0,0 1.59196,0.89865 1.69406,-0.44906 z" id="path22921" inkscape:connector-curvature="0" sodipodi:nodetypes="ccsssssssscc"/>
    </clipPath>
    <clipPath clipPathUnits="userSpaceOnUse" id="clipPath23295">
      <path style="opacity: 0.39823; color: rgb(0, 0, 0); fill: rgb(186, 255, 81); fill-opacity: 1; fill-rule: nonzero; stroke: none; stroke-width: 0; marker: none; visibility: visible; display: inline; overflow: visible;" d="m 525.58617,181.98549 c 0.89522,0.98185 2.40724,0.64233 3.04255,0.12252 0.16124,0.72559 12.13955,0.23486 11.90471,0 -0.23482,-0.23483 4.09811,-23.83249 0,-26.19853 -4.09811,-2.36605 -15.11061,0 -21.31822,0 -6.2076,0 -9.48879,8.76153 -8.08444,14.00265 1.40436,5.24112 4.81751,7.15803 7.00687,9.97898 2.18936,2.82095 7.44853,2.09438 7.44853,2.09438 z" id="path23297" inkscape:connector-curvature="0" sodipodi:nodetypes="ccsssssc"/>
    </clipPath>
    <clipPath clipPathUnits="userSpaceOnUse" id="clipPath23299">
      <path style="opacity: 0.39823; color: rgb(0, 0, 0); fill: rgb(186, 255, 81); fill-opacity: 1; fill-rule: nonzero; stroke: none; stroke-width: 0; marker: none; visibility: visible; display: inline; overflow: visible;" d="m 525.58617,181.98549 c 0.89522,0.98185 2.40724,0.64233 3.04255,0.12252 0.16124,0.72559 12.13955,0.23486 11.90471,0 -0.23482,-0.23483 4.09811,-23.83249 0,-26.19853 -4.09811,-2.36605 -15.11061,0 -21.31822,0 -6.2076,0 -9.48879,8.76153 -8.08444,14.00265 1.40436,5.24112 4.81751,7.15803 7.00687,9.97898 2.18936,2.82095 7.44853,2.09438 7.44853,2.09438 z" id="path23301" inkscape:connector-curvature="0" sodipodi:nodetypes="ccsssssc"/>
    </clipPath>
  </defs>
  <sodipodi:namedview id="base" pagecolor="#7d848b" bordercolor="#666666" borderopacity="1.0" inkscape:pageopacity="0" inkscape:pageshadow="2" inkscape:zoom="2.2905361" inkscape:cx="-123.04962" inkscape:cy="-35.588236" inkscape:document-units="px" inkscape:current-layer="layer1" showgrid="false" inkscape:pagecheckerboard="false" showborder="true" units="px" inkscape:window-width="1920" inkscape:window-height="1017" inkscape:window-x="-8" inkscape:window-y="-8" inkscape:window-maximized="1" inkscape:showpageshadow="false" guidetolerance="28" fit-margin-top="6" fit-margin-left="6" fit-margin-right="6" fit-margin-bottom="6">
    <inkscape:grid type="xygrid" id="grid24034" spacingx="1px" spacingy="1px" empspacing="8" visible="true" enabled="true" snapvisiblegridlinesonly="true" originx="-351.10854px" originy="-413.99815px"/>
  </sodipodi:namedview>
  <metadata id="metadata23486">
    <rdf:RDF>
      <cc:Work rdf:about="">
        <dc:format>image/svg+xml</dc:format>
        <dc:type rdf:resource="http://purl.org/dc/dcmitype/StillImage"/>
        <dc:title/>
        <cc:license rdf:resource=""/>
        <dc:creator>
          <cc:Agent>
            <dc:title>Robert Brooks</dc:title>
          </cc:Agent>
        </dc:creator>
      </cc:Work>
    </rdf:RDF>
  </metadata>
  <g inkscape:label="Layer 1" inkscape:groupmode="layer" id="layer1" transform="translate(-92.897467,-166.38612)">
    <path transform="matrix(0.26458336,0,0,0.29818125,89.05135,401.7763)" style="opacity: 0.29646; color: rgb(0, 0, 0); fill: rgb(0, 0, 0); fill-opacity: 1; fill-rule: nonzero; stroke: none; stroke-width: 0; marker: none; visibility: visible; display: inline; overflow: visible;" d="m 82.513433,-737.81128 c 0,7.59515 -11.825516,13.75224 -26.41303,13.75224 -14.587514,0 -26.413031,-6.15709 -26.413031,-13.75224 0,-7.59515 11.825517,-13.75224 26.413031,-13.75224 14.587514,0 26.41303,6.15709 26.41303,13.75224 z" id="path29288" gds_color="shadow" inkscape:connector-curvature="0" gds_opacity="shadow" gds_switchable="shadow"/>
    <g id="g29247" transform="matrix(0.62738635,0,0,0.62738635,-199.53013,234.58223)" gds_color="stem">
      <path sodipodi:nodetypes="csssssscc" inkscape:connector-curvature="0" id="path16902" d="m 479.67808,-95.834989 c 0.92336,3.462564 -2.56832,6.167601 -2.57425,8.880637 -0.002,1.138392 0.66536,2.535981 2.53404,3.553743 2.01899,1.099628 3.9836,-1.176097 3.48201,-2.236992 -1.08501,-2.294879 2.4661,-4.313434 3.74785,-3.885746 2.35826,0.786892 2.23881,6.859599 3.45611,2.496035 0.93281,-3.343795 -2.34411,-5.421457 -4.7472,-9.463047 -2.40311,-4.041631 -5.8471,-1.17899 -5.8471,-1.17899 z" style="color: rgb(0, 0, 0); fill: rgb(255, 255, 255); fill-opacity: 1; fill-rule: nonzero; stroke: rgb(20, 30, 30); stroke-width: 4.21723; stroke-linecap: round; stroke-linejoin: round; stroke-miterlimit: 4; stroke-opacity: 1; stroke-dasharray: none; stroke-dashoffset: 37.6; marker: none; visibility: visible; display: inline; overflow: visible;"/>
      <path style="color: rgb(0, 0, 0); fill: rgb(227, 243, 245); fill-opacity: 1; fill-rule: nonzero; stroke: none; stroke-width: 0; marker: none; visibility: visible; display: inline; overflow: visible;" d="m 479.67808,-95.834989 c 1.3108,4.91546 -6.12793,8.422663 -0.34026,12.418599 1.28762,0.889003 3.12868,1.187495 4.93965,0.967412 2.83794,-0.34489 5.60196,-1.963281 6.04637,-4.578334 0.58161,-3.422402 -2.34411,-5.421457 -4.7472,-9.463047 -2.40311,-4.041631 -5.8471,-1.17899 -5.8471,-1.17899 z" id="path29245" inkscape:connector-curvature="0" sodipodi:nodetypes="csssscc"/>
      <path style="opacity: 0.858407; color: rgb(0, 0, 0); fill: rgb(144, 182, 187); fill-opacity: 1; fill-rule: nonzero; stroke: none; stroke-width: 0; marker: none; visibility: visible; display: inline; overflow: visible;" d="m 612.71875,-728.4375 c -5.22024,0.27672 -9.3125,3.6875 -9.3125,3.6875 l -0.21875,6.9375 c 3.19255,11.97196 -7.32929,21.74871 -9.375,31.21875 0.78726,0.3063 1.65161,0.55678 2.5625,0.75 14.40711,3.05605 39.71875,-3.71875 39.71875,-3.71875 3.27434,13.97053 -37.59887,24.54874 -42.53125,7.1875 0.39898,3.7916 2.67337,7.58505 8.34375,11.5 4.86659,3.36001 11.84289,4.48806 18.6875,3.65625 10.72607,-1.30352 21.16409,-7.39759 22.84375,-17.28125 2.19821,-12.93506 -8.85496,-20.50595 -17.9375,-35.78125 -3.97365,-6.68301 -8.72106,-8.37147 -12.78125,-8.15625 z" transform="matrix(0.26458336,0,0,0.26458336,320.08182,94.083721)" id="path29253" inkscape:connector-curvature="0" sodipodi:nodetypes="scccsccsssss"/>
    </g>
    <g id="g29233" transform="matrix(0.68054398,0,0,0.68054398,-227.60344,236.64508)" gds_color="cap">
      <path sodipodi:nodetypes="ccssscc" inkscape:connector-curvature="0" id="path16900" d="m 484.93008,-98.721411 c -10.01048,1.669898 -10.54408,10.241511 -9.12406,12.316901 0.71293,1.669254 2.79754,2.392137 3.74796,2.038154 8.00602,-2.981848 -10.7863,-2.592171 8.91525,-3.642807 2.58496,-0.137849 5.11369,-0.08556 6.60878,-1.101816 0.91269,-0.620381 1.44153,-1.581145 1.36663,-3.062744 -0.71818,-3.481655 -3.70885,-7.871007 -11.51456,-6.547688 z" style="color: rgb(0, 0, 0); fill: rgb(160, 90, 44); fill-opacity: 1; fill-rule: nonzero; stroke: rgb(40, 22, 10); stroke-width: 3.88782; stroke-linecap: round; stroke-linejoin: round; stroke-miterlimit: 4; stroke-opacity: 1; stroke-dasharray: none; stroke-dashoffset: 37.6; marker: none; visibility: visible; display: inline; overflow: visible;"/>
      <path style="color: rgb(0, 0, 0); fill: rgb(160, 90, 44); fill-opacity: 1; fill-rule: nonzero; stroke: none; stroke-width: 0; marker: none; visibility: visible; display: inline; overflow: visible;" d="m 484.93008,-98.721411 c -10.01048,1.669898 -10.54408,10.241511 -9.12406,12.316901 1.65104,5.540766 21.87665,-0.150635 20.63862,-5.769213 -0.71818,-3.481655 -3.70885,-7.871007 -11.51456,-6.547688 z" id="path29177" inkscape:connector-curvature="0" sodipodi:nodetypes="cccc"/>
      <path sodipodi:nodetypes="cscccc" inkscape:connector-curvature="0" id="path29198" transform="matrix(0.26458336,0,0,0.26458336,320.08182,94.083721)" d="m 655.78125,-722.40625 c 5.42313,8.65654 11.62507,27.93408 -25.375,34.8102 -37.6818,7.00281 -44.24738,-6.31371 -40.5,-18.9977 -4.88005,10.05807 -4.08165,20.436 -1.34375,24.4375 6.24015,20.94148 82.67917,-0.57693 78,-21.8125 -1.29357,-6.27109 -4.5463,-13.31631 -10.78125,-18.4375 z" style="opacity: 0.314159; color: rgb(0, 0, 0); fill: rgb(75, 35, 9); fill-opacity: 1; fill-rule: nonzero; stroke: none; stroke-width: 0; marker: none; visibility: visible; display: inline; overflow: visible;"/>
      <path id="path29210" transform="matrix(0.26458336,0,0,0.26458336,320.08182,94.083721)" d="m 633.28125,-729.625 c -3.1378,-6.6e-4 -6.53101,0.28106 -10.21875,0.90625 -37.83488,6.31142 -39.867,38.71851 -34.5,46.5625 6.24015,20.94148 82.67917,-0.57693 78,-21.8125 -2.37508,-11.51413 -11.31665,-25.6516 -33.28125,-25.65625 z m -0.375,3.125 c 20.52266,0.004 28.87456,13.2105 31.09375,23.96875 4.37197,19.84149 -67.04447,39.94171 -72.875,20.375 -5.01468,-7.32905 -3.13238,-37.60291 32.21875,-43.5 3.44564,-0.58415 6.63069,-0.84437 9.5625,-0.84375 z" style="color: rgb(0, 0, 0); fill: rgb(204, 122, 68); fill-opacity: 1; fill-rule: nonzero; stroke: none; stroke-width: 0; marker: none; visibility: visible; display: inline; overflow: visible;" inkscape:connector-curvature="0"/>
      <path id="path29215" transform="matrix(0.26458336,0,0,0.26458336,320.08182,94.083721)" d="m 633.28125,-729.625 c -3.1378,-6.6e-4 -6.53101,0.28106 -10.21875,0.90625 -20.94177,3.4934 -30.90219,14.98524 -34.71875,25.875 3.38448,3.31562 10.30868,5.43153 21.65625,5.1875 34.77255,-0.7478 46.81458,-14.50536 47.21875,-23.53125 -5.27861,-4.9436 -12.99918,-8.43519 -23.9375,-8.4375 z" style="opacity: 0.314159; color: rgb(0, 0, 0); fill: rgb(204, 122, 68); fill-opacity: 1; fill-rule: nonzero; stroke: none; stroke-width: 0; marker: none; visibility: visible; display: inline; overflow: visible;" inkscape:connector-curvature="0"/>
      <path transform="matrix(0.26458336,0,0,0.26458336,320.08182,94.083721)" d="m 613.61183,-689.02362 a 2.5103295,2.5103295 0 1 1 -5.02066,0 2.5103295,2.5103295 0 1 1 5.02066,0 z" sodipodi:ry="2.5103295" sodipodi:rx="2.5103295" sodipodi:cy="-689.02362" sodipodi:cx="611.1015" id="path29223" style="color: rgb(0, 0, 0); fill: rgb(133, 73, 33); fill-opacity: 1; fill-rule: nonzero; stroke: none; stroke-width: 0; marker: none; visibility: visible; display: inline; overflow: visible;" sodipodi:type="arc"/>
      <path sodipodi:type="arc" style="color: rgb(0, 0, 0); fill: rgb(133, 73, 33); fill-opacity: 1; fill-rule: nonzero; stroke: none; stroke-width: 0; marker: none; visibility: visible; display: inline; overflow: visible;" id="path29225" sodipodi:cx="611.1015" sodipodi:cy="-689.02362" sodipodi:rx="2.5103295" sodipodi:ry="2.5103295" d="m 613.61183,-689.02362 a 2.5103295,2.5103295 0 1 1 -5.02066,0 2.5103295,2.5103295 0 1 1 5.02066,0 z" transform="matrix(0.26458336,0,0,0.26458336,320.08182,94.083721)"/>
      <path transform="matrix(0.26458336,0,0,0.26458336,320.08182,94.083721)" d="m 658.1429,-698.41003 a 2.5103295,2.5103295 0 1 1 -5.02066,0 2.5103295,2.5103295 0 1 1 5.02066,0 z" sodipodi:ry="2.5103295" sodipodi:rx="2.5103295" sodipodi:cy="-698.41003" sodipodi:cx="655.63257" id="path29227" style="color: rgb(0, 0, 0); fill: rgb(133, 73, 33); fill-opacity: 1; fill-rule: nonzero; stroke: none; stroke-width: 0; marker: none; visibility: visible; display: inline; overflow: visible;" sodipodi:type="arc"/>
      <path transform="matrix(0.26458336,0,0,0.26458336,320.08182,94.083721)" d="m 627.80061,-685.09436 a 4.9115138,4.9115138 0 1 1 -9.82302,0 4.9115138,4.9115138 0 1 1 9.82302,0 z" sodipodi:ry="4.9115138" sodipodi:rx="4.9115138" sodipodi:cy="-685.09436" sodipodi:cx="622.8891" id="path29229" style="color: rgb(0, 0, 0); fill: rgb(133, 73, 33); fill-opacity: 1; fill-rule: nonzero; stroke: none; stroke-width: 0; marker: none; visibility: visible; display: inline; overflow: visible;" sodipodi:type="arc"/>
      <path transform="matrix(0.26458336,0,0,0.26458336,320.08182,94.083721)" d="m 601.60591,-689.24188 a 2.5103295,2.5103295 0 1 1 -5.02066,0 2.5103295,2.5103295 0 1 1 5.02066,0 z" sodipodi:ry="2.5103295" sodipodi:rx="2.5103295" sodipodi:cy="-689.24188" sodipodi:cx="599.09558" id="path29231" style="color: rgb(0, 0, 0); fill: rgb(133, 73, 33); fill-opacity: 1; fill-rule: nonzero; stroke: none; stroke-width: 0; marker: none; visibility: visible; display: inline; overflow: visible;" sodipodi:type="arc"/>
    </g>
  </g>
</svg>