<?xml version="1.0" encoding="UTF-8" standalone="no"?><!-- Created with Inkscape (http://www.inkscape.org/) --><svg xmlns:dc="http://purl.org/dc/elements/1.1/" xmlns:cc="http://creativecommons.org/ns#" xmlns:rdf="http://www.w3.org/1999/02/22-rdf-syntax-ns#" xmlns:svg="http://www.w3.org/2000/svg" xmlns="http://www.w3.org/2000/svg" xmlns:sodipodi="http://sodipodi.sourceforge.net/DTD/sodipodi-0.dtd" xmlns:inkscape="http://www.inkscape.org/namespaces/inkscape" width="78.205772" height="46.856716" viewBox="0 0 20.691942 12.397505" version="1.1" id="svg23489" inkscape:version="0.48.5 r10040" sodipodi:docname="grass_tuft_01.svg">
  <defs id="defs23483">
    <clipPath clipPathUnits="userSpaceOnUse" id="clipPath22932">
      <path style="opacity: 0.39823; color: rgb(0, 0, 0); fill: rgb(186, 255, 81); fill-opacity: 1; fill-rule: nonzero; stroke: none; stroke-width: 0; marker: none; visibility: visible; display: inline; overflow: visible;" d="m 544.30169,181.88988 c 0.28587,0.59217 2.59866,1.15837 3.74216,0.1578 0.98015,2.77708 16.86469,0 16.86469,0 l 0,-16.17162 -30.55281,0 0,15.42079 c 0,0 6.65838,3.49263 9.94596,0.59303 z" id="path22934" inkscape:connector-curvature="0" sodipodi:nodetypes="ccccccc"/>
    </clipPath>
    <clipPath clipPathUnits="userSpaceOnUse" id="clipPath22874">
      <path style="opacity: 0.39823; color: rgb(0, 0, 0); fill: rgb(186, 255, 81); fill-opacity: 1; fill-rule: nonzero; stroke: none; stroke-width: 0; marker: none; visibility: visible; display: inline; overflow: visible;" d="m 507.96393,172.04108 c 5.63585,4.14521 4.40861,7.03756 4.24526,7.42553 -0.16336,0.38797 -0.45419,0.84609 -0.55527,0.75946 0,0 -0.23077,1.39392 -0.96715,1.52387 0,0 0.7281,2.05291 -3.23333,2.91054 -3.96143,0.85763 -12.08849,-2.45037 -11.76178,-7.80034 0.32672,-5.34998 9.00511,-7.35111 12.27227,-4.81906 z" id="path22876" inkscape:connector-curvature="0" sodipodi:nodetypes="csccssc"/>
    </clipPath>
    <clipPath clipPathUnits="userSpaceOnUse" id="clipPath22894">
      <path style="opacity: 0.39823; color: rgb(0, 0, 0); fill: rgb(186, 255, 81); fill-opacity: 1; fill-rule: nonzero; stroke: none; stroke-width: 0; marker: none; visibility: visible; display: inline; overflow: visible;" d="m 519.13353,181.84256 c 1.53,1.07862 2.21773,-0.85703 2.00114,-1.06183 0.0817,0.0408 1.9603,0.65343 4.32899,-2.85877 2.36869,-3.51219 0,-9.96483 -8.00455,-11.96597 -8.00454,-2.00113 -11.2717,3.47136 -11.47589,10.16904 -0.2042,6.69767 5.75836,9.27056 9.76064,9.7198 4.00227,0.44923 3.38967,-4.00227 3.38967,-4.00227 z" id="path22896" inkscape:connector-curvature="0" sodipodi:nodetypes="ccssssc"/>
    </clipPath>
    <clipPath clipPathUnits="userSpaceOnUse" id="clipPath23263">
      <path style="opacity: 0.39823; color: rgb(0, 0, 0); fill: rgb(186, 255, 81); fill-opacity: 1; fill-rule: nonzero; stroke: none; stroke-width: 0; marker: none; visibility: visible; display: inline; overflow: visible;" d="m 507.96393,172.04108 c 5.63585,4.14521 4.40861,7.03756 4.24526,7.42553 -0.16336,0.38797 -0.45419,0.84609 -0.55527,0.75946 0,0 -0.23077,1.39392 -0.96715,1.52387 0,0 0.7281,2.05291 -3.23333,2.91054 -3.96143,0.85763 -12.08849,-2.45037 -11.76178,-7.80034 0.32672,-5.34998 9.00511,-7.35111 12.27227,-4.81906 z" id="path23265" inkscape:connector-curvature="0" sodipodi:nodetypes="csccssc"/>
    </clipPath>
    <clipPath clipPathUnits="userSpaceOnUse" id="clipPath22907">
      <path style="opacity: 0.39823; color: rgb(0, 0, 0); fill: rgb(186, 255, 81); fill-opacity: 1; fill-rule: nonzero; stroke: none; stroke-width: 0; marker: none; visibility: visible; display: inline; overflow: visible;" d="m 525.58617,181.98549 c 0.89522,0.98185 2.40724,0.64233 3.04255,0.12252 0.16124,0.72559 12.13955,0.23486 11.90471,0 -0.23482,-0.23483 4.09811,-23.83249 0,-26.19853 -4.09811,-2.36605 -15.11061,0 -21.31822,0 -6.2076,0 -9.48879,8.76153 -8.08444,14.00265 1.40436,5.24112 4.81751,7.15803 7.00687,9.97898 2.18936,2.82095 7.44853,2.09438 7.44853,2.09438 z" id="path22909" inkscape:connector-curvature="0" sodipodi:nodetypes="ccsssssc"/>
    </clipPath>
    <clipPath clipPathUnits="userSpaceOnUse" id="clipPath23269">
      <path style="opacity: 0.39823; color: rgb(0, 0, 0); fill: rgb(186, 255, 81); fill-opacity: 1; fill-rule: nonzero; stroke: none; stroke-width: 0; marker: none; visibility: visible; display: inline; overflow: visible;" d="m 525.58617,181.98549 c 0.89522,0.98185 2.40724,0.64233 3.04255,0.12252 0.16124,0.72559 12.13955,0.23486 11.90471,0 -0.23482,-0.23483 4.09811,-23.83249 0,-26.19853 -4.09811,-2.36605 -15.11061,0 -21.31822,0 -6.2076,0 -9.48879,8.76153 -8.08444,14.00265 1.40436,5.24112 4.81751,7.15803 7.00687,9.97898 2.18936,2.82095 7.44853,2.09438 7.44853,2.09438 z" id="path23271" inkscape:connector-curvature="0" sodipodi:nodetypes="ccsssssc"/>
    </clipPath>
    <clipPath clipPathUnits="userSpaceOnUse" id="clipPath23273">
      <path style="opacity: 0.39823; color: rgb(0, 0, 0); fill: rgb(186, 255, 81); fill-opacity: 1; fill-rule: nonzero; stroke: none; stroke-width: 0; marker: none; visibility: visible; display: inline; overflow: visible;" d="m 507.96393,172.04108 c 5.63585,4.14521 4.40861,7.03756 4.24526,7.42553 -0.16336,0.38797 -0.45419,0.84609 -0.55527,0.75946 0,0 -0.23077,1.39392 -0.96715,1.52387 0,0 0.7281,2.05291 -3.23333,2.91054 -3.96143,0.85763 -12.08849,-2.45037 -11.76178,-7.80034 0.32672,-5.34998 9.00511,-7.35111 12.27227,-4.81906 z" id="path23275" inkscape:connector-curvature="0" sodipodi:nodetypes="csccssc"/>
    </clipPath>
    <clipPath clipPathUnits="userSpaceOnUse" id="clipPath23277">
      <path style="opacity: 0.39823; color: rgb(0, 0, 0); fill: rgb(186, 255, 81); fill-opacity: 1; fill-rule: nonzero; stroke: none; stroke-width: 0; marker: none; visibility: visible; display: inline; overflow: visible;" d="m 519.13353,181.84256 c 1.53,1.07862 2.21773,-0.85703 2.00114,-1.06183 0.0817,0.0408 1.9603,0.65343 4.32899,-2.85877 2.36869,-3.51219 0,-9.96483 -8.00455,-11.96597 -8.00454,-2.00113 -11.2717,3.47136 -11.47589,10.16904 -0.2042,6.69767 5.75836,9.27056 9.76064,9.7198 4.00227,0.44923 3.38967,-4.00227 3.38967,-4.00227 z" id="path23279" inkscape:connector-curvature="0" sodipodi:nodetypes="ccssssc"/>
    </clipPath>
    <clipPath clipPathUnits="userSpaceOnUse" id="clipPath23281">
      <path style="opacity: 0.39823; color: rgb(0, 0, 0); fill: rgb(186, 255, 81); fill-opacity: 1; fill-rule: nonzero; stroke: none; stroke-width: 0; marker: none; visibility: visible; display: inline; overflow: visible;" d="m 525.58617,181.98549 c 0.89522,0.98185 2.40724,0.64233 3.04255,0.12252 0.16124,0.72559 12.13955,0.23486 11.90471,0 -0.23482,-0.23483 4.09811,-23.83249 0,-26.19853 -4.09811,-2.36605 -15.11061,0 -21.31822,0 -6.2076,0 -9.48879,8.76153 -8.08444,14.00265 1.40436,5.24112 4.81751,7.15803 7.00687,9.97898 2.18936,2.82095 7.44853,2.09438 7.44853,2.09438 z" id="path23283" inkscape:connector-curvature="0" sodipodi:nodetypes="ccsssssc"/>
    </clipPath>
    <clipPath clipPathUnits="userSpaceOnUse" id="clipPath23285">
      <path style="opacity: 0.39823; color: rgb(0, 0, 0); fill: rgb(186, 255, 81); fill-opacity: 1; fill-rule: nonzero; stroke: none; stroke-width: 0; marker: none; visibility: visible; display: inline; overflow: visible;" d="m 544.30169,181.88988 c 0.28587,0.59217 2.59866,1.15837 3.74216,0.1578 0.98015,2.77708 16.86469,0 16.86469,0 l 0,-16.17162 -30.55281,0 0,15.42079 c 0,0 6.65838,3.49263 9.94596,0.59303 z" id="path23287" inkscape:connector-curvature="0" sodipodi:nodetypes="ccccccc"/>
    </clipPath>
    <clipPath clipPathUnits="userSpaceOnUse" id="clipPath23289">
      <path style="opacity: 0.39823; color: rgb(0, 0, 0); fill: rgb(186, 255, 81); fill-opacity: 1; fill-rule: nonzero; stroke: none; stroke-width: 0; marker: none; visibility: visible; display: inline; overflow: visible;" d="m 507.96393,172.04108 c 5.63585,4.14521 4.40861,7.03756 4.24526,7.42553 -0.16336,0.38797 -0.45419,0.84609 -0.55527,0.75946 0,0 -0.23077,1.39392 -0.96715,1.52387 0,0 0.7281,2.05291 -3.23333,2.91054 -3.96143,0.85763 -12.08849,-2.45037 -11.76178,-7.80034 0.32672,-5.34998 9.00511,-7.35111 12.27227,-4.81906 z" id="path23291" inkscape:connector-curvature="0" sodipodi:nodetypes="csccssc"/>
    </clipPath>
    <clipPath clipPathUnits="userSpaceOnUse" id="clipPath22919">
      <path style="opacity: 0.39823; color: rgb(0, 0, 0); fill: rgb(186, 255, 81); fill-opacity: 1; fill-rule: nonzero; stroke: none; stroke-width: 0; marker: none; visibility: visible; display: inline; overflow: visible;" d="m 533.24358,180.67863 c -0.16336,1.16393 0.51049,2.00114 2.00114,1.20477 -1.74256,1.5022 -0.71572,1.26164 1.42124,3.05207 2.13697,1.79043 11.4934,0.98185 12.12872,0.5198 0.63531,-0.46205 8.02805,-6.41089 8.0858,-8.66336 0.0578,-2.25248 -1.90593,-15.01651 -5.19801,-17.78878 -3.29208,-2.77228 -16.4604,-0.57756 -19.75248,-0.0578 -3.29208,0.5198 -10.16501,5.71782 -9.93399,5.77558 0.23102,0.0577 2.83003,15.42079 2.77228,15.65181 -0.0578,0.23102 2.42574,4.15842 2.83003,3.92739 0.40429,-0.23102 3.95121,-3.17246 3.95121,-3.17246 0,0 1.59196,0.89865 1.69406,-0.44906 z" id="path22921" inkscape:connector-curvature="0" sodipodi:nodetypes="ccsssssssscc"/>
    </clipPath>
    <clipPath clipPathUnits="userSpaceOnUse" id="clipPath23295">
      <path style="opacity: 0.39823; color: rgb(0, 0, 0); fill: rgb(186, 255, 81); fill-opacity: 1; fill-rule: nonzero; stroke: none; stroke-width: 0; marker: none; visibility: visible; display: inline; overflow: visible;" d="m 525.58617,181.98549 c 0.89522,0.98185 2.40724,0.64233 3.04255,0.12252 0.16124,0.72559 12.13955,0.23486 11.90471,0 -0.23482,-0.23483 4.09811,-23.83249 0,-26.19853 -4.09811,-2.36605 -15.11061,0 -21.31822,0 -6.2076,0 -9.48879,8.76153 -8.08444,14.00265 1.40436,5.24112 4.81751,7.15803 7.00687,9.97898 2.18936,2.82095 7.44853,2.09438 7.44853,2.09438 z" id="path23297" inkscape:connector-curvature="0" sodipodi:nodetypes="ccsssssc"/>
    </clipPath>
    <clipPath clipPathUnits="userSpaceOnUse" id="clipPath23299">
      <path style="opacity: 0.39823; color: rgb(0, 0, 0); fill: rgb(186, 255, 81); fill-opacity: 1; fill-rule: nonzero; stroke: none; stroke-width: 0; marker: none; visibility: visible; display: inline; overflow: visible;" d="m 525.58617,181.98549 c 0.89522,0.98185 2.40724,0.64233 3.04255,0.12252 0.16124,0.72559 12.13955,0.23486 11.90471,0 -0.23482,-0.23483 4.09811,-23.83249 0,-26.19853 -4.09811,-2.36605 -15.11061,0 -21.31822,0 -6.2076,0 -9.48879,8.76153 -8.08444,14.00265 1.40436,5.24112 4.81751,7.15803 7.00687,9.97898 2.18936,2.82095 7.44853,2.09438 7.44853,2.09438 z" id="path23301" inkscape:connector-curvature="0" sodipodi:nodetypes="ccsssssc"/>
    </clipPath>
  </defs>
  <sodipodi:namedview id="base" pagecolor="#7d848b" bordercolor="#666666" borderopacity="1.0" inkscape:pageopacity="0" inkscape:pageshadow="2" inkscape:zoom="2.2905361" inkscape:cx="40.872079" inkscape:cy="32.879335" inkscape:document-units="px" inkscape:current-layer="layer1" showgrid="false" inkscape:pagecheckerboard="false" showborder="true" units="px" inkscape:window-width="1920" inkscape:window-height="1017" inkscape:window-x="-8" inkscape:window-y="-8" inkscape:window-maximized="1" inkscape:showpageshadow="false" guidetolerance="28" fit-margin-top="6" fit-margin-left="6" fit-margin-right="6" fit-margin-bottom="6">
    <inkscape:grid type="xygrid" id="grid24034" spacingx="1px" spacingy="1px" empspacing="8" visible="true" enabled="true" snapvisiblegridlinesonly="true" originx="-212.42668px" originy="-744.87138px"/>
  </sodipodi:namedview>
  <metadata id="metadata23486">
    <rdf:RDF>
      <cc:Work rdf:about="">
        <dc:format>image/svg+xml</dc:format>
        <dc:type rdf:resource="http://purl.org/dc/dcmitype/StillImage"/>
        <dc:title/>
        <cc:license rdf:resource=""/>
        <dc:creator>
          <cc:Agent>
            <dc:title>Robert Brooks</dc:title>
          </cc:Agent>
        </dc:creator>
      </cc:Work>
    </rdf:RDF>
  </metadata>
  <g inkscape:label="Layer 1" inkscape:groupmode="layer" id="layer1" transform="translate(-56.204561,-87.521932)">
    <g id="g23174" transform="matrix(0.81409259,0,0,0.81409259,-367.36923,-59.029543)">
      <g id="g23122" transform="translate(-14.045286,10.165016)">
        <path clip-path="url(#clipPath22932)" style="color: rgb(0, 0, 0); fill: rgb(142, 213, 35); fill-opacity: 1; fill-rule: nonzero; stroke: rgb(23, 23, 23); stroke-width: 2.45906; stroke-linejoin: round; stroke-miterlimit: 4; stroke-opacity: 1; stroke-dasharray: none; marker: none; visibility: visible; display: inline; overflow: visible;" d="m 544.38841,176.06493 c 0.0706,0.32211 0.0988,6.71055 -0.26335,4.12656 -0.19621,-1.39986 -0.20147,-2.00533 -0.16692,-5.08044 0.0356,-3.17201 4.41067,-2.28868 4.41067,-0.28588 0,1.04915 -0.0823,3.35482 -0.14787,5.17234 -0.11273,3.12454 -0.46229,-1.71989 -0.28684,-3.47548 0.1582,-1.58301 -3.30766,-1.91841 -3.54569,-0.4571 z" id="path23124" inkscape:connector-curvature="0" sodipodi:nodetypes="csssssc"/>
        <path sodipodi:nodetypes="csssc" inkscape:connector-curvature="0" id="path23126" d="m 544.24402,181.52285 c -0.12252,-1.87862 -0.32672,-2.77709 -0.28588,-6.4118 0.0356,-3.17201 4.41067,-2.28868 4.41067,-0.28588 0,1.30941 -0.11189,5.47641 -0.2042,6.86104 -0.0817,1.22518 -3.79807,1.5519 -3.92059,-0.16336 z" style="color: rgb(0, 0, 0); fill: rgb(142, 213, 35); fill-opacity: 1; fill-rule: nonzero; stroke: none; stroke-width: 0; marker: none; visibility: visible; display: inline; overflow: visible;"/>
        <path id="path23128" d="m 548.3606,175.74927 c -0.005,0.003 -0.0331,0.0165 -0.0331,0.0165 0,0 -0.28614,3.3028 -0.69454,4.28294 -0.40839,0.98015 -0.89924,1.63936 -2.08359,1.14929 -0.9381,-0.38819 -1.3616,-2.10648 -1.57923,-3.81993 0.0459,1.87415 0.18096,2.73342 0.27285,4.14239 0.12252,1.71526 3.83746,1.39055 3.91914,0.16536 0.0774,-1.16053 0.17097,-4.18765 0.19844,-5.93659 z" style="color: rgb(0, 0, 0); fill: rgb(122, 191, 18); fill-opacity: 1; fill-rule: nonzero; stroke: none; stroke-width: 0; marker: none; visibility: visible; display: inline; overflow: visible;" inkscape:connector-curvature="0"/>
        <path id="path23130" d="m 545.97108,173.02076 c -1.02611,0.007 -1.99247,0.60498 -2.00918,2.09186 -0.0408,3.63471 0.1586,4.52926 0.28112,6.40788 0.009,0.12091 0.0409,0.22971 0.0827,0.33073 0.021,-0.14584 0.0372,-0.33527 0.0413,-0.61185 0.0408,-2.73625 -0.36804,-6.82631 1.30638,-7.2347 1.67442,-0.4084 2.40756,0.78275 2.53008,2.57968 0.0196,0.28738 0.0667,0.55366 0.12403,0.80202 0.0266,-1.0559 0.0413,-2.04816 0.0413,-2.56315 0,-1.06399 -1.23487,-1.81056 -2.39779,-1.80247 z" style="color: rgb(0, 0, 0); fill: rgb(186, 255, 81); fill-opacity: 1; fill-rule: nonzero; stroke: none; stroke-width: 0; marker: none; visibility: visible; display: inline; overflow: visible;" inkscape:connector-curvature="0"/>
      </g>
      <g id="g23078" transform="translate(18.445092,10.973597)">
        <path clip-path="url(#clipPath22874)" sodipodi:nodetypes="csccscsccccccsssscsc" inkscape:connector-curvature="0" id="path23080" d="m 507.51132,177.0482 c -1.27046,0.0303 -2.22,0.69384 -2.39815,1.19267 -0.0198,0.0554 -0.0362,0.108 -0.0513,0.1603 -4.1e-4,0.002 4.1e-4,0.004 0,0.006 -0.0163,0.057 -0.0278,0.11318 -0.0385,0.16671 -0.0433,0.21686 -0.0425,0.40105 0.006,0.57069 0.0923,0.52242 0.43227,0.94234 0.93618,1.04518 0.29148,0.0595 0.59676,0.0408 0.90412,0.006 0.008,-0.001 0.0172,0.001 0.0256,0 0.56781,-0.0305 1.1776,-0.1895 1.75694,-0.0641 0.002,4.1e-4 0.004,-4.1e-4 0.006,0 0.0633,0.0139 0.12352,0.0366 0.18595,0.0577 0.002,6.2e-4 0.004,-6.2e-4 0.006,0 0.0625,0.0214 0.12452,0.0472 0.18595,0.077 0.5381,0.26037 1.15701,1.20872 1.26346,0.24139 0.0259,-0.23557 -0.65783,-1.30507 -0.37313,-1.13071 0.50957,0.31207 -0.60481,-0.16112 0.30325,0.12564 0.90265,0.28504 1.12223,-0.2455 0.61465,-1.0125 -1.16394,-1.10851 -2.34619,-1.46633 -3.33433,-1.44274 z" style="color: rgb(0, 0, 0); fill: rgb(186, 255, 81); fill-opacity: 1; fill-rule: nonzero; stroke: rgb(23, 23, 23); stroke-width: 2.38382; stroke-linejoin: round; stroke-opacity: 1; marker: none; visibility: visible; display: inline; overflow: visible;"/>
        <path sodipodi:nodetypes="csssssc" inkscape:connector-curvature="0" id="path23082" d="m 510.84491,178.49276 c -2.66043,-2.53375 -5.41588,-1.14019 -5.7326,-0.25338 -0.31672,0.88681 0.0792,1.78946 0.85514,1.94782 0.97146,0.19826 2.06014,-0.41051 3.07217,0.0792 0.98183,0.47507 0.70026,0.97608 1.33022,1.36189 0.50957,0.31207 1.20353,-0.095 1.26687,-1.04517 0.0633,-0.95016 -0.44341,-1.64694 -0.7918,-2.09034 z" style="color: rgb(0, 0, 0); fill: rgb(142, 213, 35); fill-opacity: 1; fill-rule: nonzero; stroke: none; stroke-width: 0; marker: none; visibility: visible; display: inline; overflow: visible;"/>
        <path id="path23084" d="m 505.14523,178.16392 c -0.0128,0.0259 -0.0231,0.0518 -0.0321,0.077 -0.31672,0.88681 0.0769,1.79094 0.85282,1.9493 0.97146,0.19826 2.0594,-0.41274 3.07143,0.077 0.98183,0.47507 0.70378,0.97357 1.33373,1.35938 0.50957,0.31207 1.19986,-0.095 1.2632,-1.04519 0.0147,-0.22028 -0.001,-0.42252 -0.0385,-0.61557 -0.0186,0.35352 -0.10543,0.70981 -0.38473,0.80794 -0.58593,0.20586 -0.62278,-0.93745 -1.73129,-1.30167 -1.10851,-0.36423 -2.16461,0.25872 -2.98807,0.17954 -0.78452,-0.0754 -1.49998,-0.82794 -1.34656,-1.48763 z" style="color: rgb(0, 0, 0); fill: rgb(122, 191, 18); fill-opacity: 1; fill-rule: nonzero; stroke: none; stroke-width: 0; marker: none; visibility: visible; display: inline; overflow: visible;" inkscape:connector-curvature="0"/>
        <path id="path23086" d="m 507.51132,177.0482 c -1.27046,0.0303 -2.22,0.69384 -2.39815,1.19267 -0.0283,0.0791 -0.0534,0.15845 -0.0705,0.23725 0.0585,0.86422 1.08624,1.43571 2.50716,1.12213 2.2962,-0.50675 1.83699,-1.62947 2.09036,-1.69281 0.25338,-0.0634 1.39757,0.74294 1.63511,1.45556 0.0693,0.20803 0.15477,0.29607 0.24366,0.30137 -0.16121,-0.49535 -0.44903,-0.88802 -0.67328,-1.17343 -1.16394,-1.10851 -2.34619,-1.46633 -3.33433,-1.44274 z" style="opacity: 0.60177; color: rgb(0, 0, 0); fill: rgb(186, 255, 81); fill-opacity: 1; fill-rule: nonzero; stroke: none; stroke-width: 0; marker: none; visibility: visible; display: inline; overflow: visible;" inkscape:connector-curvature="0"/>
      </g>
      <g id="g23088" transform="matrix(0.97022023,0.2422245,-0.2422245,0.97022023,68.866933,-110.05336)">
        <path clip-path="url(#clipPath22894)" style="color: rgb(0, 0, 0); fill: rgb(130, 195, 255); fill-opacity: 1; fill-rule: nonzero; stroke: rgb(23, 23, 23); stroke-width: 2.45906; stroke-linecap: round; stroke-linejoin: round; stroke-miterlimit: 4; stroke-opacity: 1; stroke-dasharray: none; stroke-dashoffset: 37.6; marker: none; visibility: visible; display: inline; overflow: visible;" d="m 518.41121,178.15574 c 1.40398,3.79364 -0.20756,2.21204 -0.49086,1.83326 -3.44795,-4.61008 -1.60276,-6.37656 0.15834,-4.92624 0.84966,0.69971 1.56956,1.72381 2.10357,2.79159 0.38155,0.7629 0.2598,3.71259 -0.91663,1.02802 -0.24323,-0.55502 -1.41184,-3.6005 -0.85442,-0.72663 z" id="path23090" inkscape:connector-curvature="0" sodipodi:nodetypes="cssssc"/>
        <path inkscape:connector-curvature="0" id="path23092" d="m 518.65625,181.30038 c -4.27393,-5.66007 -2.54125,-7.85479 -0.57756,-6.23762 1.9637,1.61716 3.23432,4.96699 3.11881,6.58415 -0.11551,1.61717 -2.05118,0.55194 -2.54125,-0.34653 z" style="color: rgb(0, 0, 0); fill: rgb(142, 213, 35); fill-opacity: 1; fill-rule: nonzero; stroke: none; stroke-width: 0; marker: none; visibility: visible; display: inline; overflow: visible;" sodipodi:nodetypes="cssc"/>
        <path sodipodi:nodetypes="cssc" style="color: rgb(0, 0, 0); fill: rgb(142, 213, 35); fill-opacity: 1; fill-rule: nonzero; stroke: none; stroke-width: 0; marker: none; visibility: visible; display: inline; overflow: visible;" d="m 518.65625,181.30038 c -4.27393,-5.66007 -2.54125,-7.85479 -0.57756,-6.23762 1.9637,1.61716 3.23432,4.96699 3.11881,6.58415 -0.11551,1.61717 -2.05118,0.55194 -2.54125,-0.34653 z" id="path23094" inkscape:connector-curvature="0"/>
        <path inkscape:connector-curvature="0" style="color: rgb(0, 0, 0); fill: rgb(186, 255, 81); fill-opacity: 1; fill-rule: nonzero; stroke: none; stroke-width: 0; marker: none; visibility: visible; display: inline; overflow: visible;" d="m 516.88491,174.54361 c -0.91393,0.0196 -1.33169,1.28699 -0.14883,3.7207 -0.27666,-1.34748 -0.1797,-2.57592 0.53744,-2.69544 1.07054,-0.17843 3.20667,3.41582 3.83646,4.95267 -0.32284,-1.73918 -1.45593,-4.15709 -3.03444,-5.45704 -0.42956,-0.35375 -0.84363,-0.52832 -1.19063,-0.52089 z" id="path23096"/>
        <path style="color: rgb(0, 0, 0); fill: rgb(122, 191, 18); fill-opacity: 1; fill-rule: nonzero; stroke: none; stroke-width: 0; marker: none; visibility: visible; display: inline; overflow: visible;" d="m 516.61727,178.00947 c 0.41925,0.9187 1.08062,2.01724 2.04225,3.29076 0.49008,0.89847 2.42284,1.96443 2.53835,0.34726 0.0599,-0.83912 -0.2537,-2.1433 -0.84336,-3.43131 -0.01,0.009 -0.0165,0.0229 -0.0165,0.0331 0,0.16336 0.86239,2.53058 -0.28111,2.57142 -1.14351,0.0408 -2.65437,-1.67446 -3.34864,-2.69544 -0.0319,-0.0469 -0.0633,-0.08 -0.091,-0.11576 z" id="path23098" inkscape:connector-curvature="0"/>
      </g>
      <g transform="matrix(-0.82299074,0.56805479,0.56805479,0.82299074,856.34243,-247.21552)" id="g23152">
        <path style="color: rgb(0, 0, 0); fill: rgb(186, 255, 81); fill-opacity: 1; fill-rule: nonzero; stroke: rgb(23, 23, 23); stroke-width: 2.38382; stroke-linejoin: round; stroke-opacity: 1; marker: none; visibility: visible; display: inline; overflow: visible;" d="m 507.51132,177.0482 c -1.27046,0.0303 -2.22,0.69384 -2.39815,1.19267 -0.0198,0.0554 -0.0362,0.108 -0.0513,0.1603 -4.1e-4,0.002 4.1e-4,0.004 0,0.006 -0.0163,0.057 -0.0278,0.11318 -0.0385,0.16671 -0.0433,0.21686 -0.0425,0.40105 0.006,0.57069 0.0923,0.52242 0.43227,0.94234 0.93618,1.04518 0.29148,0.0595 0.59676,0.0408 0.90412,0.006 0.008,-0.001 0.0172,0.001 0.0256,0 0.56781,-0.0305 1.1776,-0.1895 1.75694,-0.0641 0.002,4.1e-4 0.004,-4.1e-4 0.006,0 0.0633,0.0139 0.12352,0.0366 0.18595,0.0577 0.002,6.2e-4 0.004,-6.2e-4 0.006,0 0.0625,0.0214 0.12452,0.0472 0.18595,0.077 0.5381,0.26037 1.15701,1.20872 1.26346,0.24139 0.0259,-0.23557 -0.65783,-1.30507 -0.37313,-1.13071 0.50957,0.31207 -0.60481,-0.16112 0.30325,0.12564 0.90265,0.28504 1.12223,-0.2455 0.61465,-1.0125 -1.16394,-1.10851 -2.34619,-1.46633 -3.33433,-1.44274 z" id="path23154" inkscape:connector-curvature="0" sodipodi:nodetypes="csccscsccccccsssscsc" clip-path="url(#clipPath22874)"/>
        <path style="color: rgb(0, 0, 0); fill: rgb(142, 213, 35); fill-opacity: 1; fill-rule: nonzero; stroke: none; stroke-width: 0; marker: none; visibility: visible; display: inline; overflow: visible;" d="m 510.84491,178.49276 c -2.66043,-2.53375 -5.41588,-1.14019 -5.7326,-0.25338 -0.31672,0.88681 0.0792,1.78946 0.85514,1.94782 0.97146,0.19826 2.06014,-0.41051 3.07217,0.0792 0.98183,0.47507 0.70026,0.97608 1.33022,1.36189 0.50957,0.31207 1.20353,-0.095 1.26687,-1.04517 0.0633,-0.95016 -0.44341,-1.64694 -0.7918,-2.09034 z" id="path23156" inkscape:connector-curvature="0" sodipodi:nodetypes="csssssc"/>
        <path inkscape:connector-curvature="0" style="color: rgb(0, 0, 0); fill: rgb(122, 191, 18); fill-opacity: 1; fill-rule: nonzero; stroke: none; stroke-width: 0; marker: none; visibility: visible; display: inline; overflow: visible;" d="m 505.14523,178.16392 c -0.0128,0.0259 -0.0231,0.0518 -0.0321,0.077 -0.31672,0.88681 0.0769,1.79094 0.85282,1.9493 0.97146,0.19826 2.0594,-0.41274 3.07143,0.077 0.98183,0.47507 0.70378,0.97357 1.33373,1.35938 0.50957,0.31207 1.19986,-0.095 1.2632,-1.04519 0.0147,-0.22028 -0.001,-0.42252 -0.0385,-0.61557 -0.0186,0.35352 -0.10543,0.70981 -0.38473,0.80794 -0.58593,0.20586 -0.62278,-0.93745 -1.73129,-1.30167 -1.10851,-0.36423 -2.16461,0.25872 -2.98807,0.17954 -0.78452,-0.0754 -1.49998,-0.82794 -1.34656,-1.48763 z" id="path23158"/>
        <path inkscape:connector-curvature="0" style="opacity: 0.60177; color: rgb(0, 0, 0); fill: rgb(186, 255, 81); fill-opacity: 1; fill-rule: nonzero; stroke: none; stroke-width: 0; marker: none; visibility: visible; display: inline; overflow: visible;" d="m 507.51132,177.0482 c -1.27046,0.0303 -2.22,0.69384 -2.39815,1.19267 -0.0283,0.0791 -0.0534,0.15845 -0.0705,0.23725 0.0585,0.86422 1.08624,1.43571 2.50716,1.12213 2.2962,-0.50675 1.83699,-1.62947 2.09036,-1.69281 0.25338,-0.0634 1.39757,0.74294 1.63511,1.45556 0.0693,0.20803 0.15477,0.29607 0.24366,0.30137 -0.16121,-0.49535 -0.44903,-0.88802 -0.67328,-1.17343 -1.16394,-1.10851 -2.34619,-1.46633 -3.33433,-1.44274 z" id="path23160"/>
      </g>
      <g id="g23142" transform="translate(9.0038295,10.511551)">
        <path clip-path="url(#clipPath22907)" style="color: rgb(0, 0, 0); fill: rgb(142, 213, 35); fill-opacity: 1; fill-rule: nonzero; stroke: rgb(23, 23, 23); stroke-width: 2.61871; stroke-linejoin: round; stroke-miterlimit: 4; stroke-opacity: 1; stroke-dasharray: none; marker: none; visibility: visible; display: inline; overflow: visible;" d="m 526.30846,178.70565 c -0.61295,3.83754 -1.10103,1.6119 -1.15171,1.1173 -0.43352,-4.23014 0.58711,-6.54496 2.6826,-6.54496 2.01643,0 1.63526,3.34009 1.21774,4.90577 -0.20796,0.77988 -0.20875,1.4648 -0.19586,2.05477 0.013,0.59443 -0.65597,2.03186 -1.4394,-1.53288 10e-6,-1.4613 -0.97419,-2.29632 -1.11337,0 z" id="path23144" inkscape:connector-curvature="0" sodipodi:nodetypes="csssscc"/>
        <path sodipodi:nodetypes="csscc" inkscape:connector-curvature="0" id="path23146" d="m 525.36906,181.38469 c -0.86981,-5.21891 0.12978,-8.1067 2.47029,-8.1067 2.01643,0 1.63525,3.34009 1.21774,4.90577 -0.41751,1.56567 0,2.74863 -0.31313,3.54885 -0.27834,1.32213 -3.02697,1.60047 -3.3749,-0.34792 z" style="color: rgb(0, 0, 0); fill: rgb(142, 213, 35); fill-opacity: 1; fill-rule: nonzero; stroke: none; stroke-width: 0; marker: none; visibility: visible; display: inline; overflow: visible;"/>
        <path id="path23148" d="m 527.83644,173.27839 c -2.10093,0 -3.11188,2.33512 -2.66969,6.58616 0.10914,-2.40667 0.7296,-5.4693 2.14843,-5.61408 1.70484,-0.17396 1.67519,2.81677 1.57082,3.89534 -0.0306,0.31652 -0.0228,0.63277 0.0141,0.90868 0.0296,-0.27521 0.0739,-0.56939 0.15497,-0.87346 0.41751,-1.56567 0.79781,-4.90264 -1.21861,-4.90264 z" style="color: rgb(0, 0, 0); fill: rgb(186, 255, 81); fill-opacity: 1; fill-rule: nonzero; stroke: none; stroke-width: 0; marker: none; visibility: visible; display: inline; overflow: visible;" inkscape:connector-curvature="0"/>
        <path id="path23150" d="m 529.09027,178.05424 c -0.0828,0.11496 -0.16431,0.24451 -0.23949,0.40855 -0.38273,0.83502 -0.48712,1.94694 -1.14818,2.74717 -0.602,0.72873 -2.21092,-0.21849 -2.59924,-2.1273 0.046,0.70913 0.12951,1.47441 0.26767,2.3034 0.34793,1.94839 3.09575,1.66728 3.37409,0.34515 0.31313,-0.80022 -0.10759,-1.98451 0.30993,-3.55018 0.0107,-0.0403 0.0246,-0.0842 0.0352,-0.12679 z" style="color: rgb(0, 0, 0); fill: rgb(122, 191, 18); fill-opacity: 1; fill-rule: nonzero; stroke: none; stroke-width: 0; marker: none; visibility: visible; display: inline; overflow: visible;" inkscape:connector-curvature="0"/>
      </g>
    </g>
  </g>
</svg>