<?xml version="1.0" encoding="UTF-8" standalone="no"?><!-- Created with Inkscape (http://www.inkscape.org/) --><svg xmlns:dc="http://purl.org/dc/elements/1.1/" xmlns:cc="http://creativecommons.org/ns#" xmlns:rdf="http://www.w3.org/1999/02/22-rdf-syntax-ns#" xmlns:svg="http://www.w3.org/2000/svg" xmlns="http://www.w3.org/2000/svg" xmlns:sodipodi="http://sodipodi.sourceforge.net/DTD/sodipodi-0.dtd" xmlns:inkscape="http://www.inkscape.org/namespaces/inkscape" width="63.760128" height="55.763149" viewBox="0 0 16.869866 14.753999" version="1.1" id="svg23489" inkscape:version="0.48.5 r10040" sodipodi:docname="grass_tuft_03.svg">
  <defs id="defs23483">
    <clipPath clipPathUnits="userSpaceOnUse" id="clipPath22932">
      <path style="opacity: 0.39823; color: rgb(0, 0, 0); fill: rgb(113, 255, 81); fill-opacity: 1; fill-rule: nonzero; stroke: none; stroke-width: 0; marker: none; visibility: visible; display: inline; overflow: visible;" d="m 544.30169,181.88988 c 0.28587,0.59217 2.59866,1.15837 3.74216,0.1578 0.98015,2.77708 16.86469,0 16.86469,0 l 0,-16.17162 -30.55281,0 0,15.42079 c 0,0 6.65838,3.49263 9.94596,0.59303 z" id="path22934" inkscape:connector-curvature="0" sodipodi:nodetypes="ccccccc"/>
    </clipPath>
    <clipPath clipPathUnits="userSpaceOnUse" id="clipPath22874">
      <path style="opacity: 0.39823; color: rgb(0, 0, 0); fill: rgb(113, 255, 81); fill-opacity: 1; fill-rule: nonzero; stroke: none; stroke-width: 0; marker: none; visibility: visible; display: inline; overflow: visible;" d="m 507.96393,172.04108 c 5.63585,4.14521 4.40861,7.03756 4.24526,7.42553 -0.16336,0.38797 -0.45419,0.84609 -0.55527,0.75946 0,0 -0.23077,1.39392 -0.96715,1.52387 0,0 0.7281,2.05291 -3.23333,2.91054 -3.96143,0.85763 -12.08849,-2.45037 -11.76178,-7.80034 0.32672,-5.34998 9.00511,-7.35111 12.27227,-4.81906 z" id="path22876" inkscape:connector-curvature="0" sodipodi:nodetypes="csccssc"/>
    </clipPath>
    <clipPath clipPathUnits="userSpaceOnUse" id="clipPath22894">
      <path style="opacity: 0.39823; color: rgb(0, 0, 0); fill: rgb(113, 255, 81); fill-opacity: 1; fill-rule: nonzero; stroke: none; stroke-width: 0; marker: none; visibility: visible; display: inline; overflow: visible;" d="m 519.13353,181.84256 c 1.53,1.07862 2.21773,-0.85703 2.00114,-1.06183 0.0817,0.0408 1.9603,0.65343 4.32899,-2.85877 2.36869,-3.51219 0,-9.96483 -8.00455,-11.96597 -8.00454,-2.00113 -11.2717,3.47136 -11.47589,10.16904 -0.2042,6.69767 5.75836,9.27056 9.76064,9.7198 4.00227,0.44923 3.38967,-4.00227 3.38967,-4.00227 z" id="path22896" inkscape:connector-curvature="0" sodipodi:nodetypes="ccssssc"/>
    </clipPath>
    <clipPath clipPathUnits="userSpaceOnUse" id="clipPath23263">
      <path style="opacity: 0.39823; color: rgb(0, 0, 0); fill: rgb(113, 255, 81); fill-opacity: 1; fill-rule: nonzero; stroke: none; stroke-width: 0; marker: none; visibility: visible; display: inline; overflow: visible;" d="m 507.96393,172.04108 c 5.63585,4.14521 4.40861,7.03756 4.24526,7.42553 -0.16336,0.38797 -0.45419,0.84609 -0.55527,0.75946 0,0 -0.23077,1.39392 -0.96715,1.52387 0,0 0.7281,2.05291 -3.23333,2.91054 -3.96143,0.85763 -12.08849,-2.45037 -11.76178,-7.80034 0.32672,-5.34998 9.00511,-7.35111 12.27227,-4.81906 z" id="path23265" inkscape:connector-curvature="0" sodipodi:nodetypes="csccssc"/>
    </clipPath>
    <clipPath clipPathUnits="userSpaceOnUse" id="clipPath22907">
      <path style="opacity: 0.39823; color: rgb(0, 0, 0); fill: rgb(113, 255, 81); fill-opacity: 1; fill-rule: nonzero; stroke: none; stroke-width: 0; marker: none; visibility: visible; display: inline; overflow: visible;" d="m 525.58617,181.98549 c 0.89522,0.98185 2.40724,0.64233 3.04255,0.12252 0.16124,0.72559 12.13955,0.23486 11.90471,0 -0.23482,-0.23483 4.09811,-23.83249 0,-26.19853 -4.09811,-2.36605 -15.11061,0 -21.31822,0 -6.2076,0 -9.48879,8.76153 -8.08444,14.00265 1.40436,5.24112 4.81751,7.15803 7.00687,9.97898 2.18936,2.82095 7.44853,2.09438 7.44853,2.09438 z" id="path22909" inkscape:connector-curvature="0" sodipodi:nodetypes="ccsssssc"/>
    </clipPath>
    <clipPath clipPathUnits="userSpaceOnUse" id="clipPath23269">
      <path style="opacity: 0.39823; color: rgb(0, 0, 0); fill: rgb(113, 255, 81); fill-opacity: 1; fill-rule: nonzero; stroke: none; stroke-width: 0; marker: none; visibility: visible; display: inline; overflow: visible;" d="m 525.58617,181.98549 c 0.89522,0.98185 2.40724,0.64233 3.04255,0.12252 0.16124,0.72559 12.13955,0.23486 11.90471,0 -0.23482,-0.23483 4.09811,-23.83249 0,-26.19853 -4.09811,-2.36605 -15.11061,0 -21.31822,0 -6.2076,0 -9.48879,8.76153 -8.08444,14.00265 1.40436,5.24112 4.81751,7.15803 7.00687,9.97898 2.18936,2.82095 7.44853,2.09438 7.44853,2.09438 z" id="path23271" inkscape:connector-curvature="0" sodipodi:nodetypes="ccsssssc"/>
    </clipPath>
    <clipPath clipPathUnits="userSpaceOnUse" id="clipPath23273">
      <path style="opacity: 0.39823; color: rgb(0, 0, 0); fill: rgb(113, 255, 81); fill-opacity: 1; fill-rule: nonzero; stroke: none; stroke-width: 0; marker: none; visibility: visible; display: inline; overflow: visible;" d="m 507.96393,172.04108 c 5.63585,4.14521 4.40861,7.03756 4.24526,7.42553 -0.16336,0.38797 -0.45419,0.84609 -0.55527,0.75946 0,0 -0.23077,1.39392 -0.96715,1.52387 0,0 0.7281,2.05291 -3.23333,2.91054 -3.96143,0.85763 -12.08849,-2.45037 -11.76178,-7.80034 0.32672,-5.34998 9.00511,-7.35111 12.27227,-4.81906 z" id="path23275" inkscape:connector-curvature="0" sodipodi:nodetypes="csccssc"/>
    </clipPath>
    <clipPath clipPathUnits="userSpaceOnUse" id="clipPath23277">
      <path style="opacity: 0.39823; color: rgb(0, 0, 0); fill: rgb(113, 255, 81); fill-opacity: 1; fill-rule: nonzero; stroke: none; stroke-width: 0; marker: none; visibility: visible; display: inline; overflow: visible;" d="m 519.13353,181.84256 c 1.53,1.07862 2.21773,-0.85703 2.00114,-1.06183 0.0817,0.0408 1.9603,0.65343 4.32899,-2.85877 2.36869,-3.51219 0,-9.96483 -8.00455,-11.96597 -8.00454,-2.00113 -11.2717,3.47136 -11.47589,10.16904 -0.2042,6.69767 5.75836,9.27056 9.76064,9.7198 4.00227,0.44923 3.38967,-4.00227 3.38967,-4.00227 z" id="path23279" inkscape:connector-curvature="0" sodipodi:nodetypes="ccssssc"/>
    </clipPath>
    <clipPath clipPathUnits="userSpaceOnUse" id="clipPath23281">
      <path style="opacity: 0.39823; color: rgb(0, 0, 0); fill: rgb(113, 255, 81); fill-opacity: 1; fill-rule: nonzero; stroke: none; stroke-width: 0; marker: none; visibility: visible; display: inline; overflow: visible;" d="m 525.58617,181.98549 c 0.89522,0.98185 2.40724,0.64233 3.04255,0.12252 0.16124,0.72559 12.13955,0.23486 11.90471,0 -0.23482,-0.23483 4.09811,-23.83249 0,-26.19853 -4.09811,-2.36605 -15.11061,0 -21.31822,0 -6.2076,0 -9.48879,8.76153 -8.08444,14.00265 1.40436,5.24112 4.81751,7.15803 7.00687,9.97898 2.18936,2.82095 7.44853,2.09438 7.44853,2.09438 z" id="path23283" inkscape:connector-curvature="0" sodipodi:nodetypes="ccsssssc"/>
    </clipPath>
    <clipPath clipPathUnits="userSpaceOnUse" id="clipPath23285">
      <path style="opacity: 0.39823; color: rgb(0, 0, 0); fill: rgb(113, 255, 81); fill-opacity: 1; fill-rule: nonzero; stroke: none; stroke-width: 0; marker: none; visibility: visible; display: inline; overflow: visible;" d="m 544.30169,181.88988 c 0.28587,0.59217 2.59866,1.15837 3.74216,0.1578 0.98015,2.77708 16.86469,0 16.86469,0 l 0,-16.17162 -30.55281,0 0,15.42079 c 0,0 6.65838,3.49263 9.94596,0.59303 z" id="path23287" inkscape:connector-curvature="0" sodipodi:nodetypes="ccccccc"/>
    </clipPath>
    <clipPath clipPathUnits="userSpaceOnUse" id="clipPath23289">
      <path style="opacity: 0.39823; color: rgb(0, 0, 0); fill: rgb(113, 255, 81); fill-opacity: 1; fill-rule: nonzero; stroke: none; stroke-width: 0; marker: none; visibility: visible; display: inline; overflow: visible;" d="m 507.96393,172.04108 c 5.63585,4.14521 4.40861,7.03756 4.24526,7.42553 -0.16336,0.38797 -0.45419,0.84609 -0.55527,0.75946 0,0 -0.23077,1.39392 -0.96715,1.52387 0,0 0.7281,2.05291 -3.23333,2.91054 -3.96143,0.85763 -12.08849,-2.45037 -11.76178,-7.80034 0.32672,-5.34998 9.00511,-7.35111 12.27227,-4.81906 z" id="path23291" inkscape:connector-curvature="0" sodipodi:nodetypes="csccssc"/>
    </clipPath>
    <clipPath clipPathUnits="userSpaceOnUse" id="clipPath22919">
      <path style="opacity: 0.39823; color: rgb(0, 0, 0); fill: rgb(113, 255, 81); fill-opacity: 1; fill-rule: nonzero; stroke: none; stroke-width: 0; marker: none; visibility: visible; display: inline; overflow: visible;" d="m 533.24358,180.67863 c -0.16336,1.16393 0.51049,2.00114 2.00114,1.20477 -1.74256,1.5022 -0.71572,1.26164 1.42124,3.05207 2.13697,1.79043 11.4934,0.98185 12.12872,0.5198 0.63531,-0.46205 8.02805,-6.41089 8.0858,-8.66336 0.0578,-2.25248 -1.90593,-15.01651 -5.19801,-17.78878 -3.29208,-2.77228 -16.4604,-0.57756 -19.75248,-0.0578 -3.29208,0.5198 -10.16501,5.71782 -9.93399,5.77558 0.23102,0.0577 2.83003,15.42079 2.77228,15.65181 -0.0578,0.23102 2.42574,4.15842 2.83003,3.92739 0.40429,-0.23102 3.95121,-3.17246 3.95121,-3.17246 0,0 1.59196,0.89865 1.69406,-0.44906 z" id="path22921" inkscape:connector-curvature="0" sodipodi:nodetypes="ccsssssssscc"/>
    </clipPath>
    <clipPath clipPathUnits="userSpaceOnUse" id="clipPath23295">
      <path style="opacity: 0.39823; color: rgb(0, 0, 0); fill: rgb(113, 255, 81); fill-opacity: 1; fill-rule: nonzero; stroke: none; stroke-width: 0; marker: none; visibility: visible; display: inline; overflow: visible;" d="m 525.58617,181.98549 c 0.89522,0.98185 2.40724,0.64233 3.04255,0.12252 0.16124,0.72559 12.13955,0.23486 11.90471,0 -0.23482,-0.23483 4.09811,-23.83249 0,-26.19853 -4.09811,-2.36605 -15.11061,0 -21.31822,0 -6.2076,0 -9.48879,8.76153 -8.08444,14.00265 1.40436,5.24112 4.81751,7.15803 7.00687,9.97898 2.18936,2.82095 7.44853,2.09438 7.44853,2.09438 z" id="path23297" inkscape:connector-curvature="0" sodipodi:nodetypes="ccsssssc"/>
    </clipPath>
    <clipPath clipPathUnits="userSpaceOnUse" id="clipPath23299">
      <path style="opacity: 0.39823; color: rgb(0, 0, 0); fill: rgb(113, 255, 81); fill-opacity: 1; fill-rule: nonzero; stroke: none; stroke-width: 0; marker: none; visibility: visible; display: inline; overflow: visible;" d="m 525.58617,181.98549 c 0.89522,0.98185 2.40724,0.64233 3.04255,0.12252 0.16124,0.72559 12.13955,0.23486 11.90471,0 -0.23482,-0.23483 4.09811,-23.83249 0,-26.19853 -4.09811,-2.36605 -15.11061,0 -21.31822,0 -6.2076,0 -9.48879,8.76153 -8.08444,14.00265 1.40436,5.24112 4.81751,7.15803 7.00687,9.97898 2.18936,2.82095 7.44853,2.09438 7.44853,2.09438 z" id="path23301" inkscape:connector-curvature="0" sodipodi:nodetypes="ccsssssc"/>
    </clipPath>
  </defs>
  <sodipodi:namedview id="base" pagecolor="#7d848b" bordercolor="#666666" borderopacity="1.0" inkscape:pageopacity="0" inkscape:pageshadow="2" inkscape:zoom="2.2905361" inkscape:cx="-179.60463" inkscape:cy="95.472008" inkscape:document-units="px" inkscape:current-layer="layer1" showgrid="false" inkscape:pagecheckerboard="false" showborder="true" units="px" inkscape:window-width="1920" inkscape:window-height="1017" inkscape:window-x="-8" inkscape:window-y="-8" inkscape:window-maximized="1" inkscape:showpageshadow="false" guidetolerance="28" fit-margin-top="6" fit-margin-left="6" fit-margin-right="6" fit-margin-bottom="6">
    <inkscape:grid type="xygrid" id="grid24034" spacingx="1px" spacingy="1px" empspacing="8" visible="true" enabled="true" snapvisiblegridlinesonly="true" originx="-432.9034px" originy="-682.27871px"/>
  </sodipodi:namedview>
  <metadata id="metadata23486">
    <rdf:RDF>
      <cc:Work rdf:about="">
        <dc:format>image/svg+xml</dc:format>
        <dc:type rdf:resource="http://purl.org/dc/dcmitype/StillImage"/>
        <dc:title/>
        <cc:license rdf:resource=""/>
        <dc:creator>
          <cc:Agent>
            <dc:title>Robert Brooks</dc:title>
          </cc:Agent>
        </dc:creator>
      </cc:Work>
    </rdf:RDF>
  </metadata>
  <g inkscape:label="Layer 1" inkscape:groupmode="layer" id="layer1" transform="translate(-114.53902,-101.72641)">
    <g id="g23202" transform="matrix(1.1050075,0,0,1.1050075,-500.97726,-120.91759)">
      <g id="g23100" transform="matrix(0.4754542,-0.69330029,0.69330029,0.4754542,183.23108,496.55108)">
        <path clip-path="url(#clipPath22919)" sodipodi:nodetypes="cssssc" inkscape:connector-curvature="0" id="path23102" d="m 535.9838,178.15574 c -1.40398,3.79364 0.20756,2.21204 0.49086,1.83326 3.44795,-4.61008 1.60276,-6.37656 -0.15834,-4.92624 -0.84966,0.69971 -1.56956,1.72381 -2.10357,2.79159 -0.38155,0.7629 -0.2598,3.71259 0.91663,1.02802 0.24323,-0.55502 1.41184,-3.6005 0.85442,-0.72663 z" style="color: rgb(0, 0, 0); fill: rgb(153, 255, 130); fill-opacity: 1; fill-rule: nonzero; stroke: rgb(23, 23, 23); stroke-width: 2.69379; stroke-linecap: round; stroke-linejoin: round; stroke-miterlimit: 4; stroke-opacity: 1; stroke-dasharray: none; stroke-dashoffset: 37.6; marker: none; visibility: visible; display: inline; overflow: visible;"/>
        <path sodipodi:nodetypes="cssc" style="color: rgb(0, 0, 0); fill: rgb(68, 213, 35); fill-opacity: 1; fill-rule: nonzero; stroke: none; stroke-width: 0; marker: none; visibility: visible; display: inline; overflow: visible;" d="m 535.73876,181.30038 c 4.27393,-5.66007 2.54125,-7.85479 0.57756,-6.23762 -1.9637,1.61716 -3.23432,4.96699 -3.11881,6.58415 0.11551,1.61717 2.05118,0.55194 2.54125,-0.34653 z" id="path23104" inkscape:connector-curvature="0"/>
        <path inkscape:connector-curvature="0" id="path23106" d="m 535.73876,181.30038 c 4.27393,-5.66007 2.54125,-7.85479 0.57756,-6.23762 -1.9637,1.61716 -3.23432,4.96699 -3.11881,6.58415 0.11551,1.61717 2.05118,0.55194 2.54125,-0.34653 z" style="color: rgb(0, 0, 0); fill: rgb(68, 213, 35); fill-opacity: 1; fill-rule: nonzero; stroke: none; stroke-width: 0; marker: none; visibility: visible; display: inline; overflow: visible;" sodipodi:nodetypes="cssc"/>
        <path id="path23108" d="m 537.5101,174.54361 c 0.91393,0.0196 1.33169,1.28699 0.14883,3.7207 0.27666,-1.34748 0.1797,-2.57592 -0.53744,-2.69544 -1.07054,-0.17843 -3.20667,3.41582 -3.83646,4.95267 0.32284,-1.73918 1.45593,-4.15709 3.03444,-5.45704 0.42956,-0.35375 0.84363,-0.52832 1.19063,-0.52089 z" style="color: rgb(0, 0, 0); fill: rgb(113, 255, 81); fill-opacity: 1; fill-rule: nonzero; stroke: none; stroke-width: 0; marker: none; visibility: visible; display: inline; overflow: visible;" inkscape:connector-curvature="0"/>
        <path style="color: rgb(0, 0, 0); fill: rgb(50, 191, 18); fill-opacity: 1; fill-rule: nonzero; stroke: none; stroke-width: 0; marker: none; visibility: visible; display: inline; overflow: visible;" d="m 537.52104,178.5221 c -0.598,0.71697 -1.44076,1.63153 -2.08359,1.89343 -0.97252,0.39621 -1.90995,0.12036 -1.67018,-1.54616 -0.40944,1.06288 -0.62028,2.08136 -0.57051,2.77812 0.11551,1.61717 2.04827,0.55121 2.53835,-0.34726 0.78788,-1.04342 1.37012,-1.97242 1.78593,-2.77813 z" id="path23110" inkscape:connector-curvature="0"/>
      </g>
      <g transform="matrix(-1,0,0,1,1091.8678,30.610559)" id="g23132">
        <path sodipodi:nodetypes="csssscc" inkscape:connector-curvature="0" id="path23134" d="m 526.30846,178.70565 c -0.61295,3.83754 -1.10103,1.6119 -1.15171,1.1173 -0.43352,-4.23014 0.58711,-6.54496 2.6826,-6.54496 2.01643,0 1.63526,3.34009 1.21774,4.90577 -0.20796,0.77988 -0.20875,1.4648 -0.19586,2.05477 0.013,0.59443 -0.65597,2.03186 -1.4394,-1.53288 10e-6,-1.4613 -0.97419,-2.29632 -1.11337,0 z" style="color: rgb(0, 0, 0); fill: rgb(68, 213, 35); fill-opacity: 1; fill-rule: nonzero; stroke: rgb(23, 23, 23); stroke-width: 1.92928; stroke-linejoin: round; stroke-miterlimit: 4; stroke-opacity: 1; stroke-dasharray: none; marker: none; visibility: visible; display: inline; overflow: visible;" clip-path="url(#clipPath22907)"/>
        <path style="color: rgb(0, 0, 0); fill: rgb(68, 213, 35); fill-opacity: 1; fill-rule: nonzero; stroke: none; stroke-width: 0; marker: none; visibility: visible; display: inline; overflow: visible;" d="m 525.36906,181.38469 c -0.86981,-5.21891 0.12978,-8.1067 2.47029,-8.1067 2.01643,0 1.63525,3.34009 1.21774,4.90577 -0.41751,1.56567 0,2.74863 -0.31313,3.54885 -0.27834,1.32213 -3.02697,1.60047 -3.3749,-0.34792 z" id="path23136" inkscape:connector-curvature="0" sodipodi:nodetypes="csscc"/>
        <path inkscape:connector-curvature="0" style="color: rgb(0, 0, 0); fill: rgb(113, 255, 81); fill-opacity: 1; fill-rule: nonzero; stroke: none; stroke-width: 0; marker: none; visibility: visible; display: inline; overflow: visible;" d="m 527.83644,173.27839 c -2.10093,0 -3.11188,2.33512 -2.66969,6.58616 0.10914,-2.40667 0.7296,-5.4693 2.14843,-5.61408 1.70484,-0.17396 1.67519,2.81677 1.57082,3.89534 -0.0306,0.31652 -0.0228,0.63277 0.0141,0.90868 0.0296,-0.27521 0.0739,-0.56939 0.15497,-0.87346 0.41751,-1.56567 0.79781,-4.90264 -1.21861,-4.90264 z" id="path23138"/>
        <path inkscape:connector-curvature="0" style="color: rgb(0, 0, 0); fill: rgb(50, 191, 18); fill-opacity: 1; fill-rule: nonzero; stroke: none; stroke-width: 0; marker: none; visibility: visible; display: inline; overflow: visible;" d="m 529.09027,178.05424 c -0.0828,0.11496 -0.16431,0.24451 -0.23949,0.40855 -0.38273,0.83502 -0.48712,1.94694 -1.14818,2.74717 -0.602,0.72873 -2.21092,-0.21849 -2.59924,-2.1273 0.046,0.70913 0.12951,1.47441 0.26767,2.3034 0.34793,1.94839 3.09575,1.66728 3.37409,0.34515 0.31313,-0.80022 -0.10759,-1.98451 0.30993,-3.55018 0.0107,-0.0403 0.0246,-0.0842 0.0352,-0.12679 z" id="path23140"/>
      </g>
      <g id="g23112" transform="matrix(0.77189421,0,0,0.77189421,161.26334,72.304929)">
        <path clip-path="url(#clipPath22907)" style="color: rgb(0, 0, 0); fill: rgb(68, 213, 35); fill-opacity: 1; fill-rule: nonzero; stroke: rgb(23, 23, 23); stroke-width: 2.49942; stroke-linejoin: round; stroke-miterlimit: 4; stroke-opacity: 1; stroke-dasharray: none; marker: none; visibility: visible; display: inline; overflow: visible;" d="m 526.30846,178.70565 c -0.61295,3.83754 -1.10103,1.6119 -1.15171,1.1173 -0.43352,-4.23014 0.58711,-6.54496 2.6826,-6.54496 2.01643,0 1.63526,3.34009 1.21774,4.90577 -0.20796,0.77988 -0.20875,1.4648 -0.19586,2.05477 0.013,0.59443 -0.65597,2.03186 -1.4394,-1.53288 10e-6,-1.4613 -0.97419,-2.29632 -1.11337,0 z" id="path23114" inkscape:connector-curvature="0" sodipodi:nodetypes="csssscc"/>
        <path sodipodi:nodetypes="csscc" inkscape:connector-curvature="0" id="path23116" d="m 525.36906,181.38469 c -0.86981,-5.21891 0.12978,-8.1067 2.47029,-8.1067 2.01643,0 1.63525,3.34009 1.21774,4.90577 -0.41751,1.56567 0,2.74863 -0.31313,3.54885 -0.27834,1.32213 -3.02697,1.60047 -3.3749,-0.34792 z" style="color: rgb(0, 0, 0); fill: rgb(68, 213, 35); fill-opacity: 1; fill-rule: nonzero; stroke: none; stroke-width: 0; marker: none; visibility: visible; display: inline; overflow: visible;"/>
        <path id="path23118" d="m 527.83644,173.27839 c -2.10093,0 -3.11188,2.33512 -2.66969,6.58616 0.10914,-2.40667 0.7296,-5.4693 2.14843,-5.61408 1.70484,-0.17396 1.67519,2.81677 1.57082,3.89534 -0.0306,0.31652 -0.0228,0.63277 0.0141,0.90868 0.0296,-0.27521 0.0739,-0.56939 0.15497,-0.87346 0.41751,-1.56567 0.79781,-4.90264 -1.21861,-4.90264 z" style="color: rgb(0, 0, 0); fill: rgb(113, 255, 81); fill-opacity: 1; fill-rule: nonzero; stroke: none; stroke-width: 0; marker: none; visibility: visible; display: inline; overflow: visible;" inkscape:connector-curvature="0"/>
        <path id="path23120" d="m 529.09027,178.05424 c -0.0828,0.11496 -0.16431,0.24451 -0.23949,0.40855 -0.38273,0.83502 -0.48712,1.94694 -1.14818,2.74717 -0.602,0.72873 -2.21092,-0.21849 -2.59924,-2.1273 0.046,0.70913 0.12951,1.47441 0.26767,2.3034 0.34793,1.94839 3.09575,1.66728 3.37409,0.34515 0.31313,-0.80022 -0.10759,-1.98451 0.30993,-3.55018 0.0107,-0.0403 0.0246,-0.0842 0.0352,-0.12679 z" style="color: rgb(0, 0, 0); fill: rgb(50, 191, 18); fill-opacity: 1; fill-rule: nonzero; stroke: none; stroke-width: 0; marker: none; visibility: visible; display: inline; overflow: visible;" inkscape:connector-curvature="0"/>
      </g>
    </g>
  </g>
</svg>