<?xml version="1.0" encoding="UTF-8" standalone="no"?><!-- Created with Inkscape (http://www.inkscape.org/) --><svg xmlns:dc="http://purl.org/dc/elements/1.1/" xmlns:cc="http://creativecommons.org/ns#" xmlns:rdf="http://www.w3.org/1999/02/22-rdf-syntax-ns#" xmlns:svg="http://www.w3.org/2000/svg" xmlns="http://www.w3.org/2000/svg" xmlns:sodipodi="http://sodipodi.sourceforge.net/DTD/sodipodi-0.dtd" xmlns:inkscape="http://www.inkscape.org/namespaces/inkscape" width="55.278282" height="51.107983" viewBox="0 0 14.625711 13.52232" version="1.1" id="svg23489" inkscape:version="0.48.5 r10040" sodipodi:docname="grass_flower_white.svg">
  <defs id="defs23483"/>
  <sodipodi:namedview id="base" pagecolor="#7d848b" bordercolor="#666666" borderopacity="1.0" inkscape:pageopacity="0" inkscape:pageshadow="2" inkscape:zoom="9.1621444" inkscape:cx="26.989274" inkscape:cy="5.5344679" inkscape:document-units="px" inkscape:current-layer="layer1" showgrid="false" inkscape:pagecheckerboard="false" showborder="true" units="px" inkscape:window-width="1920" inkscape:window-height="1017" inkscape:window-x="-8" inkscape:window-y="-8" inkscape:window-maximized="1" inkscape:showpageshadow="false" guidetolerance="28" fit-margin-top="4" fit-margin-left="4" fit-margin-right="4" fit-margin-bottom="4">
    <inkscape:grid type="xygrid" id="grid24034" spacingx="1px" spacingy="1px" empspacing="8" visible="true" enabled="true" snapvisiblegridlinesonly="true" originx="-344.4768px" originy="-731.84128px"/>
  </sodipodi:namedview>
  <metadata id="metadata23486">
    <rdf:RDF>
      <cc:Work rdf:about="">
        <dc:format>image/svg+xml</dc:format>
        <dc:type rdf:resource="http://purl.org/dc/dcmitype/StillImage"/>
        <dc:title/>
        <cc:license rdf:resource=""/>
        <dc:creator>
          <cc:Agent>
            <dc:title>Robert Brooks</dc:title>
          </cc:Agent>
        </dc:creator>
      </cc:Work>
    </rdf:RDF>
  </metadata>
  <g inkscape:label="Layer 1" inkscape:groupmode="layer" id="layer1" transform="translate(-91.14282,-89.844664)">
    <path id="path3834" d="m 92.842922,94.439806 c 0.0011,0.07209 0.01196,0.142345 0.02481,0.214974 0.0019,0.01124 0.0061,0.02183 0.0083,0.03307 -0.13245,0.632186 0.652672,1.350711 1.375778,1.81901 -0.0435,0.0179 -0.08922,0.0304 -0.132292,0.04961 -0.119874,0.05389 -0.24249,0.109512 -0.355534,0.173633 -0.172705,0.09761 -0.337465,0.209101 -0.479557,0.330729 -0.187393,0.161721 -0.340661,0.349864 -0.438216,0.553971 -0.07374,0.154103 -0.113933,0.317299 -0.115755,0.496094 -2.9e-5,0.0028 1.7e-5,0.0054 0,0.0083 -9.15e-4,0.09012 0.006,0.173704 0.01654,0.256315 0.0025,0.01938 0.0052,0.0389 0.0083,0.05788 -0.01215,0.0651 -0.0241,0.12967 -0.0248,0.198437 -0.0171,1.680191 2.031741,2.094731 3.497461,1.298105 0.28619,-0.15537 0.548305,-0.365362 0.768945,-0.611842 -0.061,0.808448 0.186162,2.040608 1.298112,2.356438 1.631349,0.46338 2.822556,-0.6866 2.647716,-1.901686 0.0363,-0.26974 0.014,-0.553797 -0.0744,-0.83509 -0.006,-0.01872 -0.0101,-0.03925 -0.0165,-0.05788 0.91754,0.209245 2.36966,0.169848 2.96628,-0.577773 0.3326,-0.416751 0.41854,-0.822657 0.33073,-1.182356 -0.62461,-2.668981 -10.816745,-5.427118 -11.305919,-2.679939 z" style="opacity: 0.25; color: rgb(0, 0, 0); fill: rgb(0, 0, 0); fill-opacity: 1; fill-rule: nonzero; stroke: rgb(0, 0, 0); stroke-width: 0.92; stroke-linejoin: round; stroke-miterlimit: 4; stroke-dasharray: none; marker: none; visibility: visible; display: inline; overflow: visible;" inkscape:connector-curvature="0" sodipodi:nodetypes="ccccccccccccsccccccccc" gds_color="shadow" gds_opacity="shadow" gds_switchable="shadow" gds_zero_stroke="4"/>
    <path inkscape:connector-curvature="0" gds_zero_stroke="4" id="path3821" d="m 99.78317,91.432322 c -0.142812,-0.0017 -0.287772,0.01044 -0.429948,0.03307 -0.08387,0.01322 -0.165285,0.03668 -0.248047,0.05788 -0.0308,0.0079 -0.06037,0.01579 -0.09095,0.02481 -0.213486,0.06245 -0.423709,0.145466 -0.620118,0.256315 -0.02664,0.01504 -0.05648,0.02548 -0.08268,0.04134 -0.01691,0.01023 -0.03289,0.0225 -0.04961,0.03307 -0.08051,0.05093 -0.155942,0.106913 -0.231511,0.165364 -0.08772,0.06788 -0.168252,0.145917 -0.248046,0.223243 -0.01541,0.0149 -0.03453,0.0261 -0.04961,0.04134 -0.0082,0.0083 -0.01674,0.01645 -0.02481,0.0248 -0.07813,0.08087 -0.146755,0.166793 -0.214973,0.256315 -0.01665,0.02187 -0.0336,0.04379 -0.04961,0.06615 -0.05892,0.08216 -0.115778,0.167921 -0.165364,0.256315 -0.0787,0.14003 -0.146758,0.284607 -0.198438,0.438217 -0.451252,-0.456833 -1.118261,-0.924277 -1.843815,-1.000456 -0.06028,-0.0064 -0.120983,-0.0076 -0.181901,-0.0083 -0.06107,-6.67e-4 -0.128693,0.0028 -0.190169,0.0083 -0.120141,0.0112 -0.24306,0.03687 -0.363802,0.07441 -0.109615,0.03408 -0.211723,0.06536 -0.305925,0.107487 -0.09416,0.0421 -0.185419,0.09137 -0.264583,0.14056 -0.07693,0.04818 -0.151833,0.103059 -0.214974,0.157096 -0.258531,0.221376 -0.40197,0.486517 -0.446484,0.768945 -0.01131,0.07071 -0.01745,0.142782 -0.01654,0.214974 0.0011,0.07209 0.01196,0.142345 0.02481,0.214974 0.0019,0.01124 0.0061,0.02183 0.0083,0.03307 -0.13245,0.632186 0.244277,1.350711 0.967383,1.819011 -0.0435,0.0179 -0.08923,0.0304 -0.132292,0.04961 -0.119874,0.05389 -0.24249,0.109512 -0.355534,0.173633 -0.172705,0.09761 -0.337465,0.209101 -0.479557,0.330729 -0.187393,0.161721 -0.340661,0.349864 -0.438216,0.553971 -0.07374,0.154104 -0.113933,0.3173 -0.115755,0.496094 -2.9e-5,0.0028 1.7e-5,0.0054 0,0.0083 -9.16e-4,0.09012 0.006,0.173704 0.01654,0.256315 0.0025,0.01938 0.0052,0.0389 0.0083,0.05788 -0.01215,0.0651 -0.0241,0.12967 -0.0248,0.198437 -0.0171,1.6802 2.031741,2.094739 3.49746,1.298112 0.28619,-0.15537 0.548306,-0.365369 0.768946,-0.611849 -0.061,0.80846 0.186162,2.040616 1.298112,2.356446 1.631349,0.46338 2.638771,-0.6866 2.463931,-1.901693 0.0363,-0.269741 0.014,-0.553798 -0.0744,-0.835091 -0.006,-0.01871 -0.01,-0.03925 -0.0165,-0.05788 0.91754,0.209245 2.2063,0.251528 2.80293,-0.496094 0.3326,-0.416751 0.41854,-0.822657 0.33073,-1.182356 0.11049,-0.484068 -0.0858,-0.919801 -0.47129,-1.248503 -0.0613,-0.05254 -0.11995,-0.102145 -0.19017,-0.148828 -0.14008,-0.09332 -0.30182,-0.173067 -0.47129,-0.239779 -0.0825,-0.03244 -0.16834,-0.06554 -0.25631,-0.09095 -0.003,-7.14e-4 -0.006,7.14e-4 -0.008,0 -0.0881,-0.0252 -0.18023,-0.04848 -0.27285,-0.06615 -0.003,-4.76e-4 -0.006,4.76e-4 -0.008,0 -0.0954,-0.01794 -0.19027,-0.03191 -0.28939,-0.04134 -0.0743,-0.0071 -0.14731,-0.0062 -0.22324,-0.0083 0.20581,-0.4001 0.32375,-0.822315 0.24805,-1.231966 -4.8e-4,-0.0026 4.7e-4,-0.0057 0,-0.0083 0.0185,-0.123344 0.0263,-0.241464 0.0165,-0.363802 -0.004,-0.05267 -0.007,-0.104921 -0.0165,-0.157096 -0.0275,-0.146775 -0.0861,-0.289893 -0.16537,-0.429948 -0.001,-0.002 10e-4,-0.0063 0,-0.0083 -0.0271,-0.04734 -0.0573,-0.08605 -0.091,-0.132292 -0.0593,-0.08139 -0.12596,-0.16129 -0.19017,-0.23151 -0.001,-0.0015 10e-4,-0.0068 0,-0.0083 -0.0643,-0.06995 -0.12981,-0.131002 -0.19843,-0.19017 -0.002,-0.0014 -0.007,0.0014 -0.008,0 -0.28318,-0.242883 -0.59447,-0.395256 -0.92605,-0.471289 -0.0798,-0.01874 -0.15873,-0.03965 -0.23977,-0.04961 -0.005,-6.38e-4 -0.0111,5.98e-4 -0.0165,0 -0.08101,-0.0094 -0.158146,-0.01558 -0.239783,-0.01654 z" style="color: rgb(0, 0, 0); fill: rgb(3, 207, 255); fill-opacity: 1; fill-rule: nonzero; stroke: rgb(0, 32, 74); stroke-width: 0.92; stroke-linejoin: round; stroke-miterlimit: 4; stroke-dasharray: none; marker: none; visibility: visible; display: inline; overflow: visible;" gds_color="petals"/>
    <g id="g3836" gds_color="petals">
      <g transform="translate(-3.0581901e-8,-0.02887784)" id="g3803">
        <path sodipodi:nodetypes="cccsccsccscccccscc" inkscape:connector-curvature="0" style="color: rgb(0, 0, 0); fill: rgb(3, 207, 255); fill-opacity: 1; fill-rule: nonzero; stroke: none; stroke-width: 0; marker: none; visibility: visible; display: inline; overflow: visible;" d="m 99.78028,91.984002 c -0.98732,-0.0116 -1.99781,0.57931 -2.50113,1.47654 -0.0787,0.14003 -0.1439,0.28715 -0.19558,0.44076 -0.60167,-0.60911 -1.60058,-1.23877 -2.58762,-0.93189 -1.75384,0.54527 -1.49968,2.17734 -0.1843,2.9814 0.16651,0.10189 0.35097,0.19025 0.54913,0.26131 -0.96442,0.26891 -2.12282,0.86928 -2.13254,1.82285 -0.0171,1.6802 2.03585,2.090558 3.50157,1.29393 0.28619,-0.15537 0.55038,-0.35799 0.77102,-0.60447 -0.061,0.80846 0.18562,2.039078 1.29757,2.354908 1.77168,0.50324 2.80274,-0.90099 2.38829,-2.219538 -0.0715,-0.22784 -0.18831,-0.44926 -0.34977,-0.66112 0.90757,0.27519 2.46361,0.4279 3.13673,-0.41557 1.03927,-1.30223 -0.31193,-2.49984 -1.94072,-2.50602 -0.0826,0 -0.16456,0.004 -0.24822,0.009 0.53006,-0.70921 0.85846,-1.59925 0.31969,-2.33916 -0.48436,-0.6652 -1.14861,-0.95541 -1.82412,-0.96337 z" id="path3025"/>
        <path id="path21779" d="m 99.78028,91.4642 c -0.98732,-0.0116 -1.99781,0.57931 -2.50113,1.47654 -0.0787,0.14003 -0.1439,0.28715 -0.19558,0.44076 -0.60167,-0.60911 -1.60058,-1.23877 -2.58762,-0.93189 -1.75384,0.54527 -1.49968,2.17734 -0.1843,2.9814 0.16651,0.10189 0.35097,0.19025 0.54913,0.26131 -0.96442,0.26891 -2.12282,0.86928 -2.13254,1.82285 -0.0171,1.6802 2.03585,2.09055 3.50157,1.29393 0.28619,-0.15537 0.55038,-0.35799 0.77102,-0.60447 -0.061,0.80846 0.18562,2.03907 1.29757,2.3549 1.77168,0.50324 2.80274,-0.90099 2.38829,-2.21953 -0.0715,-0.22784 -0.18831,-0.44926 -0.34977,-0.66112 0.90757,0.27519 2.46361,0.4279 3.13673,-0.41557 1.03927,-1.30223 -0.31193,-2.49984 -1.94072,-2.50602 -0.0826,0 -0.16456,0.004 -0.24822,0.009 0.53006,-0.70921 0.85846,-1.59925 0.31969,-2.33916 -0.48436,-0.6652 -1.14861,-0.95541 -1.82412,-0.96337 z" style="color: rgb(0, 0, 0); fill: rgb(222, 255, 255); fill-opacity: 1; fill-rule: nonzero; stroke: none; stroke-width: 0; marker: none; visibility: visible; display: inline; overflow: visible;" inkscape:connector-curvature="0" sodipodi:nodetypes="cccsccsccscccccscc"/>
        <path style="color: rgb(0, 0, 0); fill: rgb(3, 207, 255); fill-opacity: 1; fill-rule: nonzero; stroke: none; stroke-width: 0; marker: none; visibility: visible; display: inline; overflow: visible;" d="m 100.38197,96.46053 c 0,0.928583 -1.007619,1.787092 -2.250581,1.787092 -1.242961,0 -2.33226,-0.900807 -2.33226,-1.82939 0,-1.288116 1.089299,-1.723646 2.33226,-1.723646 1.242962,0 2.250581,0.837361 2.250581,1.765944 z" id="path3795" inkscape:connector-curvature="0" sodipodi:nodetypes="sssss"/>
        <path inkscape:connector-curvature="0" style="color: rgb(0, 0, 0); fill: rgb(255, 255, 255); fill-opacity: 1; fill-rule: nonzero; stroke: none; stroke-width: 0; marker: none; visibility: visible; display: inline; overflow: visible;" d="m 31.78125,4.25 c -3.5013,0.2216578 -6.966583,2.3833385 -8.75,5.5625 -0.297449,0.529247 -0.554674,1.106927 -0.75,1.6875 -2.274028,-2.3021481 -6.019455,-4.6911115 -9.75,-3.53125 -6.6286869,2.060863 -5.6902651,8.242283 -0.71875,11.28125 0.629329,0.385096 1.344799,0.700177 2.09375,0.96875 -3.645052,1.016353 -8.025763,3.302206 -8.0625,6.90625 -0.023876,2.345963 1.0197455,4.014537 2.625,5.0625 C 7.7114261,30.637227 7.233122,28.998959 7.25,27.34375 7.2922362,23.201244 12.985041,21.246915 16,20.40625 15.380517,20.184104 14.801793,19.912289 14.28125,19.59375 10.169128,17.080107 9.3921639,11.954616 14.875,10.25 c 3.085671,-0.9593651 6.212819,1.00206 8.09375,2.90625 0.161563,-0.480212 0.347703,-0.93724 0.59375,-1.375 1.57347,-2.8049084 4.757202,-4.6300335 7.84375,-4.59375 2.111754,0.024884 4.173308,0.9204585 5.6875,3 1.684309,2.313097 0.657058,5.095376 -1,7.3125 0.261506,-0.0155 0.523108,-0.03125 0.78125,-0.03125 5.091893,0.01932 9.311458,3.772738 6.0625,7.84375 -1.469591,1.841527 -3.348825,2.874325 -5.3125,3.0625 3.200559,0.433912 6.922285,0.149832 8.8125,-2.21875 3.92795,-4.921814 -1.156443,-9.445393 -7.3125,-9.46875 -0.312189,0 -0.621305,0.01235 -0.9375,0.03125 C 40.190876,14.038271 41.411296,10.67151 39.375,7.875 37.544348,5.3608582 35.053109,4.280085 32.5,4.25 32.266775,4.24726 32.01467,4.235223 31.78125,4.25 z" transform="matrix(0.26458332,0,0,0.26458332,91.184267,90.340912)" id="path3798"/>
      </g>
    </g>
    <g id="g3018" gds_color="center">
      <g transform="matrix(0.45328128,0,0,0.45328128,-111.0832,6.413831)" id="g21801">
        <path id="path21781" d="m 3575.2753,2407.6685 c 0,8.3028 -6.7307,15.0336 -15.0336,15.0336 -8.3029,0 -15.0337,-6.7308 -15.0337,-15.0336 0,-8.3029 6.7308,-15.0337 15.0337,-15.0337 8.3029,0 15.0336,6.7308 15.0336,15.0337 z" style="color: rgb(0, 0, 0); fill: rgb(255, 207, 16); fill-opacity: 1; fill-rule: nonzero; stroke: none; stroke-width: 0; marker: none; visibility: visible; display: inline; overflow: visible;" transform="matrix(0.34232578,0,0,0.28654792,-757.33908,-492.67557)" inkscape:connector-curvature="0"/>
        <path id="path21783" d="m 456.36494,196.48123 c -0.0522,0.24597 -0.0913,0.49852 -0.0913,0.75705 0,2.37916 2.31044,4.3062 5.15271,4.3062 2.8423,0 5.14443,-1.92704 5.14443,-4.3062 0,-0.25824 -0.0309,-0.51132 -0.0829,-0.75705 -0.42525,1.8189 -2.52585,3.20186 -5.06148,3.20186 -2.5352,0 -4.63574,-1.38338 -5.06142,-3.20186 z" style="opacity: 0.49115; color: rgb(0, 0, 0); fill: rgb(255, 90, 0); fill-opacity: 1; fill-rule: nonzero; stroke: none; stroke-width: 0; marker: none; visibility: visible; display: inline; overflow: visible;" inkscape:connector-curvature="0"/>
        <path transform="matrix(0.21261824,-0.03697792,0.03260211,0.13134665,-374.38608,10.50009)" d="m 3575.2753,2407.6685 c 0,8.3028 -6.7307,15.0336 -15.0336,15.0336 -8.3029,0 -15.0337,-6.7308 -15.0337,-15.0336 0,-8.3029 6.7308,-15.0337 15.0337,-15.0337 8.3029,0 15.0336,6.7308 15.0336,15.0337 z" sodipodi:ry="15.033649" sodipodi:rx="15.033649" sodipodi:cy="2407.6685" sodipodi:cx="3560.2417" id="path21785" style="color: rgb(0, 0, 0); fill: rgb(255, 255, 0); fill-opacity: 1; fill-rule: nonzero; stroke: none; stroke-width: 0; marker: none; visibility: visible; display: inline; overflow: visible;" sodipodi:type="arc"/>
        <path id="path21807" transform="matrix(0.26458336,0,0,0.26458336,320.08182,94.083721)" d="m 534.21875,373.59375 c -10.74254,0 -19.46875,7.28908 -19.46875,16.28125 0,0.51903 0.037,1.02464 0.0937,1.53125 0.91197,-8.28268 9.24204,-14.75 19.375,-14.75 10.13296,0 18.4318,6.46732 19.34375,14.75 0.0567,-0.50661 0.0937,-1.01222 0.0937,-1.53125 0,-8.99217 -8.69496,-16.28125 -19.4375,-16.28125 z" style="color: rgb(0, 0, 0); fill: rgb(255, 255, 0); fill-opacity: 1; fill-rule: nonzero; stroke: none; stroke-width: 0; marker: none; visibility: visible; display: inline; overflow: visible;" inkscape:connector-curvature="0"/>
      </g>
    </g>
  </g>
</svg>