<?xml version="1.0" encoding="UTF-8" standalone="no"?><!-- Created with Inkscape (http://www.inkscape.org/) --><svg xmlns:dc="http://purl.org/dc/elements/1.1/" xmlns:cc="http://creativecommons.org/ns#" xmlns:rdf="http://www.w3.org/1999/02/22-rdf-syntax-ns#" xmlns:svg="http://www.w3.org/2000/svg" xmlns="http://www.w3.org/2000/svg" xmlns:sodipodi="http://sodipodi.sourceforge.net/DTD/sodipodi-0.dtd" xmlns:inkscape="http://www.inkscape.org/namespaces/inkscape" width="60.706432" height="51.770565" viewBox="0 0 16.061908 13.697626" version="1.1" id="svg23489" inkscape:version="0.48.5 r10040" sodipodi:docname="grass_tuft_06.svg">
  <defs id="defs23483">
    <clipPath clipPathUnits="userSpaceOnUse" id="clipPath22932">
      <path style="opacity: 0.39823; color: rgb(0, 0, 0); fill: rgb(113, 255, 81); fill-opacity: 1; fill-rule: nonzero; stroke: none; stroke-width: 0; marker: none; visibility: visible; display: inline; overflow: visible;" d="m 544.30169,181.88988 c 0.28587,0.59217 2.59866,1.15837 3.74216,0.1578 0.98015,2.77708 16.86469,0 16.86469,0 l 0,-16.17162 -30.55281,0 0,15.42079 c 0,0 6.65838,3.49263 9.94596,0.59303 z" id="path22934" inkscape:connector-curvature="0" sodipodi:nodetypes="ccccccc"/>
    </clipPath>
    <clipPath clipPathUnits="userSpaceOnUse" id="clipPath22874">
      <path style="opacity: 0.39823; color: rgb(0, 0, 0); fill: rgb(113, 255, 81); fill-opacity: 1; fill-rule: nonzero; stroke: none; stroke-width: 0; marker: none; visibility: visible; display: inline; overflow: visible;" d="m 507.96393,172.04108 c 5.63585,4.14521 4.40861,7.03756 4.24526,7.42553 -0.16336,0.38797 -0.45419,0.84609 -0.55527,0.75946 0,0 -0.23077,1.39392 -0.96715,1.52387 0,0 0.7281,2.05291 -3.23333,2.91054 -3.96143,0.85763 -12.08849,-2.45037 -11.76178,-7.80034 0.32672,-5.34998 9.00511,-7.35111 12.27227,-4.81906 z" id="path22876" inkscape:connector-curvature="0" sodipodi:nodetypes="csccssc"/>
    </clipPath>
    <clipPath clipPathUnits="userSpaceOnUse" id="clipPath22894">
      <path style="opacity: 0.39823; color: rgb(0, 0, 0); fill: rgb(113, 255, 81); fill-opacity: 1; fill-rule: nonzero; stroke: none; stroke-width: 0; marker: none; visibility: visible; display: inline; overflow: visible;" d="m 519.13353,181.84256 c 1.53,1.07862 2.21773,-0.85703 2.00114,-1.06183 0.0817,0.0408 1.9603,0.65343 4.32899,-2.85877 2.36869,-3.51219 0,-9.96483 -8.00455,-11.96597 -8.00454,-2.00113 -11.2717,3.47136 -11.47589,10.16904 -0.2042,6.69767 5.75836,9.27056 9.76064,9.7198 4.00227,0.44923 3.38967,-4.00227 3.38967,-4.00227 z" id="path22896" inkscape:connector-curvature="0" sodipodi:nodetypes="ccssssc"/>
    </clipPath>
    <clipPath clipPathUnits="userSpaceOnUse" id="clipPath23263">
      <path style="opacity: 0.39823; color: rgb(0, 0, 0); fill: rgb(113, 255, 81); fill-opacity: 1; fill-rule: nonzero; stroke: none; stroke-width: 0; marker: none; visibility: visible; display: inline; overflow: visible;" d="m 507.96393,172.04108 c 5.63585,4.14521 4.40861,7.03756 4.24526,7.42553 -0.16336,0.38797 -0.45419,0.84609 -0.55527,0.75946 0,0 -0.23077,1.39392 -0.96715,1.52387 0,0 0.7281,2.05291 -3.23333,2.91054 -3.96143,0.85763 -12.08849,-2.45037 -11.76178,-7.80034 0.32672,-5.34998 9.00511,-7.35111 12.27227,-4.81906 z" id="path23265" inkscape:connector-curvature="0" sodipodi:nodetypes="csccssc"/>
    </clipPath>
    <clipPath clipPathUnits="userSpaceOnUse" id="clipPath22907">
      <path style="opacity: 0.39823; color: rgb(0, 0, 0); fill: rgb(113, 255, 81); fill-opacity: 1; fill-rule: nonzero; stroke: none; stroke-width: 0; marker: none; visibility: visible; display: inline; overflow: visible;" d="m 525.58617,181.98549 c 0.89522,0.98185 2.40724,0.64233 3.04255,0.12252 0.16124,0.72559 12.13955,0.23486 11.90471,0 -0.23482,-0.23483 4.09811,-23.83249 0,-26.19853 -4.09811,-2.36605 -15.11061,0 -21.31822,0 -6.2076,0 -9.48879,8.76153 -8.08444,14.00265 1.40436,5.24112 4.81751,7.15803 7.00687,9.97898 2.18936,2.82095 7.44853,2.09438 7.44853,2.09438 z" id="path22909" inkscape:connector-curvature="0" sodipodi:nodetypes="ccsssssc"/>
    </clipPath>
    <clipPath clipPathUnits="userSpaceOnUse" id="clipPath23269">
      <path style="opacity: 0.39823; color: rgb(0, 0, 0); fill: rgb(113, 255, 81); fill-opacity: 1; fill-rule: nonzero; stroke: none; stroke-width: 0; marker: none; visibility: visible; display: inline; overflow: visible;" d="m 525.58617,181.98549 c 0.89522,0.98185 2.40724,0.64233 3.04255,0.12252 0.16124,0.72559 12.13955,0.23486 11.90471,0 -0.23482,-0.23483 4.09811,-23.83249 0,-26.19853 -4.09811,-2.36605 -15.11061,0 -21.31822,0 -6.2076,0 -9.48879,8.76153 -8.08444,14.00265 1.40436,5.24112 4.81751,7.15803 7.00687,9.97898 2.18936,2.82095 7.44853,2.09438 7.44853,2.09438 z" id="path23271" inkscape:connector-curvature="0" sodipodi:nodetypes="ccsssssc"/>
    </clipPath>
    <clipPath clipPathUnits="userSpaceOnUse" id="clipPath23273">
      <path style="opacity: 0.39823; color: rgb(0, 0, 0); fill: rgb(113, 255, 81); fill-opacity: 1; fill-rule: nonzero; stroke: none; stroke-width: 0; marker: none; visibility: visible; display: inline; overflow: visible;" d="m 507.96393,172.04108 c 5.63585,4.14521 4.40861,7.03756 4.24526,7.42553 -0.16336,0.38797 -0.45419,0.84609 -0.55527,0.75946 0,0 -0.23077,1.39392 -0.96715,1.52387 0,0 0.7281,2.05291 -3.23333,2.91054 -3.96143,0.85763 -12.08849,-2.45037 -11.76178,-7.80034 0.32672,-5.34998 9.00511,-7.35111 12.27227,-4.81906 z" id="path23275" inkscape:connector-curvature="0" sodipodi:nodetypes="csccssc"/>
    </clipPath>
    <clipPath clipPathUnits="userSpaceOnUse" id="clipPath23277">
      <path style="opacity: 0.39823; color: rgb(0, 0, 0); fill: rgb(113, 255, 81); fill-opacity: 1; fill-rule: nonzero; stroke: none; stroke-width: 0; marker: none; visibility: visible; display: inline; overflow: visible;" d="m 519.13353,181.84256 c 1.53,1.07862 2.21773,-0.85703 2.00114,-1.06183 0.0817,0.0408 1.9603,0.65343 4.32899,-2.85877 2.36869,-3.51219 0,-9.96483 -8.00455,-11.96597 -8.00454,-2.00113 -11.2717,3.47136 -11.47589,10.16904 -0.2042,6.69767 5.75836,9.27056 9.76064,9.7198 4.00227,0.44923 3.38967,-4.00227 3.38967,-4.00227 z" id="path23279" inkscape:connector-curvature="0" sodipodi:nodetypes="ccssssc"/>
    </clipPath>
    <clipPath clipPathUnits="userSpaceOnUse" id="clipPath23281">
      <path style="opacity: 0.39823; color: rgb(0, 0, 0); fill: rgb(113, 255, 81); fill-opacity: 1; fill-rule: nonzero; stroke: none; stroke-width: 0; marker: none; visibility: visible; display: inline; overflow: visible;" d="m 525.58617,181.98549 c 0.89522,0.98185 2.40724,0.64233 3.04255,0.12252 0.16124,0.72559 12.13955,0.23486 11.90471,0 -0.23482,-0.23483 4.09811,-23.83249 0,-26.19853 -4.09811,-2.36605 -15.11061,0 -21.31822,0 -6.2076,0 -9.48879,8.76153 -8.08444,14.00265 1.40436,5.24112 4.81751,7.15803 7.00687,9.97898 2.18936,2.82095 7.44853,2.09438 7.44853,2.09438 z" id="path23283" inkscape:connector-curvature="0" sodipodi:nodetypes="ccsssssc"/>
    </clipPath>
    <clipPath clipPathUnits="userSpaceOnUse" id="clipPath23285">
      <path style="opacity: 0.39823; color: rgb(0, 0, 0); fill: rgb(113, 255, 81); fill-opacity: 1; fill-rule: nonzero; stroke: none; stroke-width: 0; marker: none; visibility: visible; display: inline; overflow: visible;" d="m 544.30169,181.88988 c 0.28587,0.59217 2.59866,1.15837 3.74216,0.1578 0.98015,2.77708 16.86469,0 16.86469,0 l 0,-16.17162 -30.55281,0 0,15.42079 c 0,0 6.65838,3.49263 9.94596,0.59303 z" id="path23287" inkscape:connector-curvature="0" sodipodi:nodetypes="ccccccc"/>
    </clipPath>
    <clipPath clipPathUnits="userSpaceOnUse" id="clipPath23289">
      <path style="opacity: 0.39823; color: rgb(0, 0, 0); fill: rgb(113, 255, 81); fill-opacity: 1; fill-rule: nonzero; stroke: none; stroke-width: 0; marker: none; visibility: visible; display: inline; overflow: visible;" d="m 507.96393,172.04108 c 5.63585,4.14521 4.40861,7.03756 4.24526,7.42553 -0.16336,0.38797 -0.45419,0.84609 -0.55527,0.75946 0,0 -0.23077,1.39392 -0.96715,1.52387 0,0 0.7281,2.05291 -3.23333,2.91054 -3.96143,0.85763 -12.08849,-2.45037 -11.76178,-7.80034 0.32672,-5.34998 9.00511,-7.35111 12.27227,-4.81906 z" id="path23291" inkscape:connector-curvature="0" sodipodi:nodetypes="csccssc"/>
    </clipPath>
    <clipPath clipPathUnits="userSpaceOnUse" id="clipPath22919">
      <path style="opacity: 0.39823; color: rgb(0, 0, 0); fill: rgb(113, 255, 81); fill-opacity: 1; fill-rule: nonzero; stroke: none; stroke-width: 0; marker: none; visibility: visible; display: inline; overflow: visible;" d="m 533.24358,180.67863 c -0.16336,1.16393 0.51049,2.00114 2.00114,1.20477 -1.74256,1.5022 -0.71572,1.26164 1.42124,3.05207 2.13697,1.79043 11.4934,0.98185 12.12872,0.5198 0.63531,-0.46205 8.02805,-6.41089 8.0858,-8.66336 0.0578,-2.25248 -1.90593,-15.01651 -5.19801,-17.78878 -3.29208,-2.77228 -16.4604,-0.57756 -19.75248,-0.0578 -3.29208,0.5198 -10.16501,5.71782 -9.93399,5.77558 0.23102,0.0577 2.83003,15.42079 2.77228,15.65181 -0.0578,0.23102 2.42574,4.15842 2.83003,3.92739 0.40429,-0.23102 3.95121,-3.17246 3.95121,-3.17246 0,0 1.59196,0.89865 1.69406,-0.44906 z" id="path22921" inkscape:connector-curvature="0" sodipodi:nodetypes="ccsssssssscc"/>
    </clipPath>
    <clipPath clipPathUnits="userSpaceOnUse" id="clipPath23295">
      <path style="opacity: 0.39823; color: rgb(0, 0, 0); fill: rgb(113, 255, 81); fill-opacity: 1; fill-rule: nonzero; stroke: none; stroke-width: 0; marker: none; visibility: visible; display: inline; overflow: visible;" d="m 525.58617,181.98549 c 0.89522,0.98185 2.40724,0.64233 3.04255,0.12252 0.16124,0.72559 12.13955,0.23486 11.90471,0 -0.23482,-0.23483 4.09811,-23.83249 0,-26.19853 -4.09811,-2.36605 -15.11061,0 -21.31822,0 -6.2076,0 -9.48879,8.76153 -8.08444,14.00265 1.40436,5.24112 4.81751,7.15803 7.00687,9.97898 2.18936,2.82095 7.44853,2.09438 7.44853,2.09438 z" id="path23297" inkscape:connector-curvature="0" sodipodi:nodetypes="ccsssssc"/>
    </clipPath>
    <clipPath clipPathUnits="userSpaceOnUse" id="clipPath23299">
      <path style="opacity: 0.39823; color: rgb(0, 0, 0); fill: rgb(113, 255, 81); fill-opacity: 1; fill-rule: nonzero; stroke: none; stroke-width: 0; marker: none; visibility: visible; display: inline; overflow: visible;" d="m 525.58617,181.98549 c 0.89522,0.98185 2.40724,0.64233 3.04255,0.12252 0.16124,0.72559 12.13955,0.23486 11.90471,0 -0.23482,-0.23483 4.09811,-23.83249 0,-26.19853 -4.09811,-2.36605 -15.11061,0 -21.31822,0 -6.2076,0 -9.48879,8.76153 -8.08444,14.00265 1.40436,5.24112 4.81751,7.15803 7.00687,9.97898 2.18936,2.82095 7.44853,2.09438 7.44853,2.09438 z" id="path23301" inkscape:connector-curvature="0" sodipodi:nodetypes="ccsssssc"/>
    </clipPath>
  </defs>
  <sodipodi:namedview id="base" pagecolor="#7d848b" bordercolor="#666666" borderopacity="1.0" inkscape:pageopacity="0" inkscape:pageshadow="2" inkscape:zoom="0.8098268" inkscape:cx="-96.643595" inkscape:cy="227.38353" inkscape:document-units="px" inkscape:current-layer="layer1" showgrid="false" inkscape:pagecheckerboard="false" showborder="true" units="px" inkscape:window-width="1920" inkscape:window-height="1017" inkscape:window-x="-8" inkscape:window-y="-8" inkscape:window-maximized="1" inkscape:showpageshadow="false" guidetolerance="28" fit-margin-top="8" fit-margin-left="8" fit-margin-right="8" fit-margin-bottom="8">
    <inkscape:grid type="xygrid" id="grid24034" spacingx="1px" spacingy="1px" empspacing="8" visible="true" enabled="true" snapvisiblegridlinesonly="true" originx="-378.99855px" originy="623.69447px"/>
  </sodipodi:namedview>
  <metadata id="metadata23486">
    <rdf:RDF>
      <cc:Work rdf:about="">
        <dc:format>image/svg+xml</dc:format>
        <dc:type rdf:resource="http://purl.org/dc/dcmitype/StillImage"/>
        <dc:title/>
        <cc:license rdf:resource=""/>
        <dc:creator>
          <cc:Agent>
            <dc:title>Robert Brooks</dc:title>
          </cc:Agent>
        </dc:creator>
      </cc:Work>
    </rdf:RDF>
  </metadata>
  <g inkscape:label="Layer 1" inkscape:groupmode="layer" id="layer1" transform="translate(-100.27668,-448.32148)">
    <g id="g38574" transform="translate(-388.75439,467.93832)">
      <g transform="matrix(0.50061508,0,0,0.50061508,258.94731,-47.736464)" id="g38562">
        <path sodipodi:nodetypes="ccssssc" inkscape:connector-curvature="0" id="path38534" d="m 466.34363,72.353202 c -1.92452,-7.105913 2.22214,-10.362788 2.22214,-10.362788 0,0 1.02729,3.614278 3.09985,5.834873 2.07256,2.220598 -0.8436,1.263335 -2.17596,2.595694 -0.61827,0.618271 -0.0463,0.814703 1.06482,1.650881 5.24097,3.944009 0.69032,1.584687 0.20419,1.722739 -1.96548,0.55816 -3.658,0.332051 -4.41504,-1.441399 z" style="color: rgb(0, 0, 0); fill: rgb(23, 103, 5); fill-opacity: 1; fill-rule: nonzero; stroke: rgb(27, 27, 27); stroke-width: 3.1711; stroke-linejoin: round; stroke-miterlimit: 4; stroke-opacity: 1; stroke-dasharray: none; marker: none; visibility: visible; display: inline; overflow: visible;"/>
        <path style="color: rgb(0, 0, 0); fill: rgb(68, 213, 35); fill-opacity: 1; fill-rule: nonzero; stroke: none; stroke-width: 0; marker: none; visibility: visible; display: inline; overflow: visible;" d="m 466.34363,72.353202 c -1.92452,-7.105913 2.22214,-10.362788 2.22214,-10.362788 0,0 1.02729,3.614278 3.09985,5.834873 2.07256,2.220598 3.70998,5.712235 2.37762,7.044592 -1.33236,1.33236 -5.71069,2.141581 -7.69961,-2.516677 z" id="path38514" inkscape:connector-curvature="0" sodipodi:nodetypes="ccssc"/>
        <path sodipodi:nodetypes="cscsssc" inkscape:connector-curvature="0" id="path38538" d="m 482.7549,71.930762 c -3.94724,1.212891 -2.25965,-1.629984 -1.6718,-2.231684 2.39678,-2.453251 4.78346,-2.453251 4.78346,-2.453251 0,0 -0.9358,1.986218 -1.19573,4.146546 -0.0833,0.692377 -0.30655,4.804737 -2.29155,1.024328 -1.61706,-3.07968 0.53109,1.060142 -0.35714,-0.272221 -1.35526,-2.03291 0.73276,-0.213718 0.73276,-0.213718 z" style="color: rgb(0, 0, 0); fill: rgb(23, 103, 5); fill-opacity: 1; fill-rule: nonzero; stroke: rgb(27, 27, 27); stroke-width: 3.1711; stroke-linejoin: round; stroke-miterlimit: 4; stroke-opacity: 1; stroke-dasharray: none; marker: none; visibility: visible; display: inline; overflow: visible;"/>
        <path style="color: rgb(0, 0, 0); fill: rgb(68, 213, 35); fill-opacity: 1; fill-rule: nonzero; stroke: none; stroke-width: 0; marker: none; visibility: visible; display: inline; overflow: visible;" d="m 479.3528,71.983102 c 2.81276,-4.737275 6.51376,-4.737275 6.51376,-4.737275 0,0 -1.63177,3.46339 -1.18432,6.217674 0.55778,3.433396 -4.28419,3.363101 -5.17242,2.030738 -1.35526,-2.03291 -0.15702,-3.511137 -0.15702,-3.511137 z" id="path38518" inkscape:connector-curvature="0" sodipodi:nodetypes="ccssc"/>
        <path style="opacity: 0.331858; color: rgb(0, 0, 0); fill: rgb(47, 255, 0); fill-opacity: 1; fill-rule: nonzero; stroke: none; stroke-width: 0; marker: none; visibility: visible; display: inline; overflow: visible;" d="m 485.86892,67.247017 c 0,0 -3.70261,4.21e-4 -6.51537,4.737696 0,0 -0.0742,0.09423 -0.16536,0.264583 1.43115,-1.954452 4.1468,-3.286152 4.92786,-3.332096 0.88978,-0.05234 -0.15406,2.820307 0.42168,4.547526 0.0422,0.126635 0.0995,0.220526 0.17363,0.28112 -0.007,-0.09042 -0.0175,-0.185293 -0.0331,-0.28112 -0.44745,-2.754284 1.19063,-6.217709 1.19063,-6.217709 z" id="path38542" inkscape:connector-curvature="0"/>
        <path inkscape:connector-curvature="0" style="opacity: 0.331858; color: rgb(0, 0, 0); fill: rgb(47, 255, 0); fill-opacity: 1; fill-rule: nonzero; stroke: none; stroke-width: 0; marker: none; visibility: visible; display: inline; overflow: visible;" d="m 561.1875,-121.3125 c 0,0 -12.44274,9.79629 -10,30.9375 1.89274,-12.36039 8.67858,-18.95758 9.03125,-18.78125 0.39565,0.19782 9.29503,13.4401 16.21875,18.78125 1.3604,1.049449 2.80545,1.712663 4.1875,2.09375 -1.97743,-3.877376 -4.73265,-7.769359 -7.71875,-10.96875 -7.8333,-8.3928 -11.71875,-22.0625 -11.71875,-22.0625 z" transform="matrix(0.26458336,0,0,0.26458336,320.08182,94.083721)" id="path38552"/>
        <path sodipodi:nodetypes="ccssssc" inkscape:connector-curvature="0" id="path38536" d="m 472.52846,72.541521 c 3.99708,-5.773553 2.7948,-8.590668 2.7948,-10.003848 0.99446,0.07997 3.20454,1.869095 4.60719,6.600471 0.48269,1.628197 0.59943,3.355153 0.47573,4.743628 -0.11499,1.290791 -1.06586,5.586471 -2.80409,-4.003693 -0.47154,-2.601597 -2e-5,-0.531217 -0.90965,0.786641 -3.73597,5.41269 -4.63504,2.71424 -4.16398,1.876801 z" style="color: rgb(0, 0, 0); fill: rgb(23, 103, 5); fill-opacity: 1; fill-rule: nonzero; stroke: rgb(27, 27, 27); stroke-width: 3.1711; stroke-linejoin: round; stroke-miterlimit: 4; stroke-opacity: 1; stroke-dasharray: none; marker: none; visibility: visible; display: inline; overflow: visible;"/>
        <path style="color: rgb(0, 0, 0); fill: rgb(68, 213, 35); fill-opacity: 1; fill-rule: nonzero; stroke: none; stroke-width: 0; marker: none; visibility: visible; display: inline; overflow: visible;" d="m 472.52846,72.541521 c 3.99708,-5.773553 2.7948,-8.590668 2.7948,-10.003848 0.99446,0.07997 3.20454,1.869096 4.60719,6.600471 0.93142,3.141845 0.5002,6.651425 -0.39178,7.387113 -2.03972,1.682321 -4.84195,0.940578 -6.17431,0.05234 -1.85173,-1.234487 -1.30696,-3.198637 -0.8359,-4.036076 z" id="path38516" inkscape:connector-curvature="0" sodipodi:nodetypes="ccsssc"/>
        <path inkscape:connector-curvature="0" style="opacity: 0.331858; color: rgb(0, 0, 0); fill: rgb(47, 255, 0); fill-opacity: 1; fill-rule: nonzero; stroke: none; stroke-width: 0; marker: none; visibility: visible; display: inline; overflow: visible;" d="m 586.75,-119.21875 c 0,5.00212 3.96553,14.65145 -7.9375,33.78125 0.12811,-0.04995 0.25118,-0.107293 0.40625,-0.1875 5.73679,-2.967305 12.05304,-16.61497 14.03125,-17.40625 1.9782,-0.79128 10.49026,12.654017 11.875,29.46875 0.0515,0.624815 0.10635,1.050826 0.15625,1.625 1.28357,-5.628429 1.26047,-14.297143 -1.125,-22.34375 -5.30135,-17.88236 -13.64766,-24.63525 -17.40625,-24.9375 z" transform="matrix(0.26458336,0,0,0.26458336,320.08182,94.083721)" id="path38547"/>
        <path style="color: rgb(0, 0, 0); fill: rgb(68, 213, 35); fill-opacity: 1; fill-rule: nonzero; stroke: none; stroke-width: 0; marker: none; visibility: visible; display: inline; overflow: visible;" d="m 619.9375,-88.84375 c -1.11905,0.559521 -6.6875,4.1875 -6.6875,4.1875 -1.92772,6.792929 -4.70904,11.176411 -7.5625,14 -0.48263,-0.462051 -2.44231,-0.446104 -3.0863,-1.127979 -4.75592,-5.035685 -10.64139,-15.089281 -12.31995,-14.809521 -1.67857,0.279761 -10.34375,0.28125 -10.34375,0.28125 -8.11305,10.63089 -11.74109,10.34375 -15.9375,10.34375 -4.1964,0 -8.24505,8.38726 -20.69883,-3.362247 8.38628,20.960365 21.83996,23.468912 48.76133,23.468912 8.90783,0.01596 16.74635,-0.766474 26.21684,-1.659916 14.82729,-1.398801 10.63283,-10.887263 5.87691,-17.321749 -4.75592,-6.434487 -3.09971,-14.55952 -4.21875,-14 z" transform="matrix(0.26458336,0,0,0.26458336,320.08182,94.083721)" id="path38557" inkscape:connector-curvature="0" sodipodi:nodetypes="sccsscsccsss"/>
      </g>
    </g>
  </g>
</svg>