<?xml version="1.0" encoding="UTF-8" standalone="no"?><!-- Created with Inkscape (http://www.inkscape.org/) --><svg xmlns:dc="http://purl.org/dc/elements/1.1/" xmlns:cc="http://creativecommons.org/ns#" xmlns:rdf="http://www.w3.org/1999/02/22-rdf-syntax-ns#" xmlns:svg="http://www.w3.org/2000/svg" xmlns="http://www.w3.org/2000/svg" xmlns:sodipodi="http://sodipodi.sourceforge.net/DTD/sodipodi-0.dtd" xmlns:inkscape="http://www.inkscape.org/namespaces/inkscape" width="60.695095" height="52.271862" viewBox="0 0 16.058909 13.830263" version="1.1" id="svg23489" inkscape:version="0.48.5 r10040" sodipodi:docname="grass_flower_white.svg">
  <defs id="defs23483"/>
  <sodipodi:namedview id="base" pagecolor="#7d848b" bordercolor="#666666" borderopacity="1.0" inkscape:pageopacity="0" inkscape:pageshadow="2" inkscape:zoom="5.8711112" inkscape:cx="56.137574" inkscape:cy="51.403832" inkscape:document-units="px" inkscape:current-layer="layer1" showgrid="false" inkscape:pagecheckerboard="false" showborder="true" units="px" inkscape:window-width="1920" inkscape:window-height="1017" inkscape:window-x="-8" inkscape:window-y="-8" inkscape:window-maximized="1" inkscape:showpageshadow="false" guidetolerance="28" fit-margin-top="4" fit-margin-left="4" fit-margin-right="4" fit-margin-bottom="4">
    <inkscape:grid type="xygrid" id="grid24034" spacingx="1px" spacingy="1px" empspacing="8" visible="true" enabled="true" snapvisiblegridlinesonly="true" originx="-298.78628px" originy="-695.5429px"/>
  </sodipodi:namedview>
  <metadata id="metadata23486">
    <rdf:RDF>
      <cc:Work rdf:about="">
        <dc:format>image/svg+xml</dc:format>
        <dc:type rdf:resource="http://purl.org/dc/dcmitype/StillImage"/>
        <dc:title/>
        <cc:license rdf:resource=""/>
        <dc:creator>
          <cc:Agent>
            <dc:title>Robert Brooks</dc:title>
          </cc:Agent>
        </dc:creator>
      </cc:Work>
    </rdf:RDF>
  </metadata>
  <g inkscape:label="Layer 1" inkscape:groupmode="layer" id="layer1" transform="translate(-79.053871,-99.140667)">
    <path sodipodi:nodetypes="cscscsc" inkscape:connector-curvature="0" id="path21743" d="m 85.17667,103.88462 c -1.3842,-1.02453 -4.490969,-0.12384 -4.401099,2.11959 0.0797,1.99063 2.11512,2.93209 3.513659,2.32954 -0.823369,1.86169 1.42687,2.98325 3.14619,2.91439 1.719317,-0.0689 2.953737,-1.11969 2.599017,-2.90852 2.39952,-0.34567 3.32995,-1.45217 3.35806,-2.70174 0.0788,-3.50391 -9.337666,-3.24575 -8.215827,-1.75326 z" style="opacity: 0.216814; color: rgb(0, 0, 0); fill: rgb(0, 0, 0); fill-opacity: 1; fill-rule: nonzero; stroke: rgb(0, 0, 0); stroke-width: 1.5875; stroke-miterlimit: 4; stroke-dasharray: none; marker: none; visibility: visible; display: inline; overflow: visible; stop-color: rgb(0, 0, 0);" gds_color="shadow" gds_opacity="shadow" gds_switchable="shadow"/>
    <g transform="translate(-368.98528,-80.244084)" id="g22117" gds_color="petals">
      <path id="path22058-2" transform="matrix(0.26458336,0,0,0.26458336,320.08182,94.083721)" d="m 512.53125,328.40625 c -5.17877,0.20735 -10.16936,4.22187 -9.40625,8.78125 -0.11918,0.72565 -0.0924,1.48393 0.0937,2.25 -5.09525,-2.29208 -11.47204,2.85999 -11.3125,6.84375 0.0122,0.30587 0.0596,0.58477 0.0937,0.875 -0.0667,0.32924 -0.10651,0.65006 -0.0937,0.96875 0.28942,7.22882 6.85486,10.08171 12.5,8.03125 -0.0803,0.58131 -0.0244,1.14505 0.0625,1.6875 -0.81788,4.94813 4.77207,8.69944 10.53125,8.46875 5.8504,-0.23445 9.10454,-3.22451 8.71875,-8.75 0.0556,-0.60411 0.0523,-1.2565 0,-1.9375 8.82125,-0.9387 12.14471,-3.82268 12.25,-8.5 0.008,-0.34033 -0.0241,-0.67666 -0.0625,-1 0.002,-0.0207 -0.002,-0.0417 0,-0.0625 -0.003,-0.0201 0.003,-0.0425 0,-0.0625 0.0246,-0.24129 0.0568,-0.46707 0.0625,-0.71875 0.13516,-5.99967 -7.16165,-9.44465 -12.25,-7.28125 -0.0101,-0.2354 -0.0182,-0.45488 -0.0625,-0.6875 -0.002,-0.0105 0.002,-0.0208 0,-0.0312 0.93959,-4.55471 -5.25075,-9.11028 -11.125,-8.875 z" style="color: rgb(0, 0, 0); fill: rgb(95, 227, 227); fill-opacity: 1; fill-rule: nonzero; stroke: rgb(0, 37, 82); stroke-width: 4.8; stroke-linejoin: round; stroke-miterlimit: 4; stroke-opacity: 1; stroke-dasharray: none; marker: none; visibility: visible; display: inline; overflow: visible; stop-color: rgb(0, 0, 0);" inkscape:connector-curvature="0"/>
      <path sodipodi:nodetypes="scscscscss" inkscape:connector-curvature="0" id="path22058" d="m 455.69075,181.46356 c -1.66337,0.0666 -3.26311,1.61498 -2.14125,3.10747 -1.38422,-1.02453 -3.36043,0.4787 -3.31474,1.61959 0.0797,1.99063 1.9554,2.73222 3.48618,2.05678 -0.76804,1.55536 0.90303,2.82719 2.62235,2.75832 1.71932,-0.0689 2.59426,-1.03384 2.23954,-2.82266 2.38526,-0.24066 3.28101,-1.0071 3.30914,-2.25667 0.0365,-1.62022 -1.97725,-2.53665 -3.32553,-1.88945 0.51821,-1.27369 -1.22581,-2.63946 -2.87566,-2.57338 z" style="color: rgb(0, 0, 0); fill: rgb(95, 227, 227); fill-opacity: 1; fill-rule: nonzero; stroke: none; stroke-width: 0; marker: none; visibility: visible; display: inline; overflow: visible;"/>
      <path style="color: rgb(0, 0, 0); fill: rgb(222, 255, 255); fill-opacity: 1; fill-rule: nonzero; stroke: none; stroke-width: 0; marker: none; visibility: visible; display: inline; overflow: visible;" d="m 455.69075,180.97348 c -1.66337,0.0666 -3.26311,1.61498 -2.14125,3.10747 -1.38422,-1.02453 -3.36043,0.4787 -3.31474,1.61959 0.0797,1.99063 1.9554,2.73222 3.48618,2.05678 -0.76804,1.55536 0.90303,2.82719 2.62235,2.75832 1.71932,-0.0689 2.59426,-1.03384 2.23954,-2.82266 2.38526,-0.24066 3.28101,-1.0071 3.30914,-2.25667 0.0365,-1.62022 -1.97725,-2.53665 -3.32553,-1.88945 0.51821,-1.27369 -1.22581,-2.63946 -2.87566,-2.57338 z" id="path21745" inkscape:connector-curvature="0" sodipodi:nodetypes="scscscscss"/>
      <path sodipodi:nodetypes="sssss" inkscape:connector-curvature="0" id="path22060" d="m 458.69262,185.67057 c 0.0456,1.13746 -0.51764,2.48938 -2.55319,2.48938 -2.13652,0 -2.63179,-1.14569 -2.67735,-2.28314 -0.0456,-1.13746 1.07986,-1.80067 2.50168,-1.85762 1.42182,-0.057 2.6833,0.51393 2.72886,1.65138 z" style="color: rgb(0, 0, 0); fill: rgb(95, 227, 227); fill-opacity: 1; fill-rule: nonzero; stroke: none; stroke-width: 0; marker: none; visibility: visible; display: inline; overflow: visible;"/>
      <path sodipodi:nodetypes="cccccscccccccccccc" inkscape:connector-curvature="0" id="path21755" d="m 455.37823,181.00449 c -1.54222,0.23047 -2.87688,1.67885 -1.82514,3.07806 -1.38421,-1.02453 -3.36159,0.47866 -3.3159,1.61954 0.006,0.15767 0.0209,0.30191 0.0487,0.44383 -0.15736,-1.33368 2.19788,-2.81873 3.72313,-1.62261 -1.12186,-1.49249 0.0723,-2.9933 1.73563,-3.05993 1.64985,-0.0661 2.94769,1.3878 2.42948,2.66149 1.30577,-0.88846 3.38717,-0.0758 3.71788,1.36405 7.9e-4,-0.0171 0.002,-0.0329 0.003,-0.0502 0.0365,-1.62022 -1.97804,-2.53662 -3.32632,-1.88942 0.51821,-1.27369 -1.22807,-2.64513 -2.87792,-2.57904 -0.10396,0.004 -0.20951,0.0189 -0.31232,0.0342 z m 3.25747,7.17874 c 0.01,0.0488 0.0157,0.0913 0.0235,0.13882 -0.002,-0.0454 -0.0118,-0.093 -0.0153,-0.13972 -0.003,2.9e-4 -0.005,6.1e-4 -0.008,9e-4 z" style="color: rgb(0, 0, 0); fill: rgb(255, 255, 255); fill-opacity: 1; fill-rule: nonzero; stroke: none; stroke-width: 0; marker: none; visibility: visible; display: inline; overflow: visible;"/>
    </g>
    <g id="g22111" transform="translate(-369.06699,-80.244084)" gds_color="center">
      <path style="color: rgb(0, 0, 0); fill: rgb(255, 229, 0); fill-opacity: 1; fill-rule: nonzero; stroke: none; stroke-width: 0; marker: none; visibility: visible; display: inline; overflow: visible;" d="m 458.68295,185.50779 c 0.0456,1.13746 -1.07011,2.10572 -2.49193,2.16267 -1.42182,0.057 -2.61137,-0.81898 -2.65693,-1.95643 -0.0456,-1.13746 1.05944,-2.37242 2.48126,-2.42937 1.42182,-0.057 2.62204,1.08568 2.6676,2.22313 z" id="path21747" inkscape:connector-curvature="0" sodipodi:nodetypes="sssss"/>
      <path inkscape:connector-curvature="0" style="color: rgb(0, 0, 0); fill: rgb(255, 156, 0); fill-opacity: 1; fill-rule: nonzero; stroke: none; stroke-width: 0; marker: none; visibility: visible; display: inline; overflow: visible;" d="m 453.83901,184.60036 c -0.20701,0.35176 -0.31872,0.7384 -0.30363,1.1151 0.0456,1.13746 1.23483,2.0113 2.65665,1.95435 1.42181,-0.057 2.53739,-1.02311 2.49183,-2.16057 -0.0111,-0.27615 -0.0922,-0.55379 -0.22608,-0.81331 -0.007,0.60611 -0.21145,1.54259 -1.37251,1.7239 -1.72802,0.26985 -3.19225,-0.39841 -3.24626,-1.81947 z" id="path21749"/>
      <path inkscape:connector-curvature="0" style="color: rgb(0, 0, 0); fill: rgb(255, 255, 59); fill-opacity: 1; fill-rule: nonzero; stroke: none; stroke-width: 0; marker: none; visibility: visible; display: inline; overflow: visible;" d="m 456.01637,183.28443 c -1.42182,0.057 -2.52655,1.29358 -2.48099,2.43103 0.003,0.0645 0.007,0.12529 0.0172,0.18798 0.0891,-1.07312 1.14709,-2.15992 2.48004,-2.21331 1.33296,-0.0534 2.46968,0.9455 2.64429,2.00805 0.005,-0.0633 0.01,-0.12443 0.007,-0.18894 -0.0456,-1.13745 -1.24567,-2.28176 -2.66748,-2.22481 z" id="path21751"/>
      <path style="opacity: 0.459027; color: rgb(0, 0, 0); fill: rgb(255, 255, 59); fill-opacity: 1; fill-rule: nonzero; stroke: none; stroke-width: 0; marker: none; visibility: visible; display: inline; overflow: visible;" d="m 455.06901,183.66048 c -1.92758,1.10419 -1.1745,2.47072 0.4529,2.0769 1.62739,-0.39382 1.90129,-1.7604 0.86281,-2.04744 -1.03848,-0.28704 -1.31571,-0.0295 -1.31571,-0.0295 z" id="path21753" inkscape:connector-curvature="0" sodipodi:nodetypes="cssc"/>
    </g>
  </g>
</svg>