<?xml version="1.0" encoding="UTF-8" standalone="no"?><!-- Created with Inkscape (http://www.inkscape.org/) --><svg xmlns:dc="http://purl.org/dc/elements/1.1/" xmlns:cc="http://creativecommons.org/ns#" xmlns:rdf="http://www.w3.org/1999/02/22-rdf-syntax-ns#" xmlns:svg="http://www.w3.org/2000/svg" xmlns="http://www.w3.org/2000/svg" xmlns:sodipodi="http://sodipodi.sourceforge.net/DTD/sodipodi-0.dtd" xmlns:inkscape="http://www.inkscape.org/namespaces/inkscape" width="119.78125" height="138.81923" viewBox="0 0 31.692121 36.729251" version="1.1" id="svg23489" inkscape:version="0.48.5 r10040" sodipodi:docname="large_amanita.svg">
  <defs id="defs23483">
    <clipPath clipPathUnits="userSpaceOnUse" id="clipPath22932">
      <path style="opacity: 0.39823; color: rgb(0, 0, 0); fill: rgb(81, 177, 255); fill-opacity: 1; fill-rule: nonzero; stroke: none; stroke-width: 0; marker: none; visibility: visible; display: inline; overflow: visible;" d="m 544.30169,181.88988 c 0.28587,0.59217 2.59866,1.15837 3.74216,0.1578 0.98015,2.77708 16.86469,0 16.86469,0 l 0,-16.17162 -30.55281,0 0,15.42079 c 0,0 6.65838,3.49263 9.94596,0.59303 z" id="path22934" inkscape:connector-curvature="0" sodipodi:nodetypes="ccccccc"/>
    </clipPath>
    <clipPath clipPathUnits="userSpaceOnUse" id="clipPath22874">
      <path style="opacity: 0.39823; color: rgb(0, 0, 0); fill: rgb(81, 177, 255); fill-opacity: 1; fill-rule: nonzero; stroke: none; stroke-width: 0; marker: none; visibility: visible; display: inline; overflow: visible;" d="m 507.96393,172.04108 c 5.63585,4.14521 4.40861,7.03756 4.24526,7.42553 -0.16336,0.38797 -0.45419,0.84609 -0.55527,0.75946 0,0 -0.23077,1.39392 -0.96715,1.52387 0,0 0.7281,2.05291 -3.23333,2.91054 -3.96143,0.85763 -12.08849,-2.45037 -11.76178,-7.80034 0.32672,-5.34998 9.00511,-7.35111 12.27227,-4.81906 z" id="path22876" inkscape:connector-curvature="0" sodipodi:nodetypes="csccssc"/>
    </clipPath>
    <clipPath clipPathUnits="userSpaceOnUse" id="clipPath22894">
      <path style="opacity: 0.39823; color: rgb(0, 0, 0); fill: rgb(81, 177, 255); fill-opacity: 1; fill-rule: nonzero; stroke: none; stroke-width: 0; marker: none; visibility: visible; display: inline; overflow: visible;" d="m 519.13353,181.84256 c 1.53,1.07862 2.21773,-0.85703 2.00114,-1.06183 0.0817,0.0408 1.9603,0.65343 4.32899,-2.85877 2.36869,-3.51219 0,-9.96483 -8.00455,-11.96597 -8.00454,-2.00113 -11.2717,3.47136 -11.47589,10.16904 -0.2042,6.69767 5.75836,9.27056 9.76064,9.7198 4.00227,0.44923 3.38967,-4.00227 3.38967,-4.00227 z" id="path22896" inkscape:connector-curvature="0" sodipodi:nodetypes="ccssssc"/>
    </clipPath>
    <clipPath clipPathUnits="userSpaceOnUse" id="clipPath23263">
      <path style="opacity: 0.39823; color: rgb(0, 0, 0); fill: rgb(81, 177, 255); fill-opacity: 1; fill-rule: nonzero; stroke: none; stroke-width: 0; marker: none; visibility: visible; display: inline; overflow: visible;" d="m 507.96393,172.04108 c 5.63585,4.14521 4.40861,7.03756 4.24526,7.42553 -0.16336,0.38797 -0.45419,0.84609 -0.55527,0.75946 0,0 -0.23077,1.39392 -0.96715,1.52387 0,0 0.7281,2.05291 -3.23333,2.91054 -3.96143,0.85763 -12.08849,-2.45037 -11.76178,-7.80034 0.32672,-5.34998 9.00511,-7.35111 12.27227,-4.81906 z" id="path23265" inkscape:connector-curvature="0" sodipodi:nodetypes="csccssc"/>
    </clipPath>
    <clipPath clipPathUnits="userSpaceOnUse" id="clipPath22907">
      <path style="opacity: 0.39823; color: rgb(0, 0, 0); fill: rgb(81, 177, 255); fill-opacity: 1; fill-rule: nonzero; stroke: none; stroke-width: 0; marker: none; visibility: visible; display: inline; overflow: visible;" d="m 525.58617,181.98549 c 0.89522,0.98185 2.40724,0.64233 3.04255,0.12252 0.16124,0.72559 12.13955,0.23486 11.90471,0 -0.23482,-0.23483 4.09811,-23.83249 0,-26.19853 -4.09811,-2.36605 -15.11061,0 -21.31822,0 -6.2076,0 -9.48879,8.76153 -8.08444,14.00265 1.40436,5.24112 4.81751,7.15803 7.00687,9.97898 2.18936,2.82095 7.44853,2.09438 7.44853,2.09438 z" id="path22909" inkscape:connector-curvature="0" sodipodi:nodetypes="ccsssssc"/>
    </clipPath>
    <clipPath clipPathUnits="userSpaceOnUse" id="clipPath23269">
      <path style="opacity: 0.39823; color: rgb(0, 0, 0); fill: rgb(81, 177, 255); fill-opacity: 1; fill-rule: nonzero; stroke: none; stroke-width: 0; marker: none; visibility: visible; display: inline; overflow: visible;" d="m 525.58617,181.98549 c 0.89522,0.98185 2.40724,0.64233 3.04255,0.12252 0.16124,0.72559 12.13955,0.23486 11.90471,0 -0.23482,-0.23483 4.09811,-23.83249 0,-26.19853 -4.09811,-2.36605 -15.11061,0 -21.31822,0 -6.2076,0 -9.48879,8.76153 -8.08444,14.00265 1.40436,5.24112 4.81751,7.15803 7.00687,9.97898 2.18936,2.82095 7.44853,2.09438 7.44853,2.09438 z" id="path23271" inkscape:connector-curvature="0" sodipodi:nodetypes="ccsssssc"/>
    </clipPath>
    <clipPath clipPathUnits="userSpaceOnUse" id="clipPath23273">
      <path style="opacity: 0.39823; color: rgb(0, 0, 0); fill: rgb(81, 177, 255); fill-opacity: 1; fill-rule: nonzero; stroke: none; stroke-width: 0; marker: none; visibility: visible; display: inline; overflow: visible;" d="m 507.96393,172.04108 c 5.63585,4.14521 4.40861,7.03756 4.24526,7.42553 -0.16336,0.38797 -0.45419,0.84609 -0.55527,0.75946 0,0 -0.23077,1.39392 -0.96715,1.52387 0,0 0.7281,2.05291 -3.23333,2.91054 -3.96143,0.85763 -12.08849,-2.45037 -11.76178,-7.80034 0.32672,-5.34998 9.00511,-7.35111 12.27227,-4.81906 z" id="path23275" inkscape:connector-curvature="0" sodipodi:nodetypes="csccssc"/>
    </clipPath>
    <clipPath clipPathUnits="userSpaceOnUse" id="clipPath23277">
      <path style="opacity: 0.39823; color: rgb(0, 0, 0); fill: rgb(81, 177, 255); fill-opacity: 1; fill-rule: nonzero; stroke: none; stroke-width: 0; marker: none; visibility: visible; display: inline; overflow: visible;" d="m 519.13353,181.84256 c 1.53,1.07862 2.21773,-0.85703 2.00114,-1.06183 0.0817,0.0408 1.9603,0.65343 4.32899,-2.85877 2.36869,-3.51219 0,-9.96483 -8.00455,-11.96597 -8.00454,-2.00113 -11.2717,3.47136 -11.47589,10.16904 -0.2042,6.69767 5.75836,9.27056 9.76064,9.7198 4.00227,0.44923 3.38967,-4.00227 3.38967,-4.00227 z" id="path23279" inkscape:connector-curvature="0" sodipodi:nodetypes="ccssssc"/>
    </clipPath>
    <clipPath clipPathUnits="userSpaceOnUse" id="clipPath23281">
      <path style="opacity: 0.39823; color: rgb(0, 0, 0); fill: rgb(81, 177, 255); fill-opacity: 1; fill-rule: nonzero; stroke: none; stroke-width: 0; marker: none; visibility: visible; display: inline; overflow: visible;" d="m 525.58617,181.98549 c 0.89522,0.98185 2.40724,0.64233 3.04255,0.12252 0.16124,0.72559 12.13955,0.23486 11.90471,0 -0.23482,-0.23483 4.09811,-23.83249 0,-26.19853 -4.09811,-2.36605 -15.11061,0 -21.31822,0 -6.2076,0 -9.48879,8.76153 -8.08444,14.00265 1.40436,5.24112 4.81751,7.15803 7.00687,9.97898 2.18936,2.82095 7.44853,2.09438 7.44853,2.09438 z" id="path23283" inkscape:connector-curvature="0" sodipodi:nodetypes="ccsssssc"/>
    </clipPath>
    <clipPath clipPathUnits="userSpaceOnUse" id="clipPath23285">
      <path style="opacity: 0.39823; color: rgb(0, 0, 0); fill: rgb(81, 177, 255); fill-opacity: 1; fill-rule: nonzero; stroke: none; stroke-width: 0; marker: none; visibility: visible; display: inline; overflow: visible;" d="m 544.30169,181.88988 c 0.28587,0.59217 2.59866,1.15837 3.74216,0.1578 0.98015,2.77708 16.86469,0 16.86469,0 l 0,-16.17162 -30.55281,0 0,15.42079 c 0,0 6.65838,3.49263 9.94596,0.59303 z" id="path23287" inkscape:connector-curvature="0" sodipodi:nodetypes="ccccccc"/>
    </clipPath>
    <clipPath clipPathUnits="userSpaceOnUse" id="clipPath23289">
      <path style="opacity: 0.39823; color: rgb(0, 0, 0); fill: rgb(81, 177, 255); fill-opacity: 1; fill-rule: nonzero; stroke: none; stroke-width: 0; marker: none; visibility: visible; display: inline; overflow: visible;" d="m 507.96393,172.04108 c 5.63585,4.14521 4.40861,7.03756 4.24526,7.42553 -0.16336,0.38797 -0.45419,0.84609 -0.55527,0.75946 0,0 -0.23077,1.39392 -0.96715,1.52387 0,0 0.7281,2.05291 -3.23333,2.91054 -3.96143,0.85763 -12.08849,-2.45037 -11.76178,-7.80034 0.32672,-5.34998 9.00511,-7.35111 12.27227,-4.81906 z" id="path23291" inkscape:connector-curvature="0" sodipodi:nodetypes="csccssc"/>
    </clipPath>
    <clipPath clipPathUnits="userSpaceOnUse" id="clipPath22919">
      <path style="opacity: 0.39823; color: rgb(0, 0, 0); fill: rgb(81, 177, 255); fill-opacity: 1; fill-rule: nonzero; stroke: none; stroke-width: 0; marker: none; visibility: visible; display: inline; overflow: visible;" d="m 533.24358,180.67863 c -0.16336,1.16393 0.51049,2.00114 2.00114,1.20477 -1.74256,1.5022 -0.71572,1.26164 1.42124,3.05207 2.13697,1.79043 11.4934,0.98185 12.12872,0.5198 0.63531,-0.46205 8.02805,-6.41089 8.0858,-8.66336 0.0578,-2.25248 -1.90593,-15.01651 -5.19801,-17.78878 -3.29208,-2.77228 -16.4604,-0.57756 -19.75248,-0.0578 -3.29208,0.5198 -10.16501,5.71782 -9.93399,5.77558 0.23102,0.0577 2.83003,15.42079 2.77228,15.65181 -0.0578,0.23102 2.42574,4.15842 2.83003,3.92739 0.40429,-0.23102 3.95121,-3.17246 3.95121,-3.17246 0,0 1.59196,0.89865 1.69406,-0.44906 z" id="path22921" inkscape:connector-curvature="0" sodipodi:nodetypes="ccsssssssscc"/>
    </clipPath>
    <clipPath clipPathUnits="userSpaceOnUse" id="clipPath23295">
      <path style="opacity: 0.39823; color: rgb(0, 0, 0); fill: rgb(81, 177, 255); fill-opacity: 1; fill-rule: nonzero; stroke: none; stroke-width: 0; marker: none; visibility: visible; display: inline; overflow: visible;" d="m 525.58617,181.98549 c 0.89522,0.98185 2.40724,0.64233 3.04255,0.12252 0.16124,0.72559 12.13955,0.23486 11.90471,0 -0.23482,-0.23483 4.09811,-23.83249 0,-26.19853 -4.09811,-2.36605 -15.11061,0 -21.31822,0 -6.2076,0 -9.48879,8.76153 -8.08444,14.00265 1.40436,5.24112 4.81751,7.15803 7.00687,9.97898 2.18936,2.82095 7.44853,2.09438 7.44853,2.09438 z" id="path23297" inkscape:connector-curvature="0" sodipodi:nodetypes="ccsssssc"/>
    </clipPath>
    <clipPath clipPathUnits="userSpaceOnUse" id="clipPath23299">
      <path style="opacity: 0.39823; color: rgb(0, 0, 0); fill: rgb(81, 177, 255); fill-opacity: 1; fill-rule: nonzero; stroke: none; stroke-width: 0; marker: none; visibility: visible; display: inline; overflow: visible;" d="m 525.58617,181.98549 c 0.89522,0.98185 2.40724,0.64233 3.04255,0.12252 0.16124,0.72559 12.13955,0.23486 11.90471,0 -0.23482,-0.23483 4.09811,-23.83249 0,-26.19853 -4.09811,-2.36605 -15.11061,0 -21.31822,0 -6.2076,0 -9.48879,8.76153 -8.08444,14.00265 1.40436,5.24112 4.81751,7.15803 7.00687,9.97898 2.18936,2.82095 7.44853,2.09438 7.44853,2.09438 z" id="path23301" inkscape:connector-curvature="0" sodipodi:nodetypes="ccsssssc"/>
    </clipPath>
  </defs>
  <sodipodi:namedview id="base" pagecolor="#7d848b" bordercolor="#666666" borderopacity="1.0" inkscape:pageopacity="0" inkscape:pageshadow="2" inkscape:zoom="1.6196536" inkscape:cx="-104.0858" inkscape:cy="48.999347" inkscape:document-units="px" inkscape:current-layer="layer1" showgrid="false" inkscape:pagecheckerboard="false" showborder="true" units="px" inkscape:window-width="1920" inkscape:window-height="1017" inkscape:window-x="-8" inkscape:window-y="-8" inkscape:window-maximized="1" inkscape:showpageshadow="false" guidetolerance="28" fit-margin-top="8" fit-margin-left="8" fit-margin-right="8" fit-margin-bottom="8">
    <inkscape:grid type="xygrid" id="grid24034" spacingx="1px" spacingy="1px" empspacing="8" visible="true" enabled="true" snapvisiblegridlinesonly="true" originx="-379.74602px" originy="242.62724px"/>
  </sodipodi:namedview>
  <metadata id="metadata23486">
    <rdf:RDF>
      <cc:Work rdf:about="">
        <dc:format>image/svg+xml</dc:format>
        <dc:type rdf:resource="http://purl.org/dc/dcmitype/StillImage"/>
        <dc:title/>
        <cc:license rdf:resource=""/>
        <dc:creator>
          <cc:Agent>
            <dc:title>Robert Brooks</dc:title>
          </cc:Agent>
        </dc:creator>
      </cc:Work>
    </rdf:RDF>
  </metadata>
  <g inkscape:label="Layer 1" inkscape:groupmode="layer" id="layer1" transform="translate(-100.47447,-324.46584)">
    <path gds_switchable="shadow" gds_opacity="shadow" gds_color="shadow" sodipodi:type="arc" style="opacity: 0.420354; color: rgb(0, 0, 0); fill: rgb(0, 0, 0); fill-opacity: 1; fill-rule: nonzero; stroke: none; stroke-width: 0; marker: none; visibility: visible; display: inline; overflow: visible;" id="path18282" sodipodi:cx="348.30154" sodipodi:cy="-734.53204" sodipodi:rx="46.160446" sodipodi:ry="23.499863" d="m 394.46199,-734.53204 c 0,12.97861 -20.66674,23.49986 -46.16045,23.49986 -25.49371,0 -46.16044,-10.52125 -46.16044,-23.49986 0,-12.97862 20.66673,-23.49987 46.16044,-23.49987 25.49371,0 46.16045,10.52125 46.16045,23.49987 z" transform="matrix(0.24332903,0,0,0.26565333,32.268498,547.96649)"/>
    <g id="g18362" gds_color="stalk">
      <path sodipodi:nodetypes="ccccccccssccccccccc" inkscape:connector-curvature="0" id="path18176" d="m 119.06504,340.90894 -1.94304,0.68626 -2.26549,0.80202 c 0.13608,0.65319 0.2251,1.32742 0.29766,2.00091 -0.47035,3.06253 -2.05053,4.35736 -2.05053,4.35736 0,0 0.0475,0.29255 0.27286,0.66973 -0.1673,0.18314 -0.27286,0.27285 -0.27286,0.27285 0,0 0.26221,1.42508 2.1084,2.08359 -0.015,2.44677 1.49417,-1.10674 1.50914,-2.17885 0.0148,-1.05738 -0.67815,0.49102 0.20003,0.31538 0.27655,-0.0553 0.82529,1.45537 1.00282,1.21463 -0.0141,-0.12087 0.89843,2.22549 1.82727,1.91388 0.19759,-0.41714 0.28112,-0.81028 0.28112,-0.81028 l -0.0744,-0.89297 c 1.17184,-0.80578 1.51308,-1.95957 1.51308,-1.95957 0,0 -0.12282,-0.0945 -0.31419,-0.26459 0.23176,-0.38851 0.31419,-0.67799 0.31419,-0.67799 0,0 -1.27595,-1.01473 -1.94303,-2.17455 z" style="color: rgb(0, 0, 0); fill: rgb(217, 236, 252); fill-opacity: 1; fill-rule: nonzero; stroke: rgb(0, 24, 43); stroke-width: 3.175; stroke-linejoin: round; stroke-opacity: 1; marker: none; visibility: visible; display: inline; overflow: visible;"/>
      <path sodipodi:nodetypes="cssccc" inkscape:connector-curvature="0" id="path18165" d="m 114.85325,342.39978 c 0.87819,4.2153 0.26346,9.22096 0.35128,10.27479 0.0878,1.05382 2.72238,1.49292 3.60057,1.31728 0.87818,-0.17564 1.22946,-1.75637 1.22946,-1.75637 l -0.96601,-11.32862 z" style="color: rgb(0, 0, 0); fill: rgb(217, 236, 252); fill-opacity: 1; fill-rule: nonzero; stroke: none; stroke-width: 0; marker: none; visibility: visible; display: inline; overflow: visible;"/>
      <path id="path18171" d="m 119.06504,340.90894 -1.94304,0.68626 c 0.41258,4.78993 0.93005,9.25992 1.33119,12.43542 0.13437,-0.004 0.25835,-0.0219 0.35553,-0.0413 0.87819,-0.17564 1.2237,-1.75286 1.2237,-1.75286 l -0.96738,-11.32748 z" style="color: rgb(0, 0, 0); fill: rgb(142, 179, 209); fill-opacity: 1; fill-rule: nonzero; stroke: none; stroke-width: 0; marker: none; visibility: visible; display: inline; overflow: visible;" inkscape:connector-curvature="0"/>
      <path style="color: rgb(0, 0, 0); fill: rgb(140, 177, 208); fill-opacity: 1; fill-rule: nonzero; stroke: none; stroke-width: 0; marker: none; visibility: visible; display: inline; overflow: visible;" d="m 115.1933,345.09406 c -0.41872,3.24507 -2.0936,4.60591 -2.0936,4.60591 0,0 0.41872,2.30296 3.97784,2.40764 3.55912,0.10468 4.39656,-2.72168 4.39656,-2.72168 0,0 -1.98892,-1.57019 -2.30296,-3.03571 -0.31404,-1.46553 -2.0936,-2.40764 -2.82636,-1.98892 -0.73276,0.41871 -1.15148,0.73276 -1.15148,0.73276 z" id="path18169" inkscape:connector-curvature="0"/>
      <path inkscape:connector-curvature="0" id="path18167" d="m 115.19329,344.15194 c -0.41872,3.24507 -2.0936,4.60591 -2.0936,4.60591 0,0 0.41872,2.30296 3.97784,2.40764 3.55911,0.10468 4.39655,-2.72168 4.39655,-2.72168 0,0 -1.98892,-1.57019 -2.30295,-3.03571 -0.31404,-1.46553 -2.0936,-2.40764 -2.82636,-1.98892 -0.73276,0.41872 -1.15148,0.73276 -1.15148,0.73276 z" style="color: rgb(0, 0, 0); fill: rgb(217, 236, 252); fill-opacity: 1; fill-rule: nonzero; stroke: none; stroke-width: 0; marker: none; visibility: visible; display: inline; overflow: visible;"/>
    </g>
    <g id="g18284" gds_color="cap" transform="translate(0,-0.6534317)">
      <g transform="translate(-299.02115,447.20343)" id="g18156">
        <path style="color: rgb(0, 0, 0); fill: rgb(217, 236, 252); fill-opacity: 1; fill-rule: nonzero; stroke: rgb(0, 24, 43); stroke-width: 12; stroke-linecap: round; stroke-linejoin: round; stroke-miterlimit: 4; stroke-opacity: 1; stroke-dasharray: none; stroke-dashoffset: 37.6; marker: none; visibility: visible; display: inline; overflow: visible;" d="m 197.34375,44.25 c -32.52129,0 -45.5,16.303657 -45.5,36.40625 0,0.560379 0.0232,1.123581 0.0625,1.6875 0.004,0.06205 -0.004,0.12553 0,0.1875 0.0258,0.334171 0.0545,0.665184 0.0937,1 0.0469,0.452406 0.11895,0.896141 0.1875,1.34375 2.77359,18.11069 23.03347,32.15625 45.15625,32.15625 23.81719,0 46.28125,-16.27241 46.28125,-36.375 C 243.625,60.553657 227.49119,44.25 197.34375,44.25 z" transform="matrix(0.26458332,0,0,0.26458332,363.02446,-130.74124)" id="path18114" inkscape:connector-curvature="0"/>
        <path sodipodi:nodetypes="sssss" inkscape:connector-curvature="0" id="path18117" d="m 405.92742,-769.08789 c 0,20.10259 -22.47278,36.39895 -46.28997,36.39895 -23.81719,0 -45.49868,-16.29636 -45.49868,-36.39895 0,-20.10259 12.97739,-36.39895 45.49868,-36.39895 30.14744,0 46.28997,16.29636 46.28997,36.39895 z" style="color: rgb(0, 0, 0); fill: rgb(0, 117, 212); fill-opacity: 1; fill-rule: nonzero; stroke: none; stroke-width: 0; marker: none; visibility: visible; display: inline; overflow: visible;" transform="matrix(0.26458336,0,0,0.26458336,320.08182,94.083721)"/>
        <path inkscape:connector-curvature="0" style="color: rgb(0, 0, 0); fill: rgb(0, 92, 167); fill-opacity: 1; fill-rule: nonzero; stroke: none; stroke-width: 0; marker: none; visibility: visible; display: inline; overflow: visible;" d="m 318.96875,-787.875 c -3.2987,5.48521 -4.84375,11.90591 -4.84375,18.78125 0,20.10259 21.68281,36.40625 45.5,36.40625 23.81719,0 46.3125,-16.30366 46.3125,-36.40625 0,-5.80484 -1.35945,-11.28689 -4,-16.15625 1.29048,12.20566 -2.09066,27.15382 -24.5,31.1875 -36.89558,6.6412 -60.00819,-8.0566 -58.46875,-33.8125 z" transform="matrix(0.26458336,0,0,0.26458336,320.08182,94.083721)" id="path18119"/>
        <path inkscape:connector-curvature="0" style="color: rgb(0, 0, 0); fill: rgb(0, 140, 255); fill-opacity: 1; fill-rule: nonzero; stroke: none; stroke-width: 0; marker: none; visibility: visible; display: inline; overflow: visible;" d="m 359.625,-805.5 c -17.93372,0 -29.91393,4.96453 -37.0625,12.78125 -0.003,0.009 0.003,0.0224 0,0.0312 -5.51538,14.48699 8.12953,30.50859 33.5,26.75 34.75999,-5.14963 37.57101,-22.83029 31.875,-33.09375 -7.31173,-4.06448 -16.78895,-6.46875 -28.3125,-6.46875 z" transform="matrix(0.26458336,0,0,0.26458336,320.08182,94.083721)" id="path18124"/>
        <path inkscape:connector-curvature="0" style="color: rgb(0, 0, 0); fill: rgb(0, 140, 255); fill-opacity: 1; fill-rule: nonzero; stroke: none; stroke-width: 0; marker: none; visibility: visible; display: inline; overflow: visible;" d="m 359.625,-805.5 c -32.52129,0 -45.5,16.30366 -45.5,36.40625 0,0.9265 0.0661,1.84089 0.15625,2.75 1.49518,-18.41393 14.78632,-32.8125 45.34375,-32.8125 28.35863,0 44.33007,14.43149 46.125,32.875 0.0978,-0.92994 0.1875,-1.86432 0.1875,-2.8125 0,-20.10259 -16.16506,-36.40625 -46.3125,-36.40625 z" transform="matrix(0.26458336,0,0,0.26458336,320.08182,94.083721)" id="path18129"/>
      </g>
    </g>
    <g id="g18343" gds_color="spots" gds_switchable="spots" transform="translate(0,-0.6534317)">
      <path id="path18134" d="m 116.21146,328.16531 c -0.70997,0 -1.37691,0.0341 -2.01745,0.0909 -0.39947,0.54786 -0.62838,1.19443 -0.62838,1.90169 0,2.25471 2.30782,4.26666 5.15937,4.49792 2.85155,0.23125 5.16764,-1.40811 5.16764,-3.66283 0,-0.38464 -0.0725,-0.7616 -0.19843,-1.12448 -1.93322,-1.07206 -4.43898,-1.70325 -7.48275,-1.70325 z m -7.44968,1.57096 c -2.49725,1.34016 -3.88168,3.43862 -4.37389,5.89525 0.62007,0.65716 1.5255,1.11702 2.60449,1.23197 2.30185,0.24521 4.49898,-1.16372 4.91133,-3.14193 0.39519,-1.89591 -0.99907,-3.62832 -3.14193,-3.98529 z m 18.95905,4.79558 c -0.13167,0.007 -0.27376,0.0283 -0.41341,0.0661 -1.11715,0.30296 -2.01745,1.50561 -2.01745,2.68718 0,1.18156 0.9003,1.89046 2.01745,1.5875 0.42251,-0.11459 0.81605,-0.35585 1.14102,-0.678 0.007,-0.1317 0.0165,-0.26387 0.0165,-0.39687 0,-1.14795 -0.20309,-2.24505 -0.59531,-3.26595 -0.048,-0.001 -0.0995,-0.003 -0.14883,0 z m -11.6582,3.5636 c -0.80085,0.0536 -1.49862,0.5775 -1.64538,1.28158 -0.16772,0.80466 0.45276,1.54563 1.38907,1.64537 0.9363,0.0998 1.83318,-0.47691 2.00091,-1.28157 0.16772,-0.80466 -0.46103,-1.53736 -1.39733,-1.63711 -0.11704,-0.0125 -0.23286,-0.0159 -0.34727,-0.008 z m 7.5985,2.0836 c -0.17256,0.007 -0.35443,0.0283 -0.53743,0.0661 -1.46403,0.30297 -2.6541,1.50561 -2.6541,2.68718 0,1.18156 1.19007,1.89873 2.6541,1.59576 1.46403,-0.30296 2.6541,-1.50561 2.6541,-2.68717 0,-1.03387 -0.90871,-1.71239 -2.11667,-1.66191 z m -15.51946,0.2067 c -0.12515,-0.002 -0.25082,0.003 -0.37207,0.008 -1.09228,0.0472 -2.0305,0.40969 -2.67891,1.00045 1.56983,2.98525 4.99231,5.22447 8.90488,5.85391 0.29851,-0.45592 0.47129,-0.99048 0.47129,-1.59577 0,-2.25471 -2.30783,-4.55644 -5.15937,-5.13457 -0.401,-0.0813 -0.7904,-0.12576 -1.16582,-0.13229 z" style="color: rgb(0, 0, 0); fill: rgb(170, 217, 255); fill-opacity: 1; fill-rule: nonzero; stroke: none; stroke-width: 0; marker: none; visibility: visible; display: inline; overflow: visible;" inkscape:connector-curvature="0"/>
      <path id="path18150" d="m 105.45449,332.82859 c -0.008,0.0138 -0.0166,0.0275 -0.0248,0.0413 -0.0816,0.13782 -0.15826,0.27952 -0.23151,0.42168 -0.0204,0.0394 -0.0464,0.076 -0.0661,0.11576 -0.0835,0.16861 -0.15937,0.33842 -0.23151,0.51263 -0.0239,0.0573 -0.0435,0.11578 -0.0661,0.17363 -0.0528,0.13578 -0.10259,0.27457 -0.14883,0.41341 -0.008,0.0248 -0.0167,0.0495 -0.0248,0.0744 -0.0633,0.19444 -0.12294,0.39537 -0.17363,0.59532 -0.0378,0.15064 -0.0685,0.30121 -0.0992,0.45475 0.42007,0.44519 0.97335,0.79879 1.62057,1.01699 -0.44578,-1.1328 -0.63798,-2.41427 -0.55397,-3.81992 z m 22.26634,1.70326 c -0.0815,0.004 -0.16984,0.0173 -0.25631,0.0331 0.0171,1.46136 -0.28122,2.98336 -1.20716,4.27467 0.30604,0.1147 0.66405,0.13776 1.05006,0.0331 0.42251,-0.11459 0.81605,-0.35585 1.14102,-0.678 0.007,-0.1317 0.0165,-0.26387 0.0165,-0.39687 0,-0.14465 -0.002,-0.28689 -0.008,-0.42995 -0.002,-0.0472 -0.006,-0.0935 -0.008,-0.14056 -0.006,-0.0946 -0.0164,-0.1873 -0.0248,-0.28112 -0.008,-0.0952 -0.0134,-0.18679 -0.0248,-0.28112 -0.005,-0.0443 -0.0106,-0.0882 -0.0165,-0.13229 -0.0192,-0.14099 -0.0406,-0.28271 -0.0661,-0.42168 -0.0242,-0.13272 -0.0526,-0.2661 -0.0827,-0.39688 -0.002,-0.008 -0.006,-0.0165 -0.008,-0.0248 -0.0295,-0.12583 -0.0644,-0.25639 -0.0992,-0.38034 -0.0371,-0.13218 -0.0727,-0.25866 -0.11576,-0.3886 -0.0431,-0.12995 -0.0915,-0.261 -0.14056,-0.38861 -0.048,-0.001 -0.0995,-0.003 -0.14883,0 z m -3.00963,5.81256 c -0.94293,0.64151 -2.17998,1.14117 -3.78685,1.4304 -0.0309,0.006 -0.0602,0.0111 -0.091,0.0165 -0.22703,0.36196 -0.3638,0.7504 -0.3638,1.14102 0,1.18156 1.19007,1.89873 2.6541,1.59576 1.46403,-0.30296 2.6541,-1.50561 2.6541,-2.68717 0,-0.70187 -0.41968,-1.23913 -1.0666,-1.49655 z m -16.56953,0.0413 c -0.12515,-0.002 -0.25082,0.003 -0.37207,0.008 -1.09228,0.0472 -2.0305,0.40969 -2.67891,1.00045 0.0879,0.16705 0.18191,0.33387 0.28112,0.4961 0.0168,0.0274 0.0325,0.0554 0.0496,0.0827 0.10126,0.1614 0.21039,0.31504 0.32246,0.47129 0.0391,0.0545 0.0754,0.11149 0.11576,0.16536 0.062,0.0828 0.12519,0.16687 0.19017,0.24805 0.0657,0.0821 0.13804,0.15931 0.2067,0.23978 0.0231,0.027 0.0427,0.0558 0.0661,0.0827 0.0882,0.10125 0.18007,0.1992 0.27285,0.29766 0.14282,0.15153 0.28509,0.30185 0.43822,0.44648 0.01,0.009 0.0231,0.0154 0.0331,0.0248 0.12914,0.12107 0.26085,0.23959 0.39687,0.35554 0.0641,0.0546 0.12465,0.11191 0.19017,0.16536 0.14451,0.11787 0.29508,0.22701 0.44649,0.339 0.0523,0.0387 0.10401,0.0778 0.15709,0.11575 0.13319,0.0953 0.26713,0.19052 0.40515,0.28112 0.0116,0.008 0.0214,0.0172 0.0331,0.0248 0.18176,0.11849 0.37269,0.22886 0.56224,0.339 0.17692,0.1028 0.35419,0.20243 0.53743,0.29766 0.0762,0.0396 0.15428,0.0775 0.23151,0.11575 0.0846,0.0419 0.17055,0.0837 0.25632,0.12403 0.10109,0.0474 0.20322,0.0954 0.30592,0.14056 0.18338,0.0806 0.3658,0.15844 0.55397,0.23151 0.0105,0.004 0.0225,0.004 0.0331,0.008 0.2239,0.0863 0.44794,0.16461 0.678,0.23978 0.21939,0.0717 0.44532,0.14549 0.66972,0.20671 0.0109,0.003 0.0222,0.005 0.0331,0.008 0.005,0.001 0.0115,-10e-4 0.0165,0 0.43157,0.11609 0.86788,0.21398 1.31465,0.28939 0.0358,0.006 0.0716,0.0108 0.10749,0.0165 0.29851,-0.45591 0.47129,-0.99047 0.47129,-1.59576 0,-1.51726 -1.04367,-3.05595 -2.59623,-4.07624 -0.89713,-0.26459 -1.71537,-0.60171 -2.43912,-1.02526 -0.0417,-0.009 -0.0821,-0.0246 -0.12403,-0.0331 -0.401,-0.0813 -0.79039,-0.12577 -1.16582,-0.13229 z" style="opacity: 0.079646; color: rgb(0, 0, 0); fill: rgb(0, 92, 167); fill-opacity: 1; fill-rule: nonzero; stroke: none; stroke-width: 0; marker: none; visibility: visible; display: inline; overflow: visible;" inkscape:connector-curvature="0"/>
    </g>
  </g>
</svg>