<?xml version="1.0" encoding="UTF-8" standalone="no"?><!-- Created with Inkscape (http://www.inkscape.org/) --><svg xmlns:dc="http://purl.org/dc/elements/1.1/" xmlns:cc="http://creativecommons.org/ns#" xmlns:rdf="http://www.w3.org/1999/02/22-rdf-syntax-ns#" xmlns:svg="http://www.w3.org/2000/svg" xmlns="http://www.w3.org/2000/svg" xmlns:sodipodi="http://sodipodi.sourceforge.net/DTD/sodipodi-0.dtd" xmlns:inkscape="http://www.inkscape.org/namespaces/inkscape" width="165.90578" height="174.84026" viewBox="0 0 43.895901 46.259811" version="1.1" id="svg23489" inkscape:version="0.48.5 r10040" sodipodi:docname="plant_07.svg">
  <defs id="defs23483">
    <clipPath clipPathUnits="userSpaceOnUse" id="clipPath22932">
      <path style="opacity: 0.39823; color: rgb(0, 0, 0); fill: rgb(186, 255, 81); fill-opacity: 1; fill-rule: nonzero; stroke: none; stroke-width: 0; marker: none; visibility: visible; display: inline; overflow: visible;" d="m 544.30169,181.88988 c 0.28587,0.59217 2.59866,1.15837 3.74216,0.1578 0.98015,2.77708 16.86469,0 16.86469,0 l 0,-16.17162 -30.55281,0 0,15.42079 c 0,0 6.65838,3.49263 9.94596,0.59303 z" id="path22934" inkscape:connector-curvature="0" sodipodi:nodetypes="ccccccc"/>
    </clipPath>
    <clipPath clipPathUnits="userSpaceOnUse" id="clipPath22874">
      <path style="opacity: 0.39823; color: rgb(0, 0, 0); fill: rgb(186, 255, 81); fill-opacity: 1; fill-rule: nonzero; stroke: none; stroke-width: 0; marker: none; visibility: visible; display: inline; overflow: visible;" d="m 507.96393,172.04108 c 5.63585,4.14521 4.40861,7.03756 4.24526,7.42553 -0.16336,0.38797 -0.45419,0.84609 -0.55527,0.75946 0,0 -0.23077,1.39392 -0.96715,1.52387 0,0 0.7281,2.05291 -3.23333,2.91054 -3.96143,0.85763 -12.08849,-2.45037 -11.76178,-7.80034 0.32672,-5.34998 9.00511,-7.35111 12.27227,-4.81906 z" id="path22876" inkscape:connector-curvature="0" sodipodi:nodetypes="csccssc"/>
    </clipPath>
    <clipPath clipPathUnits="userSpaceOnUse" id="clipPath22894">
      <path style="opacity: 0.39823; color: rgb(0, 0, 0); fill: rgb(186, 255, 81); fill-opacity: 1; fill-rule: nonzero; stroke: none; stroke-width: 0; marker: none; visibility: visible; display: inline; overflow: visible;" d="m 519.13353,181.84256 c 1.53,1.07862 2.21773,-0.85703 2.00114,-1.06183 0.0817,0.0408 1.9603,0.65343 4.32899,-2.85877 2.36869,-3.51219 0,-9.96483 -8.00455,-11.96597 -8.00454,-2.00113 -11.2717,3.47136 -11.47589,10.16904 -0.2042,6.69767 5.75836,9.27056 9.76064,9.7198 4.00227,0.44923 3.38967,-4.00227 3.38967,-4.00227 z" id="path22896" inkscape:connector-curvature="0" sodipodi:nodetypes="ccssssc"/>
    </clipPath>
    <clipPath clipPathUnits="userSpaceOnUse" id="clipPath23263">
      <path style="opacity: 0.39823; color: rgb(0, 0, 0); fill: rgb(186, 255, 81); fill-opacity: 1; fill-rule: nonzero; stroke: none; stroke-width: 0; marker: none; visibility: visible; display: inline; overflow: visible;" d="m 507.96393,172.04108 c 5.63585,4.14521 4.40861,7.03756 4.24526,7.42553 -0.16336,0.38797 -0.45419,0.84609 -0.55527,0.75946 0,0 -0.23077,1.39392 -0.96715,1.52387 0,0 0.7281,2.05291 -3.23333,2.91054 -3.96143,0.85763 -12.08849,-2.45037 -11.76178,-7.80034 0.32672,-5.34998 9.00511,-7.35111 12.27227,-4.81906 z" id="path23265" inkscape:connector-curvature="0" sodipodi:nodetypes="csccssc"/>
    </clipPath>
    <clipPath clipPathUnits="userSpaceOnUse" id="clipPath22907">
      <path style="opacity: 0.39823; color: rgb(0, 0, 0); fill: rgb(186, 255, 81); fill-opacity: 1; fill-rule: nonzero; stroke: none; stroke-width: 0; marker: none; visibility: visible; display: inline; overflow: visible;" d="m 525.58617,181.98549 c 0.89522,0.98185 2.40724,0.64233 3.04255,0.12252 0.16124,0.72559 12.13955,0.23486 11.90471,0 -0.23482,-0.23483 4.09811,-23.83249 0,-26.19853 -4.09811,-2.36605 -15.11061,0 -21.31822,0 -6.2076,0 -9.48879,8.76153 -8.08444,14.00265 1.40436,5.24112 4.81751,7.15803 7.00687,9.97898 2.18936,2.82095 7.44853,2.09438 7.44853,2.09438 z" id="path22909" inkscape:connector-curvature="0" sodipodi:nodetypes="ccsssssc"/>
    </clipPath>
    <clipPath clipPathUnits="userSpaceOnUse" id="clipPath23269">
      <path style="opacity: 0.39823; color: rgb(0, 0, 0); fill: rgb(186, 255, 81); fill-opacity: 1; fill-rule: nonzero; stroke: none; stroke-width: 0; marker: none; visibility: visible; display: inline; overflow: visible;" d="m 525.58617,181.98549 c 0.89522,0.98185 2.40724,0.64233 3.04255,0.12252 0.16124,0.72559 12.13955,0.23486 11.90471,0 -0.23482,-0.23483 4.09811,-23.83249 0,-26.19853 -4.09811,-2.36605 -15.11061,0 -21.31822,0 -6.2076,0 -9.48879,8.76153 -8.08444,14.00265 1.40436,5.24112 4.81751,7.15803 7.00687,9.97898 2.18936,2.82095 7.44853,2.09438 7.44853,2.09438 z" id="path23271" inkscape:connector-curvature="0" sodipodi:nodetypes="ccsssssc"/>
    </clipPath>
    <clipPath clipPathUnits="userSpaceOnUse" id="clipPath23273">
      <path style="opacity: 0.39823; color: rgb(0, 0, 0); fill: rgb(186, 255, 81); fill-opacity: 1; fill-rule: nonzero; stroke: none; stroke-width: 0; marker: none; visibility: visible; display: inline; overflow: visible;" d="m 507.96393,172.04108 c 5.63585,4.14521 4.40861,7.03756 4.24526,7.42553 -0.16336,0.38797 -0.45419,0.84609 -0.55527,0.75946 0,0 -0.23077,1.39392 -0.96715,1.52387 0,0 0.7281,2.05291 -3.23333,2.91054 -3.96143,0.85763 -12.08849,-2.45037 -11.76178,-7.80034 0.32672,-5.34998 9.00511,-7.35111 12.27227,-4.81906 z" id="path23275" inkscape:connector-curvature="0" sodipodi:nodetypes="csccssc"/>
    </clipPath>
    <clipPath clipPathUnits="userSpaceOnUse" id="clipPath23277">
      <path style="opacity: 0.39823; color: rgb(0, 0, 0); fill: rgb(186, 255, 81); fill-opacity: 1; fill-rule: nonzero; stroke: none; stroke-width: 0; marker: none; visibility: visible; display: inline; overflow: visible;" d="m 519.13353,181.84256 c 1.53,1.07862 2.21773,-0.85703 2.00114,-1.06183 0.0817,0.0408 1.9603,0.65343 4.32899,-2.85877 2.36869,-3.51219 0,-9.96483 -8.00455,-11.96597 -8.00454,-2.00113 -11.2717,3.47136 -11.47589,10.16904 -0.2042,6.69767 5.75836,9.27056 9.76064,9.7198 4.00227,0.44923 3.38967,-4.00227 3.38967,-4.00227 z" id="path23279" inkscape:connector-curvature="0" sodipodi:nodetypes="ccssssc"/>
    </clipPath>
    <clipPath clipPathUnits="userSpaceOnUse" id="clipPath23281">
      <path style="opacity: 0.39823; color: rgb(0, 0, 0); fill: rgb(186, 255, 81); fill-opacity: 1; fill-rule: nonzero; stroke: none; stroke-width: 0; marker: none; visibility: visible; display: inline; overflow: visible;" d="m 525.58617,181.98549 c 0.89522,0.98185 2.40724,0.64233 3.04255,0.12252 0.16124,0.72559 12.13955,0.23486 11.90471,0 -0.23482,-0.23483 4.09811,-23.83249 0,-26.19853 -4.09811,-2.36605 -15.11061,0 -21.31822,0 -6.2076,0 -9.48879,8.76153 -8.08444,14.00265 1.40436,5.24112 4.81751,7.15803 7.00687,9.97898 2.18936,2.82095 7.44853,2.09438 7.44853,2.09438 z" id="path23283" inkscape:connector-curvature="0" sodipodi:nodetypes="ccsssssc"/>
    </clipPath>
    <clipPath clipPathUnits="userSpaceOnUse" id="clipPath23285">
      <path style="opacity: 0.39823; color: rgb(0, 0, 0); fill: rgb(186, 255, 81); fill-opacity: 1; fill-rule: nonzero; stroke: none; stroke-width: 0; marker: none; visibility: visible; display: inline; overflow: visible;" d="m 544.30169,181.88988 c 0.28587,0.59217 2.59866,1.15837 3.74216,0.1578 0.98015,2.77708 16.86469,0 16.86469,0 l 0,-16.17162 -30.55281,0 0,15.42079 c 0,0 6.65838,3.49263 9.94596,0.59303 z" id="path23287" inkscape:connector-curvature="0" sodipodi:nodetypes="ccccccc"/>
    </clipPath>
    <clipPath clipPathUnits="userSpaceOnUse" id="clipPath23289">
      <path style="opacity: 0.39823; color: rgb(0, 0, 0); fill: rgb(186, 255, 81); fill-opacity: 1; fill-rule: nonzero; stroke: none; stroke-width: 0; marker: none; visibility: visible; display: inline; overflow: visible;" d="m 507.96393,172.04108 c 5.63585,4.14521 4.40861,7.03756 4.24526,7.42553 -0.16336,0.38797 -0.45419,0.84609 -0.55527,0.75946 0,0 -0.23077,1.39392 -0.96715,1.52387 0,0 0.7281,2.05291 -3.23333,2.91054 -3.96143,0.85763 -12.08849,-2.45037 -11.76178,-7.80034 0.32672,-5.34998 9.00511,-7.35111 12.27227,-4.81906 z" id="path23291" inkscape:connector-curvature="0" sodipodi:nodetypes="csccssc"/>
    </clipPath>
    <clipPath clipPathUnits="userSpaceOnUse" id="clipPath22919">
      <path style="opacity: 0.39823; color: rgb(0, 0, 0); fill: rgb(186, 255, 81); fill-opacity: 1; fill-rule: nonzero; stroke: none; stroke-width: 0; marker: none; visibility: visible; display: inline; overflow: visible;" d="m 533.24358,180.67863 c -0.16336,1.16393 0.51049,2.00114 2.00114,1.20477 -1.74256,1.5022 -0.71572,1.26164 1.42124,3.05207 2.13697,1.79043 11.4934,0.98185 12.12872,0.5198 0.63531,-0.46205 8.02805,-6.41089 8.0858,-8.66336 0.0578,-2.25248 -1.90593,-15.01651 -5.19801,-17.78878 -3.29208,-2.77228 -16.4604,-0.57756 -19.75248,-0.0578 -3.29208,0.5198 -10.16501,5.71782 -9.93399,5.77558 0.23102,0.0577 2.83003,15.42079 2.77228,15.65181 -0.0578,0.23102 2.42574,4.15842 2.83003,3.92739 0.40429,-0.23102 3.95121,-3.17246 3.95121,-3.17246 0,0 1.59196,0.89865 1.69406,-0.44906 z" id="path22921" inkscape:connector-curvature="0" sodipodi:nodetypes="ccsssssssscc"/>
    </clipPath>
    <clipPath clipPathUnits="userSpaceOnUse" id="clipPath23295">
      <path style="opacity: 0.39823; color: rgb(0, 0, 0); fill: rgb(186, 255, 81); fill-opacity: 1; fill-rule: nonzero; stroke: none; stroke-width: 0; marker: none; visibility: visible; display: inline; overflow: visible;" d="m 525.58617,181.98549 c 0.89522,0.98185 2.40724,0.64233 3.04255,0.12252 0.16124,0.72559 12.13955,0.23486 11.90471,0 -0.23482,-0.23483 4.09811,-23.83249 0,-26.19853 -4.09811,-2.36605 -15.11061,0 -21.31822,0 -6.2076,0 -9.48879,8.76153 -8.08444,14.00265 1.40436,5.24112 4.81751,7.15803 7.00687,9.97898 2.18936,2.82095 7.44853,2.09438 7.44853,2.09438 z" id="path23297" inkscape:connector-curvature="0" sodipodi:nodetypes="ccsssssc"/>
    </clipPath>
    <clipPath clipPathUnits="userSpaceOnUse" id="clipPath23299">
      <path style="opacity: 0.39823; color: rgb(0, 0, 0); fill: rgb(186, 255, 81); fill-opacity: 1; fill-rule: nonzero; stroke: none; stroke-width: 0; marker: none; visibility: visible; display: inline; overflow: visible;" d="m 525.58617,181.98549 c 0.89522,0.98185 2.40724,0.64233 3.04255,0.12252 0.16124,0.72559 12.13955,0.23486 11.90471,0 -0.23482,-0.23483 4.09811,-23.83249 0,-26.19853 -4.09811,-2.36605 -15.11061,0 -21.31822,0 -6.2076,0 -9.48879,8.76153 -8.08444,14.00265 1.40436,5.24112 4.81751,7.15803 7.00687,9.97898 2.18936,2.82095 7.44853,2.09438 7.44853,2.09438 z" id="path23301" inkscape:connector-curvature="0" sodipodi:nodetypes="ccsssssc"/>
    </clipPath>
  </defs>
  <sodipodi:namedview id="base" pagecolor="#7d848b" bordercolor="#666666" borderopacity="1.0" inkscape:pageopacity="0" inkscape:pageshadow="2" inkscape:zoom="2.5275454" inkscape:cx="-49.258699" inkscape:cy="65.131491" inkscape:document-units="px" inkscape:current-layer="layer1" showgrid="false" inkscape:pagecheckerboard="false" showborder="true" units="px" inkscape:window-width="1920" inkscape:window-height="1017" inkscape:window-x="-8" inkscape:window-y="-8" inkscape:window-maximized="1" inkscape:showpageshadow="false" guidetolerance="28" fit-margin-top="8" fit-margin-left="8" fit-margin-right="8" fit-margin-bottom="8">
    <inkscape:grid type="xygrid" id="grid24034" spacingx="1px" spacingy="1px" empspacing="8" visible="true" enabled="true" snapvisiblegridlinesonly="true" originx="2.2697643px" originy="488.39517px"/>
  </sodipodi:namedview>
  <metadata id="metadata23486">
    <rdf:RDF>
      <cc:Work rdf:about="">
        <dc:format>image/svg+xml</dc:format>
        <dc:type rdf:resource="http://purl.org/dc/dcmitype/StillImage"/>
        <dc:title/>
        <cc:license rdf:resource=""/>
        <dc:creator>
          <cc:Agent>
            <dc:title>Robert Brooks</dc:title>
          </cc:Agent>
        </dc:creator>
      </cc:Work>
    </rdf:RDF>
  </metadata>
  <g inkscape:label="Layer 1" inkscape:groupmode="layer" id="layer1" transform="translate(0.60053673,-379.96137)">
    <path style="opacity: 0.25; color: rgb(0, 0, 0); fill: rgb(0, 0, 0); fill-opacity: 1; fill-rule: nonzero; stroke: none; stroke-width: 0; marker: none; visibility: visible; display: inline; overflow: visible;" d="m 22.41859,406.8362 c -4.57034,0 -8.49921,1.50059 -10.26158,3.65439 -0.51141,-0.0227 -1.00127,-0.0346 -1.46177,-0.0292 -5.99345,0.0699 -7.72785,2.30961 -7.72785,2.30961 0,0 2.94237,1.91998 6.00297,2.21212 -1.79884,2.16213 -1.29609,3.3718 -1.29609,3.3718 0,0 3.90373,-0.20226 6.10042,-1.36432 0.86007,0.56781 1.89623,1.04415 3.06971,1.41303 -0.54477,4.29595 0.42878,5.70089 0.42878,5.70089 0,0 3.62448,-2.60273 4.48274,-4.89203 0.21785,0.007 0.44168,0.01 0.66267,0.01 0.59618,0 1.183,-0.0191 1.75412,-0.0682 2.18453,2.5695 4.09293,3.20616 4.09293,3.20616 0,0 1.59855,-2.2338 0.63344,-4.04423 2.01267,2.14052 2.32907,3.86878 2.32907,3.86878 0,0 3.04454,-1.99233 2.2901,-4.84329 2.34663,0.20054 4.8628,-0.56522 4.8628,-0.56522 0,0 -0.76279,-1.44614 -2.64092,-2.3778 3.02803,-0.48775 4.73611,-2.32906 4.73611,-2.32906 0,0 -1.37651,-1.96349 -5.15515,-1.988 -0.80182,-0.005 -1.70992,0.0748 -2.73837,0.28259 -1.80983,-2.08744 -5.68167,-3.52772 -10.16413,-3.52772 z" id="path19465" inkscape:connector-curvature="0" gds_color="shadow" gds_switchable="shadow"/>
    <g id="g23667" gds_color="stems" gds_switchable="stems">
      <g id="g19451" transform="matrix(-1,0,0,1,533.02311,732.66074)">
        <path sodipodi:nodetypes="ccsssc" style="color: rgb(0, 0, 0); fill: rgb(110, 223, 27); fill-opacity: 1; fill-rule: nonzero; stroke: rgb(29, 29, 29); stroke-width: 2.64583; stroke-miterlimit: 4; stroke-opacity: 1; stroke-dasharray: none; marker: none; visibility: visible; display: inline; overflow: visible;" d="m 502.76296,-331.20337 c -0.59215,10.06671 7.28244,16.96788 7.4723,12.71938 1.18431,0.14803 1.26206,0.90029 0.52186,0.16009 -0.7402,-0.7402 -3.25688,-0.88824 -5.03336,-3.70099 -1.77648,-2.81276 -1.4804,-8.29022 -1.92452,-9.77062 -0.44411,-1.48042 -1.03628,0.59214 -1.03628,0.59214 z" id="path19453" inkscape:connector-curvature="0"/>
        <path style="color: rgb(0, 0, 0); fill: rgb(132, 75, 36); fill-opacity: 1; fill-rule: nonzero; stroke: none; stroke-width: 0; marker: none; visibility: visible; display: inline; overflow: visible;" d="m 502.76296,-331.20337 c -0.59215,10.06671 5.9216,14.5079 7.10592,14.65596 1.18431,0.14803 1.62844,-1.03629 0.88824,-1.77649 -0.7402,-0.7402 -3.25688,-0.88824 -5.03336,-3.70099 -1.77648,-2.81276 -1.4804,-8.29022 -1.92452,-9.77062 -0.44411,-1.48042 -1.03628,0.59214 -1.03628,0.59214 z" id="path19483" inkscape:connector-curvature="0"/>
        <path sodipodi:nodetypes="cccccccc" inkscape:connector-curvature="0" id="path19487" transform="matrix(-0.26458336,0,0,0.26458336,703.38468,92.899402)" d="m 757.59375,-1587.0625 c -1.76491,0.2819 -3.56603,0.7394 -5.3125,1.2813 -0.83027,6.3787 -2.2906,12.9262 -5.21875,17.5624 -0.93617,1.4823 -1.91834,2.751 -2.9375,3.875 0.88775,1.0017 1.43015,1.9235 1.15625,2.5626 -0.8741,2.0089 -12.32705,11.7984 -18.4375,9.5624 -0.71843,2.5084 1.06552,5.1559 4.5625,4.7188 3.79719,-0.4747 22.09161,-12.66 26.1875,-39.5625 z" style="opacity: 0.597345; color: rgb(0, 0, 0); fill: rgb(94, 53, 26); fill-opacity: 1; fill-rule: nonzero; stroke: none; stroke-width: 0; marker: none; visibility: visible; display: inline; overflow: visible;"/>
      </g>
      <g transform="translate(-489.55515,732.80878)" id="g19447">
        <path sodipodi:nodetypes="ccsssc" inkscape:connector-curvature="0" id="path19445" d="m 502.76296,-331.20337 c -0.59215,10.06671 6.49734,14.82194 7.57698,13.08576 1.18431,0.14803 1.15738,0.53391 0.41718,-0.20629 -0.7402,-0.7402 -3.25688,-0.88824 -5.03336,-3.70099 -1.77648,-2.81276 -1.4804,-8.29022 -1.92452,-9.77062 -0.44411,-1.48042 -1.03628,0.59214 -1.03628,0.59214 z" style="color: rgb(0, 0, 0); fill: rgb(110, 223, 27); fill-opacity: 1; fill-rule: nonzero; stroke: rgb(29, 29, 29); stroke-width: 2.64583; stroke-miterlimit: 4; stroke-opacity: 1; stroke-dasharray: none; marker: none; visibility: visible; display: inline; overflow: visible;"/>
        <path style="color: rgb(0, 0, 0); fill: rgb(132, 75, 36); fill-opacity: 1; fill-rule: nonzero; stroke: none; stroke-width: 0; marker: none; visibility: visible; display: inline; overflow: visible;" d="m 502.76296,-331.20337 c -0.59215,10.06671 5.9216,14.5079 7.10592,14.65596 1.18431,0.14803 1.62844,-1.03629 0.88824,-1.77649 -0.7402,-0.7402 -3.25688,-0.88824 -5.03336,-3.70099 -1.77648,-2.81276 -1.4804,-8.29022 -1.92452,-9.77062 -0.44411,-1.48042 -1.03628,0.59214 -1.03628,0.59214 z" id="path19443" inkscape:connector-curvature="0"/>
        <path id="path19492" transform="matrix(0.26458336,0,0,0.26458336,319.19358,92.751363)" d="m 697.28125,-1575.125 c 6.58614,18.9909 20.16149,27.7545 23.375,28.1562 3.62347,0.453 5.40225,-2.3836 4.46875,-4.9687 -1.25607,0.1819 -2.66941,0.2947 -4.1875,-0.062 -4.33502,-1.02 -16.09795,-7.3876 -23.65625,-23.125 z" style="color: rgb(0, 0, 0); fill: rgb(94, 53, 26); fill-opacity: 1; fill-rule: nonzero; stroke: none; stroke-width: 0; marker: none; visibility: visible; display: inline; overflow: visible;" inkscape:connector-curvature="0"/>
      </g>
      <g transform="translate(-490.88751,731.32838)" id="g19461">
        <path sodipodi:nodetypes="csssc" style="color: rgb(0, 0, 0); fill: rgb(110, 223, 27); fill-opacity: 1; fill-rule: nonzero; stroke: rgb(29, 29, 29); stroke-width: 10; stroke-linecap: round; stroke-linejoin: round; stroke-miterlimit: 4; stroke-opacity: 1; stroke-dasharray: none; stroke-dashoffset: 37.6; marker: none; visibility: visible; display: inline; overflow: visible;" d="m 718.9839,-1587.2413 c 0,27.976 6.93235,30.2876 4.097,29.9706 -3.52078,-0.3935 5.34302,-12.2531 3.73629,-22.6969 -2.23806,-14.5475 -2.23808,-28.5355 -5.59521,-25.7379 -3.35712,2.7976 -2.23808,18.4642 -2.23808,18.4642 z" id="path19457" inkscape:connector-curvature="0" transform="matrix(0.26458336,0,0,0.26458336,320.08182,94.083721)"/>
        <path transform="matrix(0.26458336,0,0,0.26458336,320.08182,94.083721)" inkscape:connector-curvature="0" id="path19459" d="m 718.9839,-1587.2413 c 0,27.976 1.67856,38.6069 6.15473,42.5235 4.47616,3.9167 8.39281,-2.2381 7.83329,-5.0357 -0.55952,-2.7976 -3.91665,-15.6665 -6.15473,-30.2141 -2.23808,-14.5475 -2.23808,-28.5355 -5.59521,-25.7379 -3.35712,2.7976 -2.23808,18.4642 -2.23808,18.4642 z" style="color: rgb(0, 0, 0); fill: rgb(132, 75, 36); fill-opacity: 1; fill-rule: nonzero; stroke: none; stroke-width: 0; marker: none; visibility: visible; display: inline; overflow: visible;"/>
        <path id="path19497" transform="matrix(0.26458336,0,0,0.26458336,320.52594,94.231761)" d="m 729.6875,-1557.3125 c -0.41536,1.5426 -1.02519,2.8853 -1.90625,3.6563 -2.37384,2.0771 -6.08424,1.4923 -8.625,-1.1876 0.97864,4.9737 2.39586,7.8855 4.3125,9.5626 4.47616,3.9167 8.37202,-2.2337 7.8125,-5.0313 -0.20438,-1.0219 -0.83369,-3.6995 -1.59375,-7 z" style="color: rgb(0, 0, 0); fill: rgb(94, 53, 26); fill-opacity: 1; fill-rule: nonzero; stroke: none; stroke-width: 0; marker: none; visibility: visible; display: inline; overflow: visible;" inkscape:connector-curvature="0"/>
      </g>
    </g>
    <g id="g19366" transform="matrix(0.99976321,0.02176076,-0.02176076,0.99976321,-497.75386,721.14497)" gds_color="bush">
      <g transform="matrix(0.30006962,0.65741027,-0.65741027,0.30006962,161.98256,-626.71607)" id="g18881">
        <path inkscape:connector-curvature="0" style="color: rgb(0, 0, 0); fill: rgb(124, 65, 143); fill-opacity: 1; fill-rule: nonzero; stroke: rgb(13, 13, 13); stroke-width: 13.8379; stroke-linejoin: round; stroke-miterlimit: 4; stroke-opacity: 1; stroke-dasharray: none; marker: none; visibility: visible; display: inline; overflow: visible;" d="m 995.75,-1452.0938 c -8.03656,0.06 -17.26709,1.9236 -25.625,8.0313 -0.73616,0.7362 -1.59486,1.8723 -2.25,3.25 -2.70565,2.9265 -2.43007,17.7787 7.78125,24.0625 10.28659,6.3303 21.74166,2.756 26.09375,-6.3438 4.352,-9.0997 15.4375,-20.1562 15.4375,-20.1562 l -0.5313,-5.6875 c -1.0734,-0.3346 -2.588,-0.6336 -4.375,-0.9063 -0.038,-0.01 -0.087,-0.021 -0.125,-0.031 -3.7943,-1.0471 -9.6736,-2.2687 -16.4062,-2.2188 z" transform="matrix(0.26458336,0,0,0.26458336,320.08182,94.083721)" id="path18871"/>
        <path sodipodi:nodetypes="cccssc" inkscape:connector-curvature="0" id="path18869" d="m 576.18135,-287.15073 c 4.40011,-3.21546 10.99879,-2.71767 12.89083,-2.12788 l 0.14183,1.49981 c 0,0 -2.93104,2.93104 -4.08251,5.33867 -1.15149,2.40765 -4.18722,3.34977 -6.90888,1.67488 -2.72169,-1.67487 -2.77403,-5.65272 -2.04127,-6.38548 z" style="color: rgb(0, 0, 0); fill: rgb(109, 59, 125); fill-opacity: 1; fill-rule: nonzero; stroke: none; stroke-width: 0; marker: none; visibility: visible; display: inline; overflow: visible;"/>
        <path style="color: rgb(0, 0, 0); fill: rgb(145, 74, 167); fill-opacity: 1; fill-rule: nonzero; stroke: none; stroke-width: 0; marker: none; visibility: visible; display: inline; overflow: visible;" d="m 576.75709,-287.98817 c 5.44336,-3.97783 12.31509,-1.15147 12.31509,-1.15147 0,0 -3.52197,1.5702 -4.67344,3.97783 -1.15149,2.40765 -4.08254,3.45445 -6.8042,1.77956 -2.72169,-1.67487 -1.57021,-3.87316 -0.83745,-4.60592 z" id="path18867" inkscape:connector-curvature="0" sodipodi:nodetypes="ccssc"/>
        <path inkscape:connector-curvature="0" style="color: rgb(0, 0, 0); fill: rgb(175, 85, 204); fill-opacity: 1; fill-rule: nonzero; stroke: none; stroke-width: 0; marker: none; visibility: visible; display: inline; overflow: visible;" d="m 995.75,-1452.0938 c -8.03656,0.06 -17.26709,1.9236 -25.625,8.0313 -1.55784,1.5578 -3.64024,4.8687 -3.3125,8.5937 3.83583,-7.2474 17.09336,-12.8582 27.1875,-13.5624 12.0297,-0.8394 14.8125,1.375 14.8125,1.375 0,0 -5.0268,1.9612 -10.0625,6.4374 -5.03569,4.4763 -3.37802,13.451 -9.8125,15.9688 -1.9348,0.7571 -3.83389,1.2819 -5.59375,1.6875 6.74196,0.1141 12.72312,-3.6796 15.65625,-9.8125 4.352,-9.0997 17.6562,-15.0312 17.6562,-15.0312 0,0 -9.1605,-3.7747 -20.9062,-3.6876 z" transform="matrix(0.26458336,0,0,0.26458336,320.08182,94.083721)" id="path18876"/>
      </g>
      <g transform="matrix(0.78005453,0,0,0.63725888,-220.04146,-574.2348)" id="g38143">
        <path inkscape:connector-curvature="0" style="color: rgb(0, 0, 0); fill: rgb(96, 54, 110); fill-opacity: 1; fill-rule: nonzero; stroke: rgb(13, 13, 13); stroke-width: 14.1834; stroke-linecap: round; stroke-linejoin: round; stroke-miterlimit: 4; stroke-opacity: 1; stroke-dasharray: none; stroke-dashoffset: 37.6; marker: none; visibility: visible; display: inline; overflow: visible;" d="m 3544.7812,1265.9062 c 0,0 -21.5109,20.9101 -20.0937,38.9688 0.063,0.7991 0.1659,1.5643 0.3125,2.2812 -0.3496,2.0489 -0.4703,4.0828 -0.3125,6.0938 1.4172,18.0587 25.0702,14.734 34.2187,9.0312 9.1487,-5.7027 7.7188,-9.5 7.7188,-9.5 -0.022,-1.4898 -0.3416,-3.1619 -0.875,-4.9374 1.3451,-2.1559 0.875,-3.4376 0.875,-3.4376 -0.1931,-12.8311 -21.8438,-38.5 -21.8438,-38.5 z" transform="matrix(0.26458334,0,0,0.26458334,-6.3049604e-6,18.562493)" id="path38138"/>
        <path style="color: rgb(0, 0, 0); fill: rgb(96, 54, 110); fill-opacity: 1; fill-rule: nonzero; stroke: none; stroke-width: 0; marker: none; visibility: visible; display: inline; overflow: visible;" d="m 943.66904,365.90393 c -0.0511,-3.39491 -5.77856,-10.18473 -5.77856,-10.18473 0,0 -5.69349,5.53244 -5.31852,10.31046 0.37496,4.77804 6.63093,3.89786 9.05149,2.38902 2.42059,-1.50885 2.04559,-2.51475 2.04559,-2.51475 z" id="path38136" inkscape:connector-curvature="0"/>
        <path inkscape:connector-curvature="0" id="path38134" d="m 943.66904,363.68792 c -0.0511,-3.39491 -5.77856,-10.18473 -5.77856,-10.18473 0,0 -5.69349,5.53244 -5.31852,10.31046 0.37496,4.77804 6.63093,3.89786 9.05149,2.38902 2.42059,-1.50885 2.04559,-2.51475 2.04559,-2.51475 z" style="color: rgb(0, 0, 0); fill: rgb(202, 96, 236); fill-opacity: 1; fill-rule: nonzero; stroke: none; stroke-width: 0; marker: none; visibility: visible; display: inline; overflow: visible;"/>
      </g>
      <g id="g38295" transform="matrix(-0.68366958,-0.11191478,-0.1304046,0.79662092,1223.1458,-518.90819)">
        <path id="path38297" transform="matrix(0.26458334,0,0,0.26458334,-6.3049604e-6,18.562493)" d="m 3609.5938,1283.1562 c -2.2542,0.032 -4.5258,0.245 -6.75,0.6876 -15.324,3.0488 -31.1616,19.2801 -35.2813,23.75 -0.066,0.072 -0.19,0.2157 -0.25,0.2812 -0.013,0.014 -0.05,0.018 -0.062,0.031 -0.028,0.03 -0.039,0.082 -0.062,0.125 -0.3886,0.4285 -0.7187,0.7813 -0.7187,0.7813 0,0 0.3852,-0.045 0.5312,-0.062 -0.281,2.468 0.8438,8.9375 0.8438,8.9375 0,0 28.6166,-2.6167 51.0312,8.1563 0,0 8.7129,2.2048 16.375,-11.5313 3.6353,-6.5171 3.0116,-13.7798 -0.4688,-19.3437 -0.012,-0.02 -0.019,-0.043 -0.031,-0.063 -0.01,-0.013 -0.026,-0.018 -0.031,-0.031 -3.0313,-7.1545 -13.8741,-11.877 -25.125,-11.7188 z" style="color: rgb(0, 0, 0); fill: rgb(96, 54, 110); fill-opacity: 1; fill-rule: nonzero; stroke: rgb(13, 13, 13); stroke-width: 13.3724; stroke-linejoin: round; stroke-miterlimit: 4; stroke-opacity: 1; stroke-dasharray: none; marker: none; visibility: visible; display: inline; overflow: visible;" inkscape:connector-curvature="0"/>
        <path sodipodi:nodetypes="ccsssc" style="color: rgb(0, 0, 0); fill: rgb(124, 65, 143); fill-opacity: 1; fill-rule: nonzero; stroke: none; stroke-width: 0; marker: none; visibility: visible; display: inline; overflow: visible;" d="m 957.49565,369.3559 c -5.93052,-2.85035 -13.50636,-2.15156 -13.50636,-2.15156 0,0 -0.4056,-2.32741 -0.15578,-2.59469 1.24753,-1.33469 8.32675,-4.91757 12.24925,-5.69796 4.70822,-0.93671 7.80497,3.69929 5.7413,7.39891 -2.02726,3.63433 -4.32841,3.0453 -4.32841,3.0453 z" id="path38299" inkscape:connector-curvature="0"/>
        <path inkscape:connector-curvature="0" id="path38301" d="m 957.31485,366.70413 c -5.93052,-2.85035 -13.68716,-1.85022 -13.68716,-1.85022 0,0 4.91452,-5.66845 9.6225,-6.60516 4.70798,-0.9367 10.17803,1.77073 8.27253,5.47035 -1.90552,3.69961 -4.20787,2.98503 -4.20787,2.98503 z" style="color: rgb(0, 0, 0); fill: rgb(174, 85, 203); fill-opacity: 1; fill-rule: nonzero; stroke: none; stroke-width: 0; marker: none; visibility: visible; display: inline; overflow: visible;"/>
        <path inkscape:connector-curvature="0" id="path18799" transform="matrix(-0.3584172,-0.11320944,-0.13191315,0.30759792,1157.9064,954.99643)" d="m 1118.5938,-1527.2188 c -4.4337,0.1278 -8.4508,1.6557 -10.8126,4.5626 8.9839,0.2618 34.4569,15.6303 39.1876,24 0.4286,0.7583 0.8353,1.4683 1.25,2.1874 -0.909,-2.9008 -6.7866,-20.6608 -16.5,-27.0312 -3.9681,-2.6024 -8.7522,-3.8447 -13.125,-3.7188 z" style="color: rgb(0, 0, 0); fill: rgb(202, 96, 236); fill-opacity: 1; fill-rule: nonzero; stroke: none; stroke-width: 0; marker: none; visibility: visible; display: inline; overflow: visible;"/>
      </g>
      <g transform="matrix(0.50655563,0.09814284,-0.13000823,0.78403152,171.1306,-160.02844)" id="g18816">
        <path inkscape:connector-curvature="0" style="color: rgb(0, 0, 0); fill: rgb(124, 65, 143); fill-opacity: 1; fill-rule: nonzero; stroke: rgb(13, 13, 13); stroke-width: 15.619; stroke-linejoin: round; stroke-miterlimit: 4; stroke-opacity: 1; stroke-dasharray: none; marker: none; visibility: visible; display: inline; overflow: visible;" d="m 1076.375,-1540.2812 c -0.3309,-6e-4 -0.6473,0.01 -0.9688,0.031 -21.1095,1.5263 -31.9062,13.4271 -31.9062,17.3438 0,0.071 0.02,0.1454 0.031,0.2187 -0.4979,1.6235 -0.031,10.6135 -0.031,11.125 0,3.9167 16.7768,11.1815 33.5625,10.0625 16.7856,-1.1191 22.9405,-11.1994 23.5,-13.4375 0.083,-0.3334 0.2528,-8.8978 -0.062,-11.125 0.02,-0.061 0.049,-0.1347 0.062,-0.1875 0.542,-2.1682 -13.9296,-14.0129 -24.1875,-14.0312 z" transform="matrix(0.26458336,0,0,0.26458336,320.08182,94.083721)" id="path18811"/>
        <path inkscape:connector-curvature="0" id="path18809" d="m 604.61437,-310.44186 c -3.19664,-1.27866 -7.38843,-0.0666 -8.41102,1.60085 -0.16134,0.26308 -0.0273,2.84716 -0.0273,2.98838 0,1.03629 4.44119,2.96079 8.88241,2.66472 4.44119,-0.2961 6.06962,-2.96079 6.21765,-3.55296 0.0246,-0.0983 0.0745,-2.9062 -0.0526,-3.07868 -0.63869,-0.86651 -3.05504,0.19219 -4.53659,-0.17821 -1.77649,-0.4441 -2.07256,-0.4441 -2.07256,-0.4441 z" style="color: rgb(0, 0, 0); fill: rgb(124, 65, 143); fill-opacity: 1; fill-rule: nonzero; stroke: none; stroke-width: 0; marker: none; visibility: visible; display: inline; overflow: visible;" sodipodi:nodetypes="cssscscc"/>
        <path style="color: rgb(0, 0, 0); fill: rgb(188, 91, 219); fill-opacity: 1; fill-rule: nonzero; stroke: none; stroke-width: 0; marker: none; visibility: visible; display: inline; overflow: visible;" d="m 1075.3985,-1540.2416 c -21.1095,1.5263 -31.8927,13.4285 -31.8927,17.3451 0,3.9167 16.7856,11.1904 33.5713,10.0714 16.7856,-1.1191 22.9403,-11.1904 23.4998,-13.4285 0.5595,-2.2381 -14.8917,-14.7793 -25.1784,-13.988 z" id="path18807" inkscape:connector-curvature="0" transform="matrix(0.26458336,0,0,0.26458336,320.08182,94.083721)" sodipodi:nodetypes="csssc"/>
        <path inkscape:connector-curvature="0" id="path19166" transform="matrix(0.50606031,-0.06334719,0.083915,0.32696096,366.95725,277.6409)" d="m 743.4375,-1663.4375 c -9.74635,0.1991 -15.92888,7.6524 -16.40625,10.5313 -0.22796,1.3747 1.15178,3.6342 3.53125,5.75 -1.34576,-5.366 6.13031,-11.101 11.25,-12.125 5.87415,-1.1749 14.4194,8.826 14.59375,9.0312 -0.0153,-2.4091 -5.89279,-12.7532 -10.96875,-13.125 -0.68072,-0.055 -1.35024,-0.076 -2,-0.062 z" style="color: rgb(0, 0, 0); fill: rgb(218, 122, 248); fill-opacity: 1; fill-rule: nonzero; stroke: none; stroke-width: 0; marker: none; visibility: visible; display: inline; overflow: visible;"/>
      </g>
      <g id="g19329" transform="matrix(-0.30006962,0.65741027,0.65741027,0.30006962,862.89617,-626.92543)">
        <path id="path19331" transform="matrix(0.26458336,0,0,0.26458336,320.08182,94.083721)" d="m 995.75,-1452.0938 c -8.03656,0.06 -17.26709,1.9236 -25.625,8.0313 -0.73616,0.7362 -1.59486,1.8723 -2.25,3.25 -2.70565,2.9265 -2.43007,17.7787 7.78125,24.0625 10.28659,6.3303 21.74166,2.756 26.09375,-6.3438 4.352,-9.0997 15.4375,-20.1562 15.4375,-20.1562 l -0.5313,-5.6875 c -1.0734,-0.3346 -2.588,-0.6336 -4.375,-0.9063 -0.038,-0.01 -0.087,-0.021 -0.125,-0.031 -3.7943,-1.0471 -9.6736,-2.2687 -16.4062,-2.2188 z" style="color: rgb(0, 0, 0); fill: rgb(124, 65, 143); fill-opacity: 1; fill-rule: nonzero; stroke: rgb(13, 13, 13); stroke-width: 13.8379; stroke-linejoin: round; stroke-miterlimit: 4; stroke-opacity: 1; stroke-dasharray: none; marker: none; visibility: visible; display: inline; overflow: visible;" inkscape:connector-curvature="0"/>
        <path style="color: rgb(0, 0, 0); fill: rgb(109, 59, 125); fill-opacity: 1; fill-rule: nonzero; stroke: none; stroke-width: 0; marker: none; visibility: visible; display: inline; overflow: visible;" d="m 576.18135,-287.15073 c 4.40011,-3.21546 10.99879,-2.71767 12.89083,-2.12788 l 0.14183,1.49981 c 0,0 -2.93104,2.93104 -4.08251,5.33867 -1.15149,2.40765 -4.18722,3.34977 -6.90888,1.67488 -2.72169,-1.67487 -2.77403,-5.65272 -2.04127,-6.38548 z" id="path19333" inkscape:connector-curvature="0" sodipodi:nodetypes="cccssc"/>
        <path sodipodi:nodetypes="ccssc" inkscape:connector-curvature="0" id="path19335" d="m 576.75709,-287.98817 c 5.44336,-3.97783 12.31509,-1.15147 12.31509,-1.15147 0,0 -3.52197,1.5702 -4.67344,3.97783 -1.15149,2.40765 -4.08254,3.45445 -6.8042,1.77956 -2.72169,-1.67487 -1.57021,-3.87316 -0.83745,-4.60592 z" style="color: rgb(0, 0, 0); fill: rgb(145, 74, 167); fill-opacity: 1; fill-rule: nonzero; stroke: none; stroke-width: 0; marker: none; visibility: visible; display: inline; overflow: visible;"/>
        <path id="path19337" transform="matrix(0.26458336,0,0,0.26458336,320.08182,94.083721)" d="m 995.75,-1452.0938 c -8.03656,0.06 -17.26709,1.9236 -25.625,8.0313 -1.55784,1.5578 -3.64024,4.8687 -3.3125,8.5937 3.83583,-7.2474 17.09336,-12.8582 27.1875,-13.5624 12.0297,-0.8394 14.8125,1.375 14.8125,1.375 0,0 -5.0268,1.9612 -10.0625,6.4374 -5.03569,4.4763 -3.37802,13.451 -9.8125,15.9688 -1.9348,0.7571 -3.83389,1.2819 -5.59375,1.6875 6.74196,0.1141 12.72312,-3.6796 15.65625,-9.8125 4.352,-9.0997 17.6562,-15.0312 17.6562,-15.0312 0,0 -9.1605,-3.7747 -20.9062,-3.6876 z" style="color: rgb(0, 0, 0); fill: rgb(175, 85, 204); fill-opacity: 1; fill-rule: nonzero; stroke: none; stroke-width: 0; marker: none; visibility: visible; display: inline; overflow: visible;" inkscape:connector-curvature="0"/>
      </g>
      <g transform="matrix(0.69065904,-0.05402873,0.062955,0.80476514,-181.2311,-576.77237)" id="g18821">
        <path inkscape:connector-curvature="0" style="color: rgb(0, 0, 0); fill: rgb(96, 54, 110); fill-opacity: 1; fill-rule: nonzero; stroke: rgb(13, 13, 13); stroke-width: 13.3724; stroke-linejoin: round; stroke-miterlimit: 4; stroke-opacity: 1; stroke-dasharray: none; marker: none; visibility: visible; display: inline; overflow: visible;" d="m 3609.5938,1283.1562 c -2.2542,0.032 -4.5258,0.245 -6.75,0.6876 -15.324,3.0488 -31.1616,19.2801 -35.2813,23.75 -0.066,0.072 -0.19,0.2157 -0.25,0.2812 -0.013,0.014 -0.05,0.018 -0.062,0.031 -0.028,0.03 -0.039,0.082 -0.062,0.125 -0.3886,0.4285 -0.7187,0.7813 -0.7187,0.7813 0,0 0.3852,-0.045 0.5312,-0.062 -0.281,2.468 0.8438,8.9375 0.8438,8.9375 0,0 28.6166,-2.6167 51.0312,8.1563 0,0 8.7129,2.2048 16.375,-11.5313 3.6353,-6.5171 3.0116,-13.7798 -0.4688,-19.3437 -0.012,-0.02 -0.019,-0.043 -0.031,-0.063 -0.01,-0.013 -0.026,-0.018 -0.031,-0.031 -3.0313,-7.1545 -13.8741,-11.877 -25.125,-11.7188 z" transform="matrix(0.26458334,0,0,0.26458334,-6.3049604e-6,18.562493)" id="path18823"/>
        <path inkscape:connector-curvature="0" id="path18825" d="m 957.49565,369.3559 c -5.93052,-2.85035 -13.50636,-2.15156 -13.50636,-2.15156 0,0 -0.4056,-2.32741 -0.15578,-2.59469 1.24753,-1.33469 8.32675,-4.91757 12.24925,-5.69796 4.70822,-0.93671 7.80497,3.69929 5.7413,7.39891 -2.02726,3.63433 -4.32841,3.0453 -4.32841,3.0453 z" style="color: rgb(0, 0, 0); fill: rgb(124, 65, 143); fill-opacity: 1; fill-rule: nonzero; stroke: none; stroke-width: 0; marker: none; visibility: visible; display: inline; overflow: visible;" sodipodi:nodetypes="ccsssc"/>
        <path style="color: rgb(0, 0, 0); fill: rgb(174, 85, 203); fill-opacity: 1; fill-rule: nonzero; stroke: none; stroke-width: 0; marker: none; visibility: visible; display: inline; overflow: visible;" d="m 957.31485,366.70413 c -5.93052,-2.85035 -13.68716,-1.85022 -13.68716,-1.85022 0,0 4.91452,-5.66845 9.6225,-6.60516 4.70798,-0.9367 10.17803,1.77073 8.27253,5.47035 -1.90552,3.69961 -4.20787,2.98503 -4.20787,2.98503 z" id="path18827" inkscape:connector-curvature="0"/>
        <path inkscape:connector-curvature="0" style="color: rgb(0, 0, 0); fill: rgb(202, 96, 236); fill-opacity: 1; fill-rule: nonzero; stroke: none; stroke-width: 0; marker: none; visibility: visible; display: inline; overflow: visible;" d="m 1118.5938,-1527.2188 c -4.4337,0.1278 -8.4508,1.6557 -10.8126,4.5626 8.9839,0.2618 34.4569,15.6303 39.1876,24 0.4286,0.7583 0.8353,1.4683 1.25,2.1874 -0.909,-2.9008 -6.7866,-20.6608 -16.5,-27.0312 -3.9681,-2.6024 -8.7522,-3.8447 -13.125,-3.7188 z" transform="matrix(-0.3584172,-0.11320944,-0.13191315,0.30759792,1157.9064,954.99643)" id="path18829"/>
      </g>
      <g id="g19177" transform="matrix(0.85270987,0,0,0.85270987,63.486248,-108.2365)">
        <path style="color: rgb(0, 0, 0); fill: rgb(202, 96, 236); fill-opacity: 1; fill-rule: nonzero; stroke: rgb(13, 13, 13); stroke-width: 11.7273; stroke-linejoin: round; stroke-miterlimit: 4; stroke-opacity: 1; stroke-dasharray: none; marker: none; visibility: visible; display: inline; overflow: visible;" d="m 772.14418,-1369.0341 c -1.18693,12.8081 -4.48199,41.2537 -2.80343,45.1703 0,5.698 11.67628,5.3161 13.10073,0 -0.53139,-21.065 -0.72921,-29.7404 -2.69578,-46.3117 -1.16653,-9.8299 -7.4037,-4.7933 -7.60152,1.1414 z" id="path19179" inkscape:connector-curvature="0" transform="matrix(0.26458336,0,0,0.26458336,320.08182,94.083721)" sodipodi:nodetypes="cccsc"/>
        <path sodipodi:nodetypes="cccsc" transform="matrix(0.26458336,0,0,0.26458336,320.08182,94.083721)" inkscape:connector-curvature="0" id="path19181" d="m 772.14418,-1369.0341 c -1.18693,12.8081 -4.48199,49.6053 -2.80343,53.5219 0,5.698 11.67628,5.3161 13.10073,0 -0.53139,-21.065 -0.72921,-38.092 -2.69578,-54.6633 -1.16653,-9.8299 -7.4037,-4.7933 -7.60152,1.1414 z" style="color: rgb(0, 0, 0); fill: rgb(202, 96, 236); fill-opacity: 1; fill-rule: nonzero; stroke: none; stroke-width: 0; marker: none; visibility: visible; display: inline; overflow: visible;"/>
        <path inkscape:connector-curvature="0" style="opacity: 0.597345; color: rgb(0, 0, 0); fill: rgb(124, 65, 143); fill-opacity: 1; fill-rule: nonzero; stroke: none; stroke-width: 0; marker: none; visibility: visible; display: inline; overflow: visible;" d="m 619.40625,-1628.4688 c -1.66765,0.2421 -3.37387,2.841 -3.46875,5.6876 -0.57752,6.232 -1.71755,19.0505 -2.34375,29.5937 3.2967,-0.9849 5.59375,-3.5937 5.59375,-3.5937 l 1.78125,3.1874 c 0,0 0.79099,13.8239 -0.59375,16 -0.71592,1.1251 -3.7127,1.5936 -6.625,1.5626 1.40571,3.6645 9.85564,3.0604 10.96875,-1.0938 -0.45312,-17.9623 -0.63559,-32.4945 -2.3125,-46.625 -0.43519,-3.6671 -1.70294,-4.907 -3,-4.7188 z" transform="matrix(0.31028532,0,0,0.31028532,333.26489,235.38381)" id="path19183"/>
      </g>
      <g transform="matrix(-0.89472702,-0.22433784,-0.15475292,0.86456472,1436.2379,-455.94463)" id="g38323">
        <path style="color: rgb(0, 0, 0); fill: rgb(140, 72, 163); fill-opacity: 1; fill-rule: nonzero; stroke: rgb(13, 13, 13); stroke-width: 11.123; stroke-linejoin: round; stroke-miterlimit: 4; stroke-opacity: 1; stroke-dasharray: none; marker: none; visibility: visible; display: inline; overflow: visible;" d="m 3617.4062,1414.4375 c -0.3405,9e-4 -0.7239,0.032 -1.125,0.062 -24.2528,5.0179 -25.8601,30.1139 -25.8601,30.1139 0,0 -0.023,-0.013 0,-0.01 l 1.7648,4.3013 c 1.6593,4.2183 20.7545,2.677 28.2813,-0.25 15.0534,-5.8541 15.4223,-17.3916 2.8095,-14.3622 -6.3032,1.5139 -0.8025,-19.8705 -5.8721,-19.8565 z" transform="matrix(0.26458334,0,0,0.26458334,-6.3049604e-6,18.562493)" id="path38325" inkscape:connector-curvature="0" sodipodi:nodetypes="cccccsscc"/>
        <path inkscape:connector-curvature="0" id="path38327" d="m 956.80798,394.77347 c -6.4169,1.32764 -6.83446,5.96385 -6.83446,5.96385 l 0.46138,1.18141 c 0.43626,1.11711 5.48797,0.70992 7.47943,-0.0645 3.9829,-1.54892 4.80686,-5.51025 3.03669,-7.05917 -1.7702,-1.54889 -4.14304,-0.0215 -4.14304,-0.0215 z" style="color: rgb(0, 0, 0); fill: rgb(109, 59, 125); fill-opacity: 1; fill-rule: nonzero; stroke: none; stroke-width: 0; marker: none; visibility: visible; display: inline; overflow: visible;" sodipodi:nodetypes="ccssccc"/>
        <path sodipodi:nodetypes="ccscc" style="color: rgb(0, 0, 0); fill: rgb(145, 74, 167); fill-opacity: 1; fill-rule: nonzero; stroke: none; stroke-width: 0; marker: none; visibility: visible; display: inline; overflow: visible;" d="m 956.80798,392.81316 c -6.4169,1.32764 -6.84243,7.97024 -6.84243,7.97024 0,0 3.96587,0.6594 7.94878,-0.88952 3.98291,-1.54889 4.20419,-4.42544 2.43402,-5.97436 -1.7702,-1.54889 -3.54037,-1.10636 -3.54037,-1.10636 z" id="path38329" inkscape:connector-curvature="0"/>
        <path id="path38331" transform="matrix(0.24640253,0.09638535,-0.09638535,0.24640253,191.10338,-292.12841)" d="m 3659.625,1366.2188 c -0.7367,2.3173 -1.9044,4.7658 -3.75,7 -6.1205,7.409 -28.6562,15.4374 -28.6562,15.4374 0,0 -2.0443,-11.5623 -0.4063,-19.3124 -5.7641,12.0984 -1.7813,24.75 -1.7813,24.75 0,0 14.9261,-3.158 26.8126,-14.0938 5.3377,-4.9108 7.6253,-9.7002 7.7812,-13.7812 z" style="opacity: 0.314159; color: rgb(0, 0, 0); fill: rgb(180, 87, 209); fill-opacity: 1; fill-rule: nonzero; stroke: none; stroke-width: 0; marker: none; visibility: visible; display: inline; overflow: visible;" inkscape:connector-curvature="0"/>
        <path inkscape:connector-curvature="0" id="path18804" transform="matrix(-0.2533208,-0.06573186,-0.0453432,0.26215848,1167.7594,861.89381)" d="m 1083.875,-1502.1875 c 0.423,4.4169 3.6431,9.5594 10.8125,14.375 14.0353,9.4275 29.5313,10.7813 29.5313,10.7813 0,0 1.2459,-11.6672 -5.5626,-22.5 3.0448,6.8746 3.7835,14.0308 -1.375,14.7187 -5.6224,0.7496 -22.252,-3.4715 -33.4062,-17.375 z" style="color: rgb(0, 0, 0); fill: rgb(175, 85, 204); fill-opacity: 1; fill-rule: nonzero; stroke: none; stroke-width: 0; marker: none; visibility: visible; display: inline; overflow: visible;"/>
      </g>
      <g transform="matrix(0.56232236,-0.40462646,0.47147615,0.65522553,-201.95556,-178.83703)" id="g19144">
        <path inkscape:connector-curvature="0" style="color: rgb(0, 0, 0); fill: rgb(96, 54, 110); fill-opacity: 1; fill-rule: nonzero; stroke: rgb(13, 13, 13); stroke-width: 13.3724; stroke-linejoin: round; stroke-miterlimit: 4; stroke-opacity: 1; stroke-dasharray: none; marker: none; visibility: visible; display: inline; overflow: visible;" d="m 3609.5938,1283.1562 c -2.2542,0.032 -4.5258,0.245 -6.75,0.6876 -15.324,3.0488 -31.1616,19.2801 -35.2813,23.75 -0.066,0.072 -0.19,0.2157 -0.25,0.2812 -0.013,0.014 -0.05,0.018 -0.062,0.031 -0.028,0.03 -0.039,0.082 -0.062,0.125 -0.3886,0.4285 -0.7187,0.7813 -0.7187,0.7813 0,0 0.3852,-0.045 0.5312,-0.062 -0.281,2.468 0.8438,8.9375 0.8438,8.9375 0,0 28.6166,-2.6167 51.0312,8.1563 0,0 8.7129,2.2048 16.375,-11.5313 3.6353,-6.5171 3.0116,-13.7798 -0.4688,-19.3437 -0.012,-0.02 -0.019,-0.043 -0.031,-0.063 -0.01,-0.013 -0.026,-0.018 -0.031,-0.031 -3.0313,-7.1545 -13.8741,-11.877 -25.125,-11.7188 z" transform="matrix(0.26458334,0,0,0.26458334,-6.3049604e-6,18.562493)" id="path19146"/>
        <path inkscape:connector-curvature="0" id="path19148" d="m 957.49565,369.3559 c -5.93052,-2.85035 -13.50636,-2.15156 -13.50636,-2.15156 0,0 -0.4056,-2.32741 -0.15578,-2.59469 1.24753,-1.33469 8.32675,-4.91757 12.24925,-5.69796 4.70822,-0.93671 7.80497,3.69929 5.7413,7.39891 -2.02726,3.63433 -4.32841,3.0453 -4.32841,3.0453 z" style="color: rgb(0, 0, 0); fill: rgb(109, 59, 125); fill-opacity: 1; fill-rule: nonzero; stroke: none; stroke-width: 0; marker: none; visibility: visible; display: inline; overflow: visible;" sodipodi:nodetypes="ccsssc"/>
        <path style="color: rgb(0, 0, 0); fill: rgb(145, 74, 167); fill-opacity: 1; fill-rule: nonzero; stroke: none; stroke-width: 0; marker: none; visibility: visible; display: inline; overflow: visible;" d="m 957.31485,366.70413 c -5.93052,-2.85035 -13.68716,-1.85022 -13.68716,-1.85022 0,0 4.91452,-5.66845 9.6225,-6.60516 4.70798,-0.9367 10.17803,1.77073 8.27253,5.47035 -1.90552,3.69961 -4.20787,2.98503 -4.20787,2.98503 z" id="path19150" inkscape:connector-curvature="0"/>
        <path style="color: rgb(0, 0, 0); fill: rgb(175, 85, 204); fill-opacity: 1; fill-rule: nonzero; stroke: none; stroke-width: 0; marker: none; visibility: visible; display: inline; overflow: visible;" d="m 1118.5938,-1527.2188 c -4.4337,0.1278 -8.4508,1.6557 -10.8126,4.5626 8.9839,0.2618 34.4569,15.6303 39.1876,24 0.4286,0.7583 0.8353,1.4683 1.25,2.1874 -0.909,-2.9008 -6.7866,-20.6608 -16.5,-27.0312 -3.9681,-2.6024 -8.7522,-3.8447 -13.125,-3.7188 z" transform="matrix(-0.3584172,-0.11320944,-0.13191315,0.30759792,1157.9064,954.99643)" id="path19152" inkscape:connector-curvature="0"/>
      </g>
      <g id="g38114" transform="matrix(-0.91115554,-0.06026141,-0.04962001,0.7840774,1424.4299,-572.21648)">
        <path sodipodi:nodetypes="ccccccssc" inkscape:connector-curvature="0" id="path38116" d="m 980.99963,387.45514 c -1.32357,0.95932 -1.60413,-0.79595 -2.08066,-0.52942 -1.88102,-3.74776 -4.02816,-2.08345 -3.70503,-0.56606 -0.86758,3.7161 4.32969,9.73538 4.32969,9.73538 0,0 6.57136,-4.59401 5.84295,-9.53444 -0.007,-0.0449 -0.0185,-0.0832 -0.0261,-0.12697 0.0796,-0.51569 0.13666,-1.05713 0.01,-1.61117 -0.80332,-3.49798 -2.88873,1.55876 -4.37039,2.63268 z" style="color: rgb(0, 0, 0); fill: rgb(104, 57, 119); fill-opacity: 1; fill-rule: nonzero; stroke: rgb(13, 13, 13); stroke-width: 3.12378; stroke-linejoin: round; stroke-miterlimit: 4; stroke-opacity: 1; stroke-dasharray: none; marker: none; visibility: visible; display: inline; overflow: visible;"/>
        <path style="color: rgb(0, 0, 0); fill: rgb(109, 59, 125); fill-opacity: 1; fill-rule: nonzero; stroke: none; stroke-width: 0; marker: none; visibility: visible; display: inline; overflow: visible;" d="m 977.01487,384.07418 c -5.50476,3.27337 2.53009,12.01893 2.53009,12.01893 0,0 6.56859,-4.58914 5.84018,-9.52958 -0.72844,-4.94041 -7.35366,-3.05796 -8.37027,-2.48935 z" id="path38118" inkscape:connector-curvature="0" sodipodi:nodetypes="ccsc"/>
        <path sodipodi:nodetypes="ccsc" transform="matrix(0.26458334,0,0,0.26458334,-6.3049604e-6,18.562493)" inkscape:connector-curvature="0" id="path38120" d="m 3692.6129,1374.4954 c -20.9386,14.8181 9.9861,47.6757 9.9861,47.6757 0,0 24.16,-15.1403 21.583,-37.0454 -2.5771,-21.905 -27.7035,-13.2074 -31.5691,-10.6303 z" style="color: rgb(0, 0, 0); fill: rgb(139, 71, 160); fill-opacity: 1; fill-rule: nonzero; stroke: none; stroke-width: 0; marker: none; visibility: visible; display: inline; overflow: visible;"/>
        <path sodipodi:nodetypes="cccccccc" inkscape:connector-curvature="0" id="path38122" transform="matrix(0.26458334,0,0,0.26458334,-6.3049604e-6,18.562493)" d="m 3724.1562,1384.875 c -0.3945,1.7272 -0.7889,3.5672 -1.25,5.7188 -2.8992,13.5296 -19.6681,22.8869 -19.6681,22.8869 -7.4091,-7.0869 -15.8687,-17.86 -17.8631,-26.1369 -0.8087,15.6584 17.2188,34.8124 17.2188,34.8124 0,0 24.1707,-15.1261 21.5937,-37.0312 -0.01,-0.086 -0.02,-0.1645 -0.031,-0.25 z" style="opacity: 0.588496; color: rgb(0, 0, 0); fill: rgb(200, 95, 234); fill-opacity: 1; fill-rule: nonzero; stroke: none; stroke-width: 0; marker: none; visibility: visible; display: inline; overflow: visible;"/>
        <path inkscape:connector-curvature="0" id="path19341" transform="matrix(-0.28917188,-0.02222473,-0.01830012,0.33603897,1148.3706,920.02503)" d="m 678.0625,-1558.5625 c -0.52267,10.315 2.3125,24.75 2.3125,24.75 0,0 0.83929,-15.0923 0,-20.6875 -0.28777,-1.9184 -0.62836,-3.1211 -0.96875,-3.9062 -0.44831,-0.064 -0.88957,-0.1119 -1.34375,-0.1563 z" style="color: rgb(0, 0, 0); fill: rgb(124, 65, 143); fill-opacity: 1; fill-rule: nonzero; stroke: none; stroke-width: 0; marker: none; visibility: visible; display: inline; overflow: visible;"/>
      </g>
      <g id="g18887" transform="matrix(-0.69094232,0.211728,0.211728,0.69094232,969.5624,-268.22605)">
        <path id="path18889" transform="matrix(0.26458336,0,0,0.26458336,320.08182,94.083721)" d="m 995.75,-1452.0938 c -8.03656,0.06 -17.26709,1.9236 -25.625,8.0313 -0.73616,0.7362 -1.59486,1.8723 -2.25,3.25 -2.70565,2.9265 -2.43007,17.7787 7.78125,24.0625 10.28659,6.3303 21.74166,2.756 26.09375,-6.3438 4.352,-9.0997 15.4375,-20.1562 15.4375,-20.1562 l -0.5313,-5.6875 c -1.0734,-0.3346 -2.588,-0.6336 -4.375,-0.9063 -0.038,-0.01 -0.087,-0.021 -0.125,-0.031 -3.7943,-1.0471 -9.6736,-2.2687 -16.4062,-2.2188 z" style="color: rgb(0, 0, 0); fill: rgb(124, 65, 143); fill-opacity: 1; fill-rule: nonzero; stroke: rgb(13, 13, 13); stroke-width: 13.8379; stroke-linejoin: round; stroke-miterlimit: 4; stroke-opacity: 1; stroke-dasharray: none; marker: none; visibility: visible; display: inline; overflow: visible;" inkscape:connector-curvature="0"/>
        <path style="color: rgb(0, 0, 0); fill: rgb(124, 65, 143); fill-opacity: 1; fill-rule: nonzero; stroke: none; stroke-width: 0; marker: none; visibility: visible; display: inline; overflow: visible;" d="m 576.18135,-287.15073 c 4.40011,-3.21546 10.99879,-2.71767 12.89083,-2.12788 l 0.14183,1.49981 c 0,0 -2.93104,2.93104 -4.08251,5.33867 -1.15149,2.40765 -4.18722,3.34977 -6.90888,1.67488 -2.72169,-1.67487 -2.77403,-5.65272 -2.04127,-6.38548 z" id="path18891" inkscape:connector-curvature="0" sodipodi:nodetypes="cccssc"/>
        <path sodipodi:nodetypes="ccssc" inkscape:connector-curvature="0" id="path18893" d="m 576.75709,-287.98817 c 5.44336,-3.97783 12.31509,-1.15147 12.31509,-1.15147 0,0 -3.52197,1.5702 -4.67344,3.97783 -1.15149,2.40765 -4.08254,3.45445 -6.8042,1.77956 -2.72169,-1.67487 -1.57021,-3.87316 -0.83745,-4.60592 z" style="color: rgb(0, 0, 0); fill: rgb(188, 91, 219); fill-opacity: 1; fill-rule: nonzero; stroke: none; stroke-width: 0; marker: none; visibility: visible; display: inline; overflow: visible;"/>
        <path id="path18895" transform="matrix(0.26458336,0,0,0.26458336,320.08182,94.083721)" d="m 995.75,-1452.0938 c -8.03656,0.06 -17.26709,1.9236 -25.625,8.0313 -1.55784,1.5578 -3.64024,4.8687 -3.3125,8.5937 3.83583,-7.2474 17.09336,-12.8582 27.1875,-13.5624 12.0297,-0.8394 14.8125,1.375 14.8125,1.375 0,0 -5.0268,1.9612 -10.0625,6.4374 -5.03569,4.4763 -3.37802,13.451 -9.8125,15.9688 -1.9348,0.7571 -3.83389,1.2819 -5.59375,1.6875 6.74196,0.1141 12.72312,-3.6796 15.65625,-9.8125 4.352,-9.0997 17.6562,-15.0312 17.6562,-15.0312 0,0 -9.1605,-3.7747 -20.9062,-3.6876 z" style="color: rgb(0, 0, 0); fill: rgb(218, 122, 248); fill-opacity: 1; fill-rule: nonzero; stroke: none; stroke-width: 0; marker: none; visibility: visible; display: inline; overflow: visible;" inkscape:connector-curvature="0"/>
      </g>
      <g transform="translate(0.10467996,1.3608395)" id="g19357">
        <g transform="matrix(0.99959765,-0.2506324,0.17289145,0.96590003,-518.85839,-479.54507)" id="g18831">
          <path style="color: rgb(0, 0, 0); fill: rgb(140, 72, 163); fill-opacity: 1; fill-rule: nonzero; stroke: rgb(13, 13, 13); stroke-width: 9.95607; stroke-linejoin: round; stroke-miterlimit: 4; stroke-opacity: 1; stroke-dasharray: none; marker: none; visibility: visible; display: inline; overflow: visible;" d="m 3617.4062,1414.4375 c -0.3405,9e-4 -0.7239,0.032 -1.125,0.062 -24.2528,5.0179 -25.8601,30.1139 -25.8601,30.1139 0,0 -0.023,-0.013 0,-0.01 l 1.7648,4.3013 c 1.6593,4.2183 20.7545,2.677 28.2813,-0.25 15.0534,-5.8541 15.4223,-17.3916 2.8095,-14.3622 -6.3032,1.5139 -0.8025,-19.8705 -5.8721,-19.8565 z" transform="matrix(0.26458334,0,0,0.26458334,-6.3049604e-6,18.562493)" id="path18833" inkscape:connector-curvature="0" sodipodi:nodetypes="cccccsscc"/>
          <path inkscape:connector-curvature="0" id="path18835" d="m 956.80798,394.77347 c -6.4169,1.32764 -6.83446,5.96385 -6.83446,5.96385 l 0.46138,1.18141 c 0.43626,1.11711 5.48797,0.70992 7.47943,-0.0645 3.9829,-1.54892 4.80686,-5.51025 3.03669,-7.05917 -1.7702,-1.54889 -4.14304,-0.0215 -4.14304,-0.0215 z" style="color: rgb(0, 0, 0); fill: rgb(124, 65, 143); fill-opacity: 1; fill-rule: nonzero; stroke: none; stroke-width: 0; marker: none; visibility: visible; display: inline; overflow: visible;" sodipodi:nodetypes="ccssccc"/>
          <path sodipodi:nodetypes="ccscc" style="color: rgb(0, 0, 0); fill: rgb(188, 91, 219); fill-opacity: 1; fill-rule: nonzero; stroke: none; stroke-width: 0; marker: none; visibility: visible; display: inline; overflow: visible;" d="m 956.80798,392.81316 c -6.4169,1.32764 -6.84243,7.97024 -6.84243,7.97024 0,0 3.96587,0.6594 7.94878,-0.88952 3.98291,-1.54889 4.20419,-4.42544 2.43402,-5.97436 -1.7702,-1.54889 -3.54037,-1.10636 -3.54037,-1.10636 z" id="path18837" inkscape:connector-curvature="0"/>
          <path id="path18839" transform="matrix(0.24640253,0.09638535,-0.09638535,0.24640253,191.10338,-292.12841)" d="m 3659.625,1366.2188 c -0.7367,2.3173 -1.9044,4.7658 -3.75,7 -6.1205,7.409 -28.6562,15.4374 -28.6562,15.4374 0,0 -2.0443,-11.5623 -0.4063,-19.3124 -5.7641,12.0984 -1.7813,24.75 -1.7813,24.75 0,0 14.9261,-3.158 26.8126,-14.0938 5.3377,-4.9108 7.6253,-9.7002 7.7812,-13.7812 z" style="opacity: 0.314159; color: rgb(0, 0, 0); fill: rgb(180, 87, 209); fill-opacity: 1; fill-rule: nonzero; stroke: none; stroke-width: 0; marker: none; visibility: visible; display: inline; overflow: visible;" inkscape:connector-curvature="0"/>
          <path inkscape:connector-curvature="0" id="path18841" transform="matrix(-0.2533208,-0.06573186,-0.0453432,0.26215848,1167.7594,861.89381)" d="m 1083.875,-1502.1875 c 0.423,4.4169 3.6431,9.5594 10.8125,14.375 14.0353,9.4275 29.5313,10.7813 29.5313,10.7813 0,0 1.2459,-11.6672 -5.5626,-22.5 3.0448,6.8746 3.7835,14.0308 -1.375,14.7187 -5.6224,0.7496 -22.252,-3.4715 -33.4062,-17.375 z" style="color: rgb(0, 0, 0); fill: rgb(218, 122, 248); fill-opacity: 1; fill-rule: nonzero; stroke: none; stroke-width: 0; marker: none; visibility: visible; display: inline; overflow: visible;"/>
        </g>
        <path style="opacity: 0.597345; color: rgb(0, 0, 0); fill: rgb(124, 65, 143); fill-opacity: 1; fill-rule: nonzero; stroke: none; stroke-width: 0; marker: none; visibility: visible; display: inline; overflow: visible;" d="m 702.47805,-1632.2828 c -9.51185,7.2738 -15.38682,18.1845 -13.98802,16.5059 1.3988,-1.6786 15.94634,-15.3868 18.74394,-19.0237 2.7976,-3.6369 -4.75592,2.5178 -4.75592,2.5178 z" id="path19344" inkscape:connector-curvature="0" transform="matrix(0.26458336,0,0,0.26458336,320.08182,94.083721)"/>
      </g>
      <g transform="translate(0.20935993,1.1514796)" id="g19348">
        <g id="g18843" transform="matrix(-0.99959765,-0.2506324,-0.17289145,0.96590003,1542.9575,-479.54507)">
          <path sodipodi:nodetypes="cccccsscc" inkscape:connector-curvature="0" id="path18845" transform="matrix(0.26458334,0,0,0.26458334,-6.3049604e-6,18.562493)" d="m 3617.4062,1414.4375 c -0.3405,9e-4 -0.7239,0.032 -1.125,0.062 -24.2528,5.0179 -25.8601,30.1139 -25.8601,30.1139 0,0 -0.023,-0.013 0,-0.01 l 1.7648,4.3013 c 1.6593,4.2183 20.7545,2.677 28.2813,-0.25 15.0534,-5.8541 15.4223,-17.3916 2.8095,-14.3622 -6.3032,1.5139 -0.8025,-19.8705 -5.8721,-19.8565 z" style="color: rgb(0, 0, 0); fill: rgb(140, 72, 163); fill-opacity: 1; fill-rule: nonzero; stroke: rgb(13, 13, 13); stroke-width: 9.95607; stroke-linejoin: round; stroke-miterlimit: 4; stroke-opacity: 1; stroke-dasharray: none; marker: none; visibility: visible; display: inline; overflow: visible;"/>
          <path sodipodi:nodetypes="ccssccc" style="color: rgb(0, 0, 0); fill: rgb(124, 65, 143); fill-opacity: 1; fill-rule: nonzero; stroke: none; stroke-width: 0; marker: none; visibility: visible; display: inline; overflow: visible;" d="m 956.80798,394.77347 c -6.4169,1.32764 -6.83446,5.96385 -6.83446,5.96385 l 0.46138,1.18141 c 0.43626,1.11711 5.48797,0.70992 7.47943,-0.0645 3.9829,-1.54892 4.80686,-5.51025 3.03669,-7.05917 -1.7702,-1.54889 -4.14304,-0.0215 -4.14304,-0.0215 z" id="path18847" inkscape:connector-curvature="0"/>
          <path inkscape:connector-curvature="0" id="path18849" d="m 956.80798,392.81316 c -6.4169,1.32764 -6.84243,7.97024 -6.84243,7.97024 0,0 3.96587,0.6594 7.94878,-0.88952 3.98291,-1.54889 4.20419,-4.42544 2.43402,-5.97436 -1.7702,-1.54889 -3.54037,-1.10636 -3.54037,-1.10636 z" style="color: rgb(0, 0, 0); fill: rgb(188, 91, 219); fill-opacity: 1; fill-rule: nonzero; stroke: none; stroke-width: 0; marker: none; visibility: visible; display: inline; overflow: visible;" sodipodi:nodetypes="ccscc"/>
          <path inkscape:connector-curvature="0" style="opacity: 0.314159; color: rgb(0, 0, 0); fill: rgb(180, 87, 209); fill-opacity: 1; fill-rule: nonzero; stroke: none; stroke-width: 0; marker: none; visibility: visible; display: inline; overflow: visible;" d="m 3659.625,1366.2188 c -0.7367,2.3173 -1.9044,4.7658 -3.75,7 -6.1205,7.409 -28.6562,15.4374 -28.6562,15.4374 0,0 -2.0443,-11.5623 -0.4063,-19.3124 -5.7641,12.0984 -1.7813,24.75 -1.7813,24.75 0,0 14.9261,-3.158 26.8126,-14.0938 5.3377,-4.9108 7.6253,-9.7002 7.7812,-13.7812 z" transform="matrix(0.24640253,0.09638535,-0.09638535,0.24640253,191.10338,-292.12841)" id="path18851"/>
          <path style="color: rgb(0, 0, 0); fill: rgb(218, 122, 248); fill-opacity: 1; fill-rule: nonzero; stroke: none; stroke-width: 0; marker: none; visibility: visible; display: inline; overflow: visible;" d="m 1083.875,-1502.1875 c 0.423,4.4169 3.6431,9.5594 10.8125,14.375 14.0353,9.4275 29.5313,10.7813 29.5313,10.7813 0,0 1.2459,-11.6672 -5.5626,-22.5 3.0448,6.8746 3.7835,14.0308 -1.375,14.7187 -5.6224,0.7496 -22.252,-3.4715 -33.4062,-17.375 z" transform="matrix(-0.2533208,-0.06573186,-0.0453432,0.26215848,1167.7594,861.89381)" id="path18853" inkscape:connector-curvature="0"/>
        </g>
        <path style="opacity: 0.597345; color: rgb(0, 0, 0); fill: rgb(124, 65, 143); fill-opacity: 1; fill-rule: nonzero; stroke: none; stroke-width: 0; marker: none; visibility: visible; display: inline; overflow: visible;" d="m 741.92424,-1632.003 c 10.91066,6.7143 20.98203,19.5832 19.30346,17.6249 -1.67856,-1.9583 -4.75592,-6.994 -12.30945,-14.2678 -7.55353,-7.2737 -10.63089,-5.5952 -10.63089,-5.5952 z" id="path19346" inkscape:connector-curvature="0" transform="matrix(0.26458336,0,0,0.26458336,320.08182,94.083721)"/>
      </g>
    </g>
  </g>
</svg>