<?xml version="1.0" encoding="UTF-8" standalone="no"?><!-- Created with Inkscape (http://www.inkscape.org/) --><svg xmlns:dc="http://purl.org/dc/elements/1.1/" xmlns:cc="http://creativecommons.org/ns#" xmlns:rdf="http://www.w3.org/1999/02/22-rdf-syntax-ns#" xmlns:svg="http://www.w3.org/2000/svg" xmlns="http://www.w3.org/2000/svg" xmlns:sodipodi="http://sodipodi.sourceforge.net/DTD/sodipodi-0.dtd" xmlns:inkscape="http://www.inkscape.org/namespaces/inkscape" width="150.45671" height="141.19844" viewBox="0 0 39.808337 37.358752" version="1.1" id="svg23489" inkscape:version="0.48.5 r10040" sodipodi:docname="plant_02.svg">
  <defs id="defs23483">
    <clipPath clipPathUnits="userSpaceOnUse" id="clipPath22932">
      <path style="opacity: 0.39823; color: rgb(0, 0, 0); fill: rgb(124, 212, 205); fill-opacity: 1; fill-rule: nonzero; stroke: none; stroke-width: 0; marker: none; visibility: visible; display: inline; overflow: visible;" d="m 544.30169,181.88988 c 0.28587,0.59217 2.59866,1.15837 3.74216,0.1578 0.98015,2.77708 16.86469,0 16.86469,0 l 0,-16.17162 -30.55281,0 0,15.42079 c 0,0 6.65838,3.49263 9.94596,0.59303 z" id="path22934" inkscape:connector-curvature="0" sodipodi:nodetypes="ccccccc"/>
    </clipPath>
    <clipPath clipPathUnits="userSpaceOnUse" id="clipPath22874">
      <path style="opacity: 0.39823; color: rgb(0, 0, 0); fill: rgb(124, 212, 205); fill-opacity: 1; fill-rule: nonzero; stroke: none; stroke-width: 0; marker: none; visibility: visible; display: inline; overflow: visible;" d="m 507.96393,172.04108 c 5.63585,4.14521 4.40861,7.03756 4.24526,7.42553 -0.16336,0.38797 -0.45419,0.84609 -0.55527,0.75946 0,0 -0.23077,1.39392 -0.96715,1.52387 0,0 0.7281,2.05291 -3.23333,2.91054 -3.96143,0.85763 -12.08849,-2.45037 -11.76178,-7.80034 0.32672,-5.34998 9.00511,-7.35111 12.27227,-4.81906 z" id="path22876" inkscape:connector-curvature="0" sodipodi:nodetypes="csccssc"/>
    </clipPath>
    <clipPath clipPathUnits="userSpaceOnUse" id="clipPath22894">
      <path style="opacity: 0.39823; color: rgb(0, 0, 0); fill: rgb(124, 212, 205); fill-opacity: 1; fill-rule: nonzero; stroke: none; stroke-width: 0; marker: none; visibility: visible; display: inline; overflow: visible;" d="m 519.13353,181.84256 c 1.53,1.07862 2.21773,-0.85703 2.00114,-1.06183 0.0817,0.0408 1.9603,0.65343 4.32899,-2.85877 2.36869,-3.51219 0,-9.96483 -8.00455,-11.96597 -8.00454,-2.00113 -11.2717,3.47136 -11.47589,10.16904 -0.2042,6.69767 5.75836,9.27056 9.76064,9.7198 4.00227,0.44923 3.38967,-4.00227 3.38967,-4.00227 z" id="path22896" inkscape:connector-curvature="0" sodipodi:nodetypes="ccssssc"/>
    </clipPath>
    <clipPath clipPathUnits="userSpaceOnUse" id="clipPath23263">
      <path style="opacity: 0.39823; color: rgb(0, 0, 0); fill: rgb(124, 212, 205); fill-opacity: 1; fill-rule: nonzero; stroke: none; stroke-width: 0; marker: none; visibility: visible; display: inline; overflow: visible;" d="m 507.96393,172.04108 c 5.63585,4.14521 4.40861,7.03756 4.24526,7.42553 -0.16336,0.38797 -0.45419,0.84609 -0.55527,0.75946 0,0 -0.23077,1.39392 -0.96715,1.52387 0,0 0.7281,2.05291 -3.23333,2.91054 -3.96143,0.85763 -12.08849,-2.45037 -11.76178,-7.80034 0.32672,-5.34998 9.00511,-7.35111 12.27227,-4.81906 z" id="path23265" inkscape:connector-curvature="0" sodipodi:nodetypes="csccssc"/>
    </clipPath>
    <clipPath clipPathUnits="userSpaceOnUse" id="clipPath22907">
      <path style="opacity: 0.39823; color: rgb(0, 0, 0); fill: rgb(124, 212, 205); fill-opacity: 1; fill-rule: nonzero; stroke: none; stroke-width: 0; marker: none; visibility: visible; display: inline; overflow: visible;" d="m 525.58617,181.98549 c 0.89522,0.98185 2.40724,0.64233 3.04255,0.12252 0.16124,0.72559 12.13955,0.23486 11.90471,0 -0.23482,-0.23483 4.09811,-23.83249 0,-26.19853 -4.09811,-2.36605 -15.11061,0 -21.31822,0 -6.2076,0 -9.48879,8.76153 -8.08444,14.00265 1.40436,5.24112 4.81751,7.15803 7.00687,9.97898 2.18936,2.82095 7.44853,2.09438 7.44853,2.09438 z" id="path22909" inkscape:connector-curvature="0" sodipodi:nodetypes="ccsssssc"/>
    </clipPath>
    <clipPath clipPathUnits="userSpaceOnUse" id="clipPath23269">
      <path style="opacity: 0.39823; color: rgb(0, 0, 0); fill: rgb(124, 212, 205); fill-opacity: 1; fill-rule: nonzero; stroke: none; stroke-width: 0; marker: none; visibility: visible; display: inline; overflow: visible;" d="m 525.58617,181.98549 c 0.89522,0.98185 2.40724,0.64233 3.04255,0.12252 0.16124,0.72559 12.13955,0.23486 11.90471,0 -0.23482,-0.23483 4.09811,-23.83249 0,-26.19853 -4.09811,-2.36605 -15.11061,0 -21.31822,0 -6.2076,0 -9.48879,8.76153 -8.08444,14.00265 1.40436,5.24112 4.81751,7.15803 7.00687,9.97898 2.18936,2.82095 7.44853,2.09438 7.44853,2.09438 z" id="path23271" inkscape:connector-curvature="0" sodipodi:nodetypes="ccsssssc"/>
    </clipPath>
    <clipPath clipPathUnits="userSpaceOnUse" id="clipPath23273">
      <path style="opacity: 0.39823; color: rgb(0, 0, 0); fill: rgb(124, 212, 205); fill-opacity: 1; fill-rule: nonzero; stroke: none; stroke-width: 0; marker: none; visibility: visible; display: inline; overflow: visible;" d="m 507.96393,172.04108 c 5.63585,4.14521 4.40861,7.03756 4.24526,7.42553 -0.16336,0.38797 -0.45419,0.84609 -0.55527,0.75946 0,0 -0.23077,1.39392 -0.96715,1.52387 0,0 0.7281,2.05291 -3.23333,2.91054 -3.96143,0.85763 -12.08849,-2.45037 -11.76178,-7.80034 0.32672,-5.34998 9.00511,-7.35111 12.27227,-4.81906 z" id="path23275" inkscape:connector-curvature="0" sodipodi:nodetypes="csccssc"/>
    </clipPath>
    <clipPath clipPathUnits="userSpaceOnUse" id="clipPath23277">
      <path style="opacity: 0.39823; color: rgb(0, 0, 0); fill: rgb(124, 212, 205); fill-opacity: 1; fill-rule: nonzero; stroke: none; stroke-width: 0; marker: none; visibility: visible; display: inline; overflow: visible;" d="m 519.13353,181.84256 c 1.53,1.07862 2.21773,-0.85703 2.00114,-1.06183 0.0817,0.0408 1.9603,0.65343 4.32899,-2.85877 2.36869,-3.51219 0,-9.96483 -8.00455,-11.96597 -8.00454,-2.00113 -11.2717,3.47136 -11.47589,10.16904 -0.2042,6.69767 5.75836,9.27056 9.76064,9.7198 4.00227,0.44923 3.38967,-4.00227 3.38967,-4.00227 z" id="path23279" inkscape:connector-curvature="0" sodipodi:nodetypes="ccssssc"/>
    </clipPath>
    <clipPath clipPathUnits="userSpaceOnUse" id="clipPath23281">
      <path style="opacity: 0.39823; color: rgb(0, 0, 0); fill: rgb(124, 212, 205); fill-opacity: 1; fill-rule: nonzero; stroke: none; stroke-width: 0; marker: none; visibility: visible; display: inline; overflow: visible;" d="m 525.58617,181.98549 c 0.89522,0.98185 2.40724,0.64233 3.04255,0.12252 0.16124,0.72559 12.13955,0.23486 11.90471,0 -0.23482,-0.23483 4.09811,-23.83249 0,-26.19853 -4.09811,-2.36605 -15.11061,0 -21.31822,0 -6.2076,0 -9.48879,8.76153 -8.08444,14.00265 1.40436,5.24112 4.81751,7.15803 7.00687,9.97898 2.18936,2.82095 7.44853,2.09438 7.44853,2.09438 z" id="path23283" inkscape:connector-curvature="0" sodipodi:nodetypes="ccsssssc"/>
    </clipPath>
    <clipPath clipPathUnits="userSpaceOnUse" id="clipPath23285">
      <path style="opacity: 0.39823; color: rgb(0, 0, 0); fill: rgb(124, 212, 205); fill-opacity: 1; fill-rule: nonzero; stroke: none; stroke-width: 0; marker: none; visibility: visible; display: inline; overflow: visible;" d="m 544.30169,181.88988 c 0.28587,0.59217 2.59866,1.15837 3.74216,0.1578 0.98015,2.77708 16.86469,0 16.86469,0 l 0,-16.17162 -30.55281,0 0,15.42079 c 0,0 6.65838,3.49263 9.94596,0.59303 z" id="path23287" inkscape:connector-curvature="0" sodipodi:nodetypes="ccccccc"/>
    </clipPath>
    <clipPath clipPathUnits="userSpaceOnUse" id="clipPath23289">
      <path style="opacity: 0.39823; color: rgb(0, 0, 0); fill: rgb(124, 212, 205); fill-opacity: 1; fill-rule: nonzero; stroke: none; stroke-width: 0; marker: none; visibility: visible; display: inline; overflow: visible;" d="m 507.96393,172.04108 c 5.63585,4.14521 4.40861,7.03756 4.24526,7.42553 -0.16336,0.38797 -0.45419,0.84609 -0.55527,0.75946 0,0 -0.23077,1.39392 -0.96715,1.52387 0,0 0.7281,2.05291 -3.23333,2.91054 -3.96143,0.85763 -12.08849,-2.45037 -11.76178,-7.80034 0.32672,-5.34998 9.00511,-7.35111 12.27227,-4.81906 z" id="path23291" inkscape:connector-curvature="0" sodipodi:nodetypes="csccssc"/>
    </clipPath>
    <clipPath clipPathUnits="userSpaceOnUse" id="clipPath22919">
      <path style="opacity: 0.39823; color: rgb(0, 0, 0); fill: rgb(124, 212, 205); fill-opacity: 1; fill-rule: nonzero; stroke: none; stroke-width: 0; marker: none; visibility: visible; display: inline; overflow: visible;" d="m 533.24358,180.67863 c -0.16336,1.16393 0.51049,2.00114 2.00114,1.20477 -1.74256,1.5022 -0.71572,1.26164 1.42124,3.05207 2.13697,1.79043 11.4934,0.98185 12.12872,0.5198 0.63531,-0.46205 8.02805,-6.41089 8.0858,-8.66336 0.0578,-2.25248 -1.90593,-15.01651 -5.19801,-17.78878 -3.29208,-2.77228 -16.4604,-0.57756 -19.75248,-0.0578 -3.29208,0.5198 -10.16501,5.71782 -9.93399,5.77558 0.23102,0.0577 2.83003,15.42079 2.77228,15.65181 -0.0578,0.23102 2.42574,4.15842 2.83003,3.92739 0.40429,-0.23102 3.95121,-3.17246 3.95121,-3.17246 0,0 1.59196,0.89865 1.69406,-0.44906 z" id="path22921" inkscape:connector-curvature="0" sodipodi:nodetypes="ccsssssssscc"/>
    </clipPath>
    <clipPath clipPathUnits="userSpaceOnUse" id="clipPath23295">
      <path style="opacity: 0.39823; color: rgb(0, 0, 0); fill: rgb(124, 212, 205); fill-opacity: 1; fill-rule: nonzero; stroke: none; stroke-width: 0; marker: none; visibility: visible; display: inline; overflow: visible;" d="m 525.58617,181.98549 c 0.89522,0.98185 2.40724,0.64233 3.04255,0.12252 0.16124,0.72559 12.13955,0.23486 11.90471,0 -0.23482,-0.23483 4.09811,-23.83249 0,-26.19853 -4.09811,-2.36605 -15.11061,0 -21.31822,0 -6.2076,0 -9.48879,8.76153 -8.08444,14.00265 1.40436,5.24112 4.81751,7.15803 7.00687,9.97898 2.18936,2.82095 7.44853,2.09438 7.44853,2.09438 z" id="path23297" inkscape:connector-curvature="0" sodipodi:nodetypes="ccsssssc"/>
    </clipPath>
    <clipPath clipPathUnits="userSpaceOnUse" id="clipPath23299">
      <path style="opacity: 0.39823; color: rgb(0, 0, 0); fill: rgb(124, 212, 205); fill-opacity: 1; fill-rule: nonzero; stroke: none; stroke-width: 0; marker: none; visibility: visible; display: inline; overflow: visible;" d="m 525.58617,181.98549 c 0.89522,0.98185 2.40724,0.64233 3.04255,0.12252 0.16124,0.72559 12.13955,0.23486 11.90471,0 -0.23482,-0.23483 4.09811,-23.83249 0,-26.19853 -4.09811,-2.36605 -15.11061,0 -21.31822,0 -6.2076,0 -9.48879,8.76153 -8.08444,14.00265 1.40436,5.24112 4.81751,7.15803 7.00687,9.97898 2.18936,2.82095 7.44853,2.09438 7.44853,2.09438 z" id="path23301" inkscape:connector-curvature="0" sodipodi:nodetypes="ccsssssc"/>
    </clipPath>
  </defs>
  <sodipodi:namedview id="base" pagecolor="#7d848b" bordercolor="#666666" borderopacity="1.0" inkscape:pageopacity="0" inkscape:pageshadow="2" inkscape:zoom="1.145268" inkscape:cx="-149.40116" inkscape:cy="2.9280336" inkscape:document-units="px" inkscape:current-layer="layer1" showgrid="false" inkscape:pagecheckerboard="false" showborder="true" units="px" inkscape:window-width="1920" inkscape:window-height="1017" inkscape:window-x="-8" inkscape:window-y="-8" inkscape:window-maximized="1" inkscape:showpageshadow="false" guidetolerance="28" fit-margin-top="6" fit-margin-left="6" fit-margin-right="6" fit-margin-bottom="6">
    <inkscape:grid type="xygrid" id="grid24034" spacingx="1px" spacingy="1px" empspacing="8" visible="true" enabled="true" snapvisiblegridlinesonly="true" originx="-205.98899px" originy="-179.3814px"/>
  </sodipodi:namedview>
  <metadata id="metadata23486">
    <rdf:RDF>
      <cc:Work rdf:about="">
        <dc:format>image/svg+xml</dc:format>
        <dc:type rdf:resource="http://purl.org/dc/dcmitype/StillImage"/>
        <dc:title/>
        <cc:license rdf:resource=""/>
        <dc:creator>
          <cc:Agent>
            <dc:title>Robert Brooks</dc:title>
          </cc:Agent>
        </dc:creator>
      </cc:Work>
    </rdf:RDF>
  </metadata>
  <g inkscape:label="Layer 1" inkscape:groupmode="layer" id="layer1" transform="translate(-54.501255,-212.17989)">
    <path style="opacity: 0.25; color: rgb(0, 0, 0); fill: rgb(0, 0, 0); fill-opacity: 1; fill-rule: nonzero; stroke: none; stroke-width: 0; marker: none; visibility: visible; display: inline; overflow: visible;" d="m 22.26553,104.5258 c 21.392372,-7.42184 31.870268,-2.18289 31.870268,-2.18289 l 23.138688,29.68737 c 0,0 0.873158,-20.08263 9.604739,-26.63132 8.73158,-6.548684 25.758165,-5.23895 30.997115,-2.61947 5.23894,2.61947 0.87315,-7.421846 -12.6608,-10.4779 -13.533946,-3.056053 -32.306844,4.365791 -31.870265,2.619475 0.436579,-1.746317 22.702109,-18.336319 35.362905,-15.716845 12.66079,2.619474 22.7021,8.73158 21.82895,6.985264 -0.87316,-1.746316 3.49263,-14.843686 -18.7729,-18.772898 C 89.498699,63.487375 64.613695,81.387115 61.557642,82.260273 58.501589,83.133431 49.333429,88.372379 40.601849,90.118695 31.870268,91.865011 22.26553,104.5258 22.26553,104.5258 z" id="path14704" inkscape:connector-curvature="0" transform="matrix(0.26458333,0,0,0.26458333,54.501255,212.17989)" gds_color="shadow" gds_opacity="shadow" gds_switchable="shadow"/>
    <g transform="matrix(1.0574132,0.10610639,-0.10610639,1.0574132,-102.78557,436.85287)" id="g14694">
      <path inkscape:connector-curvature="0" id="path14696" d="m 153.5033,-218.45048 c 0.48569,-0.0785 0.86994,0.27012 0.97255,0.73007 -0.0417,0.56499 -0.83159,0.70262 -1.16138,1.07746 -2.6707,1.92094 -4.79614,4.59816 -5.99425,7.67025 -0.9281,1.99203 -1.14897,4.22434 -1.15732,6.3973 -0.35805,0.59726 -1.68671,0.39623 -2.03112,-0.01 -0.12389,-2.17329 -0.0488,-4.37819 0.39261,-6.51467 0.62899,-3.0395 2.30715,-5.83476 4.64297,-7.8682 1.24388,-0.90771 2.79918,-1.43347 4.33594,-1.48218 z" style="color: rgb(0, 0, 0); fill: rgb(39, 121, 114); fill-opacity: 1; fill-rule: nonzero; stroke: rgb(25, 25, 25); stroke-width: 2.2652; stroke-linecap: round; stroke-linejoin: round; stroke-miterlimit: 4; stroke-opacity: 1; stroke-dasharray: none; stroke-dashoffset: 37.6; marker: none; visibility: visible; display: inline; overflow: visible;"/>
      <path sodipodi:nodetypes="cssssscc" inkscape:connector-curvature="0" id="path14698" d="m 146.0509,-202.57046 c 0.1085,-9.33088 6.34718,-13.45384 8.08314,-14.64732 0.25098,-0.17255 0.35909,-0.32468 0.35416,-0.45247 -0.004,-0.0924 -0.22923,-0.54607 -0.33967,-0.61152 -0.79347,-0.47025 -3.89144,0.16699 -5.43941,1.71498 -2.06146,2.06148 -4.20415,4.99273 -4.55695,10.19887 -0.37528,5.53788 1.55555,6.51563 1.89873,3.79743 z" style="color: rgb(0, 0, 0); fill: rgb(39, 121, 114); fill-opacity: 1; fill-rule: nonzero; stroke: none; stroke-width: 0; marker: none; visibility: visible; display: inline; overflow: visible;"/>
      <path style="color: rgb(0, 0, 0); fill: rgb(39, 121, 114); fill-opacity: 1; fill-rule: nonzero; stroke: none; stroke-width: 0; marker: none; visibility: visible; display: inline; overflow: visible;" d="m 145.67115,-202.57046 c 0.1085,-9.33088 6.40143,-13.99633 8.1374,-15.18981 1.73598,-1.1935 -3.03797,-0.86801 -5.09943,1.19348 -2.06148,2.06146 -4.23145,4.99095 -4.55695,10.19887 -0.32549,5.20793 0.434,5.20793 0.434,5.20793 0.59674,0.29837 0.86798,-0.21699 0.86798,-0.21699 z" id="path14700" inkscape:connector-curvature="0" sodipodi:nodetypes="csssccc"/>
      <path id="path14702" d="m 153.5033,-218.45048 c 0.6936,0.009 0.95624,0.24185 0.30525,0.68942 -1.34398,0.92398 -5.41397,3.93294 -7.23622,9.57285 -0.002,0 -0.004,0 -0.005,0 -1.79334,0.6857 -1.91976,-1.96198 -0.62627,-4.75748 0,-0.002 0,-0.004 0,-0.005 0.008,-0.0147 0.0183,-0.0275 0.0263,-0.0421 0.8083,-1.47186 1.78504,-2.61653 2.74188,-3.57337 1.28841,-1.28843 3.63833,-1.89888 4.79431,-1.88405 z" style="color: rgb(0, 0, 0); fill: rgb(71, 195, 185); fill-opacity: 1; fill-rule: nonzero; stroke: none; stroke-width: 0; marker: none; visibility: visible; display: inline; overflow: visible;" inkscape:connector-curvature="0"/>
    </g>
    <g id="g14584" transform="matrix(0.92724405,0,0,0.92724405,22.712987,10.728568)">
      <g transform="translate(-0.40839493,-0.24503696)" id="g14570">
        <path sodipodi:nodetypes="cssssc" transform="matrix(0.26458333,0,0,0.26458333,58.429466,205.69454)" inkscape:connector-curvature="0" id="path14568" d="m -31.870268,56.689214 c -20.300925,3.492632 -21.113611,25.42214 -18.991188,35.035467 1.855461,8.404149 1.528027,-5.238949 10.477897,-11.787634 8.94987,-6.548685 15.498555,19.209477 17.89974,16.371713 2.401184,-2.837763 4.802369,-21.610661 0.654868,-31.433689 -4.147501,-9.823028 -8.73158,-8.404146 -10.041317,-8.185857 z" style="color: rgb(0, 0, 0); fill: rgb(50, 156, 147); fill-opacity: 1; fill-rule: nonzero; stroke: rgb(25, 25, 25); stroke-width: 10.7846; stroke-linejoin: round; stroke-opacity: 1; marker: none; visibility: visible; display: inline; overflow: visible;"/>
        <path style="color: rgb(0, 0, 0); fill: rgb(50, 156, 147); fill-opacity: 1; fill-rule: nonzero; stroke: none; stroke-width: 0; marker: none; visibility: visible; display: inline; overflow: visible;" d="m -31.870268,56.689214 c -20.300925,3.492632 -21.113611,25.42214 -18.991188,35.035467 1.855461,8.404149 1.528027,-5.238949 10.477897,-11.787634 8.94987,-6.548685 15.498555,19.209477 17.89974,16.371713 2.401184,-2.837763 4.802369,-21.610661 0.654868,-31.433689 -4.147501,-9.823028 -8.73158,-8.404146 -10.041317,-8.185857 z" id="path14566" inkscape:connector-curvature="0" transform="matrix(0.26458333,0,0,0.26458333,58.429466,205.69454)" sodipodi:nodetypes="cssssc"/>
        <path id="path14576" transform="matrix(0.26458333,0,0,0.26458333,58.837861,205.93958)" d="m -31.875,55.5625 c -0.678744,0.01023 -1.203816,0.132928 -1.53125,0.1875 -20.300925,3.492632 -21.122423,25.449173 -19,35.0625 0.315372,1.428449 0.566981,2.202329 0.8125,2.5 -2.148661,-19.911531 7.226743,-26.813746 10.375,-29.0625 3.241434,-2.31531 10.03125,0.607935 10.03125,-0.78125 0,-0.745688 1.515395,-4.151502 1.9375,-7.25 -0.999517,-0.509541 -1.89356,-0.667277 -2.625,-0.65625 z" style="color: rgb(0, 0, 0); fill: rgb(71, 195, 185); fill-opacity: 1; fill-rule: nonzero; stroke: none; stroke-width: 0; marker: none; visibility: visible; display: inline; overflow: visible;" inkscape:connector-curvature="0"/>
        <path id="path14581" transform="matrix(0.26458333,0,0,0.26458333,58.837861,205.93958)" d="m -26.84375,61.5625 c -1.707965,-0.04501 -3.625324,0.335832 -5.71875,1.28125 -7.961893,3.595693 -17.854184,9.675291 -20.0625,26.71875 0.07395,0.418379 0.134521,0.868493 0.21875,1.25 1.855461,8.404149 1.51888,-5.263815 10.46875,-11.8125 8.94987,-6.548685 15.505065,19.212764 17.90625,16.375 2.401184,-2.837763 4.803751,-21.614472 0.65625,-31.4375 -0.302757,-0.717057 -0.600283,-1.335412 -0.90625,-1.9375 -0.802548,-0.247024 -1.640331,-0.413199 -2.5625,-0.4375 z" style="opacity: 0.49115; color: rgb(0, 0, 0); fill: rgb(39, 121, 114); fill-opacity: 1; fill-rule: nonzero; stroke: none; stroke-width: 0; marker: none; visibility: visible; display: inline; overflow: visible;" inkscape:connector-curvature="0"/>
      </g>
      <path sodipodi:nodetypes="scssccssss" inkscape:connector-curvature="0" id="path14544" transform="matrix(0.26458333,0,0,0.26458333,58.429466,205.69454)" d="m -33.375,56.375 c -2.943435,0.03913 1.118746,6.767792 8.234081,9.143817 -1.364087,5.424711 -3.894936,9.829607 -2.354079,12.440922 1.164926,1.974218 -10.819729,-10.360563 -8.306458,-1.330926 3.420207,12.288061 8.383322,33.358307 12.051456,66.308687 0.328553,3.0596 5.923012,13.02006 6.248036,-6.24411 0,0 3.236835,16.78201 4.325856,5.77885 C -11.612133,126.67027 -13.54745,90.570621 -17.96875,75.625 -23.38901,57.302526 -26.558464,56.796448 -32.3125,56.40625 -32.672127,56.38186 -33.019073,56.37027 -33.375,56.375 z" style="color: rgb(0, 0, 0); fill: rgb(39, 121, 114); fill-opacity: 1; fill-rule: nonzero; stroke: rgb(25, 25, 25); stroke-width: 10.7846; stroke-linejoin: round; stroke-opacity: 1; marker: none; visibility: visible; display: inline; overflow: visible;"/>
      <path inkscape:connector-curvature="0" id="path14542" d="m 52.407849,246.02396 c -1.375933,-13.84184 -3.338444,-20.64451 -4.541553,-22.79004 -0.896851,-1.59936 0.495511,-2.71712 2.017932,-2.61388 1.522422,0.10324 2.355769,0.23375 3.789883,5.08157 1.434113,4.84783 1.558793,18.90667 0.927854,20.40301 -0.63094,1.49634 -2.194116,0.81781 -2.194116,-0.0807 z" style="color: rgb(0, 0, 0); fill: rgb(50, 156, 147); fill-opacity: 1; fill-rule: nonzero; stroke: none; stroke-width: 0; marker: none; visibility: visible; display: inline; overflow: visible;" sodipodi:nodetypes="cssssc"/>
      <path style="color: rgb(0, 0, 0); fill: rgb(71, 195, 185); fill-opacity: 1; fill-rule: nonzero; stroke: none; stroke-width: 0; marker: none; visibility: visible; display: inline; overflow: visible;" d="m 49.60127,220.61067 c -1.404122,0.0436 -2.573887,1.12606 -1.733089,2.62547 0.590312,1.05271 1.359054,3.23107 2.156019,6.80751 0.356421,-3.43568 2.546444,-3.72069 3.478043,-2.86001 0.247543,0.22869 0.512261,0.84165 0.768291,1.64108 -0.163651,-1.24061 -0.359655,-2.32475 -0.595156,-3.12083 -1.434113,-4.84783 -2.270133,-4.98457 -3.792555,-5.08781 -0.09515,-0.006 -0.187945,-0.008 -0.281553,-0.005 z" id="path14552" inkscape:connector-curvature="0"/>
      <path id="path14561" transform="matrix(0.26458333,0,0,0.26458333,58.429466,205.69454)" d="m -13.4375,114.9375 c -0.281603,7.46268 -1.454173,14.18211 -4.6875,14.5625 -4.587703,0.53972 -6.820777,-3.86922 -8.59375,-9.5625 1.398105,9.45986 2.748945,20.22881 3.96875,32.5 0,3.39594 5.896595,5.93671 8.28125,0.28125 1.28867,-3.05622 1.740944,-19.98051 1.03125,-37.78125 z" style="color: rgb(0, 0, 0); fill: rgb(39, 121, 114); fill-opacity: 1; fill-rule: nonzero; stroke: none; stroke-width: 0; marker: none; visibility: visible; display: inline; overflow: visible;" inkscape:connector-curvature="0"/>
    </g>
    <g id="g14531" transform="matrix(-0.33134098,-0.46710512,-0.44257961,0.31399896,24.400561,349.46223)">
      <path id="path14533" transform="matrix(0.26458336,0,0,0.26458336,320.08182,94.083721)" d="m -821.09375,-1211.9688 c -7.75508,0.1457 -13.2683,2.9559 -14.28125,3.9688 -0.99944,0.9995 -1.38022,1.9949 -1.34375,2.75 -0.60398,2.0969 0.34271,4.5731 1.71875,4.3438 1.7788,-0.2967 5.10042,-0.1193 8.1875,0.3437 21.6421,7.4117 34.64429,35.8579 37.3125,57.5 1.91581,15.5393 2.31062,39.9174 2.70646,54.259 0.15546,5.6324 3.66658,12.8112 7.78236,-8.0388 5.22433,7.1007 22.09247,-60.8868 -10.36387,-98.8139 -11.28979,-13.1928 -22.92966,-16.4776 -31.71875,-16.3126 z" style="color: rgb(0, 0, 0); fill: rgb(38, 119, 112); fill-opacity: 1; fill-rule: nonzero; stroke: rgb(25, 25, 25); stroke-width: 17.9382; stroke-linejoin: round; stroke-opacity: 1; marker: none; visibility: visible; display: inline; overflow: visible;" inkscape:connector-curvature="0" sodipodi:nodetypes="cccccsscscc"/>
      <path style="color: rgb(0, 0, 0); fill: rgb(39, 121, 114); fill-opacity: 1; fill-rule: nonzero; stroke: none; stroke-width: 0; marker: none; visibility: visible; display: inline; overflow: visible;" d="m 101.32489,-223.56364 c 5.72614,1.96101 9.16652,9.48803 9.87248,15.21416 0.70596,5.72611 0.72216,16.70513 0.87903,17.25422 0.15688,0.54906 0.20182,1.40669 2.69613,1.40669 1.09816,-0.23531 0.18997,-1.76649 0.18997,-1.76649 0,0 1.64724,-21.9146 -5.09861,-29.83707 -5.38489,-6.32413 -10.362558,-4.50345 -10.91164,-3.95439 -0.54908,0.54909 -0.269683,1.66991 0.200958,1.59147 0.470641,-0.0785 1.354892,-0.0311 2.171682,0.0914 z" id="path14535" inkscape:connector-curvature="0" sodipodi:nodetypes="cscccscccc"/>
      <path sodipodi:nodetypes="cscccsssssssscccc" inkscape:connector-curvature="0" id="path14537" d="m 101.38945,-224.46595 c 5.63271,0.21336 10.49261,9.71615 11.22772,15.67872 0.73511,5.96254 1.66995,16.66684 1.8333,17.23861 0.16336,0.57173 -0.44476,0.81679 0.69875,0.57173 1.14351,-0.24503 1.38854,-1.79691 1.38854,-1.79691 0,0 0.39558,-10.17971 0.029,-14.53879 -0.0184,-0.21909 -0.0388,-0.50005 -0.0612,-0.80693 -0.0416,-0.56921 -0.0903,-1.22759 -0.14705,-1.7457 -0.0143,-0.13036 -0.0291,-0.25184 -0.0444,-0.36079 -0.15479,-1.10087 -0.36326,-1.58572 -0.64079,-2.73119 -0.0687,-0.28343 -0.14156,-0.56727 -0.21892,-0.85111 -0.14027,-0.51468 -0.29521,-1.0293 -0.46621,-1.54113 -0.82607,-2.47255 -2.02697,-4.88005 -3.75957,-6.91485 -5.60724,-6.58526 -11.59842,-3.83889 -12.170174,-3.26715 -0.571751,0.57176 -0.408395,1.1435 0.08168,1.06182 0.490074,-0.0817 1.225184,-0.0817 2.249314,0.004 z" style="color: rgb(0, 0, 0); fill: rgb(50, 156, 147); fill-opacity: 1; fill-rule: nonzero; stroke: none; stroke-width: 0; marker: none; visibility: visible; display: inline; overflow: visible;"/>
      <path id="path14539" transform="matrix(0.26458336,0,0,0.26458336,320.08182,94.083721)" d="m -821.09375,-1211.9688 c -7.75508,0.1457 -13.2683,2.9559 -14.28125,3.9688 -2.16095,2.161 -1.53975,4.34 0.3125,4.0312 1.85225,-0.3087 4.62927,-0.3239 8.5,0 14.29484,0.5415 27.26816,16.9165 35.09375,34.4376 -3.01154,-7.9917 -10.01349,-22.747 -5.28125,-24.7188 3.99869,-1.6661 12.04232,7.8201 15.25,10.0938 -2.2322,-4.0583 -4.83689,-7.932 -7.875,-11.5 -11.25863,-13.2224 -22.92966,-16.4776 -31.71875,-16.3126 z" style="color: rgb(0, 0, 0); fill: rgb(71, 195, 185); fill-opacity: 1; fill-rule: nonzero; stroke: none; stroke-width: 0; marker: none; visibility: visible; display: inline; overflow: visible;" inkscape:connector-curvature="0"/>
    </g>
    <g transform="matrix(-0.191919,-0.88545768,-0.47737444,0.35598083,204.26995,212.20881)" id="g14663">
      <path style="color: rgb(0, 0, 0); fill: rgb(50, 156, 147); fill-opacity: 1; fill-rule: nonzero; stroke: rgb(25, 25, 25); stroke-width: 14.271; stroke-linecap: round; stroke-linejoin: round; stroke-miterlimit: 4; stroke-opacity: 1; stroke-dasharray: none; stroke-dashoffset: 37.6; marker: none; visibility: visible; display: inline; overflow: visible;" d="M 50.628109,130.92371 C 36.427542,75.973691 8.6438236,61.155708 11.730903,56.833796 14.817983,52.511884 35.19271,61.155708 47.54103,82.147851 59.889349,103.13999 62.976429,142.0372 58.654517,142.0372 c -4.321912,0 -7.408992,-8.64382 -7.408992,-8.64382 z" id="path14665" inkscape:connector-curvature="0" transform="matrix(0.26458333,0,0,0.26458333,58.429466,205.69454)"/>
      <path inkscape:connector-curvature="0" id="path14667" d="M 50.628109,130.92371 C 36.427542,75.973691 8.6438236,61.155708 11.730903,56.833796 14.817983,52.511884 35.19271,61.155708 47.54103,82.147851 59.889349,103.13999 62.976429,142.0372 58.654517,142.0372 c -4.321912,0 -7.408992,-8.64382 -7.408992,-8.64382 z" style="color: rgb(0, 0, 0); fill: rgb(50, 156, 147); fill-opacity: 1; fill-rule: nonzero; stroke: none; stroke-width: 0; marker: none; visibility: visible; display: inline; overflow: visible;" transform="matrix(0.26458333,0,0,0.26458333,58.429466,205.69454)"/>
      <path style="color: rgb(0, 0, 0); fill: rgb(71, 195, 185); fill-opacity: 1; fill-rule: nonzero; stroke: none; stroke-width: 0; marker: none; visibility: visible; display: inline; overflow: visible;" d="m 85.5,92.375 c 6.342116,2.949056 4.624774,9.75008 -3.0625,12.3125 -1.445356,0.48179 -2.686245,0.94985 -3.84375,1.40625 19.670537,0.32705 28.49295,13.15436 29.71875,9.59375 1.4707,-4.272 -6.54651,-19.257636 -18.9375,-22.71875 C 88.147391,92.625848 86.834487,92.453055 85.5,92.375 z" transform="matrix(-0.19182045,-0.47712931,-0.25723346,0.10341565,112.0663,260.45138)" id="path14681" inkscape:connector-curvature="0"/>
    </g>
    <g id="g30852" transform="matrix(-1.028045,0.26926684,0.26926684,1.028045,274.7262,405.86125)">
      <path style="color: rgb(0, 0, 0); fill: rgb(39, 121, 114); fill-opacity: 1; fill-rule: nonzero; stroke: rgb(25, 25, 25); stroke-width: 2.2652; stroke-linecap: round; stroke-linejoin: round; stroke-miterlimit: 4; stroke-opacity: 1; stroke-dasharray: none; stroke-dashoffset: 37.6; marker: none; visibility: visible; display: inline; overflow: visible;" d="m 153.5033,-218.45048 c 0.48569,-0.0785 0.86994,0.27012 0.97255,0.73007 -0.0417,0.56499 -0.83159,0.70262 -1.16138,1.07746 -2.6707,1.92094 -4.79614,4.59816 -5.99425,7.67025 -0.9281,1.99203 -1.14897,4.22434 -1.15732,6.3973 -0.35805,0.59726 -1.68671,0.39623 -2.03112,-0.01 -0.12389,-2.17329 -0.0488,-4.37819 0.39261,-6.51467 0.62899,-3.0395 2.30715,-5.83476 4.64297,-7.8682 1.24388,-0.90771 2.79918,-1.43347 4.33594,-1.48218 z" id="path30854" inkscape:connector-curvature="0"/>
      <path style="color: rgb(0, 0, 0); fill: rgb(39, 121, 114); fill-opacity: 1; fill-rule: nonzero; stroke: none; stroke-width: 0; marker: none; visibility: visible; display: inline; overflow: visible;" d="m 146.0509,-202.57046 c 0.1085,-9.33088 6.34718,-13.45384 8.08314,-14.64732 0.25098,-0.17255 0.35909,-0.32468 0.35416,-0.45247 -0.004,-0.0924 -0.22923,-0.54607 -0.33967,-0.61152 -0.79347,-0.47025 -3.89144,0.16699 -5.43941,1.71498 -2.06146,2.06148 -4.20415,4.99273 -4.55695,10.19887 -0.37528,5.53788 1.55555,6.51563 1.89873,3.79743 z" id="path30856" inkscape:connector-curvature="0" sodipodi:nodetypes="cssssscc"/>
      <path sodipodi:nodetypes="csssccc" inkscape:connector-curvature="0" id="path30858" d="m 145.67115,-202.57046 c 0.1085,-9.33088 6.40143,-13.99633 8.1374,-15.18981 1.73598,-1.1935 -3.03797,-0.86801 -5.09943,1.19348 -2.06148,2.06146 -4.23145,4.99095 -4.55695,10.19887 -0.32549,5.20793 0.434,5.20793 0.434,5.20793 0.59674,0.29837 0.86798,-0.21699 0.86798,-0.21699 z" style="color: rgb(0, 0, 0); fill: rgb(39, 121, 114); fill-opacity: 1; fill-rule: nonzero; stroke: none; stroke-width: 0; marker: none; visibility: visible; display: inline; overflow: visible;"/>
      <path inkscape:connector-curvature="0" style="color: rgb(0, 0, 0); fill: rgb(71, 195, 185); fill-opacity: 1; fill-rule: nonzero; stroke: none; stroke-width: 0; marker: none; visibility: visible; display: inline; overflow: visible;" d="m 153.5033,-218.45048 c 0.6936,0.009 0.95624,0.24185 0.30525,0.68942 -1.34398,0.92398 -5.41397,3.93294 -7.23622,9.57285 -0.002,0 -0.004,0 -0.005,0 -1.79334,0.6857 -1.91976,-1.96198 -0.62627,-4.75748 0,-0.002 0,-0.004 0,-0.005 0.008,-0.0147 0.0183,-0.0275 0.0263,-0.0421 0.8083,-1.47186 1.78504,-2.61653 2.74188,-3.57337 1.28841,-1.28843 3.63833,-1.89888 4.79431,-1.88405 z" id="path30860"/>
    </g>
    <g id="g14659" transform="matrix(0.16050483,-0.80920958,0.4802692,0.27043592,-55.688761,228.58702)">
      <path transform="matrix(0.26458333,0,0,0.26458333,58.429466,205.69454)" inkscape:connector-curvature="0" id="path14649" d="M 50.628109,130.92371 C 36.427542,75.973691 8.6438236,61.155708 11.730903,56.833796 14.817983,52.511884 35.19271,61.155708 47.54103,82.147851 59.889349,103.13999 62.976429,142.0372 58.654517,142.0372 c -4.321912,0 -7.408992,-8.64382 -7.408992,-8.64382 z" style="color: rgb(0, 0, 0); fill: rgb(50, 156, 147); fill-opacity: 1; fill-rule: nonzero; stroke: rgb(25, 25, 25); stroke-width: 15.2137; stroke-linecap: round; stroke-linejoin: round; stroke-miterlimit: 4; stroke-opacity: 1; stroke-dasharray: none; stroke-dashoffset: 37.6; marker: none; visibility: visible; display: inline; overflow: visible;"/>
      <path transform="matrix(0.26458333,0,0,0.26458333,58.429466,205.69454)" style="color: rgb(0, 0, 0); fill: rgb(50, 156, 147); fill-opacity: 1; fill-rule: nonzero; stroke: none; stroke-width: 0; marker: none; visibility: visible; display: inline; overflow: visible;" d="M 50.628109,130.92371 C 36.427542,75.973691 8.6438236,61.155708 11.730903,56.833796 14.817983,52.511884 35.19271,61.155708 47.54103,82.147851 59.889349,103.13999 62.976429,142.0372 58.654517,142.0372 c -4.321912,0 -7.408992,-8.64382 -7.408992,-8.64382 z" id="path14651" inkscape:connector-curvature="0"/>
      <path style="color: rgb(0, 0, 0); fill: rgb(39, 121, 114); fill-opacity: 1; fill-rule: nonzero; stroke: none; stroke-width: 0; marker: none; visibility: visible; display: inline; overflow: visible;" d="m 46.21875,109.84375 c -0.577546,0.0113 -1.151878,0.0359 -1.75,0.0937 -9.569948,0.92612 -22.230126,8.33146 -23.15625,9.875 -0.504665,0.84111 -1.745471,-0.61945 -1.71875,-3.5625 -2.14853,3.69492 -3.095442,7.03572 -2.4375,8.5625 1.553484,3.60492 12.786762,-14.16124 40.40625,-11.5625 -2.556184,-2.04565 -6.560347,-3.49988 -11.34375,-3.40625 z" transform="matrix(0.16561442,0.49555835,-0.29411591,0.09829284,95.400889,199.95795)" id="path14671" inkscape:connector-curvature="0"/>
      <path style="color: rgb(0, 0, 0); fill: rgb(71, 195, 185); fill-opacity: 1; fill-rule: nonzero; stroke: none; stroke-width: 0; marker: none; visibility: visible; display: inline; overflow: visible;" d="m 42.4375,101.4375 c -2.584221,0.0529 -5.113029,0.44087 -7.375,1.25 -9.442967,3.37784 -16.023892,12.75255 -17.6875,18.4375 4.533282,-7.51956 14.304444,-13.8635 22.125,-14.90625 4.540021,-0.60534 7.433793,3.0235 9.21875,6.875 3.151809,-0.19998 6.572794,-0.15456 10.28125,0.28125 l 1.28125,0.15625 c 0,0 0.920598,-0.0337 2,-0.375 -0.338482,-2.13617 -0.764175,-4.78906 -1.40625,-7.5625 -4.570629,-2.26302 -11.736327,-4.29332 -18.4375,-4.15625 z" transform="matrix(0.16561442,0.49555835,-0.29411591,0.09829284,95.400889,199.95795)" id="path14691" inkscape:connector-curvature="0"/>
    </g>
    <g id="g14655" transform="matrix(0.99261276,-0.12132561,0.10147015,0.83016742,-23.298012,50.364859)">
      <path transform="matrix(0.26458333,0,0,0.26458333,58.429466,205.69454)" inkscape:connector-curvature="0" id="path14647" d="m 60.506765,89.556842 c -17.287647,3.704496 -14.817983,32.723048 -11.730903,47.541028 3.087079,14.81799 3.704495,21.60956 7.408991,18.52248 3.704496,-3.08708 16.670231,-46.3062 12.34832,-57.419684 -4.321912,-11.113488 -8.026408,-8.643824 -8.026408,-8.643824 z" style="color: rgb(0, 0, 0); fill: rgb(50, 156, 147); fill-opacity: 1; fill-rule: nonzero; stroke: rgb(25, 25, 25); stroke-width: 10.9347; stroke-linecap: round; stroke-linejoin: round; stroke-miterlimit: 4; stroke-opacity: 1; stroke-dasharray: none; stroke-dashoffset: 37.6; marker: none; visibility: visible; display: inline; overflow: visible;"/>
      <path style="color: rgb(0, 0, 0); fill: rgb(50, 156, 147); fill-opacity: 1; fill-rule: nonzero; stroke: none; stroke-width: 0; marker: none; visibility: visible; display: inline; overflow: visible;" d="m 60.506765,89.556842 c -17.287647,3.704496 -14.817983,32.723048 -11.730903,47.541028 3.087079,14.81799 3.704495,21.60956 7.408991,18.52248 3.704496,-3.08708 16.670231,-46.3062 12.34832,-57.419684 -4.321912,-11.113488 -8.026408,-8.643824 -8.026408,-8.643824 z" id="path14653" inkscape:connector-curvature="0" transform="matrix(0.26458333,0,0,0.26458333,58.429466,205.69454)"/>
      <path style="color: rgb(0, 0, 0); fill: rgb(39, 121, 114); fill-opacity: 1; fill-rule: nonzero; stroke: none; stroke-width: 0; marker: none; visibility: visible; display: inline; overflow: visible;" d="m 46.9375,118.0625 c 0.152516,7.63778 2.461303,15.80709 4.59375,21.375 4.567858,11.92687 5.854866,17.48099 9.21875,14.46875 2.254277,-2.01863 6.808964,-19.50302 7.9375,-33.4375 -1.694473,3.63066 -4.326801,7.76722 -7.875,9.21875 -5.964275,2.43993 -11.220908,-0.60433 -13.875,-11.625 z" transform="matrix(0.26262879,0.03838214,-0.03210073,0.31401941,62.27827,196.20817)" id="path14676" inkscape:connector-curvature="0"/>
      <path style="color: rgb(0, 0, 0); fill: rgb(71, 195, 185); fill-opacity: 1; fill-rule: nonzero; stroke: none; stroke-width: 0; marker: none; visibility: visible; display: inline; overflow: visible;" d="m 59.3125,98.21875 c -0.62544,0.0701 -0.96875,0.3125 -0.96875,0.3125 -11.195856,3.45053 -12.525994,15.18464 -10.8125,26.15625 2.67554,-12.50325 13.40858,-15.38859 19.78125,-9.8125 0.575867,0.50388 1.093748,1.03172 1.59375,1.5625 0.152979,-5.11964 -0.293203,-9.39783 -1.71875,-11.6875 -3.72465,-5.982417 -6.499032,-6.685462 -7.875,-6.53125 z" transform="matrix(0.26262879,0.03838214,-0.03210073,0.31401941,62.27827,196.20817)" id="path14686" inkscape:connector-curvature="0"/>
    </g>
  </g>
</svg>