<?xml version="1.0" encoding="UTF-8" standalone="no"?><!-- Created with Inkscape (http://www.inkscape.org/) --><svg xmlns:dc="http://purl.org/dc/elements/1.1/" xmlns:cc="http://creativecommons.org/ns#" xmlns:rdf="http://www.w3.org/1999/02/22-rdf-syntax-ns#" xmlns:svg="http://www.w3.org/2000/svg" xmlns="http://www.w3.org/2000/svg" xmlns:sodipodi="http://sodipodi.sourceforge.net/DTD/sodipodi-0.dtd" xmlns:inkscape="http://www.inkscape.org/namespaces/inkscape" width="122.7639" height="132.48581" viewBox="0 0 32.48128 35.053532" version="1.1" id="svg23489" inkscape:version="0.48.5 r10040" sodipodi:docname="plant_09.svg">
  <defs id="defs23483">
    <clipPath clipPathUnits="userSpaceOnUse" id="clipPath22932">
      <path style="opacity: 0.39823; color: rgb(0, 0, 0); fill: rgb(76, 255, 245); fill-opacity: 1; fill-rule: nonzero; stroke: none; stroke-width: 0; marker: none; visibility: visible; display: inline; overflow: visible;" d="m 544.30169,181.88988 c 0.28587,0.59217 2.59866,1.15837 3.74216,0.1578 0.98015,2.77708 16.86469,0 16.86469,0 l 0,-16.17162 -30.55281,0 0,15.42079 c 0,0 6.65838,3.49263 9.94596,0.59303 z" id="path22934" inkscape:connector-curvature="0" sodipodi:nodetypes="ccccccc"/>
    </clipPath>
    <clipPath clipPathUnits="userSpaceOnUse" id="clipPath22874">
      <path style="opacity: 0.39823; color: rgb(0, 0, 0); fill: rgb(76, 255, 245); fill-opacity: 1; fill-rule: nonzero; stroke: none; stroke-width: 0; marker: none; visibility: visible; display: inline; overflow: visible;" d="m 507.96393,172.04108 c 5.63585,4.14521 4.40861,7.03756 4.24526,7.42553 -0.16336,0.38797 -0.45419,0.84609 -0.55527,0.75946 0,0 -0.23077,1.39392 -0.96715,1.52387 0,0 0.7281,2.05291 -3.23333,2.91054 -3.96143,0.85763 -12.08849,-2.45037 -11.76178,-7.80034 0.32672,-5.34998 9.00511,-7.35111 12.27227,-4.81906 z" id="path22876" inkscape:connector-curvature="0" sodipodi:nodetypes="csccssc"/>
    </clipPath>
    <clipPath clipPathUnits="userSpaceOnUse" id="clipPath22894">
      <path style="opacity: 0.39823; color: rgb(0, 0, 0); fill: rgb(76, 255, 245); fill-opacity: 1; fill-rule: nonzero; stroke: none; stroke-width: 0; marker: none; visibility: visible; display: inline; overflow: visible;" d="m 519.13353,181.84256 c 1.53,1.07862 2.21773,-0.85703 2.00114,-1.06183 0.0817,0.0408 1.9603,0.65343 4.32899,-2.85877 2.36869,-3.51219 0,-9.96483 -8.00455,-11.96597 -8.00454,-2.00113 -11.2717,3.47136 -11.47589,10.16904 -0.2042,6.69767 5.75836,9.27056 9.76064,9.7198 4.00227,0.44923 3.38967,-4.00227 3.38967,-4.00227 z" id="path22896" inkscape:connector-curvature="0" sodipodi:nodetypes="ccssssc"/>
    </clipPath>
    <clipPath clipPathUnits="userSpaceOnUse" id="clipPath23263">
      <path style="opacity: 0.39823; color: rgb(0, 0, 0); fill: rgb(76, 255, 245); fill-opacity: 1; fill-rule: nonzero; stroke: none; stroke-width: 0; marker: none; visibility: visible; display: inline; overflow: visible;" d="m 507.96393,172.04108 c 5.63585,4.14521 4.40861,7.03756 4.24526,7.42553 -0.16336,0.38797 -0.45419,0.84609 -0.55527,0.75946 0,0 -0.23077,1.39392 -0.96715,1.52387 0,0 0.7281,2.05291 -3.23333,2.91054 -3.96143,0.85763 -12.08849,-2.45037 -11.76178,-7.80034 0.32672,-5.34998 9.00511,-7.35111 12.27227,-4.81906 z" id="path23265" inkscape:connector-curvature="0" sodipodi:nodetypes="csccssc"/>
    </clipPath>
    <clipPath clipPathUnits="userSpaceOnUse" id="clipPath22907">
      <path style="opacity: 0.39823; color: rgb(0, 0, 0); fill: rgb(76, 255, 245); fill-opacity: 1; fill-rule: nonzero; stroke: none; stroke-width: 0; marker: none; visibility: visible; display: inline; overflow: visible;" d="m 525.58617,181.98549 c 0.89522,0.98185 2.40724,0.64233 3.04255,0.12252 0.16124,0.72559 12.13955,0.23486 11.90471,0 -0.23482,-0.23483 4.09811,-23.83249 0,-26.19853 -4.09811,-2.36605 -15.11061,0 -21.31822,0 -6.2076,0 -9.48879,8.76153 -8.08444,14.00265 1.40436,5.24112 4.81751,7.15803 7.00687,9.97898 2.18936,2.82095 7.44853,2.09438 7.44853,2.09438 z" id="path22909" inkscape:connector-curvature="0" sodipodi:nodetypes="ccsssssc"/>
    </clipPath>
    <clipPath clipPathUnits="userSpaceOnUse" id="clipPath23269">
      <path style="opacity: 0.39823; color: rgb(0, 0, 0); fill: rgb(76, 255, 245); fill-opacity: 1; fill-rule: nonzero; stroke: none; stroke-width: 0; marker: none; visibility: visible; display: inline; overflow: visible;" d="m 525.58617,181.98549 c 0.89522,0.98185 2.40724,0.64233 3.04255,0.12252 0.16124,0.72559 12.13955,0.23486 11.90471,0 -0.23482,-0.23483 4.09811,-23.83249 0,-26.19853 -4.09811,-2.36605 -15.11061,0 -21.31822,0 -6.2076,0 -9.48879,8.76153 -8.08444,14.00265 1.40436,5.24112 4.81751,7.15803 7.00687,9.97898 2.18936,2.82095 7.44853,2.09438 7.44853,2.09438 z" id="path23271" inkscape:connector-curvature="0" sodipodi:nodetypes="ccsssssc"/>
    </clipPath>
    <clipPath clipPathUnits="userSpaceOnUse" id="clipPath23273">
      <path style="opacity: 0.39823; color: rgb(0, 0, 0); fill: rgb(76, 255, 245); fill-opacity: 1; fill-rule: nonzero; stroke: none; stroke-width: 0; marker: none; visibility: visible; display: inline; overflow: visible;" d="m 507.96393,172.04108 c 5.63585,4.14521 4.40861,7.03756 4.24526,7.42553 -0.16336,0.38797 -0.45419,0.84609 -0.55527,0.75946 0,0 -0.23077,1.39392 -0.96715,1.52387 0,0 0.7281,2.05291 -3.23333,2.91054 -3.96143,0.85763 -12.08849,-2.45037 -11.76178,-7.80034 0.32672,-5.34998 9.00511,-7.35111 12.27227,-4.81906 z" id="path23275" inkscape:connector-curvature="0" sodipodi:nodetypes="csccssc"/>
    </clipPath>
    <clipPath clipPathUnits="userSpaceOnUse" id="clipPath23277">
      <path style="opacity: 0.39823; color: rgb(0, 0, 0); fill: rgb(76, 255, 245); fill-opacity: 1; fill-rule: nonzero; stroke: none; stroke-width: 0; marker: none; visibility: visible; display: inline; overflow: visible;" d="m 519.13353,181.84256 c 1.53,1.07862 2.21773,-0.85703 2.00114,-1.06183 0.0817,0.0408 1.9603,0.65343 4.32899,-2.85877 2.36869,-3.51219 0,-9.96483 -8.00455,-11.96597 -8.00454,-2.00113 -11.2717,3.47136 -11.47589,10.16904 -0.2042,6.69767 5.75836,9.27056 9.76064,9.7198 4.00227,0.44923 3.38967,-4.00227 3.38967,-4.00227 z" id="path23279" inkscape:connector-curvature="0" sodipodi:nodetypes="ccssssc"/>
    </clipPath>
    <clipPath clipPathUnits="userSpaceOnUse" id="clipPath23281">
      <path style="opacity: 0.39823; color: rgb(0, 0, 0); fill: rgb(76, 255, 245); fill-opacity: 1; fill-rule: nonzero; stroke: none; stroke-width: 0; marker: none; visibility: visible; display: inline; overflow: visible;" d="m 525.58617,181.98549 c 0.89522,0.98185 2.40724,0.64233 3.04255,0.12252 0.16124,0.72559 12.13955,0.23486 11.90471,0 -0.23482,-0.23483 4.09811,-23.83249 0,-26.19853 -4.09811,-2.36605 -15.11061,0 -21.31822,0 -6.2076,0 -9.48879,8.76153 -8.08444,14.00265 1.40436,5.24112 4.81751,7.15803 7.00687,9.97898 2.18936,2.82095 7.44853,2.09438 7.44853,2.09438 z" id="path23283" inkscape:connector-curvature="0" sodipodi:nodetypes="ccsssssc"/>
    </clipPath>
    <clipPath clipPathUnits="userSpaceOnUse" id="clipPath23285">
      <path style="opacity: 0.39823; color: rgb(0, 0, 0); fill: rgb(76, 255, 245); fill-opacity: 1; fill-rule: nonzero; stroke: none; stroke-width: 0; marker: none; visibility: visible; display: inline; overflow: visible;" d="m 544.30169,181.88988 c 0.28587,0.59217 2.59866,1.15837 3.74216,0.1578 0.98015,2.77708 16.86469,0 16.86469,0 l 0,-16.17162 -30.55281,0 0,15.42079 c 0,0 6.65838,3.49263 9.94596,0.59303 z" id="path23287" inkscape:connector-curvature="0" sodipodi:nodetypes="ccccccc"/>
    </clipPath>
    <clipPath clipPathUnits="userSpaceOnUse" id="clipPath23289">
      <path style="opacity: 0.39823; color: rgb(0, 0, 0); fill: rgb(76, 255, 245); fill-opacity: 1; fill-rule: nonzero; stroke: none; stroke-width: 0; marker: none; visibility: visible; display: inline; overflow: visible;" d="m 507.96393,172.04108 c 5.63585,4.14521 4.40861,7.03756 4.24526,7.42553 -0.16336,0.38797 -0.45419,0.84609 -0.55527,0.75946 0,0 -0.23077,1.39392 -0.96715,1.52387 0,0 0.7281,2.05291 -3.23333,2.91054 -3.96143,0.85763 -12.08849,-2.45037 -11.76178,-7.80034 0.32672,-5.34998 9.00511,-7.35111 12.27227,-4.81906 z" id="path23291" inkscape:connector-curvature="0" sodipodi:nodetypes="csccssc"/>
    </clipPath>
    <clipPath clipPathUnits="userSpaceOnUse" id="clipPath22919">
      <path style="opacity: 0.39823; color: rgb(0, 0, 0); fill: rgb(76, 255, 245); fill-opacity: 1; fill-rule: nonzero; stroke: none; stroke-width: 0; marker: none; visibility: visible; display: inline; overflow: visible;" d="m 533.24358,180.67863 c -0.16336,1.16393 0.51049,2.00114 2.00114,1.20477 -1.74256,1.5022 -0.71572,1.26164 1.42124,3.05207 2.13697,1.79043 11.4934,0.98185 12.12872,0.5198 0.63531,-0.46205 8.02805,-6.41089 8.0858,-8.66336 0.0578,-2.25248 -1.90593,-15.01651 -5.19801,-17.78878 -3.29208,-2.77228 -16.4604,-0.57756 -19.75248,-0.0578 -3.29208,0.5198 -10.16501,5.71782 -9.93399,5.77558 0.23102,0.0577 2.83003,15.42079 2.77228,15.65181 -0.0578,0.23102 2.42574,4.15842 2.83003,3.92739 0.40429,-0.23102 3.95121,-3.17246 3.95121,-3.17246 0,0 1.59196,0.89865 1.69406,-0.44906 z" id="path22921" inkscape:connector-curvature="0" sodipodi:nodetypes="ccsssssssscc"/>
    </clipPath>
    <clipPath clipPathUnits="userSpaceOnUse" id="clipPath23295">
      <path style="opacity: 0.39823; color: rgb(0, 0, 0); fill: rgb(76, 255, 245); fill-opacity: 1; fill-rule: nonzero; stroke: none; stroke-width: 0; marker: none; visibility: visible; display: inline; overflow: visible;" d="m 525.58617,181.98549 c 0.89522,0.98185 2.40724,0.64233 3.04255,0.12252 0.16124,0.72559 12.13955,0.23486 11.90471,0 -0.23482,-0.23483 4.09811,-23.83249 0,-26.19853 -4.09811,-2.36605 -15.11061,0 -21.31822,0 -6.2076,0 -9.48879,8.76153 -8.08444,14.00265 1.40436,5.24112 4.81751,7.15803 7.00687,9.97898 2.18936,2.82095 7.44853,2.09438 7.44853,2.09438 z" id="path23297" inkscape:connector-curvature="0" sodipodi:nodetypes="ccsssssc"/>
    </clipPath>
    <clipPath clipPathUnits="userSpaceOnUse" id="clipPath23299">
      <path style="opacity: 0.39823; color: rgb(0, 0, 0); fill: rgb(76, 255, 245); fill-opacity: 1; fill-rule: nonzero; stroke: none; stroke-width: 0; marker: none; visibility: visible; display: inline; overflow: visible;" d="m 525.58617,181.98549 c 0.89522,0.98185 2.40724,0.64233 3.04255,0.12252 0.16124,0.72559 12.13955,0.23486 11.90471,0 -0.23482,-0.23483 4.09811,-23.83249 0,-26.19853 -4.09811,-2.36605 -15.11061,0 -21.31822,0 -6.2076,0 -9.48879,8.76153 -8.08444,14.00265 1.40436,5.24112 4.81751,7.15803 7.00687,9.97898 2.18936,2.82095 7.44853,2.09438 7.44853,2.09438 z" id="path23301" inkscape:connector-curvature="0" sodipodi:nodetypes="ccsssssc"/>
    </clipPath>
  </defs>
  <sodipodi:namedview id="base" pagecolor="#7d848b" bordercolor="#666666" borderopacity="1.0" inkscape:pageopacity="0" inkscape:pageshadow="2" inkscape:zoom="1.145268" inkscape:cx="-11.679581" inkscape:cy="158.68795" inkscape:document-units="px" inkscape:current-layer="layer1" showgrid="false" inkscape:pagecheckerboard="false" showborder="true" units="px" inkscape:window-width="1920" inkscape:window-height="1017" inkscape:window-x="-8" inkscape:window-y="-8" inkscape:window-maximized="1" inkscape:showpageshadow="false" guidetolerance="28" fit-margin-top="8" fit-margin-left="8" fit-margin-right="8" fit-margin-bottom="8">
    <inkscape:grid type="xygrid" id="grid24034" spacingx="1px" spacingy="1px" empspacing="8" visible="true" enabled="true" snapvisiblegridlinesonly="true" originx="-162.57561px" originy="569.86267px"/>
  </sodipodi:namedview>
  <metadata id="metadata23486">
    <rdf:RDF>
      <cc:Work rdf:about="">
        <dc:format>image/svg+xml</dc:format>
        <dc:type rdf:resource="http://purl.org/dc/dcmitype/StillImage"/>
        <dc:title/>
        <cc:license rdf:resource=""/>
        <dc:creator>
          <cc:Agent>
            <dc:title>Robert Brooks</dc:title>
          </cc:Agent>
        </dc:creator>
      </cc:Work>
    </rdf:RDF>
  </metadata>
  <g inkscape:label="Layer 1" inkscape:groupmode="layer" id="layer1" transform="translate(-43.014799,-412.72259)">
    <g id="g26502" transform="translate(-236.01023,461.58015)">
      <path id="path26457" transform="matrix(0.26458336,0,0,0.26458336,320.08182,94.083721)" d="m -63.4375,-453.1875 c -3.225986,0.035 -7.483664,0.23661 -13.21875,0.65625 -11.828614,0.86551 -18.288314,4.10713 -21.09375,7.125 -0.798342,0.1726 -1.557639,0.33095 -2.25,0.5 0.585202,-0.90649 2.473915,-4.52604 -4.625,-4.28125 -8.11305,0.27976 -26.57442,1.40625 -28.8125,1.40625 -1.76064,0 11.70697,5.715 23.9375,5.15625 -16.76821,3.96263 -24.07399,9.71025 -25.625,9.96875 -1.67856,0.27976 7.26494,3.33332 15.9375,1.375 8.67257,-1.95832 13.44644,-4.47024 15.125,-4.75 1.67856,-0.27976 4.187568,5.02678 15.9375,4.1875 4.148366,-0.29631 12.03274,19.04463 12.3125,15.6875 0.27976,-3.35712 -3.644333,-17.07144 -1.40625,-18.75 2.238082,-1.67857 25.467294,0.83038 31.0625,4.1875 5.595205,3.35712 1.388373,-3.3646 -1.96875,-7.28125 -2.637548,-3.07714 -11.179702,-5.60962 -21.21875,-7.375 16.329555,-5.59254 21.441377,-1.87177 18.4375,-4.375 -2.517842,-2.0982 -2.853293,-3.54241 -12.53125,-3.4375 z" style="opacity: 0.25; color: rgb(0, 0, 0); fill: rgb(0, 0, 0); fill-opacity: 1; fill-rule: nonzero; stroke: none; stroke-width: 0; marker: none; visibility: visible; display: inline; overflow: visible;" inkscape:connector-curvature="0" gds_color="shadow" gds_switchable="shadow" gds_opacity="shadow"/>
      <g transform="translate(284.00621,60.714379)" id="g26419">
        <g transform="matrix(-0.45548392,0,0,0.45548392,193.8774,-58.113942)" id="g24821">
          <path style="color: rgb(0, 0, 0); fill: rgb(0, 129, 118); fill-opacity: 1; fill-rule: nonzero; stroke: rgb(18, 18, 18); stroke-width: 19.7592; stroke-linejoin: round; stroke-miterlimit: 4; stroke-opacity: 1; stroke-dasharray: none; marker: none; visibility: visible; display: inline; overflow: visible;" d="m 345.6875,-627.80252 c -0.7076,0.0199 -1.41711,0.0648 -2.125,0.125 -0.70753,0.0601 -1.41974,0.14658 -2.125,0.25 -0.0308,0.005 -0.0629,-0.005 -0.0937,0 -0.66865,0.0999 -1.33574,0.23331 -2,0.375 -0.70559,0.15051 -1.39566,0.33057 -2.09375,0.53125 -0.69219,0.19898 -1.38025,0.43612 -2.0625,0.6875 -1.37006,0.5048 -2.71678,1.10906 -4.03125,1.84375 -0.65179,0.3643 -1.30318,0.76211 -1.9375,1.1875 -8.37074,5.61361 -15.10403,16.66587 -17.3125,36.65625 -0.10826,0.9772 -0.19343,1.9814 -0.28125,3 -0.0649,0.7698 -0.13548,1.54903 -0.1875,2.34375 -1.21992,17.09609 6.95831,4.09594 6.51187,-0.50743 0.27731,3.11997 4.06718,-15.85606 8.76954,-10.47 1.55421,1.78019 4.70882,27.30642 8.84359,16.28993 -0.0117,-1.65606 -0.004,-3.23769 0.0224,-4.74852 0.42509,-24.11619 5.73409,-30.192 16.10257,-32.97023 16.01873,-4.29221 32.13619,10.22882 33.71875,9.4375 0.42768,-0.21353 0.58451,-0.50792 0.65625,-0.71875 0.0239,0.0161 0.0403,0.054 0.0625,0.0625 0.006,0.003 0.0253,-0.002 0.0312,0 0.10822,0.0255 0.20466,-0.0284 0.25,-0.1875 0.0479,-0.16814 0.0531,-0.42733 0,-0.78125 -0.003,-0.0208 0.004,-0.0411 0,-0.0625 -0.006,-0.0372 -0.0241,-0.086 -0.0312,-0.125 -0.03,-0.15809 -0.073,-0.31318 -0.125,-0.5 -0.0424,-0.15493 -0.097,-0.32577 -0.15625,-0.5 -0.0285,-0.083 -0.03,-0.16283 -0.0625,-0.25 -0.10137,-0.27358 -0.23112,-0.56176 -0.375,-0.875 -0.43541,-0.9488 -1.0629,-2.05242 -1.96875,-3.3125 -0.29778,-0.41534 -0.61088,-0.83751 -0.96875,-1.28125 -0.36571,-0.45367 -0.75439,-0.89468 -1.1875,-1.375 -0.42235,-0.46932 -0.85252,-0.94542 -1.34375,-1.4375 -0.98244,-0.98439 -2.12192,-2.00416 -3.40625,-3.0625 -0.21922,-0.18065 -0.48274,-0.38158 -0.78125,-0.59375 -0.0218,-0.0155 -0.0403,-0.0468 -0.0625,-0.0625 -0.26654,-0.18741 -0.58322,-0.38703 -0.90625,-0.59375 -0.36489,-0.23351 -0.78632,-0.46603 -1.21875,-0.71875 -0.13071,-0.0764 -0.26968,-0.17224 -0.40625,-0.25 -0.30434,-0.17302 -0.63649,-0.35259 -0.96875,-0.53125 -0.50092,-0.26935 -1.03351,-0.53531 -1.59375,-0.8125 -0.41477,-0.20524 -0.86765,-0.41834 -1.3125,-0.625 -0.14428,-0.0669 -0.29021,-0.15183 -0.4375,-0.21875 -0.37446,-0.17021 -0.76308,-0.33089 -1.15625,-0.5 -0.23312,-0.10015 -0.47939,-0.21312 -0.71875,-0.3125 -0.52528,-0.21798 -1.07151,-0.44418 -1.625,-0.65625 -0.13324,-0.051 -0.27146,-0.10568 -0.40625,-0.15625 -0.57815,-0.21691 -1.17638,-0.4184 -1.78125,-0.625 -0.12186,-0.0416 -0.25212,-0.0839 -0.375,-0.125 -0.68609,-0.22944 -1.40951,-0.44511 -2.125,-0.65625 -0.0528,-0.0156 -0.10331,-0.0471 -0.15625,-0.0625 -1.54339,-0.45076 -3.13145,-0.85699 -4.78125,-1.1875 -0.11219,-0.0225 -0.23116,-0.0407 -0.34375,-0.0625 -0.71906,-0.1391 -1.45413,-0.26543 -2.1875,-0.375 -0.0423,-0.006 -0.0826,-0.025 -0.125,-0.0312 -0.43345,-0.0636 -0.875,-0.10405 -1.3125,-0.15625 -0.66624,-0.0796 -1.32624,-0.13672 -2,-0.1875 -0.95169,-0.0717 -1.91382,-0.11736 -2.875,-0.125 -0.48077,-0.004 -1.25845,0.44762 -1.4375,0 z" transform="matrix(0.26458336,0,0,0.26458336,320.08182,94.083721)" id="path24823" inkscape:connector-curvature="0" sodipodi:nodetypes="csccsssssccccscssccccccccccccccccsccsccsccccccscccccccccscsc"/>
          <path sodipodi:nodetypes="scssccs" inkscape:connector-curvature="0" id="path24825" d="m 419.92274,-68.660324 c 1.53506,1.530935 2.20639,2.278771 2.32239,2.743513 0,0 -0.009,0.16301 -0.19155,0.254152 -0.41872,0.209369 -4.67933,-3.634948 -8.91762,-2.499301 -2.91519,0.781123 -4.32299,2.547923 -4.27065,9.9802 0.13609,3.826319 -5.60936,3.164789 -5.60936,0.579458 0.96226,-20.651554 14.81164,-12.908189 16.66679,-11.058022 z" style="color: rgb(0, 0, 0); fill: rgb(0, 129, 118); fill-opacity: 1; fill-rule: nonzero; stroke: none; stroke-width: 0; marker: none; visibility: visible; display: inline; overflow: visible;"/>
          <path style="color: rgb(0, 0, 0); fill: rgb(0, 212, 194); fill-opacity: 1; fill-rule: nonzero; stroke: none; stroke-width: 0; marker: none; visibility: visible; display: inline; overflow: visible;" d="m 385.94758,-604.13682 c -2.96731,-3.36295 -19.30446,-15.18417 -35.50585,-11.64329 -14.00025,3.05982 -19.2904,13.81931 -20.47733,25.68854 -1.18692,11.86922 -0.28138,15.58393 -0.0339,19.41475 0.36642,9.16051 -19.3864,8.37851 -18.79294,-1.39904 0.66958,-79.24003 75.98067,-30.73423 74.81002,-32.06096 z" id="path24827" inkscape:connector-curvature="0" transform="matrix(0.26458336,0,0,0.26458336,320.08182,94.083721)" sodipodi:nodetypes="sssccs"/>
          <path sodipodi:nodetypes="cscccscc" inkscape:connector-curvature="0" style="opacity: 0.699115; color: rgb(0, 0, 0); fill: rgb(0, 129, 118); fill-opacity: 1; fill-rule: nonzero; stroke: none; stroke-width: 0; marker: none; visibility: visible; display: inline; overflow: visible;" d="m 330.96875,-596.45877 c -2.29344,3.81104 -3.79701,10.21226 -5.3125,12.59375 -1.40754,2.21186 -10.49561,3.40899 -13.71875,-2.53125 -0.47631,4.22086 -0.76979,8.82037 -0.8125,13.875 -0.59346,9.77755 19.17892,10.56676 18.8125,1.40625 -0.24748,-3.83082 -1.15567,-7.53703 0.0312,-19.40625 0.20187,-2.01864 0.5381,-4.01547 1,-5.9375 z" transform="matrix(0.26458336,0,0,0.26458336,320.08182,94.083721)" id="path24829"/>
          <path sodipodi:nodetypes="sccssss" inkscape:connector-curvature="0" style="color: rgb(0, 0, 0); fill: rgb(0, 232, 211); fill-opacity: 1; fill-rule: nonzero; stroke: none; stroke-width: 0; marker: none; visibility: visible; display: inline; overflow: visible;" d="m 345.6875,-627.80252 c -5.6571,0.1589 -11.36713,1.57874 -16.46875,5 9.67889,-1.87907 13.25245,6.94945 9.84375,12.0625 2.91752,-2.53227 6.65137,-4.43638 11.375,-5.46875 16.20139,-3.54088 32.53269,8.26205 35.5,11.625 1.17065,1.32673 1.11841,-5.12707 -9.15625,-13.59375 -3.46288,-2.85353 -17.1183,-10.01755 -31.09375,-9.625 z" transform="matrix(0.26458336,0,0,0.26458336,320.08182,94.083721)" id="path24831"/>
        </g>
        <g id="g25134" transform="translate(-328.49451,-33.016572)">
          <g id="g24967" transform="matrix(0.94505622,0.0257456,-0.0257456,0.94505622,-32.487548,-12.646943)">
            <path style="color: rgb(0, 0, 0); fill: rgb(0, 232, 211); fill-opacity: 1; fill-rule: nonzero; stroke: rgb(18, 18, 18); stroke-width: 2.51876; stroke-linejoin: round; stroke-miterlimit: 4; stroke-opacity: 1; stroke-dasharray: none; marker: none; visibility: visible; display: inline; overflow: visible;" d="m 392.52035,-59.053081 c -0.5234,-9.525877 2.14951,-13.923015 5.10918,-15.257877 3.7019,-1.669619 6.59702,1.039362 7.43446,2.818921 0.83744,1.779559 0.75072,3.331798 0.22732,2.913079 -0.5234,-0.418719 -2.45626,-3.54116 -4.3405,-3.017759 -1.88424,0.523399 -3.24351,5.013856 -3.30114,9.507918 -0.0198,1.541891 0.30364,7.768628 0.19216,9.732165 -0.11937,2.102525 -4.34333,-8.177853 -5.06021,-0.819884 -0.0869,0.891693 -0.26127,-5.876563 -0.26127,-5.876563 z" id="path24969" inkscape:connector-curvature="0" sodipodi:nodetypes="csssssssc"/>
            <path sodipodi:nodetypes="csssssssc" inkscape:connector-curvature="0" id="path24971" d="m 392.52035,-59.053081 c -0.5234,-9.525877 2.14951,-13.923015 5.10918,-15.257877 3.7019,-1.669619 6.59702,1.039362 7.43446,2.818921 0.83744,1.779559 0.75072,3.331798 0.22732,2.913079 -0.5234,-0.418719 -2.45626,-3.54116 -4.3405,-3.017759 -1.88424,0.523399 -3.24351,5.013856 -3.30114,9.507918 -0.0198,1.541891 0.30364,8.943042 0.19216,10.906579 -0.11937,2.102525 -4.97558,2.639828 -5.2168,0.589412 -0.10468,-0.889779 -0.10468,-8.460273 -0.10468,-8.460273 z" style="color: rgb(0, 0, 0); fill: rgb(0, 212, 194); fill-opacity: 1; fill-rule: nonzero; stroke: none; stroke-width: 0; marker: none; visibility: visible; display: inline; overflow: visible;"/>
            <path inkscape:connector-curvature="0" id="path24973" d="m 399.92812,-74.836218 c -0.71949,0.0017 -1.48878,0.163939 -2.29857,0.529167 -2.33592,1.053539 -4.4954,4.012499 -5.04362,9.897071 0.78333,-3.484991 1.84018,-7.159067 5.01055,-8.458399 2.09328,-0.857904 2.31861,0.601414 2.24069,2.091862 0.34267,-0.424286 0.71985,-0.708456 1.11621,-0.818555 1.88424,-0.523401 3.81742,2.599185 4.34082,3.017904 0.5234,0.418719 0.60593,-1.139126 -0.23151,-2.918685 -0.65425,-1.39028 -2.56498,-3.346598 -5.13457,-3.340365 z" style="color: rgb(0, 0, 0); fill: rgb(0, 232, 211); fill-opacity: 1; fill-rule: nonzero; stroke: rgb(18, 18, 18); stroke-width: 0; stroke-linecap: round; stroke-linejoin: round; stroke-miterlimit: 4; stroke-opacity: 1; stroke-dasharray: none; stroke-dashoffset: 37.6; marker: none; visibility: visible; display: inline; overflow: visible;"/>
            <path sodipodi:nodetypes="cscscsscsc" inkscape:connector-curvature="0" id="path24975" transform="matrix(0.26458336,0,0,0.26458336,320.08182,94.083721)" d="m 307.3125,-628.11955 c -1.66061,0.0568 -2.52997,0.44976 -4.35981,1.46359 -14.03872,7.77821 -12.23922,67.97996 -11.29644,81.71898 1.29678,-1.09951 2.15734,-2.4617 2.25,-4.09375 0.42134,-7.42124 -0.82483,-35.39165 -0.75,-41.21927 0.21781,-16.98543 5.37846,-33.9593 12.5,-35.9375 7.12154,-1.97821 14.42805,9.82369 16.40625,11.40625 0.40135,0.32108 0.71866,0.3309 0.96875,0.0937 -3.19104,-5.80467 -8.64108,-13.67412 -15.71875,-13.43205 z" style="color: rgb(0, 0, 0); fill: rgb(0, 129, 118); fill-opacity: 1; fill-rule: nonzero; stroke: rgb(18, 18, 18); stroke-width: 0; stroke-linecap: round; stroke-linejoin: round; stroke-miterlimit: 4; stroke-opacity: 1; stroke-dasharray: none; stroke-dashoffset: 37.6; marker: none; visibility: visible; display: inline; overflow: visible;"/>
            <path sodipodi:nodetypes="csccssccc" id="path24977" transform="matrix(0.26458336,0,0,0.26458336,320.08182,94.083721)" d="m 294.5625,-606.46875 c 0,0 -2.79301,8.30304 -5.5625,10.28125 -2.67356,1.90969 -13.45051,2.14873 -14.90625,-3.53125 -0.6083,6.10235 -0.74523,13.06178 -0.3125,20.9375 0,0 0.0106,28.60633 0.40625,31.96927 0.9117,7.7496 19.26759,5.7278 19.71875,-2.21875 0.42134,-7.42124 -0.82483,-35.39165 -0.75,-41.21927 0.0706,-5.50691 0.68268,-11.00647 1.6875,-16 -0.11525,-0.1023 -0.28125,-0.21875 -0.28125,-0.21875 z" style="opacity: 0.40708; color: rgb(0, 0, 0); fill: rgb(0, 129, 118); fill-opacity: 1; fill-rule: nonzero; stroke: rgb(18, 18, 18); stroke-width: 0; stroke-linecap: round; stroke-linejoin: round; stroke-miterlimit: 4; stroke-opacity: 1; stroke-dasharray: none; stroke-dashoffset: 37.6; marker: none; visibility: visible; display: inline; overflow: visible;" inkscape:connector-curvature="0"/>
          </g>
          <g id="g24801" transform="matrix(0.70400805,0,0,0.70400805,15.159588,-11.668861)">
            <g id="g24803">
              <path sodipodi:nodetypes="ccccccscccscsc" inkscape:connector-curvature="0" id="path24805" transform="matrix(0.26458336,0,0,0.26458336,320.08182,94.083721)" d="m 499.375,-662.78125 c -2.92098,0.0484 -5.88813,0.60601 -8.78125,1.71875 -36.31109,15.45917 -27.24835,65.99965 -22.90625,66.84375 0.002,-0.0182 -0.002,-0.0441 0,-0.0625 0.83762,0.35636 3.03425,0.002 3.34375,0.0625 1.16991,-8.8675 12.05704,-41.51856 30.93853,-50.21927 11.62769,11.78882 12.58011,57.26941 11.55454,71.56374 -1.53453,21.38819 5.05452,-30.31509 5.65058,-37.02075 13.69673,-0.24822 -12.95531,-10.16686 6.67785,-6.4751 -0.61159,-5.96592 -9.04722,33.05918 3.09675,40.47301 11.26249,13.49208 9.75692,-36.17494 5.04813,-54.95968 -1.20471,-4.80593 -3.48162,-10.28029 -6.12787,-14.42113 -5.35705,-9.27869 -15.9799,-17.71045 -28.49479,-17.50312 z" style="color: rgb(0, 0, 0); fill: rgb(0, 184, 168); fill-opacity: 1; fill-rule: nonzero; stroke: rgb(18, 18, 18); stroke-width: 12.7839; stroke-linejoin: round; stroke-miterlimit: 4; stroke-opacity: 1; stroke-dasharray: none; marker: none; visibility: visible; display: inline; overflow: visible;"/>
              <path style="color: rgb(0, 0, 0); fill: rgb(0, 184, 168); fill-opacity: 1; fill-rule: nonzero; stroke: none; stroke-width: 0; marker: none; visibility: visible; display: inline; overflow: visible;" d="m 493.43193,-649.54817 c 25.28124,2.39713 19.29863,83.83954 19.29863,83.83954 -0.27976,11.74993 27.97462,9.18409 27.36709,1.21503 -0.33864,-4.44201 0,-88.3637 -31.25562,-94.29831 -5.56528,-1.0567 -15.4101,9.24374 -15.4101,9.24374 z" id="path24807" inkscape:connector-curvature="0" transform="matrix(0.26458336,0,0,0.26458336,320.08182,94.083721)" sodipodi:nodetypes="ccssc"/>
              <path style="color: rgb(0, 0, 0); fill: rgb(0, 155, 141); fill-opacity: 1; fill-rule: nonzero; stroke: none; stroke-width: 0; marker: none; visibility: visible; display: inline; overflow: visible;" d="m 507.75,-658.875 c -5.66723,0.26095 -14.3125,9.3125 -14.3125,9.3125 7.21816,0.68441 11.8871,5.70767 14.875,12.5 19.48779,3.98769 26.03125,16.40625 26.03125,16.40625 0,0 0.95862,-0.44645 2.21875,-1.28125 -3.67672,-16.4307 -11.36196,-33.73803 -27.71875,-36.84375 -0.34783,-0.066 -0.71593,-0.11115 -1.09375,-0.0937 z" transform="matrix(0.26458336,0,0,0.26458336,320.08182,94.083721)" id="path24809" inkscape:connector-curvature="0"/>
              <path inkscape:connector-curvature="0" id="path24811" transform="matrix(0.37582433,0,0,0.37582433,432.7462,150.5995)" d="m 76.21875,-587.5 c -0.02996,0.38694 -0.02239,0.82888 0,1.34375 0.196953,4.52993 -1.575378,15.55383 -8.46875,13.78125 -2.490841,-0.6405 -4.637202,-3.31318 -6.875,-7.25 1.460592,15.23191 0.3125,30.96875 0.3125,30.96875 -0.0062,0.2585 -5.97e-4,0.51099 0.03125,0.75 0.955409,7.17025 18.466151,5.65601 19.21875,0.625 0.0056,-0.1013 0.0079,-0.20937 0,-0.3125 -0.01076,-0.14112 -0.02049,-1.49427 -0.03125,-2.0625 -0.138795,-5.06356 -0.537749,-22.15573 -4.1875,-37.84375 z" style="color: rgb(0, 0, 0); fill: rgb(0, 178, 163); fill-opacity: 1; fill-rule: nonzero; stroke: none; stroke-width: 0; marker: none; visibility: visible; display: inline; overflow: visible;"/>
              <path style="color: rgb(0, 0, 0); fill: rgb(0, 129, 118); fill-opacity: 1; fill-rule: nonzero; stroke: none; stroke-width: 0; marker: none; visibility: visible; display: inline; overflow: visible;" d="m 507.75,-658.875 c -0.51919,0.0239 -1.06464,0.15473 -1.625,0.3125 5.40705,1.2417 9.85245,3.96437 13.5,7.6875 -5.57253,-2.39691 -12.55852,-3.42298 -19.46875,-2.84375 -30.3428,15.31966 -36.97732,51.74234 -32.75,59.21875 0.39307,0.69515 3.2678,0.21182 3.625,0.28125 1.33254,-10.10015 16.73511,-51.79801 40.32798,-52.86705 11.03135,-0.49985 16.13291,7.76334 17.3745,10.78722 7.25559,17.67087 7.66729,66.76124 7.76627,76.39955 2.28952,-1.15939 3.49925,-2.72297 3.59375,-4.59375 0.16575,-3.28129 1.41823,-58.73807 -10.5,-77.25722 -1.30944,-1.98951 -1.68325,-3.17935 -2.5625,-4.21875 -0.006,-0.006 0.006,-0.0254 0,-0.0312 -4.38611,-6.44214 -10.27415,-11.27871 -18.1875,-12.78125 -0.34783,-0.066 -0.71593,-0.11115 -1.09375,-0.0937 z m -7.59375,5.15625 c 1.12994,-0.57049 2.3036,-1.11564 3.5,-1.625 l -7.96875,2.21875 c 1.47294,-0.27622 2.97156,-0.46825 4.46875,-0.59375 z m -4.46875,0.59375 c -2.36656,0.4438 -4.67549,1.09153 -6.875,1.9375 z" transform="matrix(0.26458336,0,0,0.26458336,320.08182,94.083721)" id="path24813" inkscape:connector-curvature="0" sodipodi:nodetypes="ccccccsscsccccscccccccc"/>
              <path style="color: rgb(0, 0, 0); fill: rgb(0, 212, 194); fill-opacity: 1; fill-rule: nonzero; stroke: none; stroke-width: 0; marker: none; visibility: visible; display: inline; overflow: visible;" d="m 490.59456,-661.07799 c -36.31109,15.45917 -27.26116,66.01919 -22.91906,66.86329 1.65964,-12.57968 26.55928,-74.77286 60.10929,-50.64202 -4.59209,-11.4678 -21.76024,-22.15588 -37.19023,-16.22127 z" id="path24815" inkscape:connector-curvature="0" transform="matrix(0.26458336,0,0,0.26458336,320.08182,94.083721)" sodipodi:nodetypes="cccc"/>
              <path style="color: rgb(0, 0, 0); fill: rgb(0, 155, 141); fill-opacity: 1; fill-rule: nonzero; stroke: none; stroke-width: 0; marker: none; visibility: visible; display: inline; overflow: visible;" d="m 485.75,-633.25 c -5.84349,5.14609 -13.99265,19.31648 -17.15625,19.84375 -1.49248,0.24875 -3.57141,-0.66274 -5.125,-3.03125 -0.42492,12.13637 2.33705,21.85295 4.21875,22.21875 0.82875,-6.28177 7.46025,-24.93322 18.0625,-39.03125 z" transform="matrix(0.26458336,0,0,0.26458336,320.08182,94.083721)" id="path24817" inkscape:connector-curvature="0"/>
              <path style="color: rgb(0, 0, 0); fill: rgb(0, 232, 211); fill-opacity: 1; fill-rule: nonzero; stroke: none; stroke-width: 0; marker: none; visibility: visible; display: inline; overflow: visible;" d="m 499.375,-662.78125 c -2.92098,0.0484 -5.88813,0.60601 -8.78125,1.71875 -5.87068,2.4994 -10.53916,5.89902 -14.25,9.875 8.0016,-0.69841 14.42262,4.35241 17.75,8.75 9.44909,-8.29765 20.94117,-11.57404 33.6875,-2.40625 -3.73107,-9.31759 -15.74867,-18.14719 -28.40625,-17.9375 z" transform="matrix(0.26458336,0,0,0.26458336,320.08182,94.083721)" id="path24819" inkscape:connector-curvature="0"/>
            </g>
          </g>
          <g id="g24847" transform="matrix(-0.72014754,0.00508241,0.00464401,0.65802846,666.91273,-25.859432)">
            <g transform="matrix(0.93566362,0,0,0.93566362,29.210488,-4.935018)" id="g24849">
              <path sodipodi:nodetypes="cccsssssssscscscccccsc" inkscape:connector-curvature="0" id="path24851" transform="matrix(-0.39228827,0.0185532,0.01695283,0.429321,492.00535,187.99099)" d="m 75.96875,-616.03125 c -1.389479,0.11662 -2.823741,0.66819 -4.09375,1.84375 -4.085284,3.10201 -4.784457,11.73528 -4.75,20.71875 -0.397596,7.18824 5.71476,13.49149 5.815077,19.0869 0.09079,5.06423 -4.678949,28.61947 -4.376376,36.5524 0.676445,17.7352 6.671114,0.70995 5.826145,-12.27319 -0.103107,-1.58427 -4.384828,-4.98724 -3.171702,-8.31331 1.687937,-4.62788 3.330227,0.23609 5.999448,0.0459 4.022691,-0.28661 -2.595035,1.76913 -1.915452,5.4817 1.825774,9.97424 10.807132,31.04706 9.666522,14.22452 -0.759588,-11.20295 -3.073358,-37.95266 -2.999912,-38.52368 0.05502,-0.42776 -0.233246,-2.68142 -0.5625,-5.71875 -0.468277,-6.31422 -1.52391,-18.50444 1.1875,-24.96875 0.192457,-0.45884 0.424288,-0.88678 0.65625,-1.28125 0.06985,-0.29396 0.08464,-0.58463 0.09375,-0.875 0.02733,-0.87112 -0.189288,-1.70467 -0.625,-2.46875 -0.01815,-0.0318 -0.04366,-0.0622 -0.0625,-0.0937 -0.153966,-0.25776 -0.333972,-0.51389 -0.53125,-0.75 -0.03138,-0.0392 -0.06136,-0.0864 -0.09375,-0.125 -0.136374,-0.15508 -0.283995,-0.29407 -0.4375,-0.4375 -1.405753,-1.40332 -3.469517,-2.30591 -5.625,-2.125 z" style="color: rgb(0, 0, 0); fill: rgb(0, 150, 138); fill-opacity: 1; fill-rule: nonzero; stroke: rgb(18, 18, 18); stroke-width: 10; stroke-linejoin: round; stroke-opacity: 1; marker: none; visibility: visible; display: inline; overflow: visible;"/>
              <path style="color: rgb(0, 0, 0); fill: rgb(0, 184, 168); fill-opacity: 1; fill-rule: nonzero; stroke: none; stroke-width: 0; marker: none; visibility: visible; display: inline; overflow: visible;" d="m 487.34239,-627.66361 c 8.11305,13.70825 3.54131,49.37851 3.91665,51.75565 0.17975,1.13844 -1.90407,72.25925 -2.30843,79.07175 -0.77713,13.09312 25.81033,11.44767 24.82145,-0.0749 -0.17414,-2.02912 -0.12056,-77.46968 -0.0781,-78.77259 0.51716,-15.83127 -2.01248,-53.65848 -9.84577,-60.93225 -7.83328,-7.27377 -18.46418,1.3988 -16.50586,8.95234 z" id="path24853" inkscape:connector-curvature="0" transform="matrix(0.26458336,0,0,0.26458336,320.08182,94.083721)" sodipodi:nodetypes="cssssscc"/>
              <path inkscape:connector-curvature="0" id="path24855" transform="matrix(0.26458336,0,0,0.26458336,320.08182,94.083721)" d="m 496.90625,-639.34375 c -5.88643,0.24879 -10.97004,6.2584 -9.5625,11.6875 4.46128,7.53802 5.05945,19.74435 4.78125,29.625 10.53746,-10.41647 15.47349,-8.58522 17.03125,-7.25 1.04684,0.89729 2.66888,7.28683 3.9375,13.0625 -0.11192,-15.15022 -3.12178,-38.71576 -9.25,-44.40625 -2.20311,-2.04575 -4.63411,-2.8161 -6.9375,-2.71875 z" style="color: rgb(0, 0, 0); fill: rgb(0, 131, 120); fill-opacity: 1; fill-rule: nonzero; stroke: none; stroke-width: 0; marker: none; visibility: visible; display: inline; overflow: visible;"/>
              <path sodipodi:nodetypes="cscsssccssscc" inkscape:connector-curvature="0" id="path25131" transform="matrix(-0.39264463,0.00303267,0.00277107,0.429711,484.69426,189.29872)" d="m 79.53125,-615.8125 c -1.392785,0.0664 -2.844604,0.58983 -4.15625,1.71875 -2.188764,1.88384 -3.724371,7.0504 -4.75,13.125 5.100452,3.10631 10.232246,10.90061 10.5,19.46875 0.279761,8.95233 -0.836336,33.83333 -5.3125,31.875 -4.476164,-1.95832 -5.87798,-13.40486 -6.4375,-30.75 -0.04527,-1.40339 -0.156494,-2.33471 -0.34375,-2.90625 -0.06999,2.55462 -0.07792,4.93028 0,6.75 0.0343,0.80199 0.389771,47.25296 0.28125,48.5031 -0.616255,7.09907 17.299285,7.99515 16.71875,-0.0625 -0.302066,-4.19249 -2.022422,-47.98882 -1.90625,-48.6906 0.242581,-1.46537 -2.969636,-23.39634 2.4375,-31.875 0.965044,-3.49498 -2.852895,-7.3553 -7.03125,-7.15625 z" style="color: rgb(0, 0, 0); fill: rgb(0, 155, 141); fill-opacity: 1; fill-rule: nonzero; stroke: none; stroke-width: 0; marker: none; visibility: visible; display: inline; overflow: visible;"/>
            </g>
            <g transform="matrix(0.76312517,0,0,0.93238452,105.90121,-4.4118137)" id="g24857">
              <path style="color: rgb(0, 0, 0); fill: rgb(0, 150, 138); fill-opacity: 1; fill-rule: nonzero; stroke: rgb(18, 18, 18); stroke-width: 15.499; stroke-linecap: round; stroke-linejoin: round; stroke-miterlimit: 4; stroke-opacity: 1; stroke-dasharray: none; stroke-dashoffset: 37.6; marker: none; visibility: visible; display: inline; overflow: visible;" d="m 492.9376,-641.93139 c -21.54154,12.0297 -7.55352,63.78535 -6.15472,65.18415 0.88317,0.88317 0.28781,-4.17167 5.2225,-15.16004 9.56962,-21.30927 -9.01683,-0.36763 -8.09591,-2.52645 1.94186,-4.55209 -0.63853,-31.12767 4.65576,-32.47143 14.49231,-3.67833 33.66744,4.86274 25.6149,-10.42833 -4.41388,-8.38159 -19.28421,-5.9967 -21.24253,-4.5979 z" id="path24859" inkscape:connector-curvature="0" transform="matrix(0.26458336,0,0,0.26458336,320.08182,94.083721)" sodipodi:nodetypes="csssssc"/>
              <path sodipodi:nodetypes="csssc" transform="matrix(0.26458336,0,0,0.26458336,320.08182,94.083721)" inkscape:connector-curvature="0" id="path24861" d="m 492.9376,-641.93139 c -21.54154,12.0297 -7.55353,63.78535 -6.15472,65.18415 1.3988,1.3988 5.76414,-23.5743 16.50585,-39.4462 6.24308,-9.22474 17.34514,-16.2261 9.79161,-22.94034 -7.55353,-6.71425 -18.18442,-4.19641 -20.14274,-2.79761 z" style="color: rgb(0, 0, 0); fill: rgb(0, 212, 194); fill-opacity: 1; fill-rule: nonzero; stroke: none; stroke-width: 0; marker: none; visibility: visible; display: inline; overflow: visible;"/>
              <path id="path24863" transform="matrix(0.3467103,0,0,0.28377064,280.66249,105.63832)" d="m 495.9375,-640.78125 c -2.93552,-0.0326 -5.31528,0.87914 -6.0625,1.53125 -5.86646,4.00271 -8.27687,12.72403 -8.90625,22.34375 1.6691,-9.32843 4.76047,-17.06391 12.25,-17.46875 10.35113,-0.55952 8.9375,8.39139 8.9375,11.46875 0,0.2885 0.0872,0.53011 0.1875,0.75 3.86472,-5.39554 7.01938,-10.00172 2.90625,-14.46875 -2.88214,-3.13013 -6.37698,-4.12364 -9.3125,-4.15625 z" style="color: rgb(0, 0, 0); fill: rgb(0, 232, 211); fill-opacity: 1; fill-rule: nonzero; stroke: none; stroke-width: 0; marker: none; visibility: visible; display: inline; overflow: visible;" inkscape:connector-curvature="0"/>
              <path id="path24865" transform="matrix(0.3467103,0,0,0.28377064,280.66249,105.63832)" d="m 504.40625,-625.15625 c -1.07195,0.70005 -2.42657,1.69968 -4.1875,3.09375 -6.71425,5.31545 -10.35716,17.63245 -12.875,19.03125 -1.64207,0.91226 -4.59946,-1.75823 -6.53125,-5.8125 0.34492,15.00528 3.76201,29.66424 4.34375,30.375 1.06746,1.30422 4.42773,-21.98254 12.625,-36.78125 2.00632,-3.62205 4.64365,-6.88464 6.625,-9.90625 z" style="color: rgb(0, 0, 0); fill: rgb(0, 155, 141); fill-opacity: 1; fill-rule: nonzero; stroke: none; stroke-width: 0; marker: none; visibility: visible; display: inline; overflow: visible;" inkscape:connector-curvature="0"/>
            </g>
          </g>
        </g>
      </g>
    </g>
  </g>
</svg>