<?xml version="1.0" encoding="UTF-8" standalone="no"?><!-- Created with Inkscape (http://www.inkscape.org/) --><svg xmlns:dc="http://purl.org/dc/elements/1.1/" xmlns:cc="http://creativecommons.org/ns#" xmlns:rdf="http://www.w3.org/1999/02/22-rdf-syntax-ns#" xmlns:svg="http://www.w3.org/2000/svg" xmlns="http://www.w3.org/2000/svg" xmlns:sodipodi="http://sodipodi.sourceforge.net/DTD/sodipodi-0.dtd" xmlns:inkscape="http://www.inkscape.org/namespaces/inkscape" width="130.80814" height="146.41258" viewBox="0 0 34.609648 38.738322" version="1.1" id="svg23489" inkscape:version="0.48.5 r10040" sodipodi:docname="plant_12.svg">
  <defs id="defs23483">
    <clipPath clipPathUnits="userSpaceOnUse" id="clipPath22932">
      <path style="opacity: 0.39823; color: rgb(0, 0, 0); fill: rgb(186, 255, 81); fill-opacity: 1; fill-rule: nonzero; stroke: none; stroke-width: 0; marker: none; visibility: visible; display: inline; overflow: visible;" d="m 544.30169,181.88988 c 0.28587,0.59217 2.59866,1.15837 3.74216,0.1578 0.98015,2.77708 16.86469,0 16.86469,0 l 0,-16.17162 -30.55281,0 0,15.42079 c 0,0 6.65838,3.49263 9.94596,0.59303 z" id="path22934" inkscape:connector-curvature="0" sodipodi:nodetypes="ccccccc"/>
    </clipPath>
    <clipPath clipPathUnits="userSpaceOnUse" id="clipPath22874">
      <path style="opacity: 0.39823; color: rgb(0, 0, 0); fill: rgb(186, 255, 81); fill-opacity: 1; fill-rule: nonzero; stroke: none; stroke-width: 0; marker: none; visibility: visible; display: inline; overflow: visible;" d="m 507.96393,172.04108 c 5.63585,4.14521 4.40861,7.03756 4.24526,7.42553 -0.16336,0.38797 -0.45419,0.84609 -0.55527,0.75946 0,0 -0.23077,1.39392 -0.96715,1.52387 0,0 0.7281,2.05291 -3.23333,2.91054 -3.96143,0.85763 -12.08849,-2.45037 -11.76178,-7.80034 0.32672,-5.34998 9.00511,-7.35111 12.27227,-4.81906 z" id="path22876" inkscape:connector-curvature="0" sodipodi:nodetypes="csccssc"/>
    </clipPath>
    <clipPath clipPathUnits="userSpaceOnUse" id="clipPath22894">
      <path style="opacity: 0.39823; color: rgb(0, 0, 0); fill: rgb(186, 255, 81); fill-opacity: 1; fill-rule: nonzero; stroke: none; stroke-width: 0; marker: none; visibility: visible; display: inline; overflow: visible;" d="m 519.13353,181.84256 c 1.53,1.07862 2.21773,-0.85703 2.00114,-1.06183 0.0817,0.0408 1.9603,0.65343 4.32899,-2.85877 2.36869,-3.51219 0,-9.96483 -8.00455,-11.96597 -8.00454,-2.00113 -11.2717,3.47136 -11.47589,10.16904 -0.2042,6.69767 5.75836,9.27056 9.76064,9.7198 4.00227,0.44923 3.38967,-4.00227 3.38967,-4.00227 z" id="path22896" inkscape:connector-curvature="0" sodipodi:nodetypes="ccssssc"/>
    </clipPath>
    <clipPath clipPathUnits="userSpaceOnUse" id="clipPath23263">
      <path style="opacity: 0.39823; color: rgb(0, 0, 0); fill: rgb(186, 255, 81); fill-opacity: 1; fill-rule: nonzero; stroke: none; stroke-width: 0; marker: none; visibility: visible; display: inline; overflow: visible;" d="m 507.96393,172.04108 c 5.63585,4.14521 4.40861,7.03756 4.24526,7.42553 -0.16336,0.38797 -0.45419,0.84609 -0.55527,0.75946 0,0 -0.23077,1.39392 -0.96715,1.52387 0,0 0.7281,2.05291 -3.23333,2.91054 -3.96143,0.85763 -12.08849,-2.45037 -11.76178,-7.80034 0.32672,-5.34998 9.00511,-7.35111 12.27227,-4.81906 z" id="path23265" inkscape:connector-curvature="0" sodipodi:nodetypes="csccssc"/>
    </clipPath>
    <clipPath clipPathUnits="userSpaceOnUse" id="clipPath22907">
      <path style="opacity: 0.39823; color: rgb(0, 0, 0); fill: rgb(186, 255, 81); fill-opacity: 1; fill-rule: nonzero; stroke: none; stroke-width: 0; marker: none; visibility: visible; display: inline; overflow: visible;" d="m 525.58617,181.98549 c 0.89522,0.98185 2.40724,0.64233 3.04255,0.12252 0.16124,0.72559 12.13955,0.23486 11.90471,0 -0.23482,-0.23483 4.09811,-23.83249 0,-26.19853 -4.09811,-2.36605 -15.11061,0 -21.31822,0 -6.2076,0 -9.48879,8.76153 -8.08444,14.00265 1.40436,5.24112 4.81751,7.15803 7.00687,9.97898 2.18936,2.82095 7.44853,2.09438 7.44853,2.09438 z" id="path22909" inkscape:connector-curvature="0" sodipodi:nodetypes="ccsssssc"/>
    </clipPath>
    <clipPath clipPathUnits="userSpaceOnUse" id="clipPath23269">
      <path style="opacity: 0.39823; color: rgb(0, 0, 0); fill: rgb(186, 255, 81); fill-opacity: 1; fill-rule: nonzero; stroke: none; stroke-width: 0; marker: none; visibility: visible; display: inline; overflow: visible;" d="m 525.58617,181.98549 c 0.89522,0.98185 2.40724,0.64233 3.04255,0.12252 0.16124,0.72559 12.13955,0.23486 11.90471,0 -0.23482,-0.23483 4.09811,-23.83249 0,-26.19853 -4.09811,-2.36605 -15.11061,0 -21.31822,0 -6.2076,0 -9.48879,8.76153 -8.08444,14.00265 1.40436,5.24112 4.81751,7.15803 7.00687,9.97898 2.18936,2.82095 7.44853,2.09438 7.44853,2.09438 z" id="path23271" inkscape:connector-curvature="0" sodipodi:nodetypes="ccsssssc"/>
    </clipPath>
    <clipPath clipPathUnits="userSpaceOnUse" id="clipPath23273">
      <path style="opacity: 0.39823; color: rgb(0, 0, 0); fill: rgb(186, 255, 81); fill-opacity: 1; fill-rule: nonzero; stroke: none; stroke-width: 0; marker: none; visibility: visible; display: inline; overflow: visible;" d="m 507.96393,172.04108 c 5.63585,4.14521 4.40861,7.03756 4.24526,7.42553 -0.16336,0.38797 -0.45419,0.84609 -0.55527,0.75946 0,0 -0.23077,1.39392 -0.96715,1.52387 0,0 0.7281,2.05291 -3.23333,2.91054 -3.96143,0.85763 -12.08849,-2.45037 -11.76178,-7.80034 0.32672,-5.34998 9.00511,-7.35111 12.27227,-4.81906 z" id="path23275" inkscape:connector-curvature="0" sodipodi:nodetypes="csccssc"/>
    </clipPath>
    <clipPath clipPathUnits="userSpaceOnUse" id="clipPath23277">
      <path style="opacity: 0.39823; color: rgb(0, 0, 0); fill: rgb(186, 255, 81); fill-opacity: 1; fill-rule: nonzero; stroke: none; stroke-width: 0; marker: none; visibility: visible; display: inline; overflow: visible;" d="m 519.13353,181.84256 c 1.53,1.07862 2.21773,-0.85703 2.00114,-1.06183 0.0817,0.0408 1.9603,0.65343 4.32899,-2.85877 2.36869,-3.51219 0,-9.96483 -8.00455,-11.96597 -8.00454,-2.00113 -11.2717,3.47136 -11.47589,10.16904 -0.2042,6.69767 5.75836,9.27056 9.76064,9.7198 4.00227,0.44923 3.38967,-4.00227 3.38967,-4.00227 z" id="path23279" inkscape:connector-curvature="0" sodipodi:nodetypes="ccssssc"/>
    </clipPath>
    <clipPath clipPathUnits="userSpaceOnUse" id="clipPath23281">
      <path style="opacity: 0.39823; color: rgb(0, 0, 0); fill: rgb(186, 255, 81); fill-opacity: 1; fill-rule: nonzero; stroke: none; stroke-width: 0; marker: none; visibility: visible; display: inline; overflow: visible;" d="m 525.58617,181.98549 c 0.89522,0.98185 2.40724,0.64233 3.04255,0.12252 0.16124,0.72559 12.13955,0.23486 11.90471,0 -0.23482,-0.23483 4.09811,-23.83249 0,-26.19853 -4.09811,-2.36605 -15.11061,0 -21.31822,0 -6.2076,0 -9.48879,8.76153 -8.08444,14.00265 1.40436,5.24112 4.81751,7.15803 7.00687,9.97898 2.18936,2.82095 7.44853,2.09438 7.44853,2.09438 z" id="path23283" inkscape:connector-curvature="0" sodipodi:nodetypes="ccsssssc"/>
    </clipPath>
    <clipPath clipPathUnits="userSpaceOnUse" id="clipPath23285">
      <path style="opacity: 0.39823; color: rgb(0, 0, 0); fill: rgb(186, 255, 81); fill-opacity: 1; fill-rule: nonzero; stroke: none; stroke-width: 0; marker: none; visibility: visible; display: inline; overflow: visible;" d="m 544.30169,181.88988 c 0.28587,0.59217 2.59866,1.15837 3.74216,0.1578 0.98015,2.77708 16.86469,0 16.86469,0 l 0,-16.17162 -30.55281,0 0,15.42079 c 0,0 6.65838,3.49263 9.94596,0.59303 z" id="path23287" inkscape:connector-curvature="0" sodipodi:nodetypes="ccccccc"/>
    </clipPath>
    <clipPath clipPathUnits="userSpaceOnUse" id="clipPath23289">
      <path style="opacity: 0.39823; color: rgb(0, 0, 0); fill: rgb(186, 255, 81); fill-opacity: 1; fill-rule: nonzero; stroke: none; stroke-width: 0; marker: none; visibility: visible; display: inline; overflow: visible;" d="m 507.96393,172.04108 c 5.63585,4.14521 4.40861,7.03756 4.24526,7.42553 -0.16336,0.38797 -0.45419,0.84609 -0.55527,0.75946 0,0 -0.23077,1.39392 -0.96715,1.52387 0,0 0.7281,2.05291 -3.23333,2.91054 -3.96143,0.85763 -12.08849,-2.45037 -11.76178,-7.80034 0.32672,-5.34998 9.00511,-7.35111 12.27227,-4.81906 z" id="path23291" inkscape:connector-curvature="0" sodipodi:nodetypes="csccssc"/>
    </clipPath>
    <clipPath clipPathUnits="userSpaceOnUse" id="clipPath22919">
      <path style="opacity: 0.39823; color: rgb(0, 0, 0); fill: rgb(186, 255, 81); fill-opacity: 1; fill-rule: nonzero; stroke: none; stroke-width: 0; marker: none; visibility: visible; display: inline; overflow: visible;" d="m 533.24358,180.67863 c -0.16336,1.16393 0.51049,2.00114 2.00114,1.20477 -1.74256,1.5022 -0.71572,1.26164 1.42124,3.05207 2.13697,1.79043 11.4934,0.98185 12.12872,0.5198 0.63531,-0.46205 8.02805,-6.41089 8.0858,-8.66336 0.0578,-2.25248 -1.90593,-15.01651 -5.19801,-17.78878 -3.29208,-2.77228 -16.4604,-0.57756 -19.75248,-0.0578 -3.29208,0.5198 -10.16501,5.71782 -9.93399,5.77558 0.23102,0.0577 2.83003,15.42079 2.77228,15.65181 -0.0578,0.23102 2.42574,4.15842 2.83003,3.92739 0.40429,-0.23102 3.95121,-3.17246 3.95121,-3.17246 0,0 1.59196,0.89865 1.69406,-0.44906 z" id="path22921" inkscape:connector-curvature="0" sodipodi:nodetypes="ccsssssssscc"/>
    </clipPath>
    <clipPath clipPathUnits="userSpaceOnUse" id="clipPath23295">
      <path style="opacity: 0.39823; color: rgb(0, 0, 0); fill: rgb(186, 255, 81); fill-opacity: 1; fill-rule: nonzero; stroke: none; stroke-width: 0; marker: none; visibility: visible; display: inline; overflow: visible;" d="m 525.58617,181.98549 c 0.89522,0.98185 2.40724,0.64233 3.04255,0.12252 0.16124,0.72559 12.13955,0.23486 11.90471,0 -0.23482,-0.23483 4.09811,-23.83249 0,-26.19853 -4.09811,-2.36605 -15.11061,0 -21.31822,0 -6.2076,0 -9.48879,8.76153 -8.08444,14.00265 1.40436,5.24112 4.81751,7.15803 7.00687,9.97898 2.18936,2.82095 7.44853,2.09438 7.44853,2.09438 z" id="path23297" inkscape:connector-curvature="0" sodipodi:nodetypes="ccsssssc"/>
    </clipPath>
    <clipPath clipPathUnits="userSpaceOnUse" id="clipPath23299">
      <path style="opacity: 0.39823; color: rgb(0, 0, 0); fill: rgb(186, 255, 81); fill-opacity: 1; fill-rule: nonzero; stroke: none; stroke-width: 0; marker: none; visibility: visible; display: inline; overflow: visible;" d="m 525.58617,181.98549 c 0.89522,0.98185 2.40724,0.64233 3.04255,0.12252 0.16124,0.72559 12.13955,0.23486 11.90471,0 -0.23482,-0.23483 4.09811,-23.83249 0,-26.19853 -4.09811,-2.36605 -15.11061,0 -21.31822,0 -6.2076,0 -9.48879,8.76153 -8.08444,14.00265 1.40436,5.24112 4.81751,7.15803 7.00687,9.97898 2.18936,2.82095 7.44853,2.09438 7.44853,2.09438 z" id="path23301" inkscape:connector-curvature="0" sodipodi:nodetypes="ccsssssc"/>
    </clipPath>
  </defs>
  <sodipodi:namedview id="base" pagecolor="#7d848b" bordercolor="#666666" borderopacity="1.0" inkscape:pageopacity="0" inkscape:pageshadow="2" inkscape:zoom="0.8098268" inkscape:cx="-112.09202" inkscape:cy="215.04873" inkscape:document-units="px" inkscape:current-layer="layer1" showgrid="false" inkscape:pagecheckerboard="false" showborder="true" units="px" inkscape:window-width="1920" inkscape:window-height="1017" inkscape:window-x="-8" inkscape:window-y="-8" inkscape:window-maximized="1" inkscape:showpageshadow="false" guidetolerance="28" fit-margin-top="8" fit-margin-left="8" fit-margin-right="8" fit-margin-bottom="8">
    <inkscape:grid type="xygrid" id="grid24034" spacingx="1px" spacingy="1px" empspacing="8" visible="true" enabled="true" snapvisiblegridlinesonly="true" originx="-394.44697px" originy="611.35967px"/>
  </sodipodi:namedview>
  <metadata id="metadata23486">
    <rdf:RDF>
      <cc:Work rdf:about="">
        <dc:format>image/svg+xml</dc:format>
        <dc:type rdf:resource="http://purl.org/dc/dcmitype/StillImage"/>
        <dc:title/>
        <cc:license rdf:resource=""/>
        <dc:creator>
          <cc:Agent>
            <dc:title>Robert Brooks</dc:title>
          </cc:Agent>
        </dc:creator>
      </cc:Work>
    </rdf:RDF>
  </metadata>
  <g inkscape:label="Layer 1" inkscape:groupmode="layer" id="layer1" transform="translate(-104.36407,-420.0172)">
    <path style="opacity: 0.25; color: rgb(0, 0, 0); fill: rgb(0, 0, 0); fill-opacity: 1; fill-rule: nonzero; stroke: none; stroke-width: 0; marker: none; visibility: visible; display: inline; overflow: visible;" d="m 124.5744,447.82015 c -1.3902,0 -2.67036,0.15042 -3.71281,0.40588 -0.31013,-0.0719 -0.65254,-0.11807 -1.01045,-0.11807 -1.28583,0 -2.34951,0.51471 -2.55354,1.18813 -2.41626,0.14706 -4.29245,1.18926 -4.29245,2.45742 0,1.35671 2.14243,2.46003 4.80159,2.47957 0.16114,1.34153 2.54323,2.40578 5.45173,2.40578 3.01283,0 5.45172,-1.14419 5.45172,-2.55337 0,-0.10139 -0.0146,-0.19688 -0.0391,-0.29518 2.93897,-0.11126 5.22457,-0.96831 5.22457,-1.9999 0,-0.75329 -1.22157,-1.4064 -3.02352,-1.74898 0.006,-0.036 0.008,-0.0742 0.008,-0.11069 0,-1.16761 -2.8226,-2.11059 -6.30552,-2.11059 z" id="path37686" inkscape:connector-curvature="0" gds_color="shadow" gds_switchable="shadow" gds_opacity="shadow"/>
    <g id="g35505" transform="matrix(-0.83600785,0,0,0.83600785,618.03028,614.59282)">
      <path style="color: rgb(0, 0, 0); fill: rgb(105, 211, 39); fill-opacity: 1; fill-rule: nonzero; stroke: rgb(18, 18, 18); stroke-width: 10; stroke-linecap: round; stroke-linejoin: round; stroke-miterlimit: 4; stroke-opacity: 1; stroke-dasharray: none; stroke-dashoffset: 37.6; marker: none; visibility: visible; display: inline; overflow: visible;" d="m 1015.6099,-1193.6105 c 6.3302,24.5298 6.0599,92.8443 6.4148,95.6193 0.4453,3.4816 2.5216,-2.8559 2.155,-7.5251 -0.1061,-1.3509 3.3332,12.6987 4.2039,7.9745 0.4808,-7.6587 -1.3002,-60.0654 -5.2566,-77.0779 -3.9564,-17.0126 -3.5607,-21.3646 -7.1215,-22.9472 -3.5608,-1.5825 -0.3956,3.9564 -0.3956,3.9564 z" id="path35507" inkscape:connector-curvature="0" transform="matrix(0.26458336,0,0,0.26458336,320.08182,94.083721)" sodipodi:nodetypes="csscscc"/>
      <path transform="matrix(0.26458336,0,0,0.26458336,320.08182,94.083721)" inkscape:connector-curvature="0" id="path35509" d="m 1015.6099,-1193.6105 c 6.3302,24.5298 6.3276,98.5585 6.3159,101.3561 -0.013,3.2256 6.481,2.9663 6.4578,0.054 0.1841,-7.9554 -1.3002,-65.4066 -5.2566,-82.4191 -3.9564,-17.0126 -3.5607,-21.3646 -7.1215,-22.9472 -3.5608,-1.5825 -0.3956,3.9564 -0.3956,3.9564 z" style="color: rgb(0, 0, 0); fill: rgb(105, 211, 39); fill-opacity: 1; fill-rule: nonzero; stroke: none; stroke-width: 0; marker: none; visibility: visible; display: inline; overflow: visible;" sodipodi:nodetypes="cscscc"/>
    </g>
    <g id="g37662" gds_color="leaves">
      <g transform="matrix(0.94213271,-0.21028892,0.21028892,0.94213271,-307.7349,792.12768)" id="g35880">
        <path inkscape:connector-curvature="0" style="color: rgb(0, 0, 0); fill: rgb(49, 98, 18); fill-opacity: 1; fill-rule: nonzero; stroke: rgb(18, 18, 18); stroke-width: 10; stroke-miterlimit: 4; stroke-opacity: 1; stroke-dasharray: none; marker: none; visibility: visible; display: inline; overflow: visible;" d="m 729,-1362.1875 c -2.09086,-0.1148 -5.49165,1.784 -9.71875,5.7187 -8.45424,7.8696 -16.98935,20.9051 -19.0625,29.125 -0.70433,2.7927 -0.59419,4.6729 0.21875,5.625 0.01,0.011 0.0215,0.02 0.0312,0.031 0.75281,2.9165 3.65498,4.4614 6,3.8437 2.07919,-0.5476 4.95374,-2.3756 8.34375,-5.5312 8.45424,-7.8696 17.11177,-19.013 19.46875,-27.1562 0.92121,-3.1832 1.76094,-6.3501 0.59375,-7.125 -0.65399,-0.4343 -2.6216,-2.8015 -4.28125,-3.7813 -0.0121,-0.01 -0.0192,-0.024 -0.0312,-0.031 -0.38125,-0.4278 -0.90911,-0.6828 -1.5625,-0.7187 z" transform="matrix(0.26458336,0,0,0.26458336,320.08182,94.083721)" id="path35875"/>
        <path style="color: rgb(0, 0, 0); fill: rgb(49, 98, 18); fill-opacity: 1; fill-rule: nonzero; stroke: none; stroke-width: 0; marker: none; visibility: visible; display: inline; overflow: visible;" d="m 729.24852,-1361.8587 c -0.2459,0.024 0.69192,0.2279 0.43898,0.3587 -1.78707,0.9224 -4.64753,6.1583 -7.0625,8.4062 -8.4542,7.8696 -20.05189,19.9364 -22.125,28.1563 -1.24184,4.9239 2.86273,7.9118 5.96875,7.0937 2.07919,-0.5476 4.95374,-2.3756 8.34375,-5.5312 8.45424,-7.8696 17.11196,-19.0183 19.46894,-27.1615 0.92121,-3.1831 1.75945,-6.3321 0.59226,-7.107 -0.84509,-0.5611 -3.9039,-4.3817 -5.62518,-4.2152 z" transform="matrix(0.26458336,0,0,0.26458336,320.08182,94.083721)" id="path35865" inkscape:connector-curvature="0" sodipodi:nodetypes="cccscsccc"/>
        <path style="color: rgb(0, 0, 0); fill: rgb(87, 174, 32); fill-opacity: 1; fill-rule: nonzero; stroke: none; stroke-width: 0; marker: none; visibility: visible; display: inline; overflow: visible;" d="m 513.4457,-264.64613 c -0.54852,2.17486 -2.8065,5.62584 -5.04335,7.708 -2.23685,2.08216 -3.6055,2.007 -3.05699,-0.16785 0.54852,-2.17485 2.8065,-5.62583 5.04335,-7.70798 2.23684,-2.08216 3.60551,-2.00701 3.05699,0.16783 z" id="path35764-4" inkscape:connector-curvature="0"/>
        <path style="color: rgb(0, 0, 0); fill: rgb(49, 98, 18); fill-opacity: 1; fill-rule: nonzero; stroke: none; stroke-width: 0; marker: none; visibility: visible; display: inline; overflow: visible;" d="m 725.803,-1358.3949 c -10.08884,10.6824 -20.3755,29.4753 -18.3973,27.1014 1.97821,-2.3738 14.44089,-19.1885 17.80384,-23.9362 3.36294,-4.7477 3.36294,-5.9346 3.36294,-5.9346 z" id="path35868" inkscape:connector-curvature="0" transform="matrix(0.26458336,0,0,0.26458336,320.08182,94.083721)"/>
        <path inkscape:connector-curvature="0" style="color: rgb(0, 0, 0); fill: rgb(105, 211, 39); fill-opacity: 1; fill-rule: nonzero; stroke: none; stroke-width: 0; marker: none; visibility: visible; display: inline; overflow: visible;" d="m 729,-1362.1875 c -2.09086,-0.1148 -5.49165,1.784 -9.71875,5.7187 -4.57087,4.2548 -9.16617,10.0194 -12.75,15.7188 3.13271,-4.475 6.76021,-8.7915 10.375,-12.1562 8.4542,-7.8696 13.6044,-7.5949 11.53125,0.625 -0.95941,3.804 -3.29643,8.6521 -6.375,13.5312 4.22609,-6.02 7.55691,-12.3632 8.75,-17.0938 1.03657,-4.1099 0.27836,-6.2289 -1.8125,-6.3437 z" transform="matrix(0.26458336,0,0,0.26458336,320.08182,94.083721)" id="path35870"/>
      </g>
      <g transform="matrix(0.90143396,0,0,0.90143396,-401.41768,599.68085)" id="g35486">
        <g id="g35477" transform="translate(-13.817755,38.417547)">
          <path inkscape:connector-curvature="0" style="color: rgb(0, 0, 0); fill: rgb(78, 156, 29); fill-opacity: 1; fill-rule: nonzero; stroke: rgb(18, 18, 18); stroke-width: 10; stroke-linejoin: round; stroke-miterlimit: 4; stroke-opacity: 1; stroke-dasharray: none; marker: none; visibility: visible; display: inline; overflow: visible;" d="m 980.3125,-1095 c -5.48715,0.147 -10.82374,1.7693 -15.03125,4.9375 -3.2358,2.4365 -5.40602,5.4834 -6.46875,8.75 -0.36829,1.132 -0.44234,4.7611 -0.4375,8.0625 -1.21949,5.9924 1.04989,12.5424 6.84375,17.5 9.58983,8.2057 25.16405,8.9915 34.78125,1.75 4.1571,-3.1303 6.5237,-7.2652 7.0938,-11.5938 0.01,-0.041 0.023,-0.1104 0.031,-0.1562 0.01,-0.042 0,-0.083 0,-0.125 0.3262,-2.1188 0.1857,-8.5983 -0.062,-10.375 -0.6036,-4.3117 -2.9228,-8.5738 -7,-12.0625 -5.3943,-4.6157 -12.69509,-6.8765 -19.75,-6.6875 z" transform="matrix(0.26458336,0,0,0.26458336,333.89957,55.666174)" id="path35481"/>
          <path inkscape:connector-curvature="0" id="path35475" d="m 589.2949,-232.74508 c -0.85614,0.64465 -1.42489,1.44748 -1.70607,2.31176 -0.16741,0.51457 -0.12821,3.03984 -0.0917,3.57756 0.0844,1.24343 0.60934,0.50527 1.78468,1.51096 2.53732,2.17108 6.65699,2.37789 9.20154,0.4619 0.99837,-0.75175 1.65826,-0.35776 1.87473,-1.38632 0.10068,-0.47839 0.0644,-2.33096 -0.004,-2.82062 -0.1597,-1.1408 -0.77875,-2.27029 -1.8575,-3.19334 -2.53732,-2.17109 -6.657,-2.37788 -9.20154,-0.4619 z" style="color: rgb(0, 0, 0); fill: rgb(78, 156, 29); fill-opacity: 1; fill-rule: nonzero; stroke: none; stroke-width: 0; marker: none; visibility: visible; display: inline; overflow: visible;" sodipodi:nodetypes="sssssssss"/>
          <path style="color: rgb(0, 0, 0); fill: rgb(51, 103, 19); fill-opacity: 1; fill-rule: nonzero; stroke: none; stroke-width: 0; marker: none; visibility: visible; display: inline; overflow: visible;" d="m 589.2949,-231.0702 c -2.54456,1.91599 -2.55041,5.22921 -0.0131,7.40028 2.53731,2.1711 6.65699,2.37789 9.20154,0.4619 2.54454,-1.91599 2.5504,-5.2292 0.0131,-7.40028 -2.53732,-2.17109 -6.657,-2.37788 -9.20154,-0.4619 z" id="path35405" inkscape:connector-curvature="0"/>
          <path inkscape:connector-curvature="0" id="path35492" transform="matrix(0.26458336,0,0,0.26458336,333.89957,54.925975)" d="m 980.3125,-1092.2188 c -5.48715,0.147 -10.82374,1.8006 -15.03125,4.9688 -3.2358,2.4365 -5.40602,5.4522 -6.46875,8.7188 -0.4021,1.2359 -0.46311,5.4729 -0.4375,8.9687 0.0248,-2.8832 0.12113,-5.7463 0.4375,-6.7187 1.06273,-3.2666 3.23295,-6.3136 6.46875,-8.75 9.61716,-7.2415 25.19138,-6.4557 34.78125,1.75 4.0772,3.4886 6.3964,7.7508 7,12.0624 0.1138,0.8144 0.217,2.6661 0.25,4.5938 0.026,-2.6353 -0.09,-5.6697 -0.25,-6.8125 -0.6036,-4.3117 -2.9228,-8.5738 -7,-12.0625 -5.3943,-4.6157 -12.69509,-6.9077 -19.75,-6.7188 z" style="color: rgb(0, 0, 0); fill: rgb(105, 211, 39); fill-opacity: 1; fill-rule: nonzero; stroke: none; stroke-width: 0; marker: none; visibility: visible; display: inline; overflow: visible;"/>
        </g>
      </g>
      <g id="g35589" transform="matrix(0.65154312,0,0,0.65154312,-269.44597,583.50789)">
        <path inkscape:connector-curvature="0" id="path35591" transform="matrix(0.27638728,0,0,0.27638728,307.1059,108.02665)" d="m 1085.6875,-1238.875 c -1.6639,-0.043 -3.0139,0.4156 -4,1.3438 -0.4526,0.426 -4.6448,3.7832 -4.9375,4.4062 -1.8223,1.8279 -2.2835,5.3503 -1.0625,10.4062 2.6318,10.8985 12.3303,25.2097 22.6875,34 l 7.5312,-4.0624 c 0,0 0.3258,5.0931 0.3438,9.5312 4.5489,2.3514 8.1129,2.6227 10.25,1 0.1763,-0.1338 0.3747,-0.2781 0.5312,-0.4375 0.011,-0.011 0.022,-0.021 0.031,-0.031 0.01,-0.01 0.023,-0.023 0.031,-0.031 1.2782,-1.1282 3.4015,-3.2586 3.7187,-3.4375 2.6133,-1.4742 3.514,-5.2749 2.0937,-11.1563 -2.9585,-12.2507 -14.8485,-28.8153 -26.5624,-37 -4.2423,-2.9639 -7.8834,-4.4585 -10.6563,-4.5312 z" style="color: rgb(0, 0, 0); fill: rgb(78, 156, 29); fill-opacity: 1; fill-rule: nonzero; stroke: rgb(18, 18, 18); stroke-width: 9.57292; stroke-linejoin: round; stroke-miterlimit: 4; stroke-opacity: 1; stroke-dasharray: none; marker: none; visibility: visible; display: inline; overflow: visible;"/>
        <path inkscape:connector-curvature="0" id="path35593" transform="matrix(0.27638728,0,0,0.27638728,307.1059,108.02665)" d="m 1084.875,-1238.8438 c -1.2988,0.1017 -2.3658,0.5703 -3.1875,1.3438 -0.4527,0.4261 -4.6448,3.752 -4.9375,4.375 -0.9413,2.0036 2.8009,2.1947 3.75,6.125 2.7374,11.3351 13.0899,26.3648 23.9062,35.0312 l 1.5,-0.8124 c 0,0 0.038,0.9927 0.094,2 0.3512,0.26 0.7114,0.5359 1.0625,0.7812 5.1738,3.615 6.221,8.5842 9.125,7.9375 0.5145,-0.1147 4.1991,-3.8847 4.625,-4.125 2.6132,-1.4742 3.514,-5.275 2.0937,-11.1563 -2.9584,-12.2507 -14.8485,-28.8154 -26.5624,-37 -4.6664,-3.2603 -8.6114,-4.7236 -11.4688,-4.5 z" style="color: rgb(0, 0, 0); fill: rgb(78, 156, 29); fill-opacity: 1; fill-rule: nonzero; stroke: none; stroke-width: 0; marker: none; visibility: visible; display: inline; overflow: visible;"/>
        <path id="path35595" transform="matrix(0.26458336,0,0,0.26458336,320.08182,94.083721)" d="m 1085.0938,-1241.4375 c -1.7381,-0.045 -3.1575,0.4367 -4.1876,1.4063 -0.4728,0.4451 -4.8504,3.9429 -5.1562,4.5937 -0.67,1.426 0.914,1.9959 2.3125,3.5 1.4229,-1.2754 3.6391,-3.0335 3.9687,-3.3437 2.7469,-2.5856 8.1911,-1.6415 15.2813,3.3124 11.4718,8.0154 23.1374,23.7104 27.0937,36.1876 -0.1126,-0.7292 -0.2434,-1.4778 -0.4374,-2.2813 -3.0905,-12.7973 -15.5135,-30.1065 -27.75,-38.6563 -4.4315,-3.0962 -8.2284,-4.6428 -11.125,-4.7187 z" style="color: rgb(0, 0, 0); fill: rgb(105, 211, 39); fill-opacity: 1; fill-rule: nonzero; stroke: none; stroke-width: 0; marker: none; visibility: visible; display: inline; overflow: visible;" inkscape:connector-curvature="0"/>
        <path inkscape:connector-curvature="0" id="path35597" transform="matrix(0.27638728,0,0,0.27638728,307.1059,108.02665)" d="m 1080.5625,-1234.5625 c -4.6793,0.044 -6.7553,4.187 -4.9063,11.8437 2.6335,10.9049 12.3543,25.2118 22.7188,34 l 7.5312,-4.0624 c 0,0 0.3243,5.0692 0.3438,9.5 9.2625,4.8072 14.4469,0.9981 11.8438,-9.7813 -2.9585,-12.2507 -14.8486,-28.8154 -26.5626,-37 -4.3927,-3.0692 -8.1611,-4.5265 -10.9687,-4.5 z" style="color: rgb(0, 0, 0); fill: rgb(51, 103, 19); fill-opacity: 1; fill-rule: nonzero; stroke: none; stroke-width: 0; marker: none; visibility: visible; display: inline; overflow: visible;"/>
      </g>
    </g>
    <g id="g37619" gds_color="stalks">
      <g transform="matrix(0.78498756,-0.05341011,0.05341011,0.78498756,-333.18137,635.70971)" id="g35501">
        <path style="color: rgb(0, 0, 0); fill: rgb(105, 211, 39); fill-opacity: 1; fill-rule: nonzero; stroke: rgb(18, 18, 18); stroke-width: 10; stroke-linecap: round; stroke-linejoin: round; stroke-miterlimit: 4; stroke-opacity: 1; stroke-dasharray: none; stroke-dashoffset: 37.6; marker: none; visibility: visible; display: inline; overflow: visible;" d="m 1015.6099,-1193.6105 c 6.3302,24.5298 6.0599,92.8443 6.4148,95.6193 0.4453,3.4816 2.5216,-2.8559 2.155,-7.5251 -0.1061,-1.3509 3.3332,12.6987 4.2039,7.9745 0.4808,-7.6587 -1.3002,-60.0654 -5.2566,-77.0779 -3.9564,-17.0126 -3.5607,-21.3646 -7.1215,-22.9472 -3.5608,-1.5825 -0.3956,3.9564 -0.3956,3.9564 z" id="path35497" inkscape:connector-curvature="0" transform="matrix(0.26458336,0,0,0.26458336,320.08182,94.083721)" sodipodi:nodetypes="csscscc"/>
        <path transform="matrix(0.26458336,0,0,0.26458336,320.08182,94.083721)" inkscape:connector-curvature="0" id="path35499" d="m 1015.6099,-1193.6105 c 6.3302,24.5298 6.3276,98.5585 6.3159,101.3561 -0.013,3.2256 6.481,2.9663 6.4578,0.054 0.1841,-7.9554 -1.3002,-65.4066 -5.2566,-82.4191 -3.9564,-17.0126 -3.5607,-21.3646 -7.1215,-22.9472 -3.5608,-1.5825 -0.3956,3.9564 -0.3956,3.9564 z" style="color: rgb(0, 0, 0); fill: rgb(105, 211, 39); fill-opacity: 1; fill-rule: nonzero; stroke: none; stroke-width: 0; marker: none; visibility: visible; display: inline; overflow: visible;" sodipodi:nodetypes="cscscc"/>
        <path sodipodi:nodetypes="cccccc" inkscape:connector-curvature="0" id="path35957" transform="matrix(0.37974498,0.02583763,-0.02583763,0.37974498,216.99078,279.73729)" d="m 893.1875,-1324.8438 c 0.6615,7.7409 1.08612,13.4848 1.125,14.0938 0.14319,2.2377 4.62226,1.7374 4.46875,-0.2812 -0.0335,0.033 -0.16938,-2.513 -0.34375,-4.5938 -0.71618,0.1997 -1.45944,0.3031 -2.09375,0.031 -1.24651,-0.5342 -2.15694,-3.8162 -3.15625,-9.25 z" style="color: rgb(0, 0, 0); fill: rgb(78, 156, 29); fill-opacity: 1; fill-rule: nonzero; stroke: none; stroke-width: 0; marker: none; visibility: visible; display: inline; overflow: visible;"/>
      </g>
      <g id="g35519" transform="matrix(-0.78498756,-0.05341011,-0.05341011,0.78498756,578.55875,635.70971)">
        <path sodipodi:nodetypes="csscscc" transform="matrix(0.26458336,0,0,0.26458336,320.08182,94.083721)" inkscape:connector-curvature="0" id="path35521" d="m 1015.6099,-1193.6105 c 6.3302,24.5298 6.0599,92.8443 6.4148,95.6193 0.4453,3.4816 2.5216,-2.8559 2.155,-7.5251 -0.1061,-1.3509 3.3332,12.6987 4.2039,7.9745 0.4808,-7.6587 -1.3002,-60.0654 -5.2566,-77.0779 -3.9564,-17.0126 -3.5607,-21.3646 -7.1215,-22.9472 -3.5608,-1.5825 -0.3956,3.9564 -0.3956,3.9564 z" style="color: rgb(0, 0, 0); fill: rgb(105, 211, 39); fill-opacity: 1; fill-rule: nonzero; stroke: rgb(18, 18, 18); stroke-width: 10; stroke-linecap: round; stroke-linejoin: round; stroke-miterlimit: 4; stroke-opacity: 1; stroke-dasharray: none; stroke-dashoffset: 37.6; marker: none; visibility: visible; display: inline; overflow: visible;"/>
        <path sodipodi:nodetypes="cscsccc" style="color: rgb(0, 0, 0); fill: rgb(105, 211, 39); fill-opacity: 1; fill-rule: nonzero; stroke: none; stroke-width: 0; marker: none; visibility: visible; display: inline; overflow: visible;" d="m 1015.6099,-1193.6105 c 6.3302,24.5298 6.191,100.5661 6.1793,103.3637 -0.013,3.2256 6.481,2.9663 6.4578,0.054 0.1841,-7.9554 -1.1636,-67.4142 -5.12,-84.4267 -3.9564,-17.0126 -3.5607,-21.3646 -7.1215,-22.9472 -3.5608,-1.5825 -0.3956,3.9564 -0.3956,3.9564 z" id="path35523" inkscape:connector-curvature="0" transform="matrix(0.26458336,0,0,0.26458336,320.08182,94.083721)"/>
      </g>
      <g transform="matrix(0.81242143,0,0,0.81242143,-359.50075,609.49928)" id="g35515">
        <path sodipodi:nodetypes="csscccc" transform="matrix(0.26458336,0,0,0.26458336,320.08182,94.083721)" inkscape:connector-curvature="0" id="path35513" d="m 1026.6665,-1190.7486 c 0.3538,-4.7392 0.9766,-27.6902 -0.1824,-11.2848 -1.7894,25.3267 3.3968,102.3255 3.5932,105.6315 0.145,2.4397 3.9819,3.1802 5.1901,-15.1147 0.2288,20.7545 3.43,17.7942 3.7337,14.5551 1.5673,-1.6786 -7.9913,-102.7657 -9.6698,-107.2419 -2.3326,-12.1604 -2.5343,8.7659 -2.6648,13.4548 z" style="color: rgb(0, 0, 0); fill: rgb(105, 211, 39); fill-opacity: 1; fill-rule: nonzero; stroke: rgb(18, 18, 18); stroke-width: 10; stroke-linejoin: round; stroke-opacity: 1; marker: none; visibility: visible; display: inline; overflow: visible;"/>
        <path sodipodi:nodetypes="ssccs" style="color: rgb(0, 0, 0); fill: rgb(105, 211, 39); fill-opacity: 1; fill-rule: nonzero; stroke: none; stroke-width: 0; marker: none; visibility: visible; display: inline; overflow: visible;" d="m 1025.6017,-1213.4302 c -1.2699,21.8047 3.94,120.3913 4.4756,123.8729 0.5595,3.6368 8.1131,2.7976 9.2321,1.119 1.1191,-1.6786 -8.0028,-120.6853 -9.6813,-125.1615 -1.6786,-4.4761 -3.9289,-1.5046 -4.0264,0.1696 z" id="path35511" inkscape:connector-curvature="0" transform="matrix(0.26458336,0,0,0.26458336,320.08182,94.083721)"/>
        <path id="path35952" transform="matrix(0.36862035,0,0,0.36862035,260.4501,288.28783)" d="m 907.25,-1341.5938 c -0.57796,0.8369 -0.72928,2.9367 -0.5625,4.1876 0.27976,2.0982 0.44345,21.3853 -1.375,23.3437 -1.12204,1.2083 -2.78255,0.9261 -4.3125,-0.125 0.0249,2.7891 0.0657,4.9268 0.125,5.3125 0.40159,2.6104 5.82182,1.9861 6.625,0.7812 0.36111,-0.5416 0.0466,-16.2233 -0.5,-33.5 z" style="color: rgb(0, 0, 0); fill: rgb(78, 156, 29); fill-opacity: 1; fill-rule: nonzero; stroke: none; stroke-width: 0; marker: none; visibility: visible; display: inline; overflow: visible;" inkscape:connector-curvature="0"/>
        <path style="color: rgb(0, 0, 0); fill: rgb(78, 156, 29); fill-opacity: 1; fill-rule: nonzero; stroke: none; stroke-width: 0; marker: none; visibility: visible; display: inline; overflow: visible;" d="m -59.78125,308.71875 c -0.875507,-0.061 -1.606743,1.2124 -1.65625,2.0625 -0.06753,1.15957 -0.131289,2.59503 -0.15625,4.25 0.281726,-1.84731 0.830802,-2.90732 1.84375,-3.3125 0.659205,-0.26368 1.405608,0.67832 2.09375,2.09375 -0.202703,-1.62095 -0.411753,-2.86883 -0.53125,-3.1875 -0.511399,-1.36368 -1.068446,-1.86964 -1.59375,-1.90625 z" transform="matrix(0.32567248,0,0,0.32567248,611.44981,-328.17879)" id="path37683" inkscape:connector-curvature="0"/>
      </g>
    </g>
    <g id="g37632" gds_color="leaves">
      <g transform="matrix(0.90143396,0,0,0.90143396,-412.98858,630.5682)" id="g35432">
        <g id="g35389" transform="translate(-0.10467996,-8.583757)">
          <path inkscape:connector-curvature="0" style="color: rgb(0, 0, 0); fill: rgb(62, 124, 23); fill-opacity: 1; fill-rule: nonzero; stroke: rgb(18, 18, 18); stroke-width: 10; stroke-linejoin: round; stroke-miterlimit: 4; stroke-opacity: 1; stroke-dasharray: none; marker: none; visibility: visible; display: inline; overflow: visible;" d="m 1036.1562,-1177.625 c -4.5967,0.1688 -9.1019,2.2251 -12.625,6.1875 -2.2547,2.5359 -3.8547,5.5959 -4.8437,8.9063 -0.025,0.082 -0.038,0.1675 -0.062,0.25 -0.1321,0.4586 -0.267,0.9076 -0.375,1.375 -0.086,0.3692 -0.1479,0.7511 -0.2188,1.125 -0.037,0.1986 -0.092,0.394 -0.125,0.5937 l 0,0.031 c -2.65,8.5166 -1.0915,18.7612 4.7188,26.1874 0.7459,0.9534 1.5508,1.8018 2.375,2.5938 l 0.3125,-4.6875 8.0937,-3.5625 c 0,0 -3.75,5.9587 -3.75,6.75 0,0.2136 0.1346,3.0958 0.2188,5.0625 3.4844,1.8449 7.2405,2.5443 10.875,2.0313 3.9742,-0.561 8.9872,-2.0725 12.0625,-5.5313 3.9622,-4.4565 5.6464,-10.6278 5.4063,-16.9687 l 0,-0.031 c 0.081,-0.5735 0.1405,-1.1695 0.1874,-1.75 0.084,-1.0368 0.1197,-2.0764 0.094,-3.125 -0.01,-0.3331 -0.012,-0.6666 -0.031,-1 -0.3334,-5.7251 -2.3151,-11.4328 -5.9376,-16.0625 -3.8253,-4.8891 -8.794,-7.676 -13.8124,-8.25 -0.2274,-0.025 -0.4583,-0.042 -0.6876,-0.062 -0.3279,-0.025 -0.6411,-0.057 -0.9687,-0.062 -0.3071,-0.01 -0.5998,-0.011 -0.9063,0 z" transform="matrix(0.26458336,0,0,0.26458336,320.1865,102.66748)" id="path35376"/>
          <g transform="matrix(0.89441139,0.53244343,-0.62808281,0.84803801,-80.624871,-339.20254)" id="g35348">
            <path inkscape:connector-curvature="0" style="color: rgb(0, 0, 0); fill: rgb(51, 103, 19); fill-opacity: 1; fill-rule: nonzero; stroke: none; stroke-width: 0; marker: none; visibility: visible; display: inline; overflow: visible;" d="m 1037.125,-1175.2188 c -0.8099,0.012 -1.6444,0.1162 -2.5,0.3126 -2.2894,0.5251 -11.5622,6.7028 -11.9375,7.125 -8.0167,9.0166 -8.0565,24.5953 -0.062,34.8124 0.7459,0.9535 1.5504,1.8333 2.375,2.625 l 0.3125,-4.7187 8.0937,-3.5625 c 0,0 -0.9353,1.4799 -1.875,3.0625 -0.01,0.012 0.01,0.02 0,0.031 -0.4649,0.7835 -0.9325,1.5893 -1.2812,2.25 0,0.01 0,0.024 0,0.031 -0.344,0.6539 -0.5938,1.18 -0.5938,1.375 10e-5,0.215 0.1337,3.1082 0.2188,5.0938 3.4869,1.8427 7.2723,2.5128 10.9062,2 3.9742,-0.561 8.9561,-2.0725 12.0313,-5.5313 8.0168,-9.0167 6.8379,-25.0954 -1.1563,-35.3125 -4.2624,-5.4478 -8.8619,-9.6739 -14.5312,-9.5938 z" transform="matrix(0.20530148,-0.1288992,0.15205254,0.21652801,564.94341,166.34822)" id="path35352"/>
            <path inkscape:connector-curvature="0" style="color: rgb(0, 0, 0); fill: rgb(86, 179, 27); fill-opacity: 1; fill-rule: nonzero; stroke: none; stroke-width: 0; marker: none; visibility: visible; display: inline; overflow: visible;" d="m 1037.0625,-1177.625 c -4.9141,-0.087 -9.7421,1.9609 -13.5,6.1875 -8.0168,9.0167 -8.0565,24.5953 -0.062,34.8125 0.5669,0.7245 1.1678,1.4 1.7812,2.0312 l 0.031,-0.4687 8.0937,-3.5625 c 0,0 -3.75,5.9587 -3.75,6.75 0,0.034 0.029,0.7186 0.031,0.8125 7.5192,4.5743 16.635,3.573 22.8125,-3.375 8.0168,-9.0167 8.0252,-24.6266 0.031,-34.8437 -4.2468,-5.4279 -9.8994,-8.2456 -15.4687,-8.3438 z" transform="matrix(0.20530148,-0.1288992,0.15205254,0.21652801,564.94341,166.34822)" id="path35354"/>
            <path inkscape:connector-curvature="0" style="color: rgb(0, 0, 0); fill: rgb(78, 156, 29); fill-opacity: 1; fill-rule: nonzero; stroke: none; stroke-width: 0; marker: none; visibility: visible; display: inline; overflow: visible;" d="m 1019.2188,-1164.0938 c -3.2378,8.7507 -1.8251,19.6642 4.2812,27.4688 0.5669,0.7245 1.1677,1.3998 1.7812,2.0312 l 0.031,-0.4687 8.0937,-3.5625 c 0,0 -3.75,5.9587 -3.75,6.75 0,0.034 0.029,0.7186 0.031,0.8125 7.521,4.5748 16.6364,3.5715 22.8125,-3.375 4.5498,-5.1172 6.5115,-12.3628 5.9062,-19.5313 -1.6651,5.2013 -6.5796,11.9096 -19.4687,10.8126 -13.0229,-1.1084 -22.8166,-10.4696 -19.7187,-20.9376 z" transform="matrix(0.20530148,-0.1288992,0.15205254,0.21652801,564.94341,166.34822)" id="path35371"/>
            <path id="path35360" transform="matrix(0.20530148,-0.1288992,0.15205254,0.21652801,559.92922,159.37449)" d="m 1038.1875,-1145.1562 c -0.017,9.371 -0.3223,21.6795 -0.2187,26.125 0.218,9.3686 1.1057,17.504 1.1874,17 0.1432,-0.8817 1.4377,-9.2622 1.3126,-17.875 -0.12,-8.2586 -0.7283,-17.8056 -1.3438,-25.1563 -0.3102,-0.035 -0.6272,-0.075 -0.9375,-0.094 z" style="color: rgb(0, 0, 0); fill: rgb(46, 93, 17); fill-opacity: 1; fill-rule: nonzero; stroke: none; stroke-width: 0; marker: none; visibility: visible; display: inline; overflow: visible;" inkscape:connector-curvature="0"/>
            <path inkscape:connector-curvature="0" id="path35442" transform="matrix(0.20530148,-0.1288992,0.15205254,0.21652801,564.94341,166.34822)" d="m 1036.1562,-1177.625 c -4.5932,0.169 -9.0707,2.2251 -12.5937,6.1875 -4.3091,4.8465 -6.2778,11.5884 -5.9687,18.375 0.2838,-5.809 2.2543,-11.3848 5.9687,-15.5625 3.7579,-4.2266 8.5859,-6.2742 13.5,-6.1875 5.5693,0.098 11.2219,2.9159 15.4687,8.3437 3.7039,4.7339 5.6701,10.6118 5.9376,16.4688 0.3281,-6.7465 -1.6407,-13.7895 -5.9376,-19.2812 -4.2468,-5.428 -9.8994,-8.2456 -15.4687,-8.3438 -0.3071,-0.01 -0.6,-0.011 -0.9063,0 z m -2.75,41.8125 -2.2812,1 c -0.7699,1.3351 -1.4688,2.6043 -1.4688,2.9375 1e-4,0.034 0.029,0.7186 0.031,0.8125 0.2249,0.1368 0.4598,0.2481 0.6875,0.375 1.0832,-2.0239 3.0312,-5.125 3.0312,-5.125 z" style="color: rgb(0, 0, 0); fill: rgb(105, 211, 39); fill-opacity: 1; fill-rule: nonzero; stroke: none; stroke-width: 0; marker: none; visibility: visible; display: inline; overflow: visible;"/>
          </g>
        </g>
        <path style="color: rgb(0, 0, 0); fill: rgb(46, 93, 17); fill-opacity: 1; fill-rule: nonzero; stroke: none; stroke-width: 0; marker: none; visibility: visible; display: inline; overflow: visible;" d="m 1025.1052,-1134.9567 8.2096,-3.5608 c 0,0 -2.176,4.5499 -2.5717,4.451 -0.3956,-0.099 -5.7368,3.5607 -5.7368,3.5607 z" id="path35430" inkscape:connector-curvature="0" transform="matrix(0.26458336,0,0,0.26458336,320.08182,94.083721)"/>
      </g>
      <g transform="matrix(0.81033035,-0.03633683,0.16027856,0.78502517,-322.90496,623.81377)" id="g35338">
        <path style="color: rgb(0, 0, 0); fill: rgb(62, 124, 23); fill-opacity: 1; fill-rule: nonzero; stroke: rgb(18, 18, 18); stroke-width: 10; stroke-linecap: round; stroke-linejoin: round; stroke-miterlimit: 4; stroke-opacity: 1; stroke-dasharray: none; stroke-dashoffset: 37.6; marker: none; visibility: visible; display: inline; overflow: visible;" d="m 1061.5625,-1198.0938 c -7.4548,0.1824 -13.2647,4.5918 -14.7813,11.8438 0,0.01 1.3868,-3.9351 1.3847,-3.9252 -1.0546,1.8656 -3.522,7.858 -3.6347,9.0814 -1.0387,11.2847 7.8942,24.0644 19.9688,28.5313 7.4428,2.7534 14.344,1.6926 18.7812,-2.1563 2.4162,-2.0957 5.028,-5.1755 5.9063,-8.8124 0.01,-0.042 0.022,-0.083 0.031,-0.125 0.4959,-1.3384 0.8238,-2.8012 0.9687,-4.375 1.0388,-11.2847 -7.8942,-24.0643 -19.9687,-28.5313 -3.0187,-1.1167 -5.9455,-1.5975 -8.6563,-1.5313 z" transform="matrix(0.26458336,0,0,0.26458336,320.08182,94.083721)" id="path35311" inkscape:connector-curvature="0" sodipodi:nodetypes="ccccscccccc"/>
        <path style="color: rgb(0, 0, 0); fill: rgb(49, 98, 18); fill-opacity: 1; fill-rule: nonzero; stroke: none; stroke-width: 0; marker: none; visibility: visible; display: inline; overflow: visible;" d="m 596.44722,-218.41215 c -0.27483,2.98573 2.09218,6.36424 5.28691,7.54612 1.96923,0.72851 3.7933,0.45237 4.96731,-0.56596 0.73061,-0.63372 1.52351,-1.60721 1.62894,-2.75252 0.27485,-2.98572 -2.40622,-6.31191 -5.60094,-7.49378 -1.94679,-0.72021 -3.74204,-1.03842 -4.90857,0.18396 -0.39016,0.40884 -1.36078,2.94239 -1.37365,3.08218 z" id="path35279" inkscape:connector-curvature="0" sodipodi:nodetypes="sssssss"/>
        <path inkscape:connector-curvature="0" id="path35281" d="m 596.95933,-219.23732 c -0.27485,2.98573 2.09218,6.36424 5.28691,7.54612 3.19472,1.18189 6.00737,-0.28042 6.28222,-3.26614 0.27485,-2.98572 -2.09218,-6.36423 -5.2869,-7.54612 -3.19473,-1.18188 -6.00738,0.28042 -6.28223,3.26614 z" style="color: rgb(0, 0, 0); fill: rgb(87, 174, 32); fill-opacity: 1; fill-rule: nonzero; stroke: none; stroke-width: 0; marker: none; visibility: visible; display: inline; overflow: visible;"/>
        <path inkscape:connector-curvature="0" style="color: rgb(0, 0, 0); fill: rgb(78, 156, 29); fill-opacity: 1; fill-rule: nonzero; stroke: none; stroke-width: 0; marker: none; visibility: visible; display: inline; overflow: visible;" d="m 1085.5312,-1184.1875 c 1.0493,5.1002 0.7849,12.081 -6.2187,10.9375 -9.6932,-1.5825 -13.0625,-8.6875 -13.0625,-8.6875 0,0 -7.1205,18.3879 -19.1875,1.9687 0,0 -0.2986,0.3326 -0.4687,0.5313 1.385,9.9058 9.4505,19.9051 19.8437,23.75 12.0745,4.467 22.7112,-1.0591 23.75,-12.3437 0.4981,-5.4107 -1.3192,-11.1419 -4.6563,-16.1563 z" transform="matrix(0.26458336,0,0,0.26458336,320.08182,94.083721)" id="path35323"/>
        <path inkscape:connector-curvature="0" style="color: rgb(0, 0, 0); fill: rgb(105, 211, 39); fill-opacity: 1; fill-rule: nonzero; stroke: none; stroke-width: 0; marker: none; visibility: visible; display: inline; overflow: visible;" d="m 1061.6875,-1198.0938 c 2.2871,0.062 4.7203,0.5445 7.2187,1.4688 11.4215,4.2254 19.8889,16.2945 18.9063,26.9688 -0.9826,10.6742 -11.016,15.9128 -22.4375,11.6874 -10.607,-3.924 -18.6609,-14.6321 -18.9688,-24.6874 -0.1373,10.8805 8.5064,22.7051 20.0313,26.9687 12.0745,4.467 22.7112,-1.0591 23.75,-12.3437 1.0388,-11.2847 -7.8942,-24.0643 -19.9687,-28.5313 -2.973,-1.0998 -5.8551,-1.5799 -8.5313,-1.5313 z" transform="matrix(0.26458336,0,0,0.26458336,320.08182,94.083721)" id="path35316"/>
        <path style="color: rgb(0, 0, 0); fill: rgb(46, 93, 17); fill-opacity: 1; fill-rule: nonzero; stroke: none; stroke-width: 0; marker: none; visibility: visible; display: inline; overflow: visible;" d="m 1057.7456,-1189.8519 c 6.5281,5.9346 22.1559,29.2774 21.7602,28.4862 -0.3956,-0.7913 -4.352,-10.0889 -9.4953,-17.0126 -5.1434,-6.9237 -12.2649,-11.4736 -12.2649,-11.4736 z" id="path35321" inkscape:connector-curvature="0" transform="matrix(0.26458336,0,0,0.26458336,320.08182,94.083721)"/>
        <path style="color: rgb(0, 0, 0); fill: rgb(103, 208, 38); fill-opacity: 1; fill-rule: nonzero; stroke: none; stroke-width: 0; marker: none; visibility: visible; display: inline; overflow: visible;" d="m 1069.417,-1196.1821 c -9.2975,-1.9782 -8.3084,3.1651 -2.9673,5.9346 5.3412,2.7695 10.8801,-0.7913 8.5063,-3.1651 -2.3739,-2.3739 -5.539,-2.7695 -5.539,-2.7695 z" id="path35328" inkscape:connector-curvature="0" transform="matrix(0.26458336,0,0,0.26458336,320.08182,94.083721)"/>
        <path style="color: rgb(0, 0, 0); fill: rgb(103, 208, 38); fill-opacity: 1; fill-rule: nonzero; stroke: none; stroke-width: 0; marker: none; visibility: visible; display: inline; overflow: visible;" d="m 1077.132,-1188.4671 c -3.7586,0.7912 -1.7804,3.5607 0,4.352 1.7804,0.7913 4.7477,-1.3847 3.5608,-2.9673 -1.187,-1.5826 -3.5608,-1.3847 -3.5608,-1.3847 z" id="path35330" inkscape:connector-curvature="0" transform="matrix(0.26458336,0,0,0.26458336,320.08182,94.083721)"/>
      </g>
      <g transform="matrix(-1.1364303,0,0,1.1364303,799.24544,682.26979)" id="g35447">
        <path sodipodi:nodetypes="ccccscccccc" inkscape:connector-curvature="0" id="path35449" transform="matrix(0.26458336,0,0,0.26458336,320.08182,94.083721)" d="m 1061.5625,-1198.0938 c -7.4548,0.1824 -13.2647,4.5918 -14.7813,11.8438 0,0.01 1.3868,-3.9351 1.3847,-3.9252 -1.0546,1.8656 -3.522,7.858 -3.6347,9.0814 -1.0387,11.2847 7.8942,24.0644 19.9688,28.5313 7.4428,2.7534 14.344,1.6926 18.7812,-2.1563 2.4162,-2.0957 5.028,-5.1755 5.9063,-8.8124 0.01,-0.042 0.022,-0.083 0.031,-0.125 0.4959,-1.3384 0.8238,-2.8012 0.9687,-4.375 1.0388,-11.2847 -7.8942,-24.0643 -19.9687,-28.5313 -3.0187,-1.1167 -5.9455,-1.5975 -8.6563,-1.5313 z" style="color: rgb(0, 0, 0); fill: rgb(62, 124, 23); fill-opacity: 1; fill-rule: nonzero; stroke: rgb(18, 18, 18); stroke-width: 7.93215; stroke-linecap: round; stroke-linejoin: round; stroke-miterlimit: 4; stroke-opacity: 1; stroke-dasharray: none; stroke-dashoffset: 37.6; marker: none; visibility: visible; display: inline; overflow: visible;"/>
        <path sodipodi:nodetypes="sssssss" inkscape:connector-curvature="0" id="path35451" d="m 596.44722,-218.41215 c -0.27483,2.98573 2.09218,6.36424 5.28691,7.54612 1.96923,0.72851 3.7933,0.45237 4.96731,-0.56596 0.73061,-0.63372 1.52351,-1.60721 1.62894,-2.75252 0.27485,-2.98572 -2.40622,-6.31191 -5.60094,-7.49378 -1.94679,-0.72021 -3.74204,-1.03842 -4.90857,0.18396 -0.39016,0.40884 -1.36078,2.94239 -1.37365,3.08218 z" style="color: rgb(0, 0, 0); fill: rgb(49, 98, 18); fill-opacity: 1; fill-rule: nonzero; stroke: none; stroke-width: 0; marker: none; visibility: visible; display: inline; overflow: visible;"/>
        <path style="color: rgb(0, 0, 0); fill: rgb(97, 195, 36); fill-opacity: 1; fill-rule: nonzero; stroke: none; stroke-width: 0; marker: none; visibility: visible; display: inline; overflow: visible;" d="m 596.95933,-219.23732 c -0.27485,2.98573 2.09218,6.36424 5.28691,7.54612 3.19472,1.18189 6.00737,-0.28042 6.28222,-3.26614 0.27485,-2.98572 -2.09218,-6.36423 -5.2869,-7.54612 -3.19473,-1.18188 -6.00738,0.28042 -6.28223,3.26614 z" id="path35453" inkscape:connector-curvature="0"/>
        <path inkscape:connector-curvature="0" id="path35455" transform="matrix(0.26458336,0,0,0.26458336,320.08182,94.083721)" d="m 1085.5312,-1184.1875 c 1.0493,5.1002 0.7849,12.081 -6.2187,10.9375 -9.6932,-1.5825 -13.0625,-8.6875 -13.0625,-8.6875 0,0 -7.1205,18.3879 -19.1875,1.9687 0,0 -0.2986,0.3326 -0.4687,0.5313 1.385,9.9058 9.4505,19.9051 19.8437,23.75 12.0745,4.467 22.7112,-1.0591 23.75,-12.3437 0.4981,-5.4107 -1.3192,-11.1419 -4.6563,-16.1563 z" style="color: rgb(0, 0, 0); fill: rgb(78, 156, 29); fill-opacity: 1; fill-rule: nonzero; stroke: none; stroke-width: 0; marker: none; visibility: visible; display: inline; overflow: visible;"/>
        <path inkscape:connector-curvature="0" id="path35457" transform="matrix(0.26458336,0,0,0.26458336,320.08182,94.083721)" d="m 1061.6875,-1198.0938 c 2.2871,0.062 4.7203,0.5445 7.2187,1.4688 11.4215,4.2254 19.8889,16.2945 18.9063,26.9688 -0.9826,10.6742 -11.016,15.9128 -22.4375,11.6874 -10.607,-3.924 -18.6609,-14.6321 -18.9688,-24.6874 -0.1373,10.8805 8.5064,22.7051 20.0313,26.9687 12.0745,4.467 22.7112,-1.0591 23.75,-12.3437 1.0388,-11.2847 -7.8942,-24.0643 -19.9687,-28.5313 -2.973,-1.0998 -5.8551,-1.5799 -8.5313,-1.5313 z" style="color: rgb(0, 0, 0); fill: rgb(105, 211, 39); fill-opacity: 1; fill-rule: nonzero; stroke: none; stroke-width: 0; marker: none; visibility: visible; display: inline; overflow: visible;"/>
        <path transform="matrix(0.26458336,0,0,0.26458336,320.08182,94.083721)" inkscape:connector-curvature="0" id="path35459" d="m 1057.7456,-1189.8519 c 6.5281,5.9346 22.1559,29.2774 21.7602,28.4862 -0.3956,-0.7913 -4.352,-10.0889 -9.4953,-17.0126 -5.1434,-6.9237 -12.2649,-11.4736 -12.2649,-11.4736 z" style="color: rgb(0, 0, 0); fill: rgb(46, 93, 17); fill-opacity: 1; fill-rule: nonzero; stroke: none; stroke-width: 0; marker: none; visibility: visible; display: inline; overflow: visible;"/>
        <path transform="matrix(0.26458336,0,0,0.26458336,320.08182,94.083721)" inkscape:connector-curvature="0" id="path35461" d="m 1069.417,-1196.1821 c -9.2975,-1.9782 -8.3084,3.1651 -2.9673,5.9346 5.3412,2.7695 10.8801,-0.7913 8.5063,-3.1651 -2.3739,-2.3739 -5.539,-2.7695 -5.539,-2.7695 z" style="color: rgb(0, 0, 0); fill: rgb(120, 228, 54); fill-opacity: 1; fill-rule: nonzero; stroke: none; stroke-width: 0; marker: none; visibility: visible; display: inline; overflow: visible;"/>
        <path transform="matrix(0.26458336,0,0,0.26458336,320.08182,94.083721)" inkscape:connector-curvature="0" id="path35463" d="m 1077.132,-1188.4671 c -3.7586,0.7912 -1.7804,3.5607 0,4.352 1.7804,0.7913 4.7477,-1.3847 3.5608,-2.9673 -1.187,-1.5826 -3.5608,-1.3847 -3.5608,-1.3847 z" style="color: rgb(0, 0, 0); fill: rgb(120, 228, 54); fill-opacity: 1; fill-rule: nonzero; stroke: none; stroke-width: 0; marker: none; visibility: visible; display: inline; overflow: visible;"/>
      </g>
    </g>
  </g>
</svg>