<?xml version="1.0" encoding="UTF-8" standalone="no"?><!-- Created with Inkscape (http://www.inkscape.org/) --><svg xmlns:dc="http://purl.org/dc/elements/1.1/" xmlns:cc="http://creativecommons.org/ns#" xmlns:rdf="http://www.w3.org/1999/02/22-rdf-syntax-ns#" xmlns:svg="http://www.w3.org/2000/svg" xmlns="http://www.w3.org/2000/svg" xmlns:sodipodi="http://sodipodi.sourceforge.net/DTD/sodipodi-0.dtd" xmlns:inkscape="http://www.inkscape.org/namespaces/inkscape" width="209.78885" height="185.30511" viewBox="0 0 55.506631 49.028641" version="1.1" id="svg23489" inkscape:version="0.48.5 r10040" sodipodi:docname="plant_03.svg">
  <defs id="defs23483">
    <clipPath clipPathUnits="userSpaceOnUse" id="clipPath22932">
      <path style="opacity: 0.39823; color: rgb(0, 0, 0); fill: rgb(133, 221, 115); fill-opacity: 1; fill-rule: nonzero; stroke: none; stroke-width: 0; marker: none; visibility: visible; display: inline; overflow: visible;" d="m 544.30169,181.88988 c 0.28587,0.59217 2.59866,1.15837 3.74216,0.1578 0.98015,2.77708 16.86469,0 16.86469,0 l 0,-16.17162 -30.55281,0 0,15.42079 c 0,0 6.65838,3.49263 9.94596,0.59303 z" id="path22934" inkscape:connector-curvature="0" sodipodi:nodetypes="ccccccc"/>
    </clipPath>
    <clipPath clipPathUnits="userSpaceOnUse" id="clipPath22874">
      <path style="opacity: 0.39823; color: rgb(0, 0, 0); fill: rgb(133, 221, 115); fill-opacity: 1; fill-rule: nonzero; stroke: none; stroke-width: 0; marker: none; visibility: visible; display: inline; overflow: visible;" d="m 507.96393,172.04108 c 5.63585,4.14521 4.40861,7.03756 4.24526,7.42553 -0.16336,0.38797 -0.45419,0.84609 -0.55527,0.75946 0,0 -0.23077,1.39392 -0.96715,1.52387 0,0 0.7281,2.05291 -3.23333,2.91054 -3.96143,0.85763 -12.08849,-2.45037 -11.76178,-7.80034 0.32672,-5.34998 9.00511,-7.35111 12.27227,-4.81906 z" id="path22876" inkscape:connector-curvature="0" sodipodi:nodetypes="csccssc"/>
    </clipPath>
    <clipPath clipPathUnits="userSpaceOnUse" id="clipPath22894">
      <path style="opacity: 0.39823; color: rgb(0, 0, 0); fill: rgb(133, 221, 115); fill-opacity: 1; fill-rule: nonzero; stroke: none; stroke-width: 0; marker: none; visibility: visible; display: inline; overflow: visible;" d="m 519.13353,181.84256 c 1.53,1.07862 2.21773,-0.85703 2.00114,-1.06183 0.0817,0.0408 1.9603,0.65343 4.32899,-2.85877 2.36869,-3.51219 0,-9.96483 -8.00455,-11.96597 -8.00454,-2.00113 -11.2717,3.47136 -11.47589,10.16904 -0.2042,6.69767 5.75836,9.27056 9.76064,9.7198 4.00227,0.44923 3.38967,-4.00227 3.38967,-4.00227 z" id="path22896" inkscape:connector-curvature="0" sodipodi:nodetypes="ccssssc"/>
    </clipPath>
    <clipPath clipPathUnits="userSpaceOnUse" id="clipPath23263">
      <path style="opacity: 0.39823; color: rgb(0, 0, 0); fill: rgb(133, 221, 115); fill-opacity: 1; fill-rule: nonzero; stroke: none; stroke-width: 0; marker: none; visibility: visible; display: inline; overflow: visible;" d="m 507.96393,172.04108 c 5.63585,4.14521 4.40861,7.03756 4.24526,7.42553 -0.16336,0.38797 -0.45419,0.84609 -0.55527,0.75946 0,0 -0.23077,1.39392 -0.96715,1.52387 0,0 0.7281,2.05291 -3.23333,2.91054 -3.96143,0.85763 -12.08849,-2.45037 -11.76178,-7.80034 0.32672,-5.34998 9.00511,-7.35111 12.27227,-4.81906 z" id="path23265" inkscape:connector-curvature="0" sodipodi:nodetypes="csccssc"/>
    </clipPath>
    <clipPath clipPathUnits="userSpaceOnUse" id="clipPath22907">
      <path style="opacity: 0.39823; color: rgb(0, 0, 0); fill: rgb(133, 221, 115); fill-opacity: 1; fill-rule: nonzero; stroke: none; stroke-width: 0; marker: none; visibility: visible; display: inline; overflow: visible;" d="m 525.58617,181.98549 c 0.89522,0.98185 2.40724,0.64233 3.04255,0.12252 0.16124,0.72559 12.13955,0.23486 11.90471,0 -0.23482,-0.23483 4.09811,-23.83249 0,-26.19853 -4.09811,-2.36605 -15.11061,0 -21.31822,0 -6.2076,0 -9.48879,8.76153 -8.08444,14.00265 1.40436,5.24112 4.81751,7.15803 7.00687,9.97898 2.18936,2.82095 7.44853,2.09438 7.44853,2.09438 z" id="path22909" inkscape:connector-curvature="0" sodipodi:nodetypes="ccsssssc"/>
    </clipPath>
    <clipPath clipPathUnits="userSpaceOnUse" id="clipPath23269">
      <path style="opacity: 0.39823; color: rgb(0, 0, 0); fill: rgb(133, 221, 115); fill-opacity: 1; fill-rule: nonzero; stroke: none; stroke-width: 0; marker: none; visibility: visible; display: inline; overflow: visible;" d="m 525.58617,181.98549 c 0.89522,0.98185 2.40724,0.64233 3.04255,0.12252 0.16124,0.72559 12.13955,0.23486 11.90471,0 -0.23482,-0.23483 4.09811,-23.83249 0,-26.19853 -4.09811,-2.36605 -15.11061,0 -21.31822,0 -6.2076,0 -9.48879,8.76153 -8.08444,14.00265 1.40436,5.24112 4.81751,7.15803 7.00687,9.97898 2.18936,2.82095 7.44853,2.09438 7.44853,2.09438 z" id="path23271" inkscape:connector-curvature="0" sodipodi:nodetypes="ccsssssc"/>
    </clipPath>
    <clipPath clipPathUnits="userSpaceOnUse" id="clipPath23273">
      <path style="opacity: 0.39823; color: rgb(0, 0, 0); fill: rgb(133, 221, 115); fill-opacity: 1; fill-rule: nonzero; stroke: none; stroke-width: 0; marker: none; visibility: visible; display: inline; overflow: visible;" d="m 507.96393,172.04108 c 5.63585,4.14521 4.40861,7.03756 4.24526,7.42553 -0.16336,0.38797 -0.45419,0.84609 -0.55527,0.75946 0,0 -0.23077,1.39392 -0.96715,1.52387 0,0 0.7281,2.05291 -3.23333,2.91054 -3.96143,0.85763 -12.08849,-2.45037 -11.76178,-7.80034 0.32672,-5.34998 9.00511,-7.35111 12.27227,-4.81906 z" id="path23275" inkscape:connector-curvature="0" sodipodi:nodetypes="csccssc"/>
    </clipPath>
    <clipPath clipPathUnits="userSpaceOnUse" id="clipPath23277">
      <path style="opacity: 0.39823; color: rgb(0, 0, 0); fill: rgb(133, 221, 115); fill-opacity: 1; fill-rule: nonzero; stroke: none; stroke-width: 0; marker: none; visibility: visible; display: inline; overflow: visible;" d="m 519.13353,181.84256 c 1.53,1.07862 2.21773,-0.85703 2.00114,-1.06183 0.0817,0.0408 1.9603,0.65343 4.32899,-2.85877 2.36869,-3.51219 0,-9.96483 -8.00455,-11.96597 -8.00454,-2.00113 -11.2717,3.47136 -11.47589,10.16904 -0.2042,6.69767 5.75836,9.27056 9.76064,9.7198 4.00227,0.44923 3.38967,-4.00227 3.38967,-4.00227 z" id="path23279" inkscape:connector-curvature="0" sodipodi:nodetypes="ccssssc"/>
    </clipPath>
    <clipPath clipPathUnits="userSpaceOnUse" id="clipPath23281">
      <path style="opacity: 0.39823; color: rgb(0, 0, 0); fill: rgb(133, 221, 115); fill-opacity: 1; fill-rule: nonzero; stroke: none; stroke-width: 0; marker: none; visibility: visible; display: inline; overflow: visible;" d="m 525.58617,181.98549 c 0.89522,0.98185 2.40724,0.64233 3.04255,0.12252 0.16124,0.72559 12.13955,0.23486 11.90471,0 -0.23482,-0.23483 4.09811,-23.83249 0,-26.19853 -4.09811,-2.36605 -15.11061,0 -21.31822,0 -6.2076,0 -9.48879,8.76153 -8.08444,14.00265 1.40436,5.24112 4.81751,7.15803 7.00687,9.97898 2.18936,2.82095 7.44853,2.09438 7.44853,2.09438 z" id="path23283" inkscape:connector-curvature="0" sodipodi:nodetypes="ccsssssc"/>
    </clipPath>
    <clipPath clipPathUnits="userSpaceOnUse" id="clipPath23285">
      <path style="opacity: 0.39823; color: rgb(0, 0, 0); fill: rgb(133, 221, 115); fill-opacity: 1; fill-rule: nonzero; stroke: none; stroke-width: 0; marker: none; visibility: visible; display: inline; overflow: visible;" d="m 544.30169,181.88988 c 0.28587,0.59217 2.59866,1.15837 3.74216,0.1578 0.98015,2.77708 16.86469,0 16.86469,0 l 0,-16.17162 -30.55281,0 0,15.42079 c 0,0 6.65838,3.49263 9.94596,0.59303 z" id="path23287" inkscape:connector-curvature="0" sodipodi:nodetypes="ccccccc"/>
    </clipPath>
    <clipPath clipPathUnits="userSpaceOnUse" id="clipPath23289">
      <path style="opacity: 0.39823; color: rgb(0, 0, 0); fill: rgb(133, 221, 115); fill-opacity: 1; fill-rule: nonzero; stroke: none; stroke-width: 0; marker: none; visibility: visible; display: inline; overflow: visible;" d="m 507.96393,172.04108 c 5.63585,4.14521 4.40861,7.03756 4.24526,7.42553 -0.16336,0.38797 -0.45419,0.84609 -0.55527,0.75946 0,0 -0.23077,1.39392 -0.96715,1.52387 0,0 0.7281,2.05291 -3.23333,2.91054 -3.96143,0.85763 -12.08849,-2.45037 -11.76178,-7.80034 0.32672,-5.34998 9.00511,-7.35111 12.27227,-4.81906 z" id="path23291" inkscape:connector-curvature="0" sodipodi:nodetypes="csccssc"/>
    </clipPath>
    <clipPath clipPathUnits="userSpaceOnUse" id="clipPath22919">
      <path style="opacity: 0.39823; color: rgb(0, 0, 0); fill: rgb(133, 221, 115); fill-opacity: 1; fill-rule: nonzero; stroke: none; stroke-width: 0; marker: none; visibility: visible; display: inline; overflow: visible;" d="m 533.24358,180.67863 c -0.16336,1.16393 0.51049,2.00114 2.00114,1.20477 -1.74256,1.5022 -0.71572,1.26164 1.42124,3.05207 2.13697,1.79043 11.4934,0.98185 12.12872,0.5198 0.63531,-0.46205 8.02805,-6.41089 8.0858,-8.66336 0.0578,-2.25248 -1.90593,-15.01651 -5.19801,-17.78878 -3.29208,-2.77228 -16.4604,-0.57756 -19.75248,-0.0578 -3.29208,0.5198 -10.16501,5.71782 -9.93399,5.77558 0.23102,0.0577 2.83003,15.42079 2.77228,15.65181 -0.0578,0.23102 2.42574,4.15842 2.83003,3.92739 0.40429,-0.23102 3.95121,-3.17246 3.95121,-3.17246 0,0 1.59196,0.89865 1.69406,-0.44906 z" id="path22921" inkscape:connector-curvature="0" sodipodi:nodetypes="ccsssssssscc"/>
    </clipPath>
    <clipPath clipPathUnits="userSpaceOnUse" id="clipPath23295">
      <path style="opacity: 0.39823; color: rgb(0, 0, 0); fill: rgb(133, 221, 115); fill-opacity: 1; fill-rule: nonzero; stroke: none; stroke-width: 0; marker: none; visibility: visible; display: inline; overflow: visible;" d="m 525.58617,181.98549 c 0.89522,0.98185 2.40724,0.64233 3.04255,0.12252 0.16124,0.72559 12.13955,0.23486 11.90471,0 -0.23482,-0.23483 4.09811,-23.83249 0,-26.19853 -4.09811,-2.36605 -15.11061,0 -21.31822,0 -6.2076,0 -9.48879,8.76153 -8.08444,14.00265 1.40436,5.24112 4.81751,7.15803 7.00687,9.97898 2.18936,2.82095 7.44853,2.09438 7.44853,2.09438 z" id="path23297" inkscape:connector-curvature="0" sodipodi:nodetypes="ccsssssc"/>
    </clipPath>
    <clipPath clipPathUnits="userSpaceOnUse" id="clipPath23299">
      <path style="opacity: 0.39823; color: rgb(0, 0, 0); fill: rgb(133, 221, 115); fill-opacity: 1; fill-rule: nonzero; stroke: none; stroke-width: 0; marker: none; visibility: visible; display: inline; overflow: visible;" d="m 525.58617,181.98549 c 0.89522,0.98185 2.40724,0.64233 3.04255,0.12252 0.16124,0.72559 12.13955,0.23486 11.90471,0 -0.23482,-0.23483 4.09811,-23.83249 0,-26.19853 -4.09811,-2.36605 -15.11061,0 -21.31822,0 -6.2076,0 -9.48879,8.76153 -8.08444,14.00265 1.40436,5.24112 4.81751,7.15803 7.00687,9.97898 2.18936,2.82095 7.44853,2.09438 7.44853,2.09438 z" id="path23301" inkscape:connector-curvature="0" sodipodi:nodetypes="ccsssssc"/>
    </clipPath>
  </defs>
  <sodipodi:namedview id="base" pagecolor="#7d848b" bordercolor="#666666" borderopacity="1.0" inkscape:pageopacity="0" inkscape:pageshadow="2" inkscape:zoom="2.2905361" inkscape:cx="34.920364" inkscape:cy="134.66088" inkscape:document-units="px" inkscape:current-layer="layer1" showgrid="false" inkscape:pagecheckerboard="false" showborder="true" units="px" inkscape:window-width="1920" inkscape:window-height="1017" inkscape:window-x="-8" inkscape:window-y="-8" inkscape:window-maximized="1" inkscape:showpageshadow="false" guidetolerance="28" fit-margin-top="8" fit-margin-left="8" fit-margin-right="8" fit-margin-bottom="8">
    <inkscape:grid type="xygrid" id="grid24034" spacingx="1px" spacingy="1px" empspacing="8" visible="true" enabled="true" snapvisiblegridlinesonly="true" originx="-241.90228px" originy="258.86311px"/>
  </sodipodi:namedview>
  <metadata id="metadata23486">
    <rdf:RDF>
      <cc:Work rdf:about="">
        <dc:format>image/svg+xml</dc:format>
        <dc:type rdf:resource="http://purl.org/dc/dcmitype/StillImage"/>
        <dc:title/>
        <cc:license rdf:resource=""/>
        <dc:creator>
          <cc:Agent>
            <dc:title>Robert Brooks</dc:title>
          </cc:Agent>
        </dc:creator>
      </cc:Work>
    </rdf:RDF>
  </metadata>
  <g inkscape:label="Layer 1" inkscape:groupmode="layer" id="layer1" transform="translate(-64.003311,-316.46219)">
    <path style="opacity: 0.21; color: rgb(0, 0, 0); fill: rgb(0, 0, 0); fill-opacity: 1; fill-rule: nonzero; stroke: none; stroke-width: 0; marker: none; visibility: visible; display: inline; overflow: visible;" d="m 75.749734,342.83685 c -9.421204,1.67488 -10.677366,5.86208 -9.002474,7.74632 1.674865,1.88424 6.07142,1.0468 6.07142,1.0468 0,0 0.418729,6.28079 3.559122,7.11823 3.140392,0.83744 5.233987,-1.25616 5.233987,-1.25616 0,0 -0.209338,6.2808 9.839937,5.86208 10.049274,-0.41872 10.677344,-2.72168 10.677344,-2.72168 0,0 5.44337,2.30296 10.468,-0.62808 5.02465,-2.93104 2.93105,-7.53695 1.04679,-9.42119 -1.88423,-1.88424 -1.25616,-1.25616 -1.25616,-1.25616 0,0 3.55912,0.62808 4.81529,-2.0936 1.25616,-2.72168 -3.97783,-7.95568 -7.74632,-8.58376 -3.76848,-0.62808 -15.911354,0 -19.470474,0.62808 -3.559123,0.62808 -14.236462,3.55912 -14.236462,3.55912 z" id="path17327" inkscape:connector-curvature="0" gds_color="shadow" gds_opacity="shadow" gds_switchable="shadow"/>
    <g id="g30156" transform="matrix(1.1318705,0.09128995,-0.09128995,1.1318705,-182.62623,214.61421)">
      <g id="g30158" transform="matrix(1.0197997,0.09198832,-0.30184257,0.95335778,30.726917,-5.6864181)">
        <path id="path30160" transform="matrix(0.26458336,0,0,0.26458336,320.08182,94.083721)" d="m -360.28125,-102.09375 c -4.50559,-0.0368 -8.68601,1.36697 -11.6875,4.96875 -7.34676,8.81612 -6.94517,20.390996 -2.21875,26.96875 0.17015,1.013738 0.375,1.625 0.375,1.625 0.87315,3.710921 5.75606,2.5299 5.34375,-0.21875 0,0 -1.86462,-12.365147 13.53125,-12.78125 16.1534,-0.436581 22.80032,12.128685 24.4375,13.875 0.7091,1.087286 1.17503,0.701091 1.21875,-0.40625 0.28904,-0.0016 0.62768,-0.465152 0.96875,-2 0.87315,-3.929212 -1.29693,-14.421904 -8.71875,-21.84375 -4.87059,-4.870584 -14.64841,-10.11727 -23.25,-10.1875 z" style="color: rgb(0, 0, 0); fill: rgb(70, 190, 46); fill-opacity: 1; fill-rule: nonzero; stroke: rgb(18, 18, 18); stroke-width: 8.80634; stroke-linejoin: round; stroke-opacity: 1; marker: none; visibility: visible; display: inline; overflow: visible;" inkscape:connector-curvature="0"/>
        <g id="g30162">
          <path style="color: rgb(0, 0, 0); fill: rgb(70, 190, 46); fill-opacity: 1; fill-rule: nonzero; stroke: none; stroke-width: 0; marker: none; visibility: visible; display: inline; overflow: visible;" d="m -371.09217,-67.007632 c -7.42184,-5.238949 -9.60474,-19.646056 -0.87316,-30.123953 8.73159,-10.477895 27.50448,-2.182895 34.92633,5.238948 7.42184,7.421844 9.60473,17.89974 8.73158,21.828951 -0.87316,3.929212 -1.74632,0.873158 -1.74632,0.873158 0,0 -3.49263,-10.041317 -14.84369,-13.533949 -11.35105,-3.492632 -20.51921,-3.492632 -24.01184,3.056053 -3.49263,6.548685 -2.1829,12.660792 -2.1829,12.660792 z" id="path30164" inkscape:connector-curvature="0" transform="matrix(0.26458336,0,0,0.26458336,320.08182,94.083721)"/>
          <path style="color: rgb(0, 0, 0); fill: rgb(39, 104, 25); fill-opacity: 1; fill-rule: nonzero; stroke: none; stroke-width: 0; marker: none; visibility: visible; display: inline; overflow: visible;" d="m 232.37968,74.39092 c -6.0066,-6.699669 -10.48267,-2.425742 -11.06023,-1.039604 -0.57756,1.386139 -0.14439,2.59901 -0.14439,2.59901 0.23102,0.981848 1.52411,0.669487 1.41502,-0.05776 0,0 -0.49263,-3.268618 3.58086,-3.378712 4.27392,-0.115512 6.03547,3.205445 6.46864,3.667491 0.43317,0.664191 0.49092,-0.750825 -0.2599,-1.790429 z" id="path30166" inkscape:connector-curvature="0" sodipodi:nodetypes="csccscc"/>
          <path id="path30168" transform="matrix(-0.25224261,0.02433858,0.07986252,0.26982204,170.12996,91.14863)" d="m -236.78125,-67.84375 c -9.19485,0.382168 -18.21161,6.603603 -21.875,11.9375 -2.44896,3.565685 -3.54394,7.651508 -3.84375,11.375 0.79681,1.777434 1.65625,2.589704 1.65625,2.84375 0,0.212205 1.42493,1.289231 3.5,2.59375 1.44792,-3.020299 4.20796,-6.594304 9.46875,-8.78125 1.48038,-0.615406 2.94837,-1.158388 4.375,-1.625 -0.10506,-9.308017 5.99242,-13.525499 13,-12.5 7.83114,1.14602 15.13367,9.156102 16.84375,14.0625 -1.19257,-5.47043 -4.72727,-11.428781 -10.9375,-16.15625 -3.77098,-2.870618 -8.00802,-3.923713 -12.1875,-3.75 z" style="color: rgb(0, 0, 0); fill: rgb(95, 211, 71); fill-opacity: 1; fill-rule: nonzero; stroke: none; stroke-width: 0; marker: none; visibility: visible; display: inline; overflow: visible;" inkscape:connector-curvature="0"/>
        </g>
      </g>
      <g transform="matrix(-0.71039313,0.19111889,0.02166743,0.4631092,437.65917,-2.7866038)" id="g30170">
        <path style="color: rgb(0, 0, 0); fill: rgb(70, 190, 46); fill-opacity: 1; fill-rule: nonzero; stroke: rgb(18, 18, 18); stroke-width: 15.2577; stroke-linejoin: round; stroke-miterlimit: 4; stroke-opacity: 1; stroke-dasharray: none; marker: none; visibility: visible; display: inline; overflow: visible;" d="m -155.9375,-128.28125 c -18.99451,-0.6062 -33.11145,31.224056 -34.46875,46.96875 -1.27247,14.760661 1.88683,22.33782 1.90395,22.747237 0.11331,2.712234 2.15855,-0.215987 2.15855,-0.215987 0,0 0.25988,-6.515818 0.53125,-8.6875 0.27145,-2.171682 2.18602,-14.383681 7.34375,-24.15625 5.15773,-9.77257 10.03125,-11.125 10.03125,-11.125 0,0 4.09266,20.080589 13.59375,25.78125 5.1977,3.11863 9.80218,2.577889 13.0625,0.5625 19.01006,-7.309875 9.48244,-51.12057 -14.15625,-51.875 z" transform="matrix(0.26458336,0,0,0.26458336,320.08182,94.083721)" id="path30172" inkscape:connector-curvature="0" sodipodi:nodetypes="sscccscscs"/>
        <g id="g30174" transform="matrix(0.62178966,0,0,0.62178966,95.960382,35.868817)">
          <path sodipodi:nodetypes="csssssssc" transform="matrix(0.26458336,0,0,0.26458336,320.08182,94.083721)" inkscape:connector-curvature="0" id="path30176" d="m -83.617582,-122.9669 c 41.038427,-1.74631 26.42573,-83.74602 -14.612699,-85.05576 -30.548099,-0.97493 -53.262639,50.20659 -55.445529,75.52817 -2.1829,25.32159 -0.61211,33.306088 2.19642,36.078562 4.97114,4.907313 2.61496,-1.620371 3.05153,-6.859322 0.43658,-5.23894 -1.75532,-17.4316 5.66652,-33.58503 7.42184,-16.15342 13.53395,-34.48974 32.30685,-34.92632 18.772896,-0.43658 36.236057,17.02658 35.362898,18.7729 -0.873158,1.74632 -8.52599,30.0468 -8.52599,30.0468 z" style="color: rgb(0, 0, 0); fill: rgb(70, 190, 46); fill-opacity: 1; fill-rule: nonzero; stroke: none; stroke-width: 0; marker: none; visibility: visible; display: inline; overflow: visible;"/>
          <path inkscape:connector-curvature="0" style="color: rgb(0, 0, 0); fill: rgb(99, 212, 75); fill-opacity: 1; fill-rule: nonzero; stroke: none; stroke-width: 0; marker: none; visibility: visible; display: inline; overflow: visible;" d="m -155.9375,-128.28125 c -10.58533,-0.33783 -19.65035,9.40258 -25.84375,20.8125 11.39413,-13.76422 21.82586,-16.164 29.40625,-13.46875 8.44491,3.00263 6.5963,17.08316 5.625,21.40625 3.38511,2.531433 5.43088,4.981996 5.1875,5.46875 -0.19832,0.396642 -0.9891,3.172071 -1.875,6.3125 1.42458,3.656133 2.95481,7.492118 3.9375,10.21875 15.90284,-9.833014 6.19627,-50.02764 -16.4375,-50.75 z" transform="matrix(0.42551907,0,0,0.42551907,360.44574,93.624754)" id="path30178"/>
          <path sodipodi:nodetypes="ssss" style="color: rgb(0, 0, 0); fill: rgb(54, 147, 35); fill-opacity: 1; fill-rule: nonzero; stroke: rgb(18, 18, 18); stroke-width: 1.87363; stroke-miterlimit: 4; stroke-opacity: 1; stroke-dasharray: none; marker: none; visibility: visible; display: inline; overflow: visible;" d="m 295.98038,52.580708 c 1.82666,-2.270888 6.70464,0.592295 6.19715,5.638596 -0.23375,2.324352 -3.58086,5.082507 -7.62376,2.656764 -4.0429,-2.42574 -1.38488,-4.800132 1.42661,-8.29536 z" id="path30180" inkscape:connector-curvature="0"/>
          <path inkscape:connector-curvature="0" id="path30182" d="m 280.46256,62.193138 c 4.38944,-16.518151 12.93609,-16.33357 16.63246,-13.792316 3.69637,2.541255 5.42905,7.508252 5.08251,9.818482 -0.34653,2.310231 -3.58086,5.082507 -7.62376,2.656764 -4.0429,-2.42574 -5.77558,-10.973595 -5.77558,-10.973595 0,0 -2.07921,0.577557 -4.27393,4.735974 -2.19471,4.158414 -3.0033,9.356434 -3.11881,10.280526 -0.11551,0.924092 -0.23102,3.69637 -0.23102,3.69637 0,0 -1.33792,0.692061 -1.38614,-0.462047 -0.0929,-2.223309 0.69427,-5.960158 0.69427,-5.960158 z" style="color: rgb(0, 0, 0); fill: rgb(54, 147, 35); fill-opacity: 1; fill-rule: nonzero; stroke: none; stroke-width: 0; marker: none; visibility: visible; display: inline; overflow: visible;" sodipodi:nodetypes="cssscsscsc"/>
        </g>
      </g>
      <g transform="matrix(-1.0197997,0.09198832,0.30184257,0.95335778,469.66164,-5.6864181)" id="g30184">
        <path inkscape:connector-curvature="0" style="color: rgb(0, 0, 0); fill: rgb(70, 190, 46); fill-opacity: 1; fill-rule: nonzero; stroke: rgb(18, 18, 18); stroke-width: 8.80634; stroke-linejoin: round; stroke-opacity: 1; marker: none; visibility: visible; display: inline; overflow: visible;" d="m -360.28125,-102.09375 c -4.50559,-0.0368 -8.68601,1.36697 -11.6875,4.96875 -7.34676,8.81612 -6.94517,20.390996 -2.21875,26.96875 0.17015,1.013738 0.375,1.625 0.375,1.625 0.87315,3.710921 5.75606,2.5299 5.34375,-0.21875 0,0 -1.86462,-12.365147 13.53125,-12.78125 16.1534,-0.436581 22.80032,12.128685 24.4375,13.875 0.7091,1.087286 1.17503,0.701091 1.21875,-0.40625 0.28904,-0.0016 0.62768,-0.465152 0.96875,-2 0.87315,-3.929212 -1.29693,-14.421904 -8.71875,-21.84375 -4.87059,-4.870584 -14.64841,-10.11727 -23.25,-10.1875 z" transform="matrix(0.26458336,0,0,0.26458336,320.08182,94.083721)" id="path30186"/>
        <g id="g30188">
          <path transform="matrix(0.26458336,0,0,0.26458336,320.08182,94.083721)" inkscape:connector-curvature="0" id="path30190" d="m -371.09217,-67.007632 c -7.42184,-5.238949 -9.60474,-19.646056 -0.87316,-30.123953 8.73159,-10.477895 27.50448,-2.182895 34.92633,5.238948 7.42184,7.421844 9.60473,17.89974 8.73158,21.828951 -0.87316,3.929212 -1.74632,0.873158 -1.74632,0.873158 0,0 -3.49263,-10.041317 -14.84369,-13.533949 -11.35105,-3.492632 -20.51921,-3.492632 -24.01184,3.056053 -3.49263,6.548685 -2.1829,12.660792 -2.1829,12.660792 z" style="color: rgb(0, 0, 0); fill: rgb(70, 190, 46); fill-opacity: 1; fill-rule: nonzero; stroke: none; stroke-width: 0; marker: none; visibility: visible; display: inline; overflow: visible;"/>
          <path sodipodi:nodetypes="csccscc" inkscape:connector-curvature="0" id="path30192" d="m 232.37968,74.39092 c -6.0066,-6.699669 -10.48267,-2.425742 -11.06023,-1.039604 -0.57756,1.386139 -0.14439,2.59901 -0.14439,2.59901 0.23102,0.981848 1.52411,0.669487 1.41502,-0.05776 0,0 -0.49263,-3.268618 3.58086,-3.378712 4.27392,-0.115512 6.03547,3.205445 6.46864,3.667491 0.43317,0.664191 0.49092,-0.750825 -0.2599,-1.790429 z" style="color: rgb(0, 0, 0); fill: rgb(39, 104, 25); fill-opacity: 1; fill-rule: nonzero; stroke: none; stroke-width: 0; marker: none; visibility: visible; display: inline; overflow: visible;"/>
          <path inkscape:connector-curvature="0" style="color: rgb(0, 0, 0); fill: rgb(95, 211, 71); fill-opacity: 1; fill-rule: nonzero; stroke: none; stroke-width: 0; marker: none; visibility: visible; display: inline; overflow: visible;" d="m -236.78125,-67.84375 c -9.19485,0.382168 -18.21161,6.603603 -21.875,11.9375 -2.44896,3.565685 -3.54394,7.651508 -3.84375,11.375 0.79681,1.777434 1.65625,2.589704 1.65625,2.84375 0,0.212205 1.42493,1.289231 3.5,2.59375 1.44792,-3.020299 4.20796,-6.594304 9.46875,-8.78125 1.48038,-0.615406 2.94837,-1.158388 4.375,-1.625 -0.10506,-9.308017 5.99242,-13.525499 13,-12.5 7.83114,1.14602 15.13367,9.156102 16.84375,14.0625 -1.19257,-5.47043 -4.72727,-11.428781 -10.9375,-16.15625 -3.77098,-2.870618 -8.00802,-3.923713 -12.1875,-3.75 z" transform="matrix(-0.25224261,0.02433858,0.07986252,0.26982204,170.12996,91.14863)" id="path30194"/>
        </g>
      </g>
      <g transform="matrix(0.57171526,-0.00575847,0.0111563,0.47665262,-24.987385,107.28774)" id="g30196">
        <g id="g30198" transform="matrix(1,0,0,0.85743552,0.08167899,-6.4416639)">
          <path style="color: rgb(0, 0, 0); fill: rgb(42, 114, 27); fill-opacity: 1; fill-rule: nonzero; stroke: rgb(18, 18, 18); stroke-width: 13.3144; stroke-linejoin: round; stroke-opacity: 1; marker: none; visibility: visible; display: inline; overflow: visible;" d="m 592.26894,-524.70246 c -9.26124,7.10028 -8.95253,10.80478 -9.26124,14.50927 -0.30871,3.7045 -10.35439,30.44115 14.65096,55.75521 25.00535,25.31405 59.27193,7.40899 66.68093,-10.49607 7.40899,-17.90507 4.63062,-47.54103 0,-55.56744 -4.63062,-8.02641 -30.8708,-3.7045 -33.64917,-4.63062 -2.77838,-0.92612 -38.42148,0.42965 -38.42148,0.42965 z" id="path30200" inkscape:connector-curvature="0" transform="matrix(0.26458336,0,0,0.26458336,320.08182,94.083721)" sodipodi:nodetypes="csssssc"/>
          <path transform="matrix(0.26458336,0,0,0.26458336,320.08182,94.083721)" inkscape:connector-curvature="0" id="path30202" d="m 592.26894,-524.70246 c -9.26124,7.10028 -8.95253,10.80478 -9.26124,14.50927 -0.30871,3.7045 -10.35439,30.44115 14.65096,55.75521 25.00535,25.31405 59.27193,7.40899 66.68093,-10.49607 7.40899,-17.90507 4.63062,-47.54103 0,-55.56744 -4.63062,-8.02641 -30.8708,-3.7045 -33.64917,-4.63062 -2.77838,-0.92612 -38.42148,0.42965 -38.42148,0.42965 z" style="color: rgb(0, 0, 0); fill: rgb(36, 97, 23); fill-opacity: 1; fill-rule: nonzero; stroke: none; stroke-width: 0; marker: none; visibility: visible; display: inline; overflow: visible;" sodipodi:nodetypes="csssssc"/>
        </g>
        <path style="color: rgb(0, 0, 0); fill: rgb(63, 171, 41); fill-opacity: 1; fill-rule: nonzero; stroke: rgb(18, 18, 18); stroke-width: 3.26201; stroke-linecap: round; stroke-linejoin: round; stroke-miterlimit: 4; stroke-opacity: 1; stroke-dasharray: none; stroke-dashoffset: 37.6; marker: none; visibility: visible; display: inline; overflow: visible;" d="m 488.857,-20.811 c -0.32001,-3.893489 -1.76782,-9.554008 -0.79178,-12.689831 1.53406,-4.928676 2.44791,-8.101928 7.97954,-8.42419 0.81679,-2.287011 -1.63359,-7.024394 -9.96485,-4.247306 -8.00453,-2.450371 -10.78161,1.143505 -11.59841,4.083949 5.36765,-1.412323 7.31585,0.312778 8.04538,7.718667 0.63454,6.441591 -0.0408,11.339806 -0.0408,13.558711 -0.40839,1.5519 6.37096,1.061827 6.37096,0 z" id="path30204" inkscape:connector-curvature="0" sodipodi:nodetypes="cscccscc"/>
        <path sodipodi:nodetypes="cscccscc" inkscape:connector-curvature="0" id="path30206" d="m 488.857,-20.811 c -0.32001,-3.893489 0.15164,-9.554008 1.12768,-12.689831 1.53406,-4.928676 4.16317,-7.325978 6.06008,-8.42419 0.81679,-2.287011 -1.63359,-7.024394 -9.96485,-4.247306 -8.00453,-2.450371 -10.78161,1.143505 -11.59841,4.083949 3.75723,2.613726 6.37097,2.287011 7.51447,8.657975 1.14351,6.37096 0.49007,10.400498 0.49007,12.619403 -0.40839,1.5519 6.37096,1.061827 6.37096,0 z" style="color: rgb(0, 0, 0); fill: rgb(63, 171, 41); fill-opacity: 1; fill-rule: nonzero; stroke: none; stroke-width: 0; marker: none; visibility: visible; display: inline; overflow: visible;"/>
        <path inkscape:connector-curvature="0" style="color: rgb(0, 0, 0); fill: rgb(95, 211, 71); fill-opacity: 1; fill-rule: nonzero; stroke: none; stroke-width: 0; marker: none; visibility: visible; display: inline; overflow: visible;" d="m 644.96875,-533.3125 c -4.86427,-0.0278 -10.67445,0.92273 -17.5625,3.21875 -30.25334,-9.26124 -40.75663,4.32401 -43.84375,15.4375 8.41545,5.85423 15.31467,7.80786 20.4375,13.4375 -3.84277,-7.88136 -7.95635,-10.84622 -7.5625,-13.40625 0.61741,-4.0132 9.25484,-9.25759 17.28125,-9.875 8.0264,-0.61742 10.17142,12.63272 11.40625,23.4375 1.23483,10.80478 1.25758,29.95724 1.875,18.84375 0.61742,-11.11349 2.75196,-34.25955 8,-40.125 5.24803,-5.86545 20.69417,-0.6382 23.78125,3.375 3.08708,4.0132 -4.64396,8.341 -6.1875,15.75 -0.0263,0.12644 -0.0382,0.24951 -0.0625,0.375 4.27297,-5.51665 8.78419,-9.0494 12.53125,-11.21875 2.41178,-6.75298 -2.72137,-19.15061 -20.09375,-19.25 z" transform="matrix(0.26458336,0,0,0.26458336,320.08182,94.083721)" id="path30208"/>
        <path inkscape:connector-curvature="0" style="color: rgb(0, 0, 0); fill: rgb(43, 118, 28); fill-opacity: 1; fill-rule: nonzero; stroke: none; stroke-width: 0; marker: none; visibility: visible; display: inline; overflow: visible;" d="m 631.25,-531.28125 c -1.25337,0.34524 -2.51156,0.74344 -3.84375,1.1875 -0.17089,-0.0523 -0.33036,-0.10539 -0.5,-0.15625 -0.10545,0.53362 -0.22219,1.11865 -0.40625,1.78125 -2.18289,7.85843 0,85.57809 0,78.15625 0,-7.42185 4.78125,-69.86586 4.78125,-80.34375 0,-0.21841 -0.0212,-0.42006 -0.0312,-0.625 z" transform="matrix(0.26458336,0,0,0.26458336,320.08182,94.083721)" id="path30210"/>
      </g>
      <g id="g30212" transform="matrix(-0.98292439,0.08025414,-0.12216971,0.63246238,518.98485,24.109123)">
        <path sodipodi:nodetypes="sscccscscs" inkscape:connector-curvature="0" id="path30214" transform="matrix(0.26458336,0,0,0.26458336,320.08182,94.083721)" d="m -155.9375,-128.28125 c -18.99451,-0.6062 -33.11145,31.224056 -34.46875,46.96875 -1.27247,14.760661 1.88683,22.33782 1.90395,22.747237 0.11331,2.712234 2.15855,-0.215987 2.15855,-0.215987 0,0 0.25988,-6.515818 0.53125,-8.6875 0.27145,-2.171682 2.18602,-14.383681 7.34375,-24.15625 5.15773,-9.77257 10.03125,-11.125 10.03125,-11.125 0,0 4.09266,20.080589 13.59375,25.78125 5.1977,3.11863 9.80218,2.577889 13.0625,0.5625 19.01006,-7.309875 9.48244,-51.12057 -14.15625,-51.875 z" style="color: rgb(0, 0, 0); fill: rgb(70, 190, 46); fill-opacity: 1; fill-rule: nonzero; stroke: rgb(18, 18, 18); stroke-width: 11.2582; stroke-linejoin: round; stroke-miterlimit: 4; stroke-opacity: 1; stroke-dasharray: none; marker: none; visibility: visible; display: inline; overflow: visible;"/>
        <g transform="matrix(0.62178966,0,0,0.62178966,95.960382,35.868817)" id="g30216">
          <path style="color: rgb(0, 0, 0); fill: rgb(70, 190, 46); fill-opacity: 1; fill-rule: nonzero; stroke: none; stroke-width: 0; marker: none; visibility: visible; display: inline; overflow: visible;" d="m -83.617582,-122.9669 c 41.038427,-1.74631 26.42573,-83.74602 -14.612699,-85.05576 -30.548099,-0.97493 -53.262639,50.20659 -55.445529,75.52817 -2.1829,25.32159 -0.61211,33.306088 2.19642,36.078562 4.97114,4.907313 2.61496,-1.620371 3.05153,-6.859322 0.43658,-5.23894 -1.75532,-17.4316 5.66652,-33.58503 7.42184,-16.15342 13.53395,-34.48974 32.30685,-34.92632 18.772896,-0.43658 36.236057,17.02658 35.362898,18.7729 -0.873158,1.74632 -8.52599,30.0468 -8.52599,30.0468 z" id="path30218" inkscape:connector-curvature="0" transform="matrix(0.26458336,0,0,0.26458336,320.08182,94.083721)" sodipodi:nodetypes="csssssssc"/>
          <path id="path30220" transform="matrix(0.42551907,0,0,0.42551907,360.44574,93.624754)" d="m -155.9375,-128.28125 c -10.58533,-0.33783 -19.65035,9.40258 -25.84375,20.8125 11.39413,-13.76422 21.82586,-16.164 29.40625,-13.46875 8.44491,3.00263 6.5963,17.08316 5.625,21.40625 3.38511,2.531433 5.43088,4.981996 5.1875,5.46875 -0.19832,0.396642 -0.9891,3.172071 -1.875,6.3125 1.42458,3.656133 2.95481,7.492118 3.9375,10.21875 15.90284,-9.833014 6.19627,-50.02764 -16.4375,-50.75 z" style="color: rgb(0, 0, 0); fill: rgb(99, 212, 75); fill-opacity: 1; fill-rule: nonzero; stroke: none; stroke-width: 0; marker: none; visibility: visible; display: inline; overflow: visible;" inkscape:connector-curvature="0"/>
          <path inkscape:connector-curvature="0" id="path30222" d="m 295.98038,52.580708 c 1.82666,-2.270888 6.70464,0.592295 6.19715,5.638596 -0.23375,2.324352 -3.58086,5.082507 -7.62376,2.656764 -4.0429,-2.42574 -1.38488,-4.800132 1.42661,-8.29536 z" style="color: rgb(0, 0, 0); fill: rgb(54, 147, 35); fill-opacity: 1; fill-rule: nonzero; stroke: rgb(18, 18, 18); stroke-width: 1.87363; stroke-miterlimit: 4; stroke-opacity: 1; stroke-dasharray: none; marker: none; visibility: visible; display: inline; overflow: visible;" sodipodi:nodetypes="ssss"/>
          <path sodipodi:nodetypes="cssscsscsc" style="color: rgb(0, 0, 0); fill: rgb(47, 126, 31); fill-opacity: 1; fill-rule: nonzero; stroke: none; stroke-width: 0; marker: none; visibility: visible; display: inline; overflow: visible;" d="m 280.46256,62.193138 c 4.38944,-16.518151 12.93609,-16.33357 16.63246,-13.792316 3.69637,2.541255 5.42905,7.508252 5.08251,9.818482 -0.34653,2.310231 -3.58086,5.082507 -7.62376,2.656764 -4.0429,-2.42574 -5.77558,-10.973595 -5.77558,-10.973595 0,0 -2.07921,0.577557 -4.27393,4.735974 -2.19471,4.158414 -3.0033,9.356434 -3.11881,10.280526 -0.11551,0.924092 -0.23102,3.69637 -0.23102,3.69637 0,0 -1.33792,0.692061 -1.38614,-0.462047 -0.0929,-2.223309 0.69427,-5.960158 0.69427,-5.960158 z" id="path30224" inkscape:connector-curvature="0"/>
        </g>
      </g>
      <g transform="matrix(0.60814137,-0.08149561,0.08149561,0.60814137,15.518978,103.81389)" id="g30226">
        <g id="g30228">
          <path inkscape:connector-curvature="0" id="path30230" transform="matrix(0.26458336,0,0,0.26458336,320.08182,94.083721)" d="M 163.1875,-242.21875 C 127.74202,-241.86802 116.13147,-205.69432 118,-190 c -0.0485,3.18563 -0.005,6.32146 0.21875,7.53125 3.08708,16.67024 18.68304,29.59922 38.46875,20.4375 11.66559,-5.40172 14.5021,-28.01335 29.9375,-34.1875 15.4354,-6.17416 30.85042,11.73785 33.9375,23.46875 3.08708,11.73091 3.09375,21.625 3.09375,21.625 0,0 0.93188,0.42502 2.15625,0.15625 -0.30871,1.08048 5.03504,0.23195 5.34375,-3.78125 l 0.375,-5.8125 c 0.72793,-11.24325 0.005,-32.39894 -12.34375,-52.15625 -11.51585,-18.42536 -31.49635,-24.69418 -41.375,-27.78125 -5.26733,-1.21554 -10.14128,-1.76312 -14.625,-1.71875 z" style="color: rgb(0, 0, 0); fill: rgb(38, 103, 25); fill-opacity: 1; fill-rule: nonzero; stroke: rgb(18, 18, 18); stroke-width: 14.3524; stroke-linejoin: round; stroke-miterlimit: 4; stroke-opacity: 1; stroke-dasharray: none; marker: none; visibility: visible; display: inline; overflow: visible;"/>
          <path style="color: rgb(0, 0, 0); fill: rgb(39, 104, 25); fill-opacity: 1; fill-rule: nonzero; stroke: none; stroke-width: 0; marker: none; visibility: visible; display: inline; overflow: visible;" d="m 367.12892,32.084119 c -10.97995,-2.533835 -15.27152,4.498241 -15.7484,9.788162 -0.0765,0.848883 -0.1344,3.323993 -0.0215,3.933906 0.81679,4.410669 4.94278,7.834674 10.17775,5.410635 3.08652,-1.429204 3.836,-7.411769 7.91995,-9.045346 4.08395,-1.63358 8.16791,3.1038 8.9847,6.207601 0.81679,3.103803 0.81678,5.717531 0.81678,5.717531 0,0 1.42939,0.694269 1.91946,-2.246173 0.49007,-2.940444 0.16336,-7.187753 -3.1038,-12.415209 -3.04691,-4.875043 -8.33126,-6.53432 -10.94499,-7.351107 z" id="path30232" inkscape:connector-curvature="0" sodipodi:nodetypes="cssssscsscc"/>
          <path sodipodi:nodetypes="cssssccssc" transform="matrix(0.26458336,0,0,0.26458336,320.08182,94.083721)" inkscape:connector-curvature="0" id="path30234" d="m 177.8158,-240.50334 c -48.15844,-11.11349 -62.68967,35.1927 -59.60259,51.86293 3.08708,16.67024 17.28588,28.01545 34.31972,20.65237 10.05544,-4.34659 16.02163,-27.75265 31.45703,-33.9268 15.4354,-6.17416 35.33776,12.6198 38.27979,24.38792 3.85885,15.43541 3.55013,26.5489 3.55013,26.5489 -0.30871,1.08048 5.02748,0.23412 5.33619,-3.77908 l 0.37492,-5.79087 c 0.72793,-11.24325 0,-32.41435 -12.34832,-52.17166 -11.51585,-18.42536 -31.48822,-24.69664 -41.36687,-27.78371 z" style="color: rgb(0, 0, 0); fill: rgb(58, 158, 38); fill-opacity: 1; fill-rule: nonzero; stroke: none; stroke-width: 0; marker: none; visibility: visible; display: inline; overflow: visible;"/>
          <path inkscape:connector-curvature="0" id="path30236" transform="matrix(0.26458336,0,0,0.26458336,320.08182,94.083721)" d="m 129.96875,-226.4375 c -10.17152,12.45457 -13.35514,29.14476 -11.75,37.8125 3.08708,16.67024 17.27866,27.98808 34.3125,20.625 10.05544,-4.34659 16.03335,-27.7321 31.46875,-33.90625 15.4354,-6.17416 35.33922,12.60688 38.28125,24.375 3.85885,15.43541 3.53125,26.5625 3.53125,26.5625 -0.18447,0.64564 1.64912,0.58871 3.21875,-0.40625 0.94332,-7.9833 -7.24855,-56.63653 -35.15625,-60.125 -29.63597,-3.70449 -29.03532,29.97058 -49.71875,25.03125 -18.46003,-4.40837 -19.45296,-27.75854 -14.1875,-39.96875 z" style="opacity: 0.274336; color: rgb(0, 0, 0); fill: rgb(43, 118, 28); fill-opacity: 1; fill-rule: nonzero; stroke: none; stroke-width: 0; marker: none; visibility: visible; display: inline; overflow: visible;"/>
          <path inkscape:connector-curvature="0" style="color: rgb(0, 0, 0); fill: rgb(54, 147, 35); fill-opacity: 1; fill-rule: nonzero; stroke: none; stroke-width: 0; marker: none; visibility: visible; display: inline; overflow: visible;" d="m 178.34375,-226.5625 c -23.76006,0.68296 -42.42025,21.34795 -51.8125,54.3125 6.39878,6.31066 15.66991,8.71531 26,4.25 10.05544,-4.34659 16.03335,-27.7321 31.46875,-33.90625 15.4354,-6.17416 35.33922,12.60688 38.28125,24.375 3.85885,15.43541 3.53125,26.5625 3.53125,26.5625 -0.30871,1.08048 5.03504,0.23195 5.34375,-3.78125 l 0.375,-5.8125 c 0.36397,-5.62163 0.35328,-13.70715 -1.28125,-22.875 -0.007,-0.0413 -0.0238,-0.0836 -0.0312,-0.125 -4.39716,-14.10445 -14.55288,-34.66538 -37.90625,-41.1875 -4.81874,-1.34577 -9.48358,-1.94142 -13.96875,-1.8125 z" transform="matrix(0.26458336,0,0,0.26458336,320.08182,94.083721)" id="path30238"/>
          <path inkscape:connector-curvature="0" id="path30240" transform="matrix(0.26458336,0,0,0.26458336,320.08182,94.083721)" d="m 163.1875,-242.21875 c -36.51028,0.36126 -47.71818,38.74683 -44.96875,53.59375 2.46927,13.33407 12.04789,23.23501 24.5,22.90625 -10.31079,-1.77878 -18.01265,-10.88082 -20.1875,-22.625 -2.80673,-15.15632 8.9606,-54.77495 47.3125,-53.5 -2.29961,-0.24874 -4.53032,-0.39604 -6.65625,-0.375 z m 30.84375,39.40625 c 12.95408,2.25333 25.9214,15.96686 28.25,25.28125 3.85885,15.43541 3.53125,26.5625 3.53125,26.5625 -0.23015,0.80554 2.69001,0.53777 4.3125,-1.3125 -0.0472,-3.37461 -0.45627,-12.63758 -3.53125,-24.9375 -2.58923,-10.35692 -18.30639,-26.16231 -32.5625,-25.59375 z" style="color: rgb(0, 0, 0); fill: rgb(95, 211, 71); fill-opacity: 1; fill-rule: nonzero; stroke: none; stroke-width: 0; marker: none; visibility: visible; display: inline; overflow: visible;"/>
          <path inkscape:connector-curvature="0" style="color: rgb(0, 0, 0); fill: rgb(43, 118, 28); fill-opacity: 1; fill-rule: nonzero; stroke: none; stroke-width: 0; marker: none; visibility: visible; display: inline; overflow: visible;" d="m 178.78125,-228.34375 c -17.5648,0.67341 -34.48947,13.00723 -44.3125,38.65625 0,0 24.01578,-48.46685 61.125,-32.75 20.17384,8.54421 30.15431,26.64125 35.0625,41.375 -0.0188,-0.12458 -0.0431,-0.24997 -0.0625,-0.375 -3.72507,-12.5715 -10.15472,-27.31766 -20.90625,-35.875 -9.59213,-7.63456 -20.36737,-11.4353 -30.90625,-11.03125 z" transform="matrix(0.26458336,0,0,0.26458336,320.08182,94.083721)" id="path30242"/>
        </g>
      </g>
      <g transform="matrix(0.81883252,0.30213678,-0.23181807,0.62825911,52.939266,-37.354478)" id="g30244">
        <path style="color: rgb(0, 0, 0); fill: rgb(70, 190, 46); fill-opacity: 1; fill-rule: nonzero; stroke: rgb(18, 18, 18); stroke-width: 11.2582; stroke-linejoin: round; stroke-miterlimit: 4; stroke-opacity: 1; stroke-dasharray: none; marker: none; visibility: visible; display: inline; overflow: visible;" d="m -155.9375,-128.28125 c -18.99451,-0.6062 -33.11145,31.224056 -34.46875,46.96875 -1.27247,14.760661 1.88683,22.33782 1.90395,22.747237 0.11331,2.712234 2.15855,-0.215987 2.15855,-0.215987 0,0 0.25988,-6.515818 0.53125,-8.6875 0.27145,-2.171682 2.18602,-14.383681 7.34375,-24.15625 5.15773,-9.77257 10.03125,-11.125 10.03125,-11.125 0,0 4.09266,20.080589 13.59375,25.78125 5.1977,3.11863 9.80218,2.577889 13.0625,0.5625 19.01006,-7.309875 9.48244,-51.12057 -14.15625,-51.875 z" transform="matrix(0.26458336,0,0,0.26458336,320.08182,94.083721)" id="path30246" inkscape:connector-curvature="0" sodipodi:nodetypes="sscccscscs"/>
        <g id="g30248" transform="matrix(0.62178966,0,0,0.62178966,95.960382,35.868817)">
          <path sodipodi:nodetypes="csssssssc" transform="matrix(0.26458336,0,0,0.26458336,320.08182,94.083721)" inkscape:connector-curvature="0" id="path30250" d="m -83.617582,-122.9669 c 41.038427,-1.74631 26.42573,-83.74602 -14.612699,-85.05576 -30.548099,-0.97493 -53.262639,50.20659 -55.445529,75.52817 -2.1829,25.32159 -0.61211,33.306088 2.19642,36.078562 4.97114,4.907313 2.61496,-1.620371 3.05153,-6.859322 0.43658,-5.23894 -1.75532,-17.4316 5.66652,-33.58503 7.42184,-16.15342 13.53395,-34.48974 32.30685,-34.92632 18.772896,-0.43658 36.236057,17.02658 35.362898,18.7729 -0.873158,1.74632 -8.52599,30.0468 -8.52599,30.0468 z" style="color: rgb(0, 0, 0); fill: rgb(70, 190, 46); fill-opacity: 1; fill-rule: nonzero; stroke: none; stroke-width: 0; marker: none; visibility: visible; display: inline; overflow: visible;"/>
          <path inkscape:connector-curvature="0" style="color: rgb(0, 0, 0); fill: rgb(99, 212, 75); fill-opacity: 1; fill-rule: nonzero; stroke: none; stroke-width: 0; marker: none; visibility: visible; display: inline; overflow: visible;" d="m -155.9375,-128.28125 c -10.58533,-0.33783 -19.65035,9.40258 -25.84375,20.8125 11.39413,-13.76422 21.82586,-16.164 29.40625,-13.46875 8.44491,3.00263 6.5963,17.08316 5.625,21.40625 3.38511,2.531433 5.43088,4.981996 5.1875,5.46875 -0.19832,0.396642 -0.9891,3.172071 -1.875,6.3125 1.42458,3.656133 2.95481,7.492118 3.9375,10.21875 15.90284,-9.833014 6.19627,-50.02764 -16.4375,-50.75 z" transform="matrix(0.42551907,0,0,0.42551907,360.44574,93.624754)" id="path30252"/>
          <path sodipodi:nodetypes="ssss" style="color: rgb(0, 0, 0); fill: rgb(54, 147, 35); fill-opacity: 1; fill-rule: nonzero; stroke: rgb(18, 18, 18); stroke-width: 1.87363; stroke-miterlimit: 4; stroke-opacity: 1; stroke-dasharray: none; marker: none; visibility: visible; display: inline; overflow: visible;" d="m 295.98038,52.580708 c 1.82666,-2.270888 6.70464,0.592295 6.19715,5.638596 -0.23375,2.324352 -3.58086,5.082507 -7.62376,2.656764 -4.0429,-2.42574 -1.38488,-4.800132 1.42661,-8.29536 z" id="path30254" inkscape:connector-curvature="0"/>
          <path inkscape:connector-curvature="0" id="path30256" d="m 280.46256,62.193138 c 4.38944,-16.518151 12.93609,-16.33357 16.63246,-13.792316 3.69637,2.541255 5.42905,7.508252 5.08251,9.818482 -0.34653,2.310231 -3.58086,5.082507 -7.62376,2.656764 -4.0429,-2.42574 -5.77558,-10.973595 -5.77558,-10.973595 0,0 -2.07921,0.577557 -4.27393,4.735974 -2.19471,4.158414 -3.0033,9.356434 -3.11881,10.280526 -0.11551,0.924092 -0.23102,3.69637 -0.23102,3.69637 0,0 -1.33792,0.692061 -1.38614,-0.462047 -0.0929,-2.223309 0.69427,-5.960158 0.69427,-5.960158 z" style="color: rgb(0, 0, 0); fill: rgb(47, 126, 31); fill-opacity: 1; fill-rule: nonzero; stroke: none; stroke-width: 0; marker: none; visibility: visible; display: inline; overflow: visible;" sodipodi:nodetypes="cssscsscsc"/>
        </g>
      </g>
      <g transform="matrix(0.52052074,-0.01513767,0.01813131,0.40503506,-2.1543254,99.383221)" id="g30258">
        <g id="g30260" transform="matrix(1,0,0,0.85743552,0.08167899,-6.4416639)">
          <path style="color: rgb(0, 0, 0); fill: rgb(42, 114, 27); fill-opacity: 1; fill-rule: nonzero; stroke: rgb(18, 18, 18); stroke-width: 20.6989; stroke-linejoin: round; stroke-miterlimit: 4; stroke-opacity: 1; stroke-dasharray: none; marker: none; visibility: visible; display: inline; overflow: visible;" d="m 592.26894,-524.70246 c -9.26124,7.10028 -8.95253,10.80478 -9.26124,14.50927 -0.30871,3.7045 -10.35439,30.44115 14.65096,55.75521 25.00535,25.31405 59.27193,7.40899 66.68093,-10.49607 7.40899,-17.90507 4.63062,-47.54103 0,-55.56744 -4.63062,-8.02641 -30.8708,-3.7045 -33.64917,-4.63062 -2.77838,-0.92612 -38.42148,0.42965 -38.42148,0.42965 z" id="path30262" inkscape:connector-curvature="0" transform="matrix(0.26458336,0,0,0.26458336,320.08182,94.083721)" sodipodi:nodetypes="csssssc"/>
          <path transform="matrix(0.26458336,0,0,0.26458336,320.08182,94.083721)" inkscape:connector-curvature="0" id="path30264" d="m 592.26894,-524.70246 c -9.26124,7.10028 -8.95253,10.80478 -9.26124,14.50927 -0.30871,3.7045 -10.35439,30.44115 14.65096,55.75521 25.00535,25.31405 59.27193,7.40899 66.68093,-10.49607 7.40899,-17.90507 4.63062,-47.54103 0,-55.56744 -4.63062,-8.02641 -30.8708,-3.7045 -33.64917,-4.63062 -2.77838,-0.92612 -38.42148,0.42965 -38.42148,0.42965 z" style="color: rgb(0, 0, 0); fill: rgb(36, 97, 23); fill-opacity: 1; fill-rule: nonzero; stroke: none; stroke-width: 0; marker: none; visibility: visible; display: inline; overflow: visible;" sodipodi:nodetypes="csssssc"/>
        </g>
        <path style="color: rgb(0, 0, 0); fill: rgb(63, 171, 41); fill-opacity: 1; fill-rule: nonzero; stroke: rgb(18, 18, 18); stroke-width: 5.07119; stroke-linecap: round; stroke-linejoin: round; stroke-miterlimit: 4; stroke-opacity: 1; stroke-dasharray: none; stroke-dashoffset: 37.6; marker: none; visibility: visible; display: inline; overflow: visible;" d="m 488.74052,-10.833119 c -0.32001,-3.893489 -1.65134,-19.531889 -0.6753,-22.667712 1.53406,-4.928676 2.44791,-8.101928 7.97954,-8.42419 0.81679,-2.287011 -1.63359,-7.024394 -9.96485,-4.247306 -8.00453,-2.450371 -10.78161,1.143505 -11.59841,4.083949 5.36765,-1.412323 7.31585,0.312778 8.04538,7.718667 0.63454,6.441591 -0.15728,21.317687 -0.15728,23.536592 -0.40839,1.5519004 6.37096,1.0618274 6.37096,0 z" id="path30266" inkscape:connector-curvature="0" sodipodi:nodetypes="cscccsccc"/>
        <path sodipodi:nodetypes="cscccscc" inkscape:connector-curvature="0" id="path30268" d="m 488.74052,-10.833119 c -0.32001,-3.893489 0.26812,-19.531889 1.24416,-22.667712 1.53406,-4.928676 4.16317,-7.325978 6.06008,-8.42419 0.81679,-2.287011 -1.63359,-7.024394 -9.96485,-4.247306 -8.00453,-2.450371 -10.78161,1.143505 -11.59841,4.083949 3.75723,2.613726 6.37097,2.287011 7.51447,8.657975 1.14351,6.37096 0.37359,20.378379 0.37359,22.597284 -0.40839,1.5519004 6.37096,1.0618274 6.37096,0 z" style="color: rgb(0, 0, 0); fill: rgb(63, 171, 41); fill-opacity: 1; fill-rule: nonzero; stroke: none; stroke-width: 0; marker: none; visibility: visible; display: inline; overflow: visible;"/>
        <path inkscape:connector-curvature="0" style="color: rgb(0, 0, 0); fill: rgb(95, 211, 71); fill-opacity: 1; fill-rule: nonzero; stroke: none; stroke-width: 0; marker: none; visibility: visible; display: inline; overflow: visible;" d="m 644.96875,-533.3125 c -4.86427,-0.0278 -10.67445,0.92273 -17.5625,3.21875 -30.25334,-9.26124 -40.75663,4.32401 -43.84375,15.4375 8.41545,5.85423 15.31467,7.80786 20.4375,13.4375 -3.84277,-7.88136 -7.95635,-10.84622 -7.5625,-13.40625 0.61741,-4.0132 9.25484,-9.25759 17.28125,-9.875 8.0264,-0.61742 10.17142,12.63272 11.40625,23.4375 1.23483,10.80478 1.25758,29.95724 1.875,18.84375 0.61742,-11.11349 2.75196,-34.25955 8,-40.125 5.24803,-5.86545 20.69417,-0.6382 23.78125,3.375 3.08708,4.0132 -4.64396,8.341 -6.1875,15.75 -0.0263,0.12644 -0.0382,0.24951 -0.0625,0.375 4.27297,-5.51665 8.78419,-9.0494 12.53125,-11.21875 2.41178,-6.75298 -2.72137,-19.15061 -20.09375,-19.25 z" transform="matrix(0.26458336,0,0,0.26458336,320.08182,94.083721)" id="path30270"/>
        <path inkscape:connector-curvature="0" style="color: rgb(0, 0, 0); fill: rgb(43, 118, 28); fill-opacity: 1; fill-rule: nonzero; stroke: none; stroke-width: 0; marker: none; visibility: visible; display: inline; overflow: visible;" d="m 631.25,-531.28125 c -1.25337,0.34524 -2.51156,0.74344 -3.84375,1.1875 -0.17089,-0.0523 -0.33036,-0.10539 -0.5,-0.15625 -0.10545,0.53362 -0.22219,1.11865 -0.40625,1.78125 -2.18289,7.85843 0,85.57809 0,78.15625 0,-7.42185 4.78125,-69.86586 4.78125,-80.34375 0,-0.21841 -0.0212,-0.42006 -0.0312,-0.625 z" transform="matrix(0.26458336,0,0,0.26458336,320.08182,94.083721)" id="path30272"/>
      </g>
      <g id="g30274" transform="matrix(-1.0633197,0.23951338,0.23951338,1.0633197,495.37192,-66.381663)">
        <path style="color: rgb(0, 0, 0); fill: rgb(39, 104, 25); fill-opacity: 1; fill-rule: nonzero; stroke: rgb(18, 18, 18); stroke-width: 2.1377; stroke-linejoin: round; stroke-miterlimit: 4; stroke-opacity: 1; stroke-dasharray: none; marker: none; visibility: visible; display: inline; overflow: visible;" d="m 243.79363,86.40065 c 6.04425,5.227456 6.2076,13.88543 6.616,14.94726 0.40839,1.06182 1.22518,-0.0817 1.47023,-1.796942 0.24503,-1.715259 -0.0817,-10.454911 -1.96029,-13.313676 -1.87862,-2.858765 -6.12593,0.163358 -6.12593,0.163358 z" id="path30276" inkscape:connector-curvature="0"/>
        <path sodipodi:nodetypes="cscscc" inkscape:connector-curvature="0" id="path30278" d="m 243.79363,86.40065 c 6.04425,5.227456 6.2076,13.88543 6.616,14.94726 0.40839,1.06182 1.22518,-0.0817 1.47023,-1.796942 0.24503,-1.715259 -0.22936,-10.363162 -1.96029,-13.313676 -2.00422,-3.416368 -6.1804,-0.07846 -6.12593,0.163358 z" style="color: rgb(0, 0, 0); fill: rgb(39, 104, 25); fill-opacity: 1; fill-rule: nonzero; stroke: none; stroke-width: 0; marker: none; visibility: visible; display: inline; overflow: visible;"/>
      </g>
      <g transform="translate(15.594059,8.7788773)" id="g30280">
        <path inkscape:connector-curvature="0" style="color: rgb(0, 0, 0); fill: rgb(70, 190, 46); fill-opacity: 1; fill-rule: nonzero; stroke: rgb(18, 18, 18); stroke-width: 8.80634; stroke-linejoin: round; stroke-opacity: 1; marker: none; visibility: visible; display: inline; overflow: visible;" d="m -360.28125,-102.09375 c -4.50559,-0.0368 -8.68601,1.36697 -11.6875,4.96875 -7.34676,8.81612 -6.94517,20.390996 -2.21875,26.96875 0.17015,1.013738 0.375,1.625 0.375,1.625 0.87315,3.710921 5.75606,2.5299 5.34375,-0.21875 0,0 -1.86462,-12.365147 13.53125,-12.78125 16.1534,-0.436581 22.80032,12.128685 24.4375,13.875 0.7091,1.087286 1.17503,0.701091 1.21875,-0.40625 0.28904,-0.0016 0.62768,-0.465152 0.96875,-2 0.87315,-3.929212 -1.29693,-14.421904 -8.71875,-21.84375 -4.87059,-4.870584 -14.64841,-10.11727 -23.25,-10.1875 z" transform="matrix(0.26458336,0,0,0.26458336,320.08182,94.083721)" id="path30282"/>
        <g id="g30284">
          <path transform="matrix(0.26458336,0,0,0.26458336,320.08182,94.083721)" inkscape:connector-curvature="0" id="path30286" d="m -371.09217,-67.007632 c -7.42184,-5.238949 -9.60474,-19.646056 -0.87316,-30.123953 8.73159,-10.477895 27.50448,-2.182895 34.92633,5.238948 7.42184,7.421844 9.60473,17.89974 8.73158,21.828951 -0.87316,3.929212 -1.74632,0.873158 -1.74632,0.873158 0,0 -3.49263,-10.041317 -14.84369,-13.533949 -11.35105,-3.492632 -20.51921,-3.492632 -24.01184,3.056053 -3.49263,6.548685 -2.1829,12.660792 -2.1829,12.660792 z" style="color: rgb(0, 0, 0); fill: rgb(70, 190, 46); fill-opacity: 1; fill-rule: nonzero; stroke: none; stroke-width: 0; marker: none; visibility: visible; display: inline; overflow: visible;"/>
          <path id="path30288" transform="matrix(0.26458336,0,0,0.26458336,304.48776,85.304844)" d="m -301.34375,-68.90625 c -4.50559,-0.03679 -8.68602,1.366974 -11.6875,4.96875 -4.63865,5.566383 -6.17111,12.210738 -5.5,18.03125 1.01735,-9.711342 6.57211,-17.618849 13.15625,-17.8125 4.45183,-0.130936 5.91306,6.160755 6.46875,11.84375 3.75285,-0.0016 8.14215,0.868257 12.9375,2.34375 6.27951,1.932157 10.13509,5.868278 12.34375,9 1.5169,-0.324101 2.95816,-0.720291 4.1875,-1.28125 -0.78605,-4.906187 -3.41757,-11.667571 -8.65625,-16.90625 -4.87059,-4.870585 -14.64841,-10.117273 -23.25,-10.1875 z" style="color: rgb(0, 0, 0); fill: rgb(95, 211, 71); fill-opacity: 1; fill-rule: nonzero; stroke: none; stroke-width: 0; marker: none; visibility: visible; display: inline; overflow: visible;" inkscape:connector-curvature="0"/>
          <path sodipodi:nodetypes="csccscc" inkscape:connector-curvature="0" id="path30290" d="m 232.37968,74.39092 c -6.0066,-6.699669 -10.48267,-2.425742 -11.06023,-1.039604 -0.57756,1.386139 -0.14439,2.59901 -0.14439,2.59901 0.23102,0.981848 1.52411,0.669487 1.41502,-0.05776 0,0 -0.49263,-3.268618 3.58086,-3.378712 4.27392,-0.115512 6.03547,3.205445 6.46864,3.667491 0.43317,0.664191 0.49092,-0.750825 -0.2599,-1.790429 z" style="color: rgb(0, 0, 0); fill: rgb(39, 104, 25); fill-opacity: 1; fill-rule: nonzero; stroke: none; stroke-width: 0; marker: none; visibility: visible; display: inline; overflow: visible;"/>
        </g>
      </g>
      <g transform="matrix(1.0899612,0,0,1.0899612,-23.338491,-10.424887)" id="g30292">
        <path sodipodi:nodetypes="cscsscc" inkscape:connector-curvature="0" id="path30294" d="m 243.79363,86.40065 c 6.04425,5.227456 6.2076,13.88543 6.616,14.94726 0.40839,1.06182 1.22518,-0.0817 1.47023,-1.796942 0.13956,-0.976938 -1.28407,-4.126576 -1.69655,-7.276473 -0.31173,-2.380536 0.54489,-4.806667 -0.26374,-6.037203 -1.8786,-2.858779 -6.12593,0.163358 -6.12593,0.163358 z" style="color: rgb(0, 0, 0); fill: rgb(39, 104, 25); fill-opacity: 1; fill-rule: nonzero; stroke: rgb(18, 18, 18); stroke-width: 2.1377; stroke-linejoin: round; stroke-miterlimit: 4; stroke-opacity: 1; stroke-dasharray: none; marker: none; visibility: visible; display: inline; overflow: visible;"/>
        <path style="color: rgb(0, 0, 0); fill: rgb(39, 104, 25); fill-opacity: 1; fill-rule: nonzero; stroke: none; stroke-width: 0; marker: none; visibility: visible; display: inline; overflow: visible;" d="m 243.79363,86.40065 c 6.04425,5.227456 6.2076,13.88543 6.616,14.94726 0.40839,1.06182 1.22518,-0.0817 1.47023,-1.796942 0.24503,-1.715259 -0.0817,-10.454911 -1.96029,-13.313676 -1.87862,-2.858765 -6.12593,0.163358 -6.12593,0.163358 z" id="path30296" inkscape:connector-curvature="0"/>
      </g>
      <g id="g30298" inkscape:transform-center-x="-27.347601" inkscape:transform-center-y="1.6209172" transform="matrix(-0.92065336,0.32345869,0.32345869,0.92065336,432.77285,-53.852199)">
        <path id="path30300" transform="matrix(0.26458336,0,0,0.26458336,320.08182,94.083721)" d="m -388.65625,-54.34375 c -25.51025,0.516069 -31.47954,35.911508 -29.65625,43.8125 0.30503,1.321759 0.71596,2.6488276 1.21875,3.9375 0.006,0.029327 0.0247,0.065141 0.0312,0.09375 1.85227,8.0264081 6.77577,16.038834 21.59375,16.65625 14.81798,0.617416 23.87895,-7.8468042 24.71875,-15.4375 3.73349,-33.746006 -18.15438,-16.36097 -16.06131,-15.410179 4.53208,2.058732 10.20163,-12.972405 8.96678,-20.381397 -0.19225,-1.153502 12.03673,4.447882 11.46953,3.260326 -0.0303,-0.192738 -0.0258,-0.279619 -0.0625,-0.5 -1.23481,-7.408992 -10.81262,-16.339958 -21,-16.03125 -0.41483,-0.0096 -0.81383,-0.0082 -1.21875,0 z" style="color: rgb(0, 0, 0); fill: rgb(39, 104, 25); fill-opacity: 1; fill-rule: nonzero; stroke: rgb(18, 18, 18); stroke-width: 9.02453; stroke-linejoin: round; stroke-miterlimit: 4; stroke-opacity: 1; stroke-dasharray: none; marker: none; visibility: visible; display: inline; overflow: visible;" inkscape:connector-curvature="0" sodipodi:nodetypes="ssccsssscscs"/>
        <path style="color: rgb(0, 0, 0); fill: rgb(39, 104, 25); fill-opacity: 1; fill-rule: nonzero; stroke: none; stroke-width: 0; marker: none; visibility: visible; display: inline; overflow: visible;" d="m 217.9014,80.764799 c -7.02439,-0.163358 -8.65797,9.474764 -8.1679,11.598417 0.49008,2.123654 1.79694,4.247308 5.71753,4.410666 3.92059,0.163358 6.04425,-2.123654 6.53432,-4.08395 0.49008,-1.960296 -0.16336,-5.717529 0.49008,-6.861035 0.65343,-1.143506 1.30686,1.143506 0.98014,-0.81679 -0.32671,-1.960296 -2.85876,-4.328987 -5.55417,-4.247308 z" id="path30302" inkscape:connector-curvature="0" sodipodi:nodetypes="csssssc"/>
        <path sodipodi:nodetypes="csssssc" inkscape:connector-curvature="0" id="path30304" d="m 217.57468,79.702972 c -7.02439,-0.163358 -8.65797,9.474764 -8.1679,11.598417 0.49008,2.123654 1.79694,4.247308 5.71753,4.410666 3.92059,0.163358 6.04425,-2.123654 6.53432,-4.08395 0.49008,-1.960296 -0.16336,-5.717529 0.49008,-6.861035 0.65343,-1.143506 1.30686,1.143506 0.98014,-0.81679 -0.32671,-1.960296 -2.85876,-4.328987 -5.55417,-4.247308 z" style="color: rgb(0, 0, 0); fill: rgb(70, 190, 46); fill-opacity: 1; fill-rule: nonzero; stroke: none; stroke-width: 0; marker: none; visibility: visible; display: inline; overflow: visible;"/>
        <path id="path30306" transform="matrix(0.26458336,0,0,0.26458336,320.08182,94.083721)" d="m -370.4375,-34.59375 c -4.63062,1.234832 -3.11298,31.484832 -25.03125,30.25 -17.50633,-0.9862718 -22.37741,-11.414275 -21.125,-22.8125 -1.98868,7.195877 -2.38542,13.736093 -1.71875,16.625 1.85227,8.0264081 6.80702,16.070084 21.625,16.6875 14.81798,0.617416 22.83527,-8.0285079 24.6875,-15.4375 1.77462,-7.098407 -0.4225,-20.406322 1.5625,-25.3125 z" style="opacity: 0.420354; color: rgb(0, 0, 0); fill: rgb(64, 171, 42); fill-opacity: 1; fill-rule: nonzero; stroke: none; stroke-width: 0; marker: none; visibility: visible; display: inline; overflow: visible;" inkscape:connector-curvature="0"/>
        <path id="path30308" transform="matrix(0.26458336,0,0,0.26458336,320.08182,94.083721)" d="m -388.65625,-54.34375 c -25.51025,0.516069 -31.47954,35.911508 -29.65625,43.8125 0.90786,3.9339961 2.59053,7.8758668 5.78125,10.9375 -3.72834,-8.2888266 -1.10399,-39.964804 17.375,-48.90625 18.39416,-8.900403 26.75937,8.019095 29.03125,12.375 -0.0409,-0.486433 -0.14599,-1.188463 -0.3125,-2.1875 -1.23481,-7.408992 -10.81262,-16.339958 -21,-16.03125 -0.41483,-0.0096 -0.81383,-0.0082 -1.21875,0 z" style="color: rgb(0, 0, 0); fill: rgb(95, 211, 71); fill-opacity: 1; fill-rule: nonzero; stroke: none; stroke-width: 0; marker: none; visibility: visible; display: inline; overflow: visible;" inkscape:connector-curvature="0"/>
        <path id="path30310" transform="matrix(0.26458336,0,0,0.26458336,320.08182,94.083721)" d="m -388.65625,-54.34375 c -13.83972,0.279976 -21.91614,10.828414 -26.125,21.6875 10.94519,-12.957671 18.03208,-6.980303 17.78125,-3.46875 -0.30871,4.321912 -1.53125,10.46875 -1.53125,10.46875 0,0 4.93581,-17.88729 20.0625,-16.34375 7.03006,0.717353 10.57504,3.421226 12.375,6.125 -0.022,-0.481566 -0.14462,-1.242749 -0.34375,-2.4375 -1.23481,-7.408992 -10.81262,-16.339958 -21,-16.03125 -0.41483,-0.0096 -0.81383,-0.0082 -1.21875,0 z" style="opacity: 0.641593; color: rgb(0, 0, 0); fill: rgb(95, 211, 71); fill-opacity: 1; fill-rule: nonzero; stroke: none; stroke-width: 0; marker: none; visibility: visible; display: inline; overflow: visible;" inkscape:connector-curvature="0"/>
        <path sodipodi:nodetypes="csssc" transform="matrix(0.26458336,0,0,0.26458336,320.08182,94.083721)" inkscape:connector-curvature="0" id="path30312" d="m -389.28077,-47.869564 c -10.49607,10.804779 -10.49607,41.058162 -10.18736,38.5884982 0.3087,-2.4696642 3.97061,-21.9376082 6.79157,-28.0924262 3.39579,-7.408992 9.26124,-14.817984 7.40899,-13.274444 -1.85224,1.54354 -4.0132,2.778372 -4.0132,2.778372 z" style="color: rgb(0, 0, 0); fill: rgb(39, 104, 25); fill-opacity: 1; fill-rule: nonzero; stroke: none; stroke-width: 0; marker: none; visibility: visible; display: inline; overflow: visible;"/>
      </g>
      <g transform="matrix(0.59045121,-0.02437368,0.02437368,0.59045121,-18.769424,102.32975)" id="g30314">
        <g id="g30316" transform="matrix(1.1819835,0,0,1.1819835,1.1755148,-43.483877)">
          <path sodipodi:nodetypes="csssscc" transform="matrix(0.26458336,0,0,0.26458336,320.08182,94.083721)" inkscape:connector-curvature="0" id="path30318" d="m 230.30177,-211.06383 c -23.43935,-1.34709 -27.2112,54.69183 -18.85926,72.47341 8.35196,17.78157 34.4855,20.47575 53.61416,15.08739 19.12867,-5.38834 19.93693,-42.02918 18.05101,-61.15785 -1.88593,-19.12867 -12.39323,-25.32528 -20.47577,-27.75004 -8.08253,-2.42476 -18.32041,1.88593 -18.32041,1.88593 z" style="color: rgb(0, 0, 0); fill: rgb(70, 190, 46); fill-opacity: 1; fill-rule: nonzero; stroke: rgb(18, 18, 18); stroke-width: 12.6075; stroke-linecap: round; stroke-linejoin: round; stroke-miterlimit: 4; stroke-opacity: 1; stroke-dasharray: none; stroke-dashoffset: 37.6; marker: none; visibility: visible; display: inline; overflow: visible;"/>
          <path transform="matrix(0.26458336,0,0,0.26458336,320.08182,94.083721)" sodipodi:nodetypes="csssscc" style="color: rgb(0, 0, 0); fill: rgb(56, 151, 37); fill-opacity: 1; fill-rule: nonzero; stroke: none; stroke-width: 0; marker: none; visibility: visible; display: inline; overflow: visible;" d="m 230.30177,-211.06383 c -23.43935,-1.34709 -27.2112,54.69183 -18.85926,72.47341 8.35196,17.78157 34.4855,20.47575 53.61416,15.08739 19.12867,-5.38834 19.93693,-42.02918 18.05101,-61.15785 -1.88593,-19.12867 -12.39323,-25.32528 -20.47577,-27.75004 -8.08253,-2.42476 -18.32041,1.88593 -18.32041,1.88593 z" id="path30320" inkscape:connector-curvature="0"/>
          <path id="path30322" transform="matrix(0.3784667,0.01562301,-0.01562301,0.3784667,484.19374,45.001928)" d="m -253.65625,-8.84375 c -4.80115,0.034996 -9.4375,2.21875 -9.4375,2.21875 l -9.8125,0.03125 c -10.08714,-0.1629398 -14.31094,14.6118094 -14.625,28.84375 11.01948,1.839375 19.52551,-7.036358 21.875,-11.34375 2.61947,-4.8023697 2.1875,-8.9375 2.1875,-8.9375 L -257.8125,0.875 c 0,0 -1.50592,12.231644 10.5,18.34375 4.56474,2.323865 9.079,3.101719 12.96875,3.125 -0.0924,-4.439957 -0.46068,-8.636121 -0.9375,-12.03125 -1.86728,-13.2956353 -9.38306,-17.3218535 -15.09375,-18.78125 -1.07075,-0.2736369 -2.17329,-0.3830761 -3.28125,-0.375 z" style="opacity: 0.50885; color: rgb(0, 0, 0); fill: rgb(38, 103, 25); fill-opacity: 1; fill-rule: nonzero; stroke: none; stroke-width: 0; marker: none; visibility: visible; display: inline; overflow: visible;" inkscape:connector-curvature="0"/>
          <path inkscape:connector-curvature="0" style="color: rgb(0, 0, 0); fill: rgb(80, 206, 55); fill-opacity: 1; fill-rule: nonzero; stroke: none; stroke-width: 0; marker: none; visibility: visible; display: inline; overflow: visible;" d="m 470.78125,-309.34375 c -2.24134,17.57561 -0.72335,36.38232 3.75,45.90625 9.87188,21.01752 40.76524,24.18145 63.375,17.8125 17.97021,-5.06201 22.23983,-33.42576 22.125,-56.21875 -4.313,22.93487 -9.24118,52.45313 -42.42823,51.95782 -39.3007,-0.58655 -48.29748,-40.36398 -46.82177,-59.45782 z" transform="matrix(0.22384691,0,0,0.22384691,269.80605,116.38707)" id="path30324" sodipodi:nodetypes="csscsc"/>
          <path inkscape:connector-curvature="0" style="color: rgb(0, 0, 0); fill: rgb(43, 118, 28); fill-opacity: 1; fill-rule: nonzero; stroke: none; stroke-width: 0; marker: none; visibility: visible; display: inline; overflow: visible;" d="m 515.75,-349.3125 c -1.46005,0.4816 -2.375,0.84375 -2.375,0.84375 l -1.9375,-0.0625 c -4.41521,29.00383 2.875,84.875 2.875,84.875 0,0 2.16004,-28.10722 2.46875,-44.46875 0.30871,-16.36152 -2.79733,-37.96784 -1.5625,-40.4375 0.13743,-0.27485 0.32756,-0.51253 0.53125,-0.75 z" transform="matrix(0.22384691,0,0,0.22384691,269.80605,116.38707)" id="path30326"/>
        </g>
      </g>
      <g transform="matrix(0.96501207,0.07571977,-0.07571977,0.96501207,41.074236,-12.553689)" inkscape:transform-center-y="8.2178386" inkscape:transform-center-x="26.462524" id="g30328">
        <path sodipodi:nodetypes="ssccsssscscs" inkscape:connector-curvature="0" style="color: rgb(0, 0, 0); fill: rgb(39, 104, 25); fill-opacity: 1; fill-rule: nonzero; stroke: rgb(18, 18, 18); stroke-width: 9.09766; stroke-linejoin: round; stroke-opacity: 1; marker: none; visibility: visible; display: inline; overflow: visible;" d="m -388.65625,-54.34375 c -25.51025,0.516069 -31.47954,35.911508 -29.65625,43.8125 0.30503,1.321759 0.71596,2.6488276 1.21875,3.9375 0.006,0.029327 0.0247,0.065141 0.0312,0.09375 1.85227,8.0264081 6.77577,16.038834 21.59375,16.65625 14.81798,0.617416 23.87895,-7.8468042 24.71875,-15.4375 3.73349,-33.746006 -18.15438,-16.36097 -16.06131,-15.410179 4.53208,2.058732 10.20163,-12.972405 8.96678,-20.381397 -0.19225,-1.153502 12.03673,4.447882 11.46953,3.260326 -0.0303,-0.192738 -0.0258,-0.279619 -0.0625,-0.5 -1.23481,-7.408992 -10.81262,-16.339958 -21,-16.03125 -0.41483,-0.0096 -0.81383,-0.0082 -1.21875,0 z" transform="matrix(0.26458336,0,0,0.26458336,320.08182,94.083721)" id="path30330"/>
        <path sodipodi:nodetypes="csssssc" inkscape:connector-curvature="0" id="path30332" d="m 217.9014,80.764799 c -7.02439,-0.163358 -8.65797,9.474764 -8.1679,11.598417 0.49008,2.123654 1.79694,4.247308 5.71753,4.410666 3.92059,0.163358 6.04425,-2.123654 6.53432,-4.08395 0.49008,-1.960296 -0.16336,-5.717529 0.49008,-6.861035 0.65343,-1.143506 1.30686,1.143506 0.98014,-0.81679 -0.32671,-1.960296 -2.85876,-4.328987 -5.55417,-4.247308 z" style="color: rgb(0, 0, 0); fill: rgb(39, 104, 25); fill-opacity: 1; fill-rule: nonzero; stroke: none; stroke-width: 0; marker: none; visibility: visible; display: inline; overflow: visible;"/>
        <path style="color: rgb(0, 0, 0); fill: rgb(70, 190, 46); fill-opacity: 1; fill-rule: nonzero; stroke: none; stroke-width: 0; marker: none; visibility: visible; display: inline; overflow: visible;" d="m 217.57468,79.702972 c -7.02439,-0.163358 -8.65797,9.474764 -8.1679,11.598417 0.49008,2.123654 1.79694,4.247308 5.71753,4.410666 3.92059,0.163358 6.04425,-2.123654 6.53432,-4.08395 0.49008,-1.960296 -0.16336,-5.717529 0.49008,-6.861035 0.65343,-1.143506 1.30686,1.143506 0.98014,-0.81679 -0.32671,-1.960296 -2.85876,-4.328987 -5.55417,-4.247308 z" id="path30334" inkscape:connector-curvature="0" sodipodi:nodetypes="csssssc"/>
        <path sodipodi:nodetypes="cscsssc" inkscape:connector-curvature="0" style="opacity: 0.420354; color: rgb(0, 0, 0); fill: rgb(54, 147, 35); fill-opacity: 1; fill-rule: nonzero; stroke: none; stroke-width: 0; marker: none; visibility: visible; display: inline; overflow: visible;" d="m -370.4375,-34.59375 c -4.63062,1.234832 -4.80249,30.3377966 -26.72076,29.1029646 -17.50633,-0.9862718 -20.6879,-10.2672396 -19.43549,-21.6654646 -1.98868,7.195877 -2.38542,13.736093 -1.71875,16.625 1.85227,8.0264081 6.80702,16.070084 21.625,16.6875 14.81798,0.617416 22.83527,-8.0285079 24.6875,-15.4375 1.77462,-7.098407 -0.4225,-20.406322 1.5625,-25.3125 z" transform="matrix(0.26458336,0,0,0.26458336,320.08182,94.083721)" id="path30336"/>
        <path inkscape:connector-curvature="0" style="color: rgb(0, 0, 0); fill: rgb(95, 211, 71); fill-opacity: 1; fill-rule: nonzero; stroke: none; stroke-width: 0; marker: none; visibility: visible; display: inline; overflow: visible;" d="m -388.65625,-54.34375 c -25.51025,0.516069 -31.47954,35.911508 -29.65625,43.8125 0.90786,3.9339961 2.59053,7.8758668 5.78125,10.9375 -3.72834,-8.2888266 -1.10399,-39.964804 17.375,-48.90625 18.39416,-8.900403 26.75937,8.019095 29.03125,12.375 -0.0409,-0.486433 -0.14599,-1.188463 -0.3125,-2.1875 -1.23481,-7.408992 -10.81262,-16.339958 -21,-16.03125 -0.41483,-0.0096 -0.81383,-0.0082 -1.21875,0 z" transform="matrix(0.26458336,0,0,0.26458336,320.08182,94.083721)" id="path30338"/>
        <path inkscape:connector-curvature="0" style="opacity: 0.641593; color: rgb(0, 0, 0); fill: rgb(95, 211, 71); fill-opacity: 1; fill-rule: nonzero; stroke: none; stroke-width: 0; marker: none; visibility: visible; display: inline; overflow: visible;" d="m -388.65625,-54.34375 c -13.83972,0.279976 -21.91614,10.828414 -26.125,21.6875 10.94519,-12.957671 18.03208,-6.980303 17.78125,-3.46875 -0.30871,4.321912 -1.53125,10.46875 -1.53125,10.46875 0,0 4.93581,-17.88729 20.0625,-16.34375 7.03006,0.717353 10.57504,3.421226 12.375,6.125 -0.022,-0.481566 -0.14462,-1.242749 -0.34375,-2.4375 -1.23481,-7.408992 -10.81262,-16.339958 -21,-16.03125 -0.41483,-0.0096 -0.81383,-0.0082 -1.21875,0 z" transform="matrix(0.26458336,0,0,0.26458336,320.08182,94.083721)" id="path30340"/>
        <path style="color: rgb(0, 0, 0); fill: rgb(39, 104, 25); fill-opacity: 1; fill-rule: nonzero; stroke: none; stroke-width: 0; marker: none; visibility: visible; display: inline; overflow: visible;" d="m -389.28077,-47.869564 c -10.49607,10.804779 -10.49607,41.058162 -10.18736,38.5884982 0.3087,-2.4696642 3.97061,-21.9376082 6.79157,-28.0924262 3.39579,-7.408992 9.26124,-14.817984 7.40899,-13.274444 -1.85224,1.54354 -4.0132,2.778372 -4.0132,2.778372 z" id="path30342" inkscape:connector-curvature="0" transform="matrix(0.26458336,0,0,0.26458336,320.08182,94.083721)" sodipodi:nodetypes="csssc"/>
      </g>
      <g id="g30344" transform="matrix(-1.0197997,0.09198832,0.30184257,0.95335778,466.06776,-8.4635039)">
        <path id="path30346" transform="matrix(0.26458336,0,0,0.26458336,320.08182,94.083721)" d="m -360.28125,-102.09375 c -4.50559,-0.0368 -8.68601,1.36697 -11.6875,4.96875 -7.34676,8.81612 -6.94517,20.390996 -2.21875,26.96875 0.17015,1.013738 0.375,1.625 0.375,1.625 0.87315,3.710921 5.75606,2.5299 5.34375,-0.21875 0,0 -1.86462,-12.365147 13.53125,-12.78125 16.1534,-0.436581 22.80032,12.128685 24.4375,13.875 0.7091,1.087286 1.17503,0.701091 1.21875,-0.40625 0.28904,-0.0016 0.62768,-0.465152 0.96875,-2 0.87315,-3.929212 -1.29693,-14.421904 -8.71875,-21.84375 -4.87059,-4.870584 -14.64841,-10.11727 -23.25,-10.1875 z" style="color: rgb(0, 0, 0); fill: rgb(70, 190, 46); fill-opacity: 1; fill-rule: nonzero; stroke: rgb(18, 18, 18); stroke-width: 8.80634; stroke-linejoin: round; stroke-opacity: 1; marker: none; visibility: visible; display: inline; overflow: visible;" inkscape:connector-curvature="0"/>
        <g id="g30348">
          <path style="color: rgb(0, 0, 0); fill: rgb(70, 190, 46); fill-opacity: 1; fill-rule: nonzero; stroke: none; stroke-width: 0; marker: none; visibility: visible; display: inline; overflow: visible;" d="m -371.09217,-67.007632 c -7.42184,-5.238949 -9.60474,-19.646056 -0.87316,-30.123953 8.73159,-10.477895 27.50448,-2.182895 34.92633,5.238948 7.42184,7.421844 9.60473,17.89974 8.73158,21.828951 -0.87316,3.929212 -1.74632,0.873158 -1.74632,0.873158 0,0 -3.49263,-10.041317 -14.84369,-13.533949 -11.35105,-3.492632 -20.51921,-3.492632 -24.01184,3.056053 -3.49263,6.548685 -2.1829,12.660792 -2.1829,12.660792 z" id="path30350" inkscape:connector-curvature="0" transform="matrix(0.26458336,0,0,0.26458336,320.08182,94.083721)"/>
          <path style="color: rgb(0, 0, 0); fill: rgb(39, 104, 25); fill-opacity: 1; fill-rule: nonzero; stroke: none; stroke-width: 0; marker: none; visibility: visible; display: inline; overflow: visible;" d="m 232.37968,74.39092 c -6.0066,-6.699669 -10.48267,-2.425742 -11.06023,-1.039604 -0.57756,1.386139 -0.14439,2.59901 -0.14439,2.59901 0.23102,0.981848 1.52411,0.669487 1.41502,-0.05776 0,0 -0.49263,-3.268618 3.58086,-3.378712 4.27392,-0.115512 6.03547,3.205445 6.46864,3.667491 0.43317,0.664191 0.49092,-0.750825 -0.2599,-1.790429 z" id="path30352" inkscape:connector-curvature="0" sodipodi:nodetypes="csccscc"/>
          <path id="path30354" transform="matrix(-0.25224261,0.02433858,0.07986252,0.26982204,170.12996,91.14863)" d="m -236.78125,-67.84375 c -9.19485,0.382168 -18.21161,6.603603 -21.875,11.9375 -2.44896,3.565685 -3.54394,7.651508 -3.84375,11.375 0.79681,1.777434 1.65625,2.589704 1.65625,2.84375 0,0.212205 1.42493,1.289231 3.5,2.59375 1.44792,-3.020299 4.20796,-6.594304 9.46875,-8.78125 1.48038,-0.615406 2.94837,-1.158388 4.375,-1.625 -0.10506,-9.308017 5.99242,-13.525499 13,-12.5 7.83114,1.14602 15.13367,9.156102 16.84375,14.0625 -1.19257,-5.47043 -4.72727,-11.428781 -10.9375,-16.15625 -3.77098,-2.870618 -8.00802,-3.923713 -12.1875,-3.75 z" style="color: rgb(0, 0, 0); fill: rgb(95, 211, 71); fill-opacity: 1; fill-rule: nonzero; stroke: none; stroke-width: 0; marker: none; visibility: visible; display: inline; overflow: visible;" inkscape:connector-curvature="0"/>
        </g>
      </g>
      <g id="g30356" inkscape:transform-center-x="-22.072187" inkscape:transform-center-y="1.4269829" transform="matrix(-0.73826525,0.26690146,0.27259396,0.76830834,393.49728,-35.211118)">
        <path id="path30358" transform="matrix(0.26458336,0,0,0.26458336,320.08182,94.083721)" d="m -388.65625,-54.34375 c -25.51025,0.516069 -31.47954,35.911508 -29.65625,43.8125 0.30503,1.321759 0.71596,2.6488276 1.21875,3.9375 0.006,0.029327 0.0247,0.065141 0.0312,0.09375 1.85227,8.0264081 6.77577,16.038834 21.59375,16.65625 14.81798,0.617416 23.87895,-7.8468042 24.71875,-15.4375 3.73349,-33.746006 -18.15438,-16.36097 -16.06131,-15.410179 4.53208,2.058732 10.20163,-12.972405 8.96678,-20.381397 -0.19225,-1.153502 12.03673,4.447882 11.46953,3.260326 -0.0303,-0.192738 -0.0258,-0.279619 -0.0625,-0.5 -1.23481,-7.408992 -10.81262,-16.339958 -21,-16.03125 -0.41483,-0.0096 -0.81383,-0.0082 -1.21875,0 z" style="color: rgb(0, 0, 0); fill: rgb(39, 104, 25); fill-opacity: 1; fill-rule: nonzero; stroke: rgb(18, 18, 18); stroke-width: 11.0082; stroke-linejoin: round; stroke-opacity: 1; marker: none; visibility: visible; display: inline; overflow: visible;" inkscape:connector-curvature="0" sodipodi:nodetypes="ssccsssscscs"/>
        <path style="color: rgb(0, 0, 0); fill: rgb(39, 104, 25); fill-opacity: 1; fill-rule: nonzero; stroke: none; stroke-width: 0; marker: none; visibility: visible; display: inline; overflow: visible;" d="m 217.9014,80.764799 c -7.02439,-0.163358 -8.65797,9.474764 -8.1679,11.598417 0.49008,2.123654 1.79694,4.247308 5.71753,4.410666 3.92059,0.163358 6.04425,-2.123654 6.53432,-4.08395 0.49008,-1.960296 -0.16336,-5.717529 0.49008,-6.861035 0.65343,-1.143506 1.30686,1.143506 0.98014,-0.81679 -0.32671,-1.960296 -2.85876,-4.328987 -5.55417,-4.247308 z" id="path30360" inkscape:connector-curvature="0" sodipodi:nodetypes="csssssc"/>
        <path sodipodi:nodetypes="csssssc" inkscape:connector-curvature="0" id="path30362" d="m 217.57468,79.702972 c -7.02439,-0.163358 -8.65797,9.474764 -8.1679,11.598417 0.49008,2.123654 1.79694,4.247308 5.71753,4.410666 3.92059,0.163358 6.04425,-2.123654 6.53432,-4.08395 0.49008,-1.960296 -0.16336,-5.717529 0.49008,-6.861035 0.65343,-1.143506 1.30686,1.143506 0.98014,-0.81679 -0.32671,-1.960296 -2.85876,-4.328987 -5.55417,-4.247308 z" style="color: rgb(0, 0, 0); fill: rgb(70, 190, 46); fill-opacity: 1; fill-rule: nonzero; stroke: none; stroke-width: 0; marker: none; visibility: visible; display: inline; overflow: visible;"/>
        <path sodipodi:nodetypes="cscsssc" id="path30364" transform="matrix(0.26458336,0,0,0.26458336,320.08182,94.083721)" d="m -370.4375,-34.59375 c -4.63062,1.234832 -5.14528,29.3782137 -27.06355,28.1433817 -17.50633,-0.9862718 -20.34511,-9.3076567 -19.0927,-20.7058817 -1.98868,7.195877 -2.38542,13.736093 -1.71875,16.625 1.85227,8.0264081 6.80702,16.070084 21.625,16.6875 14.81798,0.617416 22.83527,-8.0285079 24.6875,-15.4375 1.77462,-7.098407 -0.4225,-20.406322 1.5625,-25.3125 z" style="opacity: 0.420354; color: rgb(0, 0, 0); fill: rgb(54, 147, 35); fill-opacity: 1; fill-rule: nonzero; stroke: none; stroke-width: 0; marker: none; visibility: visible; display: inline; overflow: visible;" inkscape:connector-curvature="0"/>
        <path id="path30366" transform="matrix(0.26458336,0,0,0.26458336,320.08182,94.083721)" d="m -388.65625,-54.34375 c -25.51025,0.516069 -31.47954,35.911508 -29.65625,43.8125 0.90786,3.9339961 2.59053,7.8758668 5.78125,10.9375 -3.72834,-8.2888266 -1.10399,-39.964804 17.375,-48.90625 18.39416,-8.900403 26.75937,8.019095 29.03125,12.375 -0.0409,-0.486433 -0.14599,-1.188463 -0.3125,-2.1875 -1.23481,-7.408992 -10.81262,-16.339958 -21,-16.03125 -0.41483,-0.0096 -0.81383,-0.0082 -1.21875,0 z" style="color: rgb(0, 0, 0); fill: rgb(95, 211, 71); fill-opacity: 1; fill-rule: nonzero; stroke: none; stroke-width: 0; marker: none; visibility: visible; display: inline; overflow: visible;" inkscape:connector-curvature="0"/>
        <path id="path30368" transform="matrix(0.26458336,0,0,0.26458336,320.08182,94.083721)" d="m -388.65625,-54.34375 c -13.83972,0.279976 -21.91614,10.828414 -26.125,21.6875 10.94519,-12.957671 18.03208,-6.980303 17.78125,-3.46875 -0.30871,4.321912 -1.53125,10.46875 -1.53125,10.46875 0,0 4.93581,-17.88729 20.0625,-16.34375 7.03006,0.717353 10.57504,3.421226 12.375,6.125 -0.022,-0.481566 -0.14462,-1.242749 -0.34375,-2.4375 -1.23481,-7.408992 -10.81262,-16.339958 -21,-16.03125 -0.41483,-0.0096 -0.81383,-0.0082 -1.21875,0 z" style="opacity: 0.641593; color: rgb(0, 0, 0); fill: rgb(95, 211, 71); fill-opacity: 1; fill-rule: nonzero; stroke: none; stroke-width: 0; marker: none; visibility: visible; display: inline; overflow: visible;" inkscape:connector-curvature="0"/>
        <path id="path30370" transform="matrix(-0.31764185,0.11034512,0.11269857,0.30522113,143.2107,118.53535)" d="m -246.59375,-38.03125 c -0.29965,0.101344 -0.60418,0.163723 -0.90625,0.28125 -0.76843,0.250768 -1.51401,0.586746 -2.21875,0.96875 14.06291,10.919246 25.61971,39.48745 26.8125,42.5 0.0122,-0.00568 0.0191,-0.02556 0.0312,-0.03125 -0.61344,-1.8908666 -8.30775,-25.466178 -13.96875,-34.0625 -2.88127,-4.375263 -6.55334,-7.527715 -9.75,-9.65625 z" style="color: rgb(0, 0, 0); fill: rgb(39, 104, 25); fill-opacity: 1; fill-rule: nonzero; stroke: none; stroke-width: 0; marker: none; visibility: visible; display: inline; overflow: visible;" inkscape:connector-curvature="0"/>
      </g>
      <g id="g30372" transform="matrix(0.34117052,5.2466778e-4,0.01408343,0.34177354,95.025508,79.402803)">
        <g transform="matrix(1.1819835,0,0,1.1819835,1.1755148,-43.483877)" id="g30374">
          <path style="color: rgb(0, 0, 0); fill: rgb(70, 190, 46); fill-opacity: 1; fill-rule: nonzero; stroke: rgb(18, 18, 18); stroke-width: 21.8194; stroke-linecap: round; stroke-linejoin: round; stroke-miterlimit: 4; stroke-opacity: 1; stroke-dasharray: none; stroke-dashoffset: 37.6; marker: none; visibility: visible; display: inline; overflow: visible;" d="m 230.30177,-211.06383 c -23.43935,-1.34709 -27.2112,54.69183 -18.85926,72.47341 8.35196,17.78157 34.4855,20.47575 53.61416,15.08739 19.12867,-5.38834 19.93693,-42.02918 18.05101,-61.15785 -1.88593,-19.12867 -12.39323,-25.32528 -20.47577,-27.75004 -8.08253,-2.42476 -18.32041,1.88593 -18.32041,1.88593 z" id="path30376" inkscape:connector-curvature="0" transform="matrix(0.26458336,0,0,0.26458336,320.08182,94.083721)" sodipodi:nodetypes="csssscc"/>
          <path inkscape:connector-curvature="0" id="path30378" d="m 230.30177,-211.06383 c -23.43935,-1.34709 -27.2112,54.69183 -18.85926,72.47341 8.35196,17.78157 34.4855,20.47575 53.61416,15.08739 19.12867,-5.38834 19.93693,-42.02918 18.05101,-61.15785 -1.88593,-19.12867 -12.39323,-25.32528 -20.47577,-27.75004 -8.08253,-2.42476 -18.32041,1.88593 -18.32041,1.88593 z" style="color: rgb(0, 0, 0); fill: rgb(74, 200, 49); fill-opacity: 1; fill-rule: nonzero; stroke: none; stroke-width: 0; marker: none; visibility: visible; display: inline; overflow: visible;" sodipodi:nodetypes="csssscc" transform="matrix(0.26458336,0,0,0.26458336,320.08182,94.083721)"/>
          <path sodipodi:nodetypes="csscsc" id="path30380" transform="matrix(0.22384691,0,0,0.22384691,269.80605,116.38707)" d="m 470.78125,-309.34375 c -2.24134,17.57561 -0.72335,36.38232 3.75,45.90625 9.87188,21.01752 40.76524,24.18145 63.375,17.8125 17.97021,-5.06201 22.23983,-33.42576 22.125,-56.21875 -4.313,22.93487 -15.66503,32.71109 -48.85208,32.21578 -39.3007,-0.58655 -41.87363,-20.62194 -40.39792,-39.71578 z" style="opacity: 0.738938; color: rgb(0, 0, 0); fill: rgb(54, 147, 35); fill-opacity: 1; fill-rule: nonzero; stroke: none; stroke-width: 0; marker: none; visibility: visible; display: inline; overflow: visible;" inkscape:connector-curvature="0"/>
          <path id="path30382" transform="matrix(0.22384691,0,0,0.22384691,269.80605,116.38707)" d="m 527.625,-351.5625 c -7.43376,0.22391 -14.25,3.09375 -14.25,3.09375 l -16.5625,-0.65625 c -23.04416,-1.32438 -29.99087,44.27443 -26,71.75 0.0957,-0.45363 0.1856,-0.90249 0.28125,-1.40625 4.63062,-24.38793 19.43805,-49.08891 60.1875,-41.0625 16.55447,3.26073 24.64832,15.3309 28.46875,28.4375 0.57159,-9.69892 0.19013,-19.18313 -0.53125,-26.5 -2.22914,-22.60977 -14.63407,-29.91522 -24.1875,-32.78125 -2.38835,-0.71651 -4.92833,-0.94964 -7.40625,-0.875 z" style="color: rgb(0, 0, 0); fill: rgb(95, 211, 71); fill-opacity: 1; fill-rule: nonzero; stroke: none; stroke-width: 0; marker: none; visibility: visible; display: inline; overflow: visible;" inkscape:connector-curvature="0"/>
        </g>
      </g>
    </g>
    <path style="color: rgb(0, 0, 0); fill: rgb(39, 105, 25); fill-opacity: 1; fill-rule: nonzero; stroke: none; stroke-width: 0; marker: none; visibility: visible; display: inline; overflow: visible;" d="m 93.166066,328.13197 c -0.59217,2.66472 0,7.10591 0,6.06963 0,-1.03628 1.1843,-5.92159 1.1843,-5.92159 z" id="path17236" inkscape:connector-curvature="0"/>
  </g>
</svg>