<?xml version="1.0" encoding="UTF-8" standalone="no"?><!-- Created with Inkscape (http://www.inkscape.org/) --><svg xmlns:dc="http://purl.org/dc/elements/1.1/" xmlns:cc="http://creativecommons.org/ns#" xmlns:rdf="http://www.w3.org/1999/02/22-rdf-syntax-ns#" xmlns:svg="http://www.w3.org/2000/svg" xmlns="http://www.w3.org/2000/svg" xmlns:sodipodi="http://sodipodi.sourceforge.net/DTD/sodipodi-0.dtd" xmlns:inkscape="http://www.inkscape.org/namespaces/inkscape" width="115.62201" height="148.10904" viewBox="0 0 30.591652 39.187176" version="1.1" id="svg23489" inkscape:version="0.48.5 r10040" sodipodi:docname="plant_16.svg">
  <defs id="defs23483">
    <clipPath clipPathUnits="userSpaceOnUse" id="clipPath22932">
      <path style="opacity: 0.39823; color: rgb(0, 0, 0); fill: rgb(124, 212, 205); fill-opacity: 1; fill-rule: nonzero; stroke: none; stroke-width: 0; marker: none; visibility: visible; display: inline; overflow: visible;" d="m 544.30169,181.88988 c 0.28587,0.59217 2.59866,1.15837 3.74216,0.1578 0.98015,2.77708 16.86469,0 16.86469,0 l 0,-16.17162 -30.55281,0 0,15.42079 c 0,0 6.65838,3.49263 9.94596,0.59303 z" id="path22934" inkscape:connector-curvature="0" sodipodi:nodetypes="ccccccc"/>
    </clipPath>
    <clipPath clipPathUnits="userSpaceOnUse" id="clipPath22874">
      <path style="opacity: 0.39823; color: rgb(0, 0, 0); fill: rgb(124, 212, 205); fill-opacity: 1; fill-rule: nonzero; stroke: none; stroke-width: 0; marker: none; visibility: visible; display: inline; overflow: visible;" d="m 507.96393,172.04108 c 5.63585,4.14521 4.40861,7.03756 4.24526,7.42553 -0.16336,0.38797 -0.45419,0.84609 -0.55527,0.75946 0,0 -0.23077,1.39392 -0.96715,1.52387 0,0 0.7281,2.05291 -3.23333,2.91054 -3.96143,0.85763 -12.08849,-2.45037 -11.76178,-7.80034 0.32672,-5.34998 9.00511,-7.35111 12.27227,-4.81906 z" id="path22876" inkscape:connector-curvature="0" sodipodi:nodetypes="csccssc"/>
    </clipPath>
    <clipPath clipPathUnits="userSpaceOnUse" id="clipPath22894">
      <path style="opacity: 0.39823; color: rgb(0, 0, 0); fill: rgb(124, 212, 205); fill-opacity: 1; fill-rule: nonzero; stroke: none; stroke-width: 0; marker: none; visibility: visible; display: inline; overflow: visible;" d="m 519.13353,181.84256 c 1.53,1.07862 2.21773,-0.85703 2.00114,-1.06183 0.0817,0.0408 1.9603,0.65343 4.32899,-2.85877 2.36869,-3.51219 0,-9.96483 -8.00455,-11.96597 -8.00454,-2.00113 -11.2717,3.47136 -11.47589,10.16904 -0.2042,6.69767 5.75836,9.27056 9.76064,9.7198 4.00227,0.44923 3.38967,-4.00227 3.38967,-4.00227 z" id="path22896" inkscape:connector-curvature="0" sodipodi:nodetypes="ccssssc"/>
    </clipPath>
    <clipPath clipPathUnits="userSpaceOnUse" id="clipPath23263">
      <path style="opacity: 0.39823; color: rgb(0, 0, 0); fill: rgb(124, 212, 205); fill-opacity: 1; fill-rule: nonzero; stroke: none; stroke-width: 0; marker: none; visibility: visible; display: inline; overflow: visible;" d="m 507.96393,172.04108 c 5.63585,4.14521 4.40861,7.03756 4.24526,7.42553 -0.16336,0.38797 -0.45419,0.84609 -0.55527,0.75946 0,0 -0.23077,1.39392 -0.96715,1.52387 0,0 0.7281,2.05291 -3.23333,2.91054 -3.96143,0.85763 -12.08849,-2.45037 -11.76178,-7.80034 0.32672,-5.34998 9.00511,-7.35111 12.27227,-4.81906 z" id="path23265" inkscape:connector-curvature="0" sodipodi:nodetypes="csccssc"/>
    </clipPath>
    <clipPath clipPathUnits="userSpaceOnUse" id="clipPath22907">
      <path style="opacity: 0.39823; color: rgb(0, 0, 0); fill: rgb(124, 212, 205); fill-opacity: 1; fill-rule: nonzero; stroke: none; stroke-width: 0; marker: none; visibility: visible; display: inline; overflow: visible;" d="m 525.58617,181.98549 c 0.89522,0.98185 2.40724,0.64233 3.04255,0.12252 0.16124,0.72559 12.13955,0.23486 11.90471,0 -0.23482,-0.23483 4.09811,-23.83249 0,-26.19853 -4.09811,-2.36605 -15.11061,0 -21.31822,0 -6.2076,0 -9.48879,8.76153 -8.08444,14.00265 1.40436,5.24112 4.81751,7.15803 7.00687,9.97898 2.18936,2.82095 7.44853,2.09438 7.44853,2.09438 z" id="path22909" inkscape:connector-curvature="0" sodipodi:nodetypes="ccsssssc"/>
    </clipPath>
    <clipPath clipPathUnits="userSpaceOnUse" id="clipPath23269">
      <path style="opacity: 0.39823; color: rgb(0, 0, 0); fill: rgb(124, 212, 205); fill-opacity: 1; fill-rule: nonzero; stroke: none; stroke-width: 0; marker: none; visibility: visible; display: inline; overflow: visible;" d="m 525.58617,181.98549 c 0.89522,0.98185 2.40724,0.64233 3.04255,0.12252 0.16124,0.72559 12.13955,0.23486 11.90471,0 -0.23482,-0.23483 4.09811,-23.83249 0,-26.19853 -4.09811,-2.36605 -15.11061,0 -21.31822,0 -6.2076,0 -9.48879,8.76153 -8.08444,14.00265 1.40436,5.24112 4.81751,7.15803 7.00687,9.97898 2.18936,2.82095 7.44853,2.09438 7.44853,2.09438 z" id="path23271" inkscape:connector-curvature="0" sodipodi:nodetypes="ccsssssc"/>
    </clipPath>
    <clipPath clipPathUnits="userSpaceOnUse" id="clipPath23273">
      <path style="opacity: 0.39823; color: rgb(0, 0, 0); fill: rgb(124, 212, 205); fill-opacity: 1; fill-rule: nonzero; stroke: none; stroke-width: 0; marker: none; visibility: visible; display: inline; overflow: visible;" d="m 507.96393,172.04108 c 5.63585,4.14521 4.40861,7.03756 4.24526,7.42553 -0.16336,0.38797 -0.45419,0.84609 -0.55527,0.75946 0,0 -0.23077,1.39392 -0.96715,1.52387 0,0 0.7281,2.05291 -3.23333,2.91054 -3.96143,0.85763 -12.08849,-2.45037 -11.76178,-7.80034 0.32672,-5.34998 9.00511,-7.35111 12.27227,-4.81906 z" id="path23275" inkscape:connector-curvature="0" sodipodi:nodetypes="csccssc"/>
    </clipPath>
    <clipPath clipPathUnits="userSpaceOnUse" id="clipPath23277">
      <path style="opacity: 0.39823; color: rgb(0, 0, 0); fill: rgb(124, 212, 205); fill-opacity: 1; fill-rule: nonzero; stroke: none; stroke-width: 0; marker: none; visibility: visible; display: inline; overflow: visible;" d="m 519.13353,181.84256 c 1.53,1.07862 2.21773,-0.85703 2.00114,-1.06183 0.0817,0.0408 1.9603,0.65343 4.32899,-2.85877 2.36869,-3.51219 0,-9.96483 -8.00455,-11.96597 -8.00454,-2.00113 -11.2717,3.47136 -11.47589,10.16904 -0.2042,6.69767 5.75836,9.27056 9.76064,9.7198 4.00227,0.44923 3.38967,-4.00227 3.38967,-4.00227 z" id="path23279" inkscape:connector-curvature="0" sodipodi:nodetypes="ccssssc"/>
    </clipPath>
    <clipPath clipPathUnits="userSpaceOnUse" id="clipPath23281">
      <path style="opacity: 0.39823; color: rgb(0, 0, 0); fill: rgb(124, 212, 205); fill-opacity: 1; fill-rule: nonzero; stroke: none; stroke-width: 0; marker: none; visibility: visible; display: inline; overflow: visible;" d="m 525.58617,181.98549 c 0.89522,0.98185 2.40724,0.64233 3.04255,0.12252 0.16124,0.72559 12.13955,0.23486 11.90471,0 -0.23482,-0.23483 4.09811,-23.83249 0,-26.19853 -4.09811,-2.36605 -15.11061,0 -21.31822,0 -6.2076,0 -9.48879,8.76153 -8.08444,14.00265 1.40436,5.24112 4.81751,7.15803 7.00687,9.97898 2.18936,2.82095 7.44853,2.09438 7.44853,2.09438 z" id="path23283" inkscape:connector-curvature="0" sodipodi:nodetypes="ccsssssc"/>
    </clipPath>
    <clipPath clipPathUnits="userSpaceOnUse" id="clipPath23285">
      <path style="opacity: 0.39823; color: rgb(0, 0, 0); fill: rgb(124, 212, 205); fill-opacity: 1; fill-rule: nonzero; stroke: none; stroke-width: 0; marker: none; visibility: visible; display: inline; overflow: visible;" d="m 544.30169,181.88988 c 0.28587,0.59217 2.59866,1.15837 3.74216,0.1578 0.98015,2.77708 16.86469,0 16.86469,0 l 0,-16.17162 -30.55281,0 0,15.42079 c 0,0 6.65838,3.49263 9.94596,0.59303 z" id="path23287" inkscape:connector-curvature="0" sodipodi:nodetypes="ccccccc"/>
    </clipPath>
    <clipPath clipPathUnits="userSpaceOnUse" id="clipPath23289">
      <path style="opacity: 0.39823; color: rgb(0, 0, 0); fill: rgb(124, 212, 205); fill-opacity: 1; fill-rule: nonzero; stroke: none; stroke-width: 0; marker: none; visibility: visible; display: inline; overflow: visible;" d="m 507.96393,172.04108 c 5.63585,4.14521 4.40861,7.03756 4.24526,7.42553 -0.16336,0.38797 -0.45419,0.84609 -0.55527,0.75946 0,0 -0.23077,1.39392 -0.96715,1.52387 0,0 0.7281,2.05291 -3.23333,2.91054 -3.96143,0.85763 -12.08849,-2.45037 -11.76178,-7.80034 0.32672,-5.34998 9.00511,-7.35111 12.27227,-4.81906 z" id="path23291" inkscape:connector-curvature="0" sodipodi:nodetypes="csccssc"/>
    </clipPath>
    <clipPath clipPathUnits="userSpaceOnUse" id="clipPath22919">
      <path style="opacity: 0.39823; color: rgb(0, 0, 0); fill: rgb(124, 212, 205); fill-opacity: 1; fill-rule: nonzero; stroke: none; stroke-width: 0; marker: none; visibility: visible; display: inline; overflow: visible;" d="m 533.24358,180.67863 c -0.16336,1.16393 0.51049,2.00114 2.00114,1.20477 -1.74256,1.5022 -0.71572,1.26164 1.42124,3.05207 2.13697,1.79043 11.4934,0.98185 12.12872,0.5198 0.63531,-0.46205 8.02805,-6.41089 8.0858,-8.66336 0.0578,-2.25248 -1.90593,-15.01651 -5.19801,-17.78878 -3.29208,-2.77228 -16.4604,-0.57756 -19.75248,-0.0578 -3.29208,0.5198 -10.16501,5.71782 -9.93399,5.77558 0.23102,0.0577 2.83003,15.42079 2.77228,15.65181 -0.0578,0.23102 2.42574,4.15842 2.83003,3.92739 0.40429,-0.23102 3.95121,-3.17246 3.95121,-3.17246 0,0 1.59196,0.89865 1.69406,-0.44906 z" id="path22921" inkscape:connector-curvature="0" sodipodi:nodetypes="ccsssssssscc"/>
    </clipPath>
    <clipPath clipPathUnits="userSpaceOnUse" id="clipPath23295">
      <path style="opacity: 0.39823; color: rgb(0, 0, 0); fill: rgb(124, 212, 205); fill-opacity: 1; fill-rule: nonzero; stroke: none; stroke-width: 0; marker: none; visibility: visible; display: inline; overflow: visible;" d="m 525.58617,181.98549 c 0.89522,0.98185 2.40724,0.64233 3.04255,0.12252 0.16124,0.72559 12.13955,0.23486 11.90471,0 -0.23482,-0.23483 4.09811,-23.83249 0,-26.19853 -4.09811,-2.36605 -15.11061,0 -21.31822,0 -6.2076,0 -9.48879,8.76153 -8.08444,14.00265 1.40436,5.24112 4.81751,7.15803 7.00687,9.97898 2.18936,2.82095 7.44853,2.09438 7.44853,2.09438 z" id="path23297" inkscape:connector-curvature="0" sodipodi:nodetypes="ccsssssc"/>
    </clipPath>
    <clipPath clipPathUnits="userSpaceOnUse" id="clipPath23299">
      <path style="opacity: 0.39823; color: rgb(0, 0, 0); fill: rgb(124, 212, 205); fill-opacity: 1; fill-rule: nonzero; stroke: none; stroke-width: 0; marker: none; visibility: visible; display: inline; overflow: visible;" d="m 525.58617,181.98549 c 0.89522,0.98185 2.40724,0.64233 3.04255,0.12252 0.16124,0.72559 12.13955,0.23486 11.90471,0 -0.23482,-0.23483 4.09811,-23.83249 0,-26.19853 -4.09811,-2.36605 -15.11061,0 -21.31822,0 -6.2076,0 -9.48879,8.76153 -8.08444,14.00265 1.40436,5.24112 4.81751,7.15803 7.00687,9.97898 2.18936,2.82095 7.44853,2.09438 7.44853,2.09438 z" id="path23301" inkscape:connector-curvature="0" sodipodi:nodetypes="ccsssssc"/>
    </clipPath>
  </defs>
  <sodipodi:namedview id="base" pagecolor="#7d848b" bordercolor="#666666" borderopacity="1.0" inkscape:pageopacity="0" inkscape:pageshadow="2" inkscape:zoom="1.7872445" inkscape:cx="135.17701" inkscape:cy="62.804558" inkscape:document-units="px" inkscape:current-layer="layer1" showgrid="false" inkscape:pagecheckerboard="false" showborder="true" units="px" inkscape:window-width="1920" inkscape:window-height="1017" inkscape:window-x="-8" inkscape:window-y="-8" inkscape:window-maximized="1" inkscape:showpageshadow="false" guidetolerance="28" fit-margin-top="8" fit-margin-left="8" fit-margin-right="8" fit-margin-bottom="8">
    <inkscape:grid type="xygrid" id="grid24034" spacingx="1px" spacingy="1px" empspacing="8" visible="true" enabled="true" snapvisiblegridlinesonly="true" originx="-36.175557px" originy="510.66572px"/>
  </sodipodi:namedview>
  <metadata id="metadata23486">
    <rdf:RDF>
      <cc:Work rdf:about="">
        <dc:format>image/svg+xml</dc:format>
        <dc:type rdf:resource="http://purl.org/dc/dcmitype/StillImage"/>
        <dc:title/>
        <cc:license rdf:resource=""/>
        <dc:creator>
          <cc:Agent>
            <dc:title>Robert Brooks</dc:title>
          </cc:Agent>
        </dc:creator>
      </cc:Work>
    </rdf:RDF>
  </metadata>
  <g inkscape:label="Layer 1" inkscape:groupmode="layer" id="layer1" transform="translate(-9.5714375,-392.92641)">
    <g id="g4135">
      <path gds_opacity="shadow" gds_switchable="shadow" inkscape:connector-curvature="0" gds_color="shadow" id="path3314" d="m -436.42602,71.414085 c 0,10.042977 -17.0344,18.184418 -38.0474,18.184418 -21.013,0 -38.0474,-8.141441 -38.0474,-18.184418 0,-10.042976 17.0344,-18.184417 38.0474,-18.184417 21.013,0 38.0474,8.141441 38.0474,18.184417 z" style="opacity: 0.25; color: rgb(0, 0, 0); fill: rgb(0, 0, 0); fill-opacity: 1; fill-rule: nonzero; stroke: none; stroke-width: 0; marker: none; visibility: visible; display: inline; overflow: visible;" transform="matrix(0.24901958,0,0,0.24901958,143.28378,407.68514)"/>
      <g id="g9529" transform="matrix(0.78660564,0,0,0.78660564,12.671582,652.81602)">
        <g id="g9531" transform="matrix(0.78913987,0.02257518,-0.02257518,0.78913987,152.25659,-344.63588)">
          <path style="color: rgb(0, 0, 0); fill: rgb(146, 220, 213); fill-opacity: 1; fill-rule: nonzero; stroke: rgb(20, 20, 20); stroke-width: 4.11474; stroke-linejoin: round; stroke-miterlimit: 4; stroke-opacity: 1; stroke-dasharray: none; marker: none; visibility: visible; display: inline; overflow: visible;" d="m -176.14933,64.524891 c 0.11762,0.129513 -2.07359,6.424765 -2.54394,2.506204 -0.23378,-1.947605 -0.49877,-4.242698 -0.90455,-6.698567 -1.14119,-6.906705 -2.89911,-15.136553 -3.51983,-20.971269 -0.94864,-8.917221 0.37947,-10.340183 0.66406,-9.58127 1.70092,8.9737 3.32023,14.893656 5.50211,21.913599 1.15984,3.731655 3.69242,9.89746 4.5486,14.484243 0.18305,0.980631 0.0882,3.767302 -2.12537,-0.46656 0,1.218804 0.19451,0.08049 -1.18035,0.242425 -1.77482,0.209042 -0.39644,-0.522751 -0.44073,-1.428805 z" id="path9533" inkscape:connector-curvature="0" sodipodi:nodetypes="cssscsscsc"/>
          <path sodipodi:nodetypes="cscscc" inkscape:connector-curvature="0" id="path9535" d="m -178.56417,69.622897 c 0,-6.832848 -3.60484,-21.344414 -4.55348,-30.261638 -0.94863,-8.917222 0.37947,-10.340183 0.66406,-9.58127 1.70092,8.9737 3.32022,14.893659 5.50211,21.913599 1.40781,4.529465 4.83807,12.645159 4.83807,17.170397 0,2.792179 -6.37217,2.366834 -6.45076,0.758912 z" style="color: rgb(0, 0, 0); fill: rgb(61, 189, 178); fill-opacity: 1; fill-rule: nonzero; stroke: none; stroke-width: 0; marker: none; visibility: visible; display: inline; overflow: visible;"/>
          <path inkscape:connector-curvature="0" id="path9537" d="m -177.01883,51.477532 c 0.34922,2.009391 0.81097,4.122463 1.39734,5.812565 1.61269,4.648339 1.04569,10.15289 -0.85161,8.160744 -1.27892,-1.342848 -2.69984,-6.188677 -4.26641,-11.550718 1.11808,6.086246 2.17453,12.031627 2.17453,15.726174 0.0786,1.607922 6.44922,2.031502 6.44922,-0.760678 0,-4.525237 -3.4291,-12.643647 -4.83692,-17.173113 -0.0227,-0.07291 -0.0436,-0.142296 -0.0662,-0.214974 z" style="opacity: 0.553097; color: rgb(0, 0, 0); fill: rgb(43, 131, 124); fill-opacity: 1; fill-rule: nonzero; stroke: none; stroke-width: 0; marker: none; visibility: visible; display: inline; overflow: visible;"/>
          <path inkscape:connector-curvature="0" id="path9539" d="m -182.64948,29.608063 c -0.44688,0.0444 -1.2717,2.232605 -0.47128,9.756512 0.46175,4.340572 1.55649,10.000812 2.55487,15.46159 0.6101,2.688133 1.84759,4.910876 0.66972,0.471289 -1.23323,-4.648338 -2.64973,-15.653582 -2.55487,-18.214911 0.0949,-2.561331 1.61102,4.36574 2.84427,7.970574 0.415,1.21308 1.13683,2.746505 1.91823,4.24987 -1.82267,-6.033752 -3.25798,-11.583655 -4.7625,-19.521291 -0.0445,-0.118581 -0.11568,-0.181853 -0.19844,-0.173633 z" style="color: rgb(0, 0, 0); fill: rgb(77, 197, 187); fill-opacity: 1; fill-rule: nonzero; stroke: none; stroke-width: 0; marker: none; visibility: visible; display: inline; overflow: visible;"/>
        </g>
        <g id="g9541" transform="matrix(0.78946271,0,0,0.78946271,156.55293,-347.39555)">
          <path style="color: rgb(0, 0, 0); fill: rgb(146, 220, 213); fill-opacity: 1; fill-rule: nonzero; stroke: rgb(20, 20, 20); stroke-width: 4.11474; stroke-linejoin: round; stroke-miterlimit: 4; stroke-opacity: 1; stroke-dasharray: none; marker: none; visibility: visible; display: inline; overflow: visible;" d="m -191.5228,64.310289 c 0.16891,8.568493 -1.64631,5.094087 -1.8411,4.423419 -4.31044,-14.841382 -4.82368,-27.112879 -4.27298,-32.377905 0.28282,-2.70389 1.50945,-2.737706 1.90046,-0.236804 0.88582,5.665781 1.67897,12.747503 4.0632,20.157317 0.89005,2.766125 2.92385,7.687373 4.16837,10.609572 0.46991,1.103391 1.44391,3.581892 -3.63283,-1.610494 0.10857,1.628423 2.7033,3.118926 1.14262,3.352228 -1.39297,0.208232 -1.09171,-3.299929 -1.52774,-4.317333 z" id="path9543" inkscape:connector-curvature="0" sodipodi:nodetypes="cssssscsc"/>
          <path sodipodi:nodetypes="cssscc" inkscape:connector-curvature="0" id="path9545" d="m -192.75603,70.761046 c -4.86975,-15.745338 -5.45644,-28.902295 -4.88085,-34.405243 0.28282,-2.70389 1.50945,-2.737706 1.90046,-0.236804 0.88582,5.665781 1.67896,12.747505 4.0632,20.157317 1.22612,3.810584 4.62281,11.711058 5.13645,12.841073 0.20546,3.081856 -5.2947,3.800957 -6.21926,1.643657 z" style="color: rgb(0, 0, 0); fill: rgb(104, 206, 198); fill-opacity: 1; fill-rule: nonzero; stroke: none; stroke-width: 0; marker: none; visibility: visible; display: inline; overflow: visible;"/>
          <path id="path9547" transform="matrix(0.26458336,0,0,0.26458336,320.08182,94.083721)" d="m -1944.5938,-186.90625 c -0.3851,7.55318 -0.1983,16.56037 1.6563,24.90625 4.3025,19.36124 22.225,62.004785 11.4687,57.34375 -7.9116,-3.42838 -13.8754,-13.86467 -18.9062,-31.6875 2.8912,14.9649 6.8326,31.17674 12.0938,48.1875 3.4943,8.153574 24.2765,5.429209 23.5,-6.21875 -1.9414,-4.270922 -14.7721,-34.12904 -19.4063,-48.53125 -4.9149,-15.27459 -8.0366,-30.13024 -10.4063,-44 z" style="color: rgb(0, 0, 0); fill: rgb(58, 177, 167); fill-opacity: 1; fill-rule: nonzero; stroke: none; stroke-width: 0; marker: none; visibility: visible; display: inline; overflow: visible;" inkscape:connector-curvature="0"/>
          <path id="path9549" transform="matrix(0.26458336,0,0,0.26458336,320.08182,94.083721)" d="m -1953.2812,-226 c -1.4774,0.12785 -2.9031,2.70279 -3.4376,7.8125 -1.1696,11.18291 -1.0474,30.78554 2.1563,55.71875 -1.167,-20.86527 -0.051,-45.23066 1.9375,-47.21875 2.8684,-2.86833 4.6696,25.80459 10.4062,35.84375 0.028,0.049 0.066,0.0777 0.094,0.125 -3.365,-16.53803 -5.3476,-32.00758 -7.4375,-45.375 -0.7389,-4.72611 -2.2414,-7.0341 -3.7187,-6.90625 z" style="color: rgb(0, 0, 0); fill: rgb(77, 197, 187); fill-opacity: 1; fill-rule: nonzero; stroke: none; stroke-width: 0; marker: none; visibility: visible; display: inline; overflow: visible;" inkscape:connector-curvature="0"/>
        </g>
        <g transform="matrix(-0.78539315,0.08005601,0.08005601,0.78539315,-137.24495,-331.95893)" id="g9551">
          <path sodipodi:nodetypes="cssssscsc" inkscape:connector-curvature="0" id="path9553" d="m -191.5228,64.310289 c 0.16891,8.568493 -1.64631,5.094087 -1.8411,4.423419 -4.31044,-14.841382 -4.82368,-27.112879 -4.27298,-32.377905 0.28282,-2.70389 1.50945,-2.737706 1.90046,-0.236804 0.88582,5.665781 1.67897,12.747503 4.0632,20.157317 0.89005,2.766125 2.92385,7.687373 4.16837,10.609572 0.46991,1.103391 1.44391,3.581892 -3.63283,-1.610494 0.10857,1.628423 2.7033,3.118926 1.14262,3.352228 -1.39297,0.208232 -1.09171,-3.299929 -1.52774,-4.317333 z" style="color: rgb(0, 0, 0); fill: rgb(146, 220, 213); fill-opacity: 1; fill-rule: nonzero; stroke: rgb(20, 20, 20); stroke-width: 4.11474; stroke-linejoin: round; stroke-miterlimit: 4; stroke-opacity: 1; stroke-dasharray: none; marker: none; visibility: visible; display: inline; overflow: visible;"/>
          <path style="color: rgb(0, 0, 0); fill: rgb(61, 189, 178); fill-opacity: 1; fill-rule: nonzero; stroke: none; stroke-width: 0; marker: none; visibility: visible; display: inline; overflow: visible;" d="m -192.75603,70.761046 c -4.86975,-15.745338 -5.45644,-28.902295 -4.88085,-34.405243 0.28282,-2.70389 1.50945,-2.737706 1.90046,-0.236804 0.88582,5.665781 1.67896,12.747505 4.0632,20.157317 1.22612,3.810584 4.62281,11.711058 5.13645,12.841073 0.20546,3.081856 -5.2947,3.800957 -6.21926,1.643657 z" id="path9555" inkscape:connector-curvature="0" sodipodi:nodetypes="cssscc"/>
          <path inkscape:connector-curvature="0" style="color: rgb(0, 0, 0); fill: rgb(58, 177, 167); fill-opacity: 1; fill-rule: nonzero; stroke: none; stroke-width: 0; marker: none; visibility: visible; display: inline; overflow: visible;" d="m -1944.5938,-186.90625 c -0.3851,7.55318 -0.1983,16.56037 1.6563,24.90625 4.3025,19.36124 22.225,62.004785 11.4687,57.34375 -7.9116,-3.42838 -13.8754,-13.86467 -18.9062,-31.6875 2.8912,14.9649 6.8326,31.17674 12.0938,48.1875 3.4943,8.153574 24.2765,5.429209 23.5,-6.21875 -1.9414,-4.270922 -14.7721,-34.12904 -19.4063,-48.53125 -4.9149,-15.27459 -8.0366,-30.13024 -10.4063,-44 z" transform="matrix(0.26458336,0,0,0.26458336,320.08182,94.083721)" id="path9557"/>
          <path inkscape:connector-curvature="0" style="color: rgb(0, 0, 0); fill: rgb(77, 197, 187); fill-opacity: 1; fill-rule: nonzero; stroke: none; stroke-width: 0; marker: none; visibility: visible; display: inline; overflow: visible;" d="m -1953.2812,-226 c -1.4774,0.12785 -2.9031,2.70279 -3.4376,7.8125 -1.1696,11.18291 -1.0474,30.78554 2.1563,55.71875 -1.167,-20.86527 -0.051,-45.23066 1.9375,-47.21875 2.8684,-2.86833 4.6696,25.80459 10.4062,35.84375 0.028,0.049 0.066,0.0777 0.094,0.125 -3.365,-16.53803 -5.3476,-32.00758 -7.4375,-45.375 -0.7389,-4.72611 -2.2414,-7.0341 -3.7187,-6.90625 z" transform="matrix(0.26458336,0,0,0.26458336,320.08182,94.083721)" id="path9559"/>
        </g>
        <g id="g9561" transform="matrix(0.97298837,0,0,0.97298837,-8.262053,-9.5518803)">
          <path sodipodi:nodetypes="csscc" inkscape:connector-curvature="0" id="path9563" d="m 29.625192,-288.13667 c 8.673283,-10.2023 8.359856,-29.06536 8.888488,-29.0968 0.528608,-0.0314 1.852589,4.56261 1.347767,12.48647 -0.504822,7.92386 -1.551149,10.88029 -3.240173,14.94889 -2.695364,4.12966 -5.53696,-3.57598 -6.996082,1.66144 z" style="color: rgb(0, 0, 0); fill: rgb(104, 206, 198); fill-opacity: 1; fill-rule: nonzero; stroke: rgb(20, 20, 20); stroke-width: 3.33862; stroke-linejoin: round; stroke-miterlimit: 4; stroke-opacity: 1; stroke-dasharray: none; marker: none; visibility: visible; display: inline; overflow: visible;"/>
          <path style="color: rgb(0, 0, 0); fill: rgb(61, 189, 178); fill-opacity: 1; fill-rule: nonzero; stroke: none; stroke-width: 0; marker: none; visibility: visible; display: inline; overflow: visible;" d="m 29.625192,-288.13667 c 8.673283,-10.2023 8.359856,-29.06536 8.888488,-29.0968 0.528608,-0.0314 1.852589,4.56261 1.347767,12.48647 -0.504822,7.92386 -1.551149,10.88029 -3.240173,14.94889 -2.706602,4.17087 -7.332961,3.00936 -6.996082,1.66144 z" id="path9565" inkscape:connector-curvature="0" sodipodi:nodetypes="csscc"/>
          <path id="path9567" transform="matrix(0.26458336,0,0,0.26458336,320.08182,94.083721)" d="m -1059.8438,-1539.75 0,13.5 c 0,18.6441 -9.3143,64.885 -16.8437,69.1875 -5.2612,3.0064 -9.8376,1.6216 -9.9063,-4.125 -3.2073,5.9272 -6.9023,11.5219 -11.1874,16.5625 -1.2733,5.0945 16.2078,9.4827 26.4374,-6.2812 6.3838,-15.3774 10.3421,-26.5516 12.25,-56.5 0.8605,-13.5062 0.2914,-24.406 -0.75,-32.3438 z" style="color: rgb(0, 0, 0); fill: rgb(53, 162, 153); fill-opacity: 1; fill-rule: nonzero; stroke: none; stroke-width: 0; marker: none; visibility: visible; display: inline; overflow: visible;" inkscape:connector-curvature="0"/>
        </g>
        <g id="g9569" transform="translate(-18.972814,2.0870095)">
          <path sodipodi:nodetypes="ssssscs" style="color: rgb(0, 0, 0); fill: rgb(104, 206, 198); fill-opacity: 1; fill-rule: nonzero; stroke: rgb(20, 20, 20); stroke-width: 3.24844; stroke-linecap: round; stroke-linejoin: round; stroke-miterlimit: 4; stroke-opacity: 1; stroke-dasharray: none; stroke-dashoffset: 37.6; marker: none; visibility: visible; display: inline; overflow: visible;" d="m 42.177761,-292.01822 c 4.509409,-10.52226 0.215005,-22.84737 1.658361,-31.50773 0.466233,-2.79747 0.906325,-4.98972 0.160339,-4.61673 -0.746003,0.373 -2.517739,5.3152 -2.797469,10.2574 -0.279754,4.94221 0.20937,15.89955 -0.220793,18.55628 -0.585673,3.61716 -1.936879,4.56618 -3.955874,6.27744 0.932505,0.83924 4.804172,1.85297 5.155436,1.03334 z" id="path9571" inkscape:connector-curvature="0"/>
          <path inkscape:connector-curvature="0" id="path9573" d="m 40.956839,-289.59471 c 6.434177,-11.00339 1.323496,-24.59627 2.879283,-33.93124 0.466234,-2.79747 0.906325,-4.98972 0.160339,-4.61673 -0.746003,0.373 -2.517739,5.3152 -2.797469,10.2574 -0.279754,4.94221 0.20937,15.89955 -0.220793,18.55628 -0.585673,3.61716 -1.936879,8.17674 -3.955874,9.888 0.932505,0.83924 1.922143,1.85866 3.934514,-0.15371 z" style="color: rgb(0, 0, 0); fill: rgb(61, 189, 178); fill-opacity: 1; fill-rule: nonzero; stroke: none; stroke-width: 0; marker: none; visibility: visible; display: inline; overflow: visible;" sodipodi:nodetypes="csssscc"/>
          <path sodipodi:nodetypes="ccccsccccc" inkscape:connector-curvature="0" id="path9575" transform="matrix(0.26458336,0,0,0.26458336,320.08182,94.083721)" d="m -1043,-1595.9688 c -0.1423,0.014 -0.2925,0.068 -0.4688,0.1563 -1.4512,0.7256 -3.9171,6.0412 -6.125,13.5625 0.686,-0.7201 1.3436,-0.871 1.9376,0.062 2.5098,3.9439 -1.9293,6.4849 -0.3456,39.4327 1.7927,37.296 6.476,79.9559 -19.092,95.536 2.8954,2.0653 6.4207,2.7982 12.125,-2.9062 24.3182,-41.5876 4.9949,-92.9682 10.875,-128.25 1.6521,-9.9123 3.2278,-17.8063 1.0938,-17.5938 z" style="color: rgb(0, 0, 0); fill: rgb(53, 162, 153); fill-opacity: 1; fill-rule: nonzero; stroke: none; stroke-width: 0; marker: none; visibility: visible; display: inline; overflow: visible;"/>
          <path style="opacity: 0.628319; color: rgb(0, 0, 0); fill: rgb(93, 202, 193); fill-opacity: 1; fill-rule: nonzero; stroke: none; stroke-width: 0; marker: none; visibility: visible; display: inline; overflow: visible;" d="m -1123.4062,-1566.1562 c -1.1414,5.3102 -2.0134,11.1627 -2.3438,17 -1.0573,18.6792 0.7821,60.0838 -0.8438,70.125 -1.4041,8.6719 -3.9555,18.7746 -7.5937,26.6562 10.1646,-18.7268 10.7264,-44.1506 10.1563,-60.9688 -0.5602,-16.5259 -0.4696,-39.5683 0.625,-52.8124 z" transform="matrix(0.26458336,0,0,0.26458336,339.05463,91.996712)" id="path9577" inkscape:connector-curvature="0"/>
        </g>
        <g transform="matrix(-0.8799483,0,0,0.8799483,37.515163,-35.959882)" id="g9579">
          <path style="color: rgb(0, 0, 0); fill: rgb(104, 206, 198); fill-opacity: 1; fill-rule: nonzero; stroke: rgb(20, 20, 20); stroke-width: 3.69162; stroke-linejoin: round; stroke-miterlimit: 4; stroke-opacity: 1; stroke-dasharray: none; marker: none; visibility: visible; display: inline; overflow: visible;" d="m 29.625192,-288.13667 c 8.673283,-10.2023 8.359856,-29.06536 8.888488,-29.0968 0.528608,-0.0314 1.852589,4.56261 1.347767,12.48647 -0.504822,7.92386 -1.551149,10.88029 -3.240173,14.94889 -2.706602,4.17087 -7.332961,3.00936 -6.996082,1.66144 z" id="path9581" inkscape:connector-curvature="0" sodipodi:nodetypes="csscc"/>
          <path sodipodi:nodetypes="csscc" inkscape:connector-curvature="0" id="path9583" d="m 29.625192,-288.13667 c 8.673283,-10.2023 8.359856,-29.06536 8.888488,-29.0968 0.528608,-0.0314 1.852589,4.56261 1.347767,12.48647 -0.504822,7.92386 -1.551149,10.88029 -3.240173,14.94889 -2.706602,4.17087 -7.332961,3.00936 -6.996082,1.66144 z" style="color: rgb(0, 0, 0); fill: rgb(61, 189, 178); fill-opacity: 1; fill-rule: nonzero; stroke: none; stroke-width: 0; marker: none; visibility: visible; display: inline; overflow: visible;"/>
          <path inkscape:connector-curvature="0" style="color: rgb(0, 0, 0); fill: rgb(53, 162, 153); fill-opacity: 1; fill-rule: nonzero; stroke: none; stroke-width: 0; marker: none; visibility: visible; display: inline; overflow: visible;" d="m -1059.8438,-1539.75 0,13.5 c 0,18.6441 -9.3143,64.885 -16.8437,69.1875 -5.2612,3.0064 -9.8376,1.6216 -9.9063,-4.125 -3.2073,5.9272 -6.9023,11.5219 -11.1874,16.5625 -1.2733,5.0945 16.2078,9.4827 26.4374,-6.2812 6.3838,-15.3774 10.3421,-26.5516 12.25,-56.5 0.8605,-13.5062 0.2914,-24.406 -0.75,-32.3438 z" transform="matrix(0.26458336,0,0,0.26458336,320.08182,94.083721)" id="path9585"/>
        </g>
        <g transform="matrix(-1.0673652,0,0,0.7515596,53.006504,-69.199347)" id="g9587">
          <path inkscape:connector-curvature="0" id="path9589" d="m 42.210102,-297.21676 c 1.007227,-1.45609 -0.285247,6.18977 1.21214,0.72462 2.392328,-8.73151 -0.894157,-19.18538 0.41388,-27.03381 0.466233,-2.79747 0.906325,-4.98972 0.160339,-4.61673 -0.746003,0.373 -2.517739,5.3152 -2.797469,10.2574 -0.279754,4.94221 0.20937,15.89955 -0.220793,18.55628 -0.585673,3.61716 -1.936879,4.76738 -3.955874,6.47864 0.932505,0.83924 3.175406,-2.35403 5.187777,-4.3664 z" style="color: rgb(0, 0, 0); fill: rgb(104, 206, 198); fill-opacity: 1; fill-rule: nonzero; stroke: rgb(20, 20, 20); stroke-width: 3.6269; stroke-linecap: round; stroke-linejoin: round; stroke-miterlimit: 4; stroke-opacity: 1; stroke-dasharray: none; stroke-dashoffset: 37.6; marker: none; visibility: visible; display: inline; overflow: visible;" sodipodi:nodetypes="cssssscc"/>
          <path sodipodi:nodetypes="csssscc" style="color: rgb(0, 0, 0); fill: rgb(61, 189, 178); fill-opacity: 1; fill-rule: nonzero; stroke: none; stroke-width: 0; marker: none; visibility: visible; display: inline; overflow: visible;" d="m 40.956839,-289.59471 c 6.434177,-11.00339 1.323496,-24.59627 2.879283,-33.93124 0.466234,-2.79747 0.906325,-4.98972 0.160339,-4.61673 -0.746003,0.373 -2.517739,5.3152 -2.797469,10.2574 -0.279754,4.94221 0.20937,15.89955 -0.220793,18.55628 -0.585673,3.61716 -1.936879,8.17674 -3.955874,9.888 0.932505,0.83924 1.922143,1.85866 3.934514,-0.15371 z" id="path9591" inkscape:connector-curvature="0"/>
          <path style="color: rgb(0, 0, 0); fill: rgb(53, 162, 153); fill-opacity: 1; fill-rule: nonzero; stroke: none; stroke-width: 0; marker: none; visibility: visible; display: inline; overflow: visible;" d="m -1043,-1595.9688 c -0.1423,0.014 -0.2925,0.068 -0.4688,0.1563 -1.4512,0.7256 -3.9171,6.0412 -6.125,13.5625 0.686,-0.7201 1.3436,-0.871 1.9376,0.062 2.5098,3.9439 -1.0572,6.8464 0.5265,39.7942 2.4805,51.6064 2.0185,79.2359 -19.9641,95.1745 2.8954,2.0653 6.4207,2.7982 12.125,-2.9062 24.3182,-41.5876 4.9949,-92.9682 10.875,-128.25 1.6521,-9.9123 3.2278,-17.8063 1.0938,-17.5938 z" transform="matrix(0.26458336,0,0,0.26458336,320.08182,94.083721)" id="path9593" inkscape:connector-curvature="0" sodipodi:nodetypes="ccccsccccc"/>
        </g>
        <path style="color: rgb(0, 0, 0); fill: rgb(104, 206, 198); fill-opacity: 1; fill-rule: nonzero; stroke: rgb(20, 20, 20); stroke-width: 3.24844; stroke-linecap: round; stroke-linejoin: round; stroke-miterlimit: 4; stroke-opacity: 1; stroke-dasharray: none; stroke-dashoffset: 37.6; marker: none; visibility: visible; display: inline; overflow: visible;" d="m 13.522555,-313.33171 c 1.08932,-4.76806 -0.468643,-7.28304 -0.0081,-8.21901 0.460515,-0.93595 1.875939,2.68343 2.667278,6.84808 0.791318,4.16464 1.578198,9.99014 1.576606,14.3954 -0.0025,6.90891 1.481345,7.82296 0.894311,12.76986 -0.04252,2.15327 -6.808264,2.04794 -6.948242,-0.78895 0,0 0.406549,-18.82667 1.818147,-25.00538 z" id="path9595" inkscape:connector-curvature="0" sodipodi:nodetypes="ssssccs"/>
        <path sodipodi:nodetypes="cssssccc" inkscape:connector-curvature="0" id="path9597" d="m 11.704379,-285.71221 c -1.022184,-8.23561 1.656811,-23.48663 1.818176,-27.6195 0.190817,-4.88719 -0.468643,-7.28304 -0.0081,-8.21901 0.460515,-0.93595 1.875939,2.68343 2.667278,6.84808 0.791318,4.16464 1.578198,9.99014 1.576606,14.3954 -0.0025,6.90891 1.481345,9.91942 0.894311,14.86632 -0.04252,2.15327 -6.808264,2.5656 -6.948242,-0.27129 z" style="color: rgb(0, 0, 0); fill: rgb(61, 189, 178); fill-opacity: 1; fill-rule: nonzero; stroke: none; stroke-width: 0; marker: none; visibility: visible; display: inline; overflow: visible;"/>
        <path style="color: rgb(0, 0, 0); fill: rgb(53, 162, 153); fill-opacity: 1; fill-rule: nonzero; stroke: none; stroke-width: 0; marker: none; visibility: visible; display: inline; overflow: visible;" d="m -1143.6562,-1510.1562 c -0.5591,5.8146 -1.1961,12.9193 -1.5313,20.125 -0.7171,15.4172 6.8236,46.9554 -8.5937,41.2187 -10.3565,-3.8536 -11.9723,-13.0743 -11.5938,-27.0625 -1.1209,14.7754 -1.5375,29.3086 -0.1562,40.4375 0.529,10.7221 26.1205,9.1383 26.2812,1 2.2187,-18.6969 -3.3844,-30.0751 -3.375,-56.1875 0,-5.9951 -0.399,-12.6878 -1.0312,-19.5312 z" transform="matrix(0.26458336,0,0,0.26458336,320.08182,94.083721)" id="path9599" inkscape:connector-curvature="0"/>
        <path style="color: rgb(0, 0, 0); fill: rgb(77, 197, 187); fill-opacity: 1; fill-rule: nonzero; stroke: none; stroke-width: 0; marker: none; visibility: visible; display: inline; overflow: visible;" d="m -1158.0938,-1571.4688 c -0.2216,0.042 -0.4305,0.2309 -0.5937,0.5626 -1.7406,3.5375 0.7524,12.5912 0.031,31.0624 -0.3834,9.8181 -4.5285,36.2482 -6.5938,62.25 3.5389,-17.9801 8.2882,-34.279 8.5823,-47.2154 0.3585,-15.7758 1.4522,-26.1875 2.8865,-24.7533 1.0026,1.0026 6.2884,20.7113 9.4374,32.7187 -1.131,-9.9993 -2.6859,-19.956 -4.25,-28.1874 -2.7104,-14.2648 -7.3569,-26.8385 -9.5,-26.4376 z" transform="matrix(0.26458336,0,0,0.26458336,320.08182,94.083721)" id="path9601" inkscape:connector-curvature="0" sodipodi:nodetypes="ccccsccsc"/>
      </g>
    </g>
  </g>
</svg>