<?xml version="1.0" encoding="UTF-8" standalone="no"?><!-- Created with Inkscape (http://www.inkscape.org/) --><svg xmlns:dc="http://purl.org/dc/elements/1.1/" xmlns:cc="http://creativecommons.org/ns#" xmlns:rdf="http://www.w3.org/1999/02/22-rdf-syntax-ns#" xmlns:svg="http://www.w3.org/2000/svg" xmlns="http://www.w3.org/2000/svg" xmlns:sodipodi="http://sodipodi.sourceforge.net/DTD/sodipodi-0.dtd" xmlns:inkscape="http://www.inkscape.org/namespaces/inkscape" width="125.01034" height="87.31498" viewBox="0 0 33.07565 23.102085" version="1.1" id="svg23489" inkscape:version="0.48.5 r10040" sodipodi:docname="plant_08.svg">
  <defs id="defs23483">
    <clipPath clipPathUnits="userSpaceOnUse" id="clipPath22932">
      <path style="opacity: 0.39823; color: rgb(0, 0, 0); fill: rgb(186, 255, 81); fill-opacity: 1; fill-rule: nonzero; stroke: none; stroke-width: 0; marker: none; visibility: visible; display: inline; overflow: visible;" d="m 544.30169,181.88988 c 0.28587,0.59217 2.59866,1.15837 3.74216,0.1578 0.98015,2.77708 16.86469,0 16.86469,0 l 0,-16.17162 -30.55281,0 0,15.42079 c 0,0 6.65838,3.49263 9.94596,0.59303 z" id="path22934" inkscape:connector-curvature="0" sodipodi:nodetypes="ccccccc"/>
    </clipPath>
    <clipPath clipPathUnits="userSpaceOnUse" id="clipPath22874">
      <path style="opacity: 0.39823; color: rgb(0, 0, 0); fill: rgb(186, 255, 81); fill-opacity: 1; fill-rule: nonzero; stroke: none; stroke-width: 0; marker: none; visibility: visible; display: inline; overflow: visible;" d="m 507.96393,172.04108 c 5.63585,4.14521 4.40861,7.03756 4.24526,7.42553 -0.16336,0.38797 -0.45419,0.84609 -0.55527,0.75946 0,0 -0.23077,1.39392 -0.96715,1.52387 0,0 0.7281,2.05291 -3.23333,2.91054 -3.96143,0.85763 -12.08849,-2.45037 -11.76178,-7.80034 0.32672,-5.34998 9.00511,-7.35111 12.27227,-4.81906 z" id="path22876" inkscape:connector-curvature="0" sodipodi:nodetypes="csccssc"/>
    </clipPath>
    <clipPath clipPathUnits="userSpaceOnUse" id="clipPath22894">
      <path style="opacity: 0.39823; color: rgb(0, 0, 0); fill: rgb(186, 255, 81); fill-opacity: 1; fill-rule: nonzero; stroke: none; stroke-width: 0; marker: none; visibility: visible; display: inline; overflow: visible;" d="m 519.13353,181.84256 c 1.53,1.07862 2.21773,-0.85703 2.00114,-1.06183 0.0817,0.0408 1.9603,0.65343 4.32899,-2.85877 2.36869,-3.51219 0,-9.96483 -8.00455,-11.96597 -8.00454,-2.00113 -11.2717,3.47136 -11.47589,10.16904 -0.2042,6.69767 5.75836,9.27056 9.76064,9.7198 4.00227,0.44923 3.38967,-4.00227 3.38967,-4.00227 z" id="path22896" inkscape:connector-curvature="0" sodipodi:nodetypes="ccssssc"/>
    </clipPath>
    <clipPath clipPathUnits="userSpaceOnUse" id="clipPath23263">
      <path style="opacity: 0.39823; color: rgb(0, 0, 0); fill: rgb(186, 255, 81); fill-opacity: 1; fill-rule: nonzero; stroke: none; stroke-width: 0; marker: none; visibility: visible; display: inline; overflow: visible;" d="m 507.96393,172.04108 c 5.63585,4.14521 4.40861,7.03756 4.24526,7.42553 -0.16336,0.38797 -0.45419,0.84609 -0.55527,0.75946 0,0 -0.23077,1.39392 -0.96715,1.52387 0,0 0.7281,2.05291 -3.23333,2.91054 -3.96143,0.85763 -12.08849,-2.45037 -11.76178,-7.80034 0.32672,-5.34998 9.00511,-7.35111 12.27227,-4.81906 z" id="path23265" inkscape:connector-curvature="0" sodipodi:nodetypes="csccssc"/>
    </clipPath>
    <clipPath clipPathUnits="userSpaceOnUse" id="clipPath22907">
      <path style="opacity: 0.39823; color: rgb(0, 0, 0); fill: rgb(186, 255, 81); fill-opacity: 1; fill-rule: nonzero; stroke: none; stroke-width: 0; marker: none; visibility: visible; display: inline; overflow: visible;" d="m 525.58617,181.98549 c 0.89522,0.98185 2.40724,0.64233 3.04255,0.12252 0.16124,0.72559 12.13955,0.23486 11.90471,0 -0.23482,-0.23483 4.09811,-23.83249 0,-26.19853 -4.09811,-2.36605 -15.11061,0 -21.31822,0 -6.2076,0 -9.48879,8.76153 -8.08444,14.00265 1.40436,5.24112 4.81751,7.15803 7.00687,9.97898 2.18936,2.82095 7.44853,2.09438 7.44853,2.09438 z" id="path22909" inkscape:connector-curvature="0" sodipodi:nodetypes="ccsssssc"/>
    </clipPath>
    <clipPath clipPathUnits="userSpaceOnUse" id="clipPath23269">
      <path style="opacity: 0.39823; color: rgb(0, 0, 0); fill: rgb(186, 255, 81); fill-opacity: 1; fill-rule: nonzero; stroke: none; stroke-width: 0; marker: none; visibility: visible; display: inline; overflow: visible;" d="m 525.58617,181.98549 c 0.89522,0.98185 2.40724,0.64233 3.04255,0.12252 0.16124,0.72559 12.13955,0.23486 11.90471,0 -0.23482,-0.23483 4.09811,-23.83249 0,-26.19853 -4.09811,-2.36605 -15.11061,0 -21.31822,0 -6.2076,0 -9.48879,8.76153 -8.08444,14.00265 1.40436,5.24112 4.81751,7.15803 7.00687,9.97898 2.18936,2.82095 7.44853,2.09438 7.44853,2.09438 z" id="path23271" inkscape:connector-curvature="0" sodipodi:nodetypes="ccsssssc"/>
    </clipPath>
    <clipPath clipPathUnits="userSpaceOnUse" id="clipPath23273">
      <path style="opacity: 0.39823; color: rgb(0, 0, 0); fill: rgb(186, 255, 81); fill-opacity: 1; fill-rule: nonzero; stroke: none; stroke-width: 0; marker: none; visibility: visible; display: inline; overflow: visible;" d="m 507.96393,172.04108 c 5.63585,4.14521 4.40861,7.03756 4.24526,7.42553 -0.16336,0.38797 -0.45419,0.84609 -0.55527,0.75946 0,0 -0.23077,1.39392 -0.96715,1.52387 0,0 0.7281,2.05291 -3.23333,2.91054 -3.96143,0.85763 -12.08849,-2.45037 -11.76178,-7.80034 0.32672,-5.34998 9.00511,-7.35111 12.27227,-4.81906 z" id="path23275" inkscape:connector-curvature="0" sodipodi:nodetypes="csccssc"/>
    </clipPath>
    <clipPath clipPathUnits="userSpaceOnUse" id="clipPath23277">
      <path style="opacity: 0.39823; color: rgb(0, 0, 0); fill: rgb(186, 255, 81); fill-opacity: 1; fill-rule: nonzero; stroke: none; stroke-width: 0; marker: none; visibility: visible; display: inline; overflow: visible;" d="m 519.13353,181.84256 c 1.53,1.07862 2.21773,-0.85703 2.00114,-1.06183 0.0817,0.0408 1.9603,0.65343 4.32899,-2.85877 2.36869,-3.51219 0,-9.96483 -8.00455,-11.96597 -8.00454,-2.00113 -11.2717,3.47136 -11.47589,10.16904 -0.2042,6.69767 5.75836,9.27056 9.76064,9.7198 4.00227,0.44923 3.38967,-4.00227 3.38967,-4.00227 z" id="path23279" inkscape:connector-curvature="0" sodipodi:nodetypes="ccssssc"/>
    </clipPath>
    <clipPath clipPathUnits="userSpaceOnUse" id="clipPath23281">
      <path style="opacity: 0.39823; color: rgb(0, 0, 0); fill: rgb(186, 255, 81); fill-opacity: 1; fill-rule: nonzero; stroke: none; stroke-width: 0; marker: none; visibility: visible; display: inline; overflow: visible;" d="m 525.58617,181.98549 c 0.89522,0.98185 2.40724,0.64233 3.04255,0.12252 0.16124,0.72559 12.13955,0.23486 11.90471,0 -0.23482,-0.23483 4.09811,-23.83249 0,-26.19853 -4.09811,-2.36605 -15.11061,0 -21.31822,0 -6.2076,0 -9.48879,8.76153 -8.08444,14.00265 1.40436,5.24112 4.81751,7.15803 7.00687,9.97898 2.18936,2.82095 7.44853,2.09438 7.44853,2.09438 z" id="path23283" inkscape:connector-curvature="0" sodipodi:nodetypes="ccsssssc"/>
    </clipPath>
    <clipPath clipPathUnits="userSpaceOnUse" id="clipPath23285">
      <path style="opacity: 0.39823; color: rgb(0, 0, 0); fill: rgb(186, 255, 81); fill-opacity: 1; fill-rule: nonzero; stroke: none; stroke-width: 0; marker: none; visibility: visible; display: inline; overflow: visible;" d="m 544.30169,181.88988 c 0.28587,0.59217 2.59866,1.15837 3.74216,0.1578 0.98015,2.77708 16.86469,0 16.86469,0 l 0,-16.17162 -30.55281,0 0,15.42079 c 0,0 6.65838,3.49263 9.94596,0.59303 z" id="path23287" inkscape:connector-curvature="0" sodipodi:nodetypes="ccccccc"/>
    </clipPath>
    <clipPath clipPathUnits="userSpaceOnUse" id="clipPath23289">
      <path style="opacity: 0.39823; color: rgb(0, 0, 0); fill: rgb(186, 255, 81); fill-opacity: 1; fill-rule: nonzero; stroke: none; stroke-width: 0; marker: none; visibility: visible; display: inline; overflow: visible;" d="m 507.96393,172.04108 c 5.63585,4.14521 4.40861,7.03756 4.24526,7.42553 -0.16336,0.38797 -0.45419,0.84609 -0.55527,0.75946 0,0 -0.23077,1.39392 -0.96715,1.52387 0,0 0.7281,2.05291 -3.23333,2.91054 -3.96143,0.85763 -12.08849,-2.45037 -11.76178,-7.80034 0.32672,-5.34998 9.00511,-7.35111 12.27227,-4.81906 z" id="path23291" inkscape:connector-curvature="0" sodipodi:nodetypes="csccssc"/>
    </clipPath>
    <clipPath clipPathUnits="userSpaceOnUse" id="clipPath22919">
      <path style="opacity: 0.39823; color: rgb(0, 0, 0); fill: rgb(186, 255, 81); fill-opacity: 1; fill-rule: nonzero; stroke: none; stroke-width: 0; marker: none; visibility: visible; display: inline; overflow: visible;" d="m 533.24358,180.67863 c -0.16336,1.16393 0.51049,2.00114 2.00114,1.20477 -1.74256,1.5022 -0.71572,1.26164 1.42124,3.05207 2.13697,1.79043 11.4934,0.98185 12.12872,0.5198 0.63531,-0.46205 8.02805,-6.41089 8.0858,-8.66336 0.0578,-2.25248 -1.90593,-15.01651 -5.19801,-17.78878 -3.29208,-2.77228 -16.4604,-0.57756 -19.75248,-0.0578 -3.29208,0.5198 -10.16501,5.71782 -9.93399,5.77558 0.23102,0.0577 2.83003,15.42079 2.77228,15.65181 -0.0578,0.23102 2.42574,4.15842 2.83003,3.92739 0.40429,-0.23102 3.95121,-3.17246 3.95121,-3.17246 0,0 1.59196,0.89865 1.69406,-0.44906 z" id="path22921" inkscape:connector-curvature="0" sodipodi:nodetypes="ccsssssssscc"/>
    </clipPath>
    <clipPath clipPathUnits="userSpaceOnUse" id="clipPath23295">
      <path style="opacity: 0.39823; color: rgb(0, 0, 0); fill: rgb(186, 255, 81); fill-opacity: 1; fill-rule: nonzero; stroke: none; stroke-width: 0; marker: none; visibility: visible; display: inline; overflow: visible;" d="m 525.58617,181.98549 c 0.89522,0.98185 2.40724,0.64233 3.04255,0.12252 0.16124,0.72559 12.13955,0.23486 11.90471,0 -0.23482,-0.23483 4.09811,-23.83249 0,-26.19853 -4.09811,-2.36605 -15.11061,0 -21.31822,0 -6.2076,0 -9.48879,8.76153 -8.08444,14.00265 1.40436,5.24112 4.81751,7.15803 7.00687,9.97898 2.18936,2.82095 7.44853,2.09438 7.44853,2.09438 z" id="path23297" inkscape:connector-curvature="0" sodipodi:nodetypes="ccsssssc"/>
    </clipPath>
    <clipPath clipPathUnits="userSpaceOnUse" id="clipPath23299">
      <path style="opacity: 0.39823; color: rgb(0, 0, 0); fill: rgb(186, 255, 81); fill-opacity: 1; fill-rule: nonzero; stroke: none; stroke-width: 0; marker: none; visibility: visible; display: inline; overflow: visible;" d="m 525.58617,181.98549 c 0.89522,0.98185 2.40724,0.64233 3.04255,0.12252 0.16124,0.72559 12.13955,0.23486 11.90471,0 -0.23482,-0.23483 4.09811,-23.83249 0,-26.19853 -4.09811,-2.36605 -15.11061,0 -21.31822,0 -6.2076,0 -9.48879,8.76153 -8.08444,14.00265 1.40436,5.24112 4.81751,7.15803 7.00687,9.97898 2.18936,2.82095 7.44853,2.09438 7.44853,2.09438 z" id="path23301" inkscape:connector-curvature="0" sodipodi:nodetypes="ccsssssc"/>
    </clipPath>
  </defs>
  <sodipodi:namedview id="base" pagecolor="#7d848b" bordercolor="#666666" borderopacity="1.0" inkscape:pageopacity="0" inkscape:pageshadow="2" inkscape:zoom="1.145268" inkscape:cx="130.612" inkscape:cy="18.109472" inkscape:document-units="px" inkscape:current-layer="layer1" showgrid="false" inkscape:pagecheckerboard="false" showborder="true" units="px" inkscape:window-width="1920" inkscape:window-height="1017" inkscape:window-x="-8" inkscape:window-y="-8" inkscape:window-maximized="1" inkscape:showpageshadow="false" guidetolerance="28" fit-margin-top="8" fit-margin-left="8" fit-margin-right="8" fit-margin-bottom="8">
    <inkscape:grid type="xygrid" id="grid24034" spacingx="1px" spacingy="1px" empspacing="8" visible="true" enabled="true" snapvisiblegridlinesonly="true" originx="-20.284035px" originy="429.2842px"/>
  </sodipodi:namedview>
  <metadata id="metadata23486">
    <rdf:RDF>
      <cc:Work rdf:about="">
        <dc:format>image/svg+xml</dc:format>
        <dc:type rdf:resource="http://purl.org/dc/dcmitype/StillImage"/>
        <dc:title/>
        <cc:license rdf:resource=""/>
        <dc:creator>
          <cc:Agent>
            <dc:title>Robert Brooks</dc:title>
          </cc:Agent>
        </dc:creator>
      </cc:Work>
    </rdf:RDF>
  </metadata>
  <g inkscape:label="Layer 1" inkscape:groupmode="layer" id="layer1" transform="translate(-5.3668213,-387.47932)">
    <g id="g26472" transform="translate(-241.7858,427.18194)">
      <path transform="matrix(0.26458336,0,0,0.26458336,320.08182,94.083721)" inkscape:connector-curvature="0" id="path26455" d="m -220.76755,-447.03633 c -19.78204,-1.18692 -27.69486,12.26486 -34.42075,12.26486 -6.72589,0 -7.91281,1.18693 -7.91281,1.18693 0,0 8.30845,4.74769 17.01255,3.56076 8.7041,-1.18692 18.99076,-5.14333 18.99076,-5.14333 0,0 9.49538,3.16513 15.03435,3.56077 5.53897,0.39564 10.28666,-1.58256 10.28666,-1.58256 0,0 9.49537,9.09973 11.07794,6.33025 1.58256,-2.76949 -1.18692,-10.28666 0.39564,-11.47358 1.58256,-1.18693 21.76024,-3.56077 26.50793,-2.37385 4.74769,1.18692 2.37384,-4.74769 -5.93461,-7.51717 -8.30846,-2.76949 -17.01255,-1.18692 -29.27742,0 -12.26486,1.18692 -21.76024,1.18692 -21.76024,1.18692 z" style="opacity: 0.25; color: rgb(0, 0, 0); fill: rgb(0, 0, 0); fill-opacity: 1; fill-rule: nonzero; stroke: none; stroke-width: 0; marker: none; visibility: visible; display: inline; overflow: visible;" gds_color="shadow" gds_switchable="shadow" gds_opacity="shadow"/>
      <g transform="translate(-33.71575,23.442874)" id="g25063">
        <g id="g24979" transform="matrix(0.75739101,0,0,0.75739101,-9.2378607,-7.2701626)">
          <path sodipodi:nodetypes="ssccsssssccccscssccccccccccccccccsccsccsccccccscccccccccscs" inkscape:connector-curvature="0" id="path24981" transform="matrix(0.26458336,0,0,0.26458336,320.08182,94.083721)" d="m 345.6875,-613.6875 c -0.7076,0.0199 -1.41711,0.0648 -2.125,0.125 -0.70753,0.0601 -1.41974,0.14658 -2.125,0.25 -0.0308,0.005 -0.0629,-0.005 -0.0937,0 -0.66865,0.0999 -1.33574,0.23331 -2,0.375 -0.70559,0.15051 -1.39566,0.33057 -2.09375,0.53125 -0.69219,0.19898 -1.38025,0.43612 -2.0625,0.6875 -1.37006,0.5048 -2.71678,1.10906 -4.03125,1.84375 -0.65179,0.3643 -1.30318,0.76211 -1.9375,1.1875 -8.37074,5.61361 -15.10403,16.66587 -17.3125,36.65625 -0.10826,0.9772 -0.19343,1.9814 -0.28125,3 -0.0649,0.7698 -0.13548,1.54903 -0.1875,2.34375 -1.21992,17.09609 6.95831,4.09594 6.51187,-0.50743 0.27731,3.11997 4.06718,-15.85606 8.76954,-10.47 1.55421,1.78019 4.70882,27.30642 8.84359,16.28993 -0.0117,-1.65606 -0.004,-3.23769 0.0224,-4.74852 0.42509,-24.11619 5.73409,-30.192 16.10257,-32.97023 16.01873,-4.29221 32.13619,10.22882 33.71875,9.4375 0.42768,-0.21353 0.58451,-0.50792 0.65625,-0.71875 0.0239,0.0161 0.0403,0.054 0.0625,0.0625 0.006,0.003 0.0253,-0.002 0.0312,0 0.10822,0.0255 0.20466,-0.0284 0.25,-0.1875 0.0479,-0.16814 0.0531,-0.42733 0,-0.78125 -0.003,-0.0208 0.004,-0.0411 0,-0.0625 -0.006,-0.0372 -0.0241,-0.086 -0.0312,-0.125 -0.03,-0.15809 -0.073,-0.31318 -0.125,-0.5 -0.0424,-0.15493 -0.097,-0.32577 -0.15625,-0.5 -0.0285,-0.083 -0.03,-0.16283 -0.0625,-0.25 -0.10137,-0.27358 -0.23112,-0.56176 -0.375,-0.875 -0.43541,-0.9488 -1.0629,-2.05242 -1.96875,-3.3125 -0.29778,-0.41534 -0.61088,-0.83751 -0.96875,-1.28125 -0.36571,-0.45367 -0.75439,-0.89468 -1.1875,-1.375 -0.42235,-0.46932 -0.85252,-0.94542 -1.34375,-1.4375 -0.98244,-0.98439 -2.12192,-2.00416 -3.40625,-3.0625 -0.21922,-0.18065 -0.48274,-0.38158 -0.78125,-0.59375 -0.0218,-0.0155 -0.0403,-0.0468 -0.0625,-0.0625 -0.26654,-0.18741 -0.58322,-0.38703 -0.90625,-0.59375 -0.36489,-0.23351 -0.78632,-0.46603 -1.21875,-0.71875 -0.13071,-0.0764 -0.26968,-0.17224 -0.40625,-0.25 -0.30434,-0.17302 -0.63649,-0.35259 -0.96875,-0.53125 -0.50092,-0.26935 -1.03351,-0.53531 -1.59375,-0.8125 -0.41477,-0.20524 -0.86765,-0.41834 -1.3125,-0.625 -0.14428,-0.0669 -0.29021,-0.15183 -0.4375,-0.21875 -0.37446,-0.17021 -0.76308,-0.33089 -1.15625,-0.5 -0.23312,-0.10015 -0.47939,-0.21312 -0.71875,-0.3125 -0.52528,-0.21798 -1.07151,-0.44418 -1.625,-0.65625 -0.13324,-0.051 -0.27146,-0.10568 -0.40625,-0.15625 -0.57815,-0.21691 -1.17638,-0.4184 -1.78125,-0.625 -0.12186,-0.0416 -0.25212,-0.0839 -0.375,-0.125 -0.68609,-0.22944 -1.40951,-0.44511 -2.125,-0.65625 -0.0528,-0.0156 -0.10331,-0.0471 -0.15625,-0.0625 -1.54339,-0.45076 -3.13145,-0.85699 -4.78125,-1.1875 -0.11219,-0.0225 -0.23116,-0.0407 -0.34375,-0.0625 -0.71906,-0.1391 -1.45413,-0.26543 -2.1875,-0.375 -0.0423,-0.006 -0.0826,-0.025 -0.125,-0.0312 -0.43345,-0.0636 -0.875,-0.10405 -1.3125,-0.15625 -0.66624,-0.0796 -1.32624,-0.13672 -2,-0.1875 -0.95169,-0.0717 -1.91382,-0.11736 -2.875,-0.125 -0.48077,-0.004 -0.95559,-0.0135 -1.4375,0 z" style="color: rgb(0, 0, 0); fill: rgb(52, 111, 14); fill-opacity: 1; fill-rule: nonzero; stroke: rgb(18, 18, 18); stroke-width: 11.8829; stroke-linejoin: round; stroke-miterlimit: 4; stroke-opacity: 1; stroke-dasharray: none; marker: none; visibility: visible; display: inline; overflow: visible;"/>
          <path style="color: rgb(0, 0, 0); fill: rgb(52, 111, 14); fill-opacity: 1; fill-rule: nonzero; stroke: none; stroke-width: 0; marker: none; visibility: visible; display: inline; overflow: visible;" d="m 419.92274,-64.925726 c 1.53506,1.530935 2.20639,2.278771 2.32239,2.743513 0,0 -0.009,0.16301 -0.19155,0.254152 -0.41872,0.209369 -4.67933,-3.634948 -8.91762,-2.499301 -2.91519,0.781123 -4.32299,2.547923 -4.27065,9.9802 0.13609,3.826319 -5.60936,3.164789 -5.60936,0.579458 0.96226,-20.651554 14.81164,-12.908189 16.66679,-11.058022 z" id="path24983" inkscape:connector-curvature="0" sodipodi:nodetypes="scssccs"/>
          <path sodipodi:nodetypes="ssssccs" transform="matrix(0.26458336,0,0,0.26458336,320.08182,94.083721)" inkscape:connector-curvature="0" id="path24985" d="m 376.79196,-604.05789 c 10.27466,8.46668 10.32627,14.92851 9.15562,13.60178 -2.96731,-3.36295 -19.30446,-15.18417 -35.50585,-11.64329 -14.00025,3.05982 -19.2904,13.81931 -20.47733,25.68854 -1.18692,11.86922 -0.28138,15.58393 -0.0339,19.41475 0.36642,9.16051 -19.3864,8.37851 -18.79294,-1.39904 0.66958,-79.24003 58.01222,-51.96019 65.65444,-45.66274 z" style="color: rgb(0, 0, 0); fill: rgb(86, 183, 23); fill-opacity: 1; fill-rule: nonzero; stroke: none; stroke-width: 0; marker: none; visibility: visible; display: inline; overflow: visible;"/>
          <path id="path24987" transform="matrix(0.26458336,0,0,0.26458336,320.08182,94.083721)" d="m 330.96875,-582.34375 c -2.29344,3.81104 -3.79701,10.21226 -5.3125,12.59375 -1.40754,2.21186 -10.49561,3.40899 -13.71875,-2.53125 -0.47631,4.22086 -0.76979,8.82037 -0.8125,13.875 -0.59346,9.77755 19.17892,10.56676 18.8125,1.40625 -0.24748,-3.83082 -1.15567,-7.53703 0.0312,-19.40625 0.20187,-2.01864 0.5381,-4.01547 1,-5.9375 z" style="opacity: 0.699115; color: rgb(0, 0, 0); fill: rgb(52, 111, 14); fill-opacity: 1; fill-rule: nonzero; stroke: none; stroke-width: 0; marker: none; visibility: visible; display: inline; overflow: visible;" inkscape:connector-curvature="0"/>
          <path id="path24989" transform="matrix(0.26458336,0,0,0.26458336,320.08182,94.083721)" d="m 345.6875,-613.6875 c -5.6571,0.1589 -11.36713,1.57874 -16.46875,5 9.67889,-1.87907 13.25245,6.94945 9.84375,12.0625 2.91752,-2.53227 6.65137,-4.43638 11.375,-5.46875 16.20139,-3.54088 32.53269,8.26205 35.5,11.625 1.17065,1.32673 1.11841,-5.12707 -9.15625,-13.59375 -3.46288,-2.85353 -17.1183,-10.01755 -31.09375,-9.625 z" style="color: rgb(0, 0, 0); fill: rgb(90, 218, 7); fill-opacity: 1; fill-rule: nonzero; stroke: none; stroke-width: 0; marker: none; visibility: visible; display: inline; overflow: visible;" inkscape:connector-curvature="0"/>
        </g>
        <g id="g24991" transform="matrix(0.70400805,0,0,0.70400805,-27.48537,-2.6155853)">
          <g id="g24993">
            <path sodipodi:nodetypes="ccccccsccsscsc" inkscape:connector-curvature="0" id="path24995" transform="matrix(0.26458336,0,0,0.26458336,320.08182,94.083721)" d="m 499.375,-662.78125 c -2.92098,0.0484 -5.88813,0.60601 -8.78125,1.71875 -36.31109,15.45917 -27.24835,65.99965 -22.90625,66.84375 0.002,-0.0182 -0.002,-0.0441 0,-0.0625 0.83762,0.35636 3.03425,0.002 3.34375,0.0625 1.16991,-8.8675 13.18101,-42.08054 32.0625,-50.78125 9.37975,9.25989 11.19396,27.20465 10.43057,37.84474 -1.53454,21.38819 5.05452,3.96589 5.65058,-2.73977 13.69673,-0.24822 -12.95531,-10.16686 6.67785,-6.4751 -0.61159,-5.96592 -12.15467,-0.32719 -0.0107,7.08664 13.57518,8.28759 9.48662,-19.27993 8.35427,-22.56677 -1.61383,-4.68442 -3.68031,-9.28683 -6.32656,-13.42767 -5.35705,-9.27869 -15.9799,-17.71045 -28.49479,-17.50312 z" style="color: rgb(0, 0, 0); fill: rgb(75, 159, 20); fill-opacity: 1; fill-rule: nonzero; stroke: rgb(18, 18, 18); stroke-width: 12.7839; stroke-linejoin: round; stroke-miterlimit: 4; stroke-opacity: 1; stroke-dasharray: none; marker: none; visibility: visible; display: inline; overflow: visible;"/>
            <path style="color: rgb(0, 0, 0); fill: rgb(75, 159, 20); fill-opacity: 1; fill-rule: nonzero; stroke: none; stroke-width: 0; marker: none; visibility: visible; display: inline; overflow: visible;" d="m 493.43193,-649.54817 c 25.28124,2.39713 19.29863,57.70732 19.29863,57.70732 -0.27976,11.74993 27.97462,9.18409 27.36709,1.21503 -0.33864,-4.44201 0,-62.23148 -31.25562,-68.16609 -5.56528,-1.0567 -15.4101,9.24374 -15.4101,9.24374 z" id="path24997" inkscape:connector-curvature="0" transform="matrix(0.26458336,0,0,0.26458336,320.08182,94.083721)" sodipodi:nodetypes="ccssc"/>
            <path style="color: rgb(0, 0, 0); fill: rgb(62, 133, 17); fill-opacity: 1; fill-rule: nonzero; stroke: none; stroke-width: 0; marker: none; visibility: visible; display: inline; overflow: visible;" d="m 507.75,-658.875 c -5.66723,0.26095 -14.3125,9.3125 -14.3125,9.3125 7.21816,0.68441 11.8871,5.70767 14.875,12.5 19.48779,3.98769 26.03125,16.40625 26.03125,16.40625 0,0 0.95862,-0.44645 2.21875,-1.28125 -3.67672,-16.4307 -11.36196,-33.73803 -27.71875,-36.84375 -0.34783,-0.066 -0.71593,-0.11115 -1.09375,-0.0937 z" transform="matrix(0.26458336,0,0,0.26458336,320.08182,94.083721)" id="path24999" inkscape:connector-curvature="0"/>
            <path sodipodi:nodetypes="cssccscccc" style="color: rgb(0, 0, 0); fill: rgb(61, 130, 16); fill-opacity: 1; fill-rule: nonzero; stroke: none; stroke-width: 0; marker: none; visibility: visible; display: inline; overflow: visible;" d="m 535.46875,-623.78125 c -0.90922,0.17485 -1.54613,1.564 -1.40625,4.78125 0.27976,6.43448 -2.23964,22.11159 -12.03125,19.59375 -6.28993,-1.61741 -7.83654,-11.19416 -9.40625,-19.84375 1.56514,13.93866 0.0937,27.40625 0.0937,27.40625 -0.32657,13.71576 36.41228,13.40268 35.80475,5.43362 -0.16764,-2.19892 -8.58551,-21.69446 -12.336,-37.27737 -0.01,-0.004 -0.0213,0.004 -0.0312,0 -0.24389,-0.091 -0.46911,-0.13575 -0.6875,-0.0937 z" transform="matrix(0.26458336,0,0,0.26458336,320.08182,94.083721)" id="path25001" inkscape:connector-curvature="0"/>
            <path style="color: rgb(0, 0, 0); fill: rgb(36, 77, 10); fill-opacity: 1; fill-rule: nonzero; stroke: none; stroke-width: 0; marker: none; visibility: visible; display: inline; overflow: visible;" d="m 507.75,-658.875 c -0.51919,0.0239 -1.06464,0.15473 -1.625,0.3125 5.40705,1.2417 9.85245,3.96437 13.5,7.6875 -5.57253,-2.39691 -12.55852,-3.42298 -19.46875,-2.84375 -30.3428,15.31966 -36.97732,51.74234 -32.75,59.21875 0.39307,0.69515 3.2678,0.21182 3.625,0.28125 1.33254,-10.10015 16.73511,-51.79801 40.32798,-52.86705 11.03135,-0.49985 16.13291,7.76334 17.3745,10.78722 7.25559,17.67087 7.66729,40.62902 7.76627,50.26733 2.28952,-1.15939 3.73614,-2.726 3.59375,-4.59375 -0.23488,-3.08098 -0.15007,-31.8217 -10.5,-51.125 -1.30944,-1.98951 -1.68325,-3.17935 -2.5625,-4.21875 -0.006,-0.006 0.006,-0.0254 0,-0.0312 -4.38611,-6.44214 -10.27415,-11.27871 -18.1875,-12.78125 -0.34783,-0.066 -0.71593,-0.11115 -1.09375,-0.0937 z m -7.59375,5.15625 c 1.12994,-0.57049 2.3036,-1.11564 3.5,-1.625 l -7.96875,2.21875 c 1.47294,-0.27622 2.97156,-0.46825 4.46875,-0.59375 z m -4.46875,0.59375 c -2.36656,0.4438 -4.67549,1.09153 -6.875,1.9375 z" transform="matrix(0.26458336,0,0,0.26458336,320.08182,94.083721)" id="path25003" inkscape:connector-curvature="0" sodipodi:nodetypes="ccccccsscsccccscccccccc"/>
            <path style="color: rgb(0, 0, 0); fill: rgb(86, 183, 23); fill-opacity: 1; fill-rule: nonzero; stroke: none; stroke-width: 0; marker: none; visibility: visible; display: inline; overflow: visible;" d="m 490.59456,-661.07799 c -36.31109,15.45917 -27.26116,66.01919 -22.91906,66.86329 1.65964,-12.57968 26.55928,-74.77286 60.10929,-50.64202 -4.59209,-11.4678 -21.76024,-22.15588 -37.19023,-16.22127 z" id="path25005" inkscape:connector-curvature="0" transform="matrix(0.26458336,0,0,0.26458336,320.08182,94.083721)" sodipodi:nodetypes="cccc"/>
            <path style="color: rgb(0, 0, 0); fill: rgb(62, 133, 17); fill-opacity: 1; fill-rule: nonzero; stroke: none; stroke-width: 0; marker: none; visibility: visible; display: inline; overflow: visible;" d="m 485.75,-633.25 c -5.84349,5.14609 -13.99265,19.31648 -17.15625,19.84375 -1.49248,0.24875 -3.57141,-0.66274 -5.125,-3.03125 -0.42492,12.13637 2.33705,21.85295 4.21875,22.21875 0.82875,-6.28177 7.46025,-24.93322 18.0625,-39.03125 z" transform="matrix(0.26458336,0,0,0.26458336,320.08182,94.083721)" id="path25007" inkscape:connector-curvature="0"/>
            <path style="color: rgb(0, 0, 0); fill: rgb(90, 218, 7); fill-opacity: 1; fill-rule: nonzero; stroke: none; stroke-width: 0; marker: none; visibility: visible; display: inline; overflow: visible;" d="m 499.375,-662.78125 c -2.92098,0.0484 -5.88813,0.60601 -8.78125,1.71875 -5.87068,2.4994 -10.53916,5.89902 -14.25,9.875 8.0016,-0.69841 14.42262,4.35241 17.75,8.75 9.44909,-8.29765 20.94117,-11.57404 33.6875,-2.40625 -3.73107,-9.31759 -15.74867,-18.14719 -28.40625,-17.9375 z" transform="matrix(0.26458336,0,0,0.26458336,320.08182,94.083721)" id="path25009" inkscape:connector-curvature="0"/>
          </g>
        </g>
        <g id="g25011" transform="matrix(-0.71949394,0.03109309,0.02841104,0.65743124,625.87998,-20.442423)">
          <g transform="matrix(0.93566362,0,0,0.93566362,29.210488,-4.935018)" id="g25013">
            <path sodipodi:nodetypes="csssc" transform="matrix(0.26458336,0,0,0.26458336,320.08182,94.083721)" inkscape:connector-curvature="0" id="path25015" d="m 487.34239,-627.66361 c 5.90714,9.98102 5.2637,34.64241 4.35326,44.71182 -0.95826,10.59828 0.45416,1.21783 9.29533,-11.90354 8.28376,-12.29409 11.79213,-34.98083 2.85727,-41.76061 -8.44226,-6.40599 -18.46418,1.3988 -16.50586,8.95233 z" style="color: rgb(0, 0, 0); fill: rgb(61, 130, 16); fill-opacity: 1; fill-rule: nonzero; stroke: rgb(18, 18, 18); stroke-width: 15.5252; stroke-linejoin: round; stroke-opacity: 1; marker: none; visibility: visible; display: inline; overflow: visible;"/>
            <path style="color: rgb(0, 0, 0); fill: rgb(61, 130, 16); fill-opacity: 1; fill-rule: nonzero; stroke: none; stroke-width: 0; marker: none; visibility: visible; display: inline; overflow: visible;" d="m 487.34239,-627.66361 c 8.11305,13.70825 3.54131,49.37851 3.91665,51.75565 0.83928,5.31544 20.29508,5.76948 21.26178,0.27976 1.89317,-10.75093 -0.83928,-53.71397 -8.67257,-60.98774 -7.83328,-7.27377 -18.46418,1.3988 -16.50586,8.95233 z" id="path25017" inkscape:connector-curvature="0" transform="matrix(0.26458336,0,0,0.26458336,320.08182,94.083721)" sodipodi:nodetypes="csssc"/>
            <path inkscape:connector-curvature="0" id="path25019" transform="matrix(0.26458336,0,0,0.26458336,320.08182,94.083721)" d="m 496.90625,-639.34375 c -5.88643,0.24879 -10.97004,6.2584 -9.5625,11.6875 4.46128,7.53802 5.05945,19.74435 4.78125,29.625 10.53746,-10.41647 15.47349,-8.58522 17.03125,-7.25 1.04684,0.89729 2.66888,7.28683 3.9375,13.0625 -0.11192,-15.15022 -3.12178,-38.71576 -9.25,-44.40625 -2.20311,-2.04575 -4.63411,-2.8161 -6.9375,-2.71875 z" style="color: rgb(0, 0, 0); fill: rgb(53, 113, 14); fill-opacity: 1; fill-rule: nonzero; stroke: none; stroke-width: 0; marker: none; visibility: visible; display: inline; overflow: visible;"/>
          </g>
          <g transform="matrix(0.76312517,0,0,0.93238452,105.90121,-4.4118137)" id="g25021">
            <path style="color: rgb(0, 0, 0); fill: rgb(61, 130, 16); fill-opacity: 1; fill-rule: nonzero; stroke: rgb(18, 18, 18); stroke-width: 15.499; stroke-linecap: round; stroke-linejoin: round; stroke-miterlimit: 4; stroke-opacity: 1; stroke-dasharray: none; stroke-dashoffset: 37.6; marker: none; visibility: visible; display: inline; overflow: visible;" d="m 492.9376,-641.93139 c -21.54154,12.0297 -7.55352,63.78535 -6.15472,65.18415 0.88317,0.88317 0.28781,-4.17167 5.2225,-15.16004 9.56962,-21.30927 -9.01683,-0.36763 -8.09591,-2.52645 1.94186,-4.55209 -0.63853,-31.12767 4.65576,-32.47143 14.49231,-3.67833 33.66744,4.86274 25.6149,-10.42833 -4.41388,-8.38159 -19.28421,-5.9967 -21.24253,-4.5979 z" id="path25023" inkscape:connector-curvature="0" transform="matrix(0.26458336,0,0,0.26458336,320.08182,94.083721)" sodipodi:nodetypes="csssssc"/>
            <path sodipodi:nodetypes="csssc" transform="matrix(0.26458336,0,0,0.26458336,320.08182,94.083721)" inkscape:connector-curvature="0" id="path25025" d="m 492.9376,-641.93139 c -21.54154,12.0297 -7.55353,63.78535 -6.15472,65.18415 1.3988,1.3988 5.76414,-23.5743 16.50585,-39.4462 6.24308,-9.22474 17.34514,-16.2261 9.79161,-22.94034 -7.55353,-6.71425 -18.18442,-4.19641 -20.14274,-2.79761 z" style="color: rgb(0, 0, 0); fill: rgb(86, 183, 23); fill-opacity: 1; fill-rule: nonzero; stroke: none; stroke-width: 0; marker: none; visibility: visible; display: inline; overflow: visible;"/>
            <path id="path25027" transform="matrix(0.3467103,0,0,0.28377064,280.66249,105.63832)" d="m 495.9375,-640.78125 c -2.93552,-0.0326 -5.31528,0.87914 -6.0625,1.53125 -5.86646,4.00271 -8.27687,12.72403 -8.90625,22.34375 1.6691,-9.32843 4.76047,-17.06391 12.25,-17.46875 10.35113,-0.55952 8.9375,8.39139 8.9375,11.46875 0,0.2885 0.0872,0.53011 0.1875,0.75 3.86472,-5.39554 7.01938,-10.00172 2.90625,-14.46875 -2.88214,-3.13013 -6.37698,-4.12364 -9.3125,-4.15625 z" style="color: rgb(0, 0, 0); fill: rgb(90, 218, 7); fill-opacity: 1; fill-rule: nonzero; stroke: none; stroke-width: 0; marker: none; visibility: visible; display: inline; overflow: visible;" inkscape:connector-curvature="0"/>
            <path id="path25029" transform="matrix(0.3467103,0,0,0.28377064,280.66249,105.63832)" d="m 504.40625,-625.15625 c -1.07195,0.70005 -2.42657,1.69968 -4.1875,3.09375 -6.71425,5.31545 -10.35716,17.63245 -12.875,19.03125 -1.64207,0.91226 -4.59946,-1.75823 -6.53125,-5.8125 0.34492,15.00528 3.76201,29.66424 4.34375,30.375 1.06746,1.30422 4.42773,-21.98254 12.625,-36.78125 2.00632,-3.62205 4.64365,-6.88464 6.625,-9.90625 z" style="color: rgb(0, 0, 0); fill: rgb(62, 133, 17); fill-opacity: 1; fill-rule: nonzero; stroke: none; stroke-width: 0; marker: none; visibility: visible; display: inline; overflow: visible;" inkscape:connector-curvature="0"/>
          </g>
        </g>
      </g>
    </g>
  </g>
</svg>