<?xml version="1.0" encoding="UTF-8" standalone="no"?><!-- Created with Inkscape (http://www.inkscape.org/) --><svg xmlns:dc="http://purl.org/dc/elements/1.1/" xmlns:cc="http://creativecommons.org/ns#" xmlns:rdf="http://www.w3.org/1999/02/22-rdf-syntax-ns#" xmlns:svg="http://www.w3.org/2000/svg" xmlns="http://www.w3.org/2000/svg" xmlns:sodipodi="http://sodipodi.sourceforge.net/DTD/sodipodi-0.dtd" xmlns:inkscape="http://www.inkscape.org/namespaces/inkscape" width="78.7575" height="100.22452" viewBox="0 0 20.837919 26.517732" version="1.1" id="svg23489" inkscape:version="0.48.5 r10040" sodipodi:docname="plant_15.svg">
  <defs id="defs23483">
    <clipPath clipPathUnits="userSpaceOnUse" id="clipPath22932">
      <path style="opacity: 0.39823; color: rgb(0, 0, 0); fill: rgb(124, 212, 205); fill-opacity: 1; fill-rule: nonzero; stroke: none; stroke-width: 0; marker: none; visibility: visible; display: inline; overflow: visible;" d="m 544.30169,181.88988 c 0.28587,0.59217 2.59866,1.15837 3.74216,0.1578 0.98015,2.77708 16.86469,0 16.86469,0 l 0,-16.17162 -30.55281,0 0,15.42079 c 0,0 6.65838,3.49263 9.94596,0.59303 z" id="path22934" inkscape:connector-curvature="0" sodipodi:nodetypes="ccccccc"/>
    </clipPath>
    <clipPath clipPathUnits="userSpaceOnUse" id="clipPath22874">
      <path style="opacity: 0.39823; color: rgb(0, 0, 0); fill: rgb(124, 212, 205); fill-opacity: 1; fill-rule: nonzero; stroke: none; stroke-width: 0; marker: none; visibility: visible; display: inline; overflow: visible;" d="m 507.96393,172.04108 c 5.63585,4.14521 4.40861,7.03756 4.24526,7.42553 -0.16336,0.38797 -0.45419,0.84609 -0.55527,0.75946 0,0 -0.23077,1.39392 -0.96715,1.52387 0,0 0.7281,2.05291 -3.23333,2.91054 -3.96143,0.85763 -12.08849,-2.45037 -11.76178,-7.80034 0.32672,-5.34998 9.00511,-7.35111 12.27227,-4.81906 z" id="path22876" inkscape:connector-curvature="0" sodipodi:nodetypes="csccssc"/>
    </clipPath>
    <clipPath clipPathUnits="userSpaceOnUse" id="clipPath22894">
      <path style="opacity: 0.39823; color: rgb(0, 0, 0); fill: rgb(124, 212, 205); fill-opacity: 1; fill-rule: nonzero; stroke: none; stroke-width: 0; marker: none; visibility: visible; display: inline; overflow: visible;" d="m 519.13353,181.84256 c 1.53,1.07862 2.21773,-0.85703 2.00114,-1.06183 0.0817,0.0408 1.9603,0.65343 4.32899,-2.85877 2.36869,-3.51219 0,-9.96483 -8.00455,-11.96597 -8.00454,-2.00113 -11.2717,3.47136 -11.47589,10.16904 -0.2042,6.69767 5.75836,9.27056 9.76064,9.7198 4.00227,0.44923 3.38967,-4.00227 3.38967,-4.00227 z" id="path22896" inkscape:connector-curvature="0" sodipodi:nodetypes="ccssssc"/>
    </clipPath>
    <clipPath clipPathUnits="userSpaceOnUse" id="clipPath23263">
      <path style="opacity: 0.39823; color: rgb(0, 0, 0); fill: rgb(124, 212, 205); fill-opacity: 1; fill-rule: nonzero; stroke: none; stroke-width: 0; marker: none; visibility: visible; display: inline; overflow: visible;" d="m 507.96393,172.04108 c 5.63585,4.14521 4.40861,7.03756 4.24526,7.42553 -0.16336,0.38797 -0.45419,0.84609 -0.55527,0.75946 0,0 -0.23077,1.39392 -0.96715,1.52387 0,0 0.7281,2.05291 -3.23333,2.91054 -3.96143,0.85763 -12.08849,-2.45037 -11.76178,-7.80034 0.32672,-5.34998 9.00511,-7.35111 12.27227,-4.81906 z" id="path23265" inkscape:connector-curvature="0" sodipodi:nodetypes="csccssc"/>
    </clipPath>
    <clipPath clipPathUnits="userSpaceOnUse" id="clipPath22907">
      <path style="opacity: 0.39823; color: rgb(0, 0, 0); fill: rgb(124, 212, 205); fill-opacity: 1; fill-rule: nonzero; stroke: none; stroke-width: 0; marker: none; visibility: visible; display: inline; overflow: visible;" d="m 525.58617,181.98549 c 0.89522,0.98185 2.40724,0.64233 3.04255,0.12252 0.16124,0.72559 12.13955,0.23486 11.90471,0 -0.23482,-0.23483 4.09811,-23.83249 0,-26.19853 -4.09811,-2.36605 -15.11061,0 -21.31822,0 -6.2076,0 -9.48879,8.76153 -8.08444,14.00265 1.40436,5.24112 4.81751,7.15803 7.00687,9.97898 2.18936,2.82095 7.44853,2.09438 7.44853,2.09438 z" id="path22909" inkscape:connector-curvature="0" sodipodi:nodetypes="ccsssssc"/>
    </clipPath>
    <clipPath clipPathUnits="userSpaceOnUse" id="clipPath23269">
      <path style="opacity: 0.39823; color: rgb(0, 0, 0); fill: rgb(124, 212, 205); fill-opacity: 1; fill-rule: nonzero; stroke: none; stroke-width: 0; marker: none; visibility: visible; display: inline; overflow: visible;" d="m 525.58617,181.98549 c 0.89522,0.98185 2.40724,0.64233 3.04255,0.12252 0.16124,0.72559 12.13955,0.23486 11.90471,0 -0.23482,-0.23483 4.09811,-23.83249 0,-26.19853 -4.09811,-2.36605 -15.11061,0 -21.31822,0 -6.2076,0 -9.48879,8.76153 -8.08444,14.00265 1.40436,5.24112 4.81751,7.15803 7.00687,9.97898 2.18936,2.82095 7.44853,2.09438 7.44853,2.09438 z" id="path23271" inkscape:connector-curvature="0" sodipodi:nodetypes="ccsssssc"/>
    </clipPath>
    <clipPath clipPathUnits="userSpaceOnUse" id="clipPath23273">
      <path style="opacity: 0.39823; color: rgb(0, 0, 0); fill: rgb(124, 212, 205); fill-opacity: 1; fill-rule: nonzero; stroke: none; stroke-width: 0; marker: none; visibility: visible; display: inline; overflow: visible;" d="m 507.96393,172.04108 c 5.63585,4.14521 4.40861,7.03756 4.24526,7.42553 -0.16336,0.38797 -0.45419,0.84609 -0.55527,0.75946 0,0 -0.23077,1.39392 -0.96715,1.52387 0,0 0.7281,2.05291 -3.23333,2.91054 -3.96143,0.85763 -12.08849,-2.45037 -11.76178,-7.80034 0.32672,-5.34998 9.00511,-7.35111 12.27227,-4.81906 z" id="path23275" inkscape:connector-curvature="0" sodipodi:nodetypes="csccssc"/>
    </clipPath>
    <clipPath clipPathUnits="userSpaceOnUse" id="clipPath23277">
      <path style="opacity: 0.39823; color: rgb(0, 0, 0); fill: rgb(124, 212, 205); fill-opacity: 1; fill-rule: nonzero; stroke: none; stroke-width: 0; marker: none; visibility: visible; display: inline; overflow: visible;" d="m 519.13353,181.84256 c 1.53,1.07862 2.21773,-0.85703 2.00114,-1.06183 0.0817,0.0408 1.9603,0.65343 4.32899,-2.85877 2.36869,-3.51219 0,-9.96483 -8.00455,-11.96597 -8.00454,-2.00113 -11.2717,3.47136 -11.47589,10.16904 -0.2042,6.69767 5.75836,9.27056 9.76064,9.7198 4.00227,0.44923 3.38967,-4.00227 3.38967,-4.00227 z" id="path23279" inkscape:connector-curvature="0" sodipodi:nodetypes="ccssssc"/>
    </clipPath>
    <clipPath clipPathUnits="userSpaceOnUse" id="clipPath23281">
      <path style="opacity: 0.39823; color: rgb(0, 0, 0); fill: rgb(124, 212, 205); fill-opacity: 1; fill-rule: nonzero; stroke: none; stroke-width: 0; marker: none; visibility: visible; display: inline; overflow: visible;" d="m 525.58617,181.98549 c 0.89522,0.98185 2.40724,0.64233 3.04255,0.12252 0.16124,0.72559 12.13955,0.23486 11.90471,0 -0.23482,-0.23483 4.09811,-23.83249 0,-26.19853 -4.09811,-2.36605 -15.11061,0 -21.31822,0 -6.2076,0 -9.48879,8.76153 -8.08444,14.00265 1.40436,5.24112 4.81751,7.15803 7.00687,9.97898 2.18936,2.82095 7.44853,2.09438 7.44853,2.09438 z" id="path23283" inkscape:connector-curvature="0" sodipodi:nodetypes="ccsssssc"/>
    </clipPath>
    <clipPath clipPathUnits="userSpaceOnUse" id="clipPath23285">
      <path style="opacity: 0.39823; color: rgb(0, 0, 0); fill: rgb(124, 212, 205); fill-opacity: 1; fill-rule: nonzero; stroke: none; stroke-width: 0; marker: none; visibility: visible; display: inline; overflow: visible;" d="m 544.30169,181.88988 c 0.28587,0.59217 2.59866,1.15837 3.74216,0.1578 0.98015,2.77708 16.86469,0 16.86469,0 l 0,-16.17162 -30.55281,0 0,15.42079 c 0,0 6.65838,3.49263 9.94596,0.59303 z" id="path23287" inkscape:connector-curvature="0" sodipodi:nodetypes="ccccccc"/>
    </clipPath>
    <clipPath clipPathUnits="userSpaceOnUse" id="clipPath23289">
      <path style="opacity: 0.39823; color: rgb(0, 0, 0); fill: rgb(124, 212, 205); fill-opacity: 1; fill-rule: nonzero; stroke: none; stroke-width: 0; marker: none; visibility: visible; display: inline; overflow: visible;" d="m 507.96393,172.04108 c 5.63585,4.14521 4.40861,7.03756 4.24526,7.42553 -0.16336,0.38797 -0.45419,0.84609 -0.55527,0.75946 0,0 -0.23077,1.39392 -0.96715,1.52387 0,0 0.7281,2.05291 -3.23333,2.91054 -3.96143,0.85763 -12.08849,-2.45037 -11.76178,-7.80034 0.32672,-5.34998 9.00511,-7.35111 12.27227,-4.81906 z" id="path23291" inkscape:connector-curvature="0" sodipodi:nodetypes="csccssc"/>
    </clipPath>
    <clipPath clipPathUnits="userSpaceOnUse" id="clipPath22919">
      <path style="opacity: 0.39823; color: rgb(0, 0, 0); fill: rgb(124, 212, 205); fill-opacity: 1; fill-rule: nonzero; stroke: none; stroke-width: 0; marker: none; visibility: visible; display: inline; overflow: visible;" d="m 533.24358,180.67863 c -0.16336,1.16393 0.51049,2.00114 2.00114,1.20477 -1.74256,1.5022 -0.71572,1.26164 1.42124,3.05207 2.13697,1.79043 11.4934,0.98185 12.12872,0.5198 0.63531,-0.46205 8.02805,-6.41089 8.0858,-8.66336 0.0578,-2.25248 -1.90593,-15.01651 -5.19801,-17.78878 -3.29208,-2.77228 -16.4604,-0.57756 -19.75248,-0.0578 -3.29208,0.5198 -10.16501,5.71782 -9.93399,5.77558 0.23102,0.0577 2.83003,15.42079 2.77228,15.65181 -0.0578,0.23102 2.42574,4.15842 2.83003,3.92739 0.40429,-0.23102 3.95121,-3.17246 3.95121,-3.17246 0,0 1.59196,0.89865 1.69406,-0.44906 z" id="path22921" inkscape:connector-curvature="0" sodipodi:nodetypes="ccsssssssscc"/>
    </clipPath>
    <clipPath clipPathUnits="userSpaceOnUse" id="clipPath23295">
      <path style="opacity: 0.39823; color: rgb(0, 0, 0); fill: rgb(124, 212, 205); fill-opacity: 1; fill-rule: nonzero; stroke: none; stroke-width: 0; marker: none; visibility: visible; display: inline; overflow: visible;" d="m 525.58617,181.98549 c 0.89522,0.98185 2.40724,0.64233 3.04255,0.12252 0.16124,0.72559 12.13955,0.23486 11.90471,0 -0.23482,-0.23483 4.09811,-23.83249 0,-26.19853 -4.09811,-2.36605 -15.11061,0 -21.31822,0 -6.2076,0 -9.48879,8.76153 -8.08444,14.00265 1.40436,5.24112 4.81751,7.15803 7.00687,9.97898 2.18936,2.82095 7.44853,2.09438 7.44853,2.09438 z" id="path23297" inkscape:connector-curvature="0" sodipodi:nodetypes="ccsssssc"/>
    </clipPath>
    <clipPath clipPathUnits="userSpaceOnUse" id="clipPath23299">
      <path style="opacity: 0.39823; color: rgb(0, 0, 0); fill: rgb(124, 212, 205); fill-opacity: 1; fill-rule: nonzero; stroke: none; stroke-width: 0; marker: none; visibility: visible; display: inline; overflow: visible;" d="m 525.58617,181.98549 c 0.89522,0.98185 2.40724,0.64233 3.04255,0.12252 0.16124,0.72559 12.13955,0.23486 11.90471,0 -0.23482,-0.23483 4.09811,-23.83249 0,-26.19853 -4.09811,-2.36605 -15.11061,0 -21.31822,0 -6.2076,0 -9.48879,8.76153 -8.08444,14.00265 1.40436,5.24112 4.81751,7.15803 7.00687,9.97898 2.18936,2.82095 7.44853,2.09438 7.44853,2.09438 z" id="path23301" inkscape:connector-curvature="0" sodipodi:nodetypes="ccsssssc"/>
    </clipPath>
  </defs>
  <sodipodi:namedview id="base" pagecolor="#7d848b" bordercolor="#666666" borderopacity="1.0" inkscape:pageopacity="0" inkscape:pageshadow="2" inkscape:zoom="1.7872445" inkscape:cx="-68.876506" inkscape:cy="42.518229" inkscape:document-units="px" inkscape:current-layer="layer1" showgrid="false" inkscape:pagecheckerboard="false" showborder="true" units="px" inkscape:window-width="1920" inkscape:window-height="1017" inkscape:window-x="-8" inkscape:window-y="-8" inkscape:window-maximized="1" inkscape:showpageshadow="false" guidetolerance="28" fit-margin-top="8" fit-margin-left="8" fit-margin-right="8" fit-margin-bottom="8">
    <inkscape:grid type="xygrid" id="grid24034" spacingx="1px" spacingy="1px" empspacing="8" visible="true" enabled="true" snapvisiblegridlinesonly="true" originx="-240.22907px" originy="490.37939px"/>
  </sodipodi:namedview>
  <metadata id="metadata23486">
    <rdf:RDF>
      <cc:Work rdf:about="">
        <dc:format>image/svg+xml</dc:format>
        <dc:type rdf:resource="http://purl.org/dc/dcmitype/StillImage"/>
        <dc:title/>
        <cc:license rdf:resource=""/>
        <dc:creator>
          <cc:Agent>
            <dc:title>Robert Brooks</dc:title>
          </cc:Agent>
        </dc:creator>
      </cc:Work>
    </rdf:RDF>
  </metadata>
  <g inkscape:label="Layer 1" inkscape:groupmode="layer" id="layer1" transform="translate(-63.560589,-400.22843)">
    <g id="g4091" transform="translate(-2.3686367,3.1088356)">
      <path gds_switchable="shadow" gds_opacity="shadow" inkscape:connector-curvature="0" gds_color="shadow" id="path4086" d="m -436.42602,71.414085 c 0,10.042977 -17.0344,18.184418 -38.0474,18.184418 -21.013,0 -38.0474,-8.141441 -38.0474,-18.184418 0,-10.042976 17.0344,-18.184417 38.0474,-18.184417 21.013,0 38.0474,8.141441 38.0474,18.184417 z" style="opacity: 0.25; color: rgb(0, 0, 0); fill: rgb(0, 0, 0); fill-opacity: 1; fill-rule: nonzero; stroke: none; stroke-width: 0; marker: none; visibility: visible; display: inline; overflow: visible;" transform="matrix(0.16536457,0,0,0.22657801,154.44336,401.21961)"/>
      <g transform="translate(24.199697,457.72012)" id="g10012">
        <g transform="matrix(-0.70122138,0.09620406,0.06773978,0.49374821,98.69323,100.52025)" id="g9952">
          <path inkscape:connector-curvature="0" id="path9954" d="m 39.214552,-294.61572 c 1.007227,-1.45609 2.565778,4.19328 4.063165,-1.27187 2.392328,-8.73151 -0.749632,-19.78993 0.558405,-27.63836 0.466233,-2.79747 0.906325,-4.98972 0.160339,-4.61673 -0.746003,0.373 -2.517739,5.3152 -2.797469,10.2574 -0.279754,4.94221 0.20937,15.89955 -0.220793,18.55628 -0.585673,3.61716 -1.936879,4.76738 -3.955874,6.47864 0.578965,0.15101 -2.263623,-4.50965 2.192227,-1.76536 z" style="color: rgb(0, 0, 0); fill: rgb(104, 206, 198); fill-opacity: 1; fill-rule: nonzero; stroke: rgb(20, 20, 20); stroke-width: 4.30231; stroke-linecap: round; stroke-linejoin: round; stroke-miterlimit: 4; stroke-opacity: 1; stroke-dasharray: none; stroke-dashoffset: 37.6; marker: none; visibility: visible; display: inline; overflow: visible;" sodipodi:nodetypes="cssssscc"/>
          <path sodipodi:nodetypes="csssscc" style="color: rgb(0, 0, 0); fill: rgb(61, 189, 178); fill-opacity: 1; fill-rule: nonzero; stroke: none; stroke-width: 0; marker: none; visibility: visible; display: inline; overflow: visible;" d="m 40.956839,-289.59471 c 6.434177,-11.00339 1.323496,-24.59627 2.879283,-33.93124 0.466234,-2.79747 0.906325,-4.98972 0.160339,-4.61673 -0.746003,0.373 -2.517739,5.3152 -2.797469,10.2574 -0.279754,4.94221 0.20937,15.89955 -0.220793,18.55628 -0.585673,3.61716 -1.936879,8.17674 -3.955874,9.888 0.932505,0.83924 1.922143,1.85866 3.934514,-0.15371 z" id="path9956" inkscape:connector-curvature="0"/>
          <path style="color: rgb(0, 0, 0); fill: rgb(77, 197, 187); fill-opacity: 1; fill-rule: nonzero; stroke: none; stroke-width: 0; marker: none; visibility: visible; display: inline; overflow: visible;" d="m -1043,-1595.9688 c -0.1423,0.014 -0.2925,0.068 -0.4688,0.1563 -1.4512,0.7256 -3.9171,6.0412 -6.125,13.5625 0.686,-0.7201 1.3436,-0.871 1.9376,0.062 2.5098,3.9439 -1.0572,6.8464 0.5265,39.7942 2.4805,51.6064 2.0185,79.2359 -19.9641,95.1745 2.8954,2.0653 6.4207,2.7982 12.125,-2.9062 24.3182,-41.5876 4.9949,-92.9682 10.875,-128.25 1.6521,-9.9123 3.2278,-17.8063 1.0938,-17.5938 z" transform="matrix(0.26458336,0,0,0.26458336,320.08182,94.083721)" id="path9958" inkscape:connector-curvature="0" sodipodi:nodetypes="ccccsccccc"/>
        </g>
        <g id="g10001" transform="matrix(0.70122138,0.09620406,-0.06773978,0.49374821,5.6037471,100.38609)">
          <path sodipodi:nodetypes="cssssscc" style="color: rgb(0, 0, 0); fill: rgb(104, 206, 198); fill-opacity: 1; fill-rule: nonzero; stroke: rgb(20, 20, 20); stroke-width: 4.30231; stroke-linecap: round; stroke-linejoin: round; stroke-miterlimit: 4; stroke-opacity: 1; stroke-dasharray: none; stroke-dashoffset: 37.6; marker: none; visibility: visible; display: inline; overflow: visible;" d="m 38.613175,-295.93953 c 1.007227,-1.45609 3.977415,2.34334 4.809067,-0.55261 2.491395,-8.67545 -0.894157,-19.18538 0.41388,-27.03381 0.466233,-2.79747 0.906325,-4.98972 0.160339,-4.61673 -0.746003,0.373 -2.517739,5.3152 -2.797469,10.2574 -0.279754,4.94221 0.20937,15.89955 -0.220793,18.55628 -0.585673,3.61716 -1.936879,4.76738 -3.955874,6.47864 0.932505,0.83924 -0.421521,-1.0768 1.59085,-3.08917 z" id="path10003" inkscape:connector-curvature="0"/>
          <path inkscape:connector-curvature="0" id="path10005" d="m 40.956839,-289.59471 c 6.434177,-11.00339 1.323496,-24.59627 2.879283,-33.93124 0.466234,-2.79747 0.906325,-4.98972 0.160339,-4.61673 -0.746003,0.373 -2.517739,5.3152 -2.797469,10.2574 -0.279754,4.94221 0.20937,15.89955 -0.220793,18.55628 -0.585673,3.61716 -1.936879,8.17674 -3.955874,9.888 0.932505,0.83924 1.922143,1.85866 3.934514,-0.15371 z" style="color: rgb(0, 0, 0); fill: rgb(61, 189, 178); fill-opacity: 1; fill-rule: nonzero; stroke: none; stroke-width: 0; marker: none; visibility: visible; display: inline; overflow: visible;" sodipodi:nodetypes="csssscc"/>
          <path sodipodi:nodetypes="ccccsccccc" inkscape:connector-curvature="0" id="path10007" transform="matrix(0.26458336,0,0,0.26458336,320.08182,94.083721)" d="m -1043,-1595.9688 c -0.1423,0.014 -0.2925,0.068 -0.4688,0.1563 -1.4512,0.7256 -3.9171,6.0412 -6.125,13.5625 0.686,-0.7201 1.3436,-0.871 1.9376,0.062 2.5098,3.9439 -1.0572,6.8464 0.5265,39.7942 2.4805,51.6064 2.0185,79.2359 -19.9641,95.1745 2.8954,2.0653 6.4207,2.7982 12.125,-2.9062 24.3182,-41.5876 4.9949,-92.9682 10.875,-128.25 1.6521,-9.9123 3.2278,-17.8063 1.0938,-17.5938 z" style="color: rgb(0, 0, 0); fill: rgb(77, 197, 187); fill-opacity: 1; fill-rule: nonzero; stroke: none; stroke-width: 0; marker: none; visibility: visible; display: inline; overflow: visible;"/>
        </g>
        <g transform="matrix(0.65912626,-0.0220756,0.0220756,0.65912626,52.447673,-14.928909)" id="g9968">
          <path style="color: rgb(0, 0, 0); fill: rgb(104, 206, 198); fill-opacity: 1; fill-rule: nonzero; stroke: rgb(20, 20, 20); stroke-width: 8; stroke-linecap: round; stroke-linejoin: round; stroke-miterlimit: 4; stroke-opacity: 1; stroke-dasharray: none; stroke-dashoffset: 37.6; marker: none; visibility: visible; display: inline; overflow: visible;" d="m -1017.0938,-573.71875 c -0.1663,-0.0288 -0.3011,0.0795 -0.4062,0.3125 -0.841,1.86434 0.5844,6.50438 0.5312,16.09375 -1.2017,6.21113 -2.1205,19.59239 -2.25,30.8125 -0.4396,8.51626 -0.5068,11.69798 0.5,18.05938 0.4605,5.54993 4.93,-23.82944 11.8636,-3.31244 0.7187,-8.47157 0.2173,-5.19285 -0.676,-15.40324 0,-0.0509 0,-0.1052 0,-0.15625 -0.062,-0.72663 -0.1095,-1.47291 -0.1563,-2.25 -6e-4,-0.0102 6e-4,-0.021 0,-0.0312 -0.047,-0.78858 -0.097,-1.62258 -0.125,-2.46875 -0.286,-8.63257 -2.2073,-19.98473 -4.0313,-28.09375 -1.596,-7.0954 -4.0853,-13.3608 -5.25,-13.5625 z" transform="matrix(0.40096551,0.01342922,-0.01342922,0.40096551,399.98839,180.80104)" id="path9970" inkscape:connector-curvature="0" sodipodi:nodetypes="cccccccccccsc"/>
          <path style="color: rgb(0, 0, 0); fill: rgb(61, 189, 178); fill-opacity: 1; fill-rule: nonzero; stroke: none; stroke-width: 0; marker: none; visibility: visible; display: inline; overflow: visible;" d="m -1.7233495,-34.588054 c -0.8040558,-6.478179 1.30325718,-18.47472 1.43018783,-21.72566 0.15009776,-3.844292 -0.36863731,-5.728881 -0.006372,-6.465121 0.36224378,-0.736223 1.47562447,2.110802 2.09809637,5.38674 0.6224553,3.27593 1.2414197,7.858302 1.2401674,11.323505 -0.00197,5.434589 1.1652346,7.802674 0.7034703,11.693934 -0.033446,1.693775 -5.3554201,2.018116 -5.4655276,-0.213398 z" id="path9972" inkscape:connector-curvature="0" sodipodi:nodetypes="cssssccc"/>
          <path inkscape:connector-curvature="0" id="path9974" d="m 2.827198,-50.136322 c -0.1163615,1.210151 -0.2489357,2.688801 -0.3186985,4.188472 -0.1492448,3.208671 1.4201468,9.772489 -1.78854497,8.578551 -2.15542393,-0.802022 -2.49170873,-2.72106 -2.41293423,-5.632323 -0.2332849,3.075098 -0.3199888,6.099788 -0.032509,8.415966 0.110097,2.231514 5.4362719,1.901889 5.4697172,0.208123 0.4617621,-3.891252 -0.7043708,-6.259315 -0.7024145,-11.693901 0,-1.247717 -0.083041,-2.64062 -0.2146162,-4.064888 z" style="color: rgb(0, 0, 0); fill: rgb(53, 162, 153); fill-opacity: 1; fill-rule: nonzero; stroke: none; stroke-width: 0; marker: none; visibility: visible; display: inline; overflow: visible;"/>
          <path sodipodi:nodetypes="ccccsccsc" inkscape:connector-curvature="0" id="path9976" d="m -0.1775959,-62.896872 c -0.04612,0.0087 -0.0895969,0.04806 -0.12356251,0.117089 -0.36225856,0.736235 0.1565916,2.620516 0.006452,6.464794 -0.0797943,2.043371 -0.94248409,7.544078 -1.37232019,12.955645 0.73652581,-3.742069 1.72496347,-7.134241 1.78617239,-9.826601 0.074612,-3.283304 0.30223595,-5.450217 0.60074649,-5.151727 0.20866393,0.208664 1.30875952,4.310494 1.96413822,6.809508 -0.2353869,-2.081082 -0.5589971,-4.153299 -0.8845219,-5.866441 -0.5640961,-2.96883 -1.53113875,-5.585704 -1.97716675,-5.502267 z" style="color: rgb(0, 0, 0); fill: rgb(77, 197, 187); fill-opacity: 1; fill-rule: nonzero; stroke: none; stroke-width: 0; marker: none; visibility: visible; display: inline; overflow: visible;"/>
        </g>
      </g>
    </g>
  </g>
</svg>