<?xml version="1.0" encoding="UTF-8" standalone="no"?><!-- Created with Inkscape (http://www.inkscape.org/) --><svg xmlns:dc="http://purl.org/dc/elements/1.1/" xmlns:cc="http://creativecommons.org/ns#" xmlns:rdf="http://www.w3.org/1999/02/22-rdf-syntax-ns#" xmlns:svg="http://www.w3.org/2000/svg" xmlns="http://www.w3.org/2000/svg" xmlns:sodipodi="http://sodipodi.sourceforge.net/DTD/sodipodi-0.dtd" xmlns:inkscape="http://www.inkscape.org/namespaces/inkscape" width="115.89837" height="112.32182" viewBox="0 0 30.664775 29.718478" version="1.1" id="svg23489" inkscape:version="0.48.5 r10040" sodipodi:docname="plant_06.svg">
  <defs id="defs23483">
    <clipPath clipPathUnits="userSpaceOnUse" id="clipPath22932">
      <path style="opacity: 0.39823; color: rgb(0, 0, 0); fill: rgb(111, 225, 196); fill-opacity: 1; fill-rule: nonzero; stroke: none; stroke-width: 0; marker: none; visibility: visible; display: inline; overflow: visible;" d="m 544.30169,181.88988 c 0.28587,0.59217 2.59866,1.15837 3.74216,0.1578 0.98015,2.77708 16.86469,0 16.86469,0 l 0,-16.17162 -30.55281,0 0,15.42079 c 0,0 6.65838,3.49263 9.94596,0.59303 z" id="path22934" inkscape:connector-curvature="0" sodipodi:nodetypes="ccccccc"/>
    </clipPath>
    <clipPath clipPathUnits="userSpaceOnUse" id="clipPath22874">
      <path style="opacity: 0.39823; color: rgb(0, 0, 0); fill: rgb(111, 225, 196); fill-opacity: 1; fill-rule: nonzero; stroke: none; stroke-width: 0; marker: none; visibility: visible; display: inline; overflow: visible;" d="m 507.96393,172.04108 c 5.63585,4.14521 4.40861,7.03756 4.24526,7.42553 -0.16336,0.38797 -0.45419,0.84609 -0.55527,0.75946 0,0 -0.23077,1.39392 -0.96715,1.52387 0,0 0.7281,2.05291 -3.23333,2.91054 -3.96143,0.85763 -12.08849,-2.45037 -11.76178,-7.80034 0.32672,-5.34998 9.00511,-7.35111 12.27227,-4.81906 z" id="path22876" inkscape:connector-curvature="0" sodipodi:nodetypes="csccssc"/>
    </clipPath>
    <clipPath clipPathUnits="userSpaceOnUse" id="clipPath22894">
      <path style="opacity: 0.39823; color: rgb(0, 0, 0); fill: rgb(111, 225, 196); fill-opacity: 1; fill-rule: nonzero; stroke: none; stroke-width: 0; marker: none; visibility: visible; display: inline; overflow: visible;" d="m 519.13353,181.84256 c 1.53,1.07862 2.21773,-0.85703 2.00114,-1.06183 0.0817,0.0408 1.9603,0.65343 4.32899,-2.85877 2.36869,-3.51219 0,-9.96483 -8.00455,-11.96597 -8.00454,-2.00113 -11.2717,3.47136 -11.47589,10.16904 -0.2042,6.69767 5.75836,9.27056 9.76064,9.7198 4.00227,0.44923 3.38967,-4.00227 3.38967,-4.00227 z" id="path22896" inkscape:connector-curvature="0" sodipodi:nodetypes="ccssssc"/>
    </clipPath>
    <clipPath clipPathUnits="userSpaceOnUse" id="clipPath23263">
      <path style="opacity: 0.39823; color: rgb(0, 0, 0); fill: rgb(111, 225, 196); fill-opacity: 1; fill-rule: nonzero; stroke: none; stroke-width: 0; marker: none; visibility: visible; display: inline; overflow: visible;" d="m 507.96393,172.04108 c 5.63585,4.14521 4.40861,7.03756 4.24526,7.42553 -0.16336,0.38797 -0.45419,0.84609 -0.55527,0.75946 0,0 -0.23077,1.39392 -0.96715,1.52387 0,0 0.7281,2.05291 -3.23333,2.91054 -3.96143,0.85763 -12.08849,-2.45037 -11.76178,-7.80034 0.32672,-5.34998 9.00511,-7.35111 12.27227,-4.81906 z" id="path23265" inkscape:connector-curvature="0" sodipodi:nodetypes="csccssc"/>
    </clipPath>
    <clipPath clipPathUnits="userSpaceOnUse" id="clipPath22907">
      <path style="opacity: 0.39823; color: rgb(0, 0, 0); fill: rgb(111, 225, 196); fill-opacity: 1; fill-rule: nonzero; stroke: none; stroke-width: 0; marker: none; visibility: visible; display: inline; overflow: visible;" d="m 525.58617,181.98549 c 0.89522,0.98185 2.40724,0.64233 3.04255,0.12252 0.16124,0.72559 12.13955,0.23486 11.90471,0 -0.23482,-0.23483 4.09811,-23.83249 0,-26.19853 -4.09811,-2.36605 -15.11061,0 -21.31822,0 -6.2076,0 -9.48879,8.76153 -8.08444,14.00265 1.40436,5.24112 4.81751,7.15803 7.00687,9.97898 2.18936,2.82095 7.44853,2.09438 7.44853,2.09438 z" id="path22909" inkscape:connector-curvature="0" sodipodi:nodetypes="ccsssssc"/>
    </clipPath>
    <clipPath clipPathUnits="userSpaceOnUse" id="clipPath23269">
      <path style="opacity: 0.39823; color: rgb(0, 0, 0); fill: rgb(111, 225, 196); fill-opacity: 1; fill-rule: nonzero; stroke: none; stroke-width: 0; marker: none; visibility: visible; display: inline; overflow: visible;" d="m 525.58617,181.98549 c 0.89522,0.98185 2.40724,0.64233 3.04255,0.12252 0.16124,0.72559 12.13955,0.23486 11.90471,0 -0.23482,-0.23483 4.09811,-23.83249 0,-26.19853 -4.09811,-2.36605 -15.11061,0 -21.31822,0 -6.2076,0 -9.48879,8.76153 -8.08444,14.00265 1.40436,5.24112 4.81751,7.15803 7.00687,9.97898 2.18936,2.82095 7.44853,2.09438 7.44853,2.09438 z" id="path23271" inkscape:connector-curvature="0" sodipodi:nodetypes="ccsssssc"/>
    </clipPath>
    <clipPath clipPathUnits="userSpaceOnUse" id="clipPath23273">
      <path style="opacity: 0.39823; color: rgb(0, 0, 0); fill: rgb(111, 225, 196); fill-opacity: 1; fill-rule: nonzero; stroke: none; stroke-width: 0; marker: none; visibility: visible; display: inline; overflow: visible;" d="m 507.96393,172.04108 c 5.63585,4.14521 4.40861,7.03756 4.24526,7.42553 -0.16336,0.38797 -0.45419,0.84609 -0.55527,0.75946 0,0 -0.23077,1.39392 -0.96715,1.52387 0,0 0.7281,2.05291 -3.23333,2.91054 -3.96143,0.85763 -12.08849,-2.45037 -11.76178,-7.80034 0.32672,-5.34998 9.00511,-7.35111 12.27227,-4.81906 z" id="path23275" inkscape:connector-curvature="0" sodipodi:nodetypes="csccssc"/>
    </clipPath>
    <clipPath clipPathUnits="userSpaceOnUse" id="clipPath23277">
      <path style="opacity: 0.39823; color: rgb(0, 0, 0); fill: rgb(111, 225, 196); fill-opacity: 1; fill-rule: nonzero; stroke: none; stroke-width: 0; marker: none; visibility: visible; display: inline; overflow: visible;" d="m 519.13353,181.84256 c 1.53,1.07862 2.21773,-0.85703 2.00114,-1.06183 0.0817,0.0408 1.9603,0.65343 4.32899,-2.85877 2.36869,-3.51219 0,-9.96483 -8.00455,-11.96597 -8.00454,-2.00113 -11.2717,3.47136 -11.47589,10.16904 -0.2042,6.69767 5.75836,9.27056 9.76064,9.7198 4.00227,0.44923 3.38967,-4.00227 3.38967,-4.00227 z" id="path23279" inkscape:connector-curvature="0" sodipodi:nodetypes="ccssssc"/>
    </clipPath>
    <clipPath clipPathUnits="userSpaceOnUse" id="clipPath23281">
      <path style="opacity: 0.39823; color: rgb(0, 0, 0); fill: rgb(111, 225, 196); fill-opacity: 1; fill-rule: nonzero; stroke: none; stroke-width: 0; marker: none; visibility: visible; display: inline; overflow: visible;" d="m 525.58617,181.98549 c 0.89522,0.98185 2.40724,0.64233 3.04255,0.12252 0.16124,0.72559 12.13955,0.23486 11.90471,0 -0.23482,-0.23483 4.09811,-23.83249 0,-26.19853 -4.09811,-2.36605 -15.11061,0 -21.31822,0 -6.2076,0 -9.48879,8.76153 -8.08444,14.00265 1.40436,5.24112 4.81751,7.15803 7.00687,9.97898 2.18936,2.82095 7.44853,2.09438 7.44853,2.09438 z" id="path23283" inkscape:connector-curvature="0" sodipodi:nodetypes="ccsssssc"/>
    </clipPath>
    <clipPath clipPathUnits="userSpaceOnUse" id="clipPath23285">
      <path style="opacity: 0.39823; color: rgb(0, 0, 0); fill: rgb(111, 225, 196); fill-opacity: 1; fill-rule: nonzero; stroke: none; stroke-width: 0; marker: none; visibility: visible; display: inline; overflow: visible;" d="m 544.30169,181.88988 c 0.28587,0.59217 2.59866,1.15837 3.74216,0.1578 0.98015,2.77708 16.86469,0 16.86469,0 l 0,-16.17162 -30.55281,0 0,15.42079 c 0,0 6.65838,3.49263 9.94596,0.59303 z" id="path23287" inkscape:connector-curvature="0" sodipodi:nodetypes="ccccccc"/>
    </clipPath>
    <clipPath clipPathUnits="userSpaceOnUse" id="clipPath23289">
      <path style="opacity: 0.39823; color: rgb(0, 0, 0); fill: rgb(111, 225, 196); fill-opacity: 1; fill-rule: nonzero; stroke: none; stroke-width: 0; marker: none; visibility: visible; display: inline; overflow: visible;" d="m 507.96393,172.04108 c 5.63585,4.14521 4.40861,7.03756 4.24526,7.42553 -0.16336,0.38797 -0.45419,0.84609 -0.55527,0.75946 0,0 -0.23077,1.39392 -0.96715,1.52387 0,0 0.7281,2.05291 -3.23333,2.91054 -3.96143,0.85763 -12.08849,-2.45037 -11.76178,-7.80034 0.32672,-5.34998 9.00511,-7.35111 12.27227,-4.81906 z" id="path23291" inkscape:connector-curvature="0" sodipodi:nodetypes="csccssc"/>
    </clipPath>
    <clipPath clipPathUnits="userSpaceOnUse" id="clipPath22919">
      <path style="opacity: 0.39823; color: rgb(0, 0, 0); fill: rgb(111, 225, 196); fill-opacity: 1; fill-rule: nonzero; stroke: none; stroke-width: 0; marker: none; visibility: visible; display: inline; overflow: visible;" d="m 533.24358,180.67863 c -0.16336,1.16393 0.51049,2.00114 2.00114,1.20477 -1.74256,1.5022 -0.71572,1.26164 1.42124,3.05207 2.13697,1.79043 11.4934,0.98185 12.12872,0.5198 0.63531,-0.46205 8.02805,-6.41089 8.0858,-8.66336 0.0578,-2.25248 -1.90593,-15.01651 -5.19801,-17.78878 -3.29208,-2.77228 -16.4604,-0.57756 -19.75248,-0.0578 -3.29208,0.5198 -10.16501,5.71782 -9.93399,5.77558 0.23102,0.0577 2.83003,15.42079 2.77228,15.65181 -0.0578,0.23102 2.42574,4.15842 2.83003,3.92739 0.40429,-0.23102 3.95121,-3.17246 3.95121,-3.17246 0,0 1.59196,0.89865 1.69406,-0.44906 z" id="path22921" inkscape:connector-curvature="0" sodipodi:nodetypes="ccsssssssscc"/>
    </clipPath>
    <clipPath clipPathUnits="userSpaceOnUse" id="clipPath23295">
      <path style="opacity: 0.39823; color: rgb(0, 0, 0); fill: rgb(111, 225, 196); fill-opacity: 1; fill-rule: nonzero; stroke: none; stroke-width: 0; marker: none; visibility: visible; display: inline; overflow: visible;" d="m 525.58617,181.98549 c 0.89522,0.98185 2.40724,0.64233 3.04255,0.12252 0.16124,0.72559 12.13955,0.23486 11.90471,0 -0.23482,-0.23483 4.09811,-23.83249 0,-26.19853 -4.09811,-2.36605 -15.11061,0 -21.31822,0 -6.2076,0 -9.48879,8.76153 -8.08444,14.00265 1.40436,5.24112 4.81751,7.15803 7.00687,9.97898 2.18936,2.82095 7.44853,2.09438 7.44853,2.09438 z" id="path23297" inkscape:connector-curvature="0" sodipodi:nodetypes="ccsssssc"/>
    </clipPath>
    <clipPath clipPathUnits="userSpaceOnUse" id="clipPath23299">
      <path style="opacity: 0.39823; color: rgb(0, 0, 0); fill: rgb(111, 225, 196); fill-opacity: 1; fill-rule: nonzero; stroke: none; stroke-width: 0; marker: none; visibility: visible; display: inline; overflow: visible;" d="m 525.58617,181.98549 c 0.89522,0.98185 2.40724,0.64233 3.04255,0.12252 0.16124,0.72559 12.13955,0.23486 11.90471,0 -0.23482,-0.23483 4.09811,-23.83249 0,-26.19853 -4.09811,-2.36605 -15.11061,0 -21.31822,0 -6.2076,0 -9.48879,8.76153 -8.08444,14.00265 1.40436,5.24112 4.81751,7.15803 7.00687,9.97898 2.18936,2.82095 7.44853,2.09438 7.44853,2.09438 z" id="path23301" inkscape:connector-curvature="0" sodipodi:nodetypes="ccsssssc"/>
    </clipPath>
  </defs>
  <sodipodi:namedview id="base" pagecolor="#7d848b" bordercolor="#666666" borderopacity="1.0" inkscape:pageopacity="0" inkscape:pageshadow="2" inkscape:zoom="3.5744889" inkscape:cx="86.379327" inkscape:cy="33.822727" inkscape:document-units="px" inkscape:current-layer="layer1" showgrid="false" inkscape:pagecheckerboard="false" showborder="true" units="px" inkscape:window-width="1920" inkscape:window-height="1017" inkscape:window-x="-8" inkscape:window-y="-8" inkscape:window-maximized="1" inkscape:showpageshadow="false" guidetolerance="28" fit-margin-top="8" fit-margin-left="8" fit-margin-right="8" fit-margin-bottom="8">
    <inkscape:grid type="xygrid" id="grid24034" spacingx="1px" spacingy="1px" empspacing="8" visible="true" enabled="true" snapvisiblegridlinesonly="true" originx="206.33864px" originy="429.02568px"/>
  </sodipodi:namedview>
  <metadata id="metadata23486">
    <rdf:RDF>
      <cc:Work rdf:about="">
        <dc:format>image/svg+xml</dc:format>
        <dc:type rdf:resource="http://purl.org/dc/dcmitype/StillImage"/>
        <dc:title/>
        <cc:license rdf:resource=""/>
        <dc:creator>
          <cc:Agent>
            <dc:title>Robert Brooks</dc:title>
          </cc:Agent>
        </dc:creator>
      </cc:Work>
    </rdf:RDF>
  </metadata>
  <g inkscape:label="Layer 1" inkscape:groupmode="layer" id="layer1" transform="translate(54.593757,-380.79453)">
    <g id="g23460" transform="translate(-41.81964,12.741921)">
      <g transform="translate(-481.38485,714.99438)" id="g19041">
        <path inkscape:connector-curvature="0" style="opacity: 0.25; color: rgb(0, 0, 0); fill: rgb(0, 0, 0); fill-opacity: 1; fill-rule: nonzero; stroke: none; stroke-width: 0; marker: none; visibility: visible; display: inline; overflow: visible;" d="m 585.5625,-1599.7812 c -1.43486,-0.055 -2.67709,0.01 -3.65625,0.2187 -6.68993,1.4336 7.88791,9.4179 26.5625,19.0313 -17.23888,-0.4548 -33.28125,8.4062 -33.28125,8.4062 0,0 7.84832,5.5938 26.3125,5.5938 7.65396,0 13.45745,-2.0389 17.21875,-4.5626 11.80239,9.9583 39.84375,8.4688 39.84375,8.4688 0,0 -2.10183,-10.4086 -12.84375,-15.375 10.44106,-4.8211 13.40625,-13.7188 13.40625,-13.7188 0,0 -16.68693,-6.8717 -38.09375,6.9376 -0.17118,-0.2607 -0.32967,-0.5064 -0.53125,-0.7813 -5.38539,-7.3437 -24.89345,-13.8363 -34.9375,-14.2187 z" transform="matrix(0.26458336,0,0,0.26458336,320.08182,94.083721)" id="path19032" gds_color="shadow"/>
        <g id="g18995">
          <g id="g18949">
            <g id="g18945" transform="matrix(0.85270987,0,0,0.85270987,35.903557,-106.63038)">
              <path style="color: rgb(0, 0, 0); fill: rgb(42, 208, 166); fill-opacity: 1; fill-rule: nonzero; stroke: rgb(3, 15, 12); stroke-width: 11.7273; stroke-linejoin: round; stroke-opacity: 1; marker: none; visibility: visible; display: inline; overflow: visible; stroke-miterlimit: 4; stroke-dasharray: none;" d="m 772.14418,-1369.0341 c -1.18693,12.8081 -4.48199,41.2537 -2.80343,45.1703 0,5.698 11.67628,5.3161 13.10073,0 -0.53139,-21.065 -0.72921,-29.7404 -2.69578,-46.3117 -1.16653,-9.8299 -7.4037,-4.7933 -7.60152,1.1414 z" id="path18943" inkscape:connector-curvature="0" transform="matrix(0.26458336,0,0,0.26458336,320.08182,94.083721)" sodipodi:nodetypes="cccsc"/>
              <path sodipodi:nodetypes="cccsc" transform="matrix(0.26458336,0,0,0.26458336,320.08182,94.083721)" inkscape:connector-curvature="0" id="path18941" d="m 772.14418,-1369.0341 c -1.18693,12.8081 -4.48199,49.6053 -2.80343,53.5219 0,5.698 11.67628,5.3161 13.10073,0 -0.53139,-21.065 -0.72921,-38.092 -2.69578,-54.6633 -1.16653,-9.8299 -7.4037,-4.7933 -7.60152,1.1414 z" style="color: rgb(0, 0, 0); fill: rgb(82, 219, 185); fill-opacity: 1; fill-rule: nonzero; stroke: none; stroke-width: 0; marker: none; visibility: visible; display: inline; overflow: visible;"/>
              <path inkscape:connector-curvature="0" style="opacity: 0.597345; color: rgb(0, 0, 0); fill: rgb(23, 113, 91); fill-opacity: 1; fill-rule: nonzero; stroke: none; stroke-width: 0; marker: none; visibility: visible; display: inline; overflow: visible;" d="m 619.40625,-1628.4688 c -1.66765,0.2421 -3.37387,2.841 -3.46875,5.6876 -0.57752,6.232 -1.71755,19.0505 -2.34375,29.5937 3.2967,-0.9849 5.59375,-3.5937 5.59375,-3.5937 l 1.78125,3.1874 c 0,0 0.79099,13.8239 -0.59375,16 -0.71592,1.1251 -3.7127,1.5936 -6.625,1.5626 1.40571,3.6645 9.85564,3.0604 10.96875,-1.0938 -0.45312,-17.9623 -0.63559,-32.4945 -2.3125,-46.625 -0.43519,-3.6671 -1.70294,-4.907 -3,-4.7188 z" transform="matrix(0.31028532,0,0,0.31028532,333.26489,235.38381)" id="path19029"/>
            </g>
            <g id="g18919" transform="matrix(-0.69094232,0.211728,0.211728,0.69094232,941.70872,-265.94202)">
              <path id="path18921" transform="matrix(0.26458336,0,0,0.26458336,320.08182,94.083721)" d="m 995.75,-1452.0938 c -8.03656,0.06 -17.26709,1.9236 -25.625,8.0313 -0.73616,0.7362 -1.59486,1.8723 -2.25,3.25 -2.70565,2.9265 -2.43007,17.7787 7.78125,24.0625 10.28659,6.3303 21.74166,2.756 26.09375,-6.3438 4.352,-9.0997 15.4375,-20.1562 15.4375,-20.1562 l -0.5313,-5.6875 c -1.0734,-0.3346 -2.588,-0.6336 -4.375,-0.9063 -0.038,-0.01 -0.087,-0.021 -0.125,-0.031 -3.7943,-1.0471 -9.6736,-2.2687 -16.4062,-2.2188 z" style="color: rgb(0, 0, 0); fill: rgb(23, 113, 91); fill-opacity: 1; fill-rule: nonzero; stroke: rgb(3, 15, 12); stroke-width: 13.8379; stroke-linejoin: round; stroke-miterlimit: 4; stroke-opacity: 1; stroke-dasharray: none; marker: none; visibility: visible; display: inline; overflow: visible;" inkscape:connector-curvature="0"/>
              <path style="color: rgb(0, 0, 0); fill: rgb(23, 113, 91); fill-opacity: 1; fill-rule: nonzero; stroke: none; stroke-width: 0; marker: none; visibility: visible; display: inline; overflow: visible;" d="m 576.18135,-287.15073 c 4.40011,-3.21546 10.99879,-2.71767 12.89083,-2.12788 l 0.14183,1.49981 c 0,0 -2.93104,2.93104 -4.08251,5.33867 -1.15149,2.40765 -4.18722,3.34977 -6.90888,1.67488 -2.72169,-1.67487 -2.77403,-5.65272 -2.04127,-6.38548 z" id="path18923" inkscape:connector-curvature="0" sodipodi:nodetypes="cccssc"/>
              <path sodipodi:nodetypes="ccssc" inkscape:connector-curvature="0" id="path18925" d="m 576.75709,-287.98817 c 5.44336,-3.97783 12.31509,-1.15147 12.31509,-1.15147 0,0 -3.52197,1.5702 -4.67344,3.97783 -1.15149,2.40765 -4.08254,3.45445 -6.8042,1.77956 -2.72169,-1.67487 -1.57021,-3.87316 -0.83745,-4.60592 z" style="color: rgb(0, 0, 0); fill: rgb(36, 173, 139); fill-opacity: 1; fill-rule: nonzero; stroke: none; stroke-width: 0; marker: none; visibility: visible; display: inline; overflow: visible;"/>
              <path id="path18927" transform="matrix(0.26458336,0,0,0.26458336,320.08182,94.083721)" d="m 995.75,-1452.0938 c -8.03656,0.06 -17.26709,1.9236 -25.625,8.0313 -1.55784,1.5578 -3.64024,4.8687 -3.3125,8.5937 3.83583,-7.2474 17.09336,-12.8582 27.1875,-13.5624 12.0297,-0.8394 14.8125,1.375 14.8125,1.375 0,0 -5.0268,1.9612 -10.0625,6.4374 -5.03569,4.4763 -3.37802,13.451 -9.8125,15.9688 -1.9348,0.7571 -3.83389,1.2819 -5.59375,1.6875 6.74196,0.1141 12.72312,-3.6796 15.65625,-9.8125 4.352,-9.0997 17.6562,-15.0312 17.6562,-15.0312 0,0 -9.1605,-3.7747 -20.9062,-3.6876 z" style="color: rgb(0, 0, 0); fill: rgb(42, 208, 166); fill-opacity: 1; fill-rule: nonzero; stroke: none; stroke-width: 0; marker: none; visibility: visible; display: inline; overflow: visible;" inkscape:connector-curvature="0"/>
            </g>
            <g transform="matrix(0.72265485,0,0,0.72265485,67.804839,-133.31981)" id="g18897">
              <path inkscape:connector-curvature="0" style="color: rgb(0, 0, 0); fill: rgb(23, 113, 91); fill-opacity: 1; fill-rule: nonzero; stroke: rgb(3, 15, 12); stroke-width: 13.8379; stroke-linejoin: round; stroke-miterlimit: 4; stroke-opacity: 1; stroke-dasharray: none; marker: none; visibility: visible; display: inline; overflow: visible;" d="m 995.75,-1452.0938 c -8.03656,0.06 -17.26709,1.9236 -25.625,8.0313 -0.73616,0.7362 -1.59486,1.8723 -2.25,3.25 -2.70565,2.9265 -2.43007,17.7787 7.78125,24.0625 10.28659,6.3303 21.74166,2.756 26.09375,-6.3438 4.352,-9.0997 15.4375,-20.1562 15.4375,-20.1562 l -0.5313,-5.6875 c -1.0734,-0.3346 -2.588,-0.6336 -4.375,-0.9063 -0.038,-0.01 -0.087,-0.021 -0.125,-0.031 -3.7943,-1.0471 -9.6736,-2.2687 -16.4062,-2.2188 z" transform="matrix(0.26458336,0,0,0.26458336,320.08182,94.083721)" id="path18899"/>
              <path sodipodi:nodetypes="cccssc" inkscape:connector-curvature="0" id="path18901" d="m 576.18135,-287.15073 c 4.40011,-3.21546 10.99879,-2.71767 12.89083,-2.12788 l 0.14183,1.49981 c 0,0 -2.93104,2.93104 -4.08251,5.33867 -1.15149,2.40765 -4.18722,3.34977 -6.90888,1.67488 -2.72169,-1.67487 -2.77403,-5.65272 -2.04127,-6.38548 z" style="color: rgb(0, 0, 0); fill: rgb(23, 113, 91); fill-opacity: 1; fill-rule: nonzero; stroke: none; stroke-width: 0; marker: none; visibility: visible; display: inline; overflow: visible;"/>
              <path style="color: rgb(0, 0, 0); fill: rgb(36, 173, 139); fill-opacity: 1; fill-rule: nonzero; stroke: none; stroke-width: 0; marker: none; visibility: visible; display: inline; overflow: visible;" d="m 576.75709,-287.98817 c 5.44336,-3.97783 12.31509,-1.15147 12.31509,-1.15147 0,0 -3.52197,1.5702 -4.67344,3.97783 -1.15149,2.40765 -4.08254,3.45445 -6.8042,1.77956 -2.72169,-1.67487 -1.57021,-3.87316 -0.83745,-4.60592 z" id="path18903" inkscape:connector-curvature="0" sodipodi:nodetypes="ccssc"/>
              <path inkscape:connector-curvature="0" style="color: rgb(0, 0, 0); fill: rgb(42, 208, 166); fill-opacity: 1; fill-rule: nonzero; stroke: none; stroke-width: 0; marker: none; visibility: visible; display: inline; overflow: visible;" d="m 995.75,-1452.0938 c -8.03656,0.06 -17.26709,1.9236 -25.625,8.0313 -1.55784,1.5578 -3.64024,4.8687 -3.3125,8.5937 3.83583,-7.2474 17.09336,-12.8582 27.1875,-13.5624 12.0297,-0.8394 14.8125,1.375 14.8125,1.375 0,0 -5.0268,1.9612 -10.0625,6.4374 -5.03569,4.4763 -3.37802,13.451 -9.8125,15.9688 -1.9348,0.7571 -3.83389,1.2819 -5.59375,1.6875 6.74196,0.1141 12.72312,-3.6796 15.65625,-9.8125 4.352,-9.0997 17.6562,-15.0312 17.6562,-15.0312 0,0 -9.1605,-3.7747 -20.9062,-3.6876 z" transform="matrix(0.26458336,0,0,0.26458336,320.08182,94.083721)" id="path18905"/>
            </g>
            <g id="g18929" transform="matrix(0.99959765,-0.2506324,0.17289145,0.96590003,-546.52066,-476.58216)">
              <path sodipodi:nodetypes="cccccsscc" inkscape:connector-curvature="0" id="path18931" transform="matrix(0.26458334,0,0,0.26458334,-6.3049604e-6,18.562493)" d="m 3617.4062,1414.4375 c -0.3405,9e-4 -0.7239,0.032 -1.125,0.062 -24.2528,5.0179 -25.8601,30.1139 -25.8601,30.1139 0,0 -0.023,-0.013 0,-0.01 l 1.7648,4.3013 c 1.6593,4.2183 20.7545,2.677 28.2813,-0.25 15.0534,-5.8541 15.4223,-17.3916 2.8095,-14.3622 -6.3032,1.5139 -0.8025,-19.8705 -5.8721,-19.8565 z" style="color: rgb(0, 0, 0); fill: rgb(27, 133, 106); fill-opacity: 1; fill-rule: nonzero; stroke: rgb(3, 15, 12); stroke-width: 9.95607; stroke-linejoin: round; stroke-miterlimit: 4; stroke-opacity: 1; stroke-dasharray: none; marker: none; visibility: visible; display: inline; overflow: visible;"/>
              <path sodipodi:nodetypes="ccssccc" style="color: rgb(0, 0, 0); fill: rgb(23, 113, 91); fill-opacity: 1; fill-rule: nonzero; stroke: none; stroke-width: 0; marker: none; visibility: visible; display: inline; overflow: visible;" d="m 956.80798,394.77347 c -6.4169,1.32764 -6.83446,5.96385 -6.83446,5.96385 l 0.46138,1.18141 c 0.43626,1.11711 5.48797,0.70992 7.47943,-0.0645 3.9829,-1.54892 4.80686,-5.51025 3.03669,-7.05917 -1.7702,-1.54889 -4.14304,-0.0215 -4.14304,-0.0215 z" id="path18933" inkscape:connector-curvature="0"/>
              <path inkscape:connector-curvature="0" id="path18935" d="m 956.80798,392.81316 c -6.4169,1.32764 -6.84243,7.97024 -6.84243,7.97024 0,0 3.96587,0.6594 7.94878,-0.88952 3.98291,-1.54889 4.20419,-4.42544 2.43402,-5.97436 -1.7702,-1.54889 -3.54037,-1.10636 -3.54037,-1.10636 z" style="color: rgb(0, 0, 0); fill: rgb(36, 173, 139); fill-opacity: 1; fill-rule: nonzero; stroke: none; stroke-width: 0; marker: none; visibility: visible; display: inline; overflow: visible;" sodipodi:nodetypes="ccscc"/>
              <path inkscape:connector-curvature="0" style="opacity: 0.314159; color: rgb(0, 0, 0); fill: rgb(37, 180, 145); fill-opacity: 1; fill-rule: nonzero; stroke: none; stroke-width: 0; marker: none; visibility: visible; display: inline; overflow: visible;" d="m 3659.625,1366.2188 c -0.7367,2.3173 -1.9044,4.7658 -3.75,7 -6.1205,7.409 -28.6562,15.4374 -28.6562,15.4374 0,0 -2.0443,-11.5623 -0.4063,-19.3124 -5.7641,12.0984 -1.7813,24.75 -1.7813,24.75 0,0 14.9261,-3.158 26.8126,-14.0938 5.3377,-4.9108 7.6253,-9.7002 7.7812,-13.7812 z" transform="matrix(0.24640253,0.09638535,-0.09638535,0.24640253,191.10338,-292.12841)" id="path18937"/>
              <path style="color: rgb(0, 0, 0); fill: rgb(42, 208, 166); fill-opacity: 1; fill-rule: nonzero; stroke: none; stroke-width: 0; marker: none; visibility: visible; display: inline; overflow: visible;" d="m 1083.875,-1502.1875 c 0.423,4.4169 3.6431,9.5594 10.8125,14.375 14.0353,9.4275 29.5313,10.7813 29.5313,10.7813 0,0 1.2459,-11.6672 -5.5626,-22.5 3.0448,6.8746 3.7835,14.0308 -1.375,14.7187 -5.6224,0.7496 -22.252,-3.4715 -33.4062,-17.375 z" transform="matrix(-0.2533208,-0.06573186,-0.0453432,0.26215848,1167.7594,861.89381)" id="path18939" inkscape:connector-curvature="0"/>
              <path inkscape:connector-curvature="0" id="path18988" transform="matrix(0.2533208,0.06573186,-0.0453432,0.26215848,731.91534,780.73047)" d="m 609.4375,-1628.875 c -13.20948,7.4605 -25.71383,24.238 -23.875,22.0312 1.97821,-2.3738 23.52209,-18.4068 26.09375,-19.5937 0.35915,-0.1658 0.64198,-0.3425 0.875,-0.5313 -0.6719,-0.5856 -1.43908,-1.0961 -2.28125,-1.5312 -0.27751,-0.1434 -0.53861,-0.25 -0.8125,-0.375 z" style="color: rgb(0, 0, 0); fill: rgb(19, 91, 74); fill-opacity: 1; fill-rule: nonzero; stroke: none; stroke-width: 0; marker: none; visibility: visible; display: inline; overflow: visible;"/>
            </g>
            <g transform="matrix(-0.99959765,-0.2506324,-0.17289145,0.96590003,1514.4069,-476.87824)" id="g18907">
              <path style="color: rgb(0, 0, 0); fill: rgb(27, 133, 106); fill-opacity: 1; fill-rule: nonzero; stroke: rgb(3, 15, 12); stroke-width: 9.95607; stroke-linejoin: round; stroke-miterlimit: 4; stroke-opacity: 1; stroke-dasharray: none; marker: none; visibility: visible; display: inline; overflow: visible;" d="m 3617.4062,1414.4375 c -0.3405,9e-4 -0.7239,0.032 -1.125,0.062 -24.2528,5.0179 -25.8601,30.1139 -25.8601,30.1139 0,0 -0.023,-0.013 0,-0.01 l 1.7648,4.3013 c 1.6593,4.2183 20.7545,2.677 28.2813,-0.25 15.0534,-5.8541 15.4223,-17.3916 2.8095,-14.3622 -6.3032,1.5139 -0.8025,-19.8705 -5.8721,-19.8565 z" transform="matrix(0.26458334,0,0,0.26458334,-6.3049604e-6,18.562493)" id="path18909" inkscape:connector-curvature="0" sodipodi:nodetypes="cccccsscc"/>
              <path inkscape:connector-curvature="0" id="path18911" d="m 956.80798,394.77347 c -6.4169,1.32764 -6.83446,5.96385 -6.83446,5.96385 l 0.46138,1.18141 c 0.43626,1.11711 5.48797,0.70992 7.47943,-0.0645 3.9829,-1.54892 4.80686,-5.51025 3.03669,-7.05917 -1.7702,-1.54889 -4.14304,-0.0215 -4.14304,-0.0215 z" style="color: rgb(0, 0, 0); fill: rgb(23, 113, 91); fill-opacity: 1; fill-rule: nonzero; stroke: none; stroke-width: 0; marker: none; visibility: visible; display: inline; overflow: visible;" sodipodi:nodetypes="ccssccc"/>
              <path sodipodi:nodetypes="ccscc" style="color: rgb(0, 0, 0); fill: rgb(36, 173, 139); fill-opacity: 1; fill-rule: nonzero; stroke: none; stroke-width: 0; marker: none; visibility: visible; display: inline; overflow: visible;" d="m 956.80798,392.81316 c -6.4169,1.32764 -6.84243,7.97024 -6.84243,7.97024 0,0 3.96587,0.6594 7.94878,-0.88952 3.98291,-1.54889 4.20419,-4.42544 2.43402,-5.97436 -1.7702,-1.54889 -3.54037,-1.10636 -3.54037,-1.10636 z" id="path18913" inkscape:connector-curvature="0"/>
              <path id="path18915" transform="matrix(0.24640253,0.09638535,-0.09638535,0.24640253,191.10338,-292.12841)" d="m 3659.625,1366.2188 c -0.7367,2.3173 -1.9044,4.7658 -3.75,7 -6.1205,7.409 -28.6562,15.4374 -28.6562,15.4374 0,0 -2.0443,-11.5623 -0.4063,-19.3124 -5.7641,12.0984 -1.7813,24.75 -1.7813,24.75 0,0 14.9261,-3.158 26.8126,-14.0938 5.3377,-4.9108 7.6253,-9.7002 7.7812,-13.7812 z" style="opacity: 0.314159; color: rgb(0, 0, 0); fill: rgb(37, 180, 145); fill-opacity: 1; fill-rule: nonzero; stroke: none; stroke-width: 0; marker: none; visibility: visible; display: inline; overflow: visible;" inkscape:connector-curvature="0"/>
              <path inkscape:connector-curvature="0" id="path18917" transform="matrix(-0.2533208,-0.06573186,-0.0453432,0.26215848,1167.7594,861.89381)" d="m 1083.875,-1502.1875 c 0.423,4.4169 3.6431,9.5594 10.8125,14.375 14.0353,9.4275 29.5313,10.7813 29.5313,10.7813 0,0 1.2459,-11.6672 -5.5626,-22.5 3.0448,6.8746 3.7835,14.0308 -1.375,14.7187 -5.6224,0.7496 -22.252,-3.4715 -33.4062,-17.375 z" style="color: rgb(0, 0, 0); fill: rgb(42, 208, 166); fill-opacity: 1; fill-rule: nonzero; stroke: none; stroke-width: 0; marker: none; visibility: visible; display: inline; overflow: visible;"/>
              <path inkscape:connector-curvature="0" id="path18985" transform="matrix(-0.2533208,-0.06573186,-0.0453432,0.26215848,1045.637,862.44171)" d="m 628.5625,-1629.7188 c -0.0636,0.032 -0.1237,0.061 -0.1875,0.094 -0.79752,0.412 -1.51091,0.9212 -2.15625,1.4688 14.17779,6.7162 28.5625,22.5 28.5625,22.5 0,0 -11.86843,-15.6276 -19.78125,-20.9688 -2.58587,-1.7455 -4.72232,-2.667 -6.4375,-3.0938 z" style="color: rgb(0, 0, 0); fill: rgb(19, 91, 74); fill-opacity: 1; fill-rule: nonzero; stroke: none; stroke-width: 0; marker: none; visibility: visible; display: inline; overflow: visible;"/>
            </g>
          </g>
          <path transform="matrix(0.26458336,0,0,0.26458336,320.08182,94.083721)" inkscape:connector-curvature="0" id="path18991" d="m 621.90709,-1632.5625 c 5.87496,-11.7499 16.78561,-15.1071 16.78561,-15.1071 0,0 -8.95232,6.4345 -11.19041,10.6309 -2.23808,4.1964 -2.7976,6.1547 -2.7976,6.1547 z" style="color: rgb(0, 0, 0); fill: rgb(19, 91, 74); fill-opacity: 1; fill-rule: nonzero; stroke: none; stroke-width: 0; marker: none; visibility: visible; display: inline; overflow: visible;"/>
          <path transform="matrix(0.26458336,0,0,0.26458336,320.08182,94.083721)" inkscape:connector-curvature="0" id="path18993" d="m 596.4489,-1645.7112 c 10.07137,3.6368 14.8273,12.5892 14.8273,12.5892 l 1.95832,-1.6786 c 0,0 0,-3.3571 -8.11305,-7.2738 -8.11305,-3.9166 -8.67257,-3.6368 -8.67257,-3.6368 z" style="color: rgb(0, 0, 0); fill: rgb(19, 91, 74); fill-opacity: 1; fill-rule: nonzero; stroke: none; stroke-width: 0; marker: none; visibility: visible; display: inline; overflow: visible;"/>
        </g>
      </g>
    </g>
  </g>
</svg>