<?xml version="1.0" encoding="UTF-8" standalone="no"?><!-- Created with Inkscape (http://www.inkscape.org/) --><svg xmlns:dc="http://purl.org/dc/elements/1.1/" xmlns:cc="http://creativecommons.org/ns#" xmlns:rdf="http://www.w3.org/1999/02/22-rdf-syntax-ns#" xmlns:svg="http://www.w3.org/2000/svg" xmlns="http://www.w3.org/2000/svg" xmlns:sodipodi="http://sodipodi.sourceforge.net/DTD/sodipodi-0.dtd" xmlns:inkscape="http://www.inkscape.org/namespaces/inkscape" width="131.31813" height="140.18495" viewBox="0 0 34.744588 37.0906" version="1.1" id="svg23489" inkscape:version="0.48.5 r10040" sodipodi:docname="plant_01.svg">
  <defs id="defs23483">
    <clipPath clipPathUnits="userSpaceOnUse" id="clipPath22932">
      <path style="opacity: 0.39823; color: rgb(0, 0, 0); fill: rgb(186, 255, 81); fill-opacity: 1; fill-rule: nonzero; stroke: none; stroke-width: 0; marker: none; visibility: visible; display: inline; overflow: visible;" d="m 544.30169,181.88988 c 0.28587,0.59217 2.59866,1.15837 3.74216,0.1578 0.98015,2.77708 16.86469,0 16.86469,0 l 0,-16.17162 -30.55281,0 0,15.42079 c 0,0 6.65838,3.49263 9.94596,0.59303 z" id="path22934" inkscape:connector-curvature="0" sodipodi:nodetypes="ccccccc"/>
    </clipPath>
    <clipPath clipPathUnits="userSpaceOnUse" id="clipPath22874">
      <path style="opacity: 0.39823; color: rgb(0, 0, 0); fill: rgb(186, 255, 81); fill-opacity: 1; fill-rule: nonzero; stroke: none; stroke-width: 0; marker: none; visibility: visible; display: inline; overflow: visible;" d="m 507.96393,172.04108 c 5.63585,4.14521 4.40861,7.03756 4.24526,7.42553 -0.16336,0.38797 -0.45419,0.84609 -0.55527,0.75946 0,0 -0.23077,1.39392 -0.96715,1.52387 0,0 0.7281,2.05291 -3.23333,2.91054 -3.96143,0.85763 -12.08849,-2.45037 -11.76178,-7.80034 0.32672,-5.34998 9.00511,-7.35111 12.27227,-4.81906 z" id="path22876" inkscape:connector-curvature="0" sodipodi:nodetypes="csccssc"/>
    </clipPath>
    <clipPath clipPathUnits="userSpaceOnUse" id="clipPath22894">
      <path style="opacity: 0.39823; color: rgb(0, 0, 0); fill: rgb(186, 255, 81); fill-opacity: 1; fill-rule: nonzero; stroke: none; stroke-width: 0; marker: none; visibility: visible; display: inline; overflow: visible;" d="m 519.13353,181.84256 c 1.53,1.07862 2.21773,-0.85703 2.00114,-1.06183 0.0817,0.0408 1.9603,0.65343 4.32899,-2.85877 2.36869,-3.51219 0,-9.96483 -8.00455,-11.96597 -8.00454,-2.00113 -11.2717,3.47136 -11.47589,10.16904 -0.2042,6.69767 5.75836,9.27056 9.76064,9.7198 4.00227,0.44923 3.38967,-4.00227 3.38967,-4.00227 z" id="path22896" inkscape:connector-curvature="0" sodipodi:nodetypes="ccssssc"/>
    </clipPath>
    <clipPath clipPathUnits="userSpaceOnUse" id="clipPath23263">
      <path style="opacity: 0.39823; color: rgb(0, 0, 0); fill: rgb(186, 255, 81); fill-opacity: 1; fill-rule: nonzero; stroke: none; stroke-width: 0; marker: none; visibility: visible; display: inline; overflow: visible;" d="m 507.96393,172.04108 c 5.63585,4.14521 4.40861,7.03756 4.24526,7.42553 -0.16336,0.38797 -0.45419,0.84609 -0.55527,0.75946 0,0 -0.23077,1.39392 -0.96715,1.52387 0,0 0.7281,2.05291 -3.23333,2.91054 -3.96143,0.85763 -12.08849,-2.45037 -11.76178,-7.80034 0.32672,-5.34998 9.00511,-7.35111 12.27227,-4.81906 z" id="path23265" inkscape:connector-curvature="0" sodipodi:nodetypes="csccssc"/>
    </clipPath>
    <clipPath clipPathUnits="userSpaceOnUse" id="clipPath22907">
      <path style="opacity: 0.39823; color: rgb(0, 0, 0); fill: rgb(186, 255, 81); fill-opacity: 1; fill-rule: nonzero; stroke: none; stroke-width: 0; marker: none; visibility: visible; display: inline; overflow: visible;" d="m 525.58617,181.98549 c 0.89522,0.98185 2.40724,0.64233 3.04255,0.12252 0.16124,0.72559 12.13955,0.23486 11.90471,0 -0.23482,-0.23483 4.09811,-23.83249 0,-26.19853 -4.09811,-2.36605 -15.11061,0 -21.31822,0 -6.2076,0 -9.48879,8.76153 -8.08444,14.00265 1.40436,5.24112 4.81751,7.15803 7.00687,9.97898 2.18936,2.82095 7.44853,2.09438 7.44853,2.09438 z" id="path22909" inkscape:connector-curvature="0" sodipodi:nodetypes="ccsssssc"/>
    </clipPath>
    <clipPath clipPathUnits="userSpaceOnUse" id="clipPath23269">
      <path style="opacity: 0.39823; color: rgb(0, 0, 0); fill: rgb(186, 255, 81); fill-opacity: 1; fill-rule: nonzero; stroke: none; stroke-width: 0; marker: none; visibility: visible; display: inline; overflow: visible;" d="m 525.58617,181.98549 c 0.89522,0.98185 2.40724,0.64233 3.04255,0.12252 0.16124,0.72559 12.13955,0.23486 11.90471,0 -0.23482,-0.23483 4.09811,-23.83249 0,-26.19853 -4.09811,-2.36605 -15.11061,0 -21.31822,0 -6.2076,0 -9.48879,8.76153 -8.08444,14.00265 1.40436,5.24112 4.81751,7.15803 7.00687,9.97898 2.18936,2.82095 7.44853,2.09438 7.44853,2.09438 z" id="path23271" inkscape:connector-curvature="0" sodipodi:nodetypes="ccsssssc"/>
    </clipPath>
    <clipPath clipPathUnits="userSpaceOnUse" id="clipPath23273">
      <path style="opacity: 0.39823; color: rgb(0, 0, 0); fill: rgb(186, 255, 81); fill-opacity: 1; fill-rule: nonzero; stroke: none; stroke-width: 0; marker: none; visibility: visible; display: inline; overflow: visible;" d="m 507.96393,172.04108 c 5.63585,4.14521 4.40861,7.03756 4.24526,7.42553 -0.16336,0.38797 -0.45419,0.84609 -0.55527,0.75946 0,0 -0.23077,1.39392 -0.96715,1.52387 0,0 0.7281,2.05291 -3.23333,2.91054 -3.96143,0.85763 -12.08849,-2.45037 -11.76178,-7.80034 0.32672,-5.34998 9.00511,-7.35111 12.27227,-4.81906 z" id="path23275" inkscape:connector-curvature="0" sodipodi:nodetypes="csccssc"/>
    </clipPath>
    <clipPath clipPathUnits="userSpaceOnUse" id="clipPath23277">
      <path style="opacity: 0.39823; color: rgb(0, 0, 0); fill: rgb(186, 255, 81); fill-opacity: 1; fill-rule: nonzero; stroke: none; stroke-width: 0; marker: none; visibility: visible; display: inline; overflow: visible;" d="m 519.13353,181.84256 c 1.53,1.07862 2.21773,-0.85703 2.00114,-1.06183 0.0817,0.0408 1.9603,0.65343 4.32899,-2.85877 2.36869,-3.51219 0,-9.96483 -8.00455,-11.96597 -8.00454,-2.00113 -11.2717,3.47136 -11.47589,10.16904 -0.2042,6.69767 5.75836,9.27056 9.76064,9.7198 4.00227,0.44923 3.38967,-4.00227 3.38967,-4.00227 z" id="path23279" inkscape:connector-curvature="0" sodipodi:nodetypes="ccssssc"/>
    </clipPath>
    <clipPath clipPathUnits="userSpaceOnUse" id="clipPath23281">
      <path style="opacity: 0.39823; color: rgb(0, 0, 0); fill: rgb(186, 255, 81); fill-opacity: 1; fill-rule: nonzero; stroke: none; stroke-width: 0; marker: none; visibility: visible; display: inline; overflow: visible;" d="m 525.58617,181.98549 c 0.89522,0.98185 2.40724,0.64233 3.04255,0.12252 0.16124,0.72559 12.13955,0.23486 11.90471,0 -0.23482,-0.23483 4.09811,-23.83249 0,-26.19853 -4.09811,-2.36605 -15.11061,0 -21.31822,0 -6.2076,0 -9.48879,8.76153 -8.08444,14.00265 1.40436,5.24112 4.81751,7.15803 7.00687,9.97898 2.18936,2.82095 7.44853,2.09438 7.44853,2.09438 z" id="path23283" inkscape:connector-curvature="0" sodipodi:nodetypes="ccsssssc"/>
    </clipPath>
    <clipPath clipPathUnits="userSpaceOnUse" id="clipPath23285">
      <path style="opacity: 0.39823; color: rgb(0, 0, 0); fill: rgb(186, 255, 81); fill-opacity: 1; fill-rule: nonzero; stroke: none; stroke-width: 0; marker: none; visibility: visible; display: inline; overflow: visible;" d="m 544.30169,181.88988 c 0.28587,0.59217 2.59866,1.15837 3.74216,0.1578 0.98015,2.77708 16.86469,0 16.86469,0 l 0,-16.17162 -30.55281,0 0,15.42079 c 0,0 6.65838,3.49263 9.94596,0.59303 z" id="path23287" inkscape:connector-curvature="0" sodipodi:nodetypes="ccccccc"/>
    </clipPath>
    <clipPath clipPathUnits="userSpaceOnUse" id="clipPath23289">
      <path style="opacity: 0.39823; color: rgb(0, 0, 0); fill: rgb(186, 255, 81); fill-opacity: 1; fill-rule: nonzero; stroke: none; stroke-width: 0; marker: none; visibility: visible; display: inline; overflow: visible;" d="m 507.96393,172.04108 c 5.63585,4.14521 4.40861,7.03756 4.24526,7.42553 -0.16336,0.38797 -0.45419,0.84609 -0.55527,0.75946 0,0 -0.23077,1.39392 -0.96715,1.52387 0,0 0.7281,2.05291 -3.23333,2.91054 -3.96143,0.85763 -12.08849,-2.45037 -11.76178,-7.80034 0.32672,-5.34998 9.00511,-7.35111 12.27227,-4.81906 z" id="path23291" inkscape:connector-curvature="0" sodipodi:nodetypes="csccssc"/>
    </clipPath>
    <clipPath clipPathUnits="userSpaceOnUse" id="clipPath22919">
      <path style="opacity: 0.39823; color: rgb(0, 0, 0); fill: rgb(186, 255, 81); fill-opacity: 1; fill-rule: nonzero; stroke: none; stroke-width: 0; marker: none; visibility: visible; display: inline; overflow: visible;" d="m 533.24358,180.67863 c -0.16336,1.16393 0.51049,2.00114 2.00114,1.20477 -1.74256,1.5022 -0.71572,1.26164 1.42124,3.05207 2.13697,1.79043 11.4934,0.98185 12.12872,0.5198 0.63531,-0.46205 8.02805,-6.41089 8.0858,-8.66336 0.0578,-2.25248 -1.90593,-15.01651 -5.19801,-17.78878 -3.29208,-2.77228 -16.4604,-0.57756 -19.75248,-0.0578 -3.29208,0.5198 -10.16501,5.71782 -9.93399,5.77558 0.23102,0.0577 2.83003,15.42079 2.77228,15.65181 -0.0578,0.23102 2.42574,4.15842 2.83003,3.92739 0.40429,-0.23102 3.95121,-3.17246 3.95121,-3.17246 0,0 1.59196,0.89865 1.69406,-0.44906 z" id="path22921" inkscape:connector-curvature="0" sodipodi:nodetypes="ccsssssssscc"/>
    </clipPath>
    <clipPath clipPathUnits="userSpaceOnUse" id="clipPath23295">
      <path style="opacity: 0.39823; color: rgb(0, 0, 0); fill: rgb(186, 255, 81); fill-opacity: 1; fill-rule: nonzero; stroke: none; stroke-width: 0; marker: none; visibility: visible; display: inline; overflow: visible;" d="m 525.58617,181.98549 c 0.89522,0.98185 2.40724,0.64233 3.04255,0.12252 0.16124,0.72559 12.13955,0.23486 11.90471,0 -0.23482,-0.23483 4.09811,-23.83249 0,-26.19853 -4.09811,-2.36605 -15.11061,0 -21.31822,0 -6.2076,0 -9.48879,8.76153 -8.08444,14.00265 1.40436,5.24112 4.81751,7.15803 7.00687,9.97898 2.18936,2.82095 7.44853,2.09438 7.44853,2.09438 z" id="path23297" inkscape:connector-curvature="0" sodipodi:nodetypes="ccsssssc"/>
    </clipPath>
    <clipPath clipPathUnits="userSpaceOnUse" id="clipPath23299">
      <path style="opacity: 0.39823; color: rgb(0, 0, 0); fill: rgb(186, 255, 81); fill-opacity: 1; fill-rule: nonzero; stroke: none; stroke-width: 0; marker: none; visibility: visible; display: inline; overflow: visible;" d="m 525.58617,181.98549 c 0.89522,0.98185 2.40724,0.64233 3.04255,0.12252 0.16124,0.72559 12.13955,0.23486 11.90471,0 -0.23482,-0.23483 4.09811,-23.83249 0,-26.19853 -4.09811,-2.36605 -15.11061,0 -21.31822,0 -6.2076,0 -9.48879,8.76153 -8.08444,14.00265 1.40436,5.24112 4.81751,7.15803 7.00687,9.97898 2.18936,2.82095 7.44853,2.09438 7.44853,2.09438 z" id="path23301" inkscape:connector-curvature="0" sodipodi:nodetypes="ccsssssc"/>
    </clipPath>
  </defs>
  <sodipodi:namedview id="base" pagecolor="#7d848b" bordercolor="#666666" borderopacity="1.0" inkscape:pageopacity="0" inkscape:pageshadow="2" inkscape:zoom="1.6196536" inkscape:cx="34.447229" inkscape:cy="139.71257" inkscape:document-units="px" inkscape:current-layer="layer1" showgrid="false" inkscape:pagecheckerboard="false" showborder="true" units="px" inkscape:window-width="1920" inkscape:window-height="1017" inkscape:window-x="-8" inkscape:window-y="-8" inkscape:window-maximized="1" inkscape:showpageshadow="false" guidetolerance="28" fit-margin-top="6" fit-margin-left="6" fit-margin-right="6" fit-margin-bottom="6">
    <inkscape:grid type="xygrid" id="grid24034" spacingx="1px" spacingy="1px" empspacing="8" visible="true" enabled="true" snapvisiblegridlinesonly="true" originx="-220.83577px" originy="-204.90646px"/>
  </sodipodi:namedview>
  <metadata id="metadata23486">
    <rdf:RDF>
      <cc:Work rdf:about="">
        <dc:format>image/svg+xml</dc:format>
        <dc:type rdf:resource="http://purl.org/dc/dcmitype/StillImage"/>
        <dc:title/>
        <cc:license rdf:resource=""/>
        <dc:creator>
          <cc:Agent>
            <dc:title>Robert Brooks</dc:title>
          </cc:Agent>
        </dc:creator>
      </cc:Work>
    </rdf:RDF>
  </metadata>
  <g inkscape:label="Layer 1" inkscape:groupmode="layer" id="layer1" transform="translate(-58.429466,-205.69454)">
    <path style="opacity: 0.25; color: rgb(0, 0, 0); fill: rgb(0, 0, 0); fill-opacity: 1; fill-rule: nonzero; stroke: none; stroke-width: 0; marker: none; visibility: visible; display: inline; overflow: visible;" d="m 75.860774,227.78983 c -2.14728,0.12446 -4.623282,2.36016 -4.646744,2.38125 0.0026,-0.21551 -6.09e-4,-0.43117 -0.0083,-0.65321 l 0,0.65321 c -0.01528,1.26312 -0.197583,2.40913 -0.446484,3.42302 -2.64768,-0.86617 -5.905337,-0.4485 -5.27513,-0.32245 0.640683,0.12814 4.577366,2.21393 4.797821,3.84598 -0.346378,0.87993 -0.468761,4.08001 6.802504,4.08001 4.259854,0 6.780709,-1.31146 7.51582,-3.51679 0.767964,-2.30386 6.862629,-2.11889 6.862629,-2.11889 0,0 -1.148316,-1.47376 -3.762044,-1.63714 -2.613727,-0.16338 -5.880959,1.39208 -7.35118,1.06538 -0.661781,-0.14709 -0.190194,0.69725 -1.851358,0.8446 0.09308,-0.28067 0.16941,-0.58431 0.214974,-0.92604 0.653432,-4.90072 0.327441,-6.37458 -1.95957,-7.028 -0.285877,-0.0817 -0.584759,-0.10882 -0.892969,-0.0909 z" id="path30661" inkscape:connector-curvature="0" sodipodi:nodetypes="cccccscsscsccssc"/>
    <g transform="matrix(0.99999954,7.6897965e-4,-7.6897965e-4,0.99999954,-40.661047,436.9171)" id="g30804">
      <g id="g30806" transform="matrix(-0.41879614,0.37314919,0.22521949,0.69387175,220.37794,-114.9725)">
        <path style="color: rgb(0, 0, 0); fill: rgb(68, 142, 18); fill-opacity: 1; fill-rule: nonzero; stroke: rgb(18, 18, 18); stroke-width: 3.933; stroke-linecap: round; stroke-linejoin: round; stroke-miterlimit: 4; stroke-opacity: 1; stroke-dasharray: none; stroke-dashoffset: 37.6; marker: none; visibility: visible; display: inline; overflow: visible;" d="m 153.5033,-218.45048 c 0.0855,0.002 0.16,0.003 0.23156,0.0104 0.01,0.002 0.0169,0.004 0.0263,0.005 0.059,0.007 0.11552,0.0193 0.16313,0.0316 0.0173,0.005 0.0317,0.0108 0.0474,0.0158 0.009,0.003 0.0181,0.002 0.0263,0.005 0.0121,0.005 0.0258,0.0109 0.0368,0.0158 0.0235,0.0108 0.0452,0.0241 0.0632,0.0368 0.003,0.002 0.008,0.003 0.0104,0.005 0.0169,0.013 0.031,0.0271 0.0421,0.0421 0.003,0.004 0.008,0.007 0.0104,0.0104 0,0.002 0,0.004 0,0.005 0.002,0.002 0.004,0.003 0.005,0.005 0.0939,0.0797 0.24498,0.35894 0.29996,0.51047 0.002,0.004 0.004,0.007 0.005,0.0106 0.002,0.006 0.004,0.0155 0.005,0.0211 0.005,0.0153 0.01,0.0312 0.0104,0.0474 0.002,0.0168 -0.002,0.035 -0.005,0.0526 -0.003,0.0142 -0.005,0.0275 -0.0106,0.0421 -0.002,0.005 -0.003,0.0104 -0.005,0.0158 -0.004,0.009 -0.006,0.0169 -0.0104,0.0263 -0.003,0.006 -0.007,0.01 -0.0104,0.0158 -0.008,0.0138 -0.016,0.0279 -0.0263,0.0421 -0.009,0.0121 -0.0212,0.0244 -0.0316,0.0369 -0.0238,0.0285 -0.0511,0.0594 -0.0842,0.0894 -0.002,0.002 -0.003,0.003 -0.005,0.005 -0.0459,0.0412 -0.099,0.0822 -0.16315,0.12631 -0.48823,0.33567 -1.32196,0.90279 -2.27349,1.75249 -0.002,0.002 -0.004,-0.002 -0.005,0 -0.1048,0.0936 -0.20846,0.19414 -0.31576,0.29471 -0.002,0.002 -0.004,-0.002 -0.005,0 -0.43224,0.40519 -0.8841,0.86638 -1.33147,1.38935 -0.0923,0.10787 -0.18172,0.22368 -0.27366,0.33682 -0.0191,0.0235 -0.0388,0.0447 -0.0579,0.0684 -0.002,0.002 -0.004,0.003 -0.005,0.005 -0.22134,0.27585 -0.44277,0.57169 -0.65785,0.87888 -0.21652,0.30928 -0.42642,0.63143 -0.63152,0.9736 -0.002,0.002 -0.004,0.003 -0.005,0.005 -0.40879,0.68273 -0.78806,1.43223 -1.12095,2.25243 -0.002,0.002 -0.004,0.003 -0.005,0.005 -0.24939,0.61518 -1.2841,2.35611 -1.2841,6.68362 -0.11507,0.69048 -2.01292,0.16428 -2.01532,0.14258 -0.005,-0.0462 -0.0111,-0.10305 -0.0158,-0.15261 -0.008,-0.0809 -0.0146,-0.17803 -0.021,-0.26841 -0.002,-0.0257 -0.004,-0.0578 -0.005,-0.0842 -0.007,-0.10421 -0.0109,-0.21464 -0.0158,-0.33156 -0.002,-0.0285 -0.004,-0.0602 -0.005,-0.0895 -0.002,-0.0324 0.002,-0.0719 0,-0.10525 -0.005,-0.15255 -0.01,-0.3158 -0.0106,-0.48943 -0.002,-0.21359 0,-0.44163 0.005,-0.68942 4e-5,-0.002 -3e-5,-0.004 0,-0.005 0.005,-0.21662 0.0111,-0.45561 0.0211,-0.69995 0.002,-0.0326 0.004,-0.0721 0.005,-0.10525 0.0123,-0.28607 0.027,-0.59022 0.0473,-0.91571 0.0103,-0.16442 0.023,-0.32425 0.0368,-0.48417 0.004,-0.0409 0.007,-0.0805 0.0104,-0.12105 0.0109,-0.11684 0.0241,-0.23286 0.0368,-0.34732 0.002,-0.009 0.004,-0.0173 0.005,-0.0263 0.0162,-0.14343 0.0283,-0.28652 0.0474,-0.42628 0.005,-0.0391 0.0103,-0.0769 0.0158,-0.11577 0.016,-0.11183 0.0349,-0.2168 0.0526,-0.3263 0.0207,-0.12779 0.0401,-0.25424 0.0632,-0.37891 0.003,-0.0179 0.007,-0.0348 0.0104,-0.0526 0.0385,-0.20411 0.0818,-0.40408 0.1263,-0.59997 0.002,-0.009 0.003,-0.0176 0.005,-0.0263 0.0155,-0.0679 0.0311,-0.13308 0.0474,-0.19999 0.0369,-0.15209 0.0753,-0.30017 0.11576,-0.44734 0.0577,-0.21013 0.11979,-0.41529 0.1842,-0.61572 0.0491,-0.15283 0.0999,-0.30522 0.15261,-0.4526 0.003,-0.009 0.007,-0.0174 0.0106,-0.0263 0.0327,-0.0908 0.066,-0.17959 0.1,-0.26839 0.007,-0.0194 0.0136,-0.0386 0.0211,-0.0579 0.0448,-0.11556 0.0899,-0.22991 0.13683,-0.34208 0.0647,-0.15452 0.13159,-0.3043 0.19998,-0.4526 0.0128,-0.0278 0.0239,-0.0566 0.0368,-0.0842 0.0187,-0.0398 0.039,-0.0764 0.0579,-0.11578 0.0639,-0.13301 0.12804,-0.26135 0.19471,-0.38944 0.0401,-0.0771 0.08,-0.15097 0.12105,-0.2263 0.0474,-0.087 0.0936,-0.17312 0.1421,-0.25787 0.007,-0.0123 0.014,-0.0245 0.0211,-0.0368 0.0894,-0.15507 0.18072,-0.30482 0.27366,-0.45258 0.0587,-0.0933 0.119,-0.18314 0.17892,-0.27366 0.0304,-0.0459 0.0588,-0.0917 0.0895,-0.13685 0.0521,-0.0767 0.105,-0.15151 0.15788,-0.22629 0.004,-0.005 0.007,-0.0106 0.0104,-0.0158 0.1045,-0.14737 0.21393,-0.29154 0.32104,-0.43155 0.013,-0.0168 0.0239,-0.0359 0.0368,-0.0526 0.0246,-0.0319 0.0489,-0.0632 0.0737,-0.0948 0.10173,-0.12977 0.2019,-0.25515 0.30523,-0.37891 0.1271,-0.15228 0.25553,-0.29827 0.38419,-0.44207 0.25727,-0.28756 0.51593,-0.55803 0.77361,-0.81571 0.0479,-0.0479 0.0969,-0.0957 0.14735,-0.14209 0.0174,-0.0158 0.0349,-0.0318 0.0526,-0.0474 0.0342,-0.0301 0.0699,-0.0602 0.10525,-0.0895 0.0359,-0.0298 0.073,-0.0602 0.11051,-0.0895 0.0138,-0.0108 0.0282,-0.0209 0.0421,-0.0316 0.005,-0.004 0.0108,-0.007 0.0158,-0.0104 0.0559,-0.0424 0.11036,-0.0858 0.16841,-0.1263 0.002,0 0.004,0 0.005,0 0.0276,-0.0194 0.0562,-0.0389 0.0842,-0.0579 0.05,-0.0335 0.10128,-0.067 0.15263,-0.1 0.0419,-0.0264 0.0836,-0.0535 0.12631,-0.0789 0.0397,-0.0239 0.0808,-0.0457 0.12103,-0.0684 0.0633,-0.0359 0.12491,-0.0712 0.18946,-0.10525 0.0209,-0.0111 0.0422,-0.0206 0.0631,-0.0316 0.17157,-0.0893 0.34887,-0.17114 0.52627,-0.24736 0.0108,-0.005 0.0207,-0.0113 0.0316,-0.0158 0.34505,-0.14651 0.69448,-0.26229 1.03675,-0.35786 0.28277,-0.079 0.55973,-0.14641 0.82098,-0.18946 0.0456,-0.008 0.0871,-0.014 0.13156,-0.021 0.0701,-0.0111 0.13834,-0.0177 0.20525,-0.0263 0.0322,-0.004 0.0634,-0.007 0.0947,-0.0104 0.0614,-0.007 0.12061,-0.016 0.17893,-0.0211 0.0253,-0.002 0.0491,-0.004 0.0737,-0.005 0.10896,-0.007 0.21618,-0.0118 0.31049,-0.0104 z" id="path30808" inkscape:connector-curvature="0" sodipodi:nodetypes="cccccccccccccccccccccccccccccccccccccccccccccccccccccccccccccccccccccccccccccccccccccccccssccccccccccccccccccccccccc"/>
        <path style="color: rgb(0, 0, 0); fill: rgb(68, 142, 18); fill-opacity: 1; fill-rule: nonzero; stroke: none; stroke-width: 0; marker: none; visibility: visible; display: inline; overflow: visible;" d="m 146.0509,-202.57046 c 0.1085,-9.33088 6.34718,-13.45384 8.08314,-14.64732 0.25098,-0.17255 0.35909,-0.32468 0.35416,-0.45247 -0.004,-0.0924 -0.22923,-0.54607 -0.33967,-0.61152 -0.79347,-0.47025 -3.89144,0.16699 -5.43941,1.71498 -2.06146,2.06148 -4.20415,4.99273 -4.55695,10.19887 -0.37528,5.53788 1.55555,6.51563 1.89873,3.79743 z" id="path30810" inkscape:connector-curvature="0" sodipodi:nodetypes="cssssscc"/>
        <path sodipodi:nodetypes="csssccc" inkscape:connector-curvature="0" id="path30812" d="m 145.67115,-202.57046 c 0.1085,-9.33088 6.40143,-13.99633 8.1374,-15.18981 1.73598,-1.1935 -3.03797,-0.86801 -5.09943,1.19348 -2.06148,2.06146 -4.23145,4.99095 -4.55695,10.19887 -0.32549,5.20793 0.434,5.20793 0.434,5.20793 0.59674,0.29837 0.86798,-0.21699 0.86798,-0.21699 z" style="color: rgb(0, 0, 0); fill: rgb(68, 142, 18); fill-opacity: 1; fill-rule: nonzero; stroke: none; stroke-width: 0; marker: none; visibility: visible; display: inline; overflow: visible;"/>
        <path inkscape:connector-curvature="0" style="color: rgb(0, 0, 0); fill: rgb(145, 229, 37); fill-opacity: 1; fill-rule: nonzero; stroke: none; stroke-width: 0; marker: none; visibility: visible; display: inline; overflow: visible;" d="m 153.5033,-218.45048 c 0.6936,0.009 0.95624,0.24185 0.30525,0.68942 -1.34398,0.92398 -5.41397,3.93294 -7.23622,9.57285 -0.002,0 -0.004,0 -0.005,0 -1.79334,0.6857 -1.91976,-1.96198 -0.62627,-4.75748 0,-0.002 0,-0.004 0,-0.005 0.008,-0.0147 0.0183,-0.0275 0.0263,-0.0421 0.8083,-1.47186 1.78504,-2.61653 2.74188,-3.57337 1.28841,-1.28843 3.63833,-1.89888 4.79431,-1.88405 z" id="path30814"/>
      </g>
      <g transform="matrix(-0.92745461,0,0,0.92745461,218.58873,5.7437491)" id="g30816">
        <path sodipodi:nodetypes="csscscsc" inkscape:connector-curvature="0" id="path30818" d="m 108.92672,-238.76088 c 0.23102,-4.62045 1.0396,-6.81516 2.07921,-8.0858 1.0396,-1.27063 3.56676,-0.6699 4.50495,-0.11552 2.54125,1.50165 2.88779,6.23764 3.00329,7.0462 0.11552,0.8086 -2.19471,-3.23431 -3.34983,-2.31022 -1.15512,0.92408 -1.27063,5.77558 -1.27063,5.77558 0,0 -0.46204,4.62045 -1.73267,6.1221 -1.01486,1.19939 -3.56782,1.57271 -3.23432,-8.43234 z" style="color: rgb(0, 0, 0); fill: rgb(104, 169, 25); fill-opacity: 1; fill-rule: nonzero; stroke: rgb(18, 18, 18); stroke-width: 2.85279; stroke-linejoin: round; stroke-miterlimit: 4; stroke-opacity: 1; stroke-dasharray: none; marker: none; visibility: visible; display: inline; overflow: visible;"/>
        <path style="color: rgb(0, 0, 0); fill: rgb(104, 169, 25); fill-opacity: 1; fill-rule: nonzero; stroke: none; stroke-width: 0; marker: none; visibility: visible; display: inline; overflow: visible;" d="m 108.92672,-238.76088 c 0.23102,-4.62045 1.0396,-6.81516 2.07921,-8.0858 1.0396,-1.27063 3.56676,-0.6699 4.50495,-0.11552 2.54125,1.50165 2.88779,6.23764 3.00329,7.0462 0.11552,0.8086 -2.19471,-3.23431 -3.34983,-2.31022 -1.15512,0.92408 -1.27063,5.77558 -1.27063,5.77558 0,0 -0.46204,4.62045 -1.73267,6.1221 -1.01486,1.19939 -3.56782,1.57271 -3.23432,-8.43234 z" id="path30820" inkscape:connector-curvature="0" sodipodi:nodetypes="csscscsc"/>
        <path inkscape:connector-curvature="0" style="color: rgb(0, 0, 0); fill: rgb(129, 207, 30); fill-opacity: 1; fill-rule: nonzero; stroke: none; stroke-width: 0; marker: none; visibility: visible; display: inline; overflow: visible;" d="m -782.78125,-1291.4062 c -2.89758,4e-4 -5.71848,0.7427 -7.4375,2.8437 -3.92923,4.8024 -6.9706,13.0994 -7.84375,30.5625 -1.26047,37.8144 8.38306,36.4081 12.21875,31.875 4.80238,-5.6755 6.5625,-23.125 6.5625,-23.125 0,0 0.20386,-8.5298 1.71875,-15.0625 1.27814,-12.5435 3.89963,-17.2707 7,-18.5625 2.4997,-1.0415 5.09045,4.5907 7.125,10.75 -1.44219,-6.2216 -4.19825,-13.5944 -9.75,-16.875 -1.99458,-1.1786 -5.86829,-2.4068 -9.59375,-2.4062 z" transform="matrix(0.26458336,0,0,0.26458336,320.08182,94.083721)" id="path30822"/>
      </g>
      <g transform="matrix(0.82090872,0,0,0.82090872,20.843379,-42.38801)" id="g30824">
        <path sodipodi:nodetypes="cccccsscscc" inkscape:connector-curvature="0" style="color: rgb(0, 0, 0); fill: rgb(28, 129, 74); fill-opacity: 1; fill-rule: nonzero; stroke: rgb(18, 18, 18); stroke-width: 12.1816; stroke-linejoin: round; stroke-opacity: 1; marker: none; visibility: visible; display: inline; overflow: visible;" d="m -821.09375,-1211.9688 c -7.75508,0.1457 -13.2683,2.9559 -14.28125,3.9688 -0.99944,0.9995 -1.38022,1.9949 -1.34375,2.75 -0.60398,2.0969 0.34271,4.5731 1.71875,4.3438 1.7788,-0.2967 5.10042,-0.1193 8.1875,0.3437 21.6421,7.4117 34.64429,35.8579 37.3125,57.5 1.91581,15.5393 2.31062,39.9174 2.70646,54.259 0.15546,5.6324 3.66658,12.8112 7.78236,-8.0388 0.48074,1.6825 16.185,-67.6344 -10.36387,-98.8139 -11.25863,-13.2224 -22.92966,-16.4776 -31.71875,-16.3126 z" transform="matrix(0.26458336,0,0,0.26458336,320.08182,94.083721)" id="path30826"/>
        <path sodipodi:nodetypes="cscccscccc" inkscape:connector-curvature="0" id="path30828" d="m 101.32489,-223.56364 c 5.72614,1.96101 9.16652,9.48803 9.87248,15.21416 0.70596,5.72611 0.72216,16.70513 0.87903,17.25422 0.15688,0.54906 0.20182,1.40669 2.69613,1.40669 1.09816,-0.23531 0.18997,-1.76649 0.18997,-1.76649 0,0 1.64724,-21.9146 -5.09861,-29.83707 -5.38489,-6.32413 -10.362558,-4.50345 -10.91164,-3.95439 -0.54908,0.54909 -0.269683,1.66991 0.200958,1.59147 0.470641,-0.0785 1.354892,-0.0311 2.171682,0.0914 z" style="color: rgb(0, 0, 0); fill: rgb(68, 142, 18); fill-opacity: 1; fill-rule: nonzero; stroke: none; stroke-width: 0; marker: none; visibility: visible; display: inline; overflow: visible;"/>
        <path style="color: rgb(0, 0, 0); fill: rgb(113, 184, 22); fill-opacity: 1; fill-rule: nonzero; stroke: none; stroke-width: 0; marker: none; visibility: visible; display: inline; overflow: visible;" d="m 101.38945,-224.46595 c 5.63271,0.21336 10.49261,9.71615 11.22772,15.67872 0.73511,5.96254 1.66995,16.66684 1.8333,17.23861 0.16336,0.57173 -0.44476,0.81679 0.69875,0.57173 1.14351,-0.24503 1.38854,-1.79691 1.38854,-1.79691 0,0 0.39558,-10.17971 0.029,-14.53879 -0.0184,-0.21909 -0.0388,-0.50005 -0.0612,-0.80693 -0.0416,-0.56921 -0.0903,-1.22759 -0.14705,-1.7457 -0.0143,-0.13036 -0.0291,-0.25184 -0.0444,-0.36079 -0.15479,-1.10087 -0.36326,-1.58572 -0.64079,-2.73119 -0.0687,-0.28343 -0.14156,-0.56727 -0.21892,-0.85111 -0.14027,-0.51468 -0.29521,-1.0293 -0.46621,-1.54113 -0.82607,-2.47255 -2.02697,-4.88005 -3.75957,-6.91485 -5.60724,-6.58526 -11.59842,-3.83889 -12.170174,-3.26715 -0.571751,0.57176 -0.408395,1.1435 0.08168,1.06182 0.490074,-0.0817 1.225184,-0.0817 2.249314,0.004 z" id="path30830" inkscape:connector-curvature="0" sodipodi:nodetypes="cscccsssssssscccc"/>
        <path inkscape:connector-curvature="0" style="color: rgb(0, 0, 0); fill: rgb(145, 229, 37); fill-opacity: 1; fill-rule: nonzero; stroke: none; stroke-width: 0; marker: none; visibility: visible; display: inline; overflow: visible;" d="m -821.09375,-1211.9688 c -7.75508,0.1457 -13.2683,2.9559 -14.28125,3.9688 -2.16095,2.161 -1.53975,4.34 0.3125,4.0312 1.85225,-0.3087 4.62927,-0.3239 8.5,0 14.29484,0.5415 27.26816,16.9165 35.09375,34.4376 -3.01154,-7.9917 -10.01349,-22.747 -5.28125,-24.7188 3.99869,-1.6661 12.04232,7.8201 15.25,10.0938 -2.2322,-4.0583 -4.83689,-7.932 -7.875,-11.5 -11.25863,-13.2224 -22.92966,-16.4776 -31.71875,-16.3126 z" transform="matrix(0.26458336,0,0,0.26458336,320.08182,94.083721)" id="path30832"/>
      </g>
      <g transform="matrix(0.56391396,0.1082746,-0.11446731,0.60883921,29.811709,-100.94087)" id="g30834">
        <path style="color: rgb(0, 0, 0); fill: rgb(68, 142, 18); fill-opacity: 1; fill-rule: nonzero; stroke: rgb(18, 18, 18); stroke-width: 4.43613; stroke-linecap: round; stroke-linejoin: round; stroke-miterlimit: 4; stroke-opacity: 1; stroke-dasharray: none; stroke-dashoffset: 37.6; marker: none; visibility: visible; display: inline; overflow: visible;" d="m 113.23701,-200.83293 c -1.76364,-14.62234 1.06601,-24.91728 6.02356,-28.33882 4.95752,-3.42156 10.35776,1.79731 10.72401,4.16756 0.3511,2.2722 0.50568,3.49395 -0.99597,4.18702 0,0 -3.86806,-7.61348 -7.46076,-2.95052 -3.59269,4.66291 -0.85617,21.58881 -1.81731,23.90684 -1.51461,3.97847 -6.55116,1.80036 -6.47353,-0.97208 z" id="path30836" inkscape:connector-curvature="0" sodipodi:nodetypes="csscscc"/>
        <path sodipodi:nodetypes="csscscc" inkscape:connector-curvature="0" id="path30838" d="m 113.23701,-200.83293 c -1.76364,-14.62234 1.06601,-24.91728 6.02356,-28.33882 4.95752,-3.42156 10.35776,1.79731 10.72401,4.16756 0.3511,2.2722 0.50568,3.49395 -0.99597,4.18702 0,0 -3.86806,-7.61348 -7.46076,-2.95052 -3.59269,4.66291 -0.85617,21.58881 -1.81731,23.90684 -1.51461,3.97847 -6.55116,1.80036 -6.47353,-0.97208 z" style="color: rgb(0, 0, 0); fill: rgb(113, 184, 22); fill-opacity: 1; fill-rule: nonzero; stroke: none; stroke-width: 0; marker: none; visibility: visible; display: inline; overflow: visible;"/>
        <path style="color: rgb(0, 0, 0); fill: rgb(68, 142, 18); fill-opacity: 1; fill-rule: nonzero; stroke: none; stroke-width: 0; marker: none; visibility: visible; display: inline; overflow: visible;" d="m -745.875,-1206 c -3.1998,0.1036 -6.40466,1.676 -9.375,5.5312 -13.57867,17.6236 -3.24235,81.614 -6.875,90.375 -1.47585,3.8767 -3.81395,6.2001 -6.5,7.3438 4.50964,0.139 8.99776,-2.1386 11.3125,-8.2188 3.63265,-8.761 -6.70367,-72.7201 6.875,-90.3437 1.74834,-2.2692 3.50058,-3.765 5.25,-4.6563 -0.22838,-0.01 -0.45894,-0.039 -0.6875,-0.031 z" transform="matrix(0.26458336,0,0,0.26458336,320.08182,94.083721)" id="path30840" inkscape:connector-curvature="0" sodipodi:nodetypes="sscccscs"/>
        <path sodipodi:nodetypes="sscscccss" inkscape:connector-curvature="0" style="color: rgb(0, 0, 0); fill: rgb(145, 229, 37); fill-opacity: 1; fill-rule: nonzero; stroke: none; stroke-width: 0; marker: none; visibility: visible; display: inline; overflow: visible;" d="m -746.6875,-1226 c -4.0422,0.158 -8.21376,1.4212 -12.3125,4.25 -12.17179,8.4006 -20.9514,27.781 -23.78125,55.4688 0.545,-1.9203 1.14124,-4.3869 1.75,-7.4688 6.98527,-35.3629 24.68486,-48.8681 38.65539,-45.8119 12.47383,4.1091 6.37791,10.4897 5.65711,13.4681 8.1662,3.539 14.46875,15.9063 14.46875,15.9063 5.67553,-2.6195 4.79953,-9.6944 3.78125,-15.8125 -1.16269,-6.9858 -13.78231,-20.5644 -28.21875,-20 z" transform="matrix(0.26458336,0,0,0.26458336,320.08182,94.083721)" id="path30842"/>
        <path sodipodi:nodetypes="sccscs" inkscape:connector-curvature="0" id="path30844" transform="matrix(0.26458336,0,0,0.26458336,319.27324,94.430256)" d="m -737.85287,-1213.8162 c -19.73462,1.1719 -18.79488,22.1706 -20.64713,45.9412 0,0 1.66923,0.196 3.90625,0.5 0.29334,-14.7676 1.97914,-28.4496 7.21875,-35.25 13.35089,-17.3281 27.61577,10.0402 28.09375,10.9688 -0.15623,-11.0186 -8.08089,-22.783 -18.57162,-22.16 z" style="color: rgb(0, 0, 0); fill: rgb(68, 142, 18); fill-opacity: 1; fill-rule: nonzero; stroke: none; stroke-width: 0; marker: none; visibility: visible; display: inline; overflow: visible;"/>
      </g>
      <g transform="matrix(0.99663026,0.08202509,-0.08202509,0.99663026,-29.050832,-13.205229)" id="g30846">
        <path sodipodi:nodetypes="cssssc" inkscape:connector-curvature="0" id="path30848" d="m 131.4133,-213.0229 c -0.33056,8.85996 2.38598,12.48021 1.51846,15.5222 -0.39242,1.37605 -1.29306,-5.73448 -2.23846,-5.64317 -1.14457,0.11053 -1.67571,6.48797 -2.51301,3.09682 -0.37177,-1.50571 -0.47504,-5.09844 -1.85638,-11.71611 -0.4414,-2.11462 5.14715,-2.53037 5.08939,-1.25974 z" style="color: rgb(0, 0, 0); fill: rgb(68, 142, 18); fill-opacity: 1; fill-rule: nonzero; stroke: rgb(18, 18, 18); stroke-width: 2.64583; stroke-linejoin: round; stroke-miterlimit: 4; stroke-opacity: 1; stroke-dasharray: none; marker: none; visibility: visible; display: inline; overflow: visible;"/>
        <path style="color: rgb(0, 0, 0); fill: rgb(68, 142, 18); fill-opacity: 1; fill-rule: nonzero; stroke: none; stroke-width: 0; marker: none; visibility: visible; display: inline; overflow: visible;" d="m 131.4133,-213.0229 c -0.33056,8.85996 2.38596,12.4802 1.51846,15.5222 -0.86752,3.042 -4.2187,2.14959 -5.04661,0.8381 -0.82789,-1.31147 1.38118,-9.43092 -1.56124,-15.10056 -0.99507,-1.91736 5.03163,-2.8769 5.08939,-1.25974 z" id="path30850" inkscape:connector-curvature="0" sodipodi:nodetypes="csssc"/>
      </g>
      <g transform="matrix(1.0626595,0.01167416,-0.01167416,1.0626595,-35.829694,13.861795)" id="g30852">
        <path sodipodi:nodetypes="cccccccccccccccccccccccccccccccccccccccccccccccccccccccccccccccccccccccccccccccccccccccccssccccccccccccccccccccccccc" inkscape:connector-curvature="0" id="path30854" d="m 153.5033,-218.45048 c 0.0855,0.002 0.16,0.003 0.23156,0.0104 0.01,0.002 0.0169,0.004 0.0263,0.005 0.059,0.007 0.11552,0.0193 0.16313,0.0316 0.0173,0.005 0.0317,0.0108 0.0474,0.0158 0.009,0.003 0.0181,0.002 0.0263,0.005 0.0121,0.005 0.0258,0.0109 0.0368,0.0158 0.0235,0.0108 0.0452,0.0241 0.0632,0.0368 0.003,0.002 0.008,0.003 0.0104,0.005 0.0169,0.013 0.031,0.0271 0.0421,0.0421 0.003,0.004 0.008,0.007 0.0104,0.0104 0,0.002 0,0.004 0,0.005 0.002,0.002 0.004,0.003 0.005,0.005 0.0939,0.0797 0.24498,0.35894 0.29996,0.51047 0.002,0.004 0.004,0.007 0.005,0.0106 0.002,0.006 0.004,0.0155 0.005,0.0211 0.005,0.0153 0.01,0.0312 0.0104,0.0474 0.002,0.0168 -0.002,0.035 -0.005,0.0526 -0.003,0.0142 -0.005,0.0275 -0.0106,0.0421 -0.002,0.005 -0.003,0.0104 -0.005,0.0158 -0.004,0.009 -0.006,0.0169 -0.0104,0.0263 -0.003,0.006 -0.007,0.01 -0.0104,0.0158 -0.008,0.0138 -0.016,0.0279 -0.0263,0.0421 -0.009,0.0121 -0.0212,0.0244 -0.0316,0.0369 -0.0238,0.0285 -0.0511,0.0594 -0.0842,0.0894 -0.002,0.002 -0.003,0.003 -0.005,0.005 -0.0459,0.0412 -0.099,0.0822 -0.16315,0.12631 -0.48823,0.33567 -1.32196,0.90279 -2.27349,1.75249 -0.002,0.002 -0.004,-0.002 -0.005,0 -0.1048,0.0936 -0.20846,0.19414 -0.31576,0.29471 -0.002,0.002 -0.004,-0.002 -0.005,0 -0.43224,0.40519 -0.8841,0.86638 -1.33147,1.38935 -0.0923,0.10787 -0.18172,0.22368 -0.27366,0.33682 -0.0191,0.0235 -0.0388,0.0447 -0.0579,0.0684 -0.002,0.002 -0.004,0.003 -0.005,0.005 -0.22134,0.27585 -0.44277,0.57169 -0.65785,0.87888 -0.21652,0.30928 -0.42642,0.63143 -0.63152,0.9736 -0.002,0.002 -0.004,0.003 -0.005,0.005 -0.40879,0.68273 -0.78806,1.43223 -1.12095,2.25243 -0.002,0.002 -0.004,0.003 -0.005,0.005 -0.24939,0.61518 -1.2841,2.35611 -1.2841,6.68362 -0.11507,0.69048 -2.01292,0.16428 -2.01532,0.14258 -0.005,-0.0462 -0.0111,-0.10305 -0.0158,-0.15261 -0.008,-0.0809 -0.0146,-0.17803 -0.021,-0.26841 -0.002,-0.0257 -0.004,-0.0578 -0.005,-0.0842 -0.007,-0.10421 -0.0109,-0.21464 -0.0158,-0.33156 -0.002,-0.0285 -0.004,-0.0602 -0.005,-0.0895 -0.002,-0.0324 0.002,-0.0719 0,-0.10525 -0.005,-0.15255 -0.01,-0.3158 -0.0106,-0.48943 -0.002,-0.21359 0,-0.44163 0.005,-0.68942 4e-5,-0.002 -3e-5,-0.004 0,-0.005 0.005,-0.21662 0.0111,-0.45561 0.0211,-0.69995 0.002,-0.0326 0.004,-0.0721 0.005,-0.10525 0.0123,-0.28607 0.027,-0.59022 0.0473,-0.91571 0.0103,-0.16442 0.023,-0.32425 0.0368,-0.48417 0.004,-0.0409 0.007,-0.0805 0.0104,-0.12105 0.0109,-0.11684 0.0241,-0.23286 0.0368,-0.34732 0.002,-0.009 0.004,-0.0173 0.005,-0.0263 0.0162,-0.14343 0.0283,-0.28652 0.0474,-0.42628 0.005,-0.0391 0.0103,-0.0769 0.0158,-0.11577 0.016,-0.11183 0.0349,-0.2168 0.0526,-0.3263 0.0207,-0.12779 0.0401,-0.25424 0.0632,-0.37891 0.003,-0.0179 0.007,-0.0348 0.0104,-0.0526 0.0385,-0.20411 0.0818,-0.40408 0.1263,-0.59997 0.002,-0.009 0.003,-0.0176 0.005,-0.0263 0.0155,-0.0679 0.0311,-0.13308 0.0474,-0.19999 0.0369,-0.15209 0.0753,-0.30017 0.11576,-0.44734 0.0577,-0.21013 0.11979,-0.41529 0.1842,-0.61572 0.0491,-0.15283 0.0999,-0.30522 0.15261,-0.4526 0.003,-0.009 0.007,-0.0174 0.0106,-0.0263 0.0327,-0.0908 0.066,-0.17959 0.1,-0.26839 0.007,-0.0194 0.0136,-0.0386 0.0211,-0.0579 0.0448,-0.11556 0.0899,-0.22991 0.13683,-0.34208 0.0647,-0.15452 0.13159,-0.3043 0.19998,-0.4526 0.0128,-0.0278 0.0239,-0.0566 0.0368,-0.0842 0.0187,-0.0398 0.039,-0.0764 0.0579,-0.11578 0.0639,-0.13301 0.12804,-0.26135 0.19471,-0.38944 0.0401,-0.0771 0.08,-0.15097 0.12105,-0.2263 0.0474,-0.087 0.0936,-0.17312 0.1421,-0.25787 0.007,-0.0123 0.014,-0.0245 0.0211,-0.0368 0.0894,-0.15507 0.18072,-0.30482 0.27366,-0.45258 0.0587,-0.0933 0.119,-0.18314 0.17892,-0.27366 0.0304,-0.0459 0.0588,-0.0917 0.0895,-0.13685 0.0521,-0.0767 0.105,-0.15151 0.15788,-0.22629 0.004,-0.005 0.007,-0.0106 0.0104,-0.0158 0.1045,-0.14737 0.21393,-0.29154 0.32104,-0.43155 0.013,-0.0168 0.0239,-0.0359 0.0368,-0.0526 0.0246,-0.0319 0.0489,-0.0632 0.0737,-0.0948 0.10173,-0.12977 0.2019,-0.25515 0.30523,-0.37891 0.1271,-0.15228 0.25553,-0.29827 0.38419,-0.44207 0.25727,-0.28756 0.51593,-0.55803 0.77361,-0.81571 0.0479,-0.0479 0.0969,-0.0957 0.14735,-0.14209 0.0174,-0.0158 0.0349,-0.0318 0.0526,-0.0474 0.0342,-0.0301 0.0699,-0.0602 0.10525,-0.0895 0.0359,-0.0298 0.073,-0.0602 0.11051,-0.0895 0.0138,-0.0108 0.0282,-0.0209 0.0421,-0.0316 0.005,-0.004 0.0108,-0.007 0.0158,-0.0104 0.0559,-0.0424 0.11036,-0.0858 0.16841,-0.1263 0.002,0 0.004,0 0.005,0 0.0276,-0.0194 0.0562,-0.0389 0.0842,-0.0579 0.05,-0.0335 0.10128,-0.067 0.15263,-0.1 0.0419,-0.0264 0.0836,-0.0535 0.12631,-0.0789 0.0397,-0.0239 0.0808,-0.0457 0.12103,-0.0684 0.0633,-0.0359 0.12491,-0.0712 0.18946,-0.10525 0.0209,-0.0111 0.0422,-0.0206 0.0631,-0.0316 0.17157,-0.0893 0.34887,-0.17114 0.52627,-0.24736 0.0108,-0.005 0.0207,-0.0113 0.0316,-0.0158 0.34505,-0.14651 0.69448,-0.26229 1.03675,-0.35786 0.28277,-0.079 0.55973,-0.14641 0.82098,-0.18946 0.0456,-0.008 0.0871,-0.014 0.13156,-0.021 0.0701,-0.0111 0.13834,-0.0177 0.20525,-0.0263 0.0322,-0.004 0.0634,-0.007 0.0947,-0.0104 0.0614,-0.007 0.12061,-0.016 0.17893,-0.0211 0.0253,-0.002 0.0491,-0.004 0.0737,-0.005 0.10896,-0.007 0.21618,-0.0118 0.31049,-0.0104 z" style="color: rgb(0, 0, 0); fill: rgb(68, 142, 18); fill-opacity: 1; fill-rule: nonzero; stroke: rgb(18, 18, 18); stroke-width: 2.2652; stroke-linecap: round; stroke-linejoin: round; stroke-miterlimit: 4; stroke-opacity: 1; stroke-dasharray: none; stroke-dashoffset: 37.6; marker: none; visibility: visible; display: inline; overflow: visible;"/>
        <path sodipodi:nodetypes="cssssscc" inkscape:connector-curvature="0" id="path30856" d="m 146.0509,-202.57046 c 0.1085,-9.33088 6.34718,-13.45384 8.08314,-14.64732 0.25098,-0.17255 0.35909,-0.32468 0.35416,-0.45247 -0.004,-0.0924 -0.22923,-0.54607 -0.33967,-0.61152 -0.79347,-0.47025 -3.89144,0.16699 -5.43941,1.71498 -2.06146,2.06148 -4.20415,4.99273 -4.55695,10.19887 -0.37528,5.53788 1.55555,6.51563 1.89873,3.79743 z" style="color: rgb(0, 0, 0); fill: rgb(68, 142, 18); fill-opacity: 1; fill-rule: nonzero; stroke: none; stroke-width: 0; marker: none; visibility: visible; display: inline; overflow: visible;"/>
        <path style="color: rgb(0, 0, 0); fill: rgb(68, 142, 18); fill-opacity: 1; fill-rule: nonzero; stroke: none; stroke-width: 0; marker: none; visibility: visible; display: inline; overflow: visible;" d="m 145.67115,-202.57046 c 0.1085,-9.33088 6.40143,-13.99633 8.1374,-15.18981 1.73598,-1.1935 -3.03797,-0.86801 -5.09943,1.19348 -2.06148,2.06146 -4.23145,4.99095 -4.55695,10.19887 -0.32549,5.20793 0.434,5.20793 0.434,5.20793 0.59674,0.29837 0.86798,-0.21699 0.86798,-0.21699 z" id="path30858" inkscape:connector-curvature="0" sodipodi:nodetypes="csssccc"/>
        <path id="path30860" d="m 153.5033,-218.45048 c 0.6936,0.009 0.95624,0.24185 0.30525,0.68942 -1.34398,0.92398 -5.41397,3.93294 -7.23622,9.57285 -0.002,0 -0.004,0 -0.005,0 -1.79334,0.6857 -1.91976,-1.96198 -0.62627,-4.75748 0,-0.002 0,-0.004 0,-0.005 0.008,-0.0147 0.0183,-0.0275 0.0263,-0.0421 0.8083,-1.47186 1.78504,-2.61653 2.74188,-3.57337 1.28841,-1.28843 3.63833,-1.89888 4.79431,-1.88405 z" style="color: rgb(0, 0, 0); fill: rgb(145, 229, 37); fill-opacity: 1; fill-rule: nonzero; stroke: none; stroke-width: 0; marker: none; visibility: visible; display: inline; overflow: visible;" inkscape:connector-curvature="0"/>
      </g>
      <g transform="matrix(1,0,0,0.79136695,-0.46204617,-39.868724)" id="g30862">
        <path style="color: rgb(0, 0, 0); fill: rgb(68, 142, 18); fill-opacity: 1; fill-rule: nonzero; stroke: rgb(18, 18, 18); stroke-width: 2.97422; stroke-linecap: round; stroke-linejoin: round; stroke-miterlimit: 4; stroke-opacity: 1; stroke-dasharray: none; stroke-dashoffset: 37.6; marker: none; visibility: visible; display: inline; overflow: visible;" d="m 114.49667,-223.07817 c -3.02866,8.76179 4.32931,24.10516 4.47021,22.35099 0.36435,-1.27532 1.3955,-8.3544 1.5777,-13.45566 0.1822,-5.10129 -0.66677,-9.69076 -1.75991,-9.50856 -1.67069,3.18546 -4.288,0.61323 -4.288,0.61323 z" id="path30864" inkscape:connector-curvature="0" sodipodi:nodetypes="ccscc"/>
        <path sodipodi:nodetypes="ccscc" inkscape:connector-curvature="0" id="path30866" d="m 114.49667,-223.07817 c -3.02866,8.76179 4.32931,24.10516 4.47021,22.35099 0.36435,-1.27532 1.3955,-8.3544 1.5777,-13.45566 0.1822,-5.10129 -0.66677,-9.69076 -1.75991,-9.50856 -1.67069,3.18546 -4.288,0.61323 -4.288,0.61323 z" style="color: rgb(0, 0, 0); fill: rgb(113, 184, 22); fill-opacity: 1; fill-rule: nonzero; stroke: none; stroke-width: 0; marker: none; visibility: visible; display: inline; overflow: visible;"/>
        <path inkscape:connector-curvature="0" style="opacity: 0.641593; color: rgb(0, 0, 0); fill: rgb(165, 234, 76); fill-opacity: 1; fill-rule: nonzero; stroke: none; stroke-width: 0; marker: none; visibility: visible; display: inline; overflow: visible;" d="m -759.21875,-1200.375 c 3.49264,13.0974 -2.60204,55.0258 -6.53125,52.4062 -2.83242,-1.8883 -9.97573,-14.6574 -13.90625,-27.5312 1.62745,31.3259 19.11003,66.4941 19.53125,61.25 1.37707,-4.8201 5.28012,-31.5634 5.96875,-50.8438 0.59717,-16.7197 -1.73774,-31.9704 -5.0625,-35.2812 z" transform="matrix(0.26458336,0,0,0.26458336,320.08182,94.083721)" id="path30868"/>
        <path inkscape:connector-curvature="0" style="opacity: 0.641593; color: rgb(0, 0, 0); fill: rgb(145, 229, 37); fill-opacity: 1; fill-rule: nonzero; stroke: none; stroke-width: 0; marker: none; visibility: visible; display: inline; overflow: visible;" d="m -760.4375,-1201.0625 c -0.12722,-0.013 -0.24589,0.01 -0.375,0.031 -6.31442,12.0395 -16.1875,2.3124 -16.1875,2.3124 -2.96309,8.5721 -3.29999,18.8029 -2.15625,29.1563 1.63829,-15.8969 4.81529,-26.1724 5.96875,-24.25 1.30974,2.1829 9.16085,1.7454 11.34375,-0.4375 2.18289,-2.1829 2.62776,-4.3704 3.9375,-2.1875 0.28297,0.4716 1.00587,1.7899 1.53125,2.7187 -1.09428,-4.4044 -2.50256,-7.1817 -4.0625,-7.3437 z" transform="matrix(0.26458336,0,0,0.26458336,320.08182,94.083721)" id="path30870"/>
        <path inkscape:connector-curvature="0" style="opacity: 0.641593; color: rgb(0, 0, 0); fill: rgb(68, 142, 18); fill-opacity: 1; fill-rule: nonzero; stroke: none; stroke-width: 0; marker: none; visibility: visible; display: inline; overflow: visible;" d="m -765.5,-1195.8438 c -1.27516,0.6643 -2.57879,0.8816 -3.8125,0.8126 0.32386,19.8642 4.53716,56.9661 5.3125,62.7812 0.87316,6.5486 0.43658,-21.8365 0,-33.1875 -0.3015,-7.8392 -0.62327,-20.0051 -1.5,-30.4063 z" transform="matrix(0.26458336,0,0,0.26458336,320.08182,94.083721)" id="path30872"/>
      </g>
    </g>
  </g>
</svg>