<?xml version="1.0" encoding="UTF-8" standalone="no"?><!-- Created with Inkscape (http://www.inkscape.org/) --><svg xmlns:dc="http://purl.org/dc/elements/1.1/" xmlns:cc="http://creativecommons.org/ns#" xmlns:rdf="http://www.w3.org/1999/02/22-rdf-syntax-ns#" xmlns:svg="http://www.w3.org/2000/svg" xmlns="http://www.w3.org/2000/svg" xmlns:sodipodi="http://sodipodi.sourceforge.net/DTD/sodipodi-0.dtd" xmlns:inkscape="http://www.inkscape.org/namespaces/inkscape" width="181.08331" height="199.82405" viewBox="0 0 47.91162 52.870104" version="1.1" id="svg23489" inkscape:version="0.48.5 r10040" sodipodi:docname="plant_13.svg">
  <defs id="defs23483">
    <clipPath clipPathUnits="userSpaceOnUse" id="clipPath22932">
      <path style="opacity: 0.39823; color: rgb(0, 0, 0); fill: rgb(81, 255, 220); fill-opacity: 1; fill-rule: nonzero; stroke: none; stroke-width: 0; marker: none; visibility: visible; display: inline; overflow: visible;" d="m 544.30169,181.88988 c 0.28587,0.59217 2.59866,1.15837 3.74216,0.1578 0.98015,2.77708 16.86469,0 16.86469,0 l 0,-16.17162 -30.55281,0 0,15.42079 c 0,0 6.65838,3.49263 9.94596,0.59303 z" id="path22934" inkscape:connector-curvature="0" sodipodi:nodetypes="ccccccc"/>
    </clipPath>
    <clipPath clipPathUnits="userSpaceOnUse" id="clipPath22874">
      <path style="opacity: 0.39823; color: rgb(0, 0, 0); fill: rgb(81, 255, 220); fill-opacity: 1; fill-rule: nonzero; stroke: none; stroke-width: 0; marker: none; visibility: visible; display: inline; overflow: visible;" d="m 507.96393,172.04108 c 5.63585,4.14521 4.40861,7.03756 4.24526,7.42553 -0.16336,0.38797 -0.45419,0.84609 -0.55527,0.75946 0,0 -0.23077,1.39392 -0.96715,1.52387 0,0 0.7281,2.05291 -3.23333,2.91054 -3.96143,0.85763 -12.08849,-2.45037 -11.76178,-7.80034 0.32672,-5.34998 9.00511,-7.35111 12.27227,-4.81906 z" id="path22876" inkscape:connector-curvature="0" sodipodi:nodetypes="csccssc"/>
    </clipPath>
    <clipPath clipPathUnits="userSpaceOnUse" id="clipPath22894">
      <path style="opacity: 0.39823; color: rgb(0, 0, 0); fill: rgb(81, 255, 220); fill-opacity: 1; fill-rule: nonzero; stroke: none; stroke-width: 0; marker: none; visibility: visible; display: inline; overflow: visible;" d="m 519.13353,181.84256 c 1.53,1.07862 2.21773,-0.85703 2.00114,-1.06183 0.0817,0.0408 1.9603,0.65343 4.32899,-2.85877 2.36869,-3.51219 0,-9.96483 -8.00455,-11.96597 -8.00454,-2.00113 -11.2717,3.47136 -11.47589,10.16904 -0.2042,6.69767 5.75836,9.27056 9.76064,9.7198 4.00227,0.44923 3.38967,-4.00227 3.38967,-4.00227 z" id="path22896" inkscape:connector-curvature="0" sodipodi:nodetypes="ccssssc"/>
    </clipPath>
    <clipPath clipPathUnits="userSpaceOnUse" id="clipPath23263">
      <path style="opacity: 0.39823; color: rgb(0, 0, 0); fill: rgb(81, 255, 220); fill-opacity: 1; fill-rule: nonzero; stroke: none; stroke-width: 0; marker: none; visibility: visible; display: inline; overflow: visible;" d="m 507.96393,172.04108 c 5.63585,4.14521 4.40861,7.03756 4.24526,7.42553 -0.16336,0.38797 -0.45419,0.84609 -0.55527,0.75946 0,0 -0.23077,1.39392 -0.96715,1.52387 0,0 0.7281,2.05291 -3.23333,2.91054 -3.96143,0.85763 -12.08849,-2.45037 -11.76178,-7.80034 0.32672,-5.34998 9.00511,-7.35111 12.27227,-4.81906 z" id="path23265" inkscape:connector-curvature="0" sodipodi:nodetypes="csccssc"/>
    </clipPath>
    <clipPath clipPathUnits="userSpaceOnUse" id="clipPath22907">
      <path style="opacity: 0.39823; color: rgb(0, 0, 0); fill: rgb(81, 255, 220); fill-opacity: 1; fill-rule: nonzero; stroke: none; stroke-width: 0; marker: none; visibility: visible; display: inline; overflow: visible;" d="m 525.58617,181.98549 c 0.89522,0.98185 2.40724,0.64233 3.04255,0.12252 0.16124,0.72559 12.13955,0.23486 11.90471,0 -0.23482,-0.23483 4.09811,-23.83249 0,-26.19853 -4.09811,-2.36605 -15.11061,0 -21.31822,0 -6.2076,0 -9.48879,8.76153 -8.08444,14.00265 1.40436,5.24112 4.81751,7.15803 7.00687,9.97898 2.18936,2.82095 7.44853,2.09438 7.44853,2.09438 z" id="path22909" inkscape:connector-curvature="0" sodipodi:nodetypes="ccsssssc"/>
    </clipPath>
    <clipPath clipPathUnits="userSpaceOnUse" id="clipPath23269">
      <path style="opacity: 0.39823; color: rgb(0, 0, 0); fill: rgb(81, 255, 220); fill-opacity: 1; fill-rule: nonzero; stroke: none; stroke-width: 0; marker: none; visibility: visible; display: inline; overflow: visible;" d="m 525.58617,181.98549 c 0.89522,0.98185 2.40724,0.64233 3.04255,0.12252 0.16124,0.72559 12.13955,0.23486 11.90471,0 -0.23482,-0.23483 4.09811,-23.83249 0,-26.19853 -4.09811,-2.36605 -15.11061,0 -21.31822,0 -6.2076,0 -9.48879,8.76153 -8.08444,14.00265 1.40436,5.24112 4.81751,7.15803 7.00687,9.97898 2.18936,2.82095 7.44853,2.09438 7.44853,2.09438 z" id="path23271" inkscape:connector-curvature="0" sodipodi:nodetypes="ccsssssc"/>
    </clipPath>
    <clipPath clipPathUnits="userSpaceOnUse" id="clipPath23273">
      <path style="opacity: 0.39823; color: rgb(0, 0, 0); fill: rgb(81, 255, 220); fill-opacity: 1; fill-rule: nonzero; stroke: none; stroke-width: 0; marker: none; visibility: visible; display: inline; overflow: visible;" d="m 507.96393,172.04108 c 5.63585,4.14521 4.40861,7.03756 4.24526,7.42553 -0.16336,0.38797 -0.45419,0.84609 -0.55527,0.75946 0,0 -0.23077,1.39392 -0.96715,1.52387 0,0 0.7281,2.05291 -3.23333,2.91054 -3.96143,0.85763 -12.08849,-2.45037 -11.76178,-7.80034 0.32672,-5.34998 9.00511,-7.35111 12.27227,-4.81906 z" id="path23275" inkscape:connector-curvature="0" sodipodi:nodetypes="csccssc"/>
    </clipPath>
    <clipPath clipPathUnits="userSpaceOnUse" id="clipPath23277">
      <path style="opacity: 0.39823; color: rgb(0, 0, 0); fill: rgb(81, 255, 220); fill-opacity: 1; fill-rule: nonzero; stroke: none; stroke-width: 0; marker: none; visibility: visible; display: inline; overflow: visible;" d="m 519.13353,181.84256 c 1.53,1.07862 2.21773,-0.85703 2.00114,-1.06183 0.0817,0.0408 1.9603,0.65343 4.32899,-2.85877 2.36869,-3.51219 0,-9.96483 -8.00455,-11.96597 -8.00454,-2.00113 -11.2717,3.47136 -11.47589,10.16904 -0.2042,6.69767 5.75836,9.27056 9.76064,9.7198 4.00227,0.44923 3.38967,-4.00227 3.38967,-4.00227 z" id="path23279" inkscape:connector-curvature="0" sodipodi:nodetypes="ccssssc"/>
    </clipPath>
    <clipPath clipPathUnits="userSpaceOnUse" id="clipPath23281">
      <path style="opacity: 0.39823; color: rgb(0, 0, 0); fill: rgb(81, 255, 220); fill-opacity: 1; fill-rule: nonzero; stroke: none; stroke-width: 0; marker: none; visibility: visible; display: inline; overflow: visible;" d="m 525.58617,181.98549 c 0.89522,0.98185 2.40724,0.64233 3.04255,0.12252 0.16124,0.72559 12.13955,0.23486 11.90471,0 -0.23482,-0.23483 4.09811,-23.83249 0,-26.19853 -4.09811,-2.36605 -15.11061,0 -21.31822,0 -6.2076,0 -9.48879,8.76153 -8.08444,14.00265 1.40436,5.24112 4.81751,7.15803 7.00687,9.97898 2.18936,2.82095 7.44853,2.09438 7.44853,2.09438 z" id="path23283" inkscape:connector-curvature="0" sodipodi:nodetypes="ccsssssc"/>
    </clipPath>
    <clipPath clipPathUnits="userSpaceOnUse" id="clipPath23285">
      <path style="opacity: 0.39823; color: rgb(0, 0, 0); fill: rgb(81, 255, 220); fill-opacity: 1; fill-rule: nonzero; stroke: none; stroke-width: 0; marker: none; visibility: visible; display: inline; overflow: visible;" d="m 544.30169,181.88988 c 0.28587,0.59217 2.59866,1.15837 3.74216,0.1578 0.98015,2.77708 16.86469,0 16.86469,0 l 0,-16.17162 -30.55281,0 0,15.42079 c 0,0 6.65838,3.49263 9.94596,0.59303 z" id="path23287" inkscape:connector-curvature="0" sodipodi:nodetypes="ccccccc"/>
    </clipPath>
    <clipPath clipPathUnits="userSpaceOnUse" id="clipPath23289">
      <path style="opacity: 0.39823; color: rgb(0, 0, 0); fill: rgb(81, 255, 220); fill-opacity: 1; fill-rule: nonzero; stroke: none; stroke-width: 0; marker: none; visibility: visible; display: inline; overflow: visible;" d="m 507.96393,172.04108 c 5.63585,4.14521 4.40861,7.03756 4.24526,7.42553 -0.16336,0.38797 -0.45419,0.84609 -0.55527,0.75946 0,0 -0.23077,1.39392 -0.96715,1.52387 0,0 0.7281,2.05291 -3.23333,2.91054 -3.96143,0.85763 -12.08849,-2.45037 -11.76178,-7.80034 0.32672,-5.34998 9.00511,-7.35111 12.27227,-4.81906 z" id="path23291" inkscape:connector-curvature="0" sodipodi:nodetypes="csccssc"/>
    </clipPath>
    <clipPath clipPathUnits="userSpaceOnUse" id="clipPath22919">
      <path style="opacity: 0.39823; color: rgb(0, 0, 0); fill: rgb(81, 255, 220); fill-opacity: 1; fill-rule: nonzero; stroke: none; stroke-width: 0; marker: none; visibility: visible; display: inline; overflow: visible;" d="m 533.24358,180.67863 c -0.16336,1.16393 0.51049,2.00114 2.00114,1.20477 -1.74256,1.5022 -0.71572,1.26164 1.42124,3.05207 2.13697,1.79043 11.4934,0.98185 12.12872,0.5198 0.63531,-0.46205 8.02805,-6.41089 8.0858,-8.66336 0.0578,-2.25248 -1.90593,-15.01651 -5.19801,-17.78878 -3.29208,-2.77228 -16.4604,-0.57756 -19.75248,-0.0578 -3.29208,0.5198 -10.16501,5.71782 -9.93399,5.77558 0.23102,0.0577 2.83003,15.42079 2.77228,15.65181 -0.0578,0.23102 2.42574,4.15842 2.83003,3.92739 0.40429,-0.23102 3.95121,-3.17246 3.95121,-3.17246 0,0 1.59196,0.89865 1.69406,-0.44906 z" id="path22921" inkscape:connector-curvature="0" sodipodi:nodetypes="ccsssssssscc"/>
    </clipPath>
    <clipPath clipPathUnits="userSpaceOnUse" id="clipPath23295">
      <path style="opacity: 0.39823; color: rgb(0, 0, 0); fill: rgb(81, 255, 220); fill-opacity: 1; fill-rule: nonzero; stroke: none; stroke-width: 0; marker: none; visibility: visible; display: inline; overflow: visible;" d="m 525.58617,181.98549 c 0.89522,0.98185 2.40724,0.64233 3.04255,0.12252 0.16124,0.72559 12.13955,0.23486 11.90471,0 -0.23482,-0.23483 4.09811,-23.83249 0,-26.19853 -4.09811,-2.36605 -15.11061,0 -21.31822,0 -6.2076,0 -9.48879,8.76153 -8.08444,14.00265 1.40436,5.24112 4.81751,7.15803 7.00687,9.97898 2.18936,2.82095 7.44853,2.09438 7.44853,2.09438 z" id="path23297" inkscape:connector-curvature="0" sodipodi:nodetypes="ccsssssc"/>
    </clipPath>
    <clipPath clipPathUnits="userSpaceOnUse" id="clipPath23299">
      <path style="opacity: 0.39823; color: rgb(0, 0, 0); fill: rgb(81, 255, 220); fill-opacity: 1; fill-rule: nonzero; stroke: none; stroke-width: 0; marker: none; visibility: visible; display: inline; overflow: visible;" d="m 525.58617,181.98549 c 0.89522,0.98185 2.40724,0.64233 3.04255,0.12252 0.16124,0.72559 12.13955,0.23486 11.90471,0 -0.23482,-0.23483 4.09811,-23.83249 0,-26.19853 -4.09811,-2.36605 -15.11061,0 -21.31822,0 -6.2076,0 -9.48879,8.76153 -8.08444,14.00265 1.40436,5.24112 4.81751,7.15803 7.00687,9.97898 2.18936,2.82095 7.44853,2.09438 7.44853,2.09438 z" id="path23301" inkscape:connector-curvature="0" sodipodi:nodetypes="ccsssssc"/>
    </clipPath>
  </defs>
  <sodipodi:namedview id="base" pagecolor="#7d848b" bordercolor="#666666" borderopacity="1.0" inkscape:pageopacity="0" inkscape:pageshadow="2" inkscape:zoom="0.8098268" inkscape:cx="-283.18369" inkscape:cy="222.12618" inkscape:document-units="px" inkscape:current-layer="layer1" showgrid="false" inkscape:pagecheckerboard="false" showborder="true" units="px" inkscape:window-width="1920" inkscape:window-height="1017" inkscape:window-x="-8" inkscape:window-y="-8" inkscape:window-maximized="1" inkscape:showpageshadow="false" guidetolerance="28" fit-margin-top="8" fit-margin-left="8" fit-margin-right="8" fit-margin-bottom="8">
    <inkscape:grid type="xygrid" id="grid24034" spacingx="1px" spacingy="1px" empspacing="8" visible="true" enabled="true" snapvisiblegridlinesonly="true" originx="-565.53865px" originy="618.43711px"/>
  </sodipodi:namedview>
  <metadata id="metadata23486">
    <rdf:RDF>
      <cc:Work rdf:about="">
        <dc:format>image/svg+xml</dc:format>
        <dc:type rdf:resource="http://purl.org/dc/dcmitype/StillImage"/>
        <dc:title/>
        <cc:license rdf:resource=""/>
        <dc:creator>
          <cc:Agent>
            <dc:title>Robert Brooks</dc:title>
          </cc:Agent>
        </dc:creator>
      </cc:Work>
    </rdf:RDF>
  </metadata>
  <g inkscape:label="Layer 1" inkscape:groupmode="layer" id="layer1" transform="translate(-149.63207,-407.75799)">
    <g id="g38038" transform="translate(-66.19631,-0.08889219)" gds_color="leaves">
      <g id="g36041" transform="matrix(-0.69338048,0,0.09817285,0.90143396,668.35672,592.66613)">
        <g transform="translate(-13.817755,38.417547)" id="g36043">
          <path id="path36045" transform="matrix(0.26458336,0,0,0.26458336,333.89957,55.666174)" d="m 980.3125,-1095 c -5.48715,0.147 -10.82374,1.7693 -15.03125,4.9375 -3.2358,2.4365 -5.40602,5.4834 -6.46875,8.75 -0.36829,1.132 -0.44234,4.7611 -0.4375,8.0625 -1.21949,5.9924 1.04989,12.5424 6.84375,17.5 9.58983,8.2057 25.16405,8.9915 34.78125,1.75 4.1571,-3.1303 6.5237,-7.2652 7.0938,-11.5938 0.01,-0.041 0.023,-0.1104 0.031,-0.1562 0.01,-0.042 0,-0.083 0,-0.125 0.3262,-2.1188 0.1857,-8.5983 -0.062,-10.375 -0.6036,-4.3117 -2.9228,-8.5738 -7,-12.0625 -5.3943,-4.6157 -12.69509,-6.8765 -19.75,-6.6875 z" style="color: rgb(0, 0, 0); fill: rgb(29, 156, 131); fill-opacity: 1; fill-rule: nonzero; stroke: rgb(18, 18, 18); stroke-width: 11.4534; stroke-linejoin: round; stroke-miterlimit: 4; stroke-opacity: 1; stroke-dasharray: none; marker: none; visibility: visible; display: inline; overflow: visible;" inkscape:connector-curvature="0"/>
          <path sodipodi:nodetypes="sssssssss" style="color: rgb(0, 0, 0); fill: rgb(29, 156, 131); fill-opacity: 1; fill-rule: nonzero; stroke: none; stroke-width: 0; marker: none; visibility: visible; display: inline; overflow: visible;" d="m 589.2949,-232.74508 c -0.85614,0.64465 -1.42489,1.44748 -1.70607,2.31176 -0.16741,0.51457 -0.12821,3.03984 -0.0917,3.57756 0.0844,1.24343 0.60934,0.50527 1.78468,1.51096 2.53732,2.17108 6.65699,2.37789 9.20154,0.4619 0.99837,-0.75175 1.65826,-0.35776 1.87473,-1.38632 0.10068,-0.47839 0.0644,-2.33096 -0.004,-2.82062 -0.1597,-1.1408 -0.77875,-2.27029 -1.8575,-3.19334 -2.53732,-2.17109 -6.657,-2.37788 -9.20154,-0.4619 z" id="path36047" inkscape:connector-curvature="0"/>
          <path inkscape:connector-curvature="0" id="path36049" d="m 589.2949,-231.0702 c -2.54456,1.91599 -2.55041,5.22921 -0.0131,7.40028 2.53731,2.1711 6.65699,2.37789 9.20154,0.4619 2.54454,-1.91599 2.5504,-5.2292 0.0131,-7.40028 -2.53732,-2.17109 -6.657,-2.37788 -9.20154,-0.4619 z" style="color: rgb(0, 0, 0); fill: rgb(19, 103, 86); fill-opacity: 1; fill-rule: nonzero; stroke: none; stroke-width: 0; marker: none; visibility: visible; display: inline; overflow: visible;"/>
          <path style="color: rgb(0, 0, 0); fill: rgb(39, 211, 177); fill-opacity: 1; fill-rule: nonzero; stroke: none; stroke-width: 0; marker: none; visibility: visible; display: inline; overflow: visible;" d="m 980.3125,-1092.2188 c -5.48715,0.147 -10.82374,1.8006 -15.03125,4.9688 -3.2358,2.4365 -5.40602,5.4522 -6.46875,8.7188 -0.4021,1.2359 -0.46311,5.4729 -0.4375,8.9687 0.0248,-2.8832 0.12113,-5.7463 0.4375,-6.7187 1.06273,-3.2666 3.23295,-6.3136 6.46875,-8.75 9.61716,-7.2415 25.19138,-6.4557 34.78125,1.75 4.0772,3.4886 6.3964,7.7508 7,12.0624 0.1138,0.8144 0.217,2.6661 0.25,4.5938 0.026,-2.6353 -0.09,-5.6697 -0.25,-6.8125 -0.6036,-4.3117 -2.9228,-8.5738 -7,-12.0625 -5.3943,-4.6157 -12.69509,-6.9077 -19.75,-6.7188 z" transform="matrix(0.26458336,0,0,0.26458336,333.89957,54.925975)" id="path36051" inkscape:connector-curvature="0"/>
        </g>
      </g>
      <g id="g36247" transform="matrix(0.90143396,0,0,0.90143396,-283.40793,587.51053)">
        <g transform="translate(-13.817755,38.417547)" id="g36249">
          <path id="path36251" transform="matrix(0.26458336,0,0,0.26458336,333.89957,55.666174)" d="m 980.3125,-1095 c -5.48715,0.147 -10.82374,1.7693 -15.03125,4.9375 -3.2358,2.4365 -5.40602,5.4834 -6.46875,8.75 -0.36829,1.132 -0.44234,4.7611 -0.4375,8.0625 -1.21949,5.9924 1.04989,12.5424 6.84375,17.5 9.58983,8.2057 25.16405,8.9915 34.78125,1.75 4.1571,-3.1303 6.5237,-7.2652 7.0938,-11.5938 0.01,-0.041 0.023,-0.1104 0.031,-0.1562 0.01,-0.042 0,-0.083 0,-0.125 0.3262,-2.1188 0.1857,-8.5983 -0.062,-10.375 -0.6036,-4.3117 -2.9228,-8.5738 -7,-12.0625 -5.3943,-4.6157 -12.69509,-6.8765 -19.75,-6.6875 z" style="color: rgb(0, 0, 0); fill: rgb(29, 156, 131); fill-opacity: 1; fill-rule: nonzero; stroke: rgb(18, 18, 18); stroke-width: 10; stroke-linejoin: round; stroke-miterlimit: 4; stroke-opacity: 1; stroke-dasharray: none; marker: none; visibility: visible; display: inline; overflow: visible;" inkscape:connector-curvature="0"/>
          <path sodipodi:nodetypes="sssssssss" style="color: rgb(0, 0, 0); fill: rgb(29, 156, 131); fill-opacity: 1; fill-rule: nonzero; stroke: none; stroke-width: 0; marker: none; visibility: visible; display: inline; overflow: visible;" d="m 589.2949,-232.74508 c -0.85614,0.64465 -1.42489,1.44748 -1.70607,2.31176 -0.16741,0.51457 -0.12821,3.03984 -0.0917,3.57756 0.0844,1.24343 0.60934,0.50527 1.78468,1.51096 2.53732,2.17108 6.65699,2.37789 9.20154,0.4619 0.99837,-0.75175 1.65826,-0.35776 1.87473,-1.38632 0.10068,-0.47839 0.0644,-2.33096 -0.004,-2.82062 -0.1597,-1.1408 -0.77875,-2.27029 -1.8575,-3.19334 -2.53732,-2.17109 -6.657,-2.37788 -9.20154,-0.4619 z" id="path36253" inkscape:connector-curvature="0"/>
          <path inkscape:connector-curvature="0" id="path36255" d="m 589.2949,-231.0702 c -2.54456,1.91599 -2.55041,5.22921 -0.0131,7.40028 2.53731,2.1711 6.65699,2.37789 9.20154,0.4619 2.54454,-1.91599 2.5504,-5.2292 0.0131,-7.40028 -2.53732,-2.17109 -6.657,-2.37788 -9.20154,-0.4619 z" style="color: rgb(0, 0, 0); fill: rgb(29, 156, 131); fill-opacity: 1; fill-rule: nonzero; stroke: none; stroke-width: 0; marker: none; visibility: visible; display: inline; overflow: visible;"/>
          <path style="color: rgb(0, 0, 0); fill: rgb(39, 211, 177); fill-opacity: 1; fill-rule: nonzero; stroke: none; stroke-width: 0; marker: none; visibility: visible; display: inline; overflow: visible;" d="m 980.3125,-1092.2188 c -5.48715,0.147 -10.82374,1.8006 -15.03125,4.9688 -3.2358,2.4365 -5.40602,5.4522 -6.46875,8.7188 -0.4021,1.2359 -0.46311,5.4729 -0.4375,8.9687 0.0248,-2.8832 0.12113,-5.7463 0.4375,-6.7187 1.06273,-3.2666 3.23295,-6.3136 6.46875,-8.75 9.61716,-7.2415 25.19138,-6.4557 34.78125,1.75 4.0772,3.4886 6.3964,7.7508 7,12.0624 0.1138,0.8144 0.217,2.6661 0.25,4.5938 0.026,-2.6353 -0.09,-5.6697 -0.25,-6.8125 -0.6036,-4.3117 -2.9228,-8.5738 -7,-12.0625 -5.3943,-4.6157 -12.69509,-6.9077 -19.75,-6.7188 z" transform="matrix(0.26458336,0,0,0.26458336,333.89957,54.925975)" id="path36257" inkscape:connector-curvature="0"/>
        </g>
      </g>
      <g id="g36229" transform="matrix(0.94213271,-0.21028892,0.21028892,0.94213271,-193.1612,783.15645)">
        <path id="path36231" transform="matrix(0.26458336,0,0,0.26458336,320.08182,94.083721)" d="m 729,-1362.1875 c -2.09086,-0.1148 -5.49165,1.784 -9.71875,5.7187 -8.45424,7.8696 -16.98935,20.9051 -19.0625,29.125 -0.70433,2.7927 -0.59419,4.6729 0.21875,5.625 0.01,0.011 0.0215,0.02 0.0312,0.031 0.75281,2.9165 3.65498,4.4614 6,3.8437 2.07919,-0.5476 4.95374,-2.3756 8.34375,-5.5312 8.45424,-7.8696 17.11177,-19.013 19.46875,-27.1562 0.92121,-3.1832 1.76094,-6.3501 0.59375,-7.125 -0.65399,-0.4343 -2.6216,-2.8015 -4.28125,-3.7813 -0.0121,-0.01 -0.0192,-0.024 -0.0312,-0.031 -0.38125,-0.4278 -0.90911,-0.6828 -1.5625,-0.7187 z" style="color: rgb(0, 0, 0); fill: rgb(18, 98, 82); fill-opacity: 1; fill-rule: nonzero; stroke: rgb(18, 18, 18); stroke-width: 10; stroke-miterlimit: 4; stroke-opacity: 1; stroke-dasharray: none; marker: none; visibility: visible; display: inline; overflow: visible;" inkscape:connector-curvature="0"/>
        <path sodipodi:nodetypes="cccscsccc" inkscape:connector-curvature="0" id="path36233" transform="matrix(0.26458336,0,0,0.26458336,320.08182,94.083721)" d="m 729.24852,-1361.8587 c -0.2459,0.024 0.69192,0.2279 0.43898,0.3587 -1.78707,0.9224 -4.64753,6.1583 -7.0625,8.4062 -8.4542,7.8696 -20.05189,19.9364 -22.125,28.1563 -1.24184,4.9239 2.86273,7.9118 5.96875,7.0937 2.07919,-0.5476 4.95374,-2.3756 8.34375,-5.5312 8.45424,-7.8696 17.11196,-19.0183 19.46894,-27.1615 0.92121,-3.1831 1.75945,-6.3321 0.59226,-7.107 -0.84509,-0.5611 -3.9039,-4.3817 -5.62518,-4.2152 z" style="color: rgb(0, 0, 0); fill: rgb(18, 98, 82); fill-opacity: 1; fill-rule: nonzero; stroke: none; stroke-width: 0; marker: none; visibility: visible; display: inline; overflow: visible;"/>
        <path inkscape:connector-curvature="0" id="path36235" d="m 513.4457,-264.64613 c -0.54852,2.17486 -2.8065,5.62584 -5.04335,7.708 -2.23685,2.08216 -3.6055,2.007 -3.05699,-0.16785 0.54852,-2.17485 2.8065,-5.62583 5.04335,-7.70798 2.23684,-2.08216 3.60551,-2.00701 3.05699,0.16783 z" style="color: rgb(0, 0, 0); fill: rgb(32, 174, 146); fill-opacity: 1; fill-rule: nonzero; stroke: none; stroke-width: 0; marker: none; visibility: visible; display: inline; overflow: visible;"/>
        <path transform="matrix(0.26458336,0,0,0.26458336,320.08182,94.083721)" inkscape:connector-curvature="0" id="path36237" d="m 725.803,-1358.3949 c -10.08884,10.6824 -20.3755,29.4753 -18.3973,27.1014 1.97821,-2.3738 14.44089,-19.1885 17.80384,-23.9362 3.36294,-4.7477 3.36294,-5.9346 3.36294,-5.9346 z" style="color: rgb(0, 0, 0); fill: rgb(18, 98, 82); fill-opacity: 1; fill-rule: nonzero; stroke: none; stroke-width: 0; marker: none; visibility: visible; display: inline; overflow: visible;"/>
        <path id="path36239" transform="matrix(0.26458336,0,0,0.26458336,320.08182,94.083721)" d="m 729,-1362.1875 c -2.09086,-0.1148 -5.49165,1.784 -9.71875,5.7187 -4.57087,4.2548 -9.16617,10.0194 -12.75,15.7188 3.13271,-4.475 6.76021,-8.7915 10.375,-12.1562 8.4542,-7.8696 13.6044,-7.5949 11.53125,0.625 -0.95941,3.804 -3.29643,8.6521 -6.375,13.5312 4.22609,-6.02 7.55691,-12.3632 8.75,-17.0938 1.03657,-4.1099 0.27836,-6.2289 -1.8125,-6.3437 z" style="color: rgb(0, 0, 0); fill: rgb(39, 211, 177); fill-opacity: 1; fill-rule: nonzero; stroke: none; stroke-width: 0; marker: none; visibility: visible; display: inline; overflow: visible;" inkscape:connector-curvature="0"/>
      </g>
      <g transform="matrix(0.65154312,0,0,0.65154312,-154.16135,580.10543)" id="g36267">
        <path style="color: rgb(0, 0, 0); fill: rgb(29, 156, 131); fill-opacity: 1; fill-rule: nonzero; stroke: rgb(18, 18, 18); stroke-width: 9.57292; stroke-linejoin: round; stroke-miterlimit: 4; stroke-opacity: 1; stroke-dasharray: none; marker: none; visibility: visible; display: inline; overflow: visible;" d="m 1085.6875,-1238.875 c -1.6639,-0.043 -3.0139,0.4156 -4,1.3438 -0.4526,0.426 -4.6448,3.7832 -4.9375,4.4062 -1.8223,1.8279 -2.2835,5.3503 -1.0625,10.4062 2.6318,10.8985 12.3303,25.2097 22.6875,34 l 7.5312,-4.0624 c 0,0 0.3258,5.0931 0.3438,9.5312 4.5489,2.3514 8.1129,2.6227 10.25,1 0.1763,-0.1338 0.3747,-0.2781 0.5312,-0.4375 0.011,-0.011 0.022,-0.021 0.031,-0.031 0.01,-0.01 0.023,-0.023 0.031,-0.031 1.2782,-1.1282 3.4015,-3.2586 3.7187,-3.4375 2.6133,-1.4742 3.514,-5.2749 2.0937,-11.1563 -2.9585,-12.2507 -14.8485,-28.8153 -26.5624,-37 -4.2423,-2.9639 -7.8834,-4.4585 -10.6563,-4.5312 z" transform="matrix(0.27638728,0,0,0.27638728,307.1059,108.02665)" id="path36269" inkscape:connector-curvature="0"/>
        <path style="color: rgb(0, 0, 0); fill: rgb(29, 156, 131); fill-opacity: 1; fill-rule: nonzero; stroke: none; stroke-width: 0; marker: none; visibility: visible; display: inline; overflow: visible;" d="m 1084.875,-1238.8438 c -1.2988,0.1017 -2.3658,0.5703 -3.1875,1.3438 -0.4527,0.4261 -4.6448,3.752 -4.9375,4.375 -0.9413,2.0036 2.8009,2.1947 3.75,6.125 2.7374,11.3351 13.0899,26.3648 23.9062,35.0312 l 1.5,-0.8124 c 0,0 0.038,0.9927 0.094,2 0.3512,0.26 0.7114,0.5359 1.0625,0.7812 5.1738,3.615 6.221,8.5842 9.125,7.9375 0.5145,-0.1147 4.1991,-3.8847 4.625,-4.125 2.6132,-1.4742 3.514,-5.275 2.0937,-11.1563 -2.9584,-12.2507 -14.8485,-28.8154 -26.5624,-37 -4.6664,-3.2603 -8.6114,-4.7236 -11.4688,-4.5 z" transform="matrix(0.27638728,0,0,0.27638728,307.1059,108.02665)" id="path36271" inkscape:connector-curvature="0"/>
        <path inkscape:connector-curvature="0" style="color: rgb(0, 0, 0); fill: rgb(39, 211, 177); fill-opacity: 1; fill-rule: nonzero; stroke: none; stroke-width: 0; marker: none; visibility: visible; display: inline; overflow: visible;" d="m 1085.0938,-1241.4375 c -1.7381,-0.045 -3.1575,0.4367 -4.1876,1.4063 -0.4728,0.4451 -4.8504,3.9429 -5.1562,4.5937 -0.67,1.426 0.914,1.9959 2.3125,3.5 1.4229,-1.2754 3.6391,-3.0335 3.9687,-3.3437 2.7469,-2.5856 8.1911,-1.6415 15.2813,3.3124 11.4718,8.0154 23.1374,23.7104 27.0937,36.1876 -0.1126,-0.7292 -0.2434,-1.4778 -0.4374,-2.2813 -3.0905,-12.7973 -15.5135,-30.1065 -27.75,-38.6563 -4.4315,-3.0962 -8.2284,-4.6428 -11.125,-4.7187 z" transform="matrix(0.26458336,0,0,0.26458336,320.08182,94.083721)" id="path36273"/>
        <path style="color: rgb(0, 0, 0); fill: rgb(19, 103, 86); fill-opacity: 1; fill-rule: nonzero; stroke: none; stroke-width: 0; marker: none; visibility: visible; display: inline; overflow: visible;" d="m 1080.5625,-1234.5625 c -4.6793,0.044 -6.7553,4.187 -4.9063,11.8437 2.6335,10.9049 12.3543,25.2118 22.7188,34 l 7.5312,-4.0624 c 0,0 0.3243,5.0692 0.3438,9.5 9.2625,4.8072 14.4469,0.9981 11.8438,-9.7813 -2.9585,-12.2507 -14.8486,-28.8154 -26.5626,-37 -4.3927,-3.0692 -8.1611,-4.5265 -10.9687,-4.5 z" transform="matrix(0.27638728,0,0,0.27638728,307.1059,108.02665)" id="path36275" inkscape:connector-curvature="0"/>
      </g>
    </g>
    <path style="opacity: 0.25; color: rgb(0, 0, 0); fill: rgb(0, 0, 0); fill-opacity: 1; fill-rule: nonzero; stroke: none; stroke-width: 0; marker: none; visibility: visible; display: inline; overflow: visible;" d="m 175.08181,445.22442 c -5.62233,0 -10.24941,1.57335 -10.84791,3.59667 -3.21668,0.14861 -5.72162,1.32288 -5.72162,2.75332 0,1.53109 2.86724,2.77813 6.40788,2.77813 0.30465,0 0.59964,-0.0153 0.89297,-0.0331 -0.57112,0.82709 -0.95085,1.65177 -0.95085,2.10839 0,1.14832 1.47259,2.0836 3.29076,2.0836 0.79179,0 2.54427,-0.60016 4.27467,-1.36426 1.12301,0.68958 2.80363,1.13275 4.67982,1.13275 2.01482,0 3.79568,-0.51047 4.91132,-1.28985 0.20988,0.006 0.41495,0.0165 0.62839,0.0165 5.16741,0 9.35963,-1.88827 9.35963,-4.2168 0,-1.07281 -0.89204,-2.05051 -2.35644,-2.79466 0.17957,-0.28729 0.28112,-0.58767 0.28112,-0.90123 0,-1.81817 -3.23923,-3.29076 -7.22643,-3.29076 -0.55831,0 -1.09868,0.028 -1.62058,0.0827 -1.72274,-0.42114 -3.7841,-0.66145 -6.00273,-0.66145 z" id="path37699" inkscape:connector-curvature="0" gds_color="shadow" gds_switchable="shadow" gds_opacity="shadow"/>
    <g id="g38477" gds_color="stalks">
      <g id="g36241" transform="matrix(-0.83600767,0,0,0.83600767,668.46151,610.0511)">
        <path style="color: rgb(0, 0, 0); fill: rgb(39, 211, 177); fill-opacity: 1; fill-rule: nonzero; stroke: rgb(18, 18, 18); stroke-width: 10; stroke-linecap: round; stroke-linejoin: round; stroke-miterlimit: 4; stroke-opacity: 1; stroke-dasharray: none; stroke-dashoffset: 37.6; marker: none; visibility: visible; display: inline; overflow: visible;" d="m 1015.6099,-1193.6105 c 6.3302,24.5298 6.0599,92.8443 6.4148,95.6193 0.4453,3.4816 2.5216,-2.8559 2.155,-7.5251 -0.1061,-1.3509 3.3332,12.6987 4.2039,7.9745 0.4808,-7.6587 -1.3002,-60.0654 -5.2566,-77.0779 -3.9564,-17.0126 -3.5607,-21.3646 -7.1215,-22.9472 -3.5608,-1.5825 -0.3956,3.9564 -0.3956,3.9564 z" id="path36243" inkscape:connector-curvature="0" transform="matrix(0.26458336,0,0,0.26458336,320.08182,94.083721)" sodipodi:nodetypes="csscscc"/>
        <path transform="matrix(0.26458336,0,0,0.26458336,320.08182,94.083721)" inkscape:connector-curvature="0" id="path36245" d="m 1015.6099,-1193.6105 c 6.3302,24.5298 6.3276,98.5585 6.3159,101.3561 -0.013,3.2256 6.481,2.9663 6.4578,0.054 0.1841,-7.9554 -1.3002,-65.4066 -5.2566,-82.4191 -3.9564,-17.0126 -3.5607,-21.3646 -7.1215,-22.9472 -3.5608,-1.5825 -0.3956,3.9564 -0.3956,3.9564 z" style="color: rgb(0, 0, 0); fill: rgb(39, 211, 177); fill-opacity: 1; fill-rule: nonzero; stroke: none; stroke-width: 0; marker: none; visibility: visible; display: inline; overflow: visible;" sodipodi:nodetypes="cscscc"/>
      </g>
      <g id="g38372">
        <g transform="matrix(-0.64138554,-0.04363951,-0.04363951,0.64138554,537.74917,601.49892)" id="g36569">
          <path style="color: rgb(0, 0, 0); fill: rgb(39, 211, 177); fill-opacity: 1; fill-rule: nonzero; stroke: rgb(18, 18, 18); stroke-width: 10; stroke-linecap: round; stroke-linejoin: round; stroke-miterlimit: 4; stroke-opacity: 1; stroke-dasharray: none; stroke-dashoffset: 37.6; marker: none; visibility: visible; display: inline; overflow: visible;" d="m 1015.6099,-1193.6105 c 6.3302,24.5298 6.0599,92.8443 6.4148,95.6193 0.4453,3.4816 2.5216,-2.8559 2.155,-7.5251 -0.1061,-1.3509 3.3332,12.6987 4.2039,7.9745 0.4808,-7.6587 -1.3002,-60.0654 -5.2566,-77.0779 -3.9564,-17.0126 -3.5607,-21.3646 -7.1215,-22.9472 -3.5608,-1.5825 -0.3956,3.9564 -0.3956,3.9564 z" id="path36571" inkscape:connector-curvature="0" transform="matrix(0.26458336,0,0,0.26458336,320.08182,94.083721)" sodipodi:nodetypes="csscscc"/>
          <path transform="matrix(0.26458336,0,0,0.26458336,320.08182,94.083721)" inkscape:connector-curvature="0" id="path36573" d="m 1015.6099,-1193.6105 c 6.3302,24.5298 6.3276,98.5585 6.3159,101.3561 -0.013,3.2256 6.481,2.9663 6.4578,0.054 0.1841,-7.9554 -1.3002,-65.4066 -5.2566,-82.4191 -3.9564,-17.0126 -3.5607,-21.3646 -7.1215,-22.9472 -3.5608,-1.5825 -0.3956,3.9564 -0.3956,3.9564 z" style="color: rgb(0, 0, 0); fill: rgb(39, 211, 177); fill-opacity: 1; fill-rule: nonzero; stroke: none; stroke-width: 0; marker: none; visibility: visible; display: inline; overflow: visible;" sodipodi:nodetypes="cscscc"/>
          <path sodipodi:nodetypes="cccccc" inkscape:connector-curvature="0" id="path36575" transform="matrix(0.37974498,0.02583763,-0.02583763,0.37974498,216.99078,279.73729)" d="m 893.1875,-1324.8438 c 0.6615,7.7409 1.08612,13.4848 1.125,14.0938 0.14319,2.2377 4.62226,1.7374 4.46875,-0.2812 -0.0335,0.033 -0.16938,-2.513 -0.34375,-4.5938 -0.71618,0.1997 -1.45944,0.3031 -2.09375,0.031 -1.24651,-0.5342 -2.15694,-3.8162 -3.15625,-9.25 z" style="color: rgb(0, 0, 0); fill: rgb(29, 156, 131); fill-opacity: 1; fill-rule: nonzero; stroke: none; stroke-width: 0; marker: none; visibility: visible; display: inline; overflow: visible;"/>
        </g>
        <g transform="matrix(0.7849874,-0.0534101,0.0534101,0.7849874,-282.63144,636.71686)" id="g36259">
          <path style="color: rgb(0, 0, 0); fill: rgb(39, 211, 177); fill-opacity: 1; fill-rule: nonzero; stroke: rgb(18, 18, 18); stroke-width: 10; stroke-linecap: round; stroke-linejoin: round; stroke-miterlimit: 4; stroke-opacity: 1; stroke-dasharray: none; stroke-dashoffset: 37.6; marker: none; visibility: visible; display: inline; overflow: visible;" d="m 1015.6099,-1193.6105 c 6.3302,24.5298 6.0599,92.8443 6.4148,95.6193 0.4453,3.4816 2.5216,-2.8559 2.155,-7.5251 -0.1061,-1.3509 3.3332,12.6987 4.2039,7.9745 0.4808,-7.6587 -1.3002,-60.0654 -5.2566,-77.0779 -3.9564,-17.0126 -3.5607,-21.3646 -7.1215,-22.9472 -3.5608,-1.5825 -0.3956,3.9564 -0.3956,3.9564 z" id="path36261" inkscape:connector-curvature="0" transform="matrix(0.26458336,0,0,0.26458336,320.08182,94.083721)" sodipodi:nodetypes="csscscc"/>
          <path transform="matrix(0.26458336,0,0,0.26458336,320.08182,94.083721)" inkscape:connector-curvature="0" id="path36263" d="m 1015.6099,-1193.6105 c 6.3302,24.5298 6.3276,98.5585 6.3159,101.3561 -0.013,3.2256 6.481,2.9663 6.4578,0.054 0.1841,-7.9554 -1.3002,-65.4066 -5.2566,-82.4191 -3.9564,-17.0126 -3.5607,-21.3646 -7.1215,-22.9472 -3.5608,-1.5825 -0.3956,3.9564 -0.3956,3.9564 z" style="color: rgb(0, 0, 0); fill: rgb(39, 211, 177); fill-opacity: 1; fill-rule: nonzero; stroke: none; stroke-width: 0; marker: none; visibility: visible; display: inline; overflow: visible;" sodipodi:nodetypes="cscscc"/>
          <path sodipodi:nodetypes="cccccc" inkscape:connector-curvature="0" id="path36265" transform="matrix(0.37974498,0.02583763,-0.02583763,0.37974498,216.99078,279.73729)" d="m 893.1875,-1324.8438 c 0.6615,7.7409 1.08612,13.4848 1.125,14.0938 0.14319,2.2377 4.62226,1.7374 4.46875,-0.2812 -0.0335,0.033 -0.16938,-2.513 -0.34375,-4.5938 -0.71618,0.1997 -1.45944,0.3031 -2.09375,0.031 -1.24651,-0.5342 -2.15694,-3.8162 -3.15625,-9.25 z" style="color: rgb(0, 0, 0); fill: rgb(29, 156, 131); fill-opacity: 1; fill-rule: nonzero; stroke: none; stroke-width: 0; marker: none; visibility: visible; display: inline; overflow: visible;"/>
        </g>
        <g id="g36561" transform="matrix(0.7849874,-0.0534101,0.0534101,0.7849874,-271.37541,635.17656)">
          <path sodipodi:nodetypes="csscscc" transform="matrix(0.26458336,0,0,0.26458336,320.08182,94.083721)" inkscape:connector-curvature="0" id="path36563" d="m 1015.6099,-1193.6105 c 6.3302,24.5298 6.0599,92.8443 6.4148,95.6193 0.4453,3.4816 2.5216,-2.8559 2.155,-7.5251 -0.1061,-1.3509 3.3332,12.6987 4.2039,7.9745 0.4808,-7.6587 -1.3002,-60.0654 -5.2566,-77.0779 -3.9564,-17.0126 -3.5607,-21.3646 -7.1215,-22.9472 -3.5608,-1.5825 -0.3956,3.9564 -0.3956,3.9564 z" style="color: rgb(0, 0, 0); fill: rgb(39, 211, 177); fill-opacity: 1; fill-rule: nonzero; stroke: rgb(18, 18, 18); stroke-width: 10; stroke-linecap: round; stroke-linejoin: round; stroke-miterlimit: 4; stroke-opacity: 1; stroke-dasharray: none; stroke-dashoffset: 37.6; marker: none; visibility: visible; display: inline; overflow: visible;"/>
          <path sodipodi:nodetypes="cscscc" style="color: rgb(0, 0, 0); fill: rgb(39, 211, 177); fill-opacity: 1; fill-rule: nonzero; stroke: none; stroke-width: 0; marker: none; visibility: visible; display: inline; overflow: visible;" d="m 1015.6099,-1193.6105 c 6.3302,24.5298 6.3276,98.5585 6.3159,101.3561 -0.013,3.2256 6.481,2.9663 6.4578,0.054 0.1841,-7.9554 -1.3002,-65.4066 -5.2566,-82.4191 -3.9564,-17.0126 -3.5607,-21.3646 -7.1215,-22.9472 -3.5608,-1.5825 -0.3956,3.9564 -0.3956,3.9564 z" id="path36565" inkscape:connector-curvature="0" transform="matrix(0.26458336,0,0,0.26458336,320.08182,94.083721)"/>
          <path style="color: rgb(0, 0, 0); fill: rgb(29, 156, 131); fill-opacity: 1; fill-rule: nonzero; stroke: none; stroke-width: 0; marker: none; visibility: visible; display: inline; overflow: visible;" d="m 893.1875,-1324.8438 c 0.6615,7.7409 1.08612,13.4848 1.125,14.0938 0.14319,2.2377 4.62226,1.7374 4.46875,-0.2812 -0.0335,0.033 -0.16938,-2.513 -0.34375,-4.5938 -0.71618,0.1997 -1.45944,0.3031 -2.09375,0.031 -1.24651,-0.5342 -2.15694,-3.8162 -3.15625,-9.25 z" transform="matrix(0.37974498,0.02583763,-0.02583763,0.37974498,216.99078,279.73729)" id="path36567" inkscape:connector-curvature="0" sodipodi:nodetypes="cccccc"/>
        </g>
        <g id="g36277" transform="matrix(-0.7849874,-0.0534101,-0.0534101,0.7849874,632.54454,636.3614)">
          <path sodipodi:nodetypes="csscscc" transform="matrix(0.26458336,0,0,0.26458336,320.08182,94.083721)" inkscape:connector-curvature="0" id="path36279" d="m 1015.6099,-1193.6105 c 6.3302,24.5298 6.0599,92.8443 6.4148,95.6193 0.4453,3.4816 2.5216,-2.8559 2.155,-7.5251 -0.1061,-1.3509 3.3332,12.6987 4.2039,7.9745 0.4808,-7.6587 -1.3002,-60.0654 -5.2566,-77.0779 -3.9564,-17.0126 -3.5607,-21.3646 -7.1215,-22.9472 -3.5608,-1.5825 -0.3956,3.9564 -0.3956,3.9564 z" style="color: rgb(0, 0, 0); fill: rgb(39, 211, 177); fill-opacity: 1; fill-rule: nonzero; stroke: rgb(18, 18, 18); stroke-width: 10; stroke-linecap: round; stroke-linejoin: round; stroke-miterlimit: 4; stroke-opacity: 1; stroke-dasharray: none; stroke-dashoffset: 37.6; marker: none; visibility: visible; display: inline; overflow: visible;"/>
          <path sodipodi:nodetypes="cscsccc" style="color: rgb(0, 0, 0); fill: rgb(39, 211, 177); fill-opacity: 1; fill-rule: nonzero; stroke: none; stroke-width: 0; marker: none; visibility: visible; display: inline; overflow: visible;" d="m 1015.6099,-1193.6105 c 6.3302,24.5298 6.191,100.5661 6.1793,103.3637 -0.013,3.2256 6.481,2.9663 6.4578,0.054 0.1841,-7.9554 -1.1636,-67.4142 -5.12,-84.4267 -3.9564,-17.0126 -3.5607,-21.3646 -7.1215,-22.9472 -3.5608,-1.5825 -0.3956,3.9564 -0.3956,3.9564 z" id="path36281" inkscape:connector-curvature="0" transform="matrix(0.26458336,0,0,0.26458336,320.08182,94.083721)"/>
        </g>
        <g transform="matrix(0.81242126,0,0,0.81242126,-306.81809,610.8619)" id="g36301">
          <path sodipodi:nodetypes="csscccc" transform="matrix(0.26458336,0,0,0.26458336,320.08182,94.083721)" inkscape:connector-curvature="0" id="path36303" d="m 1032.3663,-1177.0691 c 0.3538,-4.7392 0.9766,-27.6902 -0.1824,-11.2848 -1.7894,25.3267 -2.303,88.646 -2.1066,91.952 0.145,2.4397 3.9819,3.1802 5.1901,-15.1147 0.2288,20.7545 3.43,17.7942 3.7337,14.5551 1.5673,-1.6786 -2.2915,-89.0862 -3.97,-93.5624 -2.3326,-12.1604 -2.7243,12.7557 -2.6648,13.4548 z" style="color: rgb(0, 0, 0); fill: rgb(39, 211, 177); fill-opacity: 1; fill-rule: nonzero; stroke: rgb(18, 18, 18); stroke-width: 10; stroke-linejoin: round; stroke-opacity: 1; marker: none; visibility: visible; display: inline; overflow: visible;"/>
          <path sodipodi:nodetypes="ssccs" style="color: rgb(0, 0, 0); fill: rgb(39, 211, 177); fill-opacity: 1; fill-rule: nonzero; stroke: none; stroke-width: 0; marker: none; visibility: visible; display: inline; overflow: visible;" d="m 1031.3015,-1199.7507 c -1.2699,21.8047 -1.7598,106.7118 -1.2242,110.1934 0.5595,3.6368 8.1131,2.7976 9.2321,1.119 1.1191,-1.6786 -2.303,-107.0058 -3.9815,-111.482 -1.6786,-4.4761 -3.9289,-1.5046 -4.0264,0.1696 z" id="path36305" inkscape:connector-curvature="0" transform="matrix(0.26458336,0,0,0.26458336,320.08182,94.083721)"/>
          <path id="path36307" transform="matrix(0.36862035,0,0,0.36862035,260.4501,288.28783)" d="m 907.25,-1341.5938 c -0.57796,0.8369 -0.72928,2.9367 -0.5625,4.1876 0.27976,2.0982 0.44345,21.3853 -1.375,23.3437 -1.12204,1.2083 -2.78255,0.9261 -4.3125,-0.125 0.0249,2.7891 0.0657,4.9268 0.125,5.3125 0.40159,2.6104 5.82182,1.9861 6.625,0.7812 0.36111,-0.5416 0.0466,-16.2233 -0.5,-33.5 z" style="color: rgb(0, 0, 0); fill: rgb(29, 156, 131); fill-opacity: 1; fill-rule: nonzero; stroke: none; stroke-width: 0; marker: none; visibility: visible; display: inline; overflow: visible;" inkscape:connector-curvature="0"/>
        </g>
        <g id="g38063" transform="translate(-65.37952,4.1584147)">
          <g transform="matrix(-0.78498756,-0.05341011,-0.05341011,0.78498756,698.22729,621.8806)" id="g36071">
            <path style="color: rgb(0, 0, 0); fill: rgb(39, 211, 177); fill-opacity: 1; fill-rule: nonzero; stroke: rgb(18, 18, 18); stroke-width: 10; stroke-linecap: round; stroke-linejoin: round; stroke-miterlimit: 4; stroke-opacity: 1; stroke-dasharray: none; stroke-dashoffset: 37.6; marker: none; visibility: visible; display: inline; overflow: visible;" d="m 1015.6099,-1193.6105 c 6.3302,24.5298 6.0599,92.8443 6.4148,95.6193 0.4453,3.4816 2.5216,-2.8559 2.155,-7.5251 -0.1061,-1.3509 3.3332,12.6987 4.2039,7.9745 0.4808,-7.6587 -1.3002,-60.0654 -5.2566,-77.0779 -3.9564,-17.0126 -3.5607,-21.3646 -7.1215,-22.9472 -3.5608,-1.5825 -0.3956,3.9564 -0.3956,3.9564 z" id="path36073" inkscape:connector-curvature="0" transform="matrix(0.26458336,0,0,0.26458336,320.08182,94.083721)" sodipodi:nodetypes="csscscc"/>
            <path transform="matrix(0.26458336,0,0,0.26458336,320.08182,94.083721)" inkscape:connector-curvature="0" id="path36075" d="m 1015.6099,-1193.6105 c 6.3302,24.5298 6.191,100.5661 6.1793,103.3637 -0.013,3.2256 6.481,2.9663 6.4578,0.054 0.1841,-7.9554 -1.1636,-67.4142 -5.12,-84.4267 -3.9564,-17.0126 -3.5607,-21.3646 -7.1215,-22.9472 -3.5608,-1.5825 -0.3956,3.9564 -0.3956,3.9564 z" style="color: rgb(0, 0, 0); fill: rgb(39, 211, 177); fill-opacity: 1; fill-rule: nonzero; stroke: none; stroke-width: 0; marker: none; visibility: visible; display: inline; overflow: visible;" sodipodi:nodetypes="cscsccc"/>
          </g>
          <g id="g36095" transform="matrix(0.8107415,0.05221869,-0.05221869,0.8107415,-250.5656,564.30956)">
            <path style="color: rgb(0, 0, 0); fill: rgb(39, 211, 177); fill-opacity: 1; fill-rule: nonzero; stroke: rgb(18, 18, 18); stroke-width: 10; stroke-linejoin: round; stroke-opacity: 1; marker: none; visibility: visible; display: inline; overflow: visible;" d="m 1032.3663,-1177.0691 c 0.3538,-4.7392 0.9766,-27.6902 -0.1824,-11.2848 -1.7894,25.3267 -2.303,88.646 -2.1066,91.952 0.145,2.4397 3.9819,3.1802 5.1901,-15.1147 0.2288,20.7545 3.43,17.7942 3.7337,14.5551 1.5673,-1.6786 -2.2915,-89.0862 -3.97,-93.5624 -2.3326,-12.1604 -2.7243,12.7557 -2.6648,13.4548 z" id="path36097" inkscape:connector-curvature="0" transform="matrix(0.26458336,0,0,0.26458336,320.08182,94.083721)" sodipodi:nodetypes="csscccc"/>
            <path transform="matrix(0.26458336,0,0,0.26458336,320.08182,94.083721)" inkscape:connector-curvature="0" id="path36099" d="m 1031.3015,-1199.7507 c -1.2699,21.8047 -1.7598,106.7118 -1.2242,110.1934 0.5595,3.6368 8.1131,2.7976 9.2321,1.119 1.1191,-1.6786 -2.303,-107.0058 -3.9815,-111.482 -1.6786,-4.4761 -3.9289,-1.5046 -4.0264,0.1696 z" style="color: rgb(0, 0, 0); fill: rgb(39, 211, 177); fill-opacity: 1; fill-rule: nonzero; stroke: none; stroke-width: 0; marker: none; visibility: visible; display: inline; overflow: visible;" sodipodi:nodetypes="ssccs"/>
            <path inkscape:connector-curvature="0" style="color: rgb(0, 0, 0); fill: rgb(29, 156, 131); fill-opacity: 1; fill-rule: nonzero; stroke: none; stroke-width: 0; marker: none; visibility: visible; display: inline; overflow: visible;" d="m 907.25,-1341.5938 c -0.57796,0.8369 -0.72928,2.9367 -0.5625,4.1876 0.27976,2.0982 0.44345,21.3853 -1.375,23.3437 -1.12204,1.2083 -2.78255,0.9261 -4.3125,-0.125 0.0249,2.7891 0.0657,4.9268 0.125,5.3125 0.40159,2.6104 5.82182,1.9861 6.625,0.7812 0.36111,-0.5416 0.0466,-16.2233 -0.5,-33.5 z" transform="matrix(0.36862035,0,0,0.36862035,260.4501,288.28783)" id="path36101"/>
          </g>
          <g id="g36053" transform="matrix(0.78498756,-0.05341011,0.05341011,0.78498756,-216.001,622.82849)">
            <path sodipodi:nodetypes="csscscc" transform="matrix(0.26458336,0,0,0.26458336,320.08182,94.083721)" inkscape:connector-curvature="0" id="path36055" d="m 1015.6099,-1193.6105 c 6.3302,24.5298 6.0599,92.8443 6.4148,95.6193 0.4453,3.4816 2.5216,-2.8559 2.155,-7.5251 -0.1061,-1.3509 3.3332,12.6987 4.2039,7.9745 0.4808,-7.6587 -1.3002,-60.0654 -5.2566,-77.0779 -3.9564,-17.0126 -3.5607,-21.3646 -7.1215,-22.9472 -3.5608,-1.5825 -0.3956,3.9564 -0.3956,3.9564 z" style="color: rgb(0, 0, 0); fill: rgb(39, 211, 177); fill-opacity: 1; fill-rule: nonzero; stroke: rgb(18, 18, 18); stroke-width: 10; stroke-linecap: round; stroke-linejoin: round; stroke-miterlimit: 4; stroke-opacity: 1; stroke-dasharray: none; stroke-dashoffset: 37.6; marker: none; visibility: visible; display: inline; overflow: visible;"/>
            <path sodipodi:nodetypes="cscscc" style="color: rgb(0, 0, 0); fill: rgb(39, 211, 177); fill-opacity: 1; fill-rule: nonzero; stroke: none; stroke-width: 0; marker: none; visibility: visible; display: inline; overflow: visible;" d="m 1015.6099,-1193.6105 c 6.3302,24.5298 6.3276,98.5585 6.3159,101.3561 -0.013,3.2256 6.481,2.9663 6.4578,0.054 0.1841,-7.9554 -1.3002,-65.4066 -5.2566,-82.4191 -3.9564,-17.0126 -3.5607,-21.3646 -7.1215,-22.9472 -3.5608,-1.5825 -0.3956,3.9564 -0.3956,3.9564 z" id="path36057" inkscape:connector-curvature="0" transform="matrix(0.26458336,0,0,0.26458336,320.08182,94.083721)"/>
            <path style="color: rgb(0, 0, 0); fill: rgb(29, 156, 131); fill-opacity: 1; fill-rule: nonzero; stroke: none; stroke-width: 0; marker: none; visibility: visible; display: inline; overflow: visible;" d="m 893.1875,-1324.8438 c 0.6615,7.7409 1.08612,13.4848 1.125,14.0938 0.14319,2.2377 4.62226,1.7374 4.46875,-0.2812 -0.0335,0.033 -0.16938,-2.513 -0.34375,-4.5938 -0.71618,0.1997 -1.45944,0.3031 -2.09375,0.031 -1.24651,-0.5342 -2.15694,-3.8162 -3.15625,-9.25 z" transform="matrix(0.37974498,0.02583763,-0.02583763,0.37974498,216.99078,279.73729)" id="path36059" inkscape:connector-curvature="0" sodipodi:nodetypes="cccccc"/>
          </g>
        </g>
      </g>
    </g>
    <g id="g38248" transform="translate(-65.869594,-32.151839)" gds_color="leaves">
      <g transform="matrix(0.54374813,0.36683584,-0.36683584,0.54374813,-159.19916,370.05993)" id="g36465">
        <path style="color: rgb(0, 0, 0); fill: rgb(23, 124, 104); fill-opacity: 1; fill-rule: nonzero; stroke: rgb(18, 18, 18); stroke-width: 6.85267; stroke-linecap: round; stroke-linejoin: round; stroke-miterlimit: 4; stroke-opacity: 1; stroke-dasharray: none; stroke-dashoffset: 37.6; marker: none; visibility: visible; display: inline; overflow: visible;" d="m 998.78125,-1292.75 c -0.17846,0 -0.35385,0.018 -0.53125,0.031 -0.42726,0.033 -0.86365,0.087 -1.28125,0.1876 -0.19864,0.048 -0.39812,0.1241 -0.59375,0.1874 -0.0941,0.031 -0.18792,0.06 -0.28125,0.094 -0.2018,0.074 -0.39607,0.1596 -0.59375,0.25 -0.22137,0.1016 -0.44085,0.1897 -0.65625,0.3125 -0.053,0.03 -0.10369,0.062 -0.15625,0.094 -0.27652,0.1653 -0.54791,0.3616 -0.8125,0.5626 -0.30102,0.2286 -0.59193,0.4748 -0.875,0.75 -0.2799,0.272 -0.55273,0.5572 -0.8125,0.875 -4.15635,5.0844 -4.00911,14.1282 0.34375,20.1874 4.35283,6.0593 11.24995,6.8345 15.40625,1.75 3.8627,-4.7252 3.9942,-12.854 0.5,-18.8437 -0.035,-0.06 -0.058,-0.1278 -0.094,-0.1875 -0.2162,-0.3869 -0.478,-0.7463 -0.75,-1.125 -1.0883,-1.5148 -2.3326,-2.7157 -3.6563,-3.5625 -0.3309,-0.2117 -0.6608,-0.3933 -1,-0.5625 -0.3394,-0.1692 -0.6861,-0.3111 -1.0313,-0.4375 -0.021,-0.01 -0.041,-0.024 -0.062,-0.031 -0.3303,-0.1183 -0.667,-0.2024 -1,-0.2812 -0.1485,-0.035 -0.2888,-0.066 -0.4376,-0.094 -0.1974,-0.036 -0.3963,-0.071 -0.5937,-0.094 -0.28186,-0.032 -0.56307,-0.059 -0.84375,-0.062 -0.0629,-8e-4 -0.12474,-7e-4 -0.1875,0 z" transform="matrix(0.37849243,-0.25534725,0.25534725,0.37849243,550.67027,522.1418)" id="path36467" inkscape:connector-curvature="0"/>
        <path style="color: rgb(0, 0, 0); fill: rgb(20, 110, 92); fill-opacity: 1; fill-rule: nonzero; stroke: none; stroke-width: 0; marker: none; visibility: visible; display: inline; overflow: visible;" d="m 596.95933,-219.23732 c -0.27485,2.98573 2.09218,6.36424 5.28691,7.54612 3.19472,1.18189 6.00737,-0.28042 6.28222,-3.26614 0.27485,-2.98572 -2.09218,-6.36423 -5.2869,-7.54612 -3.19473,-1.18188 -6.00738,0.28042 -6.28223,3.26614 z" id="path36469" inkscape:connector-curvature="0"/>
        <path inkscape:connector-curvature="0" id="path36473" transform="matrix(0.26458336,0,0,0.26458336,320.08182,94.083721)" d="m 1061.6875,-1198.0938 c 2.2871,0.062 4.7203,0.5445 7.2187,1.4688 11.4215,4.2254 19.8889,16.2945 18.9063,26.9688 -0.9826,10.6742 -11.016,15.9128 -22.4375,11.6874 -10.607,-3.924 -18.6609,-14.6321 -18.9688,-24.6874 -0.1373,10.8805 8.5064,22.7051 20.0313,26.9687 12.0745,4.467 22.7112,-1.0591 23.75,-12.3437 1.0388,-11.2847 -7.8942,-24.0643 -19.9687,-28.5313 -2.973,-1.0998 -5.8551,-1.5799 -8.5313,-1.5313 z" style="color: rgb(0, 0, 0); fill: rgb(29, 156, 131); fill-opacity: 1; fill-rule: nonzero; stroke: none; stroke-width: 0; marker: none; visibility: visible; display: inline; overflow: visible;"/>
        <path sodipodi:nodetypes="ccsc" transform="matrix(0.26458336,0,0,0.26458336,320.08182,94.083721)" inkscape:connector-curvature="0" id="path36475" d="m 1055.2472,-1193.2236 c 6.7652,7.9073 26.0438,31.8868 26.0513,30.0063 -0.4926,-0.848 -5.515,-10.8601 -11.6858,-18.1633 -6.1708,-7.3033 -14.3655,-11.843 -14.3655,-11.843 z" style="color: rgb(0, 0, 0); fill: rgb(17, 93, 78); fill-opacity: 1; fill-rule: nonzero; stroke: none; stroke-width: 0; marker: none; visibility: visible; display: inline; overflow: visible;"/>
      </g>
      <g transform="matrix(1.0084156,0,0,1.0084156,-354.45963,686.84895)" id="g36444">
        <path sodipodi:nodetypes="ccccscccccc" inkscape:connector-curvature="0" id="path36446" transform="matrix(0.26458336,0,0,0.26458336,320.08182,94.083721)" d="m 1061.5625,-1198.0938 c -7.4548,0.1824 -13.2647,4.5918 -14.7813,11.8438 0,0.01 1.3868,-3.9351 1.3847,-3.9252 -1.0546,1.8656 -3.522,7.858 -3.6347,9.0814 -1.0387,11.2847 7.8942,24.0644 19.9688,28.5313 7.4428,2.7534 14.344,1.6926 18.7812,-2.1563 2.4162,-2.0957 5.028,-5.1755 5.9063,-8.8124 0.01,-0.042 0.022,-0.083 0.031,-0.125 0.4959,-1.3384 0.8238,-2.8012 0.9687,-4.375 1.0388,-11.2847 -7.8942,-24.0643 -19.9687,-28.5313 -3.0187,-1.1167 -5.9455,-1.5975 -8.6563,-1.5313 z" style="color: rgb(0, 0, 0); fill: rgb(23, 124, 104); fill-opacity: 1; fill-rule: nonzero; stroke: rgb(18, 18, 18); stroke-width: 7.93215; stroke-linecap: round; stroke-linejoin: round; stroke-miterlimit: 4; stroke-opacity: 1; stroke-dasharray: none; stroke-dashoffset: 37.6; marker: none; visibility: visible; display: inline; overflow: visible;"/>
        <path sodipodi:nodetypes="sssssss" inkscape:connector-curvature="0" id="path36448" d="m 596.44722,-218.41215 c -0.27483,2.98573 2.09218,6.36424 5.28691,7.54612 1.96923,0.72851 3.7933,0.45237 4.96731,-0.56596 0.73061,-0.63372 1.52351,-1.60721 1.62894,-2.75252 0.27485,-2.98572 -2.40622,-6.31191 -5.60094,-7.49378 -1.94679,-0.72021 -3.74204,-1.03842 -4.90857,0.18396 -0.39016,0.40884 -1.36078,2.94239 -1.37365,3.08218 z" style="color: rgb(0, 0, 0); fill: rgb(16, 85, 71); fill-opacity: 1; fill-rule: nonzero; stroke: none; stroke-width: 0; marker: none; visibility: visible; display: inline; overflow: visible;"/>
        <path style="color: rgb(0, 0, 0); fill: rgb(21, 117, 98); fill-opacity: 1; fill-rule: nonzero; stroke: none; stroke-width: 0; marker: none; visibility: visible; display: inline; overflow: visible;" d="m 596.95933,-219.23732 c -0.27485,2.98573 2.09218,6.36424 5.28691,7.54612 3.19472,1.18189 6.00737,-0.28042 6.28222,-3.26614 0.27485,-2.98572 -2.09218,-6.36423 -5.2869,-7.54612 -3.19473,-1.18188 -6.00738,0.28042 -6.28223,3.26614 z" id="path36450" inkscape:connector-curvature="0"/>
        <path inkscape:connector-curvature="0" id="path36452" transform="matrix(0.26458336,0,0,0.26458336,320.08182,94.083721)" d="m 1085.5312,-1184.1875 c 1.0493,5.1002 0.7849,12.081 -6.2187,10.9375 -9.6932,-1.5825 -13.0625,-8.6875 -13.0625,-8.6875 0,0 -7.1205,18.3879 -19.1875,1.9687 0,0 -0.2986,0.3326 -0.4687,0.5313 1.385,9.9058 9.4505,19.9051 19.8437,23.75 12.0745,4.467 22.7112,-1.0591 23.75,-12.3437 0.4981,-5.4107 -1.3192,-11.1419 -4.6563,-16.1563 z" style="color: rgb(0, 0, 0); fill: rgb(20, 110, 92); fill-opacity: 1; fill-rule: nonzero; stroke: none; stroke-width: 0; marker: none; visibility: visible; display: inline; overflow: visible;"/>
        <path inkscape:connector-curvature="0" id="path36454" transform="matrix(0.26458336,0,0,0.26458336,320.08182,94.083721)" d="m 1061.6875,-1198.0938 c 2.2871,0.062 4.7203,0.5445 7.2187,1.4688 11.4215,4.2254 19.8889,16.2945 18.9063,26.9688 -0.9826,10.6742 -11.016,15.9128 -22.4375,11.6874 -10.607,-3.924 -18.6609,-14.6321 -18.9688,-24.6874 -0.1373,10.8805 8.5064,22.7051 20.0313,26.9687 12.0745,4.467 22.7112,-1.0591 23.75,-12.3437 1.0388,-11.2847 -7.8942,-24.0643 -19.9687,-28.5313 -2.973,-1.0998 -5.8551,-1.5799 -8.5313,-1.5313 z" style="color: rgb(0, 0, 0); fill: rgb(25, 138, 115); fill-opacity: 1; fill-rule: nonzero; stroke: none; stroke-width: 0; marker: none; visibility: visible; display: inline; overflow: visible;"/>
        <path transform="matrix(0.26458336,0,0,0.26458336,320.08182,94.083721)" inkscape:connector-curvature="0" id="path36456" d="m 1057.7456,-1189.8519 c 6.5281,5.9346 22.1559,29.2774 21.7602,28.4862 -0.3956,-0.7913 -4.352,-10.0889 -9.4953,-17.0126 -5.1434,-6.9237 -12.2649,-11.4736 -12.2649,-11.4736 z" style="color: rgb(0, 0, 0); fill: rgb(17, 93, 78); fill-opacity: 1; fill-rule: nonzero; stroke: none; stroke-width: 0; marker: none; visibility: visible; display: inline; overflow: visible;"/>
        <path transform="matrix(0.26458336,0,0,0.26458336,320.08182,94.083721)" inkscape:connector-curvature="0" id="path36458" d="m 1069.417,-1196.1821 c -9.2975,-1.9782 -8.3084,3.1651 -2.9673,5.9346 5.3412,2.7695 10.8801,-0.7913 8.5063,-3.1651 -2.3739,-2.3739 -5.539,-2.7695 -5.539,-2.7695 z" style="color: rgb(0, 0, 0); fill: rgb(38, 208, 174); fill-opacity: 1; fill-rule: nonzero; stroke: none; stroke-width: 0; marker: none; visibility: visible; display: inline; overflow: visible;"/>
        <path transform="matrix(0.26458336,0,0,0.26458336,320.08182,94.083721)" inkscape:connector-curvature="0" id="path36460" d="m 1077.132,-1188.4671 c -3.7586,0.7912 -1.7804,3.5607 0,4.352 1.7804,0.7913 4.7477,-1.3847 3.5608,-2.9673 -1.187,-1.5826 -3.5608,-1.3847 -3.5608,-1.3847 z" style="color: rgb(0, 0, 0); fill: rgb(38, 208, 174); fill-opacity: 1; fill-rule: nonzero; stroke: none; stroke-width: 0; marker: none; visibility: visible; display: inline; overflow: visible;"/>
      </g>
      <g id="g36283" transform="matrix(0.92051178,-0.04127758,0.1820718,0.89176583,-260.9797,678.30526)">
        <path sodipodi:nodetypes="ccccscccccc" inkscape:connector-curvature="0" id="path36285" transform="matrix(0.26458336,0,0,0.26458336,320.08182,94.083721)" d="m 1061.5625,-1198.0938 c -7.4548,0.1824 -13.2647,4.5918 -14.7813,11.8438 0,0.01 1.3868,-3.9351 1.3847,-3.9252 -1.0546,1.8656 -3.522,7.858 -3.6347,9.0814 -1.0387,11.2847 7.8942,24.0644 19.9688,28.5313 7.4428,2.7534 14.344,1.6926 18.7812,-2.1563 2.4162,-2.0957 5.028,-5.1755 5.9063,-8.8124 0.01,-0.042 0.022,-0.083 0.031,-0.125 0.4959,-1.3384 0.8238,-2.8012 0.9687,-4.375 1.0388,-11.2847 -7.8942,-24.0643 -19.9687,-28.5313 -3.0187,-1.1167 -5.9455,-1.5975 -8.6563,-1.5313 z" style="color: rgb(0, 0, 0); fill: rgb(23, 124, 104); fill-opacity: 1; fill-rule: nonzero; stroke: rgb(18, 18, 18); stroke-width: 10; stroke-linecap: round; stroke-linejoin: round; stroke-miterlimit: 4; stroke-opacity: 1; stroke-dasharray: none; stroke-dashoffset: 37.6; marker: none; visibility: visible; display: inline; overflow: visible;"/>
        <path sodipodi:nodetypes="sssssss" inkscape:connector-curvature="0" id="path36287" d="m 596.44722,-218.41215 c -0.27483,2.98573 2.09218,6.36424 5.28691,7.54612 1.96923,0.72851 3.7933,0.45237 4.96731,-0.56596 0.73061,-0.63372 1.52351,-1.60721 1.62894,-2.75252 0.27485,-2.98572 -2.40622,-6.31191 -5.60094,-7.49378 -1.94679,-0.72021 -3.74204,-1.03842 -4.90857,0.18396 -0.39016,0.40884 -1.36078,2.94239 -1.37365,3.08218 z" style="color: rgb(0, 0, 0); fill: rgb(18, 98, 82); fill-opacity: 1; fill-rule: nonzero; stroke: none; stroke-width: 0; marker: none; visibility: visible; display: inline; overflow: visible;"/>
        <path style="color: rgb(0, 0, 0); fill: rgb(32, 174, 146); fill-opacity: 1; fill-rule: nonzero; stroke: none; stroke-width: 0; marker: none; visibility: visible; display: inline; overflow: visible;" d="m 596.95933,-219.23732 c -0.27485,2.98573 2.09218,6.36424 5.28691,7.54612 3.19472,1.18189 6.00737,-0.28042 6.28222,-3.26614 0.27485,-2.98572 -2.09218,-6.36423 -5.2869,-7.54612 -3.19473,-1.18188 -6.00738,0.28042 -6.28223,3.26614 z" id="path36289" inkscape:connector-curvature="0"/>
        <path id="path36291" transform="matrix(0.26458336,0,0,0.26458336,320.08182,94.083721)" d="m 1085.5312,-1184.1875 c 1.0493,5.1002 0.7849,12.081 -6.2187,10.9375 -9.6932,-1.5825 -13.0625,-8.6875 -13.0625,-8.6875 0,0 -7.1205,18.3879 -19.1875,1.9687 0,0 -0.2986,0.3326 -0.4687,0.5313 1.385,9.9058 9.4505,19.9051 19.8437,23.75 12.0745,4.467 22.7112,-1.0591 23.75,-12.3437 0.4981,-5.4107 -1.3192,-11.1419 -4.6563,-16.1563 z" style="color: rgb(0, 0, 0); fill: rgb(29, 156, 131); fill-opacity: 1; fill-rule: nonzero; stroke: none; stroke-width: 0; marker: none; visibility: visible; display: inline; overflow: visible;" inkscape:connector-curvature="0"/>
        <path id="path36293" transform="matrix(0.26458336,0,0,0.26458336,320.08182,94.083721)" d="m 1061.6875,-1198.0938 c 2.2871,0.062 4.7203,0.5445 7.2187,1.4688 11.4215,4.2254 19.8889,16.2945 18.9063,26.9688 -0.9826,10.6742 -11.016,15.9128 -22.4375,11.6874 -10.607,-3.924 -18.6609,-14.6321 -18.9688,-24.6874 -0.1373,10.8805 8.5064,22.7051 20.0313,26.9687 12.0745,4.467 22.7112,-1.0591 23.75,-12.3437 1.0388,-11.2847 -7.8942,-24.0643 -19.9687,-28.5313 -2.973,-1.0998 -5.8551,-1.5799 -8.5313,-1.5313 z" style="color: rgb(0, 0, 0); fill: rgb(39, 211, 177); fill-opacity: 1; fill-rule: nonzero; stroke: none; stroke-width: 0; marker: none; visibility: visible; display: inline; overflow: visible;" inkscape:connector-curvature="0"/>
        <path transform="matrix(0.26458336,0,0,0.26458336,320.08182,94.083721)" inkscape:connector-curvature="0" id="path36295" d="m 1057.7456,-1189.8519 c 6.5281,5.9346 22.1559,29.2774 21.7602,28.4862 -0.3956,-0.7913 -4.352,-10.0889 -9.4953,-17.0126 -5.1434,-6.9237 -12.2649,-11.4736 -12.2649,-11.4736 z" style="color: rgb(0, 0, 0); fill: rgb(17, 93, 78); fill-opacity: 1; fill-rule: nonzero; stroke: none; stroke-width: 0; marker: none; visibility: visible; display: inline; overflow: visible;"/>
        <path transform="matrix(0.26458336,0,0,0.26458336,320.08182,94.083721)" inkscape:connector-curvature="0" id="path36297" d="m 1069.417,-1196.1821 c -9.2975,-1.9782 -8.3084,3.1651 -2.9673,5.9346 5.3412,2.7695 10.8801,-0.7913 8.5063,-3.1651 -2.3739,-2.3739 -5.539,-2.7695 -5.539,-2.7695 z" style="color: rgb(0, 0, 0); fill: rgb(38, 208, 174); fill-opacity: 1; fill-rule: nonzero; stroke: none; stroke-width: 0; marker: none; visibility: visible; display: inline; overflow: visible;"/>
        <path transform="matrix(0.26458336,0,0,0.26458336,320.08182,94.083721)" inkscape:connector-curvature="0" id="path36299" d="m 1077.132,-1188.4671 c -3.7586,0.7912 -1.7804,3.5607 0,4.352 1.7804,0.7913 4.7477,-1.3847 3.5608,-2.9673 -1.187,-1.5826 -3.5608,-1.3847 -3.5608,-1.3847 z" style="color: rgb(0, 0, 0); fill: rgb(38, 208, 174); fill-opacity: 1; fill-rule: nonzero; stroke: none; stroke-width: 0; marker: none; visibility: visible; display: inline; overflow: visible;"/>
      </g>
      <g transform="matrix(1.1318742,0,0,1.1318742,-389.10751,750.33168)" id="g36518">
        <g transform="matrix(-0.71499795,0,0,0.71499795,979.29737,-90.749445)" id="g36481">
          <path inkscape:connector-curvature="0" style="color: rgb(0, 0, 0); fill: rgb(23, 124, 104); fill-opacity: 1; fill-rule: nonzero; stroke: rgb(18, 18, 18); stroke-width: 8; stroke-linecap: round; stroke-linejoin: round; stroke-miterlimit: 4; stroke-opacity: 1; stroke-dasharray: none; stroke-dashoffset: 37.6; marker: none; visibility: visible; display: inline; overflow: visible;" d="m 867.53125,-1300.9688 c -1.93822,-0.047 -4.02914,0.2954 -6.1875,1.0938 -8.63324,3.1939 -15.02399,12.3377 -14.28125,20.4062 0.1036,1.1253 0.33293,2.1681 0.6875,3.125 0.006,0.03 0.0241,0.064 0.0312,0.094 0.62798,2.6004 2.49117,4.7828 4.21875,6.2812 3.17259,2.752 8.11591,3.5312 13.4375,1.5626 1.23662,-0.4575 2.43241,-1.038 3.5625,-1.7188 -0.0122,-1.2826 -0.0333,-2.3208 -0.375,-2.4062 -0.79128,-0.1979 -4.53125,-7.125 -4.53125,-7.125 l 8.6875,1.7812 0.8125,4.0625 c 1.76474,-1.804 3.22489,-3.852 4.28125,-6.0313 -0.3817,-2.0633 -0.75,-3.9687 -0.75,-3.9687 l -7.3125,-0.7813 8.3125,-4.5624 c 0,0 0.73646,0.4708 1.625,1.0624 -0.01,-0.2383 -0.009,-0.482 -0.0312,-0.7187 -0.0674,-0.7314 -1.30944,-3.7502 -2.15625,-5.5313 -0.0932,-0.2382 -0.2048,-0.4606 -0.3125,-0.6874 -0.0219,-0.042 -0.0419,-0.1185 -0.0625,-0.1563 -1.76226,-3.5654 -5.32549,-5.6753 -9.65625,-5.7813 z" transform="matrix(-0.37004771,0,0,0.37004771,921.98244,258.50867)" id="path36483"/>
          <path inkscape:connector-curvature="0" style="color: rgb(0, 0, 0); fill: rgb(16, 85, 71); fill-opacity: 1; fill-rule: nonzero; stroke: none; stroke-width: 0; marker: none; visibility: visible; display: inline; overflow: visible;" d="m 870.15625,-1299.3438 c -2.26451,0.045 -4.77579,0.7457 -7.40625,1.7188 -8.63327,3.1938 -15.89899,12.1815 -15.15625,20.25 0.28491,3.095 2.43188,5.725 4.40625,7.4375 3.17259,2.7519 8.11594,3.4999 13.4375,1.5313 1.2443,-0.4604 2.42581,-1.0641 3.5625,-1.75 -0.0121,-1.266 -0.0363,-2.2904 -0.375,-2.375 -0.79128,-0.1979 -4.53125,-7.125 -4.53125,-7.125 l 8.6875,1.7812 0.8125,4.0625 c 1.76594,-1.803 3.22367,-3.8529 4.28125,-6.0313 -0.3817,-2.0633 -0.75,-3.9687 -0.75,-3.9687 l -7.3125,-0.7813 8.3125,-4.5624 c 0,0 0.73646,0.4708 1.625,1.0624 -0.01,-0.2383 -0.009,-0.482 -0.0312,-0.7187 -0.0348,-0.3778 -2.6644,-7.2077 -3.71875,-8.3125 -1.57619,-1.6517 -3.57924,-2.2641 -5.84375,-2.2188 z" transform="matrix(-0.37004771,0,0,0.37004771,921.98244,258.50867)" id="path36485"/>
          <path inkscape:connector-curvature="0" style="color: rgb(0, 0, 0); fill: rgb(21, 117, 98); fill-opacity: 1; fill-rule: nonzero; stroke: none; stroke-width: 0; marker: none; visibility: visible; display: inline; overflow: visible;" d="m 867.53125,-1300.9688 c -1.93823,-0.047 -4.02918,0.2953 -6.1875,1.0938 -8.63327,3.1939 -15.02399,12.3378 -14.28125,20.4062 0.74274,8.0685 8.33548,12.0064 16.96875,8.8126 1.49257,-0.5522 2.91647,-1.2854 4.25,-2.1563 -1.19677,-1.2983 -4.1875,-6.8437 -4.1875,-6.8437 l 8.6875,1.7812 0.21875,1.0312 c 1.80808,-2.0288 3.22068,-4.3477 4.15625,-6.75 -0.002,-0.011 -0.0312,-0.2187 -0.0312,-0.2187 l -7.3125,-0.7813 8.3125,-4.5624 c 0,0 0.18322,0.1029 0.21875,0.125 0.0319,-0.6691 0.0294,-1.3413 -0.0312,-2 -0.55706,-6.0514 -4.96655,-9.7953 -10.78125,-9.9376 z" transform="matrix(-0.37004771,0,0,0.37004771,921.98244,258.50867)" id="path36487"/>
          <path inkscape:connector-curvature="0" style="color: rgb(0, 0, 0); fill: rgb(20, 110, 92); fill-opacity: 1; fill-rule: nonzero; stroke: none; stroke-width: 0; marker: none; visibility: visible; display: inline; overflow: visible;" d="m 850.40625,-1291.0312 c -2.38602,3.5852 -3.69989,7.6938 -3.34375,11.5624 0.74274,8.0685 8.36676,12.0064 17,8.8126 1.49923,-0.5547 2.91181,-1.2801 4.25,-2.1563 -1.18605,-1.2667 -4.21875,-6.8437 -4.21875,-6.8437 l 8.6875,1.7812 0.21875,1.0312 c 1.80873,-2.0316 3.22173,-4.3444 4.15625,-6.75 -0.002,-0.011 -0.0312,-0.2187 -0.0312,-0.2187 l -3.0625,-0.3437 c -6.27745,4.0268 -9.875,-5.25 -9.875,-5.25 0,0 -2.41313,5.056 -9.34375,6.1874 -5.00756,0.8177 -5.18775,-4.1658 -4.4375,-7.8124 z" transform="matrix(-0.37004771,0,0,0.37004771,921.98244,258.50867)" id="path36489"/>
          <path inkscape:connector-curvature="0" style="color: rgb(0, 0, 0); fill: rgb(25, 138, 115); fill-opacity: 1; fill-rule: nonzero; stroke: none; stroke-width: 0; marker: none; visibility: visible; display: inline; overflow: visible;" d="m 867.4375,-1300.9688 c -1.91348,-0.035 -3.96806,0.3074 -6.09375,1.0938 -8.63324,3.1939 -15.02399,12.3377 -14.28125,20.4062 0.74274,8.0685 8.36676,12.0064 17,8.8126 1.4884,-0.5507 2.88963,-1.2888 4.21875,-2.1563 -0.17019,-0.1846 -0.36384,-0.4838 -0.59375,-0.8125 -0.92121,0.5211 -1.88301,0.9768 -2.875,1.3438 -8.16635,3.0211 -15.35994,-0.7118 -16.0625,-8.3438 -0.70256,-7.6321 5.3649,-16.2601 13.53125,-19.2812 1.78635,-0.6609 3.52098,-1.0182 5.15625,-1.0626 z m 10.9375,11.0313 c -0.009,0.293 -0.0666,0.5808 -0.0937,0.875 0.007,0 0.0527,0.025 0.0625,0.031 0.0146,-0.3016 0.035,-0.6064 0.0312,-0.9063 z m -1.46875,6.0937 c -0.96249,2.2121 -2.3579,4.3158 -4.09375,6.1563 l 0.15625,0.8125 c 1.80804,-2.035 3.25675,-4.3408 4.1875,-6.75 -0.002,-0.01 -0.0312,-0.1875 -0.0312,-0.1875 l -0.21875,-0.031 z" transform="matrix(-0.37004771,0,0,0.37004771,921.98244,258.50867)" id="path36491"/>
          <path transform="matrix(0.26458336,0,0,0.26458336,320.08182,94.083721)" inkscape:connector-curvature="0" id="path36493" d="m 1057.7456,-1189.8519 c 6.5281,5.9346 22.1559,29.2774 21.7602,28.4862 -0.3956,-0.7913 -4.352,-10.0889 -9.4953,-17.0126 -5.1434,-6.9237 -12.2649,-11.4736 -12.2649,-11.4736 z" style="color: rgb(0, 0, 0); fill: rgb(17, 93, 78); fill-opacity: 1; fill-rule: nonzero; stroke: none; stroke-width: 0; marker: none; visibility: visible; display: inline; overflow: visible;"/>
        </g>
        <path style="color: rgb(0, 0, 0); fill: rgb(14, 78, 65); fill-opacity: 1; fill-rule: nonzero; stroke: none; stroke-width: 0; marker: none; visibility: visible; display: inline; overflow: visible;" d="m 864.27727,-1279.5634 1.78038,3.7586 7.51718,1.7803 -0.98911,-4.0553 z" id="path36514" inkscape:connector-curvature="0" transform="matrix(0.26458336,0,0,0.26458336,320.08182,94.083721)"/>
        <path style="color: rgb(0, 0, 0); fill: rgb(14, 78, 65); fill-opacity: 1; fill-rule: nonzero; stroke: none; stroke-width: 0; marker: none; visibility: visible; display: inline; overflow: visible;" d="m 869.81624,-1284.6078 8.30846,-4.6488 1.68147,1.088 -5.63788,4.1542 z" id="path36516" inkscape:connector-curvature="0" transform="matrix(0.26458336,0,0,0.26458336,320.08182,94.083721)"/>
      </g>
      <g id="g36309" transform="matrix(0.97142429,0,0,0.97142429,-337.89908,676.08335)">
        <g transform="translate(-0.10467996,-8.583757)" id="g36311">
          <path id="path36313" transform="matrix(0.26458336,0,0,0.26458336,320.1865,102.66748)" d="m 1036.1562,-1177.625 c -4.5967,0.1688 -9.1019,2.2251 -12.625,6.1875 -2.2547,2.5359 -3.8547,5.5959 -4.8437,8.9063 -0.025,0.082 -0.038,0.1675 -0.062,0.25 -0.1321,0.4586 -0.267,0.9076 -0.375,1.375 -0.086,0.3692 -0.1479,0.7511 -0.2188,1.125 -0.037,0.1986 -0.092,0.394 -0.125,0.5937 l 0,0.031 c -2.65,8.5166 -1.0915,18.7612 4.7188,26.1874 0.7459,0.9534 1.5508,1.8018 2.375,2.5938 l 0.3125,-4.6875 8.0937,-3.5625 c 0,0 -3.75,5.9587 -3.75,6.75 0,0.2136 0.1346,3.0958 0.2188,5.0625 3.4844,1.8449 7.2405,2.5443 10.875,2.0313 3.9742,-0.561 8.9872,-2.0725 12.0625,-5.5313 3.9622,-4.4565 5.6464,-10.6278 5.4063,-16.9687 l 0,-0.031 c 0.081,-0.5735 0.1405,-1.1695 0.1874,-1.75 0.084,-1.0368 0.1197,-2.0764 0.094,-3.125 -0.01,-0.3331 -0.012,-0.6666 -0.031,-1 -0.3334,-5.7251 -2.3151,-11.4328 -5.9376,-16.0625 -3.8253,-4.8891 -8.794,-7.676 -13.8124,-8.25 -0.2274,-0.025 -0.4583,-0.042 -0.6876,-0.062 -0.3279,-0.025 -0.6411,-0.057 -0.9687,-0.062 -0.3071,-0.01 -0.5998,-0.011 -0.9063,0 z" style="color: rgb(0, 0, 0); fill: rgb(23, 124, 104); fill-opacity: 1; fill-rule: nonzero; stroke: rgb(18, 18, 18); stroke-width: 10; stroke-linejoin: round; stroke-miterlimit: 4; stroke-opacity: 1; stroke-dasharray: none; marker: none; visibility: visible; display: inline; overflow: visible;" inkscape:connector-curvature="0"/>
          <g id="g36315" transform="matrix(0.89441139,0.53244343,-0.62808281,0.84803801,-80.624871,-339.20254)">
            <path id="path36317" transform="matrix(0.20530148,-0.1288992,0.15205254,0.21652801,564.94341,166.34822)" d="m 1037.125,-1175.2188 c -0.8099,0.012 -1.6444,0.1162 -2.5,0.3126 -2.2894,0.5251 -11.5622,6.7028 -11.9375,7.125 -8.0167,9.0166 -8.0565,24.5953 -0.062,34.8124 0.7459,0.9535 1.5504,1.8333 2.375,2.625 l 0.3125,-4.7187 8.0937,-3.5625 c 0,0 -0.9353,1.4799 -1.875,3.0625 -0.01,0.012 0.01,0.02 0,0.031 -0.4649,0.7835 -0.9325,1.5893 -1.2812,2.25 0,0.01 0,0.024 0,0.031 -0.344,0.6539 -0.5938,1.18 -0.5938,1.375 10e-5,0.215 0.1337,3.1082 0.2188,5.0938 3.4869,1.8427 7.2723,2.5128 10.9062,2 3.9742,-0.561 8.9561,-2.0725 12.0313,-5.5313 8.0168,-9.0167 6.8379,-25.0954 -1.1563,-35.3125 -4.2624,-5.4478 -8.8619,-9.6739 -14.5312,-9.5938 z" style="color: rgb(0, 0, 0); fill: rgb(16, 87, 73); fill-opacity: 1; fill-rule: nonzero; stroke: none; stroke-width: 0; marker: none; visibility: visible; display: inline; overflow: visible;" inkscape:connector-curvature="0"/>
            <path id="path36319" transform="matrix(0.20530148,-0.1288992,0.15205254,0.21652801,564.94341,166.34822)" d="m 1037.0625,-1177.625 c -4.9141,-0.087 -9.7421,1.9609 -13.5,6.1875 -8.0168,9.0167 -8.0565,24.5953 -0.062,34.8125 0.5669,0.7245 1.1678,1.4 1.7812,2.0312 l 0.031,-0.4687 8.0937,-3.5625 c 0,0 -3.75,5.9587 -3.75,6.75 0,0.034 0.029,0.7186 0.031,0.8125 7.5192,4.5743 16.635,3.573 22.8125,-3.375 8.0168,-9.0167 8.0252,-24.6266 0.031,-34.8437 -4.2468,-5.4279 -9.8994,-8.2456 -15.4687,-8.3438 z" style="color: rgb(0, 0, 0); fill: rgb(26, 142, 119); fill-opacity: 1; fill-rule: nonzero; stroke: none; stroke-width: 0; marker: none; visibility: visible; display: inline; overflow: visible;" inkscape:connector-curvature="0"/>
            <path id="path36321" transform="matrix(0.20530148,-0.1288992,0.15205254,0.21652801,564.94341,166.34822)" d="m 1019.2188,-1164.0938 c -3.2378,8.7507 -1.8251,19.6642 4.2812,27.4688 0.5669,0.7245 1.1677,1.3998 1.7812,2.0312 l 0.031,-0.4687 8.0937,-3.5625 c 0,0 -3.75,5.9587 -3.75,6.75 0,0.034 0.029,0.7186 0.031,0.8125 7.521,4.5748 16.6364,3.5715 22.8125,-3.375 4.5498,-5.1172 6.5115,-12.3628 5.9062,-19.5313 -1.6651,5.2013 -6.5796,11.9096 -19.4687,10.8126 -13.0229,-1.1084 -22.8166,-10.4696 -19.7187,-20.9376 z" style="color: rgb(0, 0, 0); fill: rgb(23, 124, 104); fill-opacity: 1; fill-rule: nonzero; stroke: none; stroke-width: 0; marker: none; visibility: visible; display: inline; overflow: visible;" inkscape:connector-curvature="0"/>
            <path inkscape:connector-curvature="0" style="color: rgb(0, 0, 0); fill: rgb(17, 93, 78); fill-opacity: 1; fill-rule: nonzero; stroke: none; stroke-width: 0; marker: none; visibility: visible; display: inline; overflow: visible;" d="m 1038.1875,-1145.1562 c -0.017,9.371 -0.3223,21.6795 -0.2187,26.125 0.218,9.3686 1.1057,17.504 1.1874,17 0.1432,-0.8817 1.4377,-9.2622 1.3126,-17.875 -0.12,-8.2586 -0.7283,-17.8056 -1.3438,-25.1563 -0.3102,-0.035 -0.6272,-0.075 -0.9375,-0.094 z" transform="matrix(0.20530148,-0.1288992,0.15205254,0.21652801,559.92922,159.37449)" id="path36323"/>
            <path sodipodi:nodetypes="cscscscccc" style="color: rgb(0, 0, 0); fill: rgb(39, 211, 177); fill-opacity: 1; fill-rule: nonzero; stroke: none; stroke-width: 0; marker: none; visibility: visible; display: inline; overflow: visible;" d="m 1036.1562,-1177.625 c -4.5932,0.169 -9.0707,2.2251 -12.5937,6.1875 -4.3091,4.8465 -6.2778,11.5884 -5.9687,18.375 0.2838,-5.809 2.2543,-11.3848 5.9687,-15.5625 3.7579,-4.2266 8.5859,-6.2742 13.5,-6.1875 5.5693,0.098 11.2219,2.9159 15.4687,8.3437 3.7039,4.7339 5.6701,10.6118 5.9376,16.4688 0.3281,-6.7465 -1.6407,-13.7895 -5.9376,-19.2812 -4.2468,-5.428 -9.8994,-8.2456 -15.4687,-8.3438 -0.3071,-0.01 -0.6,-0.011 -0.9063,0 z" transform="matrix(0.20530148,-0.1288992,0.15205254,0.21652801,564.94341,166.34822)" id="path36325" inkscape:connector-curvature="0"/>
          </g>
        </g>
        <path transform="matrix(0.26458336,0,0,0.26458336,320.08182,94.083721)" inkscape:connector-curvature="0" id="path36327" d="m 1025.1052,-1134.9567 8.2096,-3.5608 c 0,0 -2.176,4.5499 -2.5717,4.451 -0.3956,-0.099 -5.7368,3.5607 -5.7368,3.5607 z" style="color: rgb(0, 0, 0); fill: rgb(17, 93, 78); fill-opacity: 1; fill-rule: nonzero; stroke: none; stroke-width: 0; marker: none; visibility: visible; display: inline; overflow: visible;"/>
      </g>
      <g id="g36329" transform="matrix(-1.1364303,0,0,1.1364303,910.38303,709.42232)">
        <path style="color: rgb(0, 0, 0); fill: rgb(23, 124, 104); fill-opacity: 1; fill-rule: nonzero; stroke: rgb(18, 18, 18); stroke-width: 7.93215; stroke-linecap: round; stroke-linejoin: round; stroke-miterlimit: 4; stroke-opacity: 1; stroke-dasharray: none; stroke-dashoffset: 37.6; marker: none; visibility: visible; display: inline; overflow: visible;" d="m 1061.5625,-1198.0938 c -7.4548,0.1824 -13.2647,4.5918 -14.7813,11.8438 0,0.01 1.3868,-3.9351 1.3847,-3.9252 -1.0546,1.8656 -3.522,7.858 -3.6347,9.0814 -1.0387,11.2847 7.8942,24.0644 19.9688,28.5313 7.4428,2.7534 14.344,1.6926 18.7812,-2.1563 2.4162,-2.0957 5.028,-5.1755 5.9063,-8.8124 0.01,-0.042 0.022,-0.083 0.031,-0.125 0.4959,-1.3384 0.8238,-2.8012 0.9687,-4.375 1.0388,-11.2847 -7.8942,-24.0643 -19.9687,-28.5313 -3.0187,-1.1167 -5.9455,-1.5975 -8.6563,-1.5313 z" transform="matrix(0.26458336,0,0,0.26458336,320.08182,94.083721)" id="path36331" inkscape:connector-curvature="0" sodipodi:nodetypes="ccccscccccc"/>
        <path style="color: rgb(0, 0, 0); fill: rgb(18, 98, 82); fill-opacity: 1; fill-rule: nonzero; stroke: none; stroke-width: 0; marker: none; visibility: visible; display: inline; overflow: visible;" d="m 596.44722,-218.41215 c -0.27483,2.98573 2.09218,6.36424 5.28691,7.54612 1.96923,0.72851 3.7933,0.45237 4.96731,-0.56596 0.73061,-0.63372 1.52351,-1.60721 1.62894,-2.75252 0.27485,-2.98572 -2.40622,-6.31191 -5.60094,-7.49378 -1.94679,-0.72021 -3.74204,-1.03842 -4.90857,0.18396 -0.39016,0.40884 -1.36078,2.94239 -1.37365,3.08218 z" id="path36333" inkscape:connector-curvature="0" sodipodi:nodetypes="sssssss"/>
        <path inkscape:connector-curvature="0" id="path36335" d="m 596.95933,-219.23732 c -0.27485,2.98573 2.09218,6.36424 5.28691,7.54612 3.19472,1.18189 6.00737,-0.28042 6.28222,-3.26614 0.27485,-2.98572 -2.09218,-6.36423 -5.2869,-7.54612 -3.19473,-1.18188 -6.00738,0.28042 -6.28223,3.26614 z" style="color: rgb(0, 0, 0); fill: rgb(32, 174, 146); fill-opacity: 1; fill-rule: nonzero; stroke: none; stroke-width: 0; marker: none; visibility: visible; display: inline; overflow: visible;"/>
        <path style="color: rgb(0, 0, 0); fill: rgb(29, 156, 131); fill-opacity: 1; fill-rule: nonzero; stroke: none; stroke-width: 0; marker: none; visibility: visible; display: inline; overflow: visible;" d="m 1085.5312,-1184.1875 c 1.0493,5.1002 0.7849,12.081 -6.2187,10.9375 -9.6932,-1.5825 -13.0625,-8.6875 -13.0625,-8.6875 0,0 -7.1205,18.3879 -19.1875,1.9687 0,0 -0.2986,0.3326 -0.4687,0.5313 1.385,9.9058 9.4505,19.9051 19.8437,23.75 12.0745,4.467 22.7112,-1.0591 23.75,-12.3437 0.4981,-5.4107 -1.3192,-11.1419 -4.6563,-16.1563 z" transform="matrix(0.26458336,0,0,0.26458336,320.08182,94.083721)" id="path36337" inkscape:connector-curvature="0"/>
        <path style="color: rgb(0, 0, 0); fill: rgb(39, 211, 177); fill-opacity: 1; fill-rule: nonzero; stroke: none; stroke-width: 0; marker: none; visibility: visible; display: inline; overflow: visible;" d="m 1061.6875,-1198.0938 c 2.2871,0.062 4.7203,0.5445 7.2187,1.4688 11.4215,4.2254 19.8889,16.2945 18.9063,26.9688 -0.9826,10.6742 -11.016,15.9128 -22.4375,11.6874 -10.607,-3.924 -18.6609,-14.6321 -18.9688,-24.6874 -0.1373,10.8805 8.5064,22.7051 20.0313,26.9687 12.0745,4.467 22.7112,-1.0591 23.75,-12.3437 1.0388,-11.2847 -7.8942,-24.0643 -19.9687,-28.5313 -2.973,-1.0998 -5.8551,-1.5799 -8.5313,-1.5313 z" transform="matrix(0.26458336,0,0,0.26458336,320.08182,94.083721)" id="path36339" inkscape:connector-curvature="0"/>
        <path style="color: rgb(0, 0, 0); fill: rgb(17, 93, 78); fill-opacity: 1; fill-rule: nonzero; stroke: none; stroke-width: 0; marker: none; visibility: visible; display: inline; overflow: visible;" d="m 1057.7456,-1189.8519 c 6.5281,5.9346 22.1559,29.2774 21.7602,28.4862 -0.3956,-0.7913 -4.352,-10.0889 -9.4953,-17.0126 -5.1434,-6.9237 -12.2649,-11.4736 -12.2649,-11.4736 z" id="path36341" inkscape:connector-curvature="0" transform="matrix(0.26458336,0,0,0.26458336,320.08182,94.083721)"/>
        <path style="color: rgb(0, 0, 0); fill: rgb(38, 208, 174); fill-opacity: 1; fill-rule: nonzero; stroke: none; stroke-width: 0; marker: none; visibility: visible; display: inline; overflow: visible;" d="m 1069.417,-1196.1821 c -9.2975,-1.9782 -8.3084,3.1651 -2.9673,5.9346 5.3412,2.7695 10.8801,-0.7913 8.5063,-3.1651 -2.3739,-2.3739 -5.539,-2.7695 -5.539,-2.7695 z" id="path36343" inkscape:connector-curvature="0" transform="matrix(0.26458336,0,0,0.26458336,320.08182,94.083721)"/>
        <path style="color: rgb(0, 0, 0); fill: rgb(38, 208, 174); fill-opacity: 1; fill-rule: nonzero; stroke: none; stroke-width: 0; marker: none; visibility: visible; display: inline; overflow: visible;" d="m 1077.132,-1188.4671 c -3.7586,0.7912 -1.7804,3.5607 0,4.352 1.7804,0.7913 4.7477,-1.3847 3.5608,-2.9673 -1.187,-1.5826 -3.5608,-1.3847 -3.5608,-1.3847 z" id="path36345" inkscape:connector-curvature="0" transform="matrix(0.26458336,0,0,0.26458336,320.08182,94.083721)"/>
      </g>
      <g transform="matrix(-1.078108,0.15362002,0.22538879,1.0858677,933.91749,600.78584)" id="g36406">
        <g id="g36408" transform="translate(-0.10467996,-8.583757)">
          <path inkscape:connector-curvature="0" style="color: rgb(0, 0, 0); fill: rgb(23, 124, 104); fill-opacity: 1; fill-rule: nonzero; stroke: rgb(18, 18, 18); stroke-width: 10; stroke-linejoin: round; stroke-miterlimit: 4; stroke-opacity: 1; stroke-dasharray: none; marker: none; visibility: visible; display: inline; overflow: visible;" d="m 1036.1562,-1177.625 c -4.5967,0.1688 -9.1019,2.2251 -12.625,6.1875 -2.2547,2.5359 -3.8547,5.5959 -4.8437,8.9063 -0.025,0.082 -0.038,0.1675 -0.062,0.25 -0.1321,0.4586 -0.267,0.9076 -0.375,1.375 -0.086,0.3692 -0.1479,0.7511 -0.2188,1.125 -0.037,0.1986 -0.092,0.394 -0.125,0.5937 l 0,0.031 c -2.65,8.5166 -1.0915,18.7612 4.7188,26.1874 0.7459,0.9534 1.5508,1.8018 2.375,2.5938 l 0.3125,-4.6875 8.0937,-3.5625 c 0,0 -3.75,5.9587 -3.75,6.75 0,0.2136 0.1346,3.0958 0.2188,5.0625 3.4844,1.8449 7.2405,2.5443 10.875,2.0313 3.9742,-0.561 8.9872,-2.0725 12.0625,-5.5313 3.9622,-4.4565 5.6464,-10.6278 5.4063,-16.9687 l 0,-0.031 c 0.081,-0.5735 0.1405,-1.1695 0.1874,-1.75 0.084,-1.0368 0.1197,-2.0764 0.094,-3.125 -0.01,-0.3331 -0.012,-0.6666 -0.031,-1 -0.3334,-5.7251 -2.3151,-11.4328 -5.9376,-16.0625 -3.8253,-4.8891 -8.794,-7.676 -13.8124,-8.25 -0.2274,-0.025 -0.4583,-0.042 -0.6876,-0.062 -0.3279,-0.025 -0.6411,-0.057 -0.9687,-0.062 -0.3071,-0.01 -0.5998,-0.011 -0.9063,0 z" transform="matrix(0.26458336,0,0,0.26458336,320.1865,102.66748)" id="path36410"/>
          <g transform="matrix(0.89441139,0.53244343,-0.62808281,0.84803801,-80.624871,-339.20254)" id="g36412">
            <path inkscape:connector-curvature="0" style="color: rgb(0, 0, 0); fill: rgb(19, 103, 86); fill-opacity: 1; fill-rule: nonzero; stroke: none; stroke-width: 0; marker: none; visibility: visible; display: inline; overflow: visible;" d="m 1037.125,-1175.2188 c -0.8099,0.012 -1.6444,0.1162 -2.5,0.3126 -2.2894,0.5251 -11.5622,6.7028 -11.9375,7.125 -8.0167,9.0166 -8.0565,24.5953 -0.062,34.8124 0.7459,0.9535 1.5504,1.8333 2.375,2.625 l 0.3125,-4.7187 8.0937,-3.5625 c 0,0 -0.9353,1.4799 -1.875,3.0625 -0.01,0.012 0.01,0.02 0,0.031 -0.4649,0.7835 -0.9325,1.5893 -1.2812,2.25 0,0.01 0,0.024 0,0.031 -0.344,0.6539 -0.5938,1.18 -0.5938,1.375 10e-5,0.215 0.1337,3.1082 0.2188,5.0938 3.4869,1.8427 7.2723,2.5128 10.9062,2 3.9742,-0.561 8.9561,-2.0725 12.0313,-5.5313 8.0168,-9.0167 6.8379,-25.0954 -1.1563,-35.3125 -4.2624,-5.4478 -8.8619,-9.6739 -14.5312,-9.5938 z" transform="matrix(0.20530148,-0.1288992,0.15205254,0.21652801,564.94341,166.34822)" id="path36414"/>
            <path inkscape:connector-curvature="0" style="color: rgb(0, 0, 0); fill: rgb(27, 179, 149); fill-opacity: 1; fill-rule: nonzero; stroke: none; stroke-width: 0; marker: none; visibility: visible; display: inline; overflow: visible;" d="m 1037.0625,-1177.625 c -4.9141,-0.087 -9.7421,1.9609 -13.5,6.1875 -8.0168,9.0167 -8.0565,24.5953 -0.062,34.8125 0.5669,0.7245 1.1678,1.4 1.7812,2.0312 l 0.031,-0.4687 8.0937,-3.5625 c 0,0 -3.75,5.9587 -3.75,6.75 0,0.034 0.029,0.7186 0.031,0.8125 7.5192,4.5743 16.635,3.573 22.8125,-3.375 8.0168,-9.0167 8.0252,-24.6266 0.031,-34.8437 -4.2468,-5.4279 -9.8994,-8.2456 -15.4687,-8.3438 z" transform="matrix(0.20530148,-0.1288992,0.15205254,0.21652801,564.94341,166.34822)" id="path36416"/>
            <path inkscape:connector-curvature="0" style="color: rgb(0, 0, 0); fill: rgb(29, 156, 131); fill-opacity: 1; fill-rule: nonzero; stroke: none; stroke-width: 0; marker: none; visibility: visible; display: inline; overflow: visible;" d="m 1019.2188,-1164.0938 c -3.2378,8.7507 -1.8251,19.6642 4.2812,27.4688 0.5669,0.7245 1.1677,1.3998 1.7812,2.0312 l 0.031,-0.4687 8.0937,-3.5625 c 0,0 -3.75,5.9587 -3.75,6.75 0,0.034 0.029,0.7186 0.031,0.8125 7.521,4.5748 16.6364,3.5715 22.8125,-3.375 4.5498,-5.1172 6.5115,-12.3628 5.9062,-19.5313 -1.6651,5.2013 -6.5796,11.9096 -19.4687,10.8126 -13.0229,-1.1084 -22.8166,-10.4696 -19.7187,-20.9376 z" transform="matrix(0.20530148,-0.1288992,0.15205254,0.21652801,564.94341,166.34822)" id="path36418"/>
            <path id="path36420" transform="matrix(0.20530148,-0.1288992,0.15205254,0.21652801,559.92922,159.37449)" d="m 1038.1875,-1145.1562 c -0.017,9.371 -0.3223,21.6795 -0.2187,26.125 0.218,9.3686 1.1057,17.504 1.1874,17 0.1432,-0.8817 1.4377,-9.2622 1.3126,-17.875 -0.12,-8.2586 -0.7283,-17.8056 -1.3438,-25.1563 -0.3102,-0.035 -0.6272,-0.075 -0.9375,-0.094 z" style="color: rgb(0, 0, 0); fill: rgb(17, 93, 78); fill-opacity: 1; fill-rule: nonzero; stroke: none; stroke-width: 0; marker: none; visibility: visible; display: inline; overflow: visible;" inkscape:connector-curvature="0"/>
            <path inkscape:connector-curvature="0" id="path36422" transform="matrix(0.20530148,-0.1288992,0.15205254,0.21652801,564.94341,166.34822)" d="m 1036.1562,-1177.625 c -4.5932,0.169 -9.0707,2.2251 -12.5937,6.1875 -4.3091,4.8465 -6.2778,11.5884 -5.9687,18.375 0.2838,-5.809 2.2543,-11.3848 5.9687,-15.5625 3.7579,-4.2266 8.5859,-6.2742 13.5,-6.1875 5.5693,0.098 11.2219,2.9159 15.4687,8.3437 3.7039,4.7339 5.6701,10.6118 5.9376,16.4688 0.3281,-6.7465 -1.6407,-13.7895 -5.9376,-19.2812 -4.2468,-5.428 -9.8994,-8.2456 -15.4687,-8.3438 -0.3071,-0.01 -0.6,-0.011 -0.9063,0 z m -2.75,41.8125 -2.2812,1 c -0.7699,1.3351 -1.4688,2.6043 -1.4688,2.9375 1e-4,0.034 0.029,0.7186 0.031,0.8125 0.2249,0.1368 0.4598,0.2481 0.6875,0.375 1.0832,-2.0239 3.0312,-5.125 3.0312,-5.125 z" style="color: rgb(0, 0, 0); fill: rgb(39, 211, 177); fill-opacity: 1; fill-rule: nonzero; stroke: none; stroke-width: 0; marker: none; visibility: visible; display: inline; overflow: visible;"/>
          </g>
        </g>
        <path style="color: rgb(0, 0, 0); fill: rgb(17, 93, 78); fill-opacity: 1; fill-rule: nonzero; stroke: none; stroke-width: 0; marker: none; visibility: visible; display: inline; overflow: visible;" d="m 1025.1052,-1134.9567 8.2096,-3.5608 c 0,0 -2.176,4.5499 -2.5717,4.451 -0.3956,-0.099 -5.7368,3.5607 -5.7368,3.5607 z" id="path36424" inkscape:connector-curvature="0" transform="matrix(0.26458336,0,0,0.26458336,320.08182,94.083721)"/>
      </g>
      <g transform="matrix(0.99681931,-0.07969488,0.07969488,0.99681931,-33.197054,54.723602)" id="g37941">
        <g id="g36623" transform="matrix(1.1318742,0,0,1.1318742,-396.33506,722.44258)">
          <path sodipodi:nodetypes="ccccsscccccccscc" transform="matrix(0.26458336,0,0,0.26458336,320.08182,94.083721)" id="path36598" d="m 928.09375,-1398.375 c -4.4481,0.065 -7.91691,1.027 -9.40625,2.9062 -0.4008,0.5058 -0.60628,1.0517 -0.6875,1.625 -0.007,0.052 -0.0264,0.1042 -0.0312,0.1563 -0.18769,1.3038 -0.31076,5.9677 -0.22286,6.6312 0.46923,3.5417 6.08836,7.862 14.5,10.6876 10.40742,3.4959 20.57693,2.5025 23.78125,-1.0626 -0.0539,-0.9301 0.23476,-4.1853 0.31656,-4.4749 0.1863,-0.1541 0.37855,-0.2989 0.53125,-0.4688 -0.0625,-0.024 -0.0923,-0.038 -0.15625,-0.062 l 0.84375,-0.6875 c 0.11573,-0.6215 0.13351,-1.2019 0.0625,-1.75 l 0.15625,0 c -0.23381,-3.5863 -5.92159,-8.0454 -14.53125,-10.9375 -5.29824,-1.7798 -10.70815,-2.6277 -15.15625,-2.5625 z" style="color: rgb(0, 0, 0); fill: rgb(18, 98, 82); fill-opacity: 1; fill-rule: nonzero; stroke: rgb(18, 18, 18); stroke-width: 8; stroke-linejoin: round; stroke-miterlimit: 4; stroke-opacity: 1; stroke-dasharray: none; marker: none; visibility: visible; display: inline; overflow: visible;" inkscape:connector-curvature="0"/>
          <path sodipodi:nodetypes="ccsscccccc" inkscape:connector-curvature="0" style="color: rgb(0, 0, 0); fill: rgb(18, 98, 82); fill-opacity: 1; fill-rule: nonzero; stroke: none; stroke-width: 0; marker: none; visibility: visible; display: inline; overflow: visible;" d="m 565.63998,-275.08882 c -1.17689,0.0172 -2.1872,-0.37594 -2.58125,0.12127 -0.1625,0.20504 -0.18861,1.81974 -0.15637,2.06313 0.12415,0.93706 1.61062,2.0802 3.8362,2.8278 2.75363,0.92498 5.44314,0.6614 6.29095,-0.28186 -0.0317,-0.54746 0.14397,-1.29428 0.14397,-1.29428 l 0.26578,-0.21576 c 0.27746,-1.49018 -1.56675,-2.12868 -3.84473,-2.89388 -1.40182,-0.47091 -2.77768,-0.34366 -3.95458,-0.32641 z" id="path36596"/>
          <path id="path36551" transform="matrix(0.26458336,0,0,0.26458336,320.08182,94.083721)" d="m 928.09375,-1398.375 c -4.4481,0.065 -7.91691,1.027 -9.40625,2.9062 -2.97865,3.7586 3.18474,9.6905 13.78125,13.25 10.40736,3.4961 21.20191,3.409 24.40625,-0.1562 -2.70766,-1.02 -6.8125,-2.5938 -6.8125,-2.5938 l 7.71875,0.094 c -0.23381,-3.5863 -5.92159,-8.0454 -14.53125,-10.9375 -5.29824,-1.7798 -10.70815,-2.6277 -15.15625,-2.5625 z" style="color: rgb(0, 0, 0); fill: rgb(31, 211, 175); fill-opacity: 1; fill-rule: nonzero; stroke: none; stroke-width: 0; marker: none; visibility: visible; display: inline; overflow: visible;" inkscape:connector-curvature="0"/>
          <path inkscape:connector-curvature="0" style="color: rgb(0, 0, 0); fill: rgb(65, 228, 195); fill-opacity: 1; fill-rule: nonzero; stroke: none; stroke-width: 0; marker: none; visibility: visible; display: inline; overflow: visible;" d="m 932.0625,-1398.375 c -4.4481,0.065 -7.91691,1.027 -9.40625,2.9062 -2.79248,3.5237 2.44627,8.9641 11.84375,12.5626 -5.41703,-2.9701 -11.63148,-9.1695 -3.75,-12.125 6.70526,-2.5146 18.74224,0.7646 25.1875,3.2812 -2.34295,-1.4962 -5.28703,-2.9097 -8.71875,-4.0625 -5.29824,-1.7798 -10.70815,-2.6277 -15.15625,-2.5625 z" transform="matrix(0.26458336,0,0,0.26458336,319.03502,94.083721)" id="path36655"/>
          <path inkscape:connector-curvature="0" style="color: rgb(0, 0, 0); fill: rgb(31, 170, 142); fill-opacity: 1; fill-rule: nonzero; stroke: none; stroke-width: 0; marker: none; visibility: visible; display: inline; overflow: visible;" d="m 922.5625,-1391.3438 c -0.0453,-7e-4 -0.0947,0.013 -0.125,0.031 1.63325,3.1814 6.80501,6.6769 14,9.0937 10.40736,3.4962 21.20191,3.409 24.40625,-0.1562 -2.70766,-1.02 -6.8125,-2.5938 -6.8125,-2.5938 l 7.71875,0.094 c -0.11928,-1.8295 -1.65941,-3.8839 -4.28125,-5.8438 0.0725,0.8984 0.0551,1.7446 -0.125,2.375 -0.55953,1.9584 -7.5625,0.8438 -7.5625,0.8438 l 4.46875,3.375 c 0,0 -1.0923,1.375 -6.6875,1.375 -5.59521,0 -20.14436,-4.4554 -23.78125,-7.8125 -0.56826,-0.5245 -0.99242,-0.7773 -1.21875,-0.7813 z" transform="matrix(0.26458336,0,0,0.26458336,319.03502,94.083721)" id="path36660"/>
        </g>
        <path style="color: rgb(0, 0, 0); fill: rgb(31, 170, 142); fill-opacity: 1; fill-rule: nonzero; stroke: none; stroke-width: 0; marker: none; visibility: visible; display: inline; overflow: visible;" d="m 242.08831,410.7331 c 2.34588,0.33511 7.95922,3.01611 7.95922,3.01611 0,0 -2.681,-1.75939 -4.52418,-2.51344 -1.84319,-0.75402 -3.43504,-0.50267 -3.43504,-0.50267 z" id="path36665" inkscape:connector-curvature="0"/>
      </g>
      <g transform="translate(0,33.161665)" id="g37932">
        <g id="g36613" transform="matrix(1.1318742,0,0,1.1318742,-397.51991,722.44258)">
          <path inkscape:connector-curvature="0" id="path36608" transform="matrix(0.26458336,0,0,0.26458336,320.08182,94.083721)" d="m 897.9375,-1391.5312 c -7.30275,0.1629 -14.54924,3.0545 -19.90625,7.5312 -0.0485,0.01 -0.0762,0.023 -0.125,0.031 l 0,0.094 c -0.10114,0.085 -0.21275,0.1634 -0.3125,0.25 0.11304,0.059 0.16557,0.096 0.28125,0.1562 l -0.28125,3.9063 c 0.78099,0.4061 1.11851,0.5853 1.96875,1.0313 -2.37992,0.1093 -4.95558,0.2191 -6.71875,0.2812 -1.01573,1.5407 -1.83512,3.1452 -2.40625,4.8438 -0.86775,2.5805 -1.07846,5.0817 -0.75,7.4062 -1.21428,9.3265 5.98171,16.9409 17.53125,17.6562 2.84353,0.1762 5.71729,-0.096 8.5,-0.7187 -0.28968,-2.0108 -0.37905,-3.4265 -0.40625,-3.9687 0.13633,-0.029 0.27034,-0.063 0.40625,-0.094 -0.008,-0.056 -0.0233,-0.1004 -0.0312,-0.1562 0.56037,0.275 2.70527,1.3431 4.5625,2.8437 7.90983,-3.0079 14.52364,-8.9145 16.90625,-16 0.86776,-2.5805 1.07845,-5.0844 0.75,-7.4063 1.21431,-9.3212 -5.98168,-16.9095 -17.53125,-17.625 -0.80634,-0.05 -1.62979,-0.081 -2.4375,-0.062 z" style="color: rgb(0, 0, 0); fill: rgb(18, 98, 82); fill-opacity: 1; fill-rule: nonzero; stroke: rgb(18, 18, 18); stroke-width: 8; stroke-linejoin: round; stroke-miterlimit: 4; stroke-opacity: 1; stroke-dasharray: none; marker: none; visibility: visible; display: inline; overflow: visible;"/>
          <path sodipodi:nodetypes="ccccccsccccccc" inkscape:connector-curvature="0" style="color: rgb(0, 0, 0); fill: rgb(18, 98, 82); fill-opacity: 1; fill-rule: nonzero; stroke: none; stroke-width: 0; marker: none; visibility: visible; display: inline; overflow: visible;" d="m 557.66114,-273.01899 c -1.85992,0.0375 -1.27379,0.26414 -5.30315,0.9313 l -0.0795,1.16055 c 0.90071,0.46834 2.1432,1.12551 2.2655,1.19888 0.14764,0.0886 -2.33764,0.18153 -3.52227,0.22325 -0.26874,0.40765 -0.48554,0.8322 -0.63665,1.28159 -0.95952,2.8534 1.02654,5.34482 4.44004,5.55625 0.75235,0.0466 1.5127,-0.0254 2.24896,-0.19018 -0.0933,-0.64765 -0.11303,-1.1728 -0.11303,-1.1728 0,0 0.75266,0.35712 1.31192,0.809 2.09281,-0.79584 3.84271,-2.35863 4.47311,-4.23334 0.95953,-2.85339 -1.02653,-5.33654 -4.44004,-5.54799 -0.21334,-0.0132 -0.43121,-0.0213 -0.64492,-0.0165 z" id="path36592"/>
          <path inkscape:connector-curvature="0" id="path35453-3" transform="matrix(0.26458336,0,0,0.26458336,320.08182,94.083721)" d="m 897.9375,-1391.5312 c -7.50253,0.1674 -14.94793,3.2191 -20.34375,7.9062 3.40423,1.7701 8.10028,4.2539 8.5625,4.5312 0.55801,0.3349 -8.83516,0.6861 -13.3125,0.8438 -1.01573,1.5407 -1.83512,3.1453 -2.40625,4.8438 -3.62653,10.7845 3.87983,20.2009 16.78125,21 2.84354,0.1761 5.71729,-0.096 8.5,-0.7188 -0.35264,-2.4478 -0.625,-5.125 -0.625,-5.125 0,0 3.0425,2.0421 5.15625,3.75 7.90985,-3.0079 14.52361,-8.9145 16.90625,-16 3.62657,-10.7845 -3.8798,-20.1696 -16.78125,-20.9688 -0.80634,-0.05 -1.62979,-0.081 -2.4375,-0.062 z" style="color: rgb(0, 0, 0); fill: rgb(31, 211, 175); fill-opacity: 1; fill-rule: nonzero; stroke: none; stroke-width: 0; marker: none; visibility: visible; display: inline; overflow: visible;"/>
          <path inkscape:connector-curvature="0" style="color: rgb(0, 0, 0); fill: rgb(60, 232, 198); fill-opacity: 1; fill-rule: nonzero; stroke: none; stroke-width: 0; marker: none; visibility: visible; display: inline; overflow: visible;" d="m 870.1875,-1372.6562 c -3.03157,10.4633 4.434,19.4697 17.03125,20.25 2.84354,0.1761 5.71729,-0.096 8.5,-0.7188 -0.35264,-2.4478 -0.625,-5.125 -0.625,-5.125 0,0 3.0425,2.0421 5.15625,3.75 6.9555,-2.645 12.88834,-7.5416 15.84375,-13.5 -1.2429,1.0647 -2.73385,2.5069 -4.625,4.5625 -6.43449,6.994 -10.375,4.4687 -10.375,4.4687 l -7.8125,-2.5 -0.84375,4.75 c 0,0 -2.23517,1.3914 -11.1875,-1.4062 -6.67177,-2.0849 -10.56342,-8.0354 -11.0625,-14.5312 z" transform="matrix(0.26458336,0,0,0.26458336,320.08182,94.083721)" id="path36631"/>
          <path inkscape:connector-curvature="0" style="color: rgb(0, 0, 0); fill: rgb(65, 228, 195); fill-opacity: 1; fill-rule: nonzero; stroke: none; stroke-width: 0; marker: none; visibility: visible; display: inline; overflow: visible;" d="m 897.9375,-1391.5312 c -7.50253,0.1674 -14.94793,3.2191 -20.34375,7.9062 3.40423,1.7701 8.10028,4.2539 8.5625,4.5312 0.55801,0.335 -8.83516,0.6861 -13.3125,0.8438 -1.01573,1.5407 -1.83512,3.1452 -2.40625,4.8438 -0.97719,2.9059 -1.12094,5.7157 -0.59375,8.2812 -0.38295,-9.6768 5.8125,-10.9062 5.8125,-10.9062 l 18.75,-1.375 c 0,0 -2.53267,-6.7262 8.9375,-8.125 8.41478,-1.0262 12.91843,6.2182 14.71875,10.1562 0.27803,-8.6114 -6.776,-15.4178 -17.6875,-16.0938 -0.80634,-0.05 -1.62979,-0.081 -2.4375,-0.062 z" transform="matrix(0.26458336,0,0,0.26458336,320.08182,94.083721)" id="path36636"/>
        </g>
        <path style="color: rgb(0, 0, 0); fill: rgb(28, 149, 125); fill-opacity: 1; fill-rule: nonzero; stroke: none; stroke-width: 0; marker: none; visibility: visible; display: inline; overflow: visible;" d="m 235.80472,413.58165 c -5.02687,2.93234 -7.79165,7.79165 -7.28896,7.1214 0.50268,-0.67026 4.69175,-3.85392 6.45115,-5.61333 1.75941,-1.75942 2.51344,-2.84858 2.01075,-2.26209 -0.50269,0.58646 -1.17294,0.75402 -1.17294,0.75402 z" id="path36639" inkscape:connector-curvature="0"/>
      </g>
      <g transform="translate(0,33.161665)" id="g37923">
        <g id="g36618" transform="matrix(1.1318742,0,0,1.1318742,-397.51991,722.44258)">
          <path inkscape:connector-curvature="0" id="path36603" transform="matrix(0.26458336,0,0,0.26458336,320.08182,94.083721)" d="m 929.21875,-1380.75 c -5.41564,0.1508 -9.68672,2.4028 -11.5,6.75 -0.8613,2.0649 -1.0703,4.4105 -0.75,6.9062 -0.66931,4.3087 0.79858,9.4118 3.875,14.375 3.5997,-0.544 7.99561,-1.6027 10.09375,-2.5312 -1.67458,2.3893 -3.80528,5.6555 -3.96875,5.9062 0.0417,0.041 0.0832,0.084 0.125,0.125 -0.33188,0.8196 -0.0726,3.9821 -0.125,4.0626 2.22981,2.1903 4.73856,4.2176 7.53125,6 12.90149,8.2345 26.02972,5.7882 29.65625,-2.9063 0.72993,-1.75 1.06184,-3.1695 1,-4.7187 -4.2e-4,-0.011 4.6e-4,-0.021 0,-0.031 0.46314,-2.9499 -0.0636,-6.2811 -1.4375,-9.6875 -0.33107,-0.1127 -0.65169,-0.248 -1,-0.375 0.0345,-0.6852 0.0545,-1.3413 -0.0937,-1.6562 0.0523,-0.01 0.10374,-0.022 0.15625,-0.031 -2.94381,-5.9113 -8.25419,-11.8647 -15.125,-16.25 -6.45069,-4.1171 -13.02186,-6.0883 -18.4375,-5.9375 z" style="color: rgb(0, 0, 0); fill: rgb(18, 98, 82); fill-opacity: 1; fill-rule: nonzero; stroke: rgb(18, 18, 18); stroke-width: 8; stroke-linejoin: round; stroke-miterlimit: 4; stroke-opacity: 1; stroke-dasharray: none; marker: none; visibility: visible; display: inline; overflow: visible;"/>
          <path sodipodi:nodetypes="cccccccccsccccssc" inkscape:connector-curvature="0" style="color: rgb(0, 0, 0); fill: rgb(18, 98, 82); fill-opacity: 1; fill-rule: nonzero; stroke: none; stroke-width: 0; marker: none; visibility: visible; display: inline; overflow: visible;" d="m 565.93764,-270.12945 c -1.43289,0.0399 -2.56295,0.63574 -3.04271,1.78593 -0.52523,1.25924 -0.16504,2.92254 0.82682,4.52274 1.17463,-0.17754 2.6894,-0.56446 2.96003,-0.83511 0.33309,-0.33308 0.47956,-0.66974 0.47956,-0.66974 0,0 0.002,0.92882 -0.40515,1.44696 -0.29437,0.37465 -0.82424,0.73493 -1.37479,0.94952 -0.10805,0.16337 -0.0246,1.087 -0.0391,1.10925 0.58997,0.57952 1.25374,1.11591 1.99264,1.5875 3.41352,2.17872 6.88742,1.53033 7.84694,-0.77009 0.38888,-0.93232 0.36153,-1.52646 -0.11615,-2.71082 -0.41519,-0.14134 -0.95084,-0.35554 -0.95084,-0.35554 0,0 0.34571,-0.12833 0.7028,-0.19016 -0.0929,-0.18657 0.0643,-0.92845 -0.046,-1.11462 -0.81487,-1.37446 -2.35474,-2.16299 -3.95579,-3.18486 -1.70674,-1.08932 -3.44536,-1.61086 -4.87825,-1.57096 z" id="path36594"/>
          <path inkscape:connector-curvature="0" id="path36549" transform="matrix(0.26458336,0,0,0.26458336,320.08182,94.083721)" d="m 929.21875,-1380.75 c -5.41564,0.1508 -9.68672,2.4028 -11.5,6.75 -1.98513,4.7593 -0.62378,11.0458 3.125,17.0938 4.43955,-0.671 10.16463,-2.1334 11.1875,-3.1563 1.25892,-1.2589 1.8125,-2.5313 1.8125,-2.5313 0,0 0.007,3.5105 -1.53125,5.4688 -1.49423,1.9017 -5.1291,7.4519 -5.34375,7.7812 2.22983,2.1903 4.73854,4.2176 7.53125,6 12.90149,8.2345 26.31097,7.8821 29.9375,-0.8124 1.46975,-3.5237 1.08665,-7.8675 -0.71875,-12.3438 -1.56924,-0.5342 -3.59375,-1.3438 -3.59375,-1.3438 0,0 1.30662,-0.485 2.65625,-0.7187 -2.94381,-5.9113 -8.25419,-11.8647 -15.125,-16.25 -6.45069,-4.1171 -13.02186,-6.0883 -18.4375,-5.9375 z" style="color: rgb(0, 0, 0); fill: rgb(31, 211, 175); fill-opacity: 1; fill-rule: nonzero; stroke: none; stroke-width: 0; marker: none; visibility: visible; display: inline; overflow: visible;"/>
          <path inkscape:connector-curvature="0" style="color: rgb(0, 0, 0); fill: rgb(65, 228, 195); fill-opacity: 1; fill-rule: nonzero; stroke: none; stroke-width: 0; marker: none; visibility: visible; display: inline; overflow: visible;" d="m 957.5,-1366.2812 c 1.57365,2.7145 2.34375,5.0937 2.34375,5.0937 l -4.46875,1.6563 7,4.7812 c 0,0 1.13387,9.2321 -8.9375,11.75 -10.07137,2.5178 -20.71875,-8.4062 -20.71875,-8.4062 0,0 2.25149,-10.9123 2.53125,-12.0313 0.16709,-0.6684 -0.46947,0.3149 -1.5,2.0625 -0.12593,1.198 -0.45425,2.9986 -1.4375,4.25 -1.49423,1.9017 -5.1291,7.4519 -5.34375,7.7812 2.22983,2.1904 4.73854,4.2176 7.53125,6 12.90149,8.2346 26.31097,7.8821 29.9375,-0.8124 1.46975,-3.5238 1.08665,-7.8675 -0.71875,-12.3438 -1.56924,-0.5342 -3.59375,-1.3438 -3.59375,-1.3438 0,0 1.30662,-0.485 2.65625,-0.7187 -1.30392,-2.6183 -3.11878,-5.2238 -5.28125,-7.7187 z" transform="matrix(0.26458336,0,0,0.26458336,320.08182,94.083721)" id="path36645"/>
          <path inkscape:connector-curvature="0" style="opacity: 0.340708; color: rgb(0, 0, 0); fill: rgb(20, 110, 92); fill-opacity: 1; fill-rule: nonzero; stroke: none; stroke-width: 0; marker: none; visibility: visible; display: inline; overflow: visible;" d="m 929.21875,-1380.75 c -5.41564,0.1508 -9.68672,2.4028 -11.5,6.75 -1.78368,4.2763 -0.86159,9.7886 2.0625,15.25 -2.00604,-10.5816 4,-17.474 4,-16.4375 0,1.1191 12.00599,5.5922 19,5.3125 6.99401,-0.2798 8.6875,-0.5625 8.6875,-0.5625 0,0 2.54155,1.6763 5.40625,3.4063 -2.59459,-2.8577 -5.69399,-5.5316 -9.21875,-7.7813 -6.45069,-4.1171 -13.02186,-6.0883 -18.4375,-5.9375 z" transform="matrix(0.26458336,0,0,0.26458336,320.08182,94.083721)" id="path36650"/>
        </g>
        <path style="color: rgb(0, 0, 0); fill: rgb(28, 149, 125); fill-opacity: 1; fill-rule: nonzero; stroke: none; stroke-width: 0; marker: none; visibility: visible; display: inline; overflow: visible;" d="m 240.8316,416.17888 c 5.02687,2.09453 10.22131,9.46727 10.22131,9.46727 0,0 -2.59722,-4.60796 -4.69175,-6.78628 -2.09453,-2.17829 -5.52956,-2.68099 -5.52956,-2.68099 z" id="path36641" inkscape:connector-curvature="0" sodipodi:nodetypes="ccsc"/>
      </g>
    </g>
  </g>
</svg>