<?xml version="1.0" encoding="UTF-8" standalone="no"?><!-- Created with Inkscape (http://www.inkscape.org/) --><svg xmlns:dc="http://purl.org/dc/elements/1.1/" xmlns:cc="http://creativecommons.org/ns#" xmlns:rdf="http://www.w3.org/1999/02/22-rdf-syntax-ns#" xmlns:svg="http://www.w3.org/2000/svg" xmlns="http://www.w3.org/2000/svg" xmlns:sodipodi="http://sodipodi.sourceforge.net/DTD/sodipodi-0.dtd" xmlns:inkscape="http://www.inkscape.org/namespaces/inkscape" width="79.553795" height="146.67146" viewBox="0 0 21.048605 38.806817" version="1.1" id="svg23489" inkscape:version="0.48.5 r10040" sodipodi:docname="plant_15.svg">
  <defs id="defs23483">
    <clipPath clipPathUnits="userSpaceOnUse" id="clipPath22932">
      <path style="opacity: 0.39823; color: rgb(0, 0, 0); fill: rgb(167, 226, 90); fill-opacity: 1; fill-rule: nonzero; stroke: none; stroke-width: 0; marker: none; visibility: visible; display: inline; overflow: visible;" d="m 544.30169,181.88988 c 0.28587,0.59217 2.59866,1.15837 3.74216,0.1578 0.98015,2.77708 16.86469,0 16.86469,0 l 0,-16.17162 -30.55281,0 0,15.42079 c 0,0 6.65838,3.49263 9.94596,0.59303 z" id="path22934" inkscape:connector-curvature="0" sodipodi:nodetypes="ccccccc"/>
    </clipPath>
    <clipPath clipPathUnits="userSpaceOnUse" id="clipPath22874">
      <path style="opacity: 0.39823; color: rgb(0, 0, 0); fill: rgb(167, 226, 90); fill-opacity: 1; fill-rule: nonzero; stroke: none; stroke-width: 0; marker: none; visibility: visible; display: inline; overflow: visible;" d="m 507.96393,172.04108 c 5.63585,4.14521 4.40861,7.03756 4.24526,7.42553 -0.16336,0.38797 -0.45419,0.84609 -0.55527,0.75946 0,0 -0.23077,1.39392 -0.96715,1.52387 0,0 0.7281,2.05291 -3.23333,2.91054 -3.96143,0.85763 -12.08849,-2.45037 -11.76178,-7.80034 0.32672,-5.34998 9.00511,-7.35111 12.27227,-4.81906 z" id="path22876" inkscape:connector-curvature="0" sodipodi:nodetypes="csccssc"/>
    </clipPath>
    <clipPath clipPathUnits="userSpaceOnUse" id="clipPath22894">
      <path style="opacity: 0.39823; color: rgb(0, 0, 0); fill: rgb(167, 226, 90); fill-opacity: 1; fill-rule: nonzero; stroke: none; stroke-width: 0; marker: none; visibility: visible; display: inline; overflow: visible;" d="m 519.13353,181.84256 c 1.53,1.07862 2.21773,-0.85703 2.00114,-1.06183 0.0817,0.0408 1.9603,0.65343 4.32899,-2.85877 2.36869,-3.51219 0,-9.96483 -8.00455,-11.96597 -8.00454,-2.00113 -11.2717,3.47136 -11.47589,10.16904 -0.2042,6.69767 5.75836,9.27056 9.76064,9.7198 4.00227,0.44923 3.38967,-4.00227 3.38967,-4.00227 z" id="path22896" inkscape:connector-curvature="0" sodipodi:nodetypes="ccssssc"/>
    </clipPath>
    <clipPath clipPathUnits="userSpaceOnUse" id="clipPath23263">
      <path style="opacity: 0.39823; color: rgb(0, 0, 0); fill: rgb(167, 226, 90); fill-opacity: 1; fill-rule: nonzero; stroke: none; stroke-width: 0; marker: none; visibility: visible; display: inline; overflow: visible;" d="m 507.96393,172.04108 c 5.63585,4.14521 4.40861,7.03756 4.24526,7.42553 -0.16336,0.38797 -0.45419,0.84609 -0.55527,0.75946 0,0 -0.23077,1.39392 -0.96715,1.52387 0,0 0.7281,2.05291 -3.23333,2.91054 -3.96143,0.85763 -12.08849,-2.45037 -11.76178,-7.80034 0.32672,-5.34998 9.00511,-7.35111 12.27227,-4.81906 z" id="path23265" inkscape:connector-curvature="0" sodipodi:nodetypes="csccssc"/>
    </clipPath>
    <clipPath clipPathUnits="userSpaceOnUse" id="clipPath22907">
      <path style="opacity: 0.39823; color: rgb(0, 0, 0); fill: rgb(167, 226, 90); fill-opacity: 1; fill-rule: nonzero; stroke: none; stroke-width: 0; marker: none; visibility: visible; display: inline; overflow: visible;" d="m 525.58617,181.98549 c 0.89522,0.98185 2.40724,0.64233 3.04255,0.12252 0.16124,0.72559 12.13955,0.23486 11.90471,0 -0.23482,-0.23483 4.09811,-23.83249 0,-26.19853 -4.09811,-2.36605 -15.11061,0 -21.31822,0 -6.2076,0 -9.48879,8.76153 -8.08444,14.00265 1.40436,5.24112 4.81751,7.15803 7.00687,9.97898 2.18936,2.82095 7.44853,2.09438 7.44853,2.09438 z" id="path22909" inkscape:connector-curvature="0" sodipodi:nodetypes="ccsssssc"/>
    </clipPath>
    <clipPath clipPathUnits="userSpaceOnUse" id="clipPath23269">
      <path style="opacity: 0.39823; color: rgb(0, 0, 0); fill: rgb(167, 226, 90); fill-opacity: 1; fill-rule: nonzero; stroke: none; stroke-width: 0; marker: none; visibility: visible; display: inline; overflow: visible;" d="m 525.58617,181.98549 c 0.89522,0.98185 2.40724,0.64233 3.04255,0.12252 0.16124,0.72559 12.13955,0.23486 11.90471,0 -0.23482,-0.23483 4.09811,-23.83249 0,-26.19853 -4.09811,-2.36605 -15.11061,0 -21.31822,0 -6.2076,0 -9.48879,8.76153 -8.08444,14.00265 1.40436,5.24112 4.81751,7.15803 7.00687,9.97898 2.18936,2.82095 7.44853,2.09438 7.44853,2.09438 z" id="path23271" inkscape:connector-curvature="0" sodipodi:nodetypes="ccsssssc"/>
    </clipPath>
    <clipPath clipPathUnits="userSpaceOnUse" id="clipPath23273">
      <path style="opacity: 0.39823; color: rgb(0, 0, 0); fill: rgb(167, 226, 90); fill-opacity: 1; fill-rule: nonzero; stroke: none; stroke-width: 0; marker: none; visibility: visible; display: inline; overflow: visible;" d="m 507.96393,172.04108 c 5.63585,4.14521 4.40861,7.03756 4.24526,7.42553 -0.16336,0.38797 -0.45419,0.84609 -0.55527,0.75946 0,0 -0.23077,1.39392 -0.96715,1.52387 0,0 0.7281,2.05291 -3.23333,2.91054 -3.96143,0.85763 -12.08849,-2.45037 -11.76178,-7.80034 0.32672,-5.34998 9.00511,-7.35111 12.27227,-4.81906 z" id="path23275" inkscape:connector-curvature="0" sodipodi:nodetypes="csccssc"/>
    </clipPath>
    <clipPath clipPathUnits="userSpaceOnUse" id="clipPath23277">
      <path style="opacity: 0.39823; color: rgb(0, 0, 0); fill: rgb(167, 226, 90); fill-opacity: 1; fill-rule: nonzero; stroke: none; stroke-width: 0; marker: none; visibility: visible; display: inline; overflow: visible;" d="m 519.13353,181.84256 c 1.53,1.07862 2.21773,-0.85703 2.00114,-1.06183 0.0817,0.0408 1.9603,0.65343 4.32899,-2.85877 2.36869,-3.51219 0,-9.96483 -8.00455,-11.96597 -8.00454,-2.00113 -11.2717,3.47136 -11.47589,10.16904 -0.2042,6.69767 5.75836,9.27056 9.76064,9.7198 4.00227,0.44923 3.38967,-4.00227 3.38967,-4.00227 z" id="path23279" inkscape:connector-curvature="0" sodipodi:nodetypes="ccssssc"/>
    </clipPath>
    <clipPath clipPathUnits="userSpaceOnUse" id="clipPath23281">
      <path style="opacity: 0.39823; color: rgb(0, 0, 0); fill: rgb(167, 226, 90); fill-opacity: 1; fill-rule: nonzero; stroke: none; stroke-width: 0; marker: none; visibility: visible; display: inline; overflow: visible;" d="m 525.58617,181.98549 c 0.89522,0.98185 2.40724,0.64233 3.04255,0.12252 0.16124,0.72559 12.13955,0.23486 11.90471,0 -0.23482,-0.23483 4.09811,-23.83249 0,-26.19853 -4.09811,-2.36605 -15.11061,0 -21.31822,0 -6.2076,0 -9.48879,8.76153 -8.08444,14.00265 1.40436,5.24112 4.81751,7.15803 7.00687,9.97898 2.18936,2.82095 7.44853,2.09438 7.44853,2.09438 z" id="path23283" inkscape:connector-curvature="0" sodipodi:nodetypes="ccsssssc"/>
    </clipPath>
    <clipPath clipPathUnits="userSpaceOnUse" id="clipPath23285">
      <path style="opacity: 0.39823; color: rgb(0, 0, 0); fill: rgb(167, 226, 90); fill-opacity: 1; fill-rule: nonzero; stroke: none; stroke-width: 0; marker: none; visibility: visible; display: inline; overflow: visible;" d="m 544.30169,181.88988 c 0.28587,0.59217 2.59866,1.15837 3.74216,0.1578 0.98015,2.77708 16.86469,0 16.86469,0 l 0,-16.17162 -30.55281,0 0,15.42079 c 0,0 6.65838,3.49263 9.94596,0.59303 z" id="path23287" inkscape:connector-curvature="0" sodipodi:nodetypes="ccccccc"/>
    </clipPath>
    <clipPath clipPathUnits="userSpaceOnUse" id="clipPath23289">
      <path style="opacity: 0.39823; color: rgb(0, 0, 0); fill: rgb(167, 226, 90); fill-opacity: 1; fill-rule: nonzero; stroke: none; stroke-width: 0; marker: none; visibility: visible; display: inline; overflow: visible;" d="m 507.96393,172.04108 c 5.63585,4.14521 4.40861,7.03756 4.24526,7.42553 -0.16336,0.38797 -0.45419,0.84609 -0.55527,0.75946 0,0 -0.23077,1.39392 -0.96715,1.52387 0,0 0.7281,2.05291 -3.23333,2.91054 -3.96143,0.85763 -12.08849,-2.45037 -11.76178,-7.80034 0.32672,-5.34998 9.00511,-7.35111 12.27227,-4.81906 z" id="path23291" inkscape:connector-curvature="0" sodipodi:nodetypes="csccssc"/>
    </clipPath>
    <clipPath clipPathUnits="userSpaceOnUse" id="clipPath22919">
      <path style="opacity: 0.39823; color: rgb(0, 0, 0); fill: rgb(167, 226, 90); fill-opacity: 1; fill-rule: nonzero; stroke: none; stroke-width: 0; marker: none; visibility: visible; display: inline; overflow: visible;" d="m 533.24358,180.67863 c -0.16336,1.16393 0.51049,2.00114 2.00114,1.20477 -1.74256,1.5022 -0.71572,1.26164 1.42124,3.05207 2.13697,1.79043 11.4934,0.98185 12.12872,0.5198 0.63531,-0.46205 8.02805,-6.41089 8.0858,-8.66336 0.0578,-2.25248 -1.90593,-15.01651 -5.19801,-17.78878 -3.29208,-2.77228 -16.4604,-0.57756 -19.75248,-0.0578 -3.29208,0.5198 -10.16501,5.71782 -9.93399,5.77558 0.23102,0.0577 2.83003,15.42079 2.77228,15.65181 -0.0578,0.23102 2.42574,4.15842 2.83003,3.92739 0.40429,-0.23102 3.95121,-3.17246 3.95121,-3.17246 0,0 1.59196,0.89865 1.69406,-0.44906 z" id="path22921" inkscape:connector-curvature="0" sodipodi:nodetypes="ccsssssssscc"/>
    </clipPath>
    <clipPath clipPathUnits="userSpaceOnUse" id="clipPath23295">
      <path style="opacity: 0.39823; color: rgb(0, 0, 0); fill: rgb(167, 226, 90); fill-opacity: 1; fill-rule: nonzero; stroke: none; stroke-width: 0; marker: none; visibility: visible; display: inline; overflow: visible;" d="m 525.58617,181.98549 c 0.89522,0.98185 2.40724,0.64233 3.04255,0.12252 0.16124,0.72559 12.13955,0.23486 11.90471,0 -0.23482,-0.23483 4.09811,-23.83249 0,-26.19853 -4.09811,-2.36605 -15.11061,0 -21.31822,0 -6.2076,0 -9.48879,8.76153 -8.08444,14.00265 1.40436,5.24112 4.81751,7.15803 7.00687,9.97898 2.18936,2.82095 7.44853,2.09438 7.44853,2.09438 z" id="path23297" inkscape:connector-curvature="0" sodipodi:nodetypes="ccsssssc"/>
    </clipPath>
    <clipPath clipPathUnits="userSpaceOnUse" id="clipPath23299">
      <path style="opacity: 0.39823; color: rgb(0, 0, 0); fill: rgb(167, 226, 90); fill-opacity: 1; fill-rule: nonzero; stroke: none; stroke-width: 0; marker: none; visibility: visible; display: inline; overflow: visible;" d="m 525.58617,181.98549 c 0.89522,0.98185 2.40724,0.64233 3.04255,0.12252 0.16124,0.72559 12.13955,0.23486 11.90471,0 -0.23482,-0.23483 4.09811,-23.83249 0,-26.19853 -4.09811,-2.36605 -15.11061,0 -21.31822,0 -6.2076,0 -9.48879,8.76153 -8.08444,14.00265 1.40436,5.24112 4.81751,7.15803 7.00687,9.97898 2.18936,2.82095 7.44853,2.09438 7.44853,2.09438 z" id="path23301" inkscape:connector-curvature="0" sodipodi:nodetypes="ccsssssc"/>
    </clipPath>
  </defs>
  <sodipodi:namedview id="base" pagecolor="#7d848b" bordercolor="#666666" borderopacity="1.0" inkscape:pageopacity="0" inkscape:pageshadow="2" inkscape:zoom="1.7872445" inkscape:cx="17.914007" inkscape:cy="55.53078" inkscape:document-units="px" inkscape:current-layer="layer1" showgrid="false" inkscape:pagecheckerboard="false" showborder="true" units="px" inkscape:window-width="1920" inkscape:window-height="1017" inkscape:window-x="-8" inkscape:window-y="-8" inkscape:window-maximized="1" inkscape:showpageshadow="false" guidetolerance="28" fit-margin-top="8" fit-margin-left="8" fit-margin-right="8" fit-margin-bottom="8">
    <inkscape:grid type="xygrid" id="grid24034" spacingx="1px" spacingy="1px" empspacing="8" visible="true" enabled="true" snapvisiblegridlinesonly="true" originx="-153.43856px" originy="503.39194px"/>
  </sodipodi:namedview>
  <metadata id="metadata23486">
    <rdf:RDF>
      <cc:Work rdf:about="">
        <dc:format>image/svg+xml</dc:format>
        <dc:type rdf:resource="http://purl.org/dc/dcmitype/StillImage"/>
        <dc:title/>
        <cc:license rdf:resource=""/>
        <dc:creator>
          <cc:Agent>
            <dc:title>Robert Brooks</dc:title>
          </cc:Agent>
        </dc:creator>
      </cc:Work>
    </rdf:RDF>
  </metadata>
  <g inkscape:label="Layer 1" inkscape:groupmode="layer" id="layer1" transform="translate(-40.597269,-391.38225)">
    <g id="g4108" transform="translate(-5.3294325,5.1813927)">
      <path gds_opacity="shadow" gds_switchable="shadow" inkscape:connector-curvature="0" gds_color="shadow" id="path4084" d="m -436.42602,71.414085 c 0,10.042977 -17.0344,18.184418 -38.0474,18.184418 -21.013,0 -38.0474,-8.141441 -38.0474,-18.184418 0,-10.042976 17.0344,-18.184417 38.0474,-18.184417 21.013,0 38.0474,8.141441 38.0474,18.184417 z" style="opacity: 0.25; color: rgb(0, 0, 0); fill: rgb(0, 0, 0); fill-opacity: 1; fill-rule: nonzero; stroke: none; stroke-width: 0; marker: none; visibility: visible; display: inline; overflow: visible;" transform="matrix(0.19065562,0,0,0.26123112,147.42018,399.48509)"/>
      <g transform="translate(19.738847,458.74734)" id="g9737">
        <g transform="matrix(0.62074201,0.01775777,-0.01775777,0.62074201,146.80257,-84.291707)" id="g9605">
          <path sodipodi:nodetypes="cssscsscsc" inkscape:connector-curvature="0" id="path9607" d="m -176.14933,64.524891 c 0.11762,0.129513 -2.07359,6.424765 -2.54394,2.506204 -0.23378,-1.947605 -0.49877,-4.242698 -0.90455,-6.698567 -1.14119,-6.906705 -2.89911,-15.136553 -3.51983,-20.971269 -0.94864,-8.917221 0.37947,-10.340183 0.66406,-9.58127 1.70092,8.9737 3.32023,14.893656 5.50211,21.913599 1.15984,3.731655 3.69242,9.89746 4.5486,14.484243 0.18305,0.980631 0.0882,3.767302 -2.12537,-0.46656 0,1.218804 0.19451,0.08049 -1.18035,0.242425 -1.77482,0.209042 -0.39644,-0.522751 -0.44073,-1.428805 z" style="color: rgb(0, 0, 0); fill: rgb(181, 230, 116); fill-opacity: 1; fill-rule: nonzero; stroke: rgb(18, 18, 18); stroke-width: 4.11474; stroke-linejoin: round; stroke-miterlimit: 4; stroke-opacity: 1; stroke-dasharray: none; marker: none; visibility: visible; display: inline; overflow: visible;"/>
          <path style="color: rgb(0, 0, 0); fill: rgb(127, 213, 1); fill-opacity: 1; fill-rule: nonzero; stroke: none; stroke-width: 0; marker: none; visibility: visible; display: inline; overflow: visible;" d="m -178.56417,69.622897 c 0,-6.832848 -3.60484,-21.344414 -4.55348,-30.261638 -0.94863,-8.917222 0.37947,-10.340183 0.66406,-9.58127 1.70092,8.9737 3.32022,14.893659 5.50211,21.913599 1.40781,4.529465 4.83807,12.645159 4.83807,17.170397 0,2.792179 -6.37217,2.366834 -6.45076,0.758912 z" id="path9609" inkscape:connector-curvature="0" sodipodi:nodetypes="cscscc"/>
          <path style="opacity: 0.553097; color: rgb(0, 0, 0); fill: rgb(87, 145, 1); fill-opacity: 1; fill-rule: nonzero; stroke: none; stroke-width: 0; marker: none; visibility: visible; display: inline; overflow: visible;" d="m -177.01883,51.477532 c 0.34922,2.009391 0.81097,4.122463 1.39734,5.812565 1.61269,4.648339 1.04569,10.15289 -0.85161,8.160744 -1.27892,-1.342848 -2.69984,-6.188677 -4.26641,-11.550718 1.11808,6.086246 2.17453,12.031627 2.17453,15.726174 0.0786,1.607922 6.44922,2.031502 6.44922,-0.760678 0,-4.525237 -3.4291,-12.643647 -4.83692,-17.173113 -0.0227,-0.07291 -0.0436,-0.142296 -0.0662,-0.214974 z" id="path9611" inkscape:connector-curvature="0"/>
          <path style="color: rgb(0, 0, 0); fill: rgb(139, 220, 29); fill-opacity: 1; fill-rule: nonzero; stroke: none; stroke-width: 0; marker: none; visibility: visible; display: inline; overflow: visible;" d="m -182.64948,29.608063 c -0.44688,0.0444 -1.2717,2.232605 -0.47128,9.756512 0.46175,4.340572 1.55649,10.000812 2.55487,15.46159 0.6101,2.688133 1.84759,4.910876 0.66972,0.471289 -1.23323,-4.648338 -2.64973,-15.653582 -2.55487,-18.214911 0.0949,-2.561331 1.61102,4.36574 2.84427,7.970574 0.415,1.21308 1.13683,2.746505 1.91823,4.24987 -1.82267,-6.033752 -3.25798,-11.583655 -4.7625,-19.521291 -0.0445,-0.118581 -0.11568,-0.181853 -0.19844,-0.173633 z" id="path9613" inkscape:connector-curvature="0"/>
        </g>
        <g id="g9625" transform="matrix(-0.61779481,0.06297252,0.06297252,0.61779481,-84.208721,-74.78473)">
          <path style="color: rgb(0, 0, 0); fill: rgb(181, 230, 116); fill-opacity: 1; fill-rule: nonzero; stroke: rgb(18, 18, 18); stroke-width: 4.11474; stroke-linejoin: round; stroke-miterlimit: 4; stroke-opacity: 1; stroke-dasharray: none; marker: none; visibility: visible; display: inline; overflow: visible;" d="m -191.5228,64.310289 c 0.16891,8.568493 -1.64631,5.094087 -1.8411,4.423419 -4.31044,-14.841382 -4.82368,-27.112879 -4.27298,-32.377905 0.28282,-2.70389 1.50945,-2.737706 1.90046,-0.236804 0.88582,5.665781 1.67897,12.747503 4.0632,20.157317 0.89005,2.766125 2.92385,7.687373 4.16837,10.609572 0.46991,1.103391 1.44391,3.581892 -3.63283,-1.610494 0.10857,1.628423 2.7033,3.118926 1.14262,3.352228 -1.39297,0.208232 -1.09171,-3.299929 -1.52774,-4.317333 z" id="path9627" inkscape:connector-curvature="0" sodipodi:nodetypes="cssssscsc"/>
          <path sodipodi:nodetypes="cssscc" inkscape:connector-curvature="0" id="path9629" d="m -192.75603,70.761046 c -4.86975,-15.745338 -5.45644,-28.902295 -4.88085,-34.405243 0.28282,-2.70389 1.50945,-2.737706 1.90046,-0.236804 0.88582,5.665781 1.67896,12.747505 4.0632,20.157317 1.22612,3.810584 4.62281,11.711058 5.13645,12.841073 0.20546,3.081856 -5.2947,3.800957 -6.21926,1.643657 z" style="color: rgb(0, 0, 0); fill: rgb(127, 213, 1); fill-opacity: 1; fill-rule: nonzero; stroke: none; stroke-width: 0; marker: none; visibility: visible; display: inline; overflow: visible;"/>
          <path id="path9631" transform="matrix(0.26458336,0,0,0.26458336,320.08182,94.083721)" d="m -1944.5938,-186.90625 c -0.3851,7.55318 -0.1983,16.56037 1.6563,24.90625 4.3025,19.36124 22.225,62.004785 11.4687,57.34375 -7.9116,-3.42838 -13.8754,-13.86467 -18.9062,-31.6875 2.8912,14.9649 6.8326,31.17674 12.0938,48.1875 3.4943,8.153574 24.2765,5.429209 23.5,-6.21875 -1.9414,-4.270922 -14.7721,-34.12904 -19.4063,-48.53125 -4.9149,-15.27459 -8.0366,-30.13024 -10.4063,-44 z" style="color: rgb(0, 0, 0); fill: rgb(118, 200, 0); fill-opacity: 1; fill-rule: nonzero; stroke: none; stroke-width: 0; marker: none; visibility: visible; display: inline; overflow: visible;" inkscape:connector-curvature="0"/>
          <path id="path9633" transform="matrix(0.26458336,0,0,0.26458336,320.08182,94.083721)" d="m -1953.2812,-226 c -1.4774,0.12785 -2.9031,2.70279 -3.4376,7.8125 -1.1696,11.18291 -1.0474,30.78554 2.1563,55.71875 -1.167,-20.86527 -0.051,-45.23066 1.9375,-47.21875 2.8684,-2.86833 4.6696,25.80459 10.4062,35.84375 0.028,0.049 0.066,0.0777 0.094,0.125 -3.365,-16.53803 -5.3476,-32.00758 -7.4375,-45.375 -0.7389,-4.72611 -2.2414,-7.0341 -3.7187,-6.90625 z" style="color: rgb(0, 0, 0); fill: rgb(139, 220, 29); fill-opacity: 1; fill-rule: nonzero; stroke: none; stroke-width: 0; marker: none; visibility: visible; display: inline; overflow: visible;" inkscape:connector-curvature="0"/>
        </g>
        <g id="g9661" transform="matrix(-0.83959567,0,0,0.59118115,67.121974,132.09995)">
          <path sodipodi:nodetypes="cssssscc" style="color: rgb(0, 0, 0); fill: rgb(155, 224, 65); fill-opacity: 1; fill-rule: nonzero; stroke: rgb(18, 18, 18); stroke-width: 3.6269; stroke-linecap: round; stroke-linejoin: round; stroke-miterlimit: 4; stroke-opacity: 1; stroke-dasharray: none; stroke-dashoffset: 37.6; marker: none; visibility: visible; display: inline; overflow: visible;" d="m 42.210102,-297.21676 c 1.007227,-1.45609 -0.285247,6.18977 1.21214,0.72462 2.392328,-8.73151 -0.894157,-19.18538 0.41388,-27.03381 0.466233,-2.79747 0.906325,-4.98972 0.160339,-4.61673 -0.746003,0.373 -2.517739,5.3152 -2.797469,10.2574 -0.279754,4.94221 0.20937,15.89955 -0.220793,18.55628 -0.585673,3.61716 -1.936879,4.76738 -3.955874,6.47864 0.932505,0.83924 3.175406,-2.35403 5.187777,-4.3664 z" id="path9663" inkscape:connector-curvature="0"/>
          <path inkscape:connector-curvature="0" id="path9665" d="m 40.956839,-289.59471 c 6.434177,-11.00339 1.323496,-24.59627 2.879283,-33.93124 0.466234,-2.79747 0.906325,-4.98972 0.160339,-4.61673 -0.746003,0.373 -2.517739,5.3152 -2.797469,10.2574 -0.279754,4.94221 0.20937,15.89955 -0.220793,18.55628 -0.585673,3.61716 -1.936879,8.17674 -3.955874,9.888 0.932505,0.83924 1.922143,1.85866 3.934514,-0.15371 z" style="color: rgb(0, 0, 0); fill: rgb(127, 213, 1); fill-opacity: 1; fill-rule: nonzero; stroke: none; stroke-width: 0; marker: none; visibility: visible; display: inline; overflow: visible;" sodipodi:nodetypes="csssscc"/>
          <path sodipodi:nodetypes="ccccsccccc" inkscape:connector-curvature="0" id="path9667" transform="matrix(0.26458336,0,0,0.26458336,320.08182,94.083721)" d="m -1043,-1595.9688 c -0.1423,0.014 -0.2925,0.068 -0.4688,0.1563 -1.4512,0.7256 -3.9171,6.0412 -6.125,13.5625 0.686,-0.7201 1.3436,-0.871 1.9376,0.062 2.5098,3.9439 -1.0572,6.8464 0.5265,39.7942 2.4805,51.6064 2.0185,79.2359 -19.9641,95.1745 2.8954,2.0653 6.4207,2.7982 12.125,-2.9062 24.3182,-41.5876 4.9949,-92.9682 10.875,-128.25 1.6521,-9.9123 3.2278,-17.8063 1.0938,-17.5938 z" style="color: rgb(0, 0, 0); fill: rgb(139, 220, 29); fill-opacity: 1; fill-rule: nonzero; stroke: none; stroke-width: 0; marker: none; visibility: visible; display: inline; overflow: visible;"/>
        </g>
        <g transform="matrix(0.75528407,0.03371994,-0.02374309,0.53181516,2.4221584,113.15176)" id="g9729">
          <path inkscape:connector-curvature="0" id="path9731" d="m 42.210102,-297.21676 c 1.007227,-1.45609 -0.285247,6.18977 1.21214,0.72462 2.392328,-8.73151 -0.894157,-19.18538 0.41388,-27.03381 0.466233,-2.79747 0.906325,-4.98972 0.160339,-4.61673 -0.746003,0.373 -2.517739,5.3152 -2.797469,10.2574 -0.279754,4.94221 0.20937,15.89955 -0.220793,18.55628 -0.585673,3.61716 -1.936879,4.76738 -3.955874,6.47864 0.932505,0.83924 3.175406,-2.35403 5.187777,-4.3664 z" style="color: rgb(0, 0, 0); fill: rgb(155, 224, 65); fill-opacity: 1; fill-rule: nonzero; stroke: rgb(18, 18, 18); stroke-width: 3.6269; stroke-linecap: round; stroke-linejoin: round; stroke-miterlimit: 4; stroke-opacity: 1; stroke-dasharray: none; stroke-dashoffset: 37.6; marker: none; visibility: visible; display: inline; overflow: visible;" sodipodi:nodetypes="cssssscc"/>
          <path sodipodi:nodetypes="csssscc" style="color: rgb(0, 0, 0); fill: rgb(127, 213, 1); fill-opacity: 1; fill-rule: nonzero; stroke: none; stroke-width: 0; marker: none; visibility: visible; display: inline; overflow: visible;" d="m 40.956839,-289.59471 c 6.434177,-11.00339 1.323496,-24.59627 2.879283,-33.93124 0.466234,-2.79747 0.906325,-4.98972 0.160339,-4.61673 -0.746003,0.373 -2.517739,5.3152 -2.797469,10.2574 -0.279754,4.94221 0.20937,15.89955 -0.220793,18.55628 -0.585673,3.61716 -1.936879,8.17674 -3.955874,9.888 0.932505,0.83924 1.922143,1.85866 3.934514,-0.15371 z" id="path9733" inkscape:connector-curvature="0"/>
          <path style="color: rgb(0, 0, 0); fill: rgb(109, 182, 0); fill-opacity: 1; fill-rule: nonzero; stroke: none; stroke-width: 0; marker: none; visibility: visible; display: inline; overflow: visible;" d="m -1043,-1595.9688 c -0.1423,0.014 -0.2925,0.068 -0.4688,0.1563 -1.4512,0.7256 -3.9171,6.0412 -6.125,13.5625 0.686,-0.7201 1.3436,-0.871 1.9376,0.062 2.5098,3.9439 -1.0572,6.8464 0.5265,39.7942 2.4805,51.6064 2.0185,79.2359 -19.9641,95.1745 2.8954,2.0653 6.4207,2.7982 12.125,-2.9062 24.3182,-41.5876 4.9949,-92.9682 10.875,-128.25 1.6521,-9.9123 3.2278,-17.8063 1.0938,-17.5938 z" transform="matrix(0.26458336,0,0,0.26458336,320.08182,94.083721)" id="path9735" inkscape:connector-curvature="0" sodipodi:nodetypes="ccccsccccc"/>
        </g>
        <g id="g9713" transform="matrix(0.91339115,-0.03059149,0.03059149,0.91339115,37.358923,-6.6489639)">
          <path style="color: rgb(0, 0, 0); fill: rgb(155, 224, 65); fill-opacity: 1; fill-rule: nonzero; stroke: rgb(18, 18, 18); stroke-width: 2.55524; stroke-linecap: round; stroke-linejoin: round; stroke-miterlimit: 4; stroke-opacity: 1; stroke-dasharray: none; stroke-dashoffset: 37.6; marker: none; visibility: visible; display: inline; overflow: visible;" d="m -0.29316167,-56.313714 c 0.85686544,-3.750583 -0.36863731,-5.728881 -0.006372,-6.465121 0.36224378,-0.736223 1.47562447,2.110802 2.09809637,5.38674 0.6224553,3.27593 1.2414197,7.858302 1.2401674,11.323505 -0.00197,5.434589 1.1652346,6.153586 0.7034703,10.044846 -0.033446,1.693775 -5.3554201,1.610922 -5.4655276,-0.620592 0,0 0.3197938,-14.809168 1.43016504,-19.669378 z" id="path9669" inkscape:connector-curvature="0" sodipodi:nodetypes="ssssccs"/>
          <path sodipodi:nodetypes="cssssccc" inkscape:connector-curvature="0" id="path9671" d="m -1.7233495,-34.588054 c -0.8040558,-6.478179 1.30325718,-18.47472 1.43018783,-21.72566 0.15009776,-3.844292 -0.36863731,-5.728881 -0.006372,-6.465121 0.36224378,-0.736223 1.47562447,2.110802 2.09809637,5.38674 0.6224553,3.27593 1.2414197,7.858302 1.2401674,11.323505 -0.00197,5.434589 1.1652346,7.802674 0.7034703,11.693934 -0.033446,1.693775 -5.3554201,2.018116 -5.4655276,-0.213398 z" style="color: rgb(0, 0, 0); fill: rgb(127, 213, 1); fill-opacity: 1; fill-rule: nonzero; stroke: none; stroke-width: 0; marker: none; visibility: visible; display: inline; overflow: visible;"/>
          <path style="color: rgb(0, 0, 0); fill: rgb(109, 182, 0); fill-opacity: 1; fill-rule: nonzero; stroke: none; stroke-width: 0; marker: none; visibility: visible; display: inline; overflow: visible;" d="m 2.827198,-50.136322 c -0.1163615,1.210151 -0.2489357,2.688801 -0.3186985,4.188472 -0.1492448,3.208671 1.4201468,9.772489 -1.78854497,8.578551 -2.15542393,-0.802022 -2.49170873,-2.72106 -2.41293423,-5.632323 -0.2332849,3.075098 -0.3199888,6.099788 -0.032509,8.415966 0.110097,2.231514 5.4362719,1.901889 5.4697172,0.208123 0.4617621,-3.891252 -0.7043708,-6.259315 -0.7024145,-11.693901 0,-1.247717 -0.083041,-2.64062 -0.2146162,-4.064888 z" id="path9673" inkscape:connector-curvature="0"/>
          <path style="color: rgb(0, 0, 0); fill: rgb(139, 220, 29); fill-opacity: 1; fill-rule: nonzero; stroke: none; stroke-width: 0; marker: none; visibility: visible; display: inline; overflow: visible;" d="m -0.1775959,-62.896872 c -0.04612,0.0087 -0.0895969,0.04806 -0.12356251,0.117089 -0.36225856,0.736235 0.1565916,2.620516 0.006452,6.464794 -0.0797943,2.043371 -0.94248409,7.544078 -1.37232019,12.955645 0.73652581,-3.742069 1.72496347,-7.134241 1.78617239,-9.826601 0.074612,-3.283304 0.30223595,-5.450217 0.60074649,-5.151727 0.20866393,0.208664 1.30875952,4.310494 1.96413822,6.809508 -0.2353869,-2.081082 -0.5589971,-4.153299 -0.8845219,-5.866441 -0.5640961,-2.96883 -1.53113875,-5.585704 -1.97716675,-5.502267 z" id="path9675" inkscape:connector-curvature="0" sodipodi:nodetypes="ccccsccsc"/>
        </g>
      </g>
    </g>
  </g>
</svg>