<?xml version="1.0" encoding="UTF-8" standalone="no"?><!-- Created with Inkscape (http://www.inkscape.org/) --><svg xmlns:dc="http://purl.org/dc/elements/1.1/" xmlns:cc="http://creativecommons.org/ns#" xmlns:rdf="http://www.w3.org/1999/02/22-rdf-syntax-ns#" xmlns:svg="http://www.w3.org/2000/svg" xmlns="http://www.w3.org/2000/svg" xmlns:sodipodi="http://sodipodi.sourceforge.net/DTD/sodipodi-0.dtd" xmlns:inkscape="http://www.inkscape.org/namespaces/inkscape" width="97.314018" height="113.95956" viewBox="0 0 25.747664 30.151794" version="1.1" id="svg23489" inkscape:version="0.48.5 r10040" sodipodi:docname="plant_12.svg">
  <defs id="defs23483">
    <clipPath clipPathUnits="userSpaceOnUse" id="clipPath22932">
      <path style="opacity: 0.39823; color: rgb(0, 0, 0); fill: rgb(81, 255, 220); fill-opacity: 1; fill-rule: nonzero; stroke: none; stroke-width: 0; marker: none; visibility: visible; display: inline; overflow: visible;" d="m 544.30169,181.88988 c 0.28587,0.59217 2.59866,1.15837 3.74216,0.1578 0.98015,2.77708 16.86469,0 16.86469,0 l 0,-16.17162 -30.55281,0 0,15.42079 c 0,0 6.65838,3.49263 9.94596,0.59303 z" id="path22934" inkscape:connector-curvature="0" sodipodi:nodetypes="ccccccc"/>
    </clipPath>
    <clipPath clipPathUnits="userSpaceOnUse" id="clipPath22874">
      <path style="opacity: 0.39823; color: rgb(0, 0, 0); fill: rgb(81, 255, 220); fill-opacity: 1; fill-rule: nonzero; stroke: none; stroke-width: 0; marker: none; visibility: visible; display: inline; overflow: visible;" d="m 507.96393,172.04108 c 5.63585,4.14521 4.40861,7.03756 4.24526,7.42553 -0.16336,0.38797 -0.45419,0.84609 -0.55527,0.75946 0,0 -0.23077,1.39392 -0.96715,1.52387 0,0 0.7281,2.05291 -3.23333,2.91054 -3.96143,0.85763 -12.08849,-2.45037 -11.76178,-7.80034 0.32672,-5.34998 9.00511,-7.35111 12.27227,-4.81906 z" id="path22876" inkscape:connector-curvature="0" sodipodi:nodetypes="csccssc"/>
    </clipPath>
    <clipPath clipPathUnits="userSpaceOnUse" id="clipPath22894">
      <path style="opacity: 0.39823; color: rgb(0, 0, 0); fill: rgb(81, 255, 220); fill-opacity: 1; fill-rule: nonzero; stroke: none; stroke-width: 0; marker: none; visibility: visible; display: inline; overflow: visible;" d="m 519.13353,181.84256 c 1.53,1.07862 2.21773,-0.85703 2.00114,-1.06183 0.0817,0.0408 1.9603,0.65343 4.32899,-2.85877 2.36869,-3.51219 0,-9.96483 -8.00455,-11.96597 -8.00454,-2.00113 -11.2717,3.47136 -11.47589,10.16904 -0.2042,6.69767 5.75836,9.27056 9.76064,9.7198 4.00227,0.44923 3.38967,-4.00227 3.38967,-4.00227 z" id="path22896" inkscape:connector-curvature="0" sodipodi:nodetypes="ccssssc"/>
    </clipPath>
    <clipPath clipPathUnits="userSpaceOnUse" id="clipPath23263">
      <path style="opacity: 0.39823; color: rgb(0, 0, 0); fill: rgb(81, 255, 220); fill-opacity: 1; fill-rule: nonzero; stroke: none; stroke-width: 0; marker: none; visibility: visible; display: inline; overflow: visible;" d="m 507.96393,172.04108 c 5.63585,4.14521 4.40861,7.03756 4.24526,7.42553 -0.16336,0.38797 -0.45419,0.84609 -0.55527,0.75946 0,0 -0.23077,1.39392 -0.96715,1.52387 0,0 0.7281,2.05291 -3.23333,2.91054 -3.96143,0.85763 -12.08849,-2.45037 -11.76178,-7.80034 0.32672,-5.34998 9.00511,-7.35111 12.27227,-4.81906 z" id="path23265" inkscape:connector-curvature="0" sodipodi:nodetypes="csccssc"/>
    </clipPath>
    <clipPath clipPathUnits="userSpaceOnUse" id="clipPath22907">
      <path style="opacity: 0.39823; color: rgb(0, 0, 0); fill: rgb(81, 255, 220); fill-opacity: 1; fill-rule: nonzero; stroke: none; stroke-width: 0; marker: none; visibility: visible; display: inline; overflow: visible;" d="m 525.58617,181.98549 c 0.89522,0.98185 2.40724,0.64233 3.04255,0.12252 0.16124,0.72559 12.13955,0.23486 11.90471,0 -0.23482,-0.23483 4.09811,-23.83249 0,-26.19853 -4.09811,-2.36605 -15.11061,0 -21.31822,0 -6.2076,0 -9.48879,8.76153 -8.08444,14.00265 1.40436,5.24112 4.81751,7.15803 7.00687,9.97898 2.18936,2.82095 7.44853,2.09438 7.44853,2.09438 z" id="path22909" inkscape:connector-curvature="0" sodipodi:nodetypes="ccsssssc"/>
    </clipPath>
    <clipPath clipPathUnits="userSpaceOnUse" id="clipPath23269">
      <path style="opacity: 0.39823; color: rgb(0, 0, 0); fill: rgb(81, 255, 220); fill-opacity: 1; fill-rule: nonzero; stroke: none; stroke-width: 0; marker: none; visibility: visible; display: inline; overflow: visible;" d="m 525.58617,181.98549 c 0.89522,0.98185 2.40724,0.64233 3.04255,0.12252 0.16124,0.72559 12.13955,0.23486 11.90471,0 -0.23482,-0.23483 4.09811,-23.83249 0,-26.19853 -4.09811,-2.36605 -15.11061,0 -21.31822,0 -6.2076,0 -9.48879,8.76153 -8.08444,14.00265 1.40436,5.24112 4.81751,7.15803 7.00687,9.97898 2.18936,2.82095 7.44853,2.09438 7.44853,2.09438 z" id="path23271" inkscape:connector-curvature="0" sodipodi:nodetypes="ccsssssc"/>
    </clipPath>
    <clipPath clipPathUnits="userSpaceOnUse" id="clipPath23273">
      <path style="opacity: 0.39823; color: rgb(0, 0, 0); fill: rgb(81, 255, 220); fill-opacity: 1; fill-rule: nonzero; stroke: none; stroke-width: 0; marker: none; visibility: visible; display: inline; overflow: visible;" d="m 507.96393,172.04108 c 5.63585,4.14521 4.40861,7.03756 4.24526,7.42553 -0.16336,0.38797 -0.45419,0.84609 -0.55527,0.75946 0,0 -0.23077,1.39392 -0.96715,1.52387 0,0 0.7281,2.05291 -3.23333,2.91054 -3.96143,0.85763 -12.08849,-2.45037 -11.76178,-7.80034 0.32672,-5.34998 9.00511,-7.35111 12.27227,-4.81906 z" id="path23275" inkscape:connector-curvature="0" sodipodi:nodetypes="csccssc"/>
    </clipPath>
    <clipPath clipPathUnits="userSpaceOnUse" id="clipPath23277">
      <path style="opacity: 0.39823; color: rgb(0, 0, 0); fill: rgb(81, 255, 220); fill-opacity: 1; fill-rule: nonzero; stroke: none; stroke-width: 0; marker: none; visibility: visible; display: inline; overflow: visible;" d="m 519.13353,181.84256 c 1.53,1.07862 2.21773,-0.85703 2.00114,-1.06183 0.0817,0.0408 1.9603,0.65343 4.32899,-2.85877 2.36869,-3.51219 0,-9.96483 -8.00455,-11.96597 -8.00454,-2.00113 -11.2717,3.47136 -11.47589,10.16904 -0.2042,6.69767 5.75836,9.27056 9.76064,9.7198 4.00227,0.44923 3.38967,-4.00227 3.38967,-4.00227 z" id="path23279" inkscape:connector-curvature="0" sodipodi:nodetypes="ccssssc"/>
    </clipPath>
    <clipPath clipPathUnits="userSpaceOnUse" id="clipPath23281">
      <path style="opacity: 0.39823; color: rgb(0, 0, 0); fill: rgb(81, 255, 220); fill-opacity: 1; fill-rule: nonzero; stroke: none; stroke-width: 0; marker: none; visibility: visible; display: inline; overflow: visible;" d="m 525.58617,181.98549 c 0.89522,0.98185 2.40724,0.64233 3.04255,0.12252 0.16124,0.72559 12.13955,0.23486 11.90471,0 -0.23482,-0.23483 4.09811,-23.83249 0,-26.19853 -4.09811,-2.36605 -15.11061,0 -21.31822,0 -6.2076,0 -9.48879,8.76153 -8.08444,14.00265 1.40436,5.24112 4.81751,7.15803 7.00687,9.97898 2.18936,2.82095 7.44853,2.09438 7.44853,2.09438 z" id="path23283" inkscape:connector-curvature="0" sodipodi:nodetypes="ccsssssc"/>
    </clipPath>
    <clipPath clipPathUnits="userSpaceOnUse" id="clipPath23285">
      <path style="opacity: 0.39823; color: rgb(0, 0, 0); fill: rgb(81, 255, 220); fill-opacity: 1; fill-rule: nonzero; stroke: none; stroke-width: 0; marker: none; visibility: visible; display: inline; overflow: visible;" d="m 544.30169,181.88988 c 0.28587,0.59217 2.59866,1.15837 3.74216,0.1578 0.98015,2.77708 16.86469,0 16.86469,0 l 0,-16.17162 -30.55281,0 0,15.42079 c 0,0 6.65838,3.49263 9.94596,0.59303 z" id="path23287" inkscape:connector-curvature="0" sodipodi:nodetypes="ccccccc"/>
    </clipPath>
    <clipPath clipPathUnits="userSpaceOnUse" id="clipPath23289">
      <path style="opacity: 0.39823; color: rgb(0, 0, 0); fill: rgb(81, 255, 220); fill-opacity: 1; fill-rule: nonzero; stroke: none; stroke-width: 0; marker: none; visibility: visible; display: inline; overflow: visible;" d="m 507.96393,172.04108 c 5.63585,4.14521 4.40861,7.03756 4.24526,7.42553 -0.16336,0.38797 -0.45419,0.84609 -0.55527,0.75946 0,0 -0.23077,1.39392 -0.96715,1.52387 0,0 0.7281,2.05291 -3.23333,2.91054 -3.96143,0.85763 -12.08849,-2.45037 -11.76178,-7.80034 0.32672,-5.34998 9.00511,-7.35111 12.27227,-4.81906 z" id="path23291" inkscape:connector-curvature="0" sodipodi:nodetypes="csccssc"/>
    </clipPath>
    <clipPath clipPathUnits="userSpaceOnUse" id="clipPath22919">
      <path style="opacity: 0.39823; color: rgb(0, 0, 0); fill: rgb(81, 255, 220); fill-opacity: 1; fill-rule: nonzero; stroke: none; stroke-width: 0; marker: none; visibility: visible; display: inline; overflow: visible;" d="m 533.24358,180.67863 c -0.16336,1.16393 0.51049,2.00114 2.00114,1.20477 -1.74256,1.5022 -0.71572,1.26164 1.42124,3.05207 2.13697,1.79043 11.4934,0.98185 12.12872,0.5198 0.63531,-0.46205 8.02805,-6.41089 8.0858,-8.66336 0.0578,-2.25248 -1.90593,-15.01651 -5.19801,-17.78878 -3.29208,-2.77228 -16.4604,-0.57756 -19.75248,-0.0578 -3.29208,0.5198 -10.16501,5.71782 -9.93399,5.77558 0.23102,0.0577 2.83003,15.42079 2.77228,15.65181 -0.0578,0.23102 2.42574,4.15842 2.83003,3.92739 0.40429,-0.23102 3.95121,-3.17246 3.95121,-3.17246 0,0 1.59196,0.89865 1.69406,-0.44906 z" id="path22921" inkscape:connector-curvature="0" sodipodi:nodetypes="ccsssssssscc"/>
    </clipPath>
    <clipPath clipPathUnits="userSpaceOnUse" id="clipPath23295">
      <path style="opacity: 0.39823; color: rgb(0, 0, 0); fill: rgb(81, 255, 220); fill-opacity: 1; fill-rule: nonzero; stroke: none; stroke-width: 0; marker: none; visibility: visible; display: inline; overflow: visible;" d="m 525.58617,181.98549 c 0.89522,0.98185 2.40724,0.64233 3.04255,0.12252 0.16124,0.72559 12.13955,0.23486 11.90471,0 -0.23482,-0.23483 4.09811,-23.83249 0,-26.19853 -4.09811,-2.36605 -15.11061,0 -21.31822,0 -6.2076,0 -9.48879,8.76153 -8.08444,14.00265 1.40436,5.24112 4.81751,7.15803 7.00687,9.97898 2.18936,2.82095 7.44853,2.09438 7.44853,2.09438 z" id="path23297" inkscape:connector-curvature="0" sodipodi:nodetypes="ccsssssc"/>
    </clipPath>
    <clipPath clipPathUnits="userSpaceOnUse" id="clipPath23299">
      <path style="opacity: 0.39823; color: rgb(0, 0, 0); fill: rgb(81, 255, 220); fill-opacity: 1; fill-rule: nonzero; stroke: none; stroke-width: 0; marker: none; visibility: visible; display: inline; overflow: visible;" d="m 525.58617,181.98549 c 0.89522,0.98185 2.40724,0.64233 3.04255,0.12252 0.16124,0.72559 12.13955,0.23486 11.90471,0 -0.23482,-0.23483 4.09811,-23.83249 0,-26.19853 -4.09811,-2.36605 -15.11061,0 -21.31822,0 -6.2076,0 -9.48879,8.76153 -8.08444,14.00265 1.40436,5.24112 4.81751,7.15803 7.00687,9.97898 2.18936,2.82095 7.44853,2.09438 7.44853,2.09438 z" id="path23301" inkscape:connector-curvature="0" sodipodi:nodetypes="ccsssssc"/>
    </clipPath>
  </defs>
  <sodipodi:namedview id="base" pagecolor="#7d848b" bordercolor="#666666" borderopacity="1.0" inkscape:pageopacity="0" inkscape:pageshadow="2" inkscape:zoom="0.8098268" inkscape:cx="17.171128" inkscape:cy="207.30152" inkscape:document-units="px" inkscape:current-layer="layer1" showgrid="false" inkscape:pagecheckerboard="false" showborder="true" units="px" inkscape:window-width="1920" inkscape:window-height="1017" inkscape:window-x="-8" inkscape:window-y="-8" inkscape:window-maximized="1" inkscape:showpageshadow="false" guidetolerance="28" fit-margin-top="8" fit-margin-left="8" fit-margin-right="8" fit-margin-bottom="8">
    <inkscape:grid type="xygrid" id="grid24034" spacingx="1px" spacingy="1px" empspacing="8" visible="true" enabled="true" snapvisiblegridlinesonly="true" originx="-265.18383px" originy="603.61246px"/>
  </sodipodi:namedview>
  <metadata id="metadata23486">
    <rdf:RDF>
      <cc:Work rdf:about="">
        <dc:format>image/svg+xml</dc:format>
        <dc:type rdf:resource="http://purl.org/dc/dcmitype/StillImage"/>
        <dc:title/>
        <cc:license rdf:resource=""/>
        <dc:creator>
          <cc:Agent>
            <dc:title>Robert Brooks</dc:title>
          </cc:Agent>
        </dc:creator>
      </cc:Work>
    </rdf:RDF>
  </metadata>
  <g inkscape:label="Layer 1" inkscape:groupmode="layer" id="layer1" transform="translate(-70.163205,-426.55395)">
    <path style="opacity: 0.25; color: rgb(0, 0, 0); fill: rgb(0, 0, 0); fill-opacity: 1; fill-rule: nonzero; stroke: none; stroke-width: 0; marker: none; visibility: visible; display: inline; overflow: visible;" d="m 88.221202,446.24158 c -1.837902,-0.0214 -3.410034,0.50306 -4.071056,1.27634 -0.820171,-0.43192 -2.128849,-0.71152 -3.608935,-0.71152 -2.490248,0 -4.51117,0.7915 -4.51117,1.76779 0,0.97629 2.020922,1.76779 4.51117,1.76779 0.603442,0 1.175722,-0.0477 1.701774,-0.13203 -0.07436,0.30943 -0.117364,0.63609 -0.117364,0.97558 0,1.88184 1.229421,3.40355 2.743379,3.40355 1.513957,0 2.743377,-1.52171 2.743377,-3.40355 0,-0.2303 -0.02359,-0.45726 -0.05868,-0.67484 0.218715,0.0189 0.439457,0.0267 0.667507,0.0294 2.43365,0.0283 4.408476,-0.90935 4.408476,-2.09788 0,-1.18853 -1.974826,-2.17227 -4.408476,-2.20057 z" id="path37552" inkscape:connector-curvature="0" gds_color="shadow" gds_switchable="shadow" gds_opacity="shadow"/>
    <g id="g36553" transform="matrix(0.63150643,0,0,0.52883942,-290.54803,552.71033)" gds_color="stalks">
      <path style="color: rgb(0, 0, 0); fill: rgb(39, 211, 177); fill-opacity: 1; fill-rule: nonzero; stroke: rgb(18, 18, 18); stroke-width: 17.3041; stroke-linejoin: round; stroke-miterlimit: 4; stroke-opacity: 1; stroke-dasharray: none; marker: none; visibility: visible; display: inline; overflow: visible;" d="m 1032.3663,-1177.0691 c 0.3538,-4.7392 0.9767,-27.6902 -0.1824,-11.2848 -1.4268,20.1942 -2.0424,64.5428 -2.1338,83.3639 -0.023,4.7836 0.5985,12.5881 3.4491,-0.8978 0.5013,-2.3714 0.56,-5.43 1.7682,-23.7249 0.3004,21.5242 5.1797,46.9747 4.0156,18.207 -1.0278,-25.3989 -2.9888,-75.7499 -4.2519,-79.1182 -2.3326,-12.1604 -2.7243,12.7557 -2.6648,13.4548 z" id="path36555" inkscape:connector-curvature="0" transform="matrix(0.26458336,0,0,0.26458336,320.08182,94.083721)" sodipodi:nodetypes="cssscscc"/>
      <path transform="matrix(0.26458336,0,0,0.26458336,320.08182,94.083721)" inkscape:connector-curvature="0" id="path36557" d="m 1031.3015,-1199.7507 c -1.2699,21.8047 -1.7598,106.7118 -1.2242,110.1934 0.5595,3.6368 8.1131,2.7976 9.2321,1.119 1.1191,-1.6786 -2.303,-107.0058 -3.9815,-111.482 -1.6786,-4.4761 -3.9289,-1.5046 -4.0264,0.1696 z" style="color: rgb(0, 0, 0); fill: rgb(39, 211, 177); fill-opacity: 1; fill-rule: nonzero; stroke: none; stroke-width: 0; marker: none; visibility: visible; display: inline; overflow: visible;" sodipodi:nodetypes="ssccs"/>
      <path inkscape:connector-curvature="0" style="color: rgb(0, 0, 0); fill: rgb(29, 156, 131); fill-opacity: 1; fill-rule: nonzero; stroke: none; stroke-width: 0; marker: none; visibility: visible; display: inline; overflow: visible;" d="m 907.25,-1341.5938 c -0.57796,0.8369 -0.72928,2.9367 -0.5625,4.1876 0.27976,2.0982 0.44345,21.3853 -1.375,23.3437 -1.12204,1.2083 -2.78255,0.9261 -4.3125,-0.125 0.0249,2.7891 0.0657,4.9268 0.125,5.3125 0.40159,2.6104 5.82182,1.9861 6.625,0.7812 0.36111,-0.5416 0.0466,-16.2233 -0.5,-33.5 z" transform="matrix(0.36862035,0,0,0.36862035,260.4501,288.28783)" id="path36559"/>
    </g>
    <g id="g36200" transform="matrix(1.1318742,0,0,1.1318742,-561.00829,724.81027)" gds_color="leaves">
      <g inkscape:transform-center-y="-1.5495796" inkscape:transform-center-x="5.9853971" id="g36023" transform="matrix(0.07965946,0.7661189,-0.72150841,0.28368462,336.36101,-573.59311)">
        <path id="path36025" transform="matrix(0.26458336,0,0,0.26458336,320.08182,94.083721)" d="m 729,-1362.1875 c -2.09086,-0.1148 -5.49165,1.784 -9.71875,5.7187 -8.45424,7.8696 -16.98935,20.9051 -19.0625,29.125 -0.70433,2.7927 -0.59419,4.6729 0.21875,5.625 0.01,0.011 0.0215,0.02 0.0312,0.031 0.75281,2.9165 5.43474,3.0541 7.77976,2.4364 2.07919,-0.5476 4.95374,-2.3756 8.34375,-5.5312 8.45424,-7.8696 15.33201,-17.6057 17.68899,-25.7489 0.92121,-3.1832 1.76094,-6.3501 0.59375,-7.125 -0.65399,-0.4343 -2.6216,-2.8015 -4.28125,-3.7813 -0.0121,-0.01 -0.0192,-0.024 -0.0312,-0.031 -0.38125,-0.4278 -0.90911,-0.6828 -1.5625,-0.7187 z" style="color: rgb(0, 0, 0); fill: rgb(18, 98, 82); fill-opacity: 1; fill-rule: nonzero; stroke: rgb(18, 18, 18); stroke-width: 11.6475; stroke-miterlimit: 4; stroke-opacity: 1; stroke-dasharray: none; marker: none; visibility: visible; display: inline; overflow: visible;" inkscape:connector-curvature="0" sodipodi:nodetypes="ccscccsccccc"/>
        <path sodipodi:nodetypes="cccscsccc" inkscape:connector-curvature="0" id="path36027" transform="matrix(0.26458336,0,0,0.26458336,320.08182,94.083721)" d="m 729.24852,-1361.8587 c -0.2459,0.024 0.69192,0.2279 0.43898,0.3587 -1.78707,0.9224 -4.64753,6.1583 -7.0625,8.4062 -8.4542,7.8696 -20.05189,19.9364 -22.125,28.1563 -1.24184,4.9239 4.64249,6.5045 7.74851,5.6864 2.07919,-0.5476 4.95374,-2.3756 8.34375,-5.5312 8.45424,-7.8696 15.3322,-17.611 17.68918,-25.7542 0.92121,-3.1831 1.75945,-6.3321 0.59226,-7.107 -0.84509,-0.5611 -3.9039,-4.3817 -5.62518,-4.2152 z" style="color: rgb(0, 0, 0); fill: rgb(26, 137, 115); fill-opacity: 1; fill-rule: nonzero; stroke: none; stroke-width: 0; marker: none; visibility: visible; display: inline; overflow: visible;"/>
        <path inkscape:connector-curvature="0" id="path36029" d="m 513.4457,-264.64613 c -0.54852,2.17486 -2.8065,5.62584 -5.04335,7.708 -2.23685,2.08216 -3.6055,2.007 -3.05699,-0.16785 0.54852,-2.17485 2.8065,-5.62583 5.04335,-7.70798 2.23684,-2.08216 3.60551,-2.00701 3.05699,0.16783 z" style="color: rgb(0, 0, 0); fill: rgb(31, 211, 175); fill-opacity: 1; fill-rule: nonzero; stroke: none; stroke-width: 0; marker: none; visibility: visible; display: inline; overflow: visible;"/>
        <path id="path36033" transform="matrix(0.26458336,0,0,0.26458336,320.08182,94.083721)" d="m 729,-1362.1875 c -2.09086,-0.1148 -5.49165,1.784 -9.71875,5.7187 -4.57087,4.2548 -9.16617,10.0194 -12.75,15.7188 3.13271,-4.475 6.76021,-8.7915 10.375,-12.1562 8.4542,-7.8696 13.6044,-7.5949 11.53125,0.625 -0.95941,3.804 -3.29643,8.6521 -6.375,13.5312 4.22609,-6.02 7.55691,-12.3632 8.75,-17.0938 1.03657,-4.1099 0.27836,-6.2289 -1.8125,-6.3437 z" style="color: rgb(0, 0, 0); fill: rgb(94, 231, 204); fill-opacity: 1; fill-rule: nonzero; stroke: none; stroke-width: 0; marker: none; visibility: visible; display: inline; overflow: visible;" inkscape:connector-curvature="0"/>
        <path transform="matrix(0.26458336,0,0,0.26458336,320.08182,94.083721)" inkscape:connector-curvature="0" id="path36031" d="m 725.803,-1358.3949 c -10.08884,10.6824 -20.3755,29.4753 -18.3973,27.1014 1.97821,-2.3738 14.44089,-19.1885 17.80384,-23.9362 3.36294,-4.7477 3.36294,-5.9346 3.36294,-5.9346 z" style="color: rgb(0, 0, 0); fill: rgb(18, 98, 82); fill-opacity: 1; fill-rule: nonzero; stroke: none; stroke-width: 0; marker: none; visibility: visible; display: inline; overflow: visible;"/>
      </g>
      <g id="g36077" transform="matrix(-0.51272188,-0.05018355,-0.12794411,0.49252175,854.92058,-120.54353)">
        <path sodipodi:nodetypes="ccccsccccccc" inkscape:connector-curvature="0" id="path36079" transform="matrix(0.26458336,0,0,0.26458336,320.08182,94.083721)" d="m 1061.5625,-1198.0938 c -7.4548,0.1824 -13.2647,4.5918 -14.7813,11.8438 0,0.01 1.3868,-3.9351 1.3847,-3.9252 -1.0546,1.8656 -6.0755,11.1854 -6.1882,12.4088 -1.0387,11.2847 11.2551,24.4069 23.3297,28.8738 7.4428,2.7534 13.5366,-1.9773 17.9738,-5.8262 2.4162,-2.0957 5.028,-5.1755 5.9063,-8.8124 0.01,-0.042 0.022,-0.083 0.031,-0.125 0.4959,-1.3384 0.8238,-2.8012 0.9687,-4.375 1.0388,-11.2847 -7.8942,-24.0643 -19.9687,-28.5313 -3.0187,-1.1167 -5.9455,-1.5975 -8.6563,-1.5313 z" style="color: rgb(0, 0, 0); fill: rgb(23, 124, 104); fill-opacity: 1; fill-rule: nonzero; stroke: rgb(18, 18, 18); stroke-width: 17.3619; stroke-linecap: round; stroke-linejoin: round; stroke-miterlimit: 4; stroke-opacity: 1; stroke-dasharray: none; stroke-dashoffset: 37.6; marker: none; visibility: visible; display: inline; overflow: visible;"/>
        <path sodipodi:nodetypes="sssssss" inkscape:connector-curvature="0" id="path36081" d="m 595.77162,-217.53176 c -0.27483,2.98573 2.98139,6.45484 6.17612,7.63672 1.96923,0.72851 3.57969,-0.51862 4.7537,-1.53695 0.73061,-0.63372 1.52351,-1.60721 1.62894,-2.75252 0.27485,-2.98572 -2.40622,-6.31191 -5.60094,-7.49378 -1.94679,-0.72021 -3.74204,-1.03842 -4.90857,0.18396 -0.39016,0.40884 -2.03638,3.82278 -2.04925,3.96257 z" style="color: rgb(0, 0, 0); fill: rgb(18, 98, 82); fill-opacity: 1; fill-rule: nonzero; stroke: none; stroke-width: 0; marker: none; visibility: visible; display: inline; overflow: visible;"/>
        <path style="color: rgb(0, 0, 0); fill: rgb(42, 200, 168); fill-opacity: 1; fill-rule: nonzero; stroke: none; stroke-width: 0; marker: none; visibility: visible; display: inline; overflow: visible;" d="m 596.95933,-219.23732 c -0.27485,2.98573 2.09218,6.36424 5.28691,7.54612 3.19472,1.18189 6.00737,-0.28042 6.28222,-3.26614 0.27485,-2.98572 -2.09218,-6.36423 -5.2869,-7.54612 -3.19473,-1.18188 -6.00738,0.28042 -6.28223,3.26614 z" id="path36083" inkscape:connector-curvature="0"/>
        <path id="path36085" transform="matrix(0.26458336,0,0,0.26458336,320.08182,94.083721)" d="m 1085.5312,-1184.1875 c 1.0493,5.1002 0.7849,12.081 -6.2187,10.9375 -9.6932,-1.5825 -13.0625,-8.6875 -13.0625,-8.6875 0,0 -7.1205,18.3879 -19.1875,1.9687 0,0 -0.2986,0.3326 -0.4687,0.5313 1.385,9.9058 9.4505,19.9051 19.8437,23.75 12.0745,4.467 22.7112,-1.0591 23.75,-12.3437 0.4981,-5.4107 -1.3192,-11.1419 -4.6563,-16.1563 z" style="color: rgb(0, 0, 0); fill: rgb(29, 156, 131); fill-opacity: 1; fill-rule: nonzero; stroke: none; stroke-width: 0; marker: none; visibility: visible; display: inline; overflow: visible;" inkscape:connector-curvature="0"/>
        <path id="path36087" transform="matrix(0.26458336,0,0,0.26458336,320.08182,94.083721)" d="m 1061.6875,-1198.0938 c 2.2871,0.062 4.7203,0.5445 7.2187,1.4688 11.4215,4.2254 19.8889,16.2945 18.9063,26.9688 -0.9826,10.6742 -11.016,15.9128 -22.4375,11.6874 -10.607,-3.924 -18.6609,-14.6321 -18.9688,-24.6874 -0.1373,10.8805 8.5064,22.7051 20.0313,26.9687 12.0745,4.467 22.7112,-1.0591 23.75,-12.3437 1.0388,-11.2847 -7.8942,-24.0643 -19.9687,-28.5313 -2.973,-1.0998 -5.8551,-1.5799 -8.5313,-1.5313 z" style="color: rgb(0, 0, 0); fill: rgb(39, 211, 177); fill-opacity: 1; fill-rule: nonzero; stroke: none; stroke-width: 0; marker: none; visibility: visible; display: inline; overflow: visible;" inkscape:connector-curvature="0"/>
        <path inkscape:connector-curvature="0" style="color: rgb(0, 0, 0); fill: rgb(94, 231, 204); fill-opacity: 1; fill-rule: nonzero; stroke: none; stroke-width: 0; marker: none; visibility: visible; display: inline; overflow: visible;" d="m -114.84375,347.9375 c -0.30162,0.0107 -0.61362,0.0266 -0.96875,0.0625 0,0 -1.90356,0.0615 -3.625,1.25 -1.72137,1.18849 0.96799,3.49053 4.46875,2.25 3.28191,-1.163 4.64924,-3.72265 0.125,-3.5625 z m -7.34375,3.90625 c -0.45199,0.0406 -1.04098,0.18633 -1.5,0.59375 -0.91799,0.81484 0.50842,2.215 1.65625,1.875 1.14783,-0.34 2.69167,-1.78293 0.625,-2.4375 0,0 -0.32926,-0.0718 -0.78125,-0.0312 z" transform="matrix(-0.44460894,-0.04530166,-0.11549763,0.46284399,591.73359,-388.72813)" id="path36091"/>
        <path transform="matrix(0.26458336,0,0,0.26458336,320.08182,94.083721)" inkscape:connector-curvature="0" id="path36089" d="m 1057.7456,-1189.8519 c 6.5281,5.9346 22.1559,29.2774 21.7602,28.4862 -0.3956,-0.7913 -4.352,-10.0889 -9.4953,-17.0126 -5.1434,-6.9237 -12.2649,-11.4736 -12.2649,-11.4736 z" style="color: rgb(0, 0, 0); fill: rgb(17, 93, 78); fill-opacity: 1; fill-rule: nonzero; stroke: none; stroke-width: 0; marker: none; visibility: visible; display: inline; overflow: visible;"/>
      </g>
      <g id="g36103" transform="matrix(0.5534462,-0.07361075,0.05235837,0.54648231,252.26677,-92.286203)">
        <g transform="translate(-0.10467996,-8.583757)" id="g36105">
          <path id="path36107" transform="matrix(0.26458336,0,0,0.26458336,320.1865,102.66748)" d="m 1036.1562,-1177.625 c -4.5967,0.1688 -9.1019,2.2251 -12.625,6.1875 -2.2547,2.5359 -3.8547,5.5959 -4.8437,8.9063 -0.025,0.082 -0.038,0.1675 -0.062,0.25 -0.1321,0.4586 -0.267,0.9076 -0.375,1.375 -0.086,0.3692 -0.1479,0.7511 -0.2188,1.125 -0.037,0.1986 -0.092,0.394 -0.125,0.5937 l 0,0.031 c -2.65,8.5166 -1.0915,18.7612 4.7188,26.1874 0.7459,0.9534 1.5508,1.8018 2.375,2.5938 l 0.3125,-4.6875 8.0937,-3.5625 c 0,0 -3.75,5.9587 -3.75,6.75 0,0.2136 0.1346,3.0958 0.2188,5.0625 3.4844,1.8449 7.2405,2.5443 10.875,2.0313 3.9742,-0.561 8.9872,-2.0725 12.0625,-5.5313 3.9622,-4.4565 5.6464,-10.6278 5.4063,-16.9687 l 0,-0.031 c 0.081,-0.5735 0.1405,-1.1695 0.1874,-1.75 0.084,-1.0368 0.1197,-2.0764 0.094,-3.125 -0.01,-0.3331 -0.012,-0.6666 -0.031,-1 -0.3334,-5.7251 -2.3151,-11.4328 -5.9376,-16.0625 -3.8253,-4.8891 -8.794,-7.676 -13.8124,-8.25 -0.2274,-0.025 -0.4583,-0.042 -0.6876,-0.062 -0.3279,-0.025 -0.6411,-0.057 -0.9687,-0.062 -0.3071,-0.01 -0.5998,-0.011 -0.9063,0 z" style="color: rgb(0, 0, 0); fill: rgb(23, 124, 104); fill-opacity: 1; fill-rule: nonzero; stroke: rgb(18, 18, 18); stroke-width: 15.9634; stroke-linejoin: round; stroke-miterlimit: 4; stroke-opacity: 1; stroke-dasharray: none; marker: none; visibility: visible; display: inline; overflow: visible;" inkscape:connector-curvature="0"/>
          <g id="g36109" transform="matrix(0.89441139,0.53244343,-0.62808281,0.84803801,-80.624871,-339.20254)">
            <path id="path36111" transform="matrix(0.20530148,-0.1288992,0.15205254,0.21652801,564.94341,166.34822)" d="m 1037.125,-1175.2188 c -0.8099,0.012 -1.6444,0.1162 -2.5,0.3126 -2.2894,0.5251 -11.5622,6.7028 -11.9375,7.125 -8.0167,9.0166 -8.0565,24.5953 -0.062,34.8124 0.7459,0.9535 1.5504,1.8333 2.375,2.625 l 0.3125,-4.7187 8.0937,-3.5625 c 0,0 -0.9353,1.4799 -1.875,3.0625 -0.01,0.012 0.01,0.02 0,0.031 -0.4649,0.7835 -0.9325,1.5893 -1.2812,2.25 0,0.01 0,0.024 0,0.031 -0.344,0.6539 -0.5938,1.18 -0.5938,1.375 10e-5,0.215 0.1337,3.1082 0.2188,5.0938 3.4869,1.8427 7.2723,2.5128 10.9062,2 3.9742,-0.561 8.9561,-2.0725 12.0313,-5.5313 8.0168,-9.0167 6.8379,-25.0954 -1.1563,-35.3125 -4.2624,-5.4478 -8.8619,-9.6739 -14.5312,-9.5938 z" style="color: rgb(0, 0, 0); fill: rgb(19, 103, 86); fill-opacity: 1; fill-rule: nonzero; stroke: none; stroke-width: 0; marker: none; visibility: visible; display: inline; overflow: visible;" inkscape:connector-curvature="0"/>
            <path id="path36113" transform="matrix(0.20530148,-0.1288992,0.15205254,0.21652801,564.94341,166.34822)" d="m 1037.0625,-1177.625 c -4.9141,-0.087 -9.7421,1.9609 -13.5,6.1875 -8.0168,9.0167 -8.0565,24.5953 -0.062,34.8125 0.5669,0.7245 1.1678,1.4 1.7812,2.0312 l 0.031,-0.4687 8.0937,-3.5625 c 0,0 -3.75,5.9587 -3.75,6.75 0,0.034 0.029,0.7186 0.031,0.8125 7.5192,4.5743 16.635,3.573 22.8125,-3.375 8.0168,-9.0167 8.0252,-24.6266 0.031,-34.8437 -4.2468,-5.4279 -9.8994,-8.2456 -15.4687,-8.3438 z" style="color: rgb(0, 0, 0); fill: rgb(31, 211, 175); fill-opacity: 1; fill-rule: nonzero; stroke: none; stroke-width: 0; marker: none; visibility: visible; display: inline; overflow: visible;" inkscape:connector-curvature="0"/>
            <path id="path36115" transform="matrix(0.20530148,-0.1288992,0.15205254,0.21652801,564.94341,166.34822)" d="m 1019.2188,-1164.0938 c -3.2378,8.7507 -1.8251,19.6642 4.2812,27.4688 0.5669,0.7245 1.1677,1.3998 1.7812,2.0312 l 0.031,-0.4687 8.0937,-3.5625 c 0,0 -3.75,5.9587 -3.75,6.75 0,0.034 0.029,0.7186 0.031,0.8125 7.521,4.5748 16.6364,3.5715 22.8125,-3.375 4.5498,-5.1172 6.5115,-12.3628 5.9062,-19.5313 -1.6651,5.2013 -6.5796,11.9096 -19.4687,10.8126 -13.0229,-1.1084 -22.8166,-10.4696 -19.7187,-20.9376 z" style="color: rgb(0, 0, 0); fill: rgb(29, 156, 131); fill-opacity: 1; fill-rule: nonzero; stroke: none; stroke-width: 0; marker: none; visibility: visible; display: inline; overflow: visible;" inkscape:connector-curvature="0"/>
            <path style="color: rgb(0, 0, 0); fill: rgb(94, 231, 204); fill-opacity: 1; fill-rule: nonzero; stroke: none; stroke-width: 0; marker: none; visibility: visible; display: inline; overflow: visible;" d="m 1036.1562,-1177.625 c -4.5932,0.169 -9.0707,2.2251 -12.5937,6.1875 -4.3091,4.8465 -6.2778,11.5884 -5.9687,18.375 0.2838,-5.809 10.3107,-17.3337 19.3842,-17.1736 15.3802,0.2706 21.2233,14.3791 21.4908,20.2361 0.3281,-6.7465 -1.6407,-13.7895 -5.9376,-19.2812 -4.2468,-5.428 -9.8994,-8.2456 -15.4687,-8.3438 -0.3071,-0.01 -0.6,-0.011 -0.9063,0 z" transform="matrix(0.20530148,-0.1288992,0.15205254,0.21652801,564.94341,166.34822)" id="path36119" inkscape:connector-curvature="0" sodipodi:nodetypes="cscccccc"/>
            <path inkscape:connector-curvature="0" style="color: rgb(0, 0, 0); fill: rgb(17, 93, 78); fill-opacity: 1; fill-rule: nonzero; stroke: none; stroke-width: 0; marker: none; visibility: visible; display: inline; overflow: visible;" d="m 1038.1875,-1145.1562 c -0.017,9.371 -0.3223,21.6795 -0.2187,26.125 0.218,9.3686 1.1057,17.504 1.1874,17 0.1432,-0.8817 1.4377,-9.2622 1.3126,-17.875 -0.12,-8.2586 -0.7283,-17.8056 -1.3438,-25.1563 -0.3102,-0.035 -0.6272,-0.075 -0.9375,-0.094 z" transform="matrix(0.20530148,-0.1288992,0.15205254,0.21652801,559.92922,159.37449)" id="path36117"/>
          </g>
        </g>
        <path transform="matrix(0.26458336,0,0,0.26458336,320.08182,94.083721)" inkscape:connector-curvature="0" id="path36121" d="m 1025.1052,-1134.9567 8.2096,-3.5608 c 0,0 -2.176,4.5499 -2.5717,4.451 -0.3956,-0.099 -5.7368,3.5607 -5.7368,3.5607 z" style="color: rgb(0, 0, 0); fill: rgb(17, 93, 78); fill-opacity: 1; fill-rule: nonzero; stroke: none; stroke-width: 0; marker: none; visibility: visible; display: inline; overflow: visible;"/>
      </g>
    </g>
  </g>
</svg>