<?xml version="1.0" encoding="UTF-8" standalone="no"?><!-- Created with Inkscape (http://www.inkscape.org/) --><svg xmlns:dc="http://purl.org/dc/elements/1.1/" xmlns:cc="http://creativecommons.org/ns#" xmlns:rdf="http://www.w3.org/1999/02/22-rdf-syntax-ns#" xmlns:svg="http://www.w3.org/2000/svg" xmlns="http://www.w3.org/2000/svg" xmlns:sodipodi="http://sodipodi.sourceforge.net/DTD/sodipodi-0.dtd" xmlns:inkscape="http://www.inkscape.org/namespaces/inkscape" width="127.6199" height="159.03955" viewBox="0 0 33.766095 42.079208" version="1.1" id="svg23489" inkscape:version="0.48.5 r10040" sodipodi:docname="plant_10.svg">
  <defs id="defs23483">
    <clipPath clipPathUnits="userSpaceOnUse" id="clipPath22932">
      <path style="opacity: 0.39823; color: rgb(0, 0, 0); fill: rgb(81, 255, 241); fill-opacity: 1; fill-rule: nonzero; stroke: none; stroke-width: 0; marker: none; visibility: visible; display: inline; overflow: visible;" d="m 544.30169,181.88988 c 0.28587,0.59217 2.59866,1.15837 3.74216,0.1578 0.98015,2.77708 16.86469,0 16.86469,0 l 0,-16.17162 -30.55281,0 0,15.42079 c 0,0 6.65838,3.49263 9.94596,0.59303 z" id="path22934" inkscape:connector-curvature="0" sodipodi:nodetypes="ccccccc"/>
    </clipPath>
    <clipPath clipPathUnits="userSpaceOnUse" id="clipPath22874">
      <path style="opacity: 0.39823; color: rgb(0, 0, 0); fill: rgb(81, 255, 241); fill-opacity: 1; fill-rule: nonzero; stroke: none; stroke-width: 0; marker: none; visibility: visible; display: inline; overflow: visible;" d="m 507.96393,172.04108 c 5.63585,4.14521 4.40861,7.03756 4.24526,7.42553 -0.16336,0.38797 -0.45419,0.84609 -0.55527,0.75946 0,0 -0.23077,1.39392 -0.96715,1.52387 0,0 0.7281,2.05291 -3.23333,2.91054 -3.96143,0.85763 -12.08849,-2.45037 -11.76178,-7.80034 0.32672,-5.34998 9.00511,-7.35111 12.27227,-4.81906 z" id="path22876" inkscape:connector-curvature="0" sodipodi:nodetypes="csccssc"/>
    </clipPath>
    <clipPath clipPathUnits="userSpaceOnUse" id="clipPath22894">
      <path style="opacity: 0.39823; color: rgb(0, 0, 0); fill: rgb(81, 255, 241); fill-opacity: 1; fill-rule: nonzero; stroke: none; stroke-width: 0; marker: none; visibility: visible; display: inline; overflow: visible;" d="m 519.13353,181.84256 c 1.53,1.07862 2.21773,-0.85703 2.00114,-1.06183 0.0817,0.0408 1.9603,0.65343 4.32899,-2.85877 2.36869,-3.51219 0,-9.96483 -8.00455,-11.96597 -8.00454,-2.00113 -11.2717,3.47136 -11.47589,10.16904 -0.2042,6.69767 5.75836,9.27056 9.76064,9.7198 4.00227,0.44923 3.38967,-4.00227 3.38967,-4.00227 z" id="path22896" inkscape:connector-curvature="0" sodipodi:nodetypes="ccssssc"/>
    </clipPath>
    <clipPath clipPathUnits="userSpaceOnUse" id="clipPath23263">
      <path style="opacity: 0.39823; color: rgb(0, 0, 0); fill: rgb(81, 255, 241); fill-opacity: 1; fill-rule: nonzero; stroke: none; stroke-width: 0; marker: none; visibility: visible; display: inline; overflow: visible;" d="m 507.96393,172.04108 c 5.63585,4.14521 4.40861,7.03756 4.24526,7.42553 -0.16336,0.38797 -0.45419,0.84609 -0.55527,0.75946 0,0 -0.23077,1.39392 -0.96715,1.52387 0,0 0.7281,2.05291 -3.23333,2.91054 -3.96143,0.85763 -12.08849,-2.45037 -11.76178,-7.80034 0.32672,-5.34998 9.00511,-7.35111 12.27227,-4.81906 z" id="path23265" inkscape:connector-curvature="0" sodipodi:nodetypes="csccssc"/>
    </clipPath>
    <clipPath clipPathUnits="userSpaceOnUse" id="clipPath22907">
      <path style="opacity: 0.39823; color: rgb(0, 0, 0); fill: rgb(81, 255, 241); fill-opacity: 1; fill-rule: nonzero; stroke: none; stroke-width: 0; marker: none; visibility: visible; display: inline; overflow: visible;" d="m 525.58617,181.98549 c 0.89522,0.98185 2.40724,0.64233 3.04255,0.12252 0.16124,0.72559 12.13955,0.23486 11.90471,0 -0.23482,-0.23483 4.09811,-23.83249 0,-26.19853 -4.09811,-2.36605 -15.11061,0 -21.31822,0 -6.2076,0 -9.48879,8.76153 -8.08444,14.00265 1.40436,5.24112 4.81751,7.15803 7.00687,9.97898 2.18936,2.82095 7.44853,2.09438 7.44853,2.09438 z" id="path22909" inkscape:connector-curvature="0" sodipodi:nodetypes="ccsssssc"/>
    </clipPath>
    <clipPath clipPathUnits="userSpaceOnUse" id="clipPath23269">
      <path style="opacity: 0.39823; color: rgb(0, 0, 0); fill: rgb(81, 255, 241); fill-opacity: 1; fill-rule: nonzero; stroke: none; stroke-width: 0; marker: none; visibility: visible; display: inline; overflow: visible;" d="m 525.58617,181.98549 c 0.89522,0.98185 2.40724,0.64233 3.04255,0.12252 0.16124,0.72559 12.13955,0.23486 11.90471,0 -0.23482,-0.23483 4.09811,-23.83249 0,-26.19853 -4.09811,-2.36605 -15.11061,0 -21.31822,0 -6.2076,0 -9.48879,8.76153 -8.08444,14.00265 1.40436,5.24112 4.81751,7.15803 7.00687,9.97898 2.18936,2.82095 7.44853,2.09438 7.44853,2.09438 z" id="path23271" inkscape:connector-curvature="0" sodipodi:nodetypes="ccsssssc"/>
    </clipPath>
    <clipPath clipPathUnits="userSpaceOnUse" id="clipPath23273">
      <path style="opacity: 0.39823; color: rgb(0, 0, 0); fill: rgb(81, 255, 241); fill-opacity: 1; fill-rule: nonzero; stroke: none; stroke-width: 0; marker: none; visibility: visible; display: inline; overflow: visible;" d="m 507.96393,172.04108 c 5.63585,4.14521 4.40861,7.03756 4.24526,7.42553 -0.16336,0.38797 -0.45419,0.84609 -0.55527,0.75946 0,0 -0.23077,1.39392 -0.96715,1.52387 0,0 0.7281,2.05291 -3.23333,2.91054 -3.96143,0.85763 -12.08849,-2.45037 -11.76178,-7.80034 0.32672,-5.34998 9.00511,-7.35111 12.27227,-4.81906 z" id="path23275" inkscape:connector-curvature="0" sodipodi:nodetypes="csccssc"/>
    </clipPath>
    <clipPath clipPathUnits="userSpaceOnUse" id="clipPath23277">
      <path style="opacity: 0.39823; color: rgb(0, 0, 0); fill: rgb(81, 255, 241); fill-opacity: 1; fill-rule: nonzero; stroke: none; stroke-width: 0; marker: none; visibility: visible; display: inline; overflow: visible;" d="m 519.13353,181.84256 c 1.53,1.07862 2.21773,-0.85703 2.00114,-1.06183 0.0817,0.0408 1.9603,0.65343 4.32899,-2.85877 2.36869,-3.51219 0,-9.96483 -8.00455,-11.96597 -8.00454,-2.00113 -11.2717,3.47136 -11.47589,10.16904 -0.2042,6.69767 5.75836,9.27056 9.76064,9.7198 4.00227,0.44923 3.38967,-4.00227 3.38967,-4.00227 z" id="path23279" inkscape:connector-curvature="0" sodipodi:nodetypes="ccssssc"/>
    </clipPath>
    <clipPath clipPathUnits="userSpaceOnUse" id="clipPath23281">
      <path style="opacity: 0.39823; color: rgb(0, 0, 0); fill: rgb(81, 255, 241); fill-opacity: 1; fill-rule: nonzero; stroke: none; stroke-width: 0; marker: none; visibility: visible; display: inline; overflow: visible;" d="m 525.58617,181.98549 c 0.89522,0.98185 2.40724,0.64233 3.04255,0.12252 0.16124,0.72559 12.13955,0.23486 11.90471,0 -0.23482,-0.23483 4.09811,-23.83249 0,-26.19853 -4.09811,-2.36605 -15.11061,0 -21.31822,0 -6.2076,0 -9.48879,8.76153 -8.08444,14.00265 1.40436,5.24112 4.81751,7.15803 7.00687,9.97898 2.18936,2.82095 7.44853,2.09438 7.44853,2.09438 z" id="path23283" inkscape:connector-curvature="0" sodipodi:nodetypes="ccsssssc"/>
    </clipPath>
    <clipPath clipPathUnits="userSpaceOnUse" id="clipPath23285">
      <path style="opacity: 0.39823; color: rgb(0, 0, 0); fill: rgb(81, 255, 241); fill-opacity: 1; fill-rule: nonzero; stroke: none; stroke-width: 0; marker: none; visibility: visible; display: inline; overflow: visible;" d="m 544.30169,181.88988 c 0.28587,0.59217 2.59866,1.15837 3.74216,0.1578 0.98015,2.77708 16.86469,0 16.86469,0 l 0,-16.17162 -30.55281,0 0,15.42079 c 0,0 6.65838,3.49263 9.94596,0.59303 z" id="path23287" inkscape:connector-curvature="0" sodipodi:nodetypes="ccccccc"/>
    </clipPath>
    <clipPath clipPathUnits="userSpaceOnUse" id="clipPath23289">
      <path style="opacity: 0.39823; color: rgb(0, 0, 0); fill: rgb(81, 255, 241); fill-opacity: 1; fill-rule: nonzero; stroke: none; stroke-width: 0; marker: none; visibility: visible; display: inline; overflow: visible;" d="m 507.96393,172.04108 c 5.63585,4.14521 4.40861,7.03756 4.24526,7.42553 -0.16336,0.38797 -0.45419,0.84609 -0.55527,0.75946 0,0 -0.23077,1.39392 -0.96715,1.52387 0,0 0.7281,2.05291 -3.23333,2.91054 -3.96143,0.85763 -12.08849,-2.45037 -11.76178,-7.80034 0.32672,-5.34998 9.00511,-7.35111 12.27227,-4.81906 z" id="path23291" inkscape:connector-curvature="0" sodipodi:nodetypes="csccssc"/>
    </clipPath>
    <clipPath clipPathUnits="userSpaceOnUse" id="clipPath22919">
      <path style="opacity: 0.39823; color: rgb(0, 0, 0); fill: rgb(81, 255, 241); fill-opacity: 1; fill-rule: nonzero; stroke: none; stroke-width: 0; marker: none; visibility: visible; display: inline; overflow: visible;" d="m 533.24358,180.67863 c -0.16336,1.16393 0.51049,2.00114 2.00114,1.20477 -1.74256,1.5022 -0.71572,1.26164 1.42124,3.05207 2.13697,1.79043 11.4934,0.98185 12.12872,0.5198 0.63531,-0.46205 8.02805,-6.41089 8.0858,-8.66336 0.0578,-2.25248 -1.90593,-15.01651 -5.19801,-17.78878 -3.29208,-2.77228 -16.4604,-0.57756 -19.75248,-0.0578 -3.29208,0.5198 -10.16501,5.71782 -9.93399,5.77558 0.23102,0.0577 2.83003,15.42079 2.77228,15.65181 -0.0578,0.23102 2.42574,4.15842 2.83003,3.92739 0.40429,-0.23102 3.95121,-3.17246 3.95121,-3.17246 0,0 1.59196,0.89865 1.69406,-0.44906 z" id="path22921" inkscape:connector-curvature="0" sodipodi:nodetypes="ccsssssssscc"/>
    </clipPath>
    <clipPath clipPathUnits="userSpaceOnUse" id="clipPath23295">
      <path style="opacity: 0.39823; color: rgb(0, 0, 0); fill: rgb(81, 255, 241); fill-opacity: 1; fill-rule: nonzero; stroke: none; stroke-width: 0; marker: none; visibility: visible; display: inline; overflow: visible;" d="m 525.58617,181.98549 c 0.89522,0.98185 2.40724,0.64233 3.04255,0.12252 0.16124,0.72559 12.13955,0.23486 11.90471,0 -0.23482,-0.23483 4.09811,-23.83249 0,-26.19853 -4.09811,-2.36605 -15.11061,0 -21.31822,0 -6.2076,0 -9.48879,8.76153 -8.08444,14.00265 1.40436,5.24112 4.81751,7.15803 7.00687,9.97898 2.18936,2.82095 7.44853,2.09438 7.44853,2.09438 z" id="path23297" inkscape:connector-curvature="0" sodipodi:nodetypes="ccsssssc"/>
    </clipPath>
    <clipPath clipPathUnits="userSpaceOnUse" id="clipPath23299">
      <path style="opacity: 0.39823; color: rgb(0, 0, 0); fill: rgb(81, 255, 241); fill-opacity: 1; fill-rule: nonzero; stroke: none; stroke-width: 0; marker: none; visibility: visible; display: inline; overflow: visible;" d="m 525.58617,181.98549 c 0.89522,0.98185 2.40724,0.64233 3.04255,0.12252 0.16124,0.72559 12.13955,0.23486 11.90471,0 -0.23482,-0.23483 4.09811,-23.83249 0,-26.19853 -4.09811,-2.36605 -15.11061,0 -21.31822,0 -6.2076,0 -9.48879,8.76153 -8.08444,14.00265 1.40436,5.24112 4.81751,7.15803 7.00687,9.97898 2.18936,2.82095 7.44853,2.09438 7.44853,2.09438 z" id="path23301" inkscape:connector-curvature="0" sodipodi:nodetypes="ccsssssc"/>
    </clipPath>
  </defs>
  <sodipodi:namedview id="base" pagecolor="#7d848b" bordercolor="#666666" borderopacity="1.0" inkscape:pageopacity="0" inkscape:pageshadow="2" inkscape:zoom="1.145268" inkscape:cx="-189.31498" inkscape:cy="145.59058" inkscape:document-units="px" inkscape:current-layer="layer1" showgrid="false" inkscape:pagecheckerboard="false" showborder="true" units="px" inkscape:window-width="1920" inkscape:window-height="1017" inkscape:window-x="-8" inkscape:window-y="-8" inkscape:window-maximized="1" inkscape:showpageshadow="false" guidetolerance="28" fit-margin-top="8" fit-margin-left="8" fit-margin-right="8" fit-margin-bottom="8">
    <inkscape:grid type="xygrid" id="grid24034" spacingx="1px" spacingy="1px" empspacing="8" visible="true" enabled="true" snapvisiblegridlinesonly="true" originx="-340.21101px" originy="556.7653px"/>
  </sodipodi:namedview>
  <metadata id="metadata23486">
    <rdf:RDF>
      <cc:Work rdf:about="">
        <dc:format>image/svg+xml</dc:format>
        <dc:type rdf:resource="http://purl.org/dc/dcmitype/StillImage"/>
        <dc:title/>
        <cc:license rdf:resource=""/>
        <dc:creator>
          <cc:Agent>
            <dc:title>Robert Brooks</dc:title>
          </cc:Agent>
        </dc:creator>
      </cc:Work>
    </rdf:RDF>
  </metadata>
  <g inkscape:label="Layer 1" inkscape:groupmode="layer" id="layer1" transform="translate(-90.014161,-402.23157)">
    <g id="g26540" transform="translate(-220.30066,458.96255)">
      <path id="path26465" transform="matrix(0.26458336,0,0,0.26458336,320.08182,94.083721)" d="m 51,-464.59375 c -2.675208,0.13114 -5.816986,0.74108 -9.59375,2 -15.107054,5.03568 -25.190479,14.53125 -25.75,14.53125 -21.2617808,-0.55952 -33.010394,10.62202 -29.09375,10.0625 3.234811,-0.46212 16.9618192,1.65419 21.84375,2.4375 -9.6723197,5.7704 -10.6228746,12.7733 -8.40625,11 2.4635719,-1.97086 15.750365,-3.51483 24.625,-5 1.95024,0.48058 3.992421,0.8547 6.03125,1 7.045902,4.91689 11.3125,9.59375 11.3125,9.59375 0,0 4.474441,-4.95201 3.78125,-12.84375 5.693032,-2.56026 8.504894,-5.38533 11.3125,-6.1875 3.916644,-1.11904 19.020856,-3.33779 22.9375,-2.21875 3.916644,1.11904 4.483578,-6.16816 -4.46875,-8.40625 -8.952329,-2.23808 -20.125,0.5625 -20.125,0.5625 0,0 3.901815,-6.15625 8.9375,-6.15625 5.035685,0 7.285685,-1.11162 2.25,-4.46875 -3.776764,-2.51784 -7.568127,-6.29966 -15.59375,-5.90625 z" style="opacity: 0.25; color: rgb(0, 0, 0); fill: rgb(0, 0, 0); fill-opacity: 1; fill-rule: nonzero; stroke: none; stroke-width: 0; marker: none; visibility: visible; display: inline; overflow: visible;" inkscape:connector-curvature="0" gds_color="shadow" gds_switchable="shadow" gds_opacity="shadow"/>
      <g transform="translate(-33.71578,25.321349)" id="g25485">
        <g id="g25258" transform="translate(-13.399035,-2.721679)">
          <g id="g24781" transform="matrix(0.94314928,0,0,0.94314928,-5.543426,5.6955266)">
            <path style="color: rgb(0, 0, 0); fill: rgb(20, 159, 147); fill-opacity: 1; fill-rule: nonzero; stroke: rgb(18, 18, 18); stroke-width: 10.6028; stroke-linejoin: round; stroke-opacity: 1; marker: none; visibility: visible; display: inline; overflow: visible;" d="m 311.65294,-583.74125 c -16.05447,24.83685 -14.14397,7.43553 -13.80742,2.85196 1.85268,-25.23182 -1.60231,-60.4932 -2.97819,-68.59562 -2.51784,-14.8273 3.63688,-24.89867 11.74993,-2.79761 6.12643,16.68925 11.2957,49.17163 13.70086,68.05397 0.77991,6.12297 1.54894,26.48245 -12.0223,-11.26263 -3.12936,-8.70355 3.07736,15.94634 3.35712,11.74993 z" id="path24783" inkscape:connector-curvature="0" transform="matrix(0.26458336,0,0,0.26458336,320.08182,94.083721)" sodipodi:nodetypes="csssssc"/>
            <path sodipodi:nodetypes="cssssc" transform="matrix(0.26458336,0,0,0.26458336,320.08182,94.083721)" inkscape:connector-curvature="0" id="path24785" d="m 296.26613,-568.35444 c 4.75593,-24.05938 0.22702,-71.55618 -1.3988,-81.13047 -2.51784,-14.8273 3.63688,-24.89867 11.74993,-2.79761 8.11305,22.10107 14.54753,71.89839 15.10705,81.13048 0.55952,9.23209 -7.55352,12.86898 -15.10705,12.30946 -7.55353,-0.55953 -10.63089,-5.31545 -10.35113,-9.51186 z" style="color: rgb(0, 0, 0); fill: rgb(20, 159, 147); fill-opacity: 1; fill-rule: nonzero; stroke: none; stroke-width: 0; marker: none; visibility: visible; display: inline; overflow: visible;"/>
            <path id="path24787" transform="matrix(0.26458336,0,0,0.26458336,320.08182,94.083721)" d="m 298.15625,-619.5 c -0.0519,0.13964 -0.15549,1.2567 -0.3125,3.0625 0.844,16.6051 0.92032,35.53361 -1.5625,48.09375 -0.27976,4.19641 2.79022,8.94047 10.34375,9.5 7.55353,0.55952 15.65327,-3.08041 15.09375,-12.3125 -0.18573,-3.06462 -1.04801,-10.80482 -2.375,-20.3125 -0.39362,8.37995 -2.53251,20.855 -10.21875,16.125 -10.91065,-6.71425 -10.90625,-26.86021 -10.90625,-41.6875 0,-1.85341 -0.0117,-2.60535 -0.0625,-2.46875 z" style="color: rgb(0, 0, 0); fill: rgb(14, 111, 103); fill-opacity: 1; fill-rule: nonzero; stroke: none; stroke-width: 0; marker: none; visibility: visible; display: inline; overflow: visible;" inkscape:connector-curvature="0"/>
            <path id="path24789" transform="matrix(0.26458336,0,0,0.26458336,320.08182,94.083721)" d="m 297.65625,-665.125 c -2.87683,0.4512 -4.19754,7.28464 -2.78125,15.625 1.27557,7.51169 4.31773,38.34146 3.28125,62.90625 0.0246,-0.0786 0.0374,-0.13078 0.0625,-0.21875 2.7976,-9.79161 -0.5476,-59.58634 2.25,-64.0625 2.23327,-3.57322 12.12161,26.67738 16.59375,44.3125 -2.69829,-16.45889 -6.35213,-34.58962 -10.4375,-45.71875 -3.54946,-9.66921 -6.73121,-13.19468 -8.96875,-12.84375 z" style="color: rgb(0, 0, 0); fill: rgb(7, 218, 200); fill-opacity: 1; fill-rule: nonzero; stroke: none; stroke-width: 0; marker: none; visibility: visible; display: inline; overflow: visible;" inkscape:connector-curvature="0"/>
          </g>
          <g id="g24791" transform="matrix(-0.94469183,0,0,0.87437648,756.12277,-4.4604343)">
            <path sodipodi:nodetypes="csssssc" transform="matrix(0.26458336,0,0,0.26458336,320.08182,94.083721)" inkscape:connector-curvature="0" id="path24793" d="m 311.65294,-583.74125 c -16.05447,24.83685 -14.14397,7.43553 -13.80742,2.85196 1.85268,-25.23182 -1.60231,-60.4932 -2.97819,-68.59562 -2.51784,-14.8273 3.63688,-24.89867 11.74993,-2.79761 6.12643,16.68925 11.2957,49.17163 13.70086,68.05397 0.77991,6.12297 1.54894,26.48245 -12.0223,-11.26263 -3.12936,-8.70355 3.07736,15.94634 3.35712,11.74993 z" style="color: rgb(0, 0, 0); fill: rgb(20, 159, 147); fill-opacity: 1; fill-rule: nonzero; stroke: rgb(18, 18, 18); stroke-width: 10; stroke-linejoin: round; stroke-opacity: 1; marker: none; visibility: visible; display: inline; overflow: visible;"/>
            <path style="color: rgb(0, 0, 0); fill: rgb(20, 159, 147); fill-opacity: 1; fill-rule: nonzero; stroke: none; stroke-width: 0; marker: none; visibility: visible; display: inline; overflow: visible;" d="m 296.26613,-568.35444 c 4.75593,-24.05938 0.22702,-71.55618 -1.3988,-81.13047 -2.51784,-14.8273 3.63688,-24.89867 11.74993,-2.79761 8.11305,22.10107 14.54753,71.89839 15.10705,81.13048 0.55952,9.23209 -7.55352,12.86898 -15.10705,12.30946 -7.55353,-0.55953 -10.63089,-5.31545 -10.35113,-9.51186 z" id="path24795" inkscape:connector-curvature="0" transform="matrix(0.26458336,0,0,0.26458336,320.08182,94.083721)" sodipodi:nodetypes="cssssc"/>
            <path style="color: rgb(0, 0, 0); fill: rgb(14, 111, 103); fill-opacity: 1; fill-rule: nonzero; stroke: none; stroke-width: 0; marker: none; visibility: visible; display: inline; overflow: visible;" d="m 298.15625,-619.5 c -0.0519,0.13964 -0.15549,1.2567 -0.3125,3.0625 0.844,16.6051 0.92032,35.53361 -1.5625,48.09375 -0.27976,4.19641 2.79022,8.94047 10.34375,9.5 7.55353,0.55952 15.65327,-3.08041 15.09375,-12.3125 -0.18573,-3.06462 -1.04801,-10.80482 -2.375,-20.3125 -0.39362,8.37995 -2.53251,20.855 -10.21875,16.125 -10.91065,-6.71425 -10.90625,-26.86021 -10.90625,-41.6875 0,-1.85341 -0.0117,-2.60535 -0.0625,-2.46875 z" transform="matrix(0.26458336,0,0,0.26458336,320.08182,94.083721)" id="path24797" inkscape:connector-curvature="0"/>
            <path style="color: rgb(0, 0, 0); fill: rgb(7, 218, 200); fill-opacity: 1; fill-rule: nonzero; stroke: none; stroke-width: 0; marker: none; visibility: visible; display: inline; overflow: visible;" d="m 297.65625,-665.125 c -2.87683,0.4512 -4.19754,7.28464 -2.78125,15.625 1.27557,7.51169 4.31773,38.34146 3.28125,62.90625 0.0246,-0.0786 0.0374,-0.13078 0.0625,-0.21875 2.7976,-9.79161 -0.5476,-59.58634 2.25,-64.0625 2.23327,-3.57322 12.12161,26.67738 16.59375,44.3125 -2.69829,-16.45889 -6.35213,-34.58962 -10.4375,-45.71875 -3.54946,-9.66921 -6.73121,-13.19468 -8.96875,-12.84375 z" transform="matrix(0.26458336,0,0,0.26458336,320.08182,94.083721)" id="path24799" inkscape:connector-curvature="0"/>
          </g>
          <g transform="matrix(0.81068475,0.15549255,-0.15549255,0.81068475,47.550378,-62.900367)" id="g24924">
            <path sodipodi:nodetypes="csssssssc" inkscape:connector-curvature="0" id="path24907" d="m 392.52035,-59.053081 c -0.5234,-9.525877 2.14951,-13.923015 5.10918,-15.257877 3.7019,-1.669619 6.59702,1.039362 7.43446,2.818921 0.83744,1.779559 0.75072,3.331798 0.22732,2.913079 -0.5234,-0.418719 -2.45626,-3.54116 -4.3405,-3.017759 -1.88424,0.523399 -3.24351,5.013856 -3.30114,9.507918 -0.0198,1.541891 0.30364,2.576367 0.19216,4.539904 -0.11937,2.102525 -4.97558,2.639828 -5.2168,0.589412 -0.10468,-0.889779 -0.10468,-2.093598 -0.10468,-2.093598 z" style="color: rgb(0, 0, 0); fill: rgb(7, 218, 200); fill-opacity: 1; fill-rule: nonzero; stroke: rgb(18, 18, 18); stroke-width: 2.88475; stroke-linejoin: round; stroke-miterlimit: 4; stroke-opacity: 1; stroke-dasharray: none; marker: none; visibility: visible; display: inline; overflow: visible;"/>
            <path style="color: rgb(0, 0, 0); fill: rgb(23, 183, 170); fill-opacity: 1; fill-rule: nonzero; stroke: none; stroke-width: 0; marker: none; visibility: visible; display: inline; overflow: visible;" d="m 392.52035,-59.053081 c -0.5234,-9.525877 2.14951,-13.923015 5.10918,-15.257877 3.7019,-1.669619 6.59702,1.039362 7.43446,2.818921 0.83744,1.779559 0.75072,3.331798 0.22732,2.913079 -0.5234,-0.418719 -2.45626,-3.54116 -4.3405,-3.017759 -1.88424,0.523399 -3.24351,5.013856 -3.30114,9.507918 -0.0198,1.541891 0.30364,2.576367 0.19216,4.539904 -0.11937,2.102525 -4.97558,2.639828 -5.2168,0.589412 -0.10468,-0.889779 -0.10468,-2.093598 -0.10468,-2.093598 z" id="path24885" inkscape:connector-curvature="0" sodipodi:nodetypes="csssssssc"/>
            <path style="color: rgb(0, 0, 0); fill: rgb(7, 218, 200); fill-opacity: 1; fill-rule: nonzero; stroke: rgb(18, 18, 18); stroke-width: 0; stroke-linecap: round; stroke-linejoin: round; stroke-miterlimit: 4; stroke-opacity: 1; stroke-dasharray: none; stroke-dashoffset: 37.6; marker: none; visibility: visible; display: inline; overflow: visible;" d="m 399.92812,-74.836218 c -0.71949,0.0017 -1.48878,0.163939 -2.29857,0.529167 -2.33592,1.053539 -4.4954,4.012499 -5.04362,9.897071 0.78333,-3.484991 1.84018,-7.159067 5.01055,-8.458399 2.09328,-0.857904 2.31861,0.601414 2.24069,2.091862 0.34267,-0.424286 0.71985,-0.708456 1.11621,-0.818555 1.88424,-0.523401 3.81742,2.599185 4.34082,3.017904 0.5234,0.418719 0.60593,-1.139126 -0.23151,-2.918685 -0.65425,-1.39028 -2.56498,-3.346598 -5.13457,-3.340365 z" id="path24919" inkscape:connector-curvature="0"/>
            <path style="color: rgb(0, 0, 0); fill: rgb(14, 111, 103); fill-opacity: 1; fill-rule: nonzero; stroke: rgb(18, 18, 18); stroke-width: 0; stroke-linecap: round; stroke-linejoin: round; stroke-miterlimit: 4; stroke-opacity: 1; stroke-dasharray: none; stroke-dashoffset: 37.6; marker: none; visibility: visible; display: inline; overflow: visible;" d="m 307.3125,-628.11955 c -1.66061,0.0568 -2.52997,0.44976 -4.35981,1.46359 -14.03872,7.77821 -12.23922,43.91694 -11.29644,57.65596 1.29678,-1.09951 2.15734,-2.4617 2.25,-4.09375 0.42134,-7.42124 -0.82483,-11.32863 -0.75,-17.15625 0.21781,-16.98543 5.37846,-33.9593 12.5,-35.9375 7.12154,-1.97821 14.42805,9.82369 16.40625,11.40625 0.40135,0.32108 0.71866,0.3309 0.96875,0.0937 -3.19104,-5.80467 -8.64108,-13.67412 -15.71875,-13.43205 z" transform="matrix(0.26458336,0,0,0.26458336,320.08182,94.083721)" id="path24909" inkscape:connector-curvature="0" sodipodi:nodetypes="sscscsscs"/>
            <path inkscape:connector-curvature="0" style="opacity: 0.40708; color: rgb(0, 0, 0); fill: rgb(14, 111, 103); fill-opacity: 1; fill-rule: nonzero; stroke: rgb(18, 18, 18); stroke-width: 0; stroke-linecap: round; stroke-linejoin: round; stroke-miterlimit: 4; stroke-opacity: 1; stroke-dasharray: none; stroke-dashoffset: 37.6; marker: none; visibility: visible; display: inline; overflow: visible;" d="m 294.5625,-606.46875 c 0,0 -2.79301,8.30304 -5.5625,10.28125 -2.67356,1.90969 -13.45051,2.14873 -14.90625,-3.53125 -0.6083,6.10235 -0.74523,13.06178 -0.3125,20.9375 0,0 0.0106,4.54331 0.40625,7.90625 0.9117,7.7496 19.26759,5.7278 19.71875,-2.21875 0.42134,-7.42124 -0.82483,-11.32863 -0.75,-17.15625 0.0706,-5.50691 0.68268,-11.00647 1.6875,-16 -0.11525,-0.1023 -0.28125,-0.21875 -0.28125,-0.21875 z" transform="matrix(0.26458336,0,0,0.26458336,320.08182,94.083721)" id="path24914"/>
          </g>
          <g transform="matrix(0.94505622,0.0257456,-0.0257456,0.94505622,1.428759,-7.6223048)" id="g25165">
            <path sodipodi:nodetypes="csssssssc" inkscape:connector-curvature="0" id="path25167" d="m 392.52035,-59.053081 c -0.5234,-9.525877 2.14951,-13.923015 5.10918,-15.257877 3.7019,-1.669619 6.59702,1.039362 7.43446,2.818921 0.83744,1.779559 0.75072,3.331798 0.22732,2.913079 -0.5234,-0.418719 -2.45626,-3.54116 -4.3405,-3.017759 -1.88424,0.523399 -3.24351,5.013856 -3.30114,9.507918 -0.0198,1.541891 0.30364,7.768628 0.19216,9.732165 -0.11937,2.102525 -4.34333,-8.177853 -5.06021,-0.819884 -0.0869,0.891693 -0.26127,-5.876563 -0.26127,-5.876563 z" style="color: rgb(0, 0, 0); fill: rgb(7, 218, 200); fill-opacity: 1; fill-rule: nonzero; stroke: rgb(18, 18, 18); stroke-width: 2.51876; stroke-linejoin: round; stroke-miterlimit: 4; stroke-opacity: 1; stroke-dasharray: none; marker: none; visibility: visible; display: inline; overflow: visible;"/>
            <path style="color: rgb(0, 0, 0); fill: rgb(23, 183, 170); fill-opacity: 1; fill-rule: nonzero; stroke: none; stroke-width: 0; marker: none; visibility: visible; display: inline; overflow: visible;" d="m 392.52035,-59.053081 c -0.5234,-9.525877 2.14951,-13.923015 5.10918,-15.257877 3.7019,-1.669619 6.59702,1.039362 7.43446,2.818921 0.83744,1.779559 0.75072,3.331798 0.22732,2.913079 -0.5234,-0.418719 -2.45626,-3.54116 -4.3405,-3.017759 -1.88424,0.523399 -3.24351,5.013856 -3.30114,9.507918 -0.0198,1.541891 0.30364,8.943042 0.19216,10.906579 -0.11937,2.102525 -4.97558,2.639828 -5.2168,0.589412 -0.10468,-0.889779 -0.10468,-8.460273 -0.10468,-8.460273 z" id="path25169" inkscape:connector-curvature="0" sodipodi:nodetypes="csssssssc"/>
            <path style="color: rgb(0, 0, 0); fill: rgb(7, 218, 200); fill-opacity: 1; fill-rule: nonzero; stroke: rgb(18, 18, 18); stroke-width: 0; stroke-linecap: round; stroke-linejoin: round; stroke-miterlimit: 4; stroke-opacity: 1; stroke-dasharray: none; stroke-dashoffset: 37.6; marker: none; visibility: visible; display: inline; overflow: visible;" d="m 399.92812,-74.836218 c -0.71949,0.0017 -1.48878,0.163939 -2.29857,0.529167 -2.33592,1.053539 -4.4954,4.012499 -5.04362,9.897071 0.78333,-3.484991 1.84018,-7.159067 5.01055,-8.458399 2.09328,-0.857904 2.31861,0.601414 2.24069,2.091862 0.34267,-0.424286 0.71985,-0.708456 1.11621,-0.818555 1.88424,-0.523401 3.81742,2.599185 4.34082,3.017904 0.5234,0.418719 0.60593,-1.139126 -0.23151,-2.918685 -0.65425,-1.39028 -2.56498,-3.346598 -5.13457,-3.340365 z" id="path25171" inkscape:connector-curvature="0"/>
            <path style="color: rgb(0, 0, 0); fill: rgb(14, 111, 103); fill-opacity: 1; fill-rule: nonzero; stroke: rgb(18, 18, 18); stroke-width: 0; stroke-linecap: round; stroke-linejoin: round; stroke-miterlimit: 4; stroke-opacity: 1; stroke-dasharray: none; stroke-dashoffset: 37.6; marker: none; visibility: visible; display: inline; overflow: visible;" d="m 307.3125,-628.11955 c -1.66061,0.0568 -2.52997,0.44976 -4.35981,1.46359 -14.03872,7.77821 -12.23922,67.97996 -11.29644,81.71898 1.29678,-1.09951 2.15734,-2.4617 2.25,-4.09375 0.42134,-7.42124 -0.82483,-35.39165 -0.75,-41.21927 0.21781,-16.98543 5.37846,-33.9593 12.5,-35.9375 7.12154,-1.97821 14.42805,9.82369 16.40625,11.40625 0.40135,0.32108 0.71866,0.3309 0.96875,0.0937 -3.19104,-5.80467 -8.64108,-13.67412 -15.71875,-13.43205 z" transform="matrix(0.26458336,0,0,0.26458336,320.08182,94.083721)" id="path25173" inkscape:connector-curvature="0" sodipodi:nodetypes="cscscsscsc"/>
            <path inkscape:connector-curvature="0" style="opacity: 0.40708; color: rgb(0, 0, 0); fill: rgb(14, 111, 103); fill-opacity: 1; fill-rule: nonzero; stroke: rgb(18, 18, 18); stroke-width: 0; stroke-linecap: round; stroke-linejoin: round; stroke-miterlimit: 4; stroke-opacity: 1; stroke-dasharray: none; stroke-dashoffset: 37.6; marker: none; visibility: visible; display: inline; overflow: visible;" d="m 294.5625,-606.46875 c 0,0 -2.79301,8.30304 -5.5625,10.28125 -2.67356,1.90969 -13.45051,2.14873 -14.90625,-3.53125 -0.6083,6.10235 -0.74523,13.06178 -0.3125,20.9375 0,0 0.0106,28.60633 0.40625,31.96927 0.9117,7.7496 19.26759,5.7278 19.71875,-2.21875 0.42134,-7.42124 -0.82483,-35.39165 -0.75,-41.21927 0.0706,-5.50691 0.68268,-11.00647 1.6875,-16 -0.11525,-0.1023 -0.28125,-0.21875 -0.28125,-0.21875 z" transform="matrix(0.26458336,0,0,0.26458336,320.08182,94.083721)" id="path25175" sodipodi:nodetypes="csccssccc"/>
          </g>
          <g transform="matrix(-0.45548392,0,0,0.45548392,556.43633,-23.048114)" id="g25246">
            <path style="color: rgb(0, 0, 0); fill: rgb(14, 111, 103); fill-opacity: 1; fill-rule: nonzero; stroke: rgb(18, 18, 18); stroke-width: 19.7592; stroke-linejoin: round; stroke-miterlimit: 4; stroke-opacity: 1; stroke-dasharray: none; marker: none; visibility: visible; display: inline; overflow: visible;" d="m 345.6875,-613.6875 c -0.7076,0.0199 -1.41711,0.0648 -2.125,0.125 -0.70753,0.0601 -1.41974,0.14658 -2.125,0.25 -0.0308,0.005 -0.0629,-0.005 -0.0937,0 -0.66865,0.0999 -1.33574,0.23331 -2,0.375 -0.70559,0.15051 -1.39566,0.33057 -2.09375,0.53125 -0.69219,0.19898 -1.38025,0.43612 -2.0625,0.6875 -1.37006,0.5048 -2.71678,1.10906 -4.03125,1.84375 -0.65179,0.3643 -1.30318,0.76211 -1.9375,1.1875 -8.37074,5.61361 -15.10403,16.66587 -17.3125,36.65625 -0.10826,0.9772 -0.19343,1.9814 -0.28125,3 -0.0649,0.7698 -0.13548,1.54903 -0.1875,2.34375 -1.21992,17.09609 6.95831,4.09594 6.51187,-0.50743 0.27731,3.11997 4.06718,-15.85606 8.76954,-10.47 1.55421,1.78019 4.70882,27.30642 8.84359,16.28993 -0.0117,-1.65606 -0.004,-3.23769 0.0224,-4.74852 0.42509,-24.11619 5.73409,-30.192 16.10257,-32.97023 16.01873,-4.29221 32.13619,10.22882 33.71875,9.4375 0.42768,-0.21353 0.58451,-0.50792 0.65625,-0.71875 0.0239,0.0161 0.0403,0.054 0.0625,0.0625 0.006,0.003 0.0253,-0.002 0.0312,0 0.10822,0.0255 0.20466,-0.0284 0.25,-0.1875 0.0479,-0.16814 0.0531,-0.42733 0,-0.78125 -0.003,-0.0208 0.004,-0.0411 0,-0.0625 -0.006,-0.0372 -0.0241,-0.086 -0.0312,-0.125 -0.03,-0.15809 -0.073,-0.31318 -0.125,-0.5 -0.0424,-0.15493 -0.097,-0.32577 -0.15625,-0.5 -0.0285,-0.083 -0.03,-0.16283 -0.0625,-0.25 -0.10137,-0.27358 -0.23112,-0.56176 -0.375,-0.875 -0.43541,-0.9488 -1.0629,-2.05242 -1.96875,-3.3125 -0.29778,-0.41534 -0.61088,-0.83751 -0.96875,-1.28125 -0.36571,-0.45367 -0.75439,-0.89468 -1.1875,-1.375 -0.42235,-0.46932 -0.85252,-0.94542 -1.34375,-1.4375 -0.98244,-0.98439 -2.12192,-2.00416 -3.40625,-3.0625 -0.21922,-0.18065 -0.48274,-0.38158 -0.78125,-0.59375 -0.0218,-0.0155 -0.0403,-0.0468 -0.0625,-0.0625 -0.26654,-0.18741 -0.58322,-0.38703 -0.90625,-0.59375 -0.36489,-0.23351 -0.78632,-0.46603 -1.21875,-0.71875 -0.13071,-0.0764 -0.26968,-0.17224 -0.40625,-0.25 -0.30434,-0.17302 -0.63649,-0.35259 -0.96875,-0.53125 -0.50092,-0.26935 -1.03351,-0.53531 -1.59375,-0.8125 -0.41477,-0.20524 -0.86765,-0.41834 -1.3125,-0.625 -0.14428,-0.0669 -0.29021,-0.15183 -0.4375,-0.21875 -0.37446,-0.17021 -0.76308,-0.33089 -1.15625,-0.5 -0.23312,-0.10015 -0.47939,-0.21312 -0.71875,-0.3125 -0.52528,-0.21798 -1.07151,-0.44418 -1.625,-0.65625 -0.13324,-0.051 -0.27146,-0.10568 -0.40625,-0.15625 -0.57815,-0.21691 -1.17638,-0.4184 -1.78125,-0.625 -0.12186,-0.0416 -0.25212,-0.0839 -0.375,-0.125 -0.68609,-0.22944 -1.40951,-0.44511 -2.125,-0.65625 -0.0528,-0.0156 -0.10331,-0.0471 -0.15625,-0.0625 -1.54339,-0.45076 -3.13145,-0.85699 -4.78125,-1.1875 -0.11219,-0.0225 -0.23116,-0.0407 -0.34375,-0.0625 -0.71906,-0.1391 -1.45413,-0.26543 -2.1875,-0.375 -0.0423,-0.006 -0.0826,-0.025 -0.125,-0.0312 -0.43345,-0.0636 -0.875,-0.10405 -1.3125,-0.15625 -0.66624,-0.0796 -1.32624,-0.13672 -2,-0.1875 -0.95169,-0.0717 -1.91382,-0.11736 -2.875,-0.125 -0.48077,-0.004 -0.95559,-0.0135 -1.4375,0 z" transform="matrix(0.26458336,0,0,0.26458336,320.08182,94.083721)" id="path25248" inkscape:connector-curvature="0" sodipodi:nodetypes="ssccsssssccccscssccccccccccccccccsccsccsccccccscccccccccscs"/>
            <path sodipodi:nodetypes="scssccs" inkscape:connector-curvature="0" id="path25250" d="m 419.92274,-64.925726 c 1.53506,1.530935 2.20639,2.278771 2.32239,2.743513 0,0 -0.009,0.16301 -0.19155,0.254152 -0.41872,0.209369 -4.67933,-3.634948 -8.91762,-2.499301 -2.91519,0.781123 -4.32299,2.547923 -4.27065,9.9802 0.13609,3.826319 -5.60936,3.164789 -5.60936,0.579458 0.96226,-20.651554 14.81164,-12.908189 16.66679,-11.058022 z" style="color: rgb(0, 0, 0); fill: rgb(14, 111, 103); fill-opacity: 1; fill-rule: nonzero; stroke: none; stroke-width: 0; marker: none; visibility: visible; display: inline; overflow: visible;"/>
            <path style="color: rgb(0, 0, 0); fill: rgb(23, 183, 170); fill-opacity: 1; fill-rule: nonzero; stroke: none; stroke-width: 0; marker: none; visibility: visible; display: inline; overflow: visible;" d="m 376.79196,-604.05789 c 10.27466,8.46668 10.32627,14.92851 9.15562,13.60178 -2.96731,-3.36295 -19.30446,-15.18417 -35.50585,-11.64329 -14.00025,3.05982 -19.2904,13.81931 -20.47733,25.68854 -1.18692,11.86922 -0.28138,15.58393 -0.0339,19.41475 0.36642,9.16051 -19.3864,8.37851 -18.79294,-1.39904 0.66958,-79.24003 58.01222,-51.96019 65.65444,-45.66274 z" id="path25252" inkscape:connector-curvature="0" transform="matrix(0.26458336,0,0,0.26458336,320.08182,94.083721)" sodipodi:nodetypes="ssssccs"/>
            <path inkscape:connector-curvature="0" style="opacity: 0.699115; color: rgb(0, 0, 0); fill: rgb(14, 111, 103); fill-opacity: 1; fill-rule: nonzero; stroke: none; stroke-width: 0; marker: none; visibility: visible; display: inline; overflow: visible;" d="m 330.96875,-582.34375 c -2.29344,3.81104 -3.79701,10.21226 -5.3125,12.59375 -1.40754,2.21186 -10.49561,3.40899 -13.71875,-2.53125 -0.47631,4.22086 -0.76979,8.82037 -0.8125,13.875 -0.59346,9.77755 19.17892,10.56676 18.8125,1.40625 -0.24748,-3.83082 -1.15567,-7.53703 0.0312,-19.40625 0.20187,-2.01864 0.5381,-4.01547 1,-5.9375 z" transform="matrix(0.26458336,0,0,0.26458336,320.08182,94.083721)" id="path25254"/>
            <path inkscape:connector-curvature="0" style="color: rgb(0, 0, 0); fill: rgb(7, 218, 200); fill-opacity: 1; fill-rule: nonzero; stroke: none; stroke-width: 0; marker: none; visibility: visible; display: inline; overflow: visible;" d="m 345.6875,-613.6875 c -5.6571,0.1589 -11.36713,1.57874 -16.46875,5 9.67889,-1.87907 13.25245,6.94945 9.84375,12.0625 2.91752,-2.53227 6.65137,-4.43638 11.375,-5.46875 16.20139,-3.54088 32.53269,8.26205 35.5,11.625 1.17065,1.32673 1.11841,-5.12707 -9.15625,-13.59375 -3.46288,-2.85353 -17.1183,-10.01755 -31.09375,-9.625 z" transform="matrix(0.26458336,0,0,0.26458336,320.08182,94.083721)" id="path25256"/>
          </g>
          <g transform="matrix(0.70400805,0,0,0.70400805,49.075895,-8.0506011)" id="g25177">
            <g id="g25179">
              <path style="color: rgb(0, 0, 0); fill: rgb(20, 159, 147); fill-opacity: 1; fill-rule: nonzero; stroke: rgb(18, 18, 18); stroke-width: 12.7839; stroke-linejoin: round; stroke-miterlimit: 4; stroke-opacity: 1; stroke-dasharray: none; marker: none; visibility: visible; display: inline; overflow: visible;" d="m 499.375,-662.78125 c -2.92098,0.0484 -5.88813,0.60601 -8.78125,1.71875 -36.31109,15.45917 -27.24835,65.99965 -22.90625,66.84375 0.002,-0.0182 -0.002,-0.0441 0,-0.0625 0.83762,0.35636 3.03425,0.002 3.34375,0.0625 1.16991,-8.8675 12.05704,-41.51856 30.93853,-50.21927 11.62769,11.78882 12.58011,57.26941 11.55454,71.56374 -1.53453,21.38819 5.05452,-30.31509 5.65058,-37.02075 13.69673,-0.24822 -12.95531,-10.16686 6.67785,-6.4751 -0.61159,-5.96592 -9.04722,33.05918 3.09675,40.47301 11.26249,13.49208 9.75692,-36.17494 5.04813,-54.95968 -1.20471,-4.80593 -3.48162,-10.28029 -6.12787,-14.42113 -5.35705,-9.27869 -15.9799,-17.71045 -28.49479,-17.50312 z" transform="matrix(0.26458336,0,0,0.26458336,320.08182,94.083721)" id="path25181" inkscape:connector-curvature="0" sodipodi:nodetypes="ccccccscccscsc"/>
              <path sodipodi:nodetypes="ccssc" transform="matrix(0.26458336,0,0,0.26458336,320.08182,94.083721)" inkscape:connector-curvature="0" id="path25183" d="m 493.43193,-649.54817 c 25.28124,2.39713 19.29863,83.83954 19.29863,83.83954 -0.27976,11.74993 27.97462,9.18409 27.36709,1.21503 -0.33864,-4.44201 0,-88.3637 -31.25562,-94.29831 -5.56528,-1.0567 -15.4101,9.24374 -15.4101,9.24374 z" style="color: rgb(0, 0, 0); fill: rgb(20, 159, 147); fill-opacity: 1; fill-rule: nonzero; stroke: none; stroke-width: 0; marker: none; visibility: visible; display: inline; overflow: visible;"/>
              <path inkscape:connector-curvature="0" id="path25185" transform="matrix(0.26458336,0,0,0.26458336,320.08182,94.083721)" d="m 507.75,-658.875 c -5.66723,0.26095 -14.3125,9.3125 -14.3125,9.3125 7.21816,0.68441 11.8871,5.70767 14.875,12.5 19.48779,3.98769 26.03125,16.40625 26.03125,16.40625 0,0 0.95862,-0.44645 2.21875,-1.28125 -3.67672,-16.4307 -11.36196,-33.73803 -27.71875,-36.84375 -0.34783,-0.066 -0.71593,-0.11115 -1.09375,-0.0937 z" style="color: rgb(0, 0, 0); fill: rgb(17, 133, 123); fill-opacity: 1; fill-rule: nonzero; stroke: none; stroke-width: 0; marker: none; visibility: visible; display: inline; overflow: visible;"/>
              <path style="color: rgb(0, 0, 0); fill: rgb(19, 154, 143); fill-opacity: 1; fill-rule: nonzero; stroke: none; stroke-width: 0; marker: none; visibility: visible; display: inline; overflow: visible;" d="m 76.21875,-587.5 c -0.02996,0.38694 -0.02239,0.82888 0,1.34375 0.196953,4.52993 -1.575378,15.55383 -8.46875,13.78125 -2.490841,-0.6405 -4.637202,-3.31318 -6.875,-7.25 1.460592,15.23191 0.3125,30.96875 0.3125,30.96875 -0.0062,0.2585 -5.97e-4,0.51099 0.03125,0.75 0.955409,7.17025 18.466151,5.65601 19.21875,0.625 0.0056,-0.1013 0.0079,-0.20937 0,-0.3125 -0.01076,-0.14112 -0.02049,-1.49427 -0.03125,-2.0625 -0.138795,-5.06356 -0.537749,-22.15573 -4.1875,-37.84375 z" transform="matrix(0.37582433,0,0,0.37582433,432.7462,150.5995)" id="path25187" inkscape:connector-curvature="0"/>
              <path sodipodi:nodetypes="ccccccsscsccccscccccccc" inkscape:connector-curvature="0" id="path25189" transform="matrix(0.26458336,0,0,0.26458336,320.08182,94.083721)" d="m 507.75,-658.875 c -0.51919,0.0239 -1.06464,0.15473 -1.625,0.3125 5.40705,1.2417 9.85245,3.96437 13.5,7.6875 -5.57253,-2.39691 -12.55852,-3.42298 -19.46875,-2.84375 -30.3428,15.31966 -36.97732,51.74234 -32.75,59.21875 0.39307,0.69515 3.2678,0.21182 3.625,0.28125 1.33254,-10.10015 16.73511,-51.79801 40.32798,-52.86705 11.03135,-0.49985 16.13291,7.76334 17.3745,10.78722 7.25559,17.67087 7.66729,66.76124 7.76627,76.39955 2.28952,-1.15939 3.49925,-2.72297 3.59375,-4.59375 0.16575,-3.28129 1.41823,-58.73807 -10.5,-77.25722 -1.30944,-1.98951 -1.68325,-3.17935 -2.5625,-4.21875 -0.006,-0.006 0.006,-0.0254 0,-0.0312 -4.38611,-6.44214 -10.27415,-11.27871 -18.1875,-12.78125 -0.34783,-0.066 -0.71593,-0.11115 -1.09375,-0.0937 z m -7.59375,5.15625 c 1.12994,-0.57049 2.3036,-1.11564 3.5,-1.625 l -7.96875,2.21875 c 1.47294,-0.27622 2.97156,-0.46825 4.46875,-0.59375 z m -4.46875,0.59375 c -2.36656,0.4438 -4.67549,1.09153 -6.875,1.9375 z" style="color: rgb(0, 0, 0); fill: rgb(14, 111, 103); fill-opacity: 1; fill-rule: nonzero; stroke: none; stroke-width: 0; marker: none; visibility: visible; display: inline; overflow: visible;"/>
              <path sodipodi:nodetypes="cccc" transform="matrix(0.26458336,0,0,0.26458336,320.08182,94.083721)" inkscape:connector-curvature="0" id="path25191" d="m 490.59456,-661.07799 c -36.31109,15.45917 -27.26116,66.01919 -22.91906,66.86329 1.65964,-12.57968 26.55928,-74.77286 60.10929,-50.64202 -4.59209,-11.4678 -21.76024,-22.15588 -37.19023,-16.22127 z" style="color: rgb(0, 0, 0); fill: rgb(23, 183, 170); fill-opacity: 1; fill-rule: nonzero; stroke: none; stroke-width: 0; marker: none; visibility: visible; display: inline; overflow: visible;"/>
              <path inkscape:connector-curvature="0" id="path25193" transform="matrix(0.26458336,0,0,0.26458336,320.08182,94.083721)" d="m 485.75,-633.25 c -5.84349,5.14609 -13.99265,19.31648 -17.15625,19.84375 -1.49248,0.24875 -3.57141,-0.66274 -5.125,-3.03125 -0.42492,12.13637 2.33705,21.85295 4.21875,22.21875 0.82875,-6.28177 7.46025,-24.93322 18.0625,-39.03125 z" style="color: rgb(0, 0, 0); fill: rgb(17, 133, 123); fill-opacity: 1; fill-rule: nonzero; stroke: none; stroke-width: 0; marker: none; visibility: visible; display: inline; overflow: visible;"/>
              <path inkscape:connector-curvature="0" id="path25195" transform="matrix(0.26458336,0,0,0.26458336,320.08182,94.083721)" d="m 499.375,-662.78125 c -2.92098,0.0484 -5.88813,0.60601 -8.78125,1.71875 -5.87068,2.4994 -10.53916,5.89902 -14.25,9.875 8.0016,-0.69841 14.42262,4.35241 17.75,8.75 9.44909,-8.29765 20.94117,-11.57404 33.6875,-2.40625 -3.73107,-9.31759 -15.74867,-18.14719 -28.40625,-17.9375 z" style="color: rgb(0, 0, 0); fill: rgb(7, 218, 200); fill-opacity: 1; fill-rule: nonzero; stroke: none; stroke-width: 0; marker: none; visibility: visible; display: inline; overflow: visible;"/>
            </g>
          </g>
          <g transform="matrix(-0.72014754,0.00508241,0.00464401,0.65802846,700.82904,-20.834794)" id="g25197">
            <g id="g25199" transform="matrix(0.93566362,0,0,0.93566362,29.210488,-4.935018)">
              <path style="color: rgb(0, 0, 0); fill: rgb(16, 130, 121); fill-opacity: 1; fill-rule: nonzero; stroke: rgb(18, 18, 18); stroke-width: 10; stroke-linejoin: round; stroke-opacity: 1; marker: none; visibility: visible; display: inline; overflow: visible;" d="m 75.96875,-616.03125 c -1.389479,0.11662 -2.823741,0.66819 -4.09375,1.84375 -4.085284,3.10201 -4.784457,11.73528 -4.75,20.71875 -0.397596,7.18824 5.71476,13.49149 5.815077,19.0869 0.09079,5.06423 -4.678949,28.61947 -4.376376,36.5524 0.676445,17.7352 6.671114,0.70995 5.826145,-12.27319 -0.103107,-1.58427 -4.384828,-4.98724 -3.171702,-8.31331 1.687937,-4.62788 3.330227,0.23609 5.999448,0.0459 4.022691,-0.28661 -2.595035,1.76913 -1.915452,5.4817 1.825774,9.97424 10.807132,31.04706 9.666522,14.22452 -0.759588,-11.20295 -3.073358,-37.95266 -2.999912,-38.52368 0.05502,-0.42776 -0.233246,-2.68142 -0.5625,-5.71875 -0.468277,-6.31422 -1.52391,-18.50444 1.1875,-24.96875 0.192457,-0.45884 0.424288,-0.88678 0.65625,-1.28125 0.06985,-0.29396 0.08464,-0.58463 0.09375,-0.875 0.02733,-0.87112 -0.189288,-1.70467 -0.625,-2.46875 -0.01815,-0.0318 -0.04366,-0.0622 -0.0625,-0.0937 -0.153966,-0.25776 -0.333972,-0.51389 -0.53125,-0.75 -0.03138,-0.0392 -0.06136,-0.0864 -0.09375,-0.125 -0.136374,-0.15508 -0.283995,-0.29407 -0.4375,-0.4375 -1.405753,-1.40332 -3.469517,-2.30591 -5.625,-2.125 z" transform="matrix(-0.39228827,0.0185532,0.01695283,0.429321,492.00535,187.99099)" id="path25201" inkscape:connector-curvature="0" sodipodi:nodetypes="cccsssssssscscscccccsc"/>
              <path sodipodi:nodetypes="cssssscc" transform="matrix(0.26458336,0,0,0.26458336,320.08182,94.083721)" inkscape:connector-curvature="0" id="path25203" d="m 487.34239,-627.66361 c 8.11305,13.70825 3.54131,49.37851 3.91665,51.75565 0.17975,1.13844 -1.90407,72.25925 -2.30843,79.07175 -0.77713,13.09312 25.81033,11.44767 24.82145,-0.0749 -0.17414,-2.02912 -0.12056,-77.46968 -0.0781,-78.77259 0.51716,-15.83127 -2.01248,-53.65848 -9.84577,-60.93225 -7.83328,-7.27377 -18.46418,1.3988 -16.50586,8.95234 z" style="color: rgb(0, 0, 0); fill: rgb(20, 159, 147); fill-opacity: 1; fill-rule: nonzero; stroke: none; stroke-width: 0; marker: none; visibility: visible; display: inline; overflow: visible;"/>
              <path style="color: rgb(0, 0, 0); fill: rgb(14, 113, 105); fill-opacity: 1; fill-rule: nonzero; stroke: none; stroke-width: 0; marker: none; visibility: visible; display: inline; overflow: visible;" d="m 496.90625,-639.34375 c -5.88643,0.24879 -10.97004,6.2584 -9.5625,11.6875 4.46128,7.53802 5.05945,19.74435 4.78125,29.625 10.53746,-10.41647 15.47349,-8.58522 17.03125,-7.25 1.04684,0.89729 2.66888,7.28683 3.9375,13.0625 -0.11192,-15.15022 -3.12178,-38.71576 -9.25,-44.40625 -2.20311,-2.04575 -4.63411,-2.8161 -6.9375,-2.71875 z" transform="matrix(0.26458336,0,0,0.26458336,320.08182,94.083721)" id="path25205" inkscape:connector-curvature="0"/>
              <path style="color: rgb(0, 0, 0); fill: rgb(17, 133, 123); fill-opacity: 1; fill-rule: nonzero; stroke: none; stroke-width: 0; marker: none; visibility: visible; display: inline; overflow: visible;" d="m 79.53125,-615.8125 c -1.392785,0.0664 -2.844604,0.58983 -4.15625,1.71875 -2.188764,1.88384 -3.724371,7.0504 -4.75,13.125 5.100452,3.10631 10.232246,10.90061 10.5,19.46875 0.279761,8.95233 -0.836336,33.83333 -5.3125,31.875 -4.476164,-1.95832 -5.87798,-13.40486 -6.4375,-30.75 -0.04527,-1.40339 -0.156494,-2.33471 -0.34375,-2.90625 -0.06999,2.55462 -0.07792,4.93028 0,6.75 0.0343,0.80199 0.389771,47.25296 0.28125,48.5031 -0.616255,7.09907 17.299285,7.99515 16.71875,-0.0625 -0.302066,-4.19249 -2.022422,-47.98882 -1.90625,-48.6906 0.242581,-1.46537 -2.969636,-23.39634 2.4375,-31.875 0.965044,-3.49498 -2.852895,-7.3553 -7.03125,-7.15625 z" transform="matrix(-0.39264463,0.00303267,0.00277107,0.429711,484.69426,189.29872)" id="path25207" inkscape:connector-curvature="0" sodipodi:nodetypes="cscsssccssscc"/>
            </g>
            <g id="g25209" transform="matrix(0.76312517,0,0,0.93238452,105.90121,-4.4118137)">
              <path sodipodi:nodetypes="csssssc" transform="matrix(0.26458336,0,0,0.26458336,320.08182,94.083721)" inkscape:connector-curvature="0" id="path25211" d="m 492.9376,-641.93139 c -21.54154,12.0297 -7.55352,63.78535 -6.15472,65.18415 0.88317,0.88317 0.28781,-4.17167 5.2225,-15.16004 9.56962,-21.30927 -9.01683,-0.36763 -8.09591,-2.52645 1.94186,-4.55209 -0.63853,-31.12767 4.65576,-32.47143 14.49231,-3.67833 33.66744,4.86274 25.6149,-10.42833 -4.41388,-8.38159 -19.28421,-5.9967 -21.24253,-4.5979 z" style="color: rgb(0, 0, 0); fill: rgb(16, 130, 121); fill-opacity: 1; fill-rule: nonzero; stroke: rgb(18, 18, 18); stroke-width: 15.499; stroke-linecap: round; stroke-linejoin: round; stroke-miterlimit: 4; stroke-opacity: 1; stroke-dasharray: none; stroke-dashoffset: 37.6; marker: none; visibility: visible; display: inline; overflow: visible;"/>
              <path style="color: rgb(0, 0, 0); fill: rgb(23, 183, 170); fill-opacity: 1; fill-rule: nonzero; stroke: none; stroke-width: 0; marker: none; visibility: visible; display: inline; overflow: visible;" d="m 492.9376,-641.93139 c -21.54154,12.0297 -7.55353,63.78535 -6.15472,65.18415 1.3988,1.3988 5.76414,-23.5743 16.50585,-39.4462 6.24308,-9.22474 17.34514,-16.2261 9.79161,-22.94034 -7.55353,-6.71425 -18.18442,-4.19641 -20.14274,-2.79761 z" id="path25213" inkscape:connector-curvature="0" transform="matrix(0.26458336,0,0,0.26458336,320.08182,94.083721)" sodipodi:nodetypes="csssc"/>
              <path inkscape:connector-curvature="0" style="color: rgb(0, 0, 0); fill: rgb(7, 218, 200); fill-opacity: 1; fill-rule: nonzero; stroke: none; stroke-width: 0; marker: none; visibility: visible; display: inline; overflow: visible;" d="m 495.9375,-640.78125 c -2.93552,-0.0326 -5.31528,0.87914 -6.0625,1.53125 -5.86646,4.00271 -8.27687,12.72403 -8.90625,22.34375 1.6691,-9.32843 4.76047,-17.06391 12.25,-17.46875 10.35113,-0.55952 8.9375,8.39139 8.9375,11.46875 0,0.2885 0.0872,0.53011 0.1875,0.75 3.86472,-5.39554 7.01938,-10.00172 2.90625,-14.46875 -2.88214,-3.13013 -6.37698,-4.12364 -9.3125,-4.15625 z" transform="matrix(0.3467103,0,0,0.28377064,280.66249,105.63832)" id="path25215"/>
              <path inkscape:connector-curvature="0" style="color: rgb(0, 0, 0); fill: rgb(17, 133, 123); fill-opacity: 1; fill-rule: nonzero; stroke: none; stroke-width: 0; marker: none; visibility: visible; display: inline; overflow: visible;" d="m 504.40625,-625.15625 c -1.07195,0.70005 -2.42657,1.69968 -4.1875,3.09375 -6.71425,5.31545 -10.35716,17.63245 -12.875,19.03125 -1.64207,0.91226 -4.59946,-1.75823 -6.53125,-5.8125 0.34492,15.00528 3.76201,29.66424 4.34375,30.375 1.06746,1.30422 4.42773,-21.98254 12.625,-36.78125 2.00632,-3.62205 4.64365,-6.88464 6.625,-9.90625 z" transform="matrix(0.3467103,0,0,0.28377064,280.66249,105.63832)" id="path25217"/>
            </g>
          </g>
        </g>
        <g transform="matrix(0.77063971,0,0,0.88331615,46.417768,2.4349309)" id="g24739">
          <path style="color: rgb(0, 0, 0); fill: rgb(10, 77, 71); fill-opacity: 1; fill-rule: nonzero; stroke: rgb(18, 18, 18); stroke-width: 12.1204; stroke-linecap: round; stroke-linejoin: round; stroke-miterlimit: 4; stroke-opacity: 1; stroke-dasharray: none; stroke-dashoffset: 37.6; marker: none; visibility: visible; display: inline; overflow: visible;" d="m 302.07173,-617.16186 c -1.97821,16.41909 4.54987,47.47689 6.92372,46.68561 1.44636,-0.48212 5.68339,-12.56751 9.04194,-24.53284 2.15366,-7.67274 1.40494,-27.24991 -10.83714,-10.98937 -2.17319,2.88653 7.24668,-11.99149 7.3358,-14.03936 0.23827,-5.47516 -7.82601,-10.44325 -10.2883,-7.4107 -2.14925,2.64701 -1.18692,5.14333 -2.17602,10.28666 z" id="path24741" inkscape:connector-curvature="0" transform="matrix(0.26458336,0,0,0.26458336,320.08182,94.083721)" sodipodi:nodetypes="csssssc"/>
          <path sodipodi:nodetypes="cssssc" transform="matrix(0.26458336,0,0,0.26458336,320.08182,94.083721)" inkscape:connector-curvature="0" id="path24743" d="m 302.07173,-617.16186 c -1.97821,16.41909 4.54987,47.47689 6.92372,46.68561 2.37384,-0.79128 12.26486,-32.83819 13.45178,-44.31177 0.36771,-3.55458 0.56942,-8.29788 -0.28769,-10.17195 -1.9095,-4.17511 -17.16369,-4.48349 -17.91179,-2.48855 -1.18692,3.16512 -1.18692,5.14333 -2.17602,10.28666 z" style="color: rgb(0, 0, 0); fill: rgb(20, 159, 147); fill-opacity: 1; fill-rule: nonzero; stroke: none; stroke-width: 0; marker: none; visibility: visible; display: inline; overflow: visible;"/>
          <path inkscape:connector-curvature="0" id="path24745" transform="matrix(0.26458336,0,0,0.26458336,320.08182,94.083721)" d="m 322.6875,-617.96875 c -0.0124,0.0794 -0.019,0.13754 -0.0312,0.21875 -0.9891,6.52807 -8.51235,28.67602 -12.46875,26.5 -3.46186,-1.90403 -7.22285,-13.03913 -8.375,-22.15625 -0.76152,16.9692 4.98432,43.67189 7.1875,42.9375 2.37384,-0.79128 12.25058,-32.83892 13.4375,-44.3125 0.10291,-0.99485 0.19267,-2.09539 0.25,-3.1875 z" style="color: rgb(0, 0, 0); fill: rgb(17, 133, 123); fill-opacity: 1; fill-rule: nonzero; stroke: none; stroke-width: 0; marker: none; visibility: visible; display: inline; overflow: visible;"/>
          <path inkscape:connector-curvature="0" id="path24747" transform="matrix(0.26458336,0,0,0.26458336,320.08182,94.083721)" d="m 309.75,-628.625 c -2.89168,0.0178 -5.21946,0.4394 -5.5,1.1875 -1.18692,3.16512 -1.1984,5.13792 -2.1875,10.28125 -0.66134,5.48909 -0.36076,12.60071 0.40625,19.625 0.1512,-10.77994 1.99306,-24.00187 6.125,-25.75 5.14333,-2.17603 10.68836,-0.8099 12.46875,4.53125 0.71257,2.13772 0.68208,5.99586 0.40625,9.84375 0.45978,-2.25852 0.8033,-4.27562 0.96875,-5.875 0.36771,-3.55458 0.57586,-8.31343 -0.28125,-10.1875 -1.19344,-2.60944 -7.58678,-3.686 -12.40625,-3.65625 z" style="color: rgb(0, 0, 0); fill: rgb(7, 218, 200); fill-opacity: 1; fill-rule: nonzero; stroke: none; stroke-width: 0; marker: none; visibility: visible; display: inline; overflow: visible;"/>
        </g>
        <g transform="matrix(0.56233657,-0.00896901,0.00896901,0.56233657,137.7851,-13.868791)" id="g24867">
          <path transform="matrix(0.26458336,0,0,0.26458336,320.08182,94.083721)" inkscape:connector-curvature="0" id="path24869" d="m 304.32861,-610.51646 c -9.09082,31.88448 5.69819,40.96402 6.05158,40.04021 0.77225,-2.01877 11.53831,21.85201 10.68167,8.90416 -0.47235,-7.13942 -0.6334,-18.08097 -1.1863,-27.89492 -0.79129,-14.04525 13.15076,-41.58222 11.37037,-44.74735 -1.78038,-3.16513 -8.28773,0.47981 -10.90573,0.9157 -10.16729,1.69284 -16.01159,22.7822 -16.01159,22.7822 z" style="color: rgb(0, 0, 0); fill: rgb(20, 159, 147); fill-opacity: 1; fill-rule: nonzero; stroke: rgb(18, 18, 18); stroke-width: 17.7807; stroke-linejoin: round; stroke-opacity: 1; marker: none; visibility: visible; display: inline; overflow: visible;" sodipodi:nodetypes="csssssc"/>
          <path style="color: rgb(0, 0, 0); fill: rgb(20, 159, 147); fill-opacity: 1; fill-rule: nonzero; stroke: none; stroke-width: 0; marker: none; visibility: visible; display: inline; overflow: visible;" d="m 299.50006,-556.23318 c 2.5019,0.62694 5.7368,6.13243 12.26487,5.73679 6.52807,-0.39564 8.50628,-2.96731 9.09974,-3.75859 0.59346,-0.79128 -0.19782,-21.16678 -0.98911,-35.21203 -0.79128,-14.04525 14.81306,-40.67414 13.03267,-43.83927 -1.78038,-3.16513 -11.3313,-2.93601 -16.89518,0.84414 -16.84382,11.44383 -19.05381,75.59227 -16.51299,76.22896 z" id="path24871" inkscape:connector-curvature="0" transform="matrix(0.26458336,0,0,0.26458336,320.08182,94.083721)" sodipodi:nodetypes="sssssss"/>
          <path style="color: rgb(0, 0, 0); fill: rgb(17, 133, 123); fill-opacity: 1; fill-rule: nonzero; stroke: none; stroke-width: 0; marker: none; visibility: visible; display: inline; overflow: visible;" d="m 151.96875,-552.1875 c -0.0276,0.0643 -0.0664,0.1233 -0.0937,0.1875 -0.48634,10.54528 -0.54071,18.55271 0.33372,20.85378 0,6.34893 14.54197,4.30095 12.85378,-0.82253 0.0162,-0.0265 0.0266,-0.12541 0.0312,-0.21875 9.5e-4,-0.0238 -3.5e-4,-0.0664 0,-0.0937 -1e-5,-0.0852 0.005,-0.22833 0,-0.34375 -0.004,-0.0852 -0.025,-0.24398 -0.0312,-0.34375 -0.0203,-0.28423 -0.0559,-0.77236 -0.0937,-1.15625 -0.0293,-0.3033 -0.0868,-0.83417 -0.125,-1.1875 -0.0209,-0.18387 -0.0708,-0.49228 -0.0937,-0.6875 -0.21549,-1.83546 -0.51224,-4.02825 -0.84375,-6.46875 -0.0214,1.83845 -1.61229,8.23985 -6.8125,5.34375 -5.02017,-2.79583 -4.66682,-9.90566 -5.125,-15.0625 z" transform="matrix(0.468322,0.04466706,-0.04466706,0.468322,303.91852,189.19391)" id="path24873" inkscape:connector-curvature="0" sodipodi:nodetypes="ccccccccccscsc"/>
        </g>
        <g transform="matrix(-0.5481492,-0.03958117,-0.04418868,0.6119575,610.50765,5.6031491)" id="g25410">
          <path style="color: rgb(0, 0, 0); fill: rgb(16, 130, 121); fill-opacity: 1; fill-rule: nonzero; stroke: rgb(18, 18, 18); stroke-width: 9; stroke-linecap: round; stroke-linejoin: round; stroke-miterlimit: 4; stroke-opacity: 1; stroke-dasharray: none; stroke-dashoffset: 37.6; marker: none; visibility: visible; display: inline; overflow: visible;" d="m 170.46875,-579.96875 c -2.11385,0.0364 6.48093,16.49202 4.78267,14.11154 -6.91968,-9.69942 -9.44108,-2.93453 -5.97017,2.70096 2.23445,3.62793 3.98929,8.03615 5.34375,12.09375 0.003,0.009 -0.003,0.0221 0,0.0312 0.15352,0.49977 0.29294,1.01157 0.46875,1.5 1.72279,5.42512 2.74196,9.91702 3.25,10.46875 0.05,0.0837 0.11485,0.11351 0.1875,0.0312 0.76267,-0.86364 8.20302,-32.67165 -3.6875,-39.96875 -0.0338,-0.0266 -0.0555,-0.0417 -0.0937,-0.0312 -0.60224,-0.42047 -2.24195,-0.97259 -4.28125,-0.9375 z" transform="matrix(-0.48141945,0.00304333,0.0033976,0.43122225,536.64993,173.38287)" id="path25412" inkscape:connector-curvature="0" sodipodi:nodetypes="csscccccccsc"/>
          <path sodipodi:nodetypes="csssc" transform="matrix(0.26458336,0,0,0.26458336,320.08182,94.083721)" inkscape:connector-curvature="0" id="path25414" d="m 492.9376,-641.93139 c -21.54154,12.0297 -7.55353,63.78535 -6.15472,65.18415 1.3988,1.3988 5.76414,-23.5743 16.50585,-39.4462 6.24308,-9.22474 17.34514,-16.2261 9.79161,-22.94034 -7.55353,-6.71425 -18.18442,-4.19641 -20.14274,-2.79761 z" style="color: rgb(0, 0, 0); fill: rgb(23, 183, 170); fill-opacity: 1; fill-rule: nonzero; stroke: none; stroke-width: 0; marker: none; visibility: visible; display: inline; overflow: visible;"/>
          <path id="path25416" transform="matrix(0.3467103,0,0,0.28377064,280.66249,105.63832)" d="m 495.9375,-640.78125 c -2.93552,-0.0326 -5.31528,0.87914 -6.0625,1.53125 -5.86646,4.00271 -8.27687,12.72403 -8.90625,22.34375 1.6691,-9.32843 4.76047,-17.06391 12.25,-17.46875 10.35113,-0.55952 8.9375,8.39139 8.9375,11.46875 0,0.2885 0.0872,0.53011 0.1875,0.75 3.86472,-5.39554 7.01938,-10.00172 2.90625,-14.46875 -2.88214,-3.13013 -6.37698,-4.12364 -9.3125,-4.15625 z" style="color: rgb(0, 0, 0); fill: rgb(7, 218, 200); fill-opacity: 1; fill-rule: nonzero; stroke: none; stroke-width: 0; marker: none; visibility: visible; display: inline; overflow: visible;" inkscape:connector-curvature="0"/>
          <path id="path25418" transform="matrix(0.3467103,0,0,0.28377064,280.66249,105.63832)" d="m 504.40625,-625.15625 c -1.07195,0.70005 -2.42657,1.69968 -4.1875,3.09375 -6.71425,5.31545 -10.35716,17.63245 -12.875,19.03125 -1.64207,0.91226 -4.59946,-1.75823 -6.53125,-5.8125 0.34492,15.00528 3.76201,29.66424 4.34375,30.375 1.06746,1.30422 4.42773,-21.98254 12.625,-36.78125 2.00632,-3.62205 4.64365,-6.88464 6.625,-9.90625 z" style="color: rgb(0, 0, 0); fill: rgb(17, 133, 123); fill-opacity: 1; fill-rule: nonzero; stroke: none; stroke-width: 0; marker: none; visibility: visible; display: inline; overflow: visible;" inkscape:connector-curvature="0"/>
        </g>
      </g>
    </g>
  </g>
</svg>