<?xml version="1.0" encoding="UTF-8" standalone="no"?><!-- Created with Inkscape (http://www.inkscape.org/) --><svg xmlns:dc="http://purl.org/dc/elements/1.1/" xmlns:cc="http://creativecommons.org/ns#" xmlns:rdf="http://www.w3.org/1999/02/22-rdf-syntax-ns#" xmlns:svg="http://www.w3.org/2000/svg" xmlns="http://www.w3.org/2000/svg" xmlns:sodipodi="http://sodipodi.sourceforge.net/DTD/sodipodi-0.dtd" xmlns:inkscape="http://www.inkscape.org/namespaces/inkscape" width="78.766144" height="72.050926" viewBox="0 0 20.840206 19.063471" version="1.1" id="svg23489" inkscape:version="0.48.5 r10040" sodipodi:docname="tulip_flower_head.svg">
  <defs id="defs23483">
    <clipPath clipPathUnits="userSpaceOnUse" id="clipPath22932">
      <path style="opacity: 0.39823; color: rgb(0, 0, 0); fill: none; fill-opacity: 1; fill-rule: nonzero; stroke: none; stroke-width: 0; marker: none; visibility: visible; display: inline; overflow: visible;" d="m 544.30169,181.88988 c 0.28587,0.59217 2.59866,1.15837 3.74216,0.1578 0.98015,2.77708 16.86469,0 16.86469,0 l 0,-16.17162 -30.55281,0 0,15.42079 c 0,0 6.65838,3.49263 9.94596,0.59303 z" id="path22934" inkscape:connector-curvature="0" sodipodi:nodetypes="ccccccc"/>
    </clipPath>
    <clipPath clipPathUnits="userSpaceOnUse" id="clipPath22874">
      <path style="opacity: 0.39823; color: rgb(0, 0, 0); fill: none; fill-opacity: 1; fill-rule: nonzero; stroke: none; stroke-width: 0; marker: none; visibility: visible; display: inline; overflow: visible;" d="m 507.96393,172.04108 c 5.63585,4.14521 4.40861,7.03756 4.24526,7.42553 -0.16336,0.38797 -0.45419,0.84609 -0.55527,0.75946 0,0 -0.23077,1.39392 -0.96715,1.52387 0,0 0.7281,2.05291 -3.23333,2.91054 -3.96143,0.85763 -12.08849,-2.45037 -11.76178,-7.80034 0.32672,-5.34998 9.00511,-7.35111 12.27227,-4.81906 z" id="path22876" inkscape:connector-curvature="0" sodipodi:nodetypes="csccssc"/>
    </clipPath>
    <clipPath clipPathUnits="userSpaceOnUse" id="clipPath22894">
      <path style="opacity: 0.39823; color: rgb(0, 0, 0); fill: none; fill-opacity: 1; fill-rule: nonzero; stroke: none; stroke-width: 0; marker: none; visibility: visible; display: inline; overflow: visible;" d="m 519.13353,181.84256 c 1.53,1.07862 2.21773,-0.85703 2.00114,-1.06183 0.0817,0.0408 1.9603,0.65343 4.32899,-2.85877 2.36869,-3.51219 0,-9.96483 -8.00455,-11.96597 -8.00454,-2.00113 -11.2717,3.47136 -11.47589,10.16904 -0.2042,6.69767 5.75836,9.27056 9.76064,9.7198 4.00227,0.44923 3.38967,-4.00227 3.38967,-4.00227 z" id="path22896" inkscape:connector-curvature="0" sodipodi:nodetypes="ccssssc"/>
    </clipPath>
    <clipPath clipPathUnits="userSpaceOnUse" id="clipPath23263">
      <path style="opacity: 0.39823; color: rgb(0, 0, 0); fill: none; fill-opacity: 1; fill-rule: nonzero; stroke: none; stroke-width: 0; marker: none; visibility: visible; display: inline; overflow: visible;" d="m 507.96393,172.04108 c 5.63585,4.14521 4.40861,7.03756 4.24526,7.42553 -0.16336,0.38797 -0.45419,0.84609 -0.55527,0.75946 0,0 -0.23077,1.39392 -0.96715,1.52387 0,0 0.7281,2.05291 -3.23333,2.91054 -3.96143,0.85763 -12.08849,-2.45037 -11.76178,-7.80034 0.32672,-5.34998 9.00511,-7.35111 12.27227,-4.81906 z" id="path23265" inkscape:connector-curvature="0" sodipodi:nodetypes="csccssc"/>
    </clipPath>
    <clipPath clipPathUnits="userSpaceOnUse" id="clipPath22907">
      <path style="opacity: 0.39823; color: rgb(0, 0, 0); fill: none; fill-opacity: 1; fill-rule: nonzero; stroke: none; stroke-width: 0; marker: none; visibility: visible; display: inline; overflow: visible;" d="m 525.58617,181.98549 c 0.89522,0.98185 2.40724,0.64233 3.04255,0.12252 0.16124,0.72559 12.13955,0.23486 11.90471,0 -0.23482,-0.23483 4.09811,-23.83249 0,-26.19853 -4.09811,-2.36605 -15.11061,0 -21.31822,0 -6.2076,0 -9.48879,8.76153 -8.08444,14.00265 1.40436,5.24112 4.81751,7.15803 7.00687,9.97898 2.18936,2.82095 7.44853,2.09438 7.44853,2.09438 z" id="path22909" inkscape:connector-curvature="0" sodipodi:nodetypes="ccsssssc"/>
    </clipPath>
    <clipPath clipPathUnits="userSpaceOnUse" id="clipPath23269">
      <path style="opacity: 0.39823; color: rgb(0, 0, 0); fill: none; fill-opacity: 1; fill-rule: nonzero; stroke: none; stroke-width: 0; marker: none; visibility: visible; display: inline; overflow: visible;" d="m 525.58617,181.98549 c 0.89522,0.98185 2.40724,0.64233 3.04255,0.12252 0.16124,0.72559 12.13955,0.23486 11.90471,0 -0.23482,-0.23483 4.09811,-23.83249 0,-26.19853 -4.09811,-2.36605 -15.11061,0 -21.31822,0 -6.2076,0 -9.48879,8.76153 -8.08444,14.00265 1.40436,5.24112 4.81751,7.15803 7.00687,9.97898 2.18936,2.82095 7.44853,2.09438 7.44853,2.09438 z" id="path23271" inkscape:connector-curvature="0" sodipodi:nodetypes="ccsssssc"/>
    </clipPath>
    <clipPath clipPathUnits="userSpaceOnUse" id="clipPath23273">
      <path style="opacity: 0.39823; color: rgb(0, 0, 0); fill: none; fill-opacity: 1; fill-rule: nonzero; stroke: none; stroke-width: 0; marker: none; visibility: visible; display: inline; overflow: visible;" d="m 507.96393,172.04108 c 5.63585,4.14521 4.40861,7.03756 4.24526,7.42553 -0.16336,0.38797 -0.45419,0.84609 -0.55527,0.75946 0,0 -0.23077,1.39392 -0.96715,1.52387 0,0 0.7281,2.05291 -3.23333,2.91054 -3.96143,0.85763 -12.08849,-2.45037 -11.76178,-7.80034 0.32672,-5.34998 9.00511,-7.35111 12.27227,-4.81906 z" id="path23275" inkscape:connector-curvature="0" sodipodi:nodetypes="csccssc"/>
    </clipPath>
    <clipPath clipPathUnits="userSpaceOnUse" id="clipPath23277">
      <path style="opacity: 0.39823; color: rgb(0, 0, 0); fill: none; fill-opacity: 1; fill-rule: nonzero; stroke: none; stroke-width: 0; marker: none; visibility: visible; display: inline; overflow: visible;" d="m 519.13353,181.84256 c 1.53,1.07862 2.21773,-0.85703 2.00114,-1.06183 0.0817,0.0408 1.9603,0.65343 4.32899,-2.85877 2.36869,-3.51219 0,-9.96483 -8.00455,-11.96597 -8.00454,-2.00113 -11.2717,3.47136 -11.47589,10.16904 -0.2042,6.69767 5.75836,9.27056 9.76064,9.7198 4.00227,0.44923 3.38967,-4.00227 3.38967,-4.00227 z" id="path23279" inkscape:connector-curvature="0" sodipodi:nodetypes="ccssssc"/>
    </clipPath>
    <clipPath clipPathUnits="userSpaceOnUse" id="clipPath23281">
      <path style="opacity: 0.39823; color: rgb(0, 0, 0); fill: none; fill-opacity: 1; fill-rule: nonzero; stroke: none; stroke-width: 0; marker: none; visibility: visible; display: inline; overflow: visible;" d="m 525.58617,181.98549 c 0.89522,0.98185 2.40724,0.64233 3.04255,0.12252 0.16124,0.72559 12.13955,0.23486 11.90471,0 -0.23482,-0.23483 4.09811,-23.83249 0,-26.19853 -4.09811,-2.36605 -15.11061,0 -21.31822,0 -6.2076,0 -9.48879,8.76153 -8.08444,14.00265 1.40436,5.24112 4.81751,7.15803 7.00687,9.97898 2.18936,2.82095 7.44853,2.09438 7.44853,2.09438 z" id="path23283" inkscape:connector-curvature="0" sodipodi:nodetypes="ccsssssc"/>
    </clipPath>
    <clipPath clipPathUnits="userSpaceOnUse" id="clipPath23285">
      <path style="opacity: 0.39823; color: rgb(0, 0, 0); fill: none; fill-opacity: 1; fill-rule: nonzero; stroke: none; stroke-width: 0; marker: none; visibility: visible; display: inline; overflow: visible;" d="m 544.30169,181.88988 c 0.28587,0.59217 2.59866,1.15837 3.74216,0.1578 0.98015,2.77708 16.86469,0 16.86469,0 l 0,-16.17162 -30.55281,0 0,15.42079 c 0,0 6.65838,3.49263 9.94596,0.59303 z" id="path23287" inkscape:connector-curvature="0" sodipodi:nodetypes="ccccccc"/>
    </clipPath>
    <clipPath clipPathUnits="userSpaceOnUse" id="clipPath23289">
      <path style="opacity: 0.39823; color: rgb(0, 0, 0); fill: none; fill-opacity: 1; fill-rule: nonzero; stroke: none; stroke-width: 0; marker: none; visibility: visible; display: inline; overflow: visible;" d="m 507.96393,172.04108 c 5.63585,4.14521 4.40861,7.03756 4.24526,7.42553 -0.16336,0.38797 -0.45419,0.84609 -0.55527,0.75946 0,0 -0.23077,1.39392 -0.96715,1.52387 0,0 0.7281,2.05291 -3.23333,2.91054 -3.96143,0.85763 -12.08849,-2.45037 -11.76178,-7.80034 0.32672,-5.34998 9.00511,-7.35111 12.27227,-4.81906 z" id="path23291" inkscape:connector-curvature="0" sodipodi:nodetypes="csccssc"/>
    </clipPath>
    <clipPath clipPathUnits="userSpaceOnUse" id="clipPath22919">
      <path style="opacity: 0.39823; color: rgb(0, 0, 0); fill: none; fill-opacity: 1; fill-rule: nonzero; stroke: none; stroke-width: 0; marker: none; visibility: visible; display: inline; overflow: visible;" d="m 533.24358,180.67863 c -0.16336,1.16393 0.51049,2.00114 2.00114,1.20477 -1.74256,1.5022 -0.71572,1.26164 1.42124,3.05207 2.13697,1.79043 11.4934,0.98185 12.12872,0.5198 0.63531,-0.46205 8.02805,-6.41089 8.0858,-8.66336 0.0578,-2.25248 -1.90593,-15.01651 -5.19801,-17.78878 -3.29208,-2.77228 -16.4604,-0.57756 -19.75248,-0.0578 -3.29208,0.5198 -10.16501,5.71782 -9.93399,5.77558 0.23102,0.0577 2.83003,15.42079 2.77228,15.65181 -0.0578,0.23102 2.42574,4.15842 2.83003,3.92739 0.40429,-0.23102 3.95121,-3.17246 3.95121,-3.17246 0,0 1.59196,0.89865 1.69406,-0.44906 z" id="path22921" inkscape:connector-curvature="0" sodipodi:nodetypes="ccsssssssscc"/>
    </clipPath>
    <clipPath clipPathUnits="userSpaceOnUse" id="clipPath23295">
      <path style="opacity: 0.39823; color: rgb(0, 0, 0); fill: none; fill-opacity: 1; fill-rule: nonzero; stroke: none; stroke-width: 0; marker: none; visibility: visible; display: inline; overflow: visible;" d="m 525.58617,181.98549 c 0.89522,0.98185 2.40724,0.64233 3.04255,0.12252 0.16124,0.72559 12.13955,0.23486 11.90471,0 -0.23482,-0.23483 4.09811,-23.83249 0,-26.19853 -4.09811,-2.36605 -15.11061,0 -21.31822,0 -6.2076,0 -9.48879,8.76153 -8.08444,14.00265 1.40436,5.24112 4.81751,7.15803 7.00687,9.97898 2.18936,2.82095 7.44853,2.09438 7.44853,2.09438 z" id="path23297" inkscape:connector-curvature="0" sodipodi:nodetypes="ccsssssc"/>
    </clipPath>
    <clipPath clipPathUnits="userSpaceOnUse" id="clipPath23299">
      <path style="opacity: 0.39823; color: rgb(0, 0, 0); fill: none; fill-opacity: 1; fill-rule: nonzero; stroke: none; stroke-width: 0; marker: none; visibility: visible; display: inline; overflow: visible;" d="m 525.58617,181.98549 c 0.89522,0.98185 2.40724,0.64233 3.04255,0.12252 0.16124,0.72559 12.13955,0.23486 11.90471,0 -0.23482,-0.23483 4.09811,-23.83249 0,-26.19853 -4.09811,-2.36605 -15.11061,0 -21.31822,0 -6.2076,0 -9.48879,8.76153 -8.08444,14.00265 1.40436,5.24112 4.81751,7.15803 7.00687,9.97898 2.18936,2.82095 7.44853,2.09438 7.44853,2.09438 z" id="path23301" inkscape:connector-curvature="0" sodipodi:nodetypes="ccsssssc"/>
    </clipPath>
  </defs>
  <sodipodi:namedview id="base" pagecolor="#7d848b" bordercolor="#666666" borderopacity="1.0" inkscape:pageopacity="0" inkscape:pageshadow="2" inkscape:zoom="1.7872445" inkscape:cx="-12.739083" inkscape:cy="130.06918" inkscape:document-units="px" inkscape:current-layer="layer1" showgrid="false" inkscape:pagecheckerboard="false" showborder="true" units="px" inkscape:window-width="1920" inkscape:window-height="1017" inkscape:window-x="-8" inkscape:window-y="-8" inkscape:window-maximized="1" inkscape:showpageshadow="false" guidetolerance="28" fit-margin-top="8" fit-margin-left="8" fit-margin-right="8" fit-margin-bottom="8">
    <inkscape:grid type="xygrid" id="grid24034" spacingx="1px" spacingy="1px" empspacing="8" visible="true" enabled="true" snapvisiblegridlinesonly="true" originx="-310.55883px" originy="530.43361px"/>
  </sodipodi:namedview>
  <metadata id="metadata23486">
    <rdf:RDF>
      <cc:Work rdf:about="">
        <dc:format>image/svg+xml</dc:format>
        <dc:type rdf:resource="http://purl.org/dc/dcmitype/StillImage"/>
        <dc:title/>
        <cc:license rdf:resource=""/>
        <dc:creator>
          <cc:Agent>
            <dc:title>Robert Brooks</dc:title>
          </cc:Agent>
        </dc:creator>
      </cc:Work>
    </rdf:RDF>
  </metadata>
  <g inkscape:label="Layer 1" inkscape:groupmode="layer" id="layer1" transform="translate(-82.168668,-418.28037)">
    <g id="g11265" transform="matrix(0.8323035,0,0,0.8323035,90.783284,571.01073)">
      <g transform="matrix(0.74392633,0,0,0.74392633,57.124678,-80.627017)" id="g11142">
        <path id="path11124" transform="matrix(0.26458336,0,0,0.26458336,320.74587,93.324808)" d="m -1509.5312,-852.6875 c -5.0322,-0.0359 -10.1324,1.514 -14.0938,5 -12.6763,11.1552 -14.7025,27.90024 -9.125,39.5625 2.8966,6.05661 7.7003,8.54623 12.4375,9.125 5.8179,2.7834 12.6859,1.43547 16.4063,-0.59375 5.5776,-3.04233 15.7389,-10.64116 18.7812,-16.21875 3.0423,-5.5776 0,-15.71875 0,-15.71875 2.1582,-10.48252 -5.9899,-17.77231 -15.5625,-19.375 -2.7432,-1.12669 -5.7766,-1.75937 -8.8437,-1.78125 z" style="color: rgb(0, 0, 0); fill: none; fill-opacity: 1; fill-rule: nonzero; stroke: rgb(16, 40, 41); stroke-width: 12.9205; stroke-linecap: round; stroke-linejoin: round; stroke-miterlimit: 4; stroke-opacity: 1; stroke-dasharray: none; stroke-dashoffset: 37.6; marker: none; visibility: visible; display: inline; overflow: visible;" inkscape:connector-curvature="0"/>
        <g id="g11148">
          <path inkscape:connector-curvature="0" id="path11156" d="m -73.524419,-127.06458 c 0.939112,-4.56137 -5.500477,-6.84206 -8.854441,-3.89058 -3.353938,2.95148 -3.890566,7.37869 -2.414852,10.46433 1.47574,3.08563 4.829704,2.68316 6.305444,1.87821 1.475741,-0.80495 4.158907,-2.81732 4.963849,-4.29306 0.804942,-1.47574 0,-4.1589 0,-4.1589 z" style="color: rgb(0, 0, 0); fill: rgb(255, 255, 255); fill-opacity: 1; fill-rule: nonzero; stroke: none; stroke-width: 0; marker: none; visibility: visible; display: inline; overflow: visible;"/>
          <path sodipodi:nodetypes="cssssc" transform="matrix(0.26458336,0,0,0.26458336,320.08182,94.083721)" style="color: rgb(0, 0, 0); fill: rgb(197, 247, 250); fill-opacity: 1; fill-rule: nonzero; stroke: none; stroke-width: 0; marker: none; visibility: visible; display: inline; overflow: visible;" d="m -1482.6259,-834.40183 c 3.5494,-17.23983 -23.199,-25.85975 -35.8754,-14.70456 -12.6763,11.15519 -12.2947,27.88797 -6.7172,39.55021 5.5776,11.66224 18.254,10.14108 23.8316,7.09876 5.5776,-3.04233 15.7187,-10.64814 18.761,-16.22573 3.0423,-5.5776 0,-15.71868 0,-15.71868 z" id="path11126" inkscape:connector-curvature="0"/>
        </g>
        <g id="g11151">
          <path sodipodi:nodetypes="scccsccs" id="path11153" transform="matrix(0.26458336,0,0,0.26458336,320.74587,93.324808)" d="m -1490.5,-839.6875 c -31.7014,0.84722 -33.5905,31.39562 -18.9688,39.84375 1.0474,0.60513 2.1576,1.0118 3.2813,1.28125 0.8527,-0.30188 7.8751,4.15469 8.5468,3.78833 5.5776,-3.04233 9.4734,-15.46074 12.5157,-21.03833 3.0423,-5.5776 0,-15.71875 0,-15.71875 0.6077,-2.95155 0.36,-5.641 -0.4688,-8.03125 -1.7099,-0.1088 -3.343,-0.16678 -4.9062,-0.125 z" style="color: rgb(0, 0, 0); fill: rgb(134, 205, 209); fill-opacity: 1; fill-rule: nonzero; stroke: none; stroke-width: 0; marker: none; visibility: visible; display: inline; overflow: visible;" inkscape:connector-curvature="0"/>
        </g>
      </g>
      <g transform="matrix(0.65466764,0,0,0.65466764,50.29194,-92.531437)" id="g11170">
        <path style="color: rgb(0, 0, 0); fill: rgb(255, 255, 255); fill-opacity: 1; fill-rule: nonzero; stroke: rgb(16, 40, 41); stroke-width: 14.6821; stroke-linecap: round; stroke-linejoin: round; stroke-miterlimit: 4; stroke-opacity: 1; stroke-dasharray: none; stroke-dashoffset: 37.6; marker: none; visibility: visible; display: inline; overflow: visible;" d="m -1499.7784,-831.40402 c -7.8879,-27.24914 22.5881,-32.26872 40.5152,-22.94665 17.9271,9.32208 25.815,39.79809 20.0783,47.686 -5.7366,7.88791 -24.0223,14.34165 -36.2127,0.71708 -12.1904,-13.62457 -24.3808,-25.45643 -24.3808,-25.45643 z" id="path11166" inkscape:connector-curvature="0" transform="matrix(0.26458336,0,0,0.26458336,320.08182,94.083721)"/>
        <path transform="matrix(0.26458336,0,0,0.26458336,320.08182,94.083721)" inkscape:connector-curvature="0" id="path11168" d="m -1499.7784,-831.40402 c -7.8879,-27.24914 22.5881,-32.26872 40.5152,-22.94665 17.9271,9.32208 25.815,39.79809 20.0783,47.686 -5.7366,7.88791 -24.0223,14.34165 -36.2127,0.71708 -12.1904,-13.62457 -24.3808,-25.45643 -24.3808,-25.45643 z" style="color: rgb(0, 0, 0); fill: rgb(197, 247, 250); fill-opacity: 1; fill-rule: nonzero; stroke: none; stroke-width: 0; marker: none; visibility: visible; display: inline; overflow: visible;"/>
        <path sodipodi:nodetypes="sccscss" id="path11190" transform="matrix(0.30065718,0,0,0.30065718,374.91395,124.23281)" d="m -1483.2188,-855.90625 c -12.5831,0.24912 -23.7722,7.48271 -19,23.96875 0,0 0.6942,0.67196 1.2813,1.25 -1.5774,-9.70214 -0.9115,-25.97602 29.3131,-20.33408 4.51,0.84186 10.228,4.2676 13.8432,6.24033 -2.5137,-3.02979 -5.4501,-5.61155 -8.7813,-7.34375 -4.93,-2.56362 -10.9366,-3.89449 -16.6563,-3.78125 z" style="color: rgb(0, 0, 0); fill: rgb(255, 255, 255); fill-opacity: 1; fill-rule: nonzero; stroke: none; stroke-width: 0; marker: none; visibility: visible; display: inline; overflow: visible;" inkscape:connector-curvature="0"/>
        <path id="path11195" transform="matrix(0.30065718,0,0,0.30065718,374.91395,124.23281)" d="m -1486.3125,-841.625 c -6.9291,0.0322 -12.9317,2.60243 -16.5,7.125 0.1665,0.83228 0.3375,1.67725 0.5937,2.5625 0,0 10.741,10.4164 21.4688,22.40625 2.5639,2.86555 5.4223,4.71025 8.375,5.78125 10.1698,-9.07247 16.258,-25.43282 3.4375,-32.9375 -5.847,-3.42262 -11.894,-4.96299 -17.375,-4.9375 z" style="color: rgb(0, 0, 0); fill: rgb(134, 205, 209); fill-opacity: 1; fill-rule: nonzero; stroke: none; stroke-width: 0; marker: none; visibility: visible; display: inline; overflow: visible;" inkscape:connector-curvature="0"/>
      </g>
      <g transform="matrix(0.74392633,0,0,0.74392633,57.618681,-81.191592)" id="g11183">
        <path style="color: rgb(0, 0, 0); fill: rgb(197, 247, 250); fill-opacity: 1; fill-rule: nonzero; stroke: rgb(16, 40, 41); stroke-width: 9.61188; stroke-linejoin: round; stroke-miterlimit: 4; stroke-opacity: 1; stroke-dasharray: none; marker: none; visibility: visible; display: inline; overflow: visible;" d="m -1447.2812,-882.46875 c -5.5636,-0.0308 -10.4269,23.78436 -16.375,2.21875 -1.9971,-7.24081 -13.3438,6.71268 -13.3438,6.71268 -13.643,-2.05933 -22.5605,0.79026 -22.6875,6.06857 -6e-4,0.0103 5e-4,0.021 0,0.0312 -2e-4,0.01 10e-5,0.0213 0,0.0312 -0.01,0.16575 0.016,0.34307 0.031,0.5 0.2695,2.69561 1.4872,6.1419 5.2812,9.0625 0.011,0.0105 0.021,0.0208 0.031,0.0312 15.6164,15.45272 56.0366,8.89599 57.2813,-13.625 l -1.25,-8.53125 c -1.0323,-1.78793 -4.6415,-2.47606 -8.9687,-2.5 z" transform="matrix(0.35565801,0,0,0.35565801,448.1915,190.21199)" id="path11181" inkscape:connector-curvature="0" sodipodi:nodetypes="cscccccccccsc"/>
        <path style="color: rgb(0, 0, 0); fill: rgb(197, 247, 250); fill-opacity: 1; fill-rule: nonzero; stroke: none; stroke-width: 0; marker: none; visibility: visible; display: inline; overflow: visible;" d="m -1501.2125,-816.34529 c -19.0027,-2.86833 -31.1931,7.17083 -30.4761,14.34166 10.4051,38.83243 97.564,27.34134 82.4646,-17.56853 -3.1716,-5.49341 -24.3809,-3.22687 -34.0615,-0.35854 -9.6806,2.86833 -17.927,3.58541 -17.927,3.58541 z" id="path11174" inkscape:connector-curvature="0" transform="matrix(0.26458336,0,0,0.26458336,320.08182,94.083721)" sodipodi:nodetypes="cccsc"/>
        <path sodipodi:nodetypes="csccsc" inkscape:connector-curvature="0" id="path11200" transform="matrix(0.26458336,0,0,0.26458336,320.08182,94.083721)" d="m -1464.809,-826.29316 c -5.8951,0.33767 -14.333,5.12921 -18.4722,6.35566 -9.6807,2.86833 -17.9376,3.59375 -17.9376,3.59375 -3.8225,-0.57699 -11.7097,-3.99416 -14.9313,-3.65496 -4.8078,14.65335 5.9252,27.3077 32.5246,27.3077 22.8296,0 29.7011,-26.12062 18.8165,-33.60215 z" style="color: rgb(0, 0, 0); fill: rgb(134, 205, 209); fill-opacity: 1; fill-rule: nonzero; stroke: none; stroke-width: 0; marker: none; visibility: visible; display: inline; overflow: visible;"/>
        <path sodipodi:nodetypes="cscccc" style="color: rgb(0, 0, 0); fill: rgb(255, 255, 255); fill-opacity: 1; fill-rule: nonzero; stroke: none; stroke-width: 0; marker: none; visibility: visible; display: inline; overflow: visible;" d="m -1441.5,-881.875 c 4.8945,10.58728 0.8566,27.834 -23.6432,28.97884 -26.7676,1.25083 -34.9161,-12.77867 -30.1068,-21.22884 -3.0391,2.16388 -4.6387,4.89412 -4.4062,7.21875 7.7406,28.88847 72.5765,20.34714 61.3437,-13.0625 -0.5077,-0.87931 -1.6565,-1.50841 -3.1875,-1.90625 z" transform="matrix(0.35565801,0,0,0.35565801,448.1915,190.21199)" id="path11230" inkscape:connector-curvature="0"/>
      </g>
      <g transform="matrix(0.59261326,0,0,0.59261326,46.207549,-100.31809)" id="g11138">
        <path style="color: rgb(0, 0, 0); fill: rgb(13, 33, 47); fill-opacity: 1; fill-rule: nonzero; stroke: rgb(16, 40, 41); stroke-width: 8; stroke-linecap: round; stroke-linejoin: round; stroke-opacity: 1; marker: none; visibility: visible; display: inline; overflow: visible;" d="m -1468.8125,-891.25 c -4.9015,0 -9.1095,1.4403 -11,4.6875 -0.094,0.16218 -0.1987,0.32877 -0.2813,0.5 -0.9105,1.72383 -1.5224,4.31166 -1.75,8.25 -0.3604,6.23943 6.3648,11.3125 13.0313,11.3125 6.6665,0 13.8232,-5.37026 13.25,-11.59375 -0.2407,-2.61371 -0.7175,-4.56858 -1.375,-6.09375 -0.973,-4.93188 -5.9069,-7.0625 -11.875,-7.0625 z" transform="matrix(0.35565801,0,0,0.35565801,448.1915,190.21199)" id="path11233" inkscape:connector-curvature="0"/>
        <path transform="matrix(0.22882885,0,0,0.26458336,267.37946,95.425302)" style="color: rgb(0, 0, 0); fill: rgb(36, 49, 61); fill-opacity: 1; fill-rule: nonzero; stroke: none; stroke-width: 0; marker: none; visibility: visible; display: inline; overflow: visible;" d="m -1472.1405,-822.084 c 0.8909,8.36573 -10.2651,15.57016 -20.6265,15.57016 -10.3614,0 -20.7722,-6.82446 -20.212,-15.21162 1.2437,-18.61958 9.8506,-15.21162 20.212,-15.21162 10.3614,0 18.9683,-0.7189 20.6265,14.85308 z" id="path11134" inkscape:connector-curvature="0" sodipodi:nodetypes="sssss"/>
        <path transform="matrix(0.22882885,0,0,0.26458336,267.37946,93.815405)" style="color: rgb(0, 0, 0); fill: rgb(47, 73, 91); fill-opacity: 1; fill-rule: nonzero; stroke: none; stroke-width: 0; marker: none; visibility: visible; display: inline; overflow: visible;" d="m -1474.006,-821.72546 c 0,8.40114 -9.1877,11.39188 -19.155,11.39188 -9.9674,0 -18.367,-2.99074 -18.367,-11.39188 0,-8.40115 8.3996,-11.98475 18.761,-11.98475 10.3614,0 18.761,3.5836 18.761,11.98475 z" id="path11132" inkscape:connector-curvature="0" sodipodi:nodetypes="sssss"/>
        <path style="color: rgb(0, 0, 0); fill: rgb(94, 140, 172); fill-opacity: 1; fill-rule: nonzero; stroke: none; stroke-width: 0; marker: none; visibility: visible; display: inline; overflow: visible;" d="m -1468.8125,-891.25 c -6.6665,0 -12.0937,2.65641 -12.0937,8.90625 0,0.73331 0.077,1.40585 0.2187,2.03125 1.6895,-5.58399 10.0953,-8.67526 16.0625,-8.09375 3.3098,0.32254 6.712,4.26939 7.875,6.125 10e-5,-0.0215 0,-0.0409 0,-0.0625 0,-6.24984 -5.396,-8.90625 -12.0625,-8.90625 z" transform="matrix(0.35565801,0,0,0.35565801,448.1915,190.21199)" id="path11240" inkscape:connector-curvature="0" sodipodi:nodetypes="sscacss"/>
      </g>
    </g>
  </g>
</svg>