<?xml version="1.0" encoding="UTF-8" standalone="no"?><!-- Created with Inkscape (http://www.inkscape.org/) --><svg xmlns:dc="http://purl.org/dc/elements/1.1/" xmlns:cc="http://creativecommons.org/ns#" xmlns:rdf="http://www.w3.org/1999/02/22-rdf-syntax-ns#" xmlns:svg="http://www.w3.org/2000/svg" xmlns="http://www.w3.org/2000/svg" xmlns:sodipodi="http://sodipodi.sourceforge.net/DTD/sodipodi-0.dtd" xmlns:inkscape="http://www.inkscape.org/namespaces/inkscape" width="79.929878" height="91.605492" viewBox="0 0 21.148113 24.237284" version="1.1" id="svg23489" inkscape:version="0.48.5 r10040" sodipodi:docname="small_amanita.svg">
  <defs id="defs23483">
    <clipPath clipPathUnits="userSpaceOnUse" id="clipPath22932">
      <path style="opacity: 0.39823; color: rgb(0, 0, 0); fill: rgb(186, 255, 81); fill-opacity: 1; fill-rule: nonzero; stroke: none; stroke-width: 0; marker: none; visibility: visible; display: inline; overflow: visible;" d="m 544.30169,181.88988 c 0.28587,0.59217 2.59866,1.15837 3.74216,0.1578 0.98015,2.77708 16.86469,0 16.86469,0 l 0,-16.17162 -30.55281,0 0,15.42079 c 0,0 6.65838,3.49263 9.94596,0.59303 z" id="path22934" inkscape:connector-curvature="0" sodipodi:nodetypes="ccccccc"/>
    </clipPath>
    <clipPath clipPathUnits="userSpaceOnUse" id="clipPath22874">
      <path style="opacity: 0.39823; color: rgb(0, 0, 0); fill: rgb(186, 255, 81); fill-opacity: 1; fill-rule: nonzero; stroke: none; stroke-width: 0; marker: none; visibility: visible; display: inline; overflow: visible;" d="m 507.96393,172.04108 c 5.63585,4.14521 4.40861,7.03756 4.24526,7.42553 -0.16336,0.38797 -0.45419,0.84609 -0.55527,0.75946 0,0 -0.23077,1.39392 -0.96715,1.52387 0,0 0.7281,2.05291 -3.23333,2.91054 -3.96143,0.85763 -12.08849,-2.45037 -11.76178,-7.80034 0.32672,-5.34998 9.00511,-7.35111 12.27227,-4.81906 z" id="path22876" inkscape:connector-curvature="0" sodipodi:nodetypes="csccssc"/>
    </clipPath>
    <clipPath clipPathUnits="userSpaceOnUse" id="clipPath22894">
      <path style="opacity: 0.39823; color: rgb(0, 0, 0); fill: rgb(186, 255, 81); fill-opacity: 1; fill-rule: nonzero; stroke: none; stroke-width: 0; marker: none; visibility: visible; display: inline; overflow: visible;" d="m 519.13353,181.84256 c 1.53,1.07862 2.21773,-0.85703 2.00114,-1.06183 0.0817,0.0408 1.9603,0.65343 4.32899,-2.85877 2.36869,-3.51219 0,-9.96483 -8.00455,-11.96597 -8.00454,-2.00113 -11.2717,3.47136 -11.47589,10.16904 -0.2042,6.69767 5.75836,9.27056 9.76064,9.7198 4.00227,0.44923 3.38967,-4.00227 3.38967,-4.00227 z" id="path22896" inkscape:connector-curvature="0" sodipodi:nodetypes="ccssssc"/>
    </clipPath>
    <clipPath clipPathUnits="userSpaceOnUse" id="clipPath23263">
      <path style="opacity: 0.39823; color: rgb(0, 0, 0); fill: rgb(186, 255, 81); fill-opacity: 1; fill-rule: nonzero; stroke: none; stroke-width: 0; marker: none; visibility: visible; display: inline; overflow: visible;" d="m 507.96393,172.04108 c 5.63585,4.14521 4.40861,7.03756 4.24526,7.42553 -0.16336,0.38797 -0.45419,0.84609 -0.55527,0.75946 0,0 -0.23077,1.39392 -0.96715,1.52387 0,0 0.7281,2.05291 -3.23333,2.91054 -3.96143,0.85763 -12.08849,-2.45037 -11.76178,-7.80034 0.32672,-5.34998 9.00511,-7.35111 12.27227,-4.81906 z" id="path23265" inkscape:connector-curvature="0" sodipodi:nodetypes="csccssc"/>
    </clipPath>
    <clipPath clipPathUnits="userSpaceOnUse" id="clipPath22907">
      <path style="opacity: 0.39823; color: rgb(0, 0, 0); fill: rgb(186, 255, 81); fill-opacity: 1; fill-rule: nonzero; stroke: none; stroke-width: 0; marker: none; visibility: visible; display: inline; overflow: visible;" d="m 525.58617,181.98549 c 0.89522,0.98185 2.40724,0.64233 3.04255,0.12252 0.16124,0.72559 12.13955,0.23486 11.90471,0 -0.23482,-0.23483 4.09811,-23.83249 0,-26.19853 -4.09811,-2.36605 -15.11061,0 -21.31822,0 -6.2076,0 -9.48879,8.76153 -8.08444,14.00265 1.40436,5.24112 4.81751,7.15803 7.00687,9.97898 2.18936,2.82095 7.44853,2.09438 7.44853,2.09438 z" id="path22909" inkscape:connector-curvature="0" sodipodi:nodetypes="ccsssssc"/>
    </clipPath>
    <clipPath clipPathUnits="userSpaceOnUse" id="clipPath23269">
      <path style="opacity: 0.39823; color: rgb(0, 0, 0); fill: rgb(186, 255, 81); fill-opacity: 1; fill-rule: nonzero; stroke: none; stroke-width: 0; marker: none; visibility: visible; display: inline; overflow: visible;" d="m 525.58617,181.98549 c 0.89522,0.98185 2.40724,0.64233 3.04255,0.12252 0.16124,0.72559 12.13955,0.23486 11.90471,0 -0.23482,-0.23483 4.09811,-23.83249 0,-26.19853 -4.09811,-2.36605 -15.11061,0 -21.31822,0 -6.2076,0 -9.48879,8.76153 -8.08444,14.00265 1.40436,5.24112 4.81751,7.15803 7.00687,9.97898 2.18936,2.82095 7.44853,2.09438 7.44853,2.09438 z" id="path23271" inkscape:connector-curvature="0" sodipodi:nodetypes="ccsssssc"/>
    </clipPath>
    <clipPath clipPathUnits="userSpaceOnUse" id="clipPath23273">
      <path style="opacity: 0.39823; color: rgb(0, 0, 0); fill: rgb(186, 255, 81); fill-opacity: 1; fill-rule: nonzero; stroke: none; stroke-width: 0; marker: none; visibility: visible; display: inline; overflow: visible;" d="m 507.96393,172.04108 c 5.63585,4.14521 4.40861,7.03756 4.24526,7.42553 -0.16336,0.38797 -0.45419,0.84609 -0.55527,0.75946 0,0 -0.23077,1.39392 -0.96715,1.52387 0,0 0.7281,2.05291 -3.23333,2.91054 -3.96143,0.85763 -12.08849,-2.45037 -11.76178,-7.80034 0.32672,-5.34998 9.00511,-7.35111 12.27227,-4.81906 z" id="path23275" inkscape:connector-curvature="0" sodipodi:nodetypes="csccssc"/>
    </clipPath>
    <clipPath clipPathUnits="userSpaceOnUse" id="clipPath23277">
      <path style="opacity: 0.39823; color: rgb(0, 0, 0); fill: rgb(186, 255, 81); fill-opacity: 1; fill-rule: nonzero; stroke: none; stroke-width: 0; marker: none; visibility: visible; display: inline; overflow: visible;" d="m 519.13353,181.84256 c 1.53,1.07862 2.21773,-0.85703 2.00114,-1.06183 0.0817,0.0408 1.9603,0.65343 4.32899,-2.85877 2.36869,-3.51219 0,-9.96483 -8.00455,-11.96597 -8.00454,-2.00113 -11.2717,3.47136 -11.47589,10.16904 -0.2042,6.69767 5.75836,9.27056 9.76064,9.7198 4.00227,0.44923 3.38967,-4.00227 3.38967,-4.00227 z" id="path23279" inkscape:connector-curvature="0" sodipodi:nodetypes="ccssssc"/>
    </clipPath>
    <clipPath clipPathUnits="userSpaceOnUse" id="clipPath23281">
      <path style="opacity: 0.39823; color: rgb(0, 0, 0); fill: rgb(186, 255, 81); fill-opacity: 1; fill-rule: nonzero; stroke: none; stroke-width: 0; marker: none; visibility: visible; display: inline; overflow: visible;" d="m 525.58617,181.98549 c 0.89522,0.98185 2.40724,0.64233 3.04255,0.12252 0.16124,0.72559 12.13955,0.23486 11.90471,0 -0.23482,-0.23483 4.09811,-23.83249 0,-26.19853 -4.09811,-2.36605 -15.11061,0 -21.31822,0 -6.2076,0 -9.48879,8.76153 -8.08444,14.00265 1.40436,5.24112 4.81751,7.15803 7.00687,9.97898 2.18936,2.82095 7.44853,2.09438 7.44853,2.09438 z" id="path23283" inkscape:connector-curvature="0" sodipodi:nodetypes="ccsssssc"/>
    </clipPath>
    <clipPath clipPathUnits="userSpaceOnUse" id="clipPath23285">
      <path style="opacity: 0.39823; color: rgb(0, 0, 0); fill: rgb(186, 255, 81); fill-opacity: 1; fill-rule: nonzero; stroke: none; stroke-width: 0; marker: none; visibility: visible; display: inline; overflow: visible;" d="m 544.30169,181.88988 c 0.28587,0.59217 2.59866,1.15837 3.74216,0.1578 0.98015,2.77708 16.86469,0 16.86469,0 l 0,-16.17162 -30.55281,0 0,15.42079 c 0,0 6.65838,3.49263 9.94596,0.59303 z" id="path23287" inkscape:connector-curvature="0" sodipodi:nodetypes="ccccccc"/>
    </clipPath>
    <clipPath clipPathUnits="userSpaceOnUse" id="clipPath23289">
      <path style="opacity: 0.39823; color: rgb(0, 0, 0); fill: rgb(186, 255, 81); fill-opacity: 1; fill-rule: nonzero; stroke: none; stroke-width: 0; marker: none; visibility: visible; display: inline; overflow: visible;" d="m 507.96393,172.04108 c 5.63585,4.14521 4.40861,7.03756 4.24526,7.42553 -0.16336,0.38797 -0.45419,0.84609 -0.55527,0.75946 0,0 -0.23077,1.39392 -0.96715,1.52387 0,0 0.7281,2.05291 -3.23333,2.91054 -3.96143,0.85763 -12.08849,-2.45037 -11.76178,-7.80034 0.32672,-5.34998 9.00511,-7.35111 12.27227,-4.81906 z" id="path23291" inkscape:connector-curvature="0" sodipodi:nodetypes="csccssc"/>
    </clipPath>
    <clipPath clipPathUnits="userSpaceOnUse" id="clipPath22919">
      <path style="opacity: 0.39823; color: rgb(0, 0, 0); fill: rgb(186, 255, 81); fill-opacity: 1; fill-rule: nonzero; stroke: none; stroke-width: 0; marker: none; visibility: visible; display: inline; overflow: visible;" d="m 533.24358,180.67863 c -0.16336,1.16393 0.51049,2.00114 2.00114,1.20477 -1.74256,1.5022 -0.71572,1.26164 1.42124,3.05207 2.13697,1.79043 11.4934,0.98185 12.12872,0.5198 0.63531,-0.46205 8.02805,-6.41089 8.0858,-8.66336 0.0578,-2.25248 -1.90593,-15.01651 -5.19801,-17.78878 -3.29208,-2.77228 -16.4604,-0.57756 -19.75248,-0.0578 -3.29208,0.5198 -10.16501,5.71782 -9.93399,5.77558 0.23102,0.0577 2.83003,15.42079 2.77228,15.65181 -0.0578,0.23102 2.42574,4.15842 2.83003,3.92739 0.40429,-0.23102 3.95121,-3.17246 3.95121,-3.17246 0,0 1.59196,0.89865 1.69406,-0.44906 z" id="path22921" inkscape:connector-curvature="0" sodipodi:nodetypes="ccsssssssscc"/>
    </clipPath>
    <clipPath clipPathUnits="userSpaceOnUse" id="clipPath23295">
      <path style="opacity: 0.39823; color: rgb(0, 0, 0); fill: rgb(186, 255, 81); fill-opacity: 1; fill-rule: nonzero; stroke: none; stroke-width: 0; marker: none; visibility: visible; display: inline; overflow: visible;" d="m 525.58617,181.98549 c 0.89522,0.98185 2.40724,0.64233 3.04255,0.12252 0.16124,0.72559 12.13955,0.23486 11.90471,0 -0.23482,-0.23483 4.09811,-23.83249 0,-26.19853 -4.09811,-2.36605 -15.11061,0 -21.31822,0 -6.2076,0 -9.48879,8.76153 -8.08444,14.00265 1.40436,5.24112 4.81751,7.15803 7.00687,9.97898 2.18936,2.82095 7.44853,2.09438 7.44853,2.09438 z" id="path23297" inkscape:connector-curvature="0" sodipodi:nodetypes="ccsssssc"/>
    </clipPath>
    <clipPath clipPathUnits="userSpaceOnUse" id="clipPath23299">
      <path style="opacity: 0.39823; color: rgb(0, 0, 0); fill: rgb(186, 255, 81); fill-opacity: 1; fill-rule: nonzero; stroke: none; stroke-width: 0; marker: none; visibility: visible; display: inline; overflow: visible;" d="m 525.58617,181.98549 c 0.89522,0.98185 2.40724,0.64233 3.04255,0.12252 0.16124,0.72559 12.13955,0.23486 11.90471,0 -0.23482,-0.23483 4.09811,-23.83249 0,-26.19853 -4.09811,-2.36605 -15.11061,0 -21.31822,0 -6.2076,0 -9.48879,8.76153 -8.08444,14.00265 1.40436,5.24112 4.81751,7.15803 7.00687,9.97898 2.18936,2.82095 7.44853,2.09438 7.44853,2.09438 z" id="path23301" inkscape:connector-curvature="0" sodipodi:nodetypes="ccsssssc"/>
    </clipPath>
  </defs>
  <sodipodi:namedview id="base" pagecolor="#7d848b" bordercolor="#666666" borderopacity="1.0" inkscape:pageopacity="0" inkscape:pageshadow="2" inkscape:zoom="1.6196536" inkscape:cx="-15.513009" inkscape:cy="47.418653" inkscape:document-units="px" inkscape:current-layer="layer1" showgrid="false" inkscape:pagecheckerboard="false" showborder="true" units="px" inkscape:window-width="1920" inkscape:window-height="1017" inkscape:window-x="-8" inkscape:window-y="-8" inkscape:window-maximized="1" inkscape:showpageshadow="false" guidetolerance="28" fit-margin-top="8" fit-margin-left="8" fit-margin-right="8" fit-margin-bottom="8">
    <inkscape:grid type="xygrid" id="grid24034" spacingx="1px" spacingy="1px" empspacing="8" visible="true" enabled="true" snapvisiblegridlinesonly="true" originx="-291.17323px" originy="241.04655px"/>
  </sodipodi:namedview>
  <metadata id="metadata23486">
    <rdf:RDF>
      <cc:Work rdf:about="">
        <dc:format>image/svg+xml</dc:format>
        <dc:type rdf:resource="http://purl.org/dc/dcmitype/StillImage"/>
        <dc:title/>
        <cc:license rdf:resource=""/>
        <dc:creator>
          <cc:Agent>
            <dc:title>Robert Brooks</dc:title>
          </cc:Agent>
        </dc:creator>
      </cc:Work>
    </rdf:RDF>
  </metadata>
  <g inkscape:label="Layer 1" inkscape:groupmode="layer" id="layer1" transform="translate(-77.039583,-336.53958)">
    <path transform="matrix(0.17608961,0,0,0.19224501,26.610371,495.35259)" d="m 394.46199,-734.53204 c 0,12.97861 -20.66674,23.49986 -46.16045,23.49986 -25.49371,0 -46.16044,-10.52125 -46.16044,-23.49986 0,-12.97862 20.66673,-23.49987 46.16044,-23.49987 25.49371,0 46.16045,10.52125 46.16045,23.49987 z" sodipodi:ry="23.499863" sodipodi:rx="46.160446" sodipodi:cy="-734.53204" sodipodi:cx="348.30154" id="path18187" style="opacity: 0.420354; color: rgb(0, 0, 0); fill: rgb(0, 0, 0); fill-opacity: 1; fill-rule: nonzero; stroke: none; stroke-width: 0; marker: none; visibility: visible; display: inline; overflow: visible;" sodipodi:type="arc" gds_color="shadow" gds_opacity="shadow" gds_switchable="shadow"/>
    <g id="g40564" transform="matrix(0.69312148,-0.1339189,0.1339189,0.69312148,-517.77548,80.341425)" gds_color="stem" gds_switchable="stem">
      <path sodipodi:nodetypes="cssscc" inkscape:connector-curvature="0" id="path18068" d="m 765.15584,536.14132 c -3.37497,4.33927 -1.03192,6.54481 1.71357,7.25356 3.95662,1.02141 6.18735,1.42307 7.15162,-0.98767 0.96427,-2.4107 1.25975,-6.74805 -2.83843,-8.19448 -4.09821,-1.44642 -6.02676,1.92855 -6.02676,1.92855 z" style="color: rgb(0, 0, 0); fill: rgb(255, 255, 255); fill-opacity: 1; fill-rule: nonzero; stroke: rgb(43, 0, 0); stroke-width: 3.74796; stroke-linejoin: round; stroke-miterlimit: 4; stroke-opacity: 1; stroke-dasharray: none; marker: none; visibility: visible; display: inline; overflow: visible;"/>
      <path style="color: rgb(0, 0, 0); fill: rgb(217, 252, 252); fill-opacity: 1; fill-rule: nonzero; stroke: none; stroke-width: 0; marker: none; visibility: visible; display: inline; overflow: visible;" d="m 765.15584,536.14132 c -3.37497,4.33927 -1.93584,8.15246 0.69661,9.20613 4.84541,1.93945 7.01764,0.43667 7.98191,-1.97403 0.96427,-2.4107 1.44642,-7.71422 -2.65176,-9.16065 -4.09821,-1.44642 -6.02676,1.92855 -6.02676,1.92855 z" id="path40562" inkscape:connector-curvature="0" sodipodi:nodetypes="csssc"/>
      <path inkscape:connector-curvature="0" style="opacity: 0.353982; color: rgb(0, 0, 0); fill: rgb(0, 128, 128); fill-opacity: 1; fill-rule: nonzero; stroke: none; stroke-width: 0; marker: none; visibility: visible; display: inline; overflow: visible;" d="m 399.28125,-533.78125 c -12.82055,0.33355 -16.71875,11.75 -16.71875,11.75 -4.46871,8.79331 -4.99238,16.37653 -3.1875,22.125 12.44582,6.80375 27.75,5.40625 27.75,5.40625 0,0 -1.50508,3.41111 -3.96875,7.0625 10.88759,-0.61149 15.38424,-6.52796 16.8125,-13.96875 1.84987,-9.63723 -0.16125,-29.66454 -16.40625,-32.09375 -1.52298,-0.22773 -2.95499,-0.31575 -4.28125,-0.28125 z" transform="matrix(0.25977891,0.05019222,-0.05019222,0.25977891,639.56986,652.55157)" id="path18074"/>
    </g>
    <g id="g18356" gds_color="cap">
      <path id="path16656" d="m 87.432519,339.99266 c -6.045687,0 -6.940046,5.20024 -6.940046,7.83893 0,0.16491 0.01134,0.32339 0.03502,0.47278 7.48e-4,0.006 -7.47e-4,0.0119 0,0.0175 0.355342,2.40925 3.311274,4.29011 6.905025,4.29011 3.593751,0 6.549298,-1.88086 6.905025,-4.29011 0.02558,-0.15463 0.03502,-0.31892 0.03502,-0.49029 0,-2.63869 -1.234721,-7.83893 -6.940046,-7.83893 z" style="color: rgb(0, 0, 0); fill: rgb(57, 212, 0); fill-opacity: 1; fill-rule: nonzero; stroke: rgb(11, 43, 0); stroke-width: 2.64583; stroke-miterlimit: 4; stroke-dasharray: none; marker: none; visibility: visible; display: inline; overflow: visible;" inkscape:connector-curvature="0"/>
      <path sodipodi:nodetypes="sssss" id="path18033" d="m 87.430469,339.99118 c -6.045686,0 -6.93995,5.20261 -6.93995,7.84129 0,2.63869 3.106617,4.77804 6.93995,4.77804 3.833333,0 6.943451,-2.13935 6.943451,-4.77804 0,-2.63868 -1.238127,-7.84129 -6.943451,-7.84129 z" style="color: rgb(0, 0, 0); fill: rgb(57, 212, 0); fill-opacity: 1; fill-rule: nonzero; stroke: none; stroke-width: 0; marker: none; visibility: visible; display: inline; overflow: visible;" inkscape:connector-curvature="0"/>
      <path id="path18035" d="m 82.045082,342.40329 c -1.275623,1.71566 -1.552609,3.96519 -1.552609,5.4283 0,2.63868 3.106713,4.7804 6.940046,4.7804 3.833334,0 6.940046,-2.14172 6.940046,-4.7804 0,-0.83036 -0.121108,-1.9157 -0.46695,-3.01183 -0.184455,1.85196 -1.591106,5.84477 -6.478933,5.31156 -5.7479,-0.62705 -6.270189,-4.59754 -5.434132,-7.52374 0.02082,-0.0729 0.0373,-0.13759 0.05253,-0.20429 z" style="opacity: 0.21; color: rgb(0, 0, 0); fill: rgb(0, 0, 0); fill-opacity: 1; fill-rule: nonzero; stroke: none; stroke-width: 0; marker: none; visibility: visible; display: inline; overflow: visible;" inkscape:connector-curvature="0"/>
      <path id="path18040" d="m 87.432519,339.99266 c -2.364813,0 -3.94147,0.79895 -4.984692,1.92617 -0.418244,2.54696 2.087633,5.21995 6.12872,4.45354 4.142564,-0.78566 4.376492,-2.79436 3.81148,-4.31929 -9.34e-4,-0.001 9.34e-4,-0.005 0,-0.006 -1.059764,-1.19654 -2.637721,-2.05458 -4.955508,-2.05458 z" style="color: rgb(0, 0, 0); fill: rgb(68, 255, 0); fill-opacity: 1; fill-rule: nonzero; stroke: none; stroke-width: 0; marker: none; visibility: visible; display: inline; overflow: visible;" inkscape:connector-curvature="0"/>
    </g>
    <g id="g18318" gds_color="spots" gds_switchable="spots">
      <path inkscape:connector-curvature="0" style="color: rgb(0, 0, 0); fill: rgb(170, 255, 213); fill-opacity: 1; fill-rule: nonzero; stroke: none; stroke-width: 0; marker: none; visibility: visible; display: inline; overflow: visible;" d="m 87.047286,339.9985 c -2.523234,0.0963 -4.096142,1.13787 -5.066409,2.49234 0.532428,0.81774 1.784032,1.21157 3.081871,0.89305 1.541492,-0.37833 2.564243,-1.61757 2.282218,-2.76668 -0.05597,-0.22805 -0.156097,-0.43569 -0.29768,-0.61871 z m 4.967181,2.12462 c -0.64076,0.0489 -0.834673,0.74129 -0.834673,0.74129 -1.163107,1.71088 1.063615,4.73911 2.323077,3.55465 0.325122,-0.30576 0.492105,-0.70901 0.536993,-1.14403 -0.277068,-1.05427 -0.756103,-2.15084 -1.517588,-3.07019 -0.192899,-0.0704 -0.363052,-0.0928 -0.507809,-0.0817 z m -9.934363,3.91655 c -0.522338,0.0192 -1.051375,0.26723 -1.546772,0.83467 -0.0275,0.34318 -0.04086,0.66607 -0.04086,0.95725 0,2.06005 1.892369,3.81761 4.546927,4.48855 0.597328,-1.05458 0.820789,-2.40187 0.303517,-3.54882 -0.589386,-1.30684 -1.904693,-2.7815 -3.262814,-2.73165 z m 6.368032,0.0817 c -0.08438,-0.003 -0.170571,0.006 -0.256822,0.0234 -0.690011,0.13941 -1.147695,0.89198 -1.021454,1.68102 0.126241,0.78904 0.78672,1.31262 1.47673,1.17321 0.69001,-0.13941 1.147694,-0.89198 1.021453,-1.68102 -0.110461,-0.69041 -0.629275,-1.17836 -1.219907,-1.19656 z m 3.90487,2.56239 c -1.794298,0.0744 -2.492596,2.10602 -2.013722,3.48462 1.820373,-0.57932 3.215045,-1.68093 3.770622,-3.02934 -0.669018,-0.34157 -1.255913,-0.47606 -1.7569,-0.45528 z" id="path18045"/>
      <path inkscape:connector-curvature="0" style="opacity: 0.123894; color: rgb(0, 0, 0); fill: rgb(0, 0, 0); fill-opacity: 1; fill-rule: nonzero; stroke: none; stroke-width: 0; marker: none; visibility: visible; display: inline; overflow: visible;" d="m 82.045083,342.40329 c -0.0042,0.006 -0.0075,0.0118 -0.01167,0.0175 -0.01733,0.0235 -0.03556,0.0464 -0.05253,0.07 0.0091,0.014 0.01966,0.0271 0.02918,0.0409 0.01138,-0.043 0.02541,-0.0863 0.03502,-0.12841 z m 11.860532,2.41647 c -0.04275,0.42923 -0.153867,0.97638 -0.356049,1.55261 0.289867,-0.29544 0.445235,-0.67307 0.490298,-1.07982 -0.04096,-0.15751 -0.08418,-0.3141 -0.134249,-0.47279 z m -12.082333,1.24909 c -0.43824,0.0805 -0.875197,0.33042 -1.28995,0.80549 -0.0017,0.0202 -0.0043,0.0383 -0.0058,0.0584 -0.01139,0.15028 -0.01737,0.29662 -0.02335,0.43776 -0.0061,0.15857 -0.01167,0.31662 -0.01167,0.46112 0,0.0825 0.0057,0.16371 0.01167,0.24515 0.0048,0.066 0.0088,0.13316 0.0175,0.19845 0.0031,0.0233 0.0081,0.0468 0.01167,0.07 0.01119,0.0723 0.02504,0.14467 0.04086,0.21597 0.01584,0.0714 0.03217,0.13983 0.05253,0.21012 0.0023,0.008 0.0035,0.0156 0.0058,0.0233 0.01576,0.0531 0.03424,0.1052 0.05253,0.1576 0.02093,0.06 0.04586,0.12187 0.07004,0.18094 0.01623,0.0395 0.02904,0.0777 0.04669,0.11674 0.009,0.0199 0.01984,0.0385 0.02918,0.0584 0.0259,0.0548 0.05304,0.10949 0.08172,0.16343 0.03352,0.0633 0.06781,0.12471 0.105064,0.18678 0.0066,0.0111 0.01074,0.024 0.0175,0.035 0.06032,0.0984 0.129039,0.19111 0.198454,0.28601 0.07877,0.10768 0.161017,0.21236 0.250985,0.31519 0.08077,0.0924 0.167445,0.18034 0.256823,0.26849 0.0216,0.0213 0.04211,0.0431 0.06421,0.0642 0.08724,0.0831 0.173854,0.16614 0.268496,0.24515 0.0033,0.003 0.0084,0.003 0.01167,0.006 0.110708,0.092 0.229963,0.18252 0.350212,0.2685 0.08781,0.0628 0.181696,0.12154 0.274333,0.18094 0.01985,0.0127 0.0383,0.0283 0.05837,0.0409 0.01431,0.009 0.02644,0.0203 0.04086,0.0292 0.08535,0.0526 0.173588,0.10209 0.26266,0.15176 0.06895,0.0384 0.139039,0.0743 0.210127,0.1109 0.08907,0.0459 0.176194,0.0913 0.268496,0.13424 0.07495,0.0349 0.15064,0.0663 0.227639,0.0992 0.01782,0.008 0.0346,0.0158 0.05253,0.0233 0.08293,0.0348 0.165815,0.0668 0.250985,0.0992 0.01384,0.005 0.02696,0.0123 0.04086,0.0175 0.139764,0.0523 0.280727,0.10019 0.426092,0.14592 0.140599,0.0442 0.286474,0.0848 0.431929,0.12257 0.01979,0.005 0.0385,0.0125 0.05837,0.0175 0.429329,-0.75799 0.665185,-1.66755 0.572014,-2.54488 -2.340685,-0.69209 -3.428678,-2.12104 -3.788133,-3.70642 z m 10.529724,2.61492 c -0.08309,0.003 -0.160929,0.0118 -0.239312,0.0233 -0.410346,0.40626 -0.905711,0.75691 -1.500077,1.01561 -0.44237,0.72054 -0.539368,1.68266 -0.274333,2.44566 0.227547,-0.0724 0.446132,-0.15112 0.659567,-0.23932 0.01137,-0.005 0.0237,-0.007 0.03502,-0.0117 0.188954,-0.0791 0.372128,-0.16611 0.548667,-0.25682 0.01171,-0.006 0.02337,-0.0114 0.03502,-0.0175 0.01541,-0.008 0.03138,-0.0152 0.04669,-0.0233 0.0829,-0.0439 0.16528,-0.0937 0.245149,-0.14009 0.06375,-0.037 0.125026,-0.0724 0.18678,-0.1109 0.02966,-0.0186 0.05836,-0.0394 0.08755,-0.0584 0.09018,-0.0583 0.182949,-0.11946 0.268496,-0.18094 0.08555,-0.0615 0.164441,-0.12223 0.245149,-0.18678 0.08071,-0.0645 0.157809,-0.13097 0.233475,-0.19845 0.06838,-0.061 0.134347,-0.1235 0.198454,-0.18678 0.0069,-0.007 0.01653,-0.0107 0.02335,-0.0175 0.01173,-0.0117 0.02344,-0.0232 0.03502,-0.035 0.05846,-0.0596 0.11467,-0.11946 0.16927,-0.18094 0.0037,-0.004 0.008,-0.008 0.01167,-0.0117 0.05982,-0.0678 0.120131,-0.14016 0.175106,-0.21013 0.05068,-0.0645 0.0995,-0.13222 0.145922,-0.19845 0.0081,-0.0116 0.01535,-0.0234 0.02335,-0.035 0.04042,-0.0589 0.07976,-0.11494 0.116738,-0.1751 0.01178,-0.0192 0.02359,-0.0391 0.03502,-0.0584 0.03178,-0.0537 0.05857,-0.10877 0.08755,-0.16343 0.01435,-0.027 0.02721,-0.0545 0.04086,-0.0817 0.04118,-0.0823 0.08201,-0.16671 0.116738,-0.25099 -0.669018,-0.34156 -1.255913,-0.47605 -1.7569,-0.45527 z" id="path18063"/>
    </g>
  </g>
</svg>