<?xml version="1.0" encoding="UTF-8" standalone="no"?><!-- Created with Inkscape (http://www.inkscape.org/) --><svg xmlns:dc="http://purl.org/dc/elements/1.1/" xmlns:cc="http://creativecommons.org/ns#" xmlns:rdf="http://www.w3.org/1999/02/22-rdf-syntax-ns#" xmlns:svg="http://www.w3.org/2000/svg" xmlns="http://www.w3.org/2000/svg" xmlns:sodipodi="http://sodipodi.sourceforge.net/DTD/sodipodi-0.dtd" xmlns:inkscape="http://www.inkscape.org/namespaces/inkscape" width="277.82504" height="216.78557" viewBox="0 0 73.507868 57.357839" version="1.1" id="svg23489" inkscape:version="0.48.5 r10040" sodipodi:docname="stalk_03.svg">
  <defs id="defs23483">
    <clipPath clipPathUnits="userSpaceOnUse" id="clipPath22932">
      <path style="opacity: 0.39823; color: rgb(0, 0, 0); fill: rgb(186, 255, 81); fill-opacity: 1; fill-rule: nonzero; stroke: none; stroke-width: 0; marker: none; visibility: visible; display: inline; overflow: visible;" d="m 544.30169,181.88988 c 0.28587,0.59217 2.59866,1.15837 3.74216,0.1578 0.98015,2.77708 16.86469,0 16.86469,0 l 0,-16.17162 -30.55281,0 0,15.42079 c 0,0 6.65838,3.49263 9.94596,0.59303 z" id="path22934" inkscape:connector-curvature="0" sodipodi:nodetypes="ccccccc"/>
    </clipPath>
    <clipPath clipPathUnits="userSpaceOnUse" id="clipPath22874">
      <path style="opacity: 0.39823; color: rgb(0, 0, 0); fill: rgb(186, 255, 81); fill-opacity: 1; fill-rule: nonzero; stroke: none; stroke-width: 0; marker: none; visibility: visible; display: inline; overflow: visible;" d="m 507.96393,172.04108 c 5.63585,4.14521 4.40861,7.03756 4.24526,7.42553 -0.16336,0.38797 -0.45419,0.84609 -0.55527,0.75946 0,0 -0.23077,1.39392 -0.96715,1.52387 0,0 0.7281,2.05291 -3.23333,2.91054 -3.96143,0.85763 -12.08849,-2.45037 -11.76178,-7.80034 0.32672,-5.34998 9.00511,-7.35111 12.27227,-4.81906 z" id="path22876" inkscape:connector-curvature="0" sodipodi:nodetypes="csccssc"/>
    </clipPath>
    <clipPath clipPathUnits="userSpaceOnUse" id="clipPath22894">
      <path style="opacity: 0.39823; color: rgb(0, 0, 0); fill: rgb(186, 255, 81); fill-opacity: 1; fill-rule: nonzero; stroke: none; stroke-width: 0; marker: none; visibility: visible; display: inline; overflow: visible;" d="m 519.13353,181.84256 c 1.53,1.07862 2.21773,-0.85703 2.00114,-1.06183 0.0817,0.0408 1.9603,0.65343 4.32899,-2.85877 2.36869,-3.51219 0,-9.96483 -8.00455,-11.96597 -8.00454,-2.00113 -11.2717,3.47136 -11.47589,10.16904 -0.2042,6.69767 5.75836,9.27056 9.76064,9.7198 4.00227,0.44923 3.38967,-4.00227 3.38967,-4.00227 z" id="path22896" inkscape:connector-curvature="0" sodipodi:nodetypes="ccssssc"/>
    </clipPath>
    <clipPath clipPathUnits="userSpaceOnUse" id="clipPath23263">
      <path style="opacity: 0.39823; color: rgb(0, 0, 0); fill: rgb(186, 255, 81); fill-opacity: 1; fill-rule: nonzero; stroke: none; stroke-width: 0; marker: none; visibility: visible; display: inline; overflow: visible;" d="m 507.96393,172.04108 c 5.63585,4.14521 4.40861,7.03756 4.24526,7.42553 -0.16336,0.38797 -0.45419,0.84609 -0.55527,0.75946 0,0 -0.23077,1.39392 -0.96715,1.52387 0,0 0.7281,2.05291 -3.23333,2.91054 -3.96143,0.85763 -12.08849,-2.45037 -11.76178,-7.80034 0.32672,-5.34998 9.00511,-7.35111 12.27227,-4.81906 z" id="path23265" inkscape:connector-curvature="0" sodipodi:nodetypes="csccssc"/>
    </clipPath>
    <clipPath clipPathUnits="userSpaceOnUse" id="clipPath22907">
      <path style="opacity: 0.39823; color: rgb(0, 0, 0); fill: rgb(186, 255, 81); fill-opacity: 1; fill-rule: nonzero; stroke: none; stroke-width: 0; marker: none; visibility: visible; display: inline; overflow: visible;" d="m 525.58617,181.98549 c 0.89522,0.98185 2.40724,0.64233 3.04255,0.12252 0.16124,0.72559 12.13955,0.23486 11.90471,0 -0.23482,-0.23483 4.09811,-23.83249 0,-26.19853 -4.09811,-2.36605 -15.11061,0 -21.31822,0 -6.2076,0 -9.48879,8.76153 -8.08444,14.00265 1.40436,5.24112 4.81751,7.15803 7.00687,9.97898 2.18936,2.82095 7.44853,2.09438 7.44853,2.09438 z" id="path22909" inkscape:connector-curvature="0" sodipodi:nodetypes="ccsssssc"/>
    </clipPath>
    <clipPath clipPathUnits="userSpaceOnUse" id="clipPath23269">
      <path style="opacity: 0.39823; color: rgb(0, 0, 0); fill: rgb(186, 255, 81); fill-opacity: 1; fill-rule: nonzero; stroke: none; stroke-width: 0; marker: none; visibility: visible; display: inline; overflow: visible;" d="m 525.58617,181.98549 c 0.89522,0.98185 2.40724,0.64233 3.04255,0.12252 0.16124,0.72559 12.13955,0.23486 11.90471,0 -0.23482,-0.23483 4.09811,-23.83249 0,-26.19853 -4.09811,-2.36605 -15.11061,0 -21.31822,0 -6.2076,0 -9.48879,8.76153 -8.08444,14.00265 1.40436,5.24112 4.81751,7.15803 7.00687,9.97898 2.18936,2.82095 7.44853,2.09438 7.44853,2.09438 z" id="path23271" inkscape:connector-curvature="0" sodipodi:nodetypes="ccsssssc"/>
    </clipPath>
    <clipPath clipPathUnits="userSpaceOnUse" id="clipPath23273">
      <path style="opacity: 0.39823; color: rgb(0, 0, 0); fill: rgb(186, 255, 81); fill-opacity: 1; fill-rule: nonzero; stroke: none; stroke-width: 0; marker: none; visibility: visible; display: inline; overflow: visible;" d="m 507.96393,172.04108 c 5.63585,4.14521 4.40861,7.03756 4.24526,7.42553 -0.16336,0.38797 -0.45419,0.84609 -0.55527,0.75946 0,0 -0.23077,1.39392 -0.96715,1.52387 0,0 0.7281,2.05291 -3.23333,2.91054 -3.96143,0.85763 -12.08849,-2.45037 -11.76178,-7.80034 0.32672,-5.34998 9.00511,-7.35111 12.27227,-4.81906 z" id="path23275" inkscape:connector-curvature="0" sodipodi:nodetypes="csccssc"/>
    </clipPath>
    <clipPath clipPathUnits="userSpaceOnUse" id="clipPath23277">
      <path style="opacity: 0.39823; color: rgb(0, 0, 0); fill: rgb(186, 255, 81); fill-opacity: 1; fill-rule: nonzero; stroke: none; stroke-width: 0; marker: none; visibility: visible; display: inline; overflow: visible;" d="m 519.13353,181.84256 c 1.53,1.07862 2.21773,-0.85703 2.00114,-1.06183 0.0817,0.0408 1.9603,0.65343 4.32899,-2.85877 2.36869,-3.51219 0,-9.96483 -8.00455,-11.96597 -8.00454,-2.00113 -11.2717,3.47136 -11.47589,10.16904 -0.2042,6.69767 5.75836,9.27056 9.76064,9.7198 4.00227,0.44923 3.38967,-4.00227 3.38967,-4.00227 z" id="path23279" inkscape:connector-curvature="0" sodipodi:nodetypes="ccssssc"/>
    </clipPath>
    <clipPath clipPathUnits="userSpaceOnUse" id="clipPath23281">
      <path style="opacity: 0.39823; color: rgb(0, 0, 0); fill: rgb(186, 255, 81); fill-opacity: 1; fill-rule: nonzero; stroke: none; stroke-width: 0; marker: none; visibility: visible; display: inline; overflow: visible;" d="m 525.58617,181.98549 c 0.89522,0.98185 2.40724,0.64233 3.04255,0.12252 0.16124,0.72559 12.13955,0.23486 11.90471,0 -0.23482,-0.23483 4.09811,-23.83249 0,-26.19853 -4.09811,-2.36605 -15.11061,0 -21.31822,0 -6.2076,0 -9.48879,8.76153 -8.08444,14.00265 1.40436,5.24112 4.81751,7.15803 7.00687,9.97898 2.18936,2.82095 7.44853,2.09438 7.44853,2.09438 z" id="path23283" inkscape:connector-curvature="0" sodipodi:nodetypes="ccsssssc"/>
    </clipPath>
    <clipPath clipPathUnits="userSpaceOnUse" id="clipPath23285">
      <path style="opacity: 0.39823; color: rgb(0, 0, 0); fill: rgb(186, 255, 81); fill-opacity: 1; fill-rule: nonzero; stroke: none; stroke-width: 0; marker: none; visibility: visible; display: inline; overflow: visible;" d="m 544.30169,181.88988 c 0.28587,0.59217 2.59866,1.15837 3.74216,0.1578 0.98015,2.77708 16.86469,0 16.86469,0 l 0,-16.17162 -30.55281,0 0,15.42079 c 0,0 6.65838,3.49263 9.94596,0.59303 z" id="path23287" inkscape:connector-curvature="0" sodipodi:nodetypes="ccccccc"/>
    </clipPath>
    <clipPath clipPathUnits="userSpaceOnUse" id="clipPath23289">
      <path style="opacity: 0.39823; color: rgb(0, 0, 0); fill: rgb(186, 255, 81); fill-opacity: 1; fill-rule: nonzero; stroke: none; stroke-width: 0; marker: none; visibility: visible; display: inline; overflow: visible;" d="m 507.96393,172.04108 c 5.63585,4.14521 4.40861,7.03756 4.24526,7.42553 -0.16336,0.38797 -0.45419,0.84609 -0.55527,0.75946 0,0 -0.23077,1.39392 -0.96715,1.52387 0,0 0.7281,2.05291 -3.23333,2.91054 -3.96143,0.85763 -12.08849,-2.45037 -11.76178,-7.80034 0.32672,-5.34998 9.00511,-7.35111 12.27227,-4.81906 z" id="path23291" inkscape:connector-curvature="0" sodipodi:nodetypes="csccssc"/>
    </clipPath>
    <clipPath clipPathUnits="userSpaceOnUse" id="clipPath22919">
      <path style="opacity: 0.39823; color: rgb(0, 0, 0); fill: rgb(186, 255, 81); fill-opacity: 1; fill-rule: nonzero; stroke: none; stroke-width: 0; marker: none; visibility: visible; display: inline; overflow: visible;" d="m 533.24358,180.67863 c -0.16336,1.16393 0.51049,2.00114 2.00114,1.20477 -1.74256,1.5022 -0.71572,1.26164 1.42124,3.05207 2.13697,1.79043 11.4934,0.98185 12.12872,0.5198 0.63531,-0.46205 8.02805,-6.41089 8.0858,-8.66336 0.0578,-2.25248 -1.90593,-15.01651 -5.19801,-17.78878 -3.29208,-2.77228 -16.4604,-0.57756 -19.75248,-0.0578 -3.29208,0.5198 -10.16501,5.71782 -9.93399,5.77558 0.23102,0.0577 2.83003,15.42079 2.77228,15.65181 -0.0578,0.23102 2.42574,4.15842 2.83003,3.92739 0.40429,-0.23102 3.95121,-3.17246 3.95121,-3.17246 0,0 1.59196,0.89865 1.69406,-0.44906 z" id="path22921" inkscape:connector-curvature="0" sodipodi:nodetypes="ccsssssssscc"/>
    </clipPath>
    <clipPath clipPathUnits="userSpaceOnUse" id="clipPath23295">
      <path style="opacity: 0.39823; color: rgb(0, 0, 0); fill: rgb(186, 255, 81); fill-opacity: 1; fill-rule: nonzero; stroke: none; stroke-width: 0; marker: none; visibility: visible; display: inline; overflow: visible;" d="m 525.58617,181.98549 c 0.89522,0.98185 2.40724,0.64233 3.04255,0.12252 0.16124,0.72559 12.13955,0.23486 11.90471,0 -0.23482,-0.23483 4.09811,-23.83249 0,-26.19853 -4.09811,-2.36605 -15.11061,0 -21.31822,0 -6.2076,0 -9.48879,8.76153 -8.08444,14.00265 1.40436,5.24112 4.81751,7.15803 7.00687,9.97898 2.18936,2.82095 7.44853,2.09438 7.44853,2.09438 z" id="path23297" inkscape:connector-curvature="0" sodipodi:nodetypes="ccsssssc"/>
    </clipPath>
    <clipPath clipPathUnits="userSpaceOnUse" id="clipPath23299">
      <path style="opacity: 0.39823; color: rgb(0, 0, 0); fill: rgb(186, 255, 81); fill-opacity: 1; fill-rule: nonzero; stroke: none; stroke-width: 0; marker: none; visibility: visible; display: inline; overflow: visible;" d="m 525.58617,181.98549 c 0.89522,0.98185 2.40724,0.64233 3.04255,0.12252 0.16124,0.72559 12.13955,0.23486 11.90471,0 -0.23482,-0.23483 4.09811,-23.83249 0,-26.19853 -4.09811,-2.36605 -15.11061,0 -21.31822,0 -6.2076,0 -9.48879,8.76153 -8.08444,14.00265 1.40436,5.24112 4.81751,7.15803 7.00687,9.97898 2.18936,2.82095 7.44853,2.09438 7.44853,2.09438 z" id="path23301" inkscape:connector-curvature="0" sodipodi:nodetypes="ccsssssc"/>
    </clipPath>
  </defs>
  <sodipodi:namedview id="base" pagecolor="#7d848b" bordercolor="#666666" borderopacity="1.0" inkscape:pageopacity="0" inkscape:pageshadow="2" inkscape:zoom="0.8098268" inkscape:cx="-305.7602" inkscape:cy="43.13297" inkscape:document-units="px" inkscape:current-layer="layer1" showgrid="false" inkscape:pagecheckerboard="false" showborder="true" units="px" inkscape:window-width="1920" inkscape:window-height="1017" inkscape:window-x="-8" inkscape:window-y="-8" inkscape:window-maximized="1" inkscape:showpageshadow="false" guidetolerance="28" fit-margin-top="8" fit-margin-left="8" fit-margin-right="8" fit-margin-bottom="8">
    <inkscape:grid type="xygrid" id="grid24034" spacingx="1px" spacingy="1px" empspacing="8" visible="true" enabled="true" snapvisiblegridlinesonly="true" originx="-772.61884px" originy="382.73637px"/>
  </sodipodi:namedview>
  <metadata id="metadata23486">
    <rdf:RDF>
      <cc:Work rdf:about="">
        <dc:format>image/svg+xml</dc:format>
        <dc:type rdf:resource="http://purl.org/dc/dcmitype/StillImage"/>
        <dc:title/>
        <cc:license rdf:resource=""/>
        <dc:creator>
          <cc:Agent>
            <dc:title>Robert Brooks</dc:title>
          </cc:Agent>
        </dc:creator>
      </cc:Work>
    </rdf:RDF>
  </metadata>
  <g inkscape:label="Layer 1" inkscape:groupmode="layer" id="layer1" transform="translate(-204.42204,-340.90778)">
    <path style="opacity: 0.25; color: rgb(0, 0, 0); fill: rgb(0, 0, 0); fill-opacity: 1; fill-rule: nonzero; stroke: none; stroke-width: 0; marker: none; visibility: visible; display: inline; overflow: visible;" d="m 511.15625,-65.8125 c -5.10686,0.179757 -11.02775,2.693033 -13.96875,6.0625 -2.5341,-0.86035 -4.5,-1 -4.5,-1 -29.01855,0.617416 -37.65625,12.96875 -37.65625,12.96875 0,0 16.6896,4.320998 32.125,2.46875 8.15704,-0.978845 14.2102,-0.926732 17.5,-1.75 3.39178,1.247401 7.88648,2.343996 13.59375,3.25 -6.48092,9.087097 -3.9375,18.25 -3.9375,18.25 0,0 19.12317,-3.097679 24.0625,-13.59375 0.31479,-0.668938 0.5228,-1.28084 0.625,-1.84375 18.19784,2.316607 35.14065,4.029408 53.03125,5.0625 -16.9003,8.63449 -17.84375,12.21875 -17.84375,12.21875 0,0 21.00785,3.69874 42,-5.5625 4.6465,-2.049929 8.6726,-3.860172 12.0625,-5.5 6.02897,0.0464 12.28394,0.01911 18.8125,-0.0625 9.90145,0.742608 17.00572,-1.259655 21.03125,-4.125 16.69106,5.360873 24.65625,7.21875 24.65625,7.21875 0,0 0.60681,-8.01334 -13.59375,-14.1875 -3.26909,-1.421343 -6.0348,-1.951633 -8.375,-1.9375 -1.1961,-1.384935 -3.32113,-2.480604 -6.4375,-3 -14.81798,-2.469664 -53.73237,-1.852248 -80.28125,0 -26.54889,1.852248 -79.63441,-3.701755 -75.3125,-7.40625 4.32191,-3.704496 17.90323,-5.554002 4.9375,-7.40625 -0.81036,-0.115766 -1.65336,-0.155901 -2.53125,-0.125 z" transform="matrix(0.2645833,0,0,0.2645833,90.014161,402.23157)" id="path34795" gds_color="shadow" inkscape:connector-curvature="0" gds_switchable="shadow"/>
    <g id="g34890" gds_color="leaves" gds_switchable="leaves">
      <g id="g32476" transform="matrix(0.42175748,0.25731877,-0.25731877,0.42175748,134.92745,306.50084)">
        <g transform="translate(-2.0725574,2.8127567)" id="g32478">
          <path id="path32480" transform="matrix(0.26458336,0,0,0.26458336,322.15438,91.270964)" d="m -277.4375,-443.53125 c -6.96986,0.098 -12.70886,0.71955 -15.625,1.5 0.0469,-0.0738 0.0395,-0.10614 -0.0625,-0.0625 -0.0432,0.0185 -0.15313,0.11835 -0.21875,0.15625 -0.0129,0.007 -0.0488,-0.008 -0.0625,0 -0.80049,0.23414 -1.34896,0.47396 -1.59375,0.71875 -0.36175,0.36175 -0.73336,0.87778 -0.96875,1.46875 -0.004,0.009 0.003,0.0223 0,0.0312 -2.22028,2.35645 -4.32451,6.00197 -0.75,8.90625 5.9301,4.81821 18.13101,8.58481 28.0625,6.90625 8.45346,-1.148 10.25655,-3.77145 14.40625,-5.6875 12.74195,9.40303 15.34375,18.46875 15.34375,18.46875 0,0 0.67642,-1.32175 1.65625,-3.28125 0.4122,-0.63817 9.3554,-14.50064 8.96875,-17.59375 0.037,0.0581 0.0889,0.097 0.125,0.15625 0,0 0.16219,-1.38692 -1.65625,-3.625 -0.73226,-0.90124 -1.88292,-1.49352 -4.09375,-2.125 -2.1343,-0.82318 -4.91179,-1.37017 -7.8125,-1.71875 -3.11269,-0.60169 -6.97849,-1.34082 -12.03125,-2.3125 -7.95568,-1.52994 -16.45806,-2.00785 -23.6875,-1.90625 z m 6.96875,13.96875 c -0.15209,0.0412 -0.25073,0.0833 -0.40625,0.125 -1.62127,0.19615 -3.29547,0.1903 -5,0 2.00225,0.11171 3.76699,0.0571 5.40625,-0.125 z" style="color: rgb(0, 0, 0); fill: rgb(156, 237, 255); fill-opacity: 1; fill-rule: nonzero; stroke: rgb(13, 13, 13); stroke-width: 20.2406; stroke-linecap: round; stroke-linejoin: round; stroke-miterlimit: 4; stroke-opacity: 1; stroke-dasharray: none; stroke-dashoffset: 37.6; marker: none; visibility: visible; display: inline; overflow: visible;" inkscape:connector-curvature="0"/>
          <path transform="matrix(0.26458336,0,0,0.26458336,320.08182,94.083721)" inkscape:connector-curvature="0" id="path32482" d="m -252.34377,-444.14087 c 17.90466,10.63089 21.26178,22.38082 21.26178,22.38082 0,0 9.51185,-17.90466 8.95233,-22.94034 -0.55952,-5.03569 -16.22609,-6.15473 -23.49986,-5.59521 -7.27377,0.55952 -6.71425,6.15473 -6.71425,6.15473 z" style="color: rgb(0, 0, 0); fill: rgb(0, 105, 144); fill-opacity: 1; fill-rule: nonzero; stroke: none; stroke-width: 0; marker: none; visibility: visible; display: inline; overflow: visible;"/>
        </g>
        <path sodipodi:nodetypes="cscscsscssc" inkscape:connector-curvature="0" id="path32484" transform="matrix(0.26458336,0,0,0.26458336,320.08182,94.083721)" d="m -293.125,-442.09375 c -1.04938,0.44896 -9.13272,6.78084 -3.59375,11.28125 5.9301,4.81821 18.12805,8.58481 28.05954,6.90625 11.33029,-1.53868 10.71573,-5.72994 19.81546,-7.3125 9.09974,-1.58256 20.17284,-2.35514 11.46875,17.03125 0,0 9.4894,-14.64737 9.09375,-17.8125 -0.39564,-3.16513 -2.89087,-6.75071 -17.8125,-4.75 -10.84658,1.45432 -9.7539,3.29704 -24.78421,7.3244 -5.78389,0.69978 -12.15208,-1.32807 -18.71579,-4.16815 -7.01276,-3.03438 -5.14507,-6.72994 -3.5625,-8.3125 0.19782,-0.19782 0.18116,-0.25164 0.0312,-0.1875 z" style="color: rgb(0, 0, 0); fill: rgb(0, 89, 121); fill-opacity: 1; fill-rule: nonzero; stroke: none; stroke-width: 0; marker: none; visibility: visible; display: inline; overflow: visible;"/>
        <path sodipodi:nodetypes="csssssc" transform="matrix(0.26458336,0,0,0.26458336,320.08182,94.083721)" inkscape:connector-curvature="0" id="path32486" d="m -228.1445,-431.83142 c -5.87497,-9.65173 -24.42454,-3.83789 -31.33315,-0.97916 -8.11305,3.35712 -12.58922,4.61604 -25.73795,2.0982 -13.14873,-2.51784 -11.74993,-8.53269 -9.79161,-10.49101 1.95832,-1.95832 23.08022,-3.91664 41.26464,-0.41964 18.18442,3.497 22.10106,3.91664 23.91951,6.15473 1.81844,2.23808 1.67856,3.63688 1.67856,3.63688 z" style="color: rgb(0, 0, 0); fill: rgb(0, 163, 222); fill-opacity: 1; fill-rule: nonzero; stroke: none; stroke-width: 0; marker: none; visibility: visible; display: inline; overflow: visible;"/>
      </g>
      <g transform="matrix(0.87348048,0,0,0.87348048,13.53027,417.20206)" id="g32730">
        <path inkscape:connector-curvature="0" style="color: rgb(0, 0, 0); fill: rgb(0, 89, 121); fill-opacity: 1; fill-rule: nonzero; stroke: rgb(13, 13, 13); stroke-width: 11.4485; stroke-miterlimit: 4; stroke-opacity: 1; stroke-dasharray: none; marker: none; visibility: visible; display: inline; overflow: visible;" d="m -134.8125,-565.28125 c -6.4468,-0.0444 -13.05818,2.3557 -18.90625,6.84375 -3.91765,3.00657 -6.50378,6.69266 -6.84375,10.21875 -0.6436,2.82337 -0.0737,6.86458 -0.0312,7.59375 0.21271,3.65953 3.01196,7.01513 9.4375,9.125 5.93461,1.18692 12.46875,-1.78125 12.46875,-1.78125 0,0 2.37731,2.78183 7.125,3.96875 4.74769,1.18693 17.20872,-0.6087 18,-9.90625 0.0772,-0.9072 0.51512,-6.90001 0.5,-7.71875 -0.0272,-1.58043 -0.26439,-2.82943 -0.625,-3.84375 -1.08896,-6.97358 -6.00578,-10.32981 -12.53125,-12.875 -2.76607,-1.07888 -5.66339,-1.60481 -8.59375,-1.625 z" transform="matrix(0.26458336,0,0,0.26458336,320.08182,94.083721)" id="path32732"/>
        <path sodipodi:nodetypes="cssssssscc" inkscape:connector-curvature="0" id="path32734" d="m 280.09046,-46.539205 c -1.70009,-0.558237 -2.44153,-1.450725 -2.49781,-2.418976 -0.0123,-0.211219 -0.20131,-1.472844 0.0581,-2.21199 0.284,-0.809097 0.83403,-0.114173 1.75553,-0.821372 2.25062,-1.727219 4.93704,-2.299689 7.27898,-1.386239 1.93348,0.754135 3.44274,0.416837 3.48288,2.751912 0.004,0.216625 -0.10897,1.805376 -0.1294,2.045407 -0.20936,2.459977 -3.5105,2.931039 -4.76666,2.616997 -1.25616,-0.31404 -1.88424,-1.046798 -1.88424,-1.046798 0,0 -1.72722,0.785098 -3.29742,0.471059 z" style="color: rgb(0, 0, 0); fill: rgb(0, 89, 121); fill-opacity: 1; fill-rule: nonzero; stroke: none; stroke-width: 0; marker: none; visibility: visible; display: inline; overflow: visible;"/>
        <path style="color: rgb(0, 0, 0); fill: rgb(0, 141, 193); fill-opacity: 1; fill-rule: nonzero; stroke: none; stroke-width: 0; marker: none; visibility: visible; display: inline; overflow: visible;" d="m 280.09046,-48.214084 c -3.50678,-1.15148 -2.93476,-3.725119 -0.68414,-5.452338 2.25062,-1.727219 4.93704,-2.299688 7.27898,-1.386239 2.11285,0.824096 3.59411,1.969902 3.35348,4.797319 -0.20936,2.459977 -3.5105,2.931039 -4.76666,2.616997 -1.25616,-0.31404 -1.88424,-1.046798 -1.88424,-1.046798 0,0 -1.72722,0.785098 -3.29742,0.471059 z" id="path32736" inkscape:connector-curvature="0" sodipodi:nodetypes="csssscc"/>
        <path inkscape:connector-curvature="0" style="opacity: 0.544248; color: rgb(0, 0, 0); fill: rgb(0, 177, 243); fill-opacity: 1; fill-rule: nonzero; stroke: none; stroke-width: 0; marker: none; visibility: visible; display: inline; overflow: visible;" d="m -134.8125,-565.28125 c -6.43381,-0.0443 -13.03559,2.34179 -18.875,6.8125 19.35411,-6.63091 35.97139,2.24166 39.9375,7.25 -1.22452,-6.67651 -6.08179,-9.94633 -12.46875,-12.4375 -2.76607,-1.07888 -5.66339,-1.60481 -8.59375,-1.625 z" transform="matrix(0.26458336,0,0,0.26458336,320.08182,94.083721)" id="path32738"/>
        <path style="color: rgb(0, 0, 0); fill: rgb(0, 177, 243); fill-opacity: 1; fill-rule: nonzero; stroke: none; stroke-width: 0; marker: none; visibility: visible; display: inline; overflow: visible;" d="m -158.28125,-553.78125 c -4.14638,5.87546 -3.23578,12.5667 7.125,15.96875 5.93461,1.18692 12.46875,-1.78125 12.46875,-1.78125 0,0 2.37731,2.75058 7.125,3.9375 4.74769,1.18693 17.20872,-0.57745 18,-9.875 0.1577,-1.85296 0.11841,-3.50242 -0.0937,-5 -0.79268,3.90898 -3.21509,9.29851 -8.68601,10.21726 -11.8634,1.99226 -14.93899,-3.24851 -14.93899,-3.24851 0,0 -6.33545,3.14535 -10.6875,2.15625 -3.76556,-0.85582 -13.01465,-3.78463 -10.3125,-12.375 z" transform="matrix(0.26458336,0,0,0.26458336,320.08182,94.083721)" id="path32740" inkscape:connector-curvature="0" sodipodi:nodetypes="cccsscscsc"/>
        <path inkscape:connector-curvature="0" style="color: rgb(0, 0, 0); fill: rgb(0, 88, 119); fill-opacity: 1; fill-rule: nonzero; stroke: none; stroke-width: 0; marker: none; visibility: visible; display: inline; overflow: visible;" d="m 284.86866,-54.956183 c -2.28284,2.310274 -2.04943,5.972496 -1.90169,5.23379 0.15702,-0.785101 1.05333,-3.506187 2.10013,-4.448308 0.2617,-0.235529 0.48581,-0.426664 0.67799,-0.578776 -0.28864,-0.09265 -0.58019,-0.156848 -0.87643,-0.206706 z" id="path32742"/>
      </g>
      <g id="g34446" transform="matrix(-0.71010006,0,0,0.71010006,426.94755,383.74212)">
        <path id="path34448" transform="matrix(0.26458336,0,0,0.26458336,320.08182,94.083721)" d="m -134.8125,-565.28125 c -6.4468,-0.0444 -13.05818,2.3557 -18.90625,6.84375 -3.91765,3.00657 -6.50378,6.69266 -6.84375,10.21875 -0.6436,2.82337 -0.0737,6.86458 -0.0312,7.59375 0.21271,3.65953 3.01196,7.01513 9.4375,9.125 5.93461,1.18692 12.46875,-1.78125 12.46875,-1.78125 0,0 2.37731,2.78183 7.125,3.96875 4.74769,1.18693 17.20872,-0.6087 18,-9.90625 0.0772,-0.9072 0.51512,-6.90001 0.5,-7.71875 -0.0272,-1.58043 -0.26439,-2.82943 -0.625,-3.84375 -1.08896,-6.97358 -6.00578,-10.32981 -12.53125,-12.875 -2.76607,-1.07888 -5.66339,-1.60481 -8.59375,-1.625 z" style="color: rgb(0, 0, 0); fill: rgb(0, 89, 121); fill-opacity: 1; fill-rule: nonzero; stroke: rgb(13, 13, 13); stroke-width: 14.0825; stroke-miterlimit: 4; stroke-opacity: 1; stroke-dasharray: none; marker: none; visibility: visible; display: inline; overflow: visible;" inkscape:connector-curvature="0"/>
        <path style="color: rgb(0, 0, 0); fill: rgb(0, 89, 121); fill-opacity: 1; fill-rule: nonzero; stroke: none; stroke-width: 0; marker: none; visibility: visible; display: inline; overflow: visible;" d="m 280.09046,-46.539205 c -1.70009,-0.558237 -2.44153,-1.450725 -2.49781,-2.418976 -0.0123,-0.211219 -0.20131,-1.472844 0.0581,-2.21199 0.284,-0.809097 0.83403,-0.114173 1.75553,-0.821372 2.25062,-1.727219 4.93704,-2.299689 7.27898,-1.386239 1.93348,0.754135 3.44274,0.416837 3.48288,2.751912 0.004,0.216625 -0.10897,1.805376 -0.1294,2.045407 -0.20936,2.459977 -3.5105,2.931039 -4.76666,2.616997 -1.25616,-0.31404 -1.88424,-1.046798 -1.88424,-1.046798 0,0 -1.72722,0.785098 -3.29742,0.471059 z" id="path34450" inkscape:connector-curvature="0" sodipodi:nodetypes="cssssssscc"/>
        <path sodipodi:nodetypes="csssscc" inkscape:connector-curvature="0" id="path34452" d="m 280.09046,-48.214084 c -3.50678,-1.15148 -2.93476,-3.725119 -0.68414,-5.452338 2.25062,-1.727219 4.93704,-2.299688 7.27898,-1.386239 2.11285,0.824096 3.59411,1.969902 3.35348,4.797319 -0.20936,2.459977 -3.5105,2.931039 -4.76666,2.616997 -1.25616,-0.31404 -1.88424,-1.046798 -1.88424,-1.046798 0,0 -1.72722,0.785098 -3.29742,0.471059 z" style="color: rgb(0, 0, 0); fill: rgb(0, 141, 193); fill-opacity: 1; fill-rule: nonzero; stroke: none; stroke-width: 0; marker: none; visibility: visible; display: inline; overflow: visible;"/>
        <path id="path34454" transform="matrix(0.26458336,0,0,0.26458336,320.08182,94.083721)" d="m -134.8125,-565.28125 c -6.43381,-0.0443 -13.03559,2.34179 -18.875,6.8125 19.35411,-6.63091 35.97139,2.24166 39.9375,7.25 -1.22452,-6.67651 -6.08179,-9.94633 -12.46875,-12.4375 -2.76607,-1.07888 -5.66339,-1.60481 -8.59375,-1.625 z" style="opacity: 0.544248; color: rgb(0, 0, 0); fill: rgb(0, 177, 243); fill-opacity: 1; fill-rule: nonzero; stroke: none; stroke-width: 0; marker: none; visibility: visible; display: inline; overflow: visible;" inkscape:connector-curvature="0"/>
        <path sodipodi:nodetypes="cccsscscsc" inkscape:connector-curvature="0" id="path34456" transform="matrix(0.26458336,0,0,0.26458336,320.08182,94.083721)" d="m -158.28125,-553.78125 c -4.14638,5.87546 -3.23578,12.5667 7.125,15.96875 5.93461,1.18692 12.46875,-1.78125 12.46875,-1.78125 0,0 2.37731,2.75058 7.125,3.9375 4.74769,1.18693 17.20872,-0.57745 18,-9.875 0.1577,-1.85296 0.11841,-3.50242 -0.0937,-5 -0.79268,3.90898 -3.21509,9.29851 -8.68601,10.21726 -11.8634,1.99226 -14.93899,-3.24851 -14.93899,-3.24851 0,0 -6.33545,3.14535 -10.6875,2.15625 -3.76556,-0.85582 -13.01465,-3.78463 -10.3125,-12.375 z" style="color: rgb(0, 0, 0); fill: rgb(0, 177, 243); fill-opacity: 1; fill-rule: nonzero; stroke: none; stroke-width: 0; marker: none; visibility: visible; display: inline; overflow: visible;"/>
        <path id="path34458" d="m 284.86866,-54.956183 c -2.28284,2.310274 -2.04943,5.972496 -1.90169,5.23379 0.15702,-0.785101 1.05333,-3.506187 2.10013,-4.448308 0.2617,-0.235529 0.48581,-0.426664 0.67799,-0.578776 -0.28864,-0.09265 -0.58019,-0.156848 -0.87643,-0.206706 z" style="color: rgb(0, 0, 0); fill: rgb(0, 88, 119); fill-opacity: 1; fill-rule: nonzero; stroke: none; stroke-width: 0; marker: none; visibility: visible; display: inline; overflow: visible;" inkscape:connector-curvature="0"/>
      </g>
      <g transform="translate(187.87544,659.94609)" id="g32939">
        <g transform="matrix(-0.53219972,-0.01426384,0.04714999,0.78736613,159.80045,-283.00884)" id="g32867">
          <g id="g32869" transform="translate(-2.0725574,2.8127567)">
            <path id="path32871" transform="matrix(-0.49794969,-0.0090208,0.02981881,0.33657618,-7.9722933,285.02232)" d="m -563.75,-944.96875 c -4.19949,0.14518 -8.88692,0.87389 -13.03125,2.28125 -6.45496,2.19202 -13.08157,4.68613 -16.875,6.59375 -0.38287,0.14618 -0.73697,0.31671 -1.0625,0.5 -0.9307,0.37791 -1.45275,0.77991 -1.8125,1.28125 -0.0835,0.11642 -0.18456,0.21199 -0.25,0.34375 -0.43112,0.86812 -0.61559,1.57641 -0.6875,2.0625 -0.0676,0.45837 -0.0352,0.71435 -0.0312,0.75 0.006,-0.0177 0.0226,-0.0215 0.0312,-0.0312 0.008,-0.0221 0.0231,-0.0407 0.0312,-0.0625 -0.006,0.25105 0.0573,0.58619 0.15625,1 0.0208,0.0868 0.0377,0.15712 0.0625,0.25 0.006,0.0219 -0.006,0.0403 0,0.0625 0.14223,0.52494 0.34989,1.14104 0.59375,1.8125 0.0163,0.0451 0.0145,0.0794 0.0312,0.125 0.49608,1.35224 1.17603,2.91768 1.84375,4.4375 0.3835,0.87291 0.69937,1.55463 1.0625,2.34375 0.28775,0.6239 0.60319,1.36661 0.84375,1.875 0.0505,0.10688 0.13972,0.27427 0.1875,0.375 0.39124,0.81977 0.76154,1.58366 0.8125,1.6875 0.007,0.0144 0.0937,0.1875 0.0937,0.1875 0.5402,1.36738 0.9375,2.40625 0.9375,2.40625 0,0 0.97459,-7.09062 7.3125,-14.3125 0.28735,0.19598 0.55398,0.41577 0.8125,0.625 0.0735,0.0596 0.14664,0.1272 0.21875,0.1875 0.1787,0.14941 0.35644,0.28505 0.53125,0.4375 0.1576,0.13745 0.30934,0.26801 0.46875,0.40625 0.0947,0.0821 0.18468,0.16803 0.28125,0.25 0.24928,0.21153 0.50737,0.41853 0.78125,0.625 0.0409,0.031 0.0833,0.063 0.125,0.0937 0.25058,0.18443 0.52711,0.35599 0.8125,0.53125 0.10533,0.0647 0.20128,0.12445 0.3125,0.1875 0.24038,0.13695 0.4775,0.2785 0.75,0.40625 0.39019,0.18353 0.80939,0.34071 1.28125,0.5 0.47186,0.15929 0.99039,0.30877 1.5625,0.4375 0.33529,0.0915 0.65834,0.15972 1,0.21875 0.0106,10e-4 0.0207,-10e-4 0.0312,0 2.79459,0.47489 5.77708,-0.0917 8.34375,-1.28125 3.74819,-1.25153 7.38622,-3.12721 9.5,-4.4375 2.92623,-1.81391 5.49111,-4.82433 5.71875,-5.90625 0.97715,-4.09464 -0.11012,-5.75579 -0.75,-6.34375 -0.004,-0.0136 -0.0272,-0.0177 -0.0312,-0.0312 -0.59308,-2.00883 -5.743,-3.0913 -12,-2.875 z m -11.125,16.21875 c 0.41939,0.0794 0.86033,0.12672 1.3125,0.15625 0.36849,0.0241 0.72613,0.0418 1.125,0.0312 0.1069,-0.002 0.20312,0.005 0.3125,0 -0.0528,0.007 -0.10355,0.0256 -0.15625,0.0312 -0.0212,0.002 -0.0414,-0.002 -0.0625,0 -0.33615,0.0336 -0.66739,0.0387 -1,0.0312 -0.0738,-0.002 -0.14511,0.004 -0.21875,0 -0.3632,-0.0185 -0.73522,-0.052 -1.09375,-0.125 -0.0847,-0.035 -0.13587,-0.0904 -0.21875,-0.125 z" style="color: rgb(0, 0, 0); fill: rgb(156, 237, 255); fill-opacity: 1; fill-rule: nonzero; stroke: rgb(13, 13, 13); stroke-width: 10; stroke-linecap: round; stroke-linejoin: round; stroke-miterlimit: 4; stroke-opacity: 1; stroke-dasharray: none; stroke-dashoffset: 37.6; marker: none; visibility: visible; display: inline; overflow: visible;" inkscape:connector-curvature="0"/>
            <path style="color: rgb(0, 0, 0); fill: rgb(0, 105, 144); fill-opacity: 1; fill-rule: nonzero; stroke: none; stroke-width: 0; marker: none; visibility: visible; display: inline; overflow: visible;" d="m -252.34377,-444.14087 c 17.90466,10.63089 21.26178,22.38082 21.26178,22.38082 0,0 9.51185,-17.90466 8.95233,-22.94034 -0.55952,-5.03569 -16.22609,-6.15473 -23.49986,-5.59521 -7.27377,0.55952 -6.71425,6.15473 -6.71425,6.15473 z" id="path32873" inkscape:connector-curvature="0" transform="matrix(0.26458336,0,0,0.26458336,320.08182,94.083721)"/>
          </g>
          <path style="color: rgb(0, 0, 0); fill: rgb(0, 89, 121); fill-opacity: 1; fill-rule: nonzero; stroke: none; stroke-width: 0; marker: none; visibility: visible; display: inline; overflow: visible;" d="m -314.80319,-447.63696 c 0,0 -4.53295,1.284 -1.42063,8.37606 0.55036,1.38407 5.70398,5.32224 11.41561,7.72948 7.84047,3.30446 26.21751,9.30373 36.149,7.62517 11.33029,-1.53868 10.71573,-5.72994 19.81546,-7.3125 9.09974,-1.58256 20.17284,-2.35514 11.46875,17.03125 0,0 9.4894,-14.64737 9.09375,-17.8125 -0.39564,-3.16513 -2.89087,-6.75071 -17.8125,-4.75 -10.84658,1.45432 -9.7539,3.29704 -24.78421,7.3244 -5.78389,0.69978 -12.15208,-1.32807 -18.71579,-4.16815 -7.01276,-3.03438 -4.03346,-8.06824 -7.87634,-9.8297 z" transform="matrix(0.26458336,0,0,0.26458336,320.08182,94.083721)" id="path32875" inkscape:connector-curvature="0" sodipodi:nodetypes="ccscscsscscc"/>
          <path style="color: rgb(0, 0, 0); fill: rgb(0, 163, 222); fill-opacity: 1; fill-rule: nonzero; stroke: none; stroke-width: 0; marker: none; visibility: visible; display: inline; overflow: visible;" d="m -228.1445,-431.83142 c -5.87497,-9.65173 -24.42454,-3.83789 -31.33315,-0.97916 -8.11305,3.35712 -12.58922,4.61604 -25.73795,2.0982 -13.14873,-2.51784 -27.47148,-9.40285 -30.24732,-15.66569 -2.26183,-5.10311 25.78686,-5.99948 47.00898,-0.84854 17.88186,4.3402 36.81243,9.52022 38.63088,11.75831 1.81844,2.23808 1.67856,3.63688 1.67856,3.63688 z" id="path32877" inkscape:connector-curvature="0" transform="matrix(0.26458336,0,0,0.26458336,320.08182,94.083721)" sodipodi:nodetypes="csssssc"/>
        </g>
        <path inkscape:connector-curvature="0" id="path32879" d="m 24.386222,-304.61346 c 4.515216,-0.29608 6.587771,1.25834 6.291692,1.25834 -0.296079,0 0.740201,-0.66618 -1.628437,-1.33236 -2.368637,-0.66618 -4.663255,0.074 -4.663255,0.074 z" style="color: rgb(0, 0, 0); fill: rgb(0, 88, 119); fill-opacity: 1; fill-rule: nonzero; stroke: none; stroke-width: 0; marker: none; visibility: visible; display: inline; overflow: visible;"/>
      </g>
    </g>
    <g id="g32465" transform="matrix(0.94399174,0,0,0.94399174,211.48326,630.3994)" gds_color="stalk">
      <path style="font-size: medium; font-style: normal; font-variant: normal; font-weight: normal; font-stretch: normal; text-indent: 0px; text-align: start; text-decoration: none; line-height: normal; letter-spacing: normal; word-spacing: normal; text-transform: none; direction: ltr; writing-mode: lr-tb; text-anchor: start; baseline-shift: baseline; color: rgb(0, 0, 0); fill: rgb(212, 124, 202); fill-opacity: 1; fill-rule: nonzero; stroke: rgb(13, 13, 13); stroke-width: 2.80281; stroke-linejoin: round; stroke-miterlimit: 4; stroke-opacity: 1; stroke-dasharray: none; marker: none; visibility: visible; display: inline; overflow: visible; font-family: Sans;" d="m 7.4514885,-291.50342 c -7.06154913,10.12822 -2.2500009,18.53372 2.0115583,21.90296 3.1627482,2.5005 8.9463262,3.11983 13.6024112,2.62612 4.656058,-0.49369 18.403555,-3.72705 22.92425,0.25632 0,0 3.902841,4.0966 2.409593,12.01651 0.108963,0.77542 8.807212,-0.31746 8.350542,-0.22698 0.231823,-9.48047 -1.420789,-13.42958 -6.094232,-17.59017 -3.102151,-2.76173 -9.192349,-2.18164 -13.807027,-1.82509 -4.614678,0.35658 -9.623876,2.1967 -14.064272,2.66756 -4.440371,0.47082 -8.18105,0.23619 -10.351824,-1.48003 -2.9501576,-2.33244 -4.2564056,-5.21494 -4.4565626,-8.20209 -0.200157,-2.98714 0.767662,-6.0924 2.5383326,-8.63203 1.770698,-2.53963 4.714169,-4.53694 7.495336,-5.28418 2.781191,-0.74726 5.891911,-0.42165 9.174812,1.68843 3.571728,2.29567 4.841777,4.5479 4.993595,6.49084 0.151818,1.94295 -0.825835,3.8301 -2.476894,5.35995 -1.651033,1.52983 -3.948405,2.61184 -5.989113,2.87508 -2.040682,0.26325 -3.668575,-0.20663 -4.635166,-1.56894 -1.648459,-2.32329 -1.527127,-4.14797 -0.926509,-5.26686 1.786119,-3.09365 4.929901,-1.91731 5.350584,-1.56094 1.27895,0.92858 2.089983,-0.16937 1.169401,-0.94927 -0.920599,-0.77989 -2.247166,-1.51561 -3.61551,-1.26522 -1.147889,0.21004 -3.373235,0.31508 -4.797456,2.96819 -1.039873,1.93712 -1.302804,4.66725 0.740809,7.54747 1.611964,2.27184 4.388364,2.96234 7.040394,2.62023 2.652031,-0.34209 5.335077,-1.6313 7.390821,-3.53613 2.055743,-1.90479 8.695056,-9.53551 -2.42301,-16.74504 -4.838946,-3.13782 -14.867991,-4.47752 -21.5548635,5.11331 z" id="path32434" inkscape:connector-curvature="0" sodipodi:nodetypes="ssssccsssssssssssscccsssssss"/>
      <g id="g32453">
        <path style="font-size: medium; font-style: normal; font-variant: normal; font-weight: normal; font-stretch: normal; text-indent: 0px; text-align: start; text-decoration: none; line-height: normal; letter-spacing: normal; word-spacing: normal; text-transform: none; direction: ltr; writing-mode: lr-tb; text-anchor: start; baseline-shift: baseline; color: rgb(0, 0, 0); fill: rgb(212, 124, 202); fill-opacity: 1; fill-rule: nonzero; stroke: none; stroke-width: 0; marker: none; visibility: visible; display: inline; overflow: visible; font-family: Sans;" d="m 7.4514885,-291.50342 c -7.06154913,10.12822 -2.2500009,18.53372 2.0115583,21.90296 3.1627482,2.5005 8.9463262,3.11983 13.6024112,2.62612 4.656058,-0.49369 18.403555,-3.72705 22.92425,0.25632 0,0 3.902841,4.0966 2.409593,12.01651 -0.321331,3.21375 8.350542,2.27034 8.350542,-0.22698 0.231823,-9.48047 -1.420789,-13.42958 -6.094232,-17.59017 -3.102151,-2.76173 -9.192349,-2.18164 -13.807027,-1.82509 -4.614678,0.35658 -9.623876,2.1967 -14.064272,2.66756 -4.440371,0.47082 -8.18105,0.23619 -10.351824,-1.48003 -2.9501576,-2.33244 -4.2564056,-5.21494 -4.4565626,-8.20209 -0.200157,-2.98714 0.767662,-6.0924 2.5383326,-8.63203 1.770698,-2.53963 4.714169,-4.53694 7.495336,-5.28418 2.781191,-0.74726 5.891911,-0.42165 9.174812,1.68843 3.571728,2.29567 4.841777,4.5479 4.993595,6.49084 0.151818,1.94295 -0.825835,3.8301 -2.476894,5.35995 -1.651033,1.52983 -3.948405,2.61184 -5.989113,2.87508 -2.040682,0.26325 -3.668575,-0.20663 -4.635166,-1.56894 -1.648459,-2.32329 -1.527127,-4.14797 -0.926509,-5.26686 1.786119,-3.09365 4.929901,-1.91731 5.350584,-1.56094 1.27895,0.92858 2.089983,-0.16937 1.169401,-0.94927 -0.920599,-0.77989 -2.247166,-1.51561 -3.61551,-1.26522 -1.147889,0.21004 -3.373235,0.31508 -4.797456,2.96819 -1.039873,1.93712 -1.302804,4.66725 0.740809,7.54747 1.611964,2.27184 4.388364,2.96234 7.040394,2.62023 2.652031,-0.34209 5.335077,-1.6313 7.390821,-3.53613 2.055743,-1.90479 8.695056,-9.53551 -2.42301,-16.74504 -4.838946,-3.13782 -14.867991,-4.47752 -21.5548635,5.11331 z" id="path32430" inkscape:connector-curvature="0" sodipodi:nodetypes="ssssccsssssssssssscccsssssss"/>
      </g>
      <path id="path32436" transform="matrix(0.26458336,0,0,0.26458336,320.08182,94.083721)" d="m -1191.9375,-1399.8125 c 4.0154,11.1655 11.1602,19.8918 17.9375,25.25 11.9537,9.4507 33.8084,11.8035 51.4062,9.9375 17.5977,-1.8659 69.5702,-14.0865 86.6563,0.9688 0,0 14.7375,15.4727 9.0937,45.4062 -1.2144,12.1465 31.56255,8.5949 31.56255,-0.8438 0.3511,-14.3583 -0.44368,-25.3651 -2.65625,-34.4062 -0.37189,3.8926 -0.65625,7.897 -0.65625,11.5312 0,12.6606 -15.02235,15.0209 -18.18745,-6.3437 -3.1652,-21.3646 -19.0157,-41.1392 -94.1876,-27.6875 -42.7836,7.656 -70.6896,-2.3696 -80.9687,-23.8125 z" style="color: rgb(0, 0, 0); fill: rgb(184, 60, 170); fill-opacity: 1; fill-rule: nonzero; stroke: none; stroke-width: 0; marker: none; visibility: visible; display: inline; overflow: visible;" inkscape:connector-curvature="0"/>
      <path sodipodi:nodetypes="cccscscccc" inkscape:connector-curvature="0" id="path32441" transform="matrix(0.26458336,0,0,0.26458336,320.08182,94.083721)" d="m -1133.0952,-1477.9241 -4.0312,0.031 c -32.2412,1.1515 -50.4825,29.1179 -42.4986,58.8929 -0.7565,-11.29 2.9015,-23.0264 9.5938,-32.625 6.6924,-9.5986 17.8322,-17.1445 28.3437,-19.9688 10.5116,-2.8242 22.2797,-1.6001 34.6875,6.375 13.4994,8.6766 18.3012,17.1879 18.875,24.5313 0.086,1.106 0.039,2.2199 -0.062,3.3125 0.06,-0.1231 0.1284,-0.2171 0.1875,-0.3438 5.3658,-11.4982 -4.5359,-39.6836 -45.0952,-40.2053 z" style="color: rgb(0, 0, 0); fill: rgb(184, 60, 170); fill-opacity: 1; fill-rule: nonzero; stroke: none; stroke-width: 0; marker: none; visibility: visible; display: inline; overflow: visible;"/>
      <path id="path32446" transform="matrix(0.26458336,0,0,0.26458336,320.08182,94.083721)" d="m -1049.4062,-1393.6562 c -7.2194,0.032 -14.5533,0.6821 -21.0938,1.1874 -7.8658,0.6078 -16.0179,2.3504 -24.1562,4.25 25.3858,-1.8717 56.2217,4.1578 69.1562,10.625 17.4082,8.7042 15.8159,35.6027 22.9375,32.4376 1.7291,-0.7685 3.56945,-2.7472 5.28125,-5.375 -3.06385,-15.1859 -9.68875,-24.9648 -21.03125,-35.0626 -7.3279,-6.5237 -19.0616,-8.1164 -31.0937,-8.0624 z m -68.5938,10.5 c -1.9005,0.3081 -3.8033,0.5535 -5.6562,0.75 -0.6042,0.064 -1.1841,0.1304 -1.7813,0.1874 -3.0504,2.3144 -0.5691,2.5556 7.3437,-0.9062 0.03,-0.013 0.064,-0.018 0.094,-0.031 z" style="color: rgb(0, 0, 0); fill: rgb(240, 175, 232); fill-opacity: 1; fill-rule: nonzero; stroke: none; stroke-width: 0; marker: none; visibility: visible; display: inline; overflow: visible;" inkscape:connector-curvature="0"/>
      <path id="path32451" transform="matrix(0.26458336,0,0,0.26458336,320.08182,94.083721)" d="m -1080.9688,-1458.1875 c 2.2706,9.7366 2.8914,29.196 -22.875,45.7813 -31.844,20.4973 -47.7459,-9.1057 -44,-26.8126 -0.1533,0.2629 -0.3198,0.5039 -0.4687,0.7813 -3.9302,7.3214 -4.9114,17.6454 2.8125,28.5313 6.0925,8.5864 16.5703,11.1992 26.5938,9.9062 10.0234,-1.2929 20.1677,-6.1756 27.9374,-13.375 6.013,-5.5714 22.3732,-24.087 10,-44.8125 z" style="color: rgb(0, 0, 0); fill: rgb(240, 175, 232); fill-opacity: 1; fill-rule: nonzero; stroke: none; stroke-width: 0; marker: none; visibility: visible; display: inline; overflow: visible;" inkscape:connector-curvature="0"/>
    </g>
    <g id="g32560" transform="matrix(0.66561712,0,0,0.66561712,41.61953,381.0208)" gds_color="leaves" gds_switchable="leaves">
      <path id="path32562" transform="matrix(0.26458336,0,0,0.26458336,320.08182,94.083721)" d="m -38.9375,-520.0625 c -8.371562,-0.10071 -17.236082,2.66412 -22.875,11.84375 0,0 -0.484192,1.19467 -1,3 -0.0051,0.0178 0.0051,0.0445 0,0.0625 -0.03599,0.0576 -0.08928,0.0981 -0.125,0.15625 0,0 -0.08532,0.34181 -0.1875,0.90625 -0.830486,3.25939 -1.551101,7.85506 -0.40625,11.625 0.686595,4.8786 2.837878,9.60791 8.28125,10.96875 12.309429,3.07736 15.526823,-5.3036 23.5,-10.96875 7.973177,-5.66514 20.84375,-5.53125 20.84375,-5.53125 0,0 0.897744,-1.84904 0.5625,-3.09375 0,0 -0.428614,-6.56403 -7.5625,-12.71875 -2.710096,-2.33812 -11.543479,-6.13586 -21.03125,-6.25 z" style="color: rgb(0, 0, 0); fill: rgb(0, 89, 121); fill-opacity: 1; fill-rule: nonzero; stroke: rgb(13, 13, 13); stroke-width: 15.0236; stroke-linejoin: round; stroke-miterlimit: 4; stroke-opacity: 1; stroke-dasharray: none; marker: none; visibility: visible; display: inline; overflow: visible;" inkscape:connector-curvature="0"/>
      <path style="color: rgb(0, 0, 0); fill: rgb(0, 89, 121); fill-opacity: 1; fill-rule: nonzero; stroke: none; stroke-width: 0; marker: none; visibility: visible; display: inline; overflow: visible;" d="m 303.42734,-39.527896 c 3.18286,-5.181391 10.56747,-2.570858 11.91721,-1.406377 1.25198,1.080141 1.82855,1.787588 2.00338,2.436365 0.0887,0.329329 -0.15289,0.820511 -0.15289,0.820511 0,0 -3.40491,-0.03701 -5.51448,1.461892 -2.10957,1.498905 -2.9608,3.719503 -6.21767,2.905285 -3.25688,-0.814221 -2.03555,-6.217676 -2.03555,-6.217676 z" id="path32564" inkscape:connector-curvature="0" sodipodi:nodetypes="csscssc"/>
      <path sodipodi:nodetypes="cscssc" transform="matrix(0.26458336,0,0,0.26458336,320.08182,94.083721)" inkscape:connector-curvature="0" id="path32566" d="m -61.82702,-508.20598 c 12.029691,-19.58321 38.821006,-9.99637 43.922363,-5.5952 7.133886,6.15472 7.571852,12.70531 7.571852,12.70531 0,0 -14.286099,-2.2143 -21.839626,3.10114 -7.553527,5.31545 -12.589213,14.68742 -24.898665,11.61006 -12.309452,-3.07737 -4.755924,-21.82131 -4.755924,-21.82131 z" style="color: rgb(0, 0, 0); fill: rgb(0, 141, 193); fill-opacity: 1; fill-rule: nonzero; stroke: none; stroke-width: 0; marker: none; visibility: visible; display: inline; overflow: visible;"/>
      <path id="path32568" transform="matrix(0.26458336,0,0,0.26458336,320.08182,94.083721)" d="m -38.9375,-520.0625 c -1.810845,-0.0218 -3.648096,0.0923 -5.46875,0.375 16.839165,1.37148 17.998798,12.99321 13.34375,17.78125 -4.895811,5.03569 -12.450956,13.4256 -17.90625,14.125 -5.455332,0.6994 -11.608644,0.55501 -14.40625,-6.71875 -0.297518,-0.77355 -0.534008,-1.45933 -0.75,-2.125 0.05682,4.49499 1.639319,8.8942 7.0625,10.25 12.309452,3.07736 17.321473,-6.30955 24.875,-11.625 7.553527,-5.31544 21.84375,-3.09375 21.84375,-3.09375 0,0 -0.428614,-6.56403 -7.5625,-12.71875 -2.710096,-2.33812 -11.543479,-6.13586 -21.03125,-6.25 z" style="color: rgb(0, 0, 0); fill: rgb(0, 177, 243); fill-opacity: 1; fill-rule: nonzero; stroke: none; stroke-width: 0; marker: none; visibility: visible; display: inline; overflow: visible;" inkscape:connector-curvature="0"/>
      <path sodipodi:nodetypes="ccc" transform="matrix(0.26458336,0,0,0.26458336,320.08182,94.083721)" inkscape:connector-curvature="0" id="path32570" d="m -59.029418,-502.33101 c 19.922131,-21.49699 46.688266,-4.32886 46.300326,-2.0982 0.177237,-1.35882 -23.210906,-15.03769 -46.300326,2.0982 z" style="color: rgb(0, 0, 0); fill: rgb(0, 88, 119); fill-opacity: 1; fill-rule: nonzero; stroke: none; stroke-width: 0; marker: none; visibility: visible; display: inline; overflow: visible;"/>
    </g>
    <g id="g34182" transform="translate(251.89796,48.353954)" gds_color="leaves" gds_switchable="leaves">
      <g id="g32572" transform="matrix(-0.62463429,0.59736303,0.59736303,0.62463429,177.97397,165.48413)">
        <path id="path32574" transform="matrix(0.26458336,0,0,0.26458336,320.08182,94.083721)" d="m -38.9375,-520.0625 c -8.371562,-0.10071 -17.236082,2.66412 -22.875,11.84375 0,0 -0.484192,1.19467 -1,3 -0.0051,0.0178 0.0051,0.0445 0,0.0625 -0.03599,0.0576 -0.08928,0.0981 -0.125,0.15625 0,0 -0.08532,0.34181 -0.1875,0.90625 -0.830486,3.25939 -1.551101,7.85506 -0.40625,11.625 0.686595,4.8786 2.837878,9.60791 8.28125,10.96875 12.309429,3.07736 15.526823,-5.3036 23.5,-10.96875 7.973177,-5.66514 20.84375,-5.53125 20.84375,-5.53125 0,0 0.897744,-1.84904 0.5625,-3.09375 0,0 -0.428614,-6.56403 -7.5625,-12.71875 -2.710096,-2.33812 -11.543479,-6.13586 -21.03125,-6.25 z" style="color: rgb(0, 0, 0); fill: rgb(0, 89, 121); fill-opacity: 1; fill-rule: nonzero; stroke: rgb(13, 13, 13); stroke-width: 11.5701; stroke-linejoin: round; stroke-miterlimit: 4; stroke-opacity: 1; stroke-dasharray: none; marker: none; visibility: visible; display: inline; overflow: visible;" inkscape:connector-curvature="0"/>
        <path style="color: rgb(0, 0, 0); fill: rgb(0, 89, 121); fill-opacity: 1; fill-rule: nonzero; stroke: none; stroke-width: 0; marker: none; visibility: visible; display: inline; overflow: visible;" d="m 303.42734,-39.527896 c 3.18286,-5.181391 10.56747,-2.570858 11.91721,-1.406377 1.25198,1.080141 1.82855,1.787588 2.00338,2.436365 0.0887,0.329329 -0.15289,0.820511 -0.15289,0.820511 0,0 -3.40491,-0.03701 -5.51448,1.461892 -2.10957,1.498905 -2.9608,3.719503 -6.21767,2.905285 -3.25688,-0.814221 -2.03555,-6.217676 -2.03555,-6.217676 z" id="path32576" inkscape:connector-curvature="0" sodipodi:nodetypes="csscssc"/>
        <path sodipodi:nodetypes="cscssc" transform="matrix(0.26458336,0,0,0.26458336,320.08182,94.083721)" inkscape:connector-curvature="0" id="path32578" d="m -61.82702,-508.20598 c 12.029691,-19.58321 38.821006,-9.99637 43.922363,-5.5952 7.133886,6.15472 7.571852,12.70531 7.571852,12.70531 0,0 -14.286099,-2.2143 -21.839626,3.10114 -7.553527,5.31545 -12.589213,14.68742 -24.898665,11.61006 -12.309452,-3.07737 -4.755924,-21.82131 -4.755924,-21.82131 z" style="color: rgb(0, 0, 0); fill: rgb(0, 141, 193); fill-opacity: 1; fill-rule: nonzero; stroke: none; stroke-width: 0; marker: none; visibility: visible; display: inline; overflow: visible;"/>
        <path id="path32580" transform="matrix(0.26458336,0,0,0.26458336,320.08182,94.083721)" d="m -38.9375,-520.0625 c -1.810845,-0.0218 -3.648096,0.0923 -5.46875,0.375 16.839165,1.37148 17.998798,12.99321 13.34375,17.78125 -4.895811,5.03569 -12.450956,13.4256 -17.90625,14.125 -5.455332,0.6994 -11.608644,0.55501 -14.40625,-6.71875 -0.297518,-0.77355 -0.534008,-1.45933 -0.75,-2.125 0.05682,4.49499 1.639319,8.8942 7.0625,10.25 12.309452,3.07736 17.321473,-6.30955 24.875,-11.625 7.553527,-5.31544 21.84375,-3.09375 21.84375,-3.09375 0,0 -0.428614,-6.56403 -7.5625,-12.71875 -2.710096,-2.33812 -11.543479,-6.13586 -21.03125,-6.25 z" style="color: rgb(0, 0, 0); fill: rgb(0, 177, 243); fill-opacity: 1; fill-rule: nonzero; stroke: none; stroke-width: 0; marker: none; visibility: visible; display: inline; overflow: visible;" inkscape:connector-curvature="0"/>
        <path sodipodi:nodetypes="ccc" transform="matrix(0.26458336,0,0,0.26458336,320.08182,94.083721)" inkscape:connector-curvature="0" id="path32582" d="m -59.029418,-502.33101 c 19.922131,-21.49699 46.688266,-4.32886 46.300326,-2.0982 0.177237,-1.35882 -23.210906,-15.03769 -46.300326,2.0982 z" style="color: rgb(0, 0, 0); fill: rgb(0, 88, 119); fill-opacity: 1; fill-rule: nonzero; stroke: none; stroke-width: 0; marker: none; visibility: visible; display: inline; overflow: visible;"/>
      </g>
      <g id="g32600" transform="matrix(-0.75648965,0.79787295,0.79787295,0.75648965,263.1873,113.55813)">
        <path id="path32602" transform="matrix(0.26458336,0,0,0.26458336,320.08182,94.083721)" d="m -38.9375,-520.0625 c -8.371562,-0.10071 -17.236082,2.66412 -22.875,11.84375 0,0 -0.484192,1.19467 -1,3 -0.0051,0.0178 0.0051,0.0445 0,0.0625 -0.03599,0.0576 -0.08928,0.0981 -0.125,0.15625 0,0 -0.08532,0.34181 -0.1875,0.90625 -0.830486,3.25939 -1.551101,7.85506 -0.40625,11.625 0.686595,4.8786 2.837878,9.60791 8.28125,10.96875 12.309429,3.07736 15.526823,-5.3036 23.5,-10.96875 7.973177,-5.66514 20.84375,-5.53125 20.84375,-5.53125 0,0 0.897744,-1.84904 0.5625,-3.09375 0,0 -0.428614,-6.56403 -7.5625,-12.71875 -2.710096,-2.33812 -11.543479,-6.13586 -21.03125,-6.25 z" style="color: rgb(0, 0, 0); fill: rgb(0, 89, 121); fill-opacity: 1; fill-rule: nonzero; stroke: rgb(13, 13, 13); stroke-width: 9.09513; stroke-linejoin: round; stroke-miterlimit: 4; stroke-opacity: 1; stroke-dasharray: none; marker: none; visibility: visible; display: inline; overflow: visible;" inkscape:connector-curvature="0"/>
        <path style="color: rgb(0, 0, 0); fill: rgb(0, 89, 121); fill-opacity: 1; fill-rule: nonzero; stroke: none; stroke-width: 0; marker: none; visibility: visible; display: inline; overflow: visible;" d="m 303.42734,-39.527896 c 3.18286,-5.181391 10.56747,-2.570858 11.91721,-1.406377 1.25198,1.080141 1.82855,1.787588 2.00338,2.436365 0.0887,0.329329 -0.15289,0.820511 -0.15289,0.820511 0,0 -3.40491,-0.03701 -5.51448,1.461892 -2.10957,1.498905 -2.9608,3.719503 -6.21767,2.905285 -3.25688,-0.814221 -2.03555,-6.217676 -2.03555,-6.217676 z" id="path32604" inkscape:connector-curvature="0" sodipodi:nodetypes="csscssc"/>
        <path sodipodi:nodetypes="cscssc" transform="matrix(0.26458336,0,0,0.26458336,320.08182,94.083721)" inkscape:connector-curvature="0" id="path32606" d="m -61.82702,-508.20598 c 12.029691,-19.58321 38.821006,-9.99637 43.922363,-5.5952 7.133886,6.15472 7.571852,12.70531 7.571852,12.70531 0,0 -14.286099,-2.2143 -21.839626,3.10114 -7.553527,5.31545 -12.589213,14.68742 -24.898665,11.61006 -12.309452,-3.07737 -4.755924,-21.82131 -4.755924,-21.82131 z" style="color: rgb(0, 0, 0); fill: rgb(0, 141, 193); fill-opacity: 1; fill-rule: nonzero; stroke: none; stroke-width: 0; marker: none; visibility: visible; display: inline; overflow: visible;"/>
        <path id="path32608" transform="matrix(0.26458336,0,0,0.26458336,320.08182,94.083721)" d="m -38.9375,-520.0625 c -1.810845,-0.0218 -3.648096,0.0923 -5.46875,0.375 16.839165,1.37148 17.998798,12.99321 13.34375,17.78125 -4.895811,5.03569 -12.450956,13.4256 -17.90625,14.125 -5.455332,0.6994 -11.608644,0.55501 -14.40625,-6.71875 -0.297518,-0.77355 -0.534008,-1.45933 -0.75,-2.125 0.05682,4.49499 1.639319,8.8942 7.0625,10.25 12.309452,3.07736 17.321473,-6.30955 24.875,-11.625 7.553527,-5.31544 21.84375,-3.09375 21.84375,-3.09375 0,0 -0.428614,-6.56403 -7.5625,-12.71875 -2.710096,-2.33812 -11.543479,-6.13586 -21.03125,-6.25 z" style="color: rgb(0, 0, 0); fill: rgb(0, 177, 243); fill-opacity: 1; fill-rule: nonzero; stroke: none; stroke-width: 0; marker: none; visibility: visible; display: inline; overflow: visible;" inkscape:connector-curvature="0"/>
        <path sodipodi:nodetypes="ccc" transform="matrix(0.26458336,0,0,0.26458336,320.08182,94.083721)" inkscape:connector-curvature="0" id="path32610" d="m -59.029418,-502.33101 c 19.922131,-21.49699 46.688266,-4.32886 46.300326,-2.0982 0.177237,-1.35882 -23.210906,-15.03769 -46.300326,2.0982 z" style="color: rgb(0, 0, 0); fill: rgb(0, 88, 119); fill-opacity: 1; fill-rule: nonzero; stroke: none; stroke-width: 0; marker: none; visibility: visible; display: inline; overflow: visible;"/>
      </g>
      <g transform="matrix(0.79322237,0.6213725,-0.6213725,0.79322237,-253.68978,173.74292)" id="g32612">
        <path inkscape:connector-curvature="0" style="color: rgb(0, 0, 0); fill: rgb(0, 89, 121); fill-opacity: 1; fill-rule: nonzero; stroke: rgb(13, 13, 13); stroke-width: 9.92434; stroke-linejoin: round; stroke-miterlimit: 4; stroke-opacity: 1; stroke-dasharray: none; marker: none; visibility: visible; display: inline; overflow: visible;" d="m -38.9375,-520.0625 c -8.371562,-0.10071 -17.236082,2.66412 -22.875,11.84375 0,0 -0.484192,1.19467 -1,3 -0.0051,0.0178 0.0051,0.0445 0,0.0625 -0.03599,0.0576 -0.08928,0.0981 -0.125,0.15625 0,0 -0.08532,0.34181 -0.1875,0.90625 -0.830486,3.25939 -1.551101,7.85506 -0.40625,11.625 0.686595,4.8786 2.837878,9.60791 8.28125,10.96875 12.309429,3.07736 15.526823,-5.3036 23.5,-10.96875 7.973177,-5.66514 20.84375,-5.53125 20.84375,-5.53125 0,0 0.897744,-1.84904 0.5625,-3.09375 0,0 -0.428614,-6.56403 -7.5625,-12.71875 -2.710096,-2.33812 -11.543479,-6.13586 -21.03125,-6.25 z" transform="matrix(0.26458336,0,0,0.26458336,320.08182,94.083721)" id="path32614"/>
        <path sodipodi:nodetypes="csscssc" inkscape:connector-curvature="0" id="path32616" d="m 303.42734,-39.527896 c 3.18286,-5.181391 10.56747,-2.570858 11.91721,-1.406377 1.25198,1.080141 1.82855,1.787588 2.00338,2.436365 0.0887,0.329329 -0.15289,0.820511 -0.15289,0.820511 0,0 -3.40491,-0.03701 -5.51448,1.461892 -2.10957,1.498905 -2.9608,3.719503 -6.21767,2.905285 -3.25688,-0.814221 -2.03555,-6.217676 -2.03555,-6.217676 z" style="color: rgb(0, 0, 0); fill: rgb(0, 89, 121); fill-opacity: 1; fill-rule: nonzero; stroke: none; stroke-width: 0; marker: none; visibility: visible; display: inline; overflow: visible;"/>
        <path style="color: rgb(0, 0, 0); fill: rgb(0, 141, 193); fill-opacity: 1; fill-rule: nonzero; stroke: none; stroke-width: 0; marker: none; visibility: visible; display: inline; overflow: visible;" d="m -61.82702,-508.20598 c 12.029691,-19.58321 38.821006,-9.99637 43.922363,-5.5952 7.133886,6.15472 7.571852,12.70531 7.571852,12.70531 0,0 -14.286099,-2.2143 -21.839626,3.10114 -7.553527,5.31545 -12.589213,14.68742 -24.898665,11.61006 -12.309452,-3.07737 -4.755924,-21.82131 -4.755924,-21.82131 z" id="path32618" inkscape:connector-curvature="0" transform="matrix(0.26458336,0,0,0.26458336,320.08182,94.083721)" sodipodi:nodetypes="cscssc"/>
        <path inkscape:connector-curvature="0" style="color: rgb(0, 0, 0); fill: rgb(0, 177, 243); fill-opacity: 1; fill-rule: nonzero; stroke: none; stroke-width: 0; marker: none; visibility: visible; display: inline; overflow: visible;" d="m -38.9375,-520.0625 c -1.810845,-0.0218 -3.648096,0.0923 -5.46875,0.375 16.839165,1.37148 17.998798,12.99321 13.34375,17.78125 -4.895811,5.03569 -12.450956,13.4256 -17.90625,14.125 -5.455332,0.6994 -11.608644,0.55501 -14.40625,-6.71875 -0.297518,-0.77355 -0.534008,-1.45933 -0.75,-2.125 0.05682,4.49499 1.639319,8.8942 7.0625,10.25 12.309452,3.07736 17.321473,-6.30955 24.875,-11.625 7.553527,-5.31544 21.84375,-3.09375 21.84375,-3.09375 0,0 -0.428614,-6.56403 -7.5625,-12.71875 -2.710096,-2.33812 -11.543479,-6.13586 -21.03125,-6.25 z" transform="matrix(0.26458336,0,0,0.26458336,320.08182,94.083721)" id="path32620"/>
        <path style="color: rgb(0, 0, 0); fill: rgb(0, 88, 119); fill-opacity: 1; fill-rule: nonzero; stroke: none; stroke-width: 0; marker: none; visibility: visible; display: inline; overflow: visible;" d="m -59.029418,-502.33101 c 19.922131,-21.49699 46.688266,-4.32886 46.300326,-2.0982 0.177237,-1.35882 -23.210906,-15.03769 -46.300326,2.0982 z" id="path32622" inkscape:connector-curvature="0" transform="matrix(0.26458336,0,0,0.26458336,320.08182,94.083721)" sodipodi:nodetypes="ccc"/>
      </g>
      <g id="g32794" transform="matrix(1.1451559,0.21681548,-0.14942365,1.1568151,-363.9864,302.43672)">
        <g transform="matrix(0.88676279,0,0,0.88676279,30.069783,-4.9306227)" id="g32796">
          <path sodipodi:nodetypes="ccsccscssccsc" inkscape:connector-curvature="0" style="color: rgb(0, 0, 0); fill: rgb(0, 105, 144); fill-opacity: 1; fill-rule: nonzero; stroke: rgb(13, 13, 13); stroke-width: 9.68014; stroke-linejoin: round; stroke-miterlimit: 4; stroke-opacity: 1; stroke-dasharray: none; marker: none; visibility: visible; display: inline; overflow: visible;" d="m -87.25,-476.14171 c -2.259094,-0.003 -4.082645,2.23 -5.34375,2.44523 -9.88482,1.77035 -14.20413,0.44047 -14.875,5.88398 -0.10434,0.84663 -0.17863,1.66184 -0.1875,2.4375 -0.001,0.0101 0.001,0.0211 0,0.0312 -0.77915,6.53672 1.06873,12.07644 8.34375,18.90625 11.146771,10.46462 16.625,16.21875 16.625,16.21875 0,0 6.52295,-13.05536 10.875,-19.78125 2.731842,-4.22191 5.644323,-13.43215 4.875,-19.15625 -0.08399,-0.62492 -0.249803,-1.15683 -0.4375,-1.625 -0.0035,-0.009 0.0035,-0.0226 0,-0.0312 -0.472677,-3.2459 -2.080162,-6.04085 -5.4375,-7.59375 -5.687338,-2.63062 -11.118506,-1.52225 -14.4375,2.26454 z" transform="matrix(0.26458336,0,0,0.26458336,320.08182,94.083721)" id="path32798"/>
          <path sodipodi:nodetypes="csscsssc" inkscape:connector-curvature="0" id="path32800" d="m 295.58671,-32.35969 c -2.61536,0.484326 -3.81531,1.831374 -3.99281,3.32059 -0.20615,1.729507 0.2884,3.194413 2.21325,5.001467 2.94925,2.768765 4.39656,4.291878 4.39656,4.291878 0,0 1.72722,-3.45444 2.8787,-5.233998 0.7228,-1.117047 1.4884,-3.552263 1.28485,-5.066765 -0.12072,-0.898238 -0.65021,-1.099389 -1.54655,-1.528073 -2.40764,-1.15148 -4.34422,-0.942118 -5.234,-0.785099 z" style="color: rgb(0, 0, 0); fill: rgb(0, 89, 121); fill-opacity: 1; fill-rule: nonzero; stroke: none; stroke-width: 0; marker: none; visibility: visible; display: inline; overflow: visible;"/>
          <path style="color: rgb(0, 0, 0); fill: rgb(0, 141, 193); fill-opacity: 1; fill-rule: nonzero; stroke: none; stroke-width: 0; marker: none; visibility: visible; display: inline; overflow: visible;" d="m 295.58671,-33.253552 c -2.61536,0.468404 -3.76297,2.12551 -3.94047,3.565773 -0.20615,1.672656 0.23606,2.735073 2.16091,4.482726 2.94925,2.677752 4.39656,4.150799 4.39656,4.150799 0,0 1.72722,-3.340888 2.8787,-5.06195 1.15148,-1.721063 2.14594,-5.264428 -0.2617,-6.378058 -2.40764,-1.113629 -4.34422,-0.911149 -5.234,-0.75929 z" id="path32802" inkscape:connector-curvature="0" sodipodi:nodetypes="csscssc"/>
          <path id="path32804" transform="matrix(0.29836994,0,0,0.29836994,327.04579,111.65821)" d="m -118.75,-470.21875 c 0.3286,3.80753 2.33833,6.95537 7.34375,11.5 9.88454,8.9746 14.75,13.9375 14.75,13.9375 0,0 5.765764,-11.20053 9.625,-16.96875 1.176601,-1.75861 2.323197,-4.10359 3.09375,-6.59375 -2.439116,3.66375 -8.465478,9.8602 -10.4375,10.21875 -2.176025,0.39564 -5.33343,-7.69869 -5.53125,-9.28125 -0.19783,-1.58256 0.603496,11.65654 -0.78125,12.25 -1.26199,0.54085 -14.01278,-8.25291 -18.0625,-15.0625 z" style="color: rgb(0, 0, 0); fill: rgb(0, 163, 222); fill-opacity: 1; fill-rule: nonzero; stroke: none; stroke-width: 0; marker: none; visibility: visible; display: inline; overflow: visible;" inkscape:connector-curvature="0"/>
          <path id="path32806" transform="matrix(0.29836994,0,0,0.29836994,327.04579,111.65821)" d="m -100.71875,-486.09375 c -2.00328,-0.003 -3.60045,0.21539 -4.71875,0.40625 -8.76549,1.56988 -12.62385,7.14165 -13.21875,11.96875 -0.47501,3.85411 0.0747,6.7309 2.5625,10.0625 -1.59814,-6.56491 -0.59207,-14.87277 10.84375,-18.1875 13.649611,-3.95641 21.76032,5.54359 21.5625,9.5 -0.03709,0.74183 0.09705,1.33364 0.3125,1.8125 1.068837,-5.07612 0.363627,-10.32967 -4.53125,-12.59375 -5.04332,-2.33274 -9.473699,-2.96378 -12.8125,-2.96875 z" style="color: rgb(0, 0, 0); fill: rgb(0, 163, 222); fill-opacity: 1; fill-rule: nonzero; stroke: none; stroke-width: 0; marker: none; visibility: visible; display: inline; overflow: visible;" inkscape:connector-curvature="0"/>
        </g>
        <path inkscape:connector-curvature="0" id="path32808" d="m 292.81269,-34.03457 c 0.0523,3.192738 1.67488,9.787576 1.67488,9.368857 0,-0.418721 -0.20936,-2.931038 -0.47106,-4.396557 -0.2617,-1.465522 -1.20382,-4.9723 -1.20382,-4.9723 z" style="color: rgb(0, 0, 0); fill: rgb(0, 88, 119); fill-opacity: 1; fill-rule: nonzero; stroke: none; stroke-width: 0; marker: none; visibility: visible; display: inline; overflow: visible;"/>
      </g>
    </g>
    <g transform="matrix(0.54697964,0.42847771,-0.42847771,0.54697964,36.76759,250.82642)" id="g34434" gds_color="leaves" gds_switchable="leaves">
      <path inkscape:connector-curvature="0" style="color: rgb(0, 0, 0); fill: rgb(0, 89, 121); fill-opacity: 1; fill-rule: nonzero; stroke: rgb(13, 13, 13); stroke-width: 14.3921; stroke-linejoin: round; stroke-miterlimit: 4; stroke-opacity: 1; stroke-dasharray: none; marker: none; visibility: visible; display: inline; overflow: visible;" d="m -38.9375,-520.0625 c -8.371562,-0.10071 -17.236082,2.66412 -22.875,11.84375 0,0 -0.484192,1.19467 -1,3 -0.0051,0.0178 0.0051,0.0445 0,0.0625 -0.03599,0.0576 -0.08928,0.0981 -0.125,0.15625 0,0 -0.08532,0.34181 -0.1875,0.90625 -0.830486,3.25939 -1.551101,7.85506 -0.40625,11.625 0.686595,4.8786 2.837878,9.60791 8.28125,10.96875 12.309429,3.07736 15.526823,-5.3036 23.5,-10.96875 7.973177,-5.66514 20.84375,-5.53125 20.84375,-5.53125 0,0 0.897744,-1.84904 0.5625,-3.09375 0,0 -0.428614,-6.56403 -7.5625,-12.71875 -2.710096,-2.33812 -11.543479,-6.13586 -21.03125,-6.25 z" transform="matrix(0.26458336,0,0,0.26458336,320.08182,94.083721)" id="path34436"/>
      <path sodipodi:nodetypes="csscssc" inkscape:connector-curvature="0" id="path34438" d="m 303.42734,-39.527896 c 3.18286,-5.181391 10.56747,-2.570858 11.91721,-1.406377 1.25198,1.080141 1.82855,1.787588 2.00338,2.436365 0.0887,0.329329 -0.15289,0.820511 -0.15289,0.820511 0,0 -3.40491,-0.03701 -5.51448,1.461892 -2.10957,1.498905 -2.9608,3.719503 -6.21767,2.905285 -3.25688,-0.814221 -2.03555,-6.217676 -2.03555,-6.217676 z" style="color: rgb(0, 0, 0); fill: rgb(0, 89, 121); fill-opacity: 1; fill-rule: nonzero; stroke: none; stroke-width: 0; marker: none; visibility: visible; display: inline; overflow: visible;"/>
      <path style="color: rgb(0, 0, 0); fill: rgb(0, 141, 193); fill-opacity: 1; fill-rule: nonzero; stroke: none; stroke-width: 0; marker: none; visibility: visible; display: inline; overflow: visible;" d="m -61.82702,-508.20598 c 12.029691,-19.58321 38.821006,-9.99637 43.922363,-5.5952 7.133886,6.15472 7.571852,12.70531 7.571852,12.70531 0,0 -14.286099,-2.2143 -21.839626,3.10114 -7.553527,5.31545 -12.589213,14.68742 -24.898665,11.61006 -12.309452,-3.07737 -4.755924,-21.82131 -4.755924,-21.82131 z" id="path34440" inkscape:connector-curvature="0" transform="matrix(0.26458336,0,0,0.26458336,320.08182,94.083721)" sodipodi:nodetypes="cscssc"/>
      <path inkscape:connector-curvature="0" style="color: rgb(0, 0, 0); fill: rgb(0, 177, 243); fill-opacity: 1; fill-rule: nonzero; stroke: none; stroke-width: 0; marker: none; visibility: visible; display: inline; overflow: visible;" d="m -38.9375,-520.0625 c -1.810845,-0.0218 -3.648096,0.0923 -5.46875,0.375 16.839165,1.37148 17.998798,12.99321 13.34375,17.78125 -4.895811,5.03569 -12.450956,13.4256 -17.90625,14.125 -5.455332,0.6994 -11.608644,0.55501 -14.40625,-6.71875 -0.297518,-0.77355 -0.534008,-1.45933 -0.75,-2.125 0.05682,4.49499 1.639319,8.8942 7.0625,10.25 12.309452,3.07736 17.321473,-6.30955 24.875,-11.625 7.553527,-5.31544 21.84375,-3.09375 21.84375,-3.09375 0,0 -0.428614,-6.56403 -7.5625,-12.71875 -2.710096,-2.33812 -11.543479,-6.13586 -21.03125,-6.25 z" transform="matrix(0.26458336,0,0,0.26458336,320.08182,94.083721)" id="path34442"/>
      <path style="color: rgb(0, 0, 0); fill: rgb(0, 88, 119); fill-opacity: 1; fill-rule: nonzero; stroke: none; stroke-width: 0; marker: none; visibility: visible; display: inline; overflow: visible;" d="m -59.029418,-502.33101 c 19.922131,-21.49699 46.688266,-4.32886 46.300326,-2.0982 0.177237,-1.35882 -23.210906,-15.03769 -46.300326,2.0982 z" id="path34444" inkscape:connector-curvature="0" transform="matrix(0.26458336,0,0,0.26458336,320.08182,94.083721)" sodipodi:nodetypes="ccc"/>
    </g>
  </g>
</svg>