<?xml version="1.0" encoding="UTF-8" standalone="no"?><!-- Created with Inkscape (http://www.inkscape.org/) --><svg xmlns:dc="http://purl.org/dc/elements/1.1/" xmlns:cc="http://creativecommons.org/ns#" xmlns:rdf="http://www.w3.org/1999/02/22-rdf-syntax-ns#" xmlns:svg="http://www.w3.org/2000/svg" xmlns="http://www.w3.org/2000/svg" xmlns:sodipodi="http://sodipodi.sourceforge.net/DTD/sodipodi-0.dtd" xmlns:inkscape="http://www.inkscape.org/namespaces/inkscape" width="229.77409" height="189.47792" viewBox="0 0 60.794389 50.132692" version="1.1" id="svg23489" inkscape:version="0.48.5 r10040" sodipodi:docname="stalk_04.svg">
  <defs id="defs23483">
    <clipPath clipPathUnits="userSpaceOnUse" id="clipPath22932">
      <path style="opacity: 0.39823; color: rgb(0, 0, 0); fill: rgb(186, 255, 81); fill-opacity: 1; fill-rule: nonzero; stroke: none; stroke-width: 0; marker: none; visibility: visible; display: inline; overflow: visible;" d="m 544.30169,181.88988 c 0.28587,0.59217 2.59866,1.15837 3.74216,0.1578 0.98015,2.77708 16.86469,0 16.86469,0 l 0,-16.17162 -30.55281,0 0,15.42079 c 0,0 6.65838,3.49263 9.94596,0.59303 z" id="path22934" inkscape:connector-curvature="0" sodipodi:nodetypes="ccccccc"/>
    </clipPath>
    <clipPath clipPathUnits="userSpaceOnUse" id="clipPath22874">
      <path style="opacity: 0.39823; color: rgb(0, 0, 0); fill: rgb(186, 255, 81); fill-opacity: 1; fill-rule: nonzero; stroke: none; stroke-width: 0; marker: none; visibility: visible; display: inline; overflow: visible;" d="m 507.96393,172.04108 c 5.63585,4.14521 4.40861,7.03756 4.24526,7.42553 -0.16336,0.38797 -0.45419,0.84609 -0.55527,0.75946 0,0 -0.23077,1.39392 -0.96715,1.52387 0,0 0.7281,2.05291 -3.23333,2.91054 -3.96143,0.85763 -12.08849,-2.45037 -11.76178,-7.80034 0.32672,-5.34998 9.00511,-7.35111 12.27227,-4.81906 z" id="path22876" inkscape:connector-curvature="0" sodipodi:nodetypes="csccssc"/>
    </clipPath>
    <clipPath clipPathUnits="userSpaceOnUse" id="clipPath22894">
      <path style="opacity: 0.39823; color: rgb(0, 0, 0); fill: rgb(186, 255, 81); fill-opacity: 1; fill-rule: nonzero; stroke: none; stroke-width: 0; marker: none; visibility: visible; display: inline; overflow: visible;" d="m 519.13353,181.84256 c 1.53,1.07862 2.21773,-0.85703 2.00114,-1.06183 0.0817,0.0408 1.9603,0.65343 4.32899,-2.85877 2.36869,-3.51219 0,-9.96483 -8.00455,-11.96597 -8.00454,-2.00113 -11.2717,3.47136 -11.47589,10.16904 -0.2042,6.69767 5.75836,9.27056 9.76064,9.7198 4.00227,0.44923 3.38967,-4.00227 3.38967,-4.00227 z" id="path22896" inkscape:connector-curvature="0" sodipodi:nodetypes="ccssssc"/>
    </clipPath>
    <clipPath clipPathUnits="userSpaceOnUse" id="clipPath23263">
      <path style="opacity: 0.39823; color: rgb(0, 0, 0); fill: rgb(186, 255, 81); fill-opacity: 1; fill-rule: nonzero; stroke: none; stroke-width: 0; marker: none; visibility: visible; display: inline; overflow: visible;" d="m 507.96393,172.04108 c 5.63585,4.14521 4.40861,7.03756 4.24526,7.42553 -0.16336,0.38797 -0.45419,0.84609 -0.55527,0.75946 0,0 -0.23077,1.39392 -0.96715,1.52387 0,0 0.7281,2.05291 -3.23333,2.91054 -3.96143,0.85763 -12.08849,-2.45037 -11.76178,-7.80034 0.32672,-5.34998 9.00511,-7.35111 12.27227,-4.81906 z" id="path23265" inkscape:connector-curvature="0" sodipodi:nodetypes="csccssc"/>
    </clipPath>
    <clipPath clipPathUnits="userSpaceOnUse" id="clipPath22907">
      <path style="opacity: 0.39823; color: rgb(0, 0, 0); fill: rgb(186, 255, 81); fill-opacity: 1; fill-rule: nonzero; stroke: none; stroke-width: 0; marker: none; visibility: visible; display: inline; overflow: visible;" d="m 525.58617,181.98549 c 0.89522,0.98185 2.40724,0.64233 3.04255,0.12252 0.16124,0.72559 12.13955,0.23486 11.90471,0 -0.23482,-0.23483 4.09811,-23.83249 0,-26.19853 -4.09811,-2.36605 -15.11061,0 -21.31822,0 -6.2076,0 -9.48879,8.76153 -8.08444,14.00265 1.40436,5.24112 4.81751,7.15803 7.00687,9.97898 2.18936,2.82095 7.44853,2.09438 7.44853,2.09438 z" id="path22909" inkscape:connector-curvature="0" sodipodi:nodetypes="ccsssssc"/>
    </clipPath>
    <clipPath clipPathUnits="userSpaceOnUse" id="clipPath23269">
      <path style="opacity: 0.39823; color: rgb(0, 0, 0); fill: rgb(186, 255, 81); fill-opacity: 1; fill-rule: nonzero; stroke: none; stroke-width: 0; marker: none; visibility: visible; display: inline; overflow: visible;" d="m 525.58617,181.98549 c 0.89522,0.98185 2.40724,0.64233 3.04255,0.12252 0.16124,0.72559 12.13955,0.23486 11.90471,0 -0.23482,-0.23483 4.09811,-23.83249 0,-26.19853 -4.09811,-2.36605 -15.11061,0 -21.31822,0 -6.2076,0 -9.48879,8.76153 -8.08444,14.00265 1.40436,5.24112 4.81751,7.15803 7.00687,9.97898 2.18936,2.82095 7.44853,2.09438 7.44853,2.09438 z" id="path23271" inkscape:connector-curvature="0" sodipodi:nodetypes="ccsssssc"/>
    </clipPath>
    <clipPath clipPathUnits="userSpaceOnUse" id="clipPath23273">
      <path style="opacity: 0.39823; color: rgb(0, 0, 0); fill: rgb(186, 255, 81); fill-opacity: 1; fill-rule: nonzero; stroke: none; stroke-width: 0; marker: none; visibility: visible; display: inline; overflow: visible;" d="m 507.96393,172.04108 c 5.63585,4.14521 4.40861,7.03756 4.24526,7.42553 -0.16336,0.38797 -0.45419,0.84609 -0.55527,0.75946 0,0 -0.23077,1.39392 -0.96715,1.52387 0,0 0.7281,2.05291 -3.23333,2.91054 -3.96143,0.85763 -12.08849,-2.45037 -11.76178,-7.80034 0.32672,-5.34998 9.00511,-7.35111 12.27227,-4.81906 z" id="path23275" inkscape:connector-curvature="0" sodipodi:nodetypes="csccssc"/>
    </clipPath>
    <clipPath clipPathUnits="userSpaceOnUse" id="clipPath23277">
      <path style="opacity: 0.39823; color: rgb(0, 0, 0); fill: rgb(186, 255, 81); fill-opacity: 1; fill-rule: nonzero; stroke: none; stroke-width: 0; marker: none; visibility: visible; display: inline; overflow: visible;" d="m 519.13353,181.84256 c 1.53,1.07862 2.21773,-0.85703 2.00114,-1.06183 0.0817,0.0408 1.9603,0.65343 4.32899,-2.85877 2.36869,-3.51219 0,-9.96483 -8.00455,-11.96597 -8.00454,-2.00113 -11.2717,3.47136 -11.47589,10.16904 -0.2042,6.69767 5.75836,9.27056 9.76064,9.7198 4.00227,0.44923 3.38967,-4.00227 3.38967,-4.00227 z" id="path23279" inkscape:connector-curvature="0" sodipodi:nodetypes="ccssssc"/>
    </clipPath>
    <clipPath clipPathUnits="userSpaceOnUse" id="clipPath23281">
      <path style="opacity: 0.39823; color: rgb(0, 0, 0); fill: rgb(186, 255, 81); fill-opacity: 1; fill-rule: nonzero; stroke: none; stroke-width: 0; marker: none; visibility: visible; display: inline; overflow: visible;" d="m 525.58617,181.98549 c 0.89522,0.98185 2.40724,0.64233 3.04255,0.12252 0.16124,0.72559 12.13955,0.23486 11.90471,0 -0.23482,-0.23483 4.09811,-23.83249 0,-26.19853 -4.09811,-2.36605 -15.11061,0 -21.31822,0 -6.2076,0 -9.48879,8.76153 -8.08444,14.00265 1.40436,5.24112 4.81751,7.15803 7.00687,9.97898 2.18936,2.82095 7.44853,2.09438 7.44853,2.09438 z" id="path23283" inkscape:connector-curvature="0" sodipodi:nodetypes="ccsssssc"/>
    </clipPath>
    <clipPath clipPathUnits="userSpaceOnUse" id="clipPath23285">
      <path style="opacity: 0.39823; color: rgb(0, 0, 0); fill: rgb(186, 255, 81); fill-opacity: 1; fill-rule: nonzero; stroke: none; stroke-width: 0; marker: none; visibility: visible; display: inline; overflow: visible;" d="m 544.30169,181.88988 c 0.28587,0.59217 2.59866,1.15837 3.74216,0.1578 0.98015,2.77708 16.86469,0 16.86469,0 l 0,-16.17162 -30.55281,0 0,15.42079 c 0,0 6.65838,3.49263 9.94596,0.59303 z" id="path23287" inkscape:connector-curvature="0" sodipodi:nodetypes="ccccccc"/>
    </clipPath>
    <clipPath clipPathUnits="userSpaceOnUse" id="clipPath23289">
      <path style="opacity: 0.39823; color: rgb(0, 0, 0); fill: rgb(186, 255, 81); fill-opacity: 1; fill-rule: nonzero; stroke: none; stroke-width: 0; marker: none; visibility: visible; display: inline; overflow: visible;" d="m 507.96393,172.04108 c 5.63585,4.14521 4.40861,7.03756 4.24526,7.42553 -0.16336,0.38797 -0.45419,0.84609 -0.55527,0.75946 0,0 -0.23077,1.39392 -0.96715,1.52387 0,0 0.7281,2.05291 -3.23333,2.91054 -3.96143,0.85763 -12.08849,-2.45037 -11.76178,-7.80034 0.32672,-5.34998 9.00511,-7.35111 12.27227,-4.81906 z" id="path23291" inkscape:connector-curvature="0" sodipodi:nodetypes="csccssc"/>
    </clipPath>
    <clipPath clipPathUnits="userSpaceOnUse" id="clipPath22919">
      <path style="opacity: 0.39823; color: rgb(0, 0, 0); fill: rgb(186, 255, 81); fill-opacity: 1; fill-rule: nonzero; stroke: none; stroke-width: 0; marker: none; visibility: visible; display: inline; overflow: visible;" d="m 533.24358,180.67863 c -0.16336,1.16393 0.51049,2.00114 2.00114,1.20477 -1.74256,1.5022 -0.71572,1.26164 1.42124,3.05207 2.13697,1.79043 11.4934,0.98185 12.12872,0.5198 0.63531,-0.46205 8.02805,-6.41089 8.0858,-8.66336 0.0578,-2.25248 -1.90593,-15.01651 -5.19801,-17.78878 -3.29208,-2.77228 -16.4604,-0.57756 -19.75248,-0.0578 -3.29208,0.5198 -10.16501,5.71782 -9.93399,5.77558 0.23102,0.0577 2.83003,15.42079 2.77228,15.65181 -0.0578,0.23102 2.42574,4.15842 2.83003,3.92739 0.40429,-0.23102 3.95121,-3.17246 3.95121,-3.17246 0,0 1.59196,0.89865 1.69406,-0.44906 z" id="path22921" inkscape:connector-curvature="0" sodipodi:nodetypes="ccsssssssscc"/>
    </clipPath>
    <clipPath clipPathUnits="userSpaceOnUse" id="clipPath23295">
      <path style="opacity: 0.39823; color: rgb(0, 0, 0); fill: rgb(186, 255, 81); fill-opacity: 1; fill-rule: nonzero; stroke: none; stroke-width: 0; marker: none; visibility: visible; display: inline; overflow: visible;" d="m 525.58617,181.98549 c 0.89522,0.98185 2.40724,0.64233 3.04255,0.12252 0.16124,0.72559 12.13955,0.23486 11.90471,0 -0.23482,-0.23483 4.09811,-23.83249 0,-26.19853 -4.09811,-2.36605 -15.11061,0 -21.31822,0 -6.2076,0 -9.48879,8.76153 -8.08444,14.00265 1.40436,5.24112 4.81751,7.15803 7.00687,9.97898 2.18936,2.82095 7.44853,2.09438 7.44853,2.09438 z" id="path23297" inkscape:connector-curvature="0" sodipodi:nodetypes="ccsssssc"/>
    </clipPath>
    <clipPath clipPathUnits="userSpaceOnUse" id="clipPath23299">
      <path style="opacity: 0.39823; color: rgb(0, 0, 0); fill: rgb(186, 255, 81); fill-opacity: 1; fill-rule: nonzero; stroke: none; stroke-width: 0; marker: none; visibility: visible; display: inline; overflow: visible;" d="m 525.58617,181.98549 c 0.89522,0.98185 2.40724,0.64233 3.04255,0.12252 0.16124,0.72559 12.13955,0.23486 11.90471,0 -0.23482,-0.23483 4.09811,-23.83249 0,-26.19853 -4.09811,-2.36605 -15.11061,0 -21.31822,0 -6.2076,0 -9.48879,8.76153 -8.08444,14.00265 1.40436,5.24112 4.81751,7.15803 7.00687,9.97898 2.18936,2.82095 7.44853,2.09438 7.44853,2.09438 z" id="path23301" inkscape:connector-curvature="0" sodipodi:nodetypes="ccsssssc"/>
    </clipPath>
  </defs>
  <sodipodi:namedview id="base" pagecolor="#7d848b" bordercolor="#666666" borderopacity="1.0" inkscape:pageopacity="0" inkscape:pageshadow="2" inkscape:zoom="0.8098268" inkscape:cx="-51.89741" inkscape:cy="23.278638" inkscape:document-units="px" inkscape:current-layer="layer1" showgrid="false" inkscape:pagecheckerboard="false" showborder="true" units="px" inkscape:window-width="1920" inkscape:window-height="1017" inkscape:window-x="-8" inkscape:window-y="-8" inkscape:window-maximized="1" inkscape:showpageshadow="false" guidetolerance="28" fit-margin-top="8" fit-margin-left="8" fit-margin-right="8" fit-margin-bottom="8">
    <inkscape:grid type="xygrid" id="grid24034" spacingx="1px" spacingy="1px" empspacing="8" visible="true" enabled="true" snapvisiblegridlinesonly="true" originx="-518.75605px" originy="362.88204px"/>
  </sodipodi:namedview>
  <metadata id="metadata23486">
    <rdf:RDF>
      <cc:Work rdf:about="">
        <dc:format>image/svg+xml</dc:format>
        <dc:type rdf:resource="http://purl.org/dc/dcmitype/StillImage"/>
        <dc:title/>
        <cc:license rdf:resource=""/>
        <dc:creator>
          <cc:Agent>
            <dc:title>Robert Brooks</dc:title>
          </cc:Agent>
        </dc:creator>
      </cc:Work>
    </rdf:RDF>
  </metadata>
  <g inkscape:label="Layer 1" inkscape:groupmode="layer" id="layer1" transform="translate(-137.25418,-342.8798)">
    <g id="g33946" gds_color="leaves" gds_switchable="leaves">
      <g transform="matrix(-0.7250002,0,0,0.52073227,369.78513,378.36906)" id="g30741">
        <path inkscape:connector-curvature="0" style="color: rgb(0, 0, 0); fill: rgb(0, 89, 121); fill-opacity: 1; fill-rule: nonzero; stroke: rgb(13, 13, 13); stroke-width: 16.2751; stroke-miterlimit: 4; stroke-opacity: 1; stroke-dasharray: none; marker: none; visibility: visible; display: inline; overflow: visible;" d="m -134.8125,-565.28125 c -6.4468,-0.0444 -13.05818,2.3557 -18.90625,6.84375 -3.91765,3.00657 -6.50378,6.69266 -6.84375,10.21875 -0.6436,2.82337 -0.0737,6.86458 -0.0312,7.59375 0.21271,3.65953 3.01196,7.01513 9.4375,9.125 5.93461,1.18692 12.46875,-1.78125 12.46875,-1.78125 0,0 2.37731,2.78183 7.125,3.96875 4.74769,1.18693 17.20872,-0.6087 18,-9.90625 0.0772,-0.9072 0.51512,-6.90001 0.5,-7.71875 -0.0272,-1.58043 -0.26439,-2.82943 -0.625,-3.84375 -1.08896,-6.97358 -6.00578,-10.32981 -12.53125,-12.875 -2.76607,-1.07888 -5.66339,-1.60481 -8.59375,-1.625 z" transform="matrix(0.26458336,0,0,0.26458336,320.08182,94.083721)" id="path30743"/>
        <path sodipodi:nodetypes="cssssssscc" inkscape:connector-curvature="0" id="path30745" d="m 280.09046,-46.539205 c -1.70009,-0.558237 -2.44153,-1.450725 -2.49781,-2.418976 -0.0123,-0.211219 -0.20131,-1.472844 0.0581,-2.21199 0.284,-0.809097 0.83403,-0.114173 1.75553,-0.821372 2.25062,-1.727219 4.93704,-2.299689 7.27898,-1.386239 1.93348,0.754135 3.44274,0.416837 3.48288,2.751912 0.004,0.216625 -0.10897,1.805376 -0.1294,2.045407 -0.20936,2.459977 -3.5105,2.931039 -4.76666,2.616997 -1.25616,-0.31404 -1.88424,-1.046798 -1.88424,-1.046798 0,0 -1.72722,0.785098 -3.29742,0.471059 z" style="color: rgb(0, 0, 0); fill: rgb(0, 89, 121); fill-opacity: 1; fill-rule: nonzero; stroke: none; stroke-width: 0; marker: none; visibility: visible; display: inline; overflow: visible;"/>
        <path style="color: rgb(0, 0, 0); fill: rgb(0, 141, 193); fill-opacity: 1; fill-rule: nonzero; stroke: none; stroke-width: 0; marker: none; visibility: visible; display: inline; overflow: visible;" d="m 280.09046,-48.214084 c -3.50678,-1.15148 -2.93476,-3.725119 -0.68414,-5.452338 2.25062,-1.727219 4.93704,-2.299688 7.27898,-1.386239 2.11285,0.824096 3.59411,1.969902 3.35348,4.797319 -0.20936,2.459977 -3.5105,2.931039 -4.76666,2.616997 -1.25616,-0.31404 -1.88424,-1.046798 -1.88424,-1.046798 0,0 -1.72722,0.785098 -3.29742,0.471059 z" id="path30747" inkscape:connector-curvature="0" sodipodi:nodetypes="csssscc"/>
        <path inkscape:connector-curvature="0" style="opacity: 0.544248; color: rgb(0, 0, 0); fill: rgb(0, 177, 243); fill-opacity: 1; fill-rule: nonzero; stroke: none; stroke-width: 0; marker: none; visibility: visible; display: inline; overflow: visible;" d="m -134.8125,-565.28125 c -6.43381,-0.0443 -13.03559,2.34179 -18.875,6.8125 19.35411,-6.63091 35.97139,2.24166 39.9375,7.25 -1.22452,-6.67651 -6.08179,-9.94633 -12.46875,-12.4375 -2.76607,-1.07888 -5.66339,-1.60481 -8.59375,-1.625 z" transform="matrix(0.26458336,0,0,0.26458336,320.08182,94.083721)" id="path30749"/>
        <path style="color: rgb(0, 0, 0); fill: rgb(0, 177, 243); fill-opacity: 1; fill-rule: nonzero; stroke: none; stroke-width: 0; marker: none; visibility: visible; display: inline; overflow: visible;" d="m -158.28125,-553.78125 c -4.14638,5.87546 -3.23578,12.5667 7.125,15.96875 5.93461,1.18692 12.46875,-1.78125 12.46875,-1.78125 0,0 2.37731,2.75058 7.125,3.9375 4.74769,1.18693 17.20872,-0.57745 18,-9.875 0.1577,-1.85296 0.11841,-3.50242 -0.0937,-5 -0.79268,3.90898 -3.21509,9.29851 -8.68601,10.21726 -11.8634,1.99226 -14.93899,-3.24851 -14.93899,-3.24851 0,0 -6.33545,3.14535 -10.6875,2.15625 -3.76556,-0.85582 -13.01465,-3.78463 -10.3125,-12.375 z" transform="matrix(0.26458336,0,0,0.26458336,320.08182,94.083721)" id="path30751" inkscape:connector-curvature="0" sodipodi:nodetypes="cccsscscsc"/>
        <path inkscape:connector-curvature="0" style="color: rgb(0, 0, 0); fill: rgb(0, 88, 119); fill-opacity: 1; fill-rule: nonzero; stroke: none; stroke-width: 0; marker: none; visibility: visible; display: inline; overflow: visible;" d="m 284.86866,-54.956183 c -2.28284,2.310274 -2.04943,5.972496 -1.90169,5.23379 0.15702,-0.785101 1.05333,-3.506187 2.10013,-4.448308 0.2617,-0.235529 0.48581,-0.426664 0.67799,-0.578776 -0.28864,-0.09265 -0.58019,-0.156848 -0.87643,-0.206706 z" id="path30753"/>
      </g>
      <g transform="matrix(1.0969947,0,0,1.0969947,-230.15746,585.01455)" id="g32090">
        <g transform="matrix(-0.53219972,-0.01426384,0.04714999,0.78736613,485.19199,-187.07903)" id="g32018">
          <g id="g32020" transform="translate(-2.0725574,2.8127567)">
            <path id="path32022" transform="matrix(-0.49794969,-0.0090208,0.02981881,0.33657618,-7.9722933,285.02232)" d="m -563.75,-944.96875 c -4.19949,0.14518 -8.88692,0.87389 -13.03125,2.28125 -6.45496,2.19202 -13.08157,4.68613 -16.875,6.59375 -0.38287,0.14618 -0.73697,0.31671 -1.0625,0.5 -0.9307,0.37791 -1.45275,0.77991 -1.8125,1.28125 -0.0835,0.11642 -0.18456,0.21199 -0.25,0.34375 -0.43112,0.86812 -0.61559,1.57641 -0.6875,2.0625 -0.0676,0.45837 -0.0352,0.71435 -0.0312,0.75 0.006,-0.0177 0.0226,-0.0215 0.0312,-0.0312 0.008,-0.0221 0.0231,-0.0407 0.0312,-0.0625 -0.006,0.25105 0.0573,0.58619 0.15625,1 0.0208,0.0868 0.0377,0.15712 0.0625,0.25 0.006,0.0219 -0.006,0.0403 0,0.0625 0.14223,0.52494 0.34989,1.14104 0.59375,1.8125 0.0163,0.0451 0.0145,0.0794 0.0312,0.125 0.49608,1.35224 1.17603,2.91768 1.84375,4.4375 0.3835,0.87291 0.69937,1.55463 1.0625,2.34375 0.28775,0.6239 0.60319,1.36661 0.84375,1.875 0.0505,0.10688 0.13972,0.27427 0.1875,0.375 0.39124,0.81977 0.76154,1.58366 0.8125,1.6875 0.007,0.0144 0.0937,0.1875 0.0937,0.1875 0.5402,1.36738 0.9375,2.40625 0.9375,2.40625 0,0 0.97459,-7.09062 7.3125,-14.3125 0.28735,0.19598 0.55398,0.41577 0.8125,0.625 0.0735,0.0596 0.14664,0.1272 0.21875,0.1875 0.1787,0.14941 0.35644,0.28505 0.53125,0.4375 0.1576,0.13745 0.30934,0.26801 0.46875,0.40625 0.0947,0.0821 0.18468,0.16803 0.28125,0.25 0.24928,0.21153 0.50737,0.41853 0.78125,0.625 0.0409,0.031 0.0833,0.063 0.125,0.0937 0.25058,0.18443 0.52711,0.35599 0.8125,0.53125 0.10533,0.0647 0.20128,0.12445 0.3125,0.1875 0.24038,0.13695 0.4775,0.2785 0.75,0.40625 0.39019,0.18353 0.80939,0.34071 1.28125,0.5 0.47186,0.15929 0.99039,0.30877 1.5625,0.4375 0.33529,0.0915 0.65834,0.15972 1,0.21875 0.0106,10e-4 0.0207,-10e-4 0.0312,0 2.79459,0.47489 5.77708,-0.0917 8.34375,-1.28125 3.74819,-1.25153 7.38622,-3.12721 9.5,-4.4375 2.92623,-1.81391 5.49111,-4.82433 5.71875,-5.90625 0.97715,-4.09464 -0.11012,-5.75579 -0.75,-6.34375 -0.004,-0.0136 -0.0272,-0.0177 -0.0312,-0.0312 -0.59308,-2.00883 -5.743,-3.0913 -12,-2.875 z m -11.125,16.21875 c 0.41939,0.0794 0.86033,0.12672 1.3125,0.15625 0.36849,0.0241 0.72613,0.0418 1.125,0.0312 0.1069,-0.002 0.20312,0.005 0.3125,0 -0.0528,0.007 -0.10355,0.0256 -0.15625,0.0312 -0.0212,0.002 -0.0414,-0.002 -0.0625,0 -0.33615,0.0336 -0.66739,0.0387 -1,0.0312 -0.0738,-0.002 -0.14511,0.004 -0.21875,0 -0.3632,-0.0185 -0.73522,-0.052 -1.09375,-0.125 -0.0847,-0.035 -0.13587,-0.0904 -0.21875,-0.125 z" style="color: rgb(0, 0, 0); fill: rgb(156, 237, 255); fill-opacity: 1; fill-rule: nonzero; stroke: rgb(13, 13, 13); stroke-width: 9.11581; stroke-linecap: round; stroke-linejoin: round; stroke-miterlimit: 4; stroke-opacity: 1; stroke-dasharray: none; stroke-dashoffset: 37.6; marker: none; visibility: visible; display: inline; overflow: visible;" inkscape:connector-curvature="0"/>
            <path style="color: rgb(0, 0, 0); fill: rgb(0, 105, 144); fill-opacity: 1; fill-rule: nonzero; stroke: none; stroke-width: 0; marker: none; visibility: visible; display: inline; overflow: visible;" d="m -252.34377,-444.14087 c 17.90466,10.63089 21.26178,22.38082 21.26178,22.38082 0,0 9.51185,-17.90466 8.95233,-22.94034 -0.55952,-5.03569 -16.22609,-6.15473 -23.49986,-5.59521 -7.27377,0.55952 -6.71425,6.15473 -6.71425,6.15473 z" id="path32024" inkscape:connector-curvature="0" transform="matrix(0.26458336,0,0,0.26458336,320.08182,94.083721)"/>
          </g>
          <path style="color: rgb(0, 0, 0); fill: rgb(0, 89, 121); fill-opacity: 1; fill-rule: nonzero; stroke: none; stroke-width: 0; marker: none; visibility: visible; display: inline; overflow: visible;" d="m -314.80319,-447.63696 c 0,0 -4.53295,1.284 -1.42063,8.37606 0.55036,1.38407 5.70398,5.32224 11.41561,7.72948 7.84047,3.30446 26.21751,9.30373 36.149,7.62517 11.33029,-1.53868 10.71573,-5.72994 19.81546,-7.3125 9.09974,-1.58256 20.17284,-2.35514 11.46875,17.03125 0,0 9.4894,-14.64737 9.09375,-17.8125 -0.39564,-3.16513 -2.89087,-6.75071 -17.8125,-4.75 -10.84658,1.45432 -9.7539,3.29704 -24.78421,7.3244 -5.78389,0.69978 -12.15208,-1.32807 -18.71579,-4.16815 -7.01276,-3.03438 -4.03346,-8.06824 -7.87634,-9.8297 z" transform="matrix(0.26458336,0,0,0.26458336,320.08182,94.083721)" id="path32026" inkscape:connector-curvature="0" sodipodi:nodetypes="ccscscsscscc"/>
          <path style="color: rgb(0, 0, 0); fill: rgb(0, 163, 222); fill-opacity: 1; fill-rule: nonzero; stroke: none; stroke-width: 0; marker: none; visibility: visible; display: inline; overflow: visible;" d="m -228.1445,-431.83142 c -5.87497,-9.65173 -24.42454,-3.83789 -31.33315,-0.97916 -8.11305,3.35712 -12.58922,4.61604 -25.73795,2.0982 -13.14873,-2.51784 -27.47148,-9.40285 -30.24732,-15.66569 -2.26183,-5.10311 25.78686,-5.99948 47.00898,-0.84854 17.88186,4.3402 36.81243,9.52022 38.63088,11.75831 1.81844,2.23808 1.67856,3.63688 1.67856,3.63688 z" id="path32028" inkscape:connector-curvature="0" transform="matrix(0.26458336,0,0,0.26458336,320.08182,94.083721)" sodipodi:nodetypes="csssssc"/>
        </g>
        <path inkscape:connector-curvature="0" id="path32030" d="m 349.77776,-208.68365 c 4.51522,-0.29608 6.58777,1.25834 6.29169,1.25834 -0.29608,0 0.7402,-0.66618 -1.62843,-1.33236 -2.36864,-0.66618 -4.66326,0.074 -4.66326,0.074 z" style="color: rgb(0, 0, 0); fill: rgb(0, 88, 119); fill-opacity: 1; fill-rule: nonzero; stroke: none; stroke-width: 0; marker: none; visibility: visible; display: inline; overflow: visible;"/>
      </g>
      <g transform="matrix(-0.54697964,0.42847771,0.42847771,0.54697964,361.73048,248.21503)" id="g32004">
        <path inkscape:connector-curvature="0" style="color: rgb(0, 0, 0); fill: rgb(0, 89, 121); fill-opacity: 1; fill-rule: nonzero; stroke: rgb(13, 13, 13); stroke-width: 14.3921; stroke-linejoin: round; stroke-miterlimit: 4; stroke-opacity: 1; stroke-dasharray: none; marker: none; visibility: visible; display: inline; overflow: visible;" d="m -38.9375,-520.0625 c -8.371562,-0.10071 -17.236082,2.66412 -22.875,11.84375 0,0 -0.484192,1.19467 -1,3 -0.0051,0.0178 0.0051,0.0445 0,0.0625 -0.03599,0.0576 -0.08928,0.0981 -0.125,0.15625 0,0 -0.08532,0.34181 -0.1875,0.90625 -0.830486,3.25939 -1.551101,7.85506 -0.40625,11.625 0.686595,4.8786 2.837878,9.60791 8.28125,10.96875 12.309429,3.07736 15.526823,-5.3036 23.5,-10.96875 7.973177,-5.66514 20.84375,-5.53125 20.84375,-5.53125 0,0 0.897744,-1.84904 0.5625,-3.09375 0,0 -0.428614,-6.56403 -7.5625,-12.71875 -2.710096,-2.33812 -11.543479,-6.13586 -21.03125,-6.25 z" transform="matrix(0.26458336,0,0,0.26458336,320.08182,94.083721)" id="path32006"/>
        <path sodipodi:nodetypes="csscssc" inkscape:connector-curvature="0" id="path32008" d="m 303.42734,-39.527896 c 3.18286,-5.181391 10.56747,-2.570858 11.91721,-1.406377 1.25198,1.080141 1.82855,1.787588 2.00338,2.436365 0.0887,0.329329 -0.15289,0.820511 -0.15289,0.820511 0,0 -3.40491,-0.03701 -5.51448,1.461892 -2.10957,1.498905 -2.9608,3.719503 -6.21767,2.905285 -3.25688,-0.814221 -2.03555,-6.217676 -2.03555,-6.217676 z" style="color: rgb(0, 0, 0); fill: rgb(0, 89, 121); fill-opacity: 1; fill-rule: nonzero; stroke: none; stroke-width: 0; marker: none; visibility: visible; display: inline; overflow: visible;"/>
        <path style="color: rgb(0, 0, 0); fill: rgb(0, 141, 193); fill-opacity: 1; fill-rule: nonzero; stroke: none; stroke-width: 0; marker: none; visibility: visible; display: inline; overflow: visible;" d="m -61.82702,-508.20598 c 12.029691,-19.58321 38.821006,-9.99637 43.922363,-5.5952 7.133886,6.15472 7.571852,12.70531 7.571852,12.70531 0,0 -14.286099,-2.2143 -21.839626,3.10114 -7.553527,5.31545 -12.589213,14.68742 -24.898665,11.61006 -12.309452,-3.07737 -4.755924,-21.82131 -4.755924,-21.82131 z" id="path32010" inkscape:connector-curvature="0" transform="matrix(0.26458336,0,0,0.26458336,320.08182,94.083721)" sodipodi:nodetypes="cscssc"/>
        <path inkscape:connector-curvature="0" style="color: rgb(0, 0, 0); fill: rgb(0, 177, 243); fill-opacity: 1; fill-rule: nonzero; stroke: none; stroke-width: 0; marker: none; visibility: visible; display: inline; overflow: visible;" d="m -38.9375,-520.0625 c -1.810845,-0.0218 -3.648096,0.0923 -5.46875,0.375 16.839165,1.37148 17.998798,12.99321 13.34375,17.78125 -4.895811,5.03569 -12.450956,13.4256 -17.90625,14.125 -5.455332,0.6994 -11.608644,0.55501 -14.40625,-6.71875 -0.297518,-0.77355 -0.534008,-1.45933 -0.75,-2.125 0.05682,4.49499 1.639319,8.8942 7.0625,10.25 12.309452,3.07736 17.321473,-6.30955 24.875,-11.625 7.553527,-5.31544 21.84375,-3.09375 21.84375,-3.09375 0,0 -0.428614,-6.56403 -7.5625,-12.71875 -2.710096,-2.33812 -11.543479,-6.13586 -21.03125,-6.25 z" transform="matrix(0.26458336,0,0,0.26458336,320.08182,94.083721)" id="path32012"/>
        <path style="color: rgb(0, 0, 0); fill: rgb(0, 88, 119); fill-opacity: 1; fill-rule: nonzero; stroke: none; stroke-width: 0; marker: none; visibility: visible; display: inline; overflow: visible;" d="m -59.029418,-502.33101 c 19.922131,-21.49699 46.688266,-4.32886 46.300326,-2.0982 0.177237,-1.35882 -23.210906,-15.03769 -46.300326,2.0982 z" id="path32014" inkscape:connector-curvature="0" transform="matrix(0.26458336,0,0,0.26458336,320.08182,94.083721)" sodipodi:nodetypes="ccc"/>
      </g>
      <g transform="matrix(-0.83394309,0,0,0.83394309,416.04291,392.58788)" id="g32205">
        <path inkscape:connector-curvature="0" style="color: rgb(0, 0, 0); fill: rgb(0, 89, 121); fill-opacity: 1; fill-rule: nonzero; stroke: rgb(13, 13, 13); stroke-width: 11.9912; stroke-miterlimit: 4; stroke-opacity: 1; stroke-dasharray: none; marker: none; visibility: visible; display: inline; overflow: visible;" d="m -134.8125,-565.28125 c -6.4468,-0.0444 -13.05818,2.3557 -18.90625,6.84375 -3.91765,3.00657 -6.50378,6.69266 -6.84375,10.21875 -0.6436,2.82337 -0.0737,6.86458 -0.0312,7.59375 0.21271,3.65953 3.01196,7.01513 9.4375,9.125 5.93461,1.18692 12.46875,-1.78125 12.46875,-1.78125 0,0 2.37731,2.78183 7.125,3.96875 4.74769,1.18693 17.20872,-0.6087 18,-9.90625 0.0772,-0.9072 0.51512,-6.90001 0.5,-7.71875 -0.0272,-1.58043 -0.26439,-2.82943 -0.625,-3.84375 -1.08896,-6.97358 -6.00578,-10.32981 -12.53125,-12.875 -2.76607,-1.07888 -5.66339,-1.60481 -8.59375,-1.625 z" transform="matrix(0.26458336,0,0,0.26458336,320.08182,94.083721)" id="path32207"/>
        <path sodipodi:nodetypes="cssssssscc" inkscape:connector-curvature="0" id="path32209" d="m 280.09046,-46.539205 c -1.70009,-0.558237 -2.44153,-1.450725 -2.49781,-2.418976 -0.0123,-0.211219 -0.20131,-1.472844 0.0581,-2.21199 0.284,-0.809097 0.83403,-0.114173 1.75553,-0.821372 2.25062,-1.727219 4.93704,-2.299689 7.27898,-1.386239 1.93348,0.754135 3.44274,0.416837 3.48288,2.751912 0.004,0.216625 -0.10897,1.805376 -0.1294,2.045407 -0.20936,2.459977 -3.5105,2.931039 -4.76666,2.616997 -1.25616,-0.31404 -1.88424,-1.046798 -1.88424,-1.046798 0,0 -1.72722,0.785098 -3.29742,0.471059 z" style="color: rgb(0, 0, 0); fill: rgb(0, 89, 121); fill-opacity: 1; fill-rule: nonzero; stroke: none; stroke-width: 0; marker: none; visibility: visible; display: inline; overflow: visible;"/>
        <path style="color: rgb(0, 0, 0); fill: rgb(0, 141, 193); fill-opacity: 1; fill-rule: nonzero; stroke: none; stroke-width: 0; marker: none; visibility: visible; display: inline; overflow: visible;" d="m 280.09046,-48.214084 c -3.50678,-1.15148 -2.93476,-3.725119 -0.68414,-5.452338 2.25062,-1.727219 4.93704,-2.299688 7.27898,-1.386239 2.11285,0.824096 3.59411,1.969902 3.35348,4.797319 -0.20936,2.459977 -3.5105,2.931039 -4.76666,2.616997 -1.25616,-0.31404 -1.88424,-1.046798 -1.88424,-1.046798 0,0 -1.72722,0.785098 -3.29742,0.471059 z" id="path32211" inkscape:connector-curvature="0" sodipodi:nodetypes="csssscc"/>
        <path inkscape:connector-curvature="0" style="opacity: 0.544248; color: rgb(0, 0, 0); fill: rgb(0, 177, 243); fill-opacity: 1; fill-rule: nonzero; stroke: none; stroke-width: 0; marker: none; visibility: visible; display: inline; overflow: visible;" d="m -134.8125,-565.28125 c -6.43381,-0.0443 -13.03559,2.34179 -18.875,6.8125 19.35411,-6.63091 35.97139,2.24166 39.9375,7.25 -1.22452,-6.67651 -6.08179,-9.94633 -12.46875,-12.4375 -2.76607,-1.07888 -5.66339,-1.60481 -8.59375,-1.625 z" transform="matrix(0.26458336,0,0,0.26458336,320.08182,94.083721)" id="path32213"/>
        <path style="color: rgb(0, 0, 0); fill: rgb(0, 177, 243); fill-opacity: 1; fill-rule: nonzero; stroke: none; stroke-width: 0; marker: none; visibility: visible; display: inline; overflow: visible;" d="m -158.28125,-553.78125 c -4.14638,5.87546 -3.23578,12.5667 7.125,15.96875 5.93461,1.18692 12.46875,-1.78125 12.46875,-1.78125 0,0 2.37731,2.75058 7.125,3.9375 4.74769,1.18693 17.20872,-0.57745 18,-9.875 0.1577,-1.85296 0.11841,-3.50242 -0.0937,-5 -0.79268,3.90898 -3.21509,9.29851 -8.68601,10.21726 -11.8634,1.99226 -14.93899,-3.24851 -14.93899,-3.24851 0,0 -6.33545,3.14535 -10.6875,2.15625 -3.76556,-0.85582 -13.01465,-3.78463 -10.3125,-12.375 z" transform="matrix(0.26458336,0,0,0.26458336,320.08182,94.083721)" id="path32215" inkscape:connector-curvature="0" sodipodi:nodetypes="cccsscscsc"/>
        <path inkscape:connector-curvature="0" style="color: rgb(0, 0, 0); fill: rgb(0, 88, 119); fill-opacity: 1; fill-rule: nonzero; stroke: none; stroke-width: 0; marker: none; visibility: visible; display: inline; overflow: visible;" d="m 284.86866,-54.956183 c -2.28284,2.310274 -2.04943,5.972496 -1.90169,5.23379 0.15702,-0.785101 1.05333,-3.506187 2.10013,-4.448308 0.2617,-0.235529 0.48581,-0.426664 0.67799,-0.578776 -0.28864,-0.09265 -0.58019,-0.156848 -0.87643,-0.206706 z" id="path32217"/>
      </g>
    </g>
    <path style="opacity: 0.25; color: rgb(0, 0, 0); fill: rgb(0, 0, 0); fill-opacity: 1; fill-rule: nonzero; stroke: none; stroke-width: 0; marker: none; visibility: visible; display: inline; overflow: visible;" d="m 340.21875,-133.53125 c -10.72881,-0.34609 -25.65155,4.92851 -27.8125,5.46875 -2.46966,0.61741 8.04761,-2.47058 27.1875,2.46875 0,0 0.86774,0.96373 2.34375,2.125 -10.66791,1.35157 -20.16648,4.41936 -28.53125,8.53125 -15.00594,-1.35488 -24.46875,2.3125 -24.46875,2.3125 0,0 4.14345,3.95229 8.8125,7.4375 -14.75489,11.2765 -24.3717,25.173435 -29.1875,34.8125 -3.62682,-3.250495 -8.625,-5.21875 -8.625,-5.21875 -41.36687,1.234831 -52.5,18.53125 -52.5,18.53125 0,0 21.20728,5.986415 36.53125,5.625 2.82677,5.00771 9.99491,8.59375 18.4375,8.59375 7.46113,0 13.9529,-2.771784 17.3125,-6.875 1.01674,0.0159 1.98763,0.0625 3.0625,0.0625 16.67024,0 27.78125,-9.25 27.78125,-9.25 0,0 -13.93263,0.539346 -26.96875,-6.28125 7.68405,-13.162119 22.14266,-31.103288 44.25,-40.03125 11.41633,-4.61044 20.30586,-6.93556 27.03125,-8.15625 2.35839,1.96248 5.98476,3.21875 10.03125,3.21875 7.10527,0 12.84375,-3.8824 12.84375,-8.65625 0,-4.77385 -5.73848,-8.625 -12.84375,-8.625 -6.56367,0 -7.05627,-1.01675 -7.84375,3.25 -0.29434,-0.009 -0.58216,-0.0253 -0.875,-0.0312 -1.25512,-3.31928 -5.63522,-7.36454 -11.65625,-8.78125 -1.31201,-0.30871 -2.77981,-0.48181 -4.3125,-0.53125 z m 43.21875,9.125 c -0.23816,0.006 -0.43206,0.0239 -0.625,0.0625 -3.08708,0.61742 -2.46875,5.53125 -2.46875,5.53125 11.7309,2.46967 20.96208,1.2585 17.875,-0.59375 -2.89414,-1.73648 -11.2088,-5.09496 -14.78125,-5 z m -45.09375,17.34375 c -17.28765,1.23483 -11.10317,15.421418 -6.78125,16.65625 4.32191,1.234832 17.88926,-2.453582 21.59375,-1.21875 3.7045,1.234832 6.80674,0.0027 1.25,-7.40625 -5.55675,-7.409 -16.0625,-8.03125 -16.0625,-8.03125 z" transform="matrix(0.2645833,0,0,0.2645833,90.014161,402.23157)" id="path34774" gds_color="shadow" inkscape:connector-curvature="0" gds_switchable="shadow"/>
    <g id="g31747" transform="matrix(1.0860168,0.10678581,-0.10678581,1.0860168,9.486203,352.5745)" gds_color="stalk">
      <path sodipodi:nodetypes="cccsccccccscccccc" inkscape:connector-curvature="0" id="path31736" d="m 148.9708,-17.347215 c -4.16449,-0.07431 -8.32285,2.099149 -10.45104,5.713334 -3.73158,5.9672305 -3.92692,13.3400999 -3.2825,20.141395 0.31482,2.965402 0.59483,4.896869 1.06133,7.433408 0.11142,0.605876 0.84512,5.573589 1.86099,-2.085387 0.94916,3.267756 1.57235,1.661174 2.46381,1.318512 0.48608,2.28627 2.78188,4.868058 1.21777,-1.698251 -1.44386,-7.2374718 -2.35995,-12.8241535 -0.66722,-20.139124 0.73177,-2.8930074 2.33621,-5.920018 5.1758,-7.186439 2.97605,-1.085064 6.22689,0.31219 8.29281,2.519654 2.76456,2.8652188 4.82637,6.3790302 6.18458,10.1166847 1.30298,3.5856566 -0.0862,-2.6221277 -0.56884,-3.9087518 -0.19001,1.2774457 0.77712,-1.4200235 1.58425,1.2849218 0.4408,1.4767937 4.22847,5.8476522 1.31278,-0.3610318 -2.02175,-4.5253147 -4.74101,-9.0691739 -9.02442,-11.7717369 -1.54037,-0.96089 -3.34917,-1.416653 -5.16035,-1.377188 z" style="color: rgb(0, 0, 0); fill: rgb(212, 124, 202); fill-opacity: 1; fill-rule: nonzero; stroke: rgb(13, 13, 13); stroke-width: 2.42458; stroke-linejoin: round; stroke-miterlimit: 4; stroke-opacity: 1; stroke-dasharray: none; marker: none; visibility: visible; display: inline; overflow: visible;"/>
      <g id="g31729">
        <path style="color: rgb(0, 0, 0); fill: rgb(212, 124, 202); fill-opacity: 1; fill-rule: nonzero; stroke: none; stroke-width: 0; marker: none; visibility: visible; display: inline; overflow: visible;" d="m 140.33299,-13.968343 c -8.14755,8.7653254 -4.80419,24.768864 -4.1447,29.164552 l 0.6611,3.616606 c -0.0899,2.566706 6.28689,2.064542 6.04572,-0.27338 -0.10468,-0.68042 -1.93553,-8.5450572 -2.34879,-14.0510741 -0.4894,-6.5203924 0.0284,-13.4786089 3.75998,-16.9239369 1.10559,-1.293019 2.8366,-1.887309 4.5278,-1.753189 7.21323,0 12.39317,13.21142038 12.7433,15.2605634 0.10373,1.445812 3.22991,1.055594 3.15737,-0.20600402 C 164.1106,-3.7055766 158.16015,-16.660528 150.2182,-17.292991 c -3.30245,-0.262994 -6.75728,0.441069 -9.88521,3.324648 z" id="path30444" inkscape:connector-curvature="0" sodipodi:nodetypes="ccccsccccsc"/>
        <path style="color: rgb(0, 0, 0); fill: rgb(184, 60, 170); fill-opacity: 1; fill-rule: nonzero; stroke: none; stroke-width: 0; marker: none; visibility: visible; display: inline; overflow: visible;" d="m -647.28125,-413.1875 c -3.73671,0.0308 -7.68232,0.85027 -11.84375,2.625 -38.0474,16.2261 -23.49107,83.92565 -21.8125,93.4375 1.42099,8.05227 -8.76051,21.29266 -16,6.84375 0.75347,5.06671 1.47902,9.2774 1.90625,12.125 l 2.5,13.65625 c -0.33978,9.70094 23.75526,7.80499 22.84375,-1.03125 -0.39564,-2.57167 -7.31307,-32.28361 -8.875,-53.09375 -1.8497,-24.644 0.11514,-50.94704 14.21875,-63.96875 4.17861,-4.887 10.70181,-7.13191 17.09375,-6.625 27.2626,0 46.86417,49.94271 48.1875,57.6875 0.39205,5.46449 12.21167,3.98699 11.9375,-0.78125 -0.35657,-2.61151 -1.17337,-5.96092 -2.40625,-9.75 -0.70814,3.25222 -2.56699,7.45088 -6.34375,4.09375 -4.48491,-3.98658 -20.97875,-55.46925 -51.40625,-55.21875 z" transform="matrix(0.26458336,0,0,0.26458336,320.08182,94.083721)" id="path31719" inkscape:connector-curvature="0"/>
        <path style="color: rgb(0, 0, 0); fill: rgb(233, 198, 229); fill-opacity: 1; fill-rule: nonzero; stroke: none; stroke-width: 0; marker: none; visibility: visible; display: inline; overflow: visible;" d="m -646.71875,-421.15625 c -11.0227,-0.008 -22.31192,3.24501 -32.65625,12.78125 -27.41624,29.49504 -20.43899,80.46546 -16.8125,103.0625 0.0838,-1.69009 -0.008,-3.77498 -0.40625,-6.21875 -3.91664,-24.05939 -3.93729,-82.80217 31.3125,-98.46875 28.04496,-12.46442 52.52311,9.3958 65.03125,24.21875 -9.8854,-17.19509 -24.58233,-33.78909 -41.75,-35.15625 -1.56021,-0.12425 -3.14408,-0.21767 -4.71875,-0.21875 z" transform="matrix(0.26458336,0,0,0.26458336,320.08182,94.083721)" id="path31724" inkscape:connector-curvature="0"/>
      </g>
    </g>
    <g id="g33919" transform="translate(-0.57755763,0.23102305)" gds_color="leaves" gds_switchable="leaves">
      <g transform="matrix(-0.91639024,0.71785631,0.71785631,0.91639024,460.45596,185.842)" id="g32054">
        <path inkscape:connector-curvature="0" style="color: rgb(0, 0, 0); fill: rgb(0, 89, 121); fill-opacity: 1; fill-rule: nonzero; stroke: rgb(13, 13, 13); stroke-width: 8.59045; stroke-linejoin: round; stroke-miterlimit: 4; stroke-opacity: 1; stroke-dasharray: none; marker: none; visibility: visible; display: inline; overflow: visible;" d="m -38.9375,-520.0625 c -8.371562,-0.10071 -17.236082,2.66412 -22.875,11.84375 0,0 -0.484192,1.19467 -1,3 -0.0051,0.0178 0.0051,0.0445 0,0.0625 -0.03599,0.0576 -0.08928,0.0981 -0.125,0.15625 0,0 -0.08532,0.34181 -0.1875,0.90625 -0.830486,3.25939 -1.551101,7.85506 -0.40625,11.625 0.686595,4.8786 2.837878,9.60791 8.28125,10.96875 12.309429,3.07736 15.526823,-5.3036 23.5,-10.96875 7.973177,-5.66514 20.84375,-5.53125 20.84375,-5.53125 0,0 0.897744,-1.84904 0.5625,-3.09375 0,0 -0.428614,-6.56403 -7.5625,-12.71875 -2.710096,-2.33812 -11.543479,-6.13586 -21.03125,-6.25 z" transform="matrix(0.26458336,0,0,0.26458336,320.08182,94.083721)" id="path32056"/>
        <path sodipodi:nodetypes="csscssc" inkscape:connector-curvature="0" id="path32058" d="m 303.42734,-39.527896 c 3.18286,-5.181391 10.56747,-2.570858 11.91721,-1.406377 1.25198,1.080141 1.82855,1.787588 2.00338,2.436365 0.0887,0.329329 -0.15289,0.820511 -0.15289,0.820511 0,0 -3.40491,-0.03701 -5.51448,1.461892 -2.10957,1.498905 -2.9608,3.719503 -6.21767,2.905285 -3.25688,-0.814221 -2.03555,-6.217676 -2.03555,-6.217676 z" style="color: rgb(0, 0, 0); fill: rgb(0, 89, 121); fill-opacity: 1; fill-rule: nonzero; stroke: none; stroke-width: 0; marker: none; visibility: visible; display: inline; overflow: visible;"/>
        <path style="color: rgb(0, 0, 0); fill: rgb(0, 141, 193); fill-opacity: 1; fill-rule: nonzero; stroke: none; stroke-width: 0; marker: none; visibility: visible; display: inline; overflow: visible;" d="m -61.82702,-508.20598 c 12.029691,-19.58321 38.821006,-9.99637 43.922363,-5.5952 7.133886,6.15472 7.571852,12.70531 7.571852,12.70531 0,0 -14.286099,-2.2143 -21.839626,3.10114 -7.553527,5.31545 -12.589213,14.68742 -24.898665,11.61006 -12.309452,-3.07737 -4.755924,-21.82131 -4.755924,-21.82131 z" id="path32060" inkscape:connector-curvature="0" transform="matrix(0.26458336,0,0,0.26458336,320.08182,94.083721)" sodipodi:nodetypes="cscssc"/>
        <path inkscape:connector-curvature="0" style="color: rgb(0, 0, 0); fill: rgb(0, 177, 243); fill-opacity: 1; fill-rule: nonzero; stroke: none; stroke-width: 0; marker: none; visibility: visible; display: inline; overflow: visible;" d="m -38.9375,-520.0625 c -1.810845,-0.0218 -3.648096,0.0923 -5.46875,0.375 16.839165,1.37148 17.998798,12.99321 13.34375,17.78125 -4.895811,5.03569 -12.450956,13.4256 -17.90625,14.125 -5.455332,0.6994 -11.608644,0.55501 -14.40625,-6.71875 -0.297518,-0.77355 -0.534008,-1.45933 -0.75,-2.125 0.05682,4.49499 1.639319,8.8942 7.0625,10.25 12.309452,3.07736 17.321473,-6.30955 24.875,-11.625 7.553527,-5.31544 21.84375,-3.09375 21.84375,-3.09375 0,0 -0.428614,-6.56403 -7.5625,-12.71875 -2.710096,-2.33812 -11.543479,-6.13586 -21.03125,-6.25 z" transform="matrix(0.26458336,0,0,0.26458336,320.08182,94.083721)" id="path32062"/>
        <path style="color: rgb(0, 0, 0); fill: rgb(0, 88, 119); fill-opacity: 1; fill-rule: nonzero; stroke: none; stroke-width: 0; marker: none; visibility: visible; display: inline; overflow: visible;" d="m -59.029418,-502.33101 c 19.922131,-21.49699 46.688266,-4.32886 46.300326,-2.0982 0.177237,-1.35882 -23.210906,-15.03769 -46.300326,2.0982 z" id="path32064" inkscape:connector-curvature="0" transform="matrix(0.26458336,0,0,0.26458336,320.08182,94.083721)" sodipodi:nodetypes="ccc"/>
      </g>
      <g id="g31964" transform="matrix(0.75634931,0.72332743,-0.72332743,0.75634931,-95.548827,182.82056)">
        <path id="path31966" transform="matrix(0.26458336,0,0,0.26458336,320.08182,94.083721)" d="m -38.9375,-520.0625 c -8.371562,-0.10071 -17.236082,2.66412 -22.875,11.84375 0,0 -0.484192,1.19467 -1,3 -0.0051,0.0178 0.0051,0.0445 0,0.0625 -0.03599,0.0576 -0.08928,0.0981 -0.125,0.15625 0,0 -0.08532,0.34181 -0.1875,0.90625 -0.830486,3.25939 -1.551101,7.85506 -0.40625,11.625 0.686595,4.8786 2.837878,9.60791 8.28125,10.96875 12.309429,3.07736 15.526823,-5.3036 23.5,-10.96875 7.973177,-5.66514 20.84375,-5.53125 20.84375,-5.53125 0,0 0.897744,-1.84904 0.5625,-3.09375 0,0 -0.428614,-6.56403 -7.5625,-12.71875 -2.710096,-2.33812 -11.543479,-6.13586 -21.03125,-6.25 z" style="color: rgb(0, 0, 0); fill: rgb(0, 89, 121); fill-opacity: 1; fill-rule: nonzero; stroke: rgb(13, 13, 13); stroke-width: 9.5552; stroke-linejoin: round; stroke-miterlimit: 4; stroke-opacity: 1; stroke-dasharray: none; marker: none; visibility: visible; display: inline; overflow: visible;" inkscape:connector-curvature="0"/>
        <path style="color: rgb(0, 0, 0); fill: rgb(0, 89, 121); fill-opacity: 1; fill-rule: nonzero; stroke: none; stroke-width: 0; marker: none; visibility: visible; display: inline; overflow: visible;" d="m 303.42734,-39.527896 c 3.18286,-5.181391 10.56747,-2.570858 11.91721,-1.406377 1.25198,1.080141 1.82855,1.787588 2.00338,2.436365 0.0887,0.329329 -0.15289,0.820511 -0.15289,0.820511 0,0 -3.40491,-0.03701 -5.51448,1.461892 -2.10957,1.498905 -2.9608,3.719503 -6.21767,2.905285 -3.25688,-0.814221 -2.03555,-6.217676 -2.03555,-6.217676 z" id="path31968" inkscape:connector-curvature="0" sodipodi:nodetypes="csscssc"/>
        <path sodipodi:nodetypes="cscssc" transform="matrix(0.26458336,0,0,0.26458336,320.08182,94.083721)" inkscape:connector-curvature="0" id="path31970" d="m -61.82702,-508.20598 c 12.029691,-19.58321 38.821006,-9.99637 43.922363,-5.5952 7.133886,6.15472 7.571852,12.70531 7.571852,12.70531 0,0 -14.286099,-2.2143 -21.839626,3.10114 -7.553527,5.31545 -12.589213,14.68742 -24.898665,11.61006 -12.309452,-3.07737 -4.755924,-21.82131 -4.755924,-21.82131 z" style="color: rgb(0, 0, 0); fill: rgb(0, 141, 193); fill-opacity: 1; fill-rule: nonzero; stroke: none; stroke-width: 0; marker: none; visibility: visible; display: inline; overflow: visible;"/>
        <path id="path31972" transform="matrix(0.26458336,0,0,0.26458336,320.08182,94.083721)" d="m -38.9375,-520.0625 c -1.810845,-0.0218 -3.648096,0.0923 -5.46875,0.375 16.839165,1.37148 17.998798,12.99321 13.34375,17.78125 -4.895811,5.03569 -12.450956,13.4256 -17.90625,14.125 -5.455332,0.6994 -11.608644,0.55501 -14.40625,-6.71875 -0.297518,-0.77355 -0.534008,-1.45933 -0.75,-2.125 0.05682,4.49499 1.639319,8.8942 7.0625,10.25 12.309452,3.07736 17.321473,-6.30955 24.875,-11.625 7.553527,-5.31544 21.84375,-3.09375 21.84375,-3.09375 0,0 -0.428614,-6.56403 -7.5625,-12.71875 -2.710096,-2.33812 -11.543479,-6.13586 -21.03125,-6.25 z" style="color: rgb(0, 0, 0); fill: rgb(0, 177, 243); fill-opacity: 1; fill-rule: nonzero; stroke: none; stroke-width: 0; marker: none; visibility: visible; display: inline; overflow: visible;" inkscape:connector-curvature="0"/>
        <path sodipodi:nodetypes="ccc" transform="matrix(0.26458336,0,0,0.26458336,320.08182,94.083721)" inkscape:connector-curvature="0" id="path31974" d="m -59.029418,-502.33101 c 19.922131,-21.49699 46.688266,-4.32886 46.300326,-2.0982 0.177237,-1.35882 -23.210906,-15.03769 -46.300326,2.0982 z" style="color: rgb(0, 0, 0); fill: rgb(0, 88, 119); fill-opacity: 1; fill-rule: nonzero; stroke: none; stroke-width: 0; marker: none; visibility: visible; display: inline; overflow: visible;"/>
      </g>
      <g id="g32042" transform="matrix(0.65855992,0.51588437,-0.51588437,0.65855992,-34.193257,227.537)">
        <path id="path32044" transform="matrix(0.26458336,0,0,0.26458336,320.08182,94.083721)" d="m -38.9375,-520.0625 c -8.371562,-0.10071 -17.236082,2.66412 -22.875,11.84375 0,0 -0.484192,1.19467 -1,3 -0.0051,0.0178 0.0051,0.0445 0,0.0625 -0.03599,0.0576 -0.08928,0.0981 -0.125,0.15625 0,0 -0.08532,0.34181 -0.1875,0.90625 -0.830486,3.25939 -1.551101,7.85506 -0.40625,11.625 0.686595,4.8786 2.837878,9.60791 8.28125,10.96875 12.309429,3.07736 15.526823,-5.3036 23.5,-10.96875 7.973177,-5.66514 20.84375,-5.53125 20.84375,-5.53125 0,0 0.897744,-1.84904 0.5625,-3.09375 0,0 -0.428614,-6.56403 -7.5625,-12.71875 -2.710096,-2.33812 -11.543479,-6.13586 -21.03125,-6.25 z" style="color: rgb(0, 0, 0); fill: rgb(0, 89, 121); fill-opacity: 1; fill-rule: nonzero; stroke: rgb(13, 13, 13); stroke-width: 11.9537; stroke-linejoin: round; stroke-miterlimit: 4; stroke-opacity: 1; stroke-dasharray: none; marker: none; visibility: visible; display: inline; overflow: visible;" inkscape:connector-curvature="0"/>
        <path style="color: rgb(0, 0, 0); fill: rgb(0, 89, 121); fill-opacity: 1; fill-rule: nonzero; stroke: none; stroke-width: 0; marker: none; visibility: visible; display: inline; overflow: visible;" d="m 303.42734,-39.527896 c 3.18286,-5.181391 10.56747,-2.570858 11.91721,-1.406377 1.25198,1.080141 1.82855,1.787588 2.00338,2.436365 0.0887,0.329329 -0.15289,0.820511 -0.15289,0.820511 0,0 -3.40491,-0.03701 -5.51448,1.461892 -2.10957,1.498905 -2.9608,3.719503 -6.21767,2.905285 -3.25688,-0.814221 -2.03555,-6.217676 -2.03555,-6.217676 z" id="path32046" inkscape:connector-curvature="0" sodipodi:nodetypes="csscssc"/>
        <path sodipodi:nodetypes="cscssc" transform="matrix(0.26458336,0,0,0.26458336,320.08182,94.083721)" inkscape:connector-curvature="0" id="path32048" d="m -61.82702,-508.20598 c 12.029691,-19.58321 38.821006,-9.99637 43.922363,-5.5952 7.133886,6.15472 7.571852,12.70531 7.571852,12.70531 0,0 -14.286099,-2.2143 -21.839626,3.10114 -7.553527,5.31545 -12.589213,14.68742 -24.898665,11.61006 -12.309452,-3.07737 -4.755924,-21.82131 -4.755924,-21.82131 z" style="color: rgb(0, 0, 0); fill: rgb(0, 141, 193); fill-opacity: 1; fill-rule: nonzero; stroke: none; stroke-width: 0; marker: none; visibility: visible; display: inline; overflow: visible;"/>
        <path id="path32050" transform="matrix(0.26458336,0,0,0.26458336,320.08182,94.083721)" d="m -38.9375,-520.0625 c -1.810845,-0.0218 -3.648096,0.0923 -5.46875,0.375 16.839165,1.37148 17.998798,12.99321 13.34375,17.78125 -4.895811,5.03569 -12.450956,13.4256 -17.90625,14.125 -5.455332,0.6994 -11.608644,0.55501 -14.40625,-6.71875 -0.297518,-0.77355 -0.534008,-1.45933 -0.75,-2.125 0.05682,4.49499 1.639319,8.8942 7.0625,10.25 12.309452,3.07736 17.321473,-6.30955 24.875,-11.625 7.553527,-5.31544 21.84375,-3.09375 21.84375,-3.09375 0,0 -0.428614,-6.56403 -7.5625,-12.71875 -2.710096,-2.33812 -11.543479,-6.13586 -21.03125,-6.25 z" style="color: rgb(0, 0, 0); fill: rgb(0, 177, 243); fill-opacity: 1; fill-rule: nonzero; stroke: none; stroke-width: 0; marker: none; visibility: visible; display: inline; overflow: visible;" inkscape:connector-curvature="0"/>
        <path sodipodi:nodetypes="ccc" transform="matrix(0.26458336,0,0,0.26458336,320.08182,94.083721)" inkscape:connector-curvature="0" id="path32052" d="m -59.029418,-502.33101 c 19.922131,-21.49699 46.688266,-4.32886 46.300326,-2.0982 0.177237,-1.35882 -23.210906,-15.03769 -46.300326,2.0982 z" style="color: rgb(0, 0, 0); fill: rgb(0, 88, 119); fill-opacity: 1; fill-rule: nonzero; stroke: none; stroke-width: 0; marker: none; visibility: visible; display: inline; overflow: visible;"/>
      </g>
      <g transform="matrix(0.61541833,-0.4703895,0.60382936,0.71509235,125.29504,670.52176)" id="g32361">
        <g id="g32349" transform="matrix(1,0.09676687,0.16162531,1.01564,19.811577,-49.593068)">
          <path id="path32344" transform="matrix(0.26458336,0,0,0.26458336,320.08182,94.083721)" d="m -20.1875,-1173.9062 c -7.650085,0.087 -11.46875,6 -11.46875,6 -7.113359,-1.4227 -12.27582,1.5162 -14.96875,5.7812 -9.006277,8.1143 -6.627338,16.1408 -1.25,20.75 8.308456,7.1216 27.315966,2.3768 34.4375,5.9375 7.1215337,3.5608 9.09375,13.8437 9.09375,13.8437 l 4.75,-1.1874 c 0,0 6.3319854,-13.4752 3.5625,-26.5313 -2.7694854,-13.0561 -13.8584032,-23.7399 -22.5625,-24.5313 -0.544006,-0.049 -1.083744,-0.068 -1.59375,-0.062 z" style="color: rgb(0, 0, 0); fill: rgb(0, 89, 121); fill-opacity: 1; fill-rule: nonzero; stroke: rgb(13, 13, 13); stroke-width: 11.7516; stroke-linejoin: round; stroke-miterlimit: 4; stroke-opacity: 1; stroke-dasharray: none; marker: none; visibility: visible; display: inline; overflow: visible;" inkscape:connector-curvature="0"/>
          <path sodipodi:nodetypes="cscccssc" transform="matrix(0.26458336,0,0,0.26458336,320.08182,94.083721)" inkscape:connector-curvature="0" id="path32340" d="m -42.729203,-1165.1243 c -13.451787,9.0997 -11.188574,18.5567 -5.143331,23.7384 8.308456,7.1216 27.299214,2.3739 34.420748,5.9346 7.1215336,3.5608 9.0997375,13.8475 9.0997375,13.8475 l 4.74768927,-1.187 c 0,0 0.39564078,-8.3084 -7.51717467,-16.6169 -7.9128151,-8.3084 -26.1122911,-1.5825 -36.0033101,-7.5172 -9.89102,-5.9346 0.395641,-18.1994 0.395641,-18.1994 z" style="color: rgb(0, 0, 0); fill: rgb(0, 89, 121); fill-opacity: 1; fill-rule: nonzero; stroke: none; stroke-width: 0; marker: none; visibility: visible; display: inline; overflow: visible;"/>
          <path transform="matrix(0.26458336,0,0,0.26458336,320.08182,94.083721)" inkscape:connector-curvature="0" id="path32342" d="m -31.651262,-1167.8938 c -17.803835,-3.5608 -23.342805,20.1777 -8.704097,23.7384 14.638709,3.5608 27.299214,1.5826 33.2338251,5.539 5.9346116,3.9564 7.51717467,15.8256 7.51717467,15.8256 0,0 6.33025233,-13.4518 3.56076693,-26.5079 -2.7694854,-13.0561 -13.847427,-23.7384 -22.5515237,-24.5297 -8.704097,-0.7913 -13.056146,5.9346 -13.056146,5.9346 z" style="color: rgb(0, 0, 0); fill: rgb(0, 141, 193); fill-opacity: 1; fill-rule: nonzero; stroke: none; stroke-width: 0; marker: none; visibility: visible; display: inline; overflow: visible;"/>
          <path style="opacity: 0.809735; color: rgb(0, 0, 0); fill: rgb(0, 182, 249); fill-opacity: 1; fill-rule: nonzero; stroke: none; stroke-width: 0; marker: none; visibility: visible; display: inline; overflow: visible;" d="m -79.03125,-1259.0625 c -6.54168,0.1243 -9.03125,5.0313 -9.03125,5.0313 -13.96358,-4.0566 -18.26874,8.5512 -12.875,17.0624 15.380621,18.5626 45.579994,6.071 47.78125,2.2188 0.495485,-0.8671 0.435638,-2.5904 -0.0625,-4.7812 -6.058133,-10.0424 -15.678805,-17.9635 -22.75,-19.2813 -1.103999,-0.2057 -2.127974,-0.2678 -3.0625,-0.25 z" transform="matrix(0.26872143,-0.0256029,-0.04276337,0.26458335,281.74465,114.62057)" id="path32358" inkscape:connector-curvature="0" sodipodi:nodetypes="cccsccc"/>
        </g>
        <path style="color: rgb(0, 0, 0); fill: rgb(0, 88, 119); fill-opacity: 1; fill-rule: nonzero; stroke: none; stroke-width: 0; marker: none; visibility: visible; display: inline; overflow: visible;" d="m -85.886404,-1249.2909 c 19.023699,5.3154 28.535548,21.8213 28.535548,21.8213 0,0 -2.517842,-8.1131 -10.07137,-15.1071 -7.553527,-6.994 -18.464178,-6.7142 -18.464178,-6.7142 z" id="path32354" inkscape:connector-curvature="0" transform="matrix(0.26458336,0,0,0.26458336,320.08182,94.083721)"/>
      </g>
    </g>
  </g>
</svg>