<?xml version="1.0" encoding="UTF-8" standalone="no"?><!-- Created with Inkscape (http://www.inkscape.org/) --><svg xmlns:dc="http://purl.org/dc/elements/1.1/" xmlns:cc="http://creativecommons.org/ns#" xmlns:rdf="http://www.w3.org/1999/02/22-rdf-syntax-ns#" xmlns:svg="http://www.w3.org/2000/svg" xmlns="http://www.w3.org/2000/svg" xmlns:sodipodi="http://sodipodi.sourceforge.net/DTD/sodipodi-0.dtd" xmlns:inkscape="http://www.inkscape.org/namespaces/inkscape" width="145.65178" height="372.7897" viewBox="0 0 38.537029 98.633927" version="1.1" id="svg23489" inkscape:version="0.48.5 r10040" sodipodi:docname="stalk_02.svg">
  <defs id="defs23483">
    <clipPath clipPathUnits="userSpaceOnUse" id="clipPath22932">
      <path style="opacity: 0.39823; color: rgb(0, 0, 0); fill: rgb(186, 255, 81); fill-opacity: 1; fill-rule: nonzero; stroke: none; stroke-width: 0; marker: none; visibility: visible; display: inline; overflow: visible;" d="m 544.30169,181.88988 c 0.28587,0.59217 2.59866,1.15837 3.74216,0.1578 0.98015,2.77708 16.86469,0 16.86469,0 l 0,-16.17162 -30.55281,0 0,15.42079 c 0,0 6.65838,3.49263 9.94596,0.59303 z" id="path22934" inkscape:connector-curvature="0" sodipodi:nodetypes="ccccccc"/>
    </clipPath>
    <clipPath clipPathUnits="userSpaceOnUse" id="clipPath22874">
      <path style="opacity: 0.39823; color: rgb(0, 0, 0); fill: rgb(186, 255, 81); fill-opacity: 1; fill-rule: nonzero; stroke: none; stroke-width: 0; marker: none; visibility: visible; display: inline; overflow: visible;" d="m 507.96393,172.04108 c 5.63585,4.14521 4.40861,7.03756 4.24526,7.42553 -0.16336,0.38797 -0.45419,0.84609 -0.55527,0.75946 0,0 -0.23077,1.39392 -0.96715,1.52387 0,0 0.7281,2.05291 -3.23333,2.91054 -3.96143,0.85763 -12.08849,-2.45037 -11.76178,-7.80034 0.32672,-5.34998 9.00511,-7.35111 12.27227,-4.81906 z" id="path22876" inkscape:connector-curvature="0" sodipodi:nodetypes="csccssc"/>
    </clipPath>
    <clipPath clipPathUnits="userSpaceOnUse" id="clipPath22894">
      <path style="opacity: 0.39823; color: rgb(0, 0, 0); fill: rgb(186, 255, 81); fill-opacity: 1; fill-rule: nonzero; stroke: none; stroke-width: 0; marker: none; visibility: visible; display: inline; overflow: visible;" d="m 519.13353,181.84256 c 1.53,1.07862 2.21773,-0.85703 2.00114,-1.06183 0.0817,0.0408 1.9603,0.65343 4.32899,-2.85877 2.36869,-3.51219 0,-9.96483 -8.00455,-11.96597 -8.00454,-2.00113 -11.2717,3.47136 -11.47589,10.16904 -0.2042,6.69767 5.75836,9.27056 9.76064,9.7198 4.00227,0.44923 3.38967,-4.00227 3.38967,-4.00227 z" id="path22896" inkscape:connector-curvature="0" sodipodi:nodetypes="ccssssc"/>
    </clipPath>
    <clipPath clipPathUnits="userSpaceOnUse" id="clipPath23263">
      <path style="opacity: 0.39823; color: rgb(0, 0, 0); fill: rgb(186, 255, 81); fill-opacity: 1; fill-rule: nonzero; stroke: none; stroke-width: 0; marker: none; visibility: visible; display: inline; overflow: visible;" d="m 507.96393,172.04108 c 5.63585,4.14521 4.40861,7.03756 4.24526,7.42553 -0.16336,0.38797 -0.45419,0.84609 -0.55527,0.75946 0,0 -0.23077,1.39392 -0.96715,1.52387 0,0 0.7281,2.05291 -3.23333,2.91054 -3.96143,0.85763 -12.08849,-2.45037 -11.76178,-7.80034 0.32672,-5.34998 9.00511,-7.35111 12.27227,-4.81906 z" id="path23265" inkscape:connector-curvature="0" sodipodi:nodetypes="csccssc"/>
    </clipPath>
    <clipPath clipPathUnits="userSpaceOnUse" id="clipPath22907">
      <path style="opacity: 0.39823; color: rgb(0, 0, 0); fill: rgb(186, 255, 81); fill-opacity: 1; fill-rule: nonzero; stroke: none; stroke-width: 0; marker: none; visibility: visible; display: inline; overflow: visible;" d="m 525.58617,181.98549 c 0.89522,0.98185 2.40724,0.64233 3.04255,0.12252 0.16124,0.72559 12.13955,0.23486 11.90471,0 -0.23482,-0.23483 4.09811,-23.83249 0,-26.19853 -4.09811,-2.36605 -15.11061,0 -21.31822,0 -6.2076,0 -9.48879,8.76153 -8.08444,14.00265 1.40436,5.24112 4.81751,7.15803 7.00687,9.97898 2.18936,2.82095 7.44853,2.09438 7.44853,2.09438 z" id="path22909" inkscape:connector-curvature="0" sodipodi:nodetypes="ccsssssc"/>
    </clipPath>
    <clipPath clipPathUnits="userSpaceOnUse" id="clipPath23269">
      <path style="opacity: 0.39823; color: rgb(0, 0, 0); fill: rgb(186, 255, 81); fill-opacity: 1; fill-rule: nonzero; stroke: none; stroke-width: 0; marker: none; visibility: visible; display: inline; overflow: visible;" d="m 525.58617,181.98549 c 0.89522,0.98185 2.40724,0.64233 3.04255,0.12252 0.16124,0.72559 12.13955,0.23486 11.90471,0 -0.23482,-0.23483 4.09811,-23.83249 0,-26.19853 -4.09811,-2.36605 -15.11061,0 -21.31822,0 -6.2076,0 -9.48879,8.76153 -8.08444,14.00265 1.40436,5.24112 4.81751,7.15803 7.00687,9.97898 2.18936,2.82095 7.44853,2.09438 7.44853,2.09438 z" id="path23271" inkscape:connector-curvature="0" sodipodi:nodetypes="ccsssssc"/>
    </clipPath>
    <clipPath clipPathUnits="userSpaceOnUse" id="clipPath23273">
      <path style="opacity: 0.39823; color: rgb(0, 0, 0); fill: rgb(186, 255, 81); fill-opacity: 1; fill-rule: nonzero; stroke: none; stroke-width: 0; marker: none; visibility: visible; display: inline; overflow: visible;" d="m 507.96393,172.04108 c 5.63585,4.14521 4.40861,7.03756 4.24526,7.42553 -0.16336,0.38797 -0.45419,0.84609 -0.55527,0.75946 0,0 -0.23077,1.39392 -0.96715,1.52387 0,0 0.7281,2.05291 -3.23333,2.91054 -3.96143,0.85763 -12.08849,-2.45037 -11.76178,-7.80034 0.32672,-5.34998 9.00511,-7.35111 12.27227,-4.81906 z" id="path23275" inkscape:connector-curvature="0" sodipodi:nodetypes="csccssc"/>
    </clipPath>
    <clipPath clipPathUnits="userSpaceOnUse" id="clipPath23277">
      <path style="opacity: 0.39823; color: rgb(0, 0, 0); fill: rgb(186, 255, 81); fill-opacity: 1; fill-rule: nonzero; stroke: none; stroke-width: 0; marker: none; visibility: visible; display: inline; overflow: visible;" d="m 519.13353,181.84256 c 1.53,1.07862 2.21773,-0.85703 2.00114,-1.06183 0.0817,0.0408 1.9603,0.65343 4.32899,-2.85877 2.36869,-3.51219 0,-9.96483 -8.00455,-11.96597 -8.00454,-2.00113 -11.2717,3.47136 -11.47589,10.16904 -0.2042,6.69767 5.75836,9.27056 9.76064,9.7198 4.00227,0.44923 3.38967,-4.00227 3.38967,-4.00227 z" id="path23279" inkscape:connector-curvature="0" sodipodi:nodetypes="ccssssc"/>
    </clipPath>
    <clipPath clipPathUnits="userSpaceOnUse" id="clipPath23281">
      <path style="opacity: 0.39823; color: rgb(0, 0, 0); fill: rgb(186, 255, 81); fill-opacity: 1; fill-rule: nonzero; stroke: none; stroke-width: 0; marker: none; visibility: visible; display: inline; overflow: visible;" d="m 525.58617,181.98549 c 0.89522,0.98185 2.40724,0.64233 3.04255,0.12252 0.16124,0.72559 12.13955,0.23486 11.90471,0 -0.23482,-0.23483 4.09811,-23.83249 0,-26.19853 -4.09811,-2.36605 -15.11061,0 -21.31822,0 -6.2076,0 -9.48879,8.76153 -8.08444,14.00265 1.40436,5.24112 4.81751,7.15803 7.00687,9.97898 2.18936,2.82095 7.44853,2.09438 7.44853,2.09438 z" id="path23283" inkscape:connector-curvature="0" sodipodi:nodetypes="ccsssssc"/>
    </clipPath>
    <clipPath clipPathUnits="userSpaceOnUse" id="clipPath23285">
      <path style="opacity: 0.39823; color: rgb(0, 0, 0); fill: rgb(186, 255, 81); fill-opacity: 1; fill-rule: nonzero; stroke: none; stroke-width: 0; marker: none; visibility: visible; display: inline; overflow: visible;" d="m 544.30169,181.88988 c 0.28587,0.59217 2.59866,1.15837 3.74216,0.1578 0.98015,2.77708 16.86469,0 16.86469,0 l 0,-16.17162 -30.55281,0 0,15.42079 c 0,0 6.65838,3.49263 9.94596,0.59303 z" id="path23287" inkscape:connector-curvature="0" sodipodi:nodetypes="ccccccc"/>
    </clipPath>
    <clipPath clipPathUnits="userSpaceOnUse" id="clipPath23289">
      <path style="opacity: 0.39823; color: rgb(0, 0, 0); fill: rgb(186, 255, 81); fill-opacity: 1; fill-rule: nonzero; stroke: none; stroke-width: 0; marker: none; visibility: visible; display: inline; overflow: visible;" d="m 507.96393,172.04108 c 5.63585,4.14521 4.40861,7.03756 4.24526,7.42553 -0.16336,0.38797 -0.45419,0.84609 -0.55527,0.75946 0,0 -0.23077,1.39392 -0.96715,1.52387 0,0 0.7281,2.05291 -3.23333,2.91054 -3.96143,0.85763 -12.08849,-2.45037 -11.76178,-7.80034 0.32672,-5.34998 9.00511,-7.35111 12.27227,-4.81906 z" id="path23291" inkscape:connector-curvature="0" sodipodi:nodetypes="csccssc"/>
    </clipPath>
    <clipPath clipPathUnits="userSpaceOnUse" id="clipPath22919">
      <path style="opacity: 0.39823; color: rgb(0, 0, 0); fill: rgb(186, 255, 81); fill-opacity: 1; fill-rule: nonzero; stroke: none; stroke-width: 0; marker: none; visibility: visible; display: inline; overflow: visible;" d="m 533.24358,180.67863 c -0.16336,1.16393 0.51049,2.00114 2.00114,1.20477 -1.74256,1.5022 -0.71572,1.26164 1.42124,3.05207 2.13697,1.79043 11.4934,0.98185 12.12872,0.5198 0.63531,-0.46205 8.02805,-6.41089 8.0858,-8.66336 0.0578,-2.25248 -1.90593,-15.01651 -5.19801,-17.78878 -3.29208,-2.77228 -16.4604,-0.57756 -19.75248,-0.0578 -3.29208,0.5198 -10.16501,5.71782 -9.93399,5.77558 0.23102,0.0577 2.83003,15.42079 2.77228,15.65181 -0.0578,0.23102 2.42574,4.15842 2.83003,3.92739 0.40429,-0.23102 3.95121,-3.17246 3.95121,-3.17246 0,0 1.59196,0.89865 1.69406,-0.44906 z" id="path22921" inkscape:connector-curvature="0" sodipodi:nodetypes="ccsssssssscc"/>
    </clipPath>
    <clipPath clipPathUnits="userSpaceOnUse" id="clipPath23295">
      <path style="opacity: 0.39823; color: rgb(0, 0, 0); fill: rgb(186, 255, 81); fill-opacity: 1; fill-rule: nonzero; stroke: none; stroke-width: 0; marker: none; visibility: visible; display: inline; overflow: visible;" d="m 525.58617,181.98549 c 0.89522,0.98185 2.40724,0.64233 3.04255,0.12252 0.16124,0.72559 12.13955,0.23486 11.90471,0 -0.23482,-0.23483 4.09811,-23.83249 0,-26.19853 -4.09811,-2.36605 -15.11061,0 -21.31822,0 -6.2076,0 -9.48879,8.76153 -8.08444,14.00265 1.40436,5.24112 4.81751,7.15803 7.00687,9.97898 2.18936,2.82095 7.44853,2.09438 7.44853,2.09438 z" id="path23297" inkscape:connector-curvature="0" sodipodi:nodetypes="ccsssssc"/>
    </clipPath>
    <clipPath clipPathUnits="userSpaceOnUse" id="clipPath23299">
      <path style="opacity: 0.39823; color: rgb(0, 0, 0); fill: rgb(186, 255, 81); fill-opacity: 1; fill-rule: nonzero; stroke: none; stroke-width: 0; marker: none; visibility: visible; display: inline; overflow: visible;" d="m 525.58617,181.98549 c 0.89522,0.98185 2.40724,0.64233 3.04255,0.12252 0.16124,0.72559 12.13955,0.23486 11.90471,0 -0.23482,-0.23483 4.09811,-23.83249 0,-26.19853 -4.09811,-2.36605 -15.11061,0 -21.31822,0 -6.2076,0 -9.48879,8.76153 -8.08444,14.00265 1.40436,5.24112 4.81751,7.15803 7.00687,9.97898 2.18936,2.82095 7.44853,2.09438 7.44853,2.09438 z" id="path23301" inkscape:connector-curvature="0" sodipodi:nodetypes="ccsssssc"/>
    </clipPath>
  </defs>
  <sodipodi:namedview id="base" pagecolor="#7d848b" bordercolor="#666666" borderopacity="1.0" inkscape:pageopacity="0" inkscape:pageshadow="2" inkscape:zoom="0.8098268" inkscape:cx="112.33626" inkscape:cy="40.36066" inkscape:document-units="px" inkscape:current-layer="layer1" showgrid="false" inkscape:pagecheckerboard="false" showborder="true" units="px" inkscape:window-width="1920" inkscape:window-height="1017" inkscape:window-x="-8" inkscape:window-y="-8" inkscape:window-maximized="1" inkscape:showpageshadow="false" guidetolerance="28" fit-margin-top="8" fit-margin-left="8" fit-margin-right="8" fit-margin-bottom="8">
    <inkscape:grid type="xygrid" id="grid24034" spacingx="1px" spacingy="1px" empspacing="8" visible="true" enabled="true" snapvisiblegridlinesonly="true" originx="-354.52238px" originy="379.96406px"/>
  </sodipodi:namedview>
  <metadata id="metadata23486">
    <rdf:RDF>
      <cc:Work rdf:about="">
        <dc:format>image/svg+xml</dc:format>
        <dc:type rdf:resource="http://purl.org/dc/dcmitype/StillImage"/>
        <dc:title/>
        <cc:license rdf:resource=""/>
        <dc:creator>
          <cc:Agent>
            <dc:title>Robert Brooks</dc:title>
          </cc:Agent>
        </dc:creator>
      </cc:Work>
    </rdf:RDF>
  </metadata>
  <g inkscape:label="Layer 1" inkscape:groupmode="layer" id="layer1" transform="translate(-93.800698,-298.89819)">
    <g id="g34098" gds_color="leaves" gds_switchable="leaves">
      <g transform="matrix(0.6121903,0.37350388,-0.37350388,0.6121903,-41.812795,282.19945)" id="g30933">
        <g id="g30916" transform="translate(-2.0725574,2.8127567)">
          <path inkscape:connector-curvature="0" style="color: rgb(0, 0, 0); fill: rgb(156, 237, 255); fill-opacity: 1; fill-rule: nonzero; stroke: rgb(13, 13, 13); stroke-width: 13.9444; stroke-linecap: round; stroke-linejoin: round; stroke-miterlimit: 4; stroke-opacity: 1; stroke-dasharray: none; stroke-dashoffset: 37.6; marker: none; visibility: visible; display: inline; overflow: visible;" d="m -277.4375,-443.53125 c -6.96986,0.098 -12.70886,0.71955 -15.625,1.5 0.0469,-0.0738 0.0395,-0.10614 -0.0625,-0.0625 -0.0432,0.0185 -0.15313,0.11835 -0.21875,0.15625 -0.0129,0.007 -0.0488,-0.008 -0.0625,0 -0.80049,0.23414 -1.34896,0.47396 -1.59375,0.71875 -0.36175,0.36175 -0.73336,0.87778 -0.96875,1.46875 -0.004,0.009 0.003,0.0223 0,0.0312 -2.22028,2.35645 -4.32451,6.00197 -0.75,8.90625 5.9301,4.81821 18.13101,8.58481 28.0625,6.90625 8.45346,-1.148 10.25655,-3.77145 14.40625,-5.6875 12.74195,9.40303 15.34375,18.46875 15.34375,18.46875 0,0 0.67642,-1.32175 1.65625,-3.28125 0.4122,-0.63817 9.3554,-14.50064 8.96875,-17.59375 0.037,0.0581 0.0889,0.097 0.125,0.15625 0,0 0.16219,-1.38692 -1.65625,-3.625 -0.73226,-0.90124 -1.88292,-1.49352 -4.09375,-2.125 -2.1343,-0.82318 -4.91179,-1.37017 -7.8125,-1.71875 -3.11269,-0.60169 -6.97849,-1.34082 -12.03125,-2.3125 -7.95568,-1.52994 -16.45806,-2.00785 -23.6875,-1.90625 z m 6.96875,13.96875 c -0.15209,0.0412 -0.25073,0.0833 -0.40625,0.125 -1.62127,0.19615 -3.29547,0.1903 -5,0 2.00225,0.11171 3.76699,0.0571 5.40625,-0.125 z" transform="matrix(0.26458336,0,0,0.26458336,322.15438,91.270964)" id="path30912"/>
          <path style="color: rgb(0, 0, 0); fill: rgb(0, 105, 144); fill-opacity: 1; fill-rule: nonzero; stroke: none; stroke-width: 0; marker: none; visibility: visible; display: inline; overflow: visible;" d="m -252.34377,-444.14087 c 17.90466,10.63089 21.26178,22.38082 21.26178,22.38082 0,0 9.51185,-17.90466 8.95233,-22.94034 -0.55952,-5.03569 -16.22609,-6.15473 -23.49986,-5.59521 -7.27377,0.55952 -6.71425,6.15473 -6.71425,6.15473 z" id="path30914" inkscape:connector-curvature="0" transform="matrix(0.26458336,0,0,0.26458336,320.08182,94.083721)"/>
        </g>
        <path style="color: rgb(0, 0, 0); fill: rgb(0, 89, 121); fill-opacity: 1; fill-rule: nonzero; stroke: none; stroke-width: 0; marker: none; visibility: visible; display: inline; overflow: visible;" d="m -293.125,-442.09375 c -1.04938,0.44896 -9.13272,6.78084 -3.59375,11.28125 5.9301,4.81821 18.12805,8.58481 28.05954,6.90625 11.33029,-1.53868 10.71573,-5.72994 19.81546,-7.3125 9.09974,-1.58256 20.17284,-2.35514 11.46875,17.03125 0,0 9.4894,-14.64737 9.09375,-17.8125 -0.39564,-3.16513 -2.89087,-6.75071 -17.8125,-4.75 -10.84658,1.45432 -9.7539,3.29704 -24.78421,7.3244 -5.78389,0.69978 -12.15208,-1.32807 -18.71579,-4.16815 -7.01276,-3.03438 -5.14507,-6.72994 -3.5625,-8.3125 0.19782,-0.19782 0.18116,-0.25164 0.0312,-0.1875 z" transform="matrix(0.26458336,0,0,0.26458336,320.08182,94.083721)" id="path30920" inkscape:connector-curvature="0" sodipodi:nodetypes="cscscsscssc"/>
        <path style="color: rgb(0, 0, 0); fill: rgb(0, 163, 222); fill-opacity: 1; fill-rule: nonzero; stroke: none; stroke-width: 0; marker: none; visibility: visible; display: inline; overflow: visible;" d="m -228.1445,-431.83142 c -5.87497,-9.65173 -24.42454,-3.83789 -31.33315,-0.97916 -8.11305,3.35712 -12.58922,4.61604 -25.73795,2.0982 -13.14873,-2.51784 -11.74993,-8.53269 -9.79161,-10.49101 1.95832,-1.95832 23.08022,-3.91664 41.26464,-0.41964 18.18442,3.497 22.10106,3.91664 23.91951,6.15473 1.81844,2.23808 1.67856,3.63688 1.67856,3.63688 z" id="path30925" inkscape:connector-curvature="0" transform="matrix(0.26458336,0,0,0.26458336,320.08182,94.083721)" sodipodi:nodetypes="csssssc"/>
      </g>
      <g transform="matrix(-0.70372904,0.10210543,0.03081837,0.67809532,335.8344,294.19418)" id="g30458">
        <path inkscape:connector-curvature="0" style="color: rgb(0, 0, 0); fill: rgb(0, 89, 121); fill-opacity: 1; fill-rule: nonzero; stroke: rgb(13, 13, 13); stroke-width: 14.4286; stroke-linejoin: round; stroke-miterlimit: 4; stroke-opacity: 1; stroke-dasharray: none; marker: none; visibility: visible; display: inline; overflow: visible;" d="m 0.625,-492.53125 c 0,0 -1.12049114,1.32007 -3.40625,3.84375 -1.141259,1.25848 -2.5891862,2.81 -4.3125,4.65625 -1.7286358,1.85336 -3.741163,3.9912 -6.0625,6.40625 -0.66472,0.69155 -1.260941,1.33538 -1.8125,1.96875 -1.026678,1.18107 -1.864289,2.30276 -2.53125,3.34375 0.0035,-0.0205 -0.0035,-0.042 0,-0.0625 -0.36737,0.56887 -0.667549,1.112 -0.9375,1.65625 -0.06699,0.1353 -0.126241,0.27195 -0.1875,0.40625 -0.104345,0.22831 -0.193104,0.46138 -0.28125,0.6875 -0.116278,0.29898 -0.22338,0.60904 -0.3125,0.90625 -0.01226,0.0411 -0.0195,0.0839 -0.03125,0.125 -0.05083,0.17654 -0.08338,0.35457 -0.125,0.53125 -0.01755,0.075 -0.04657,0.14371 -0.0625,0.21875 -0.02887,0.135 -0.0388,0.27081 -0.0625,0.40625 -0.0017,0.01 0.0017,0.0213 0,0.0312 -0.004,0.0234 -0.02735,0.0391 -0.03125,0.0625 -0.03628,0.21874 -0.07046,0.43553 -0.09375,0.65625 -0.01901,0.18012 -0.05187,0.34931 -0.0625,0.53125 -0.0025,0.0415 0.002,0.0834 0,0.125 -0.0034,0.0715 0.0022,0.14686 0,0.21875 -0.384994,3.02896 -0.364475,7.19333 0.03125,9.34375 0.932636,5.06796 5.238204,9.41811 14.09375,10.46875 19.034455,1.71558 22.443565,-7.88483 22.53125,-11 0.124044,-4.42242 -0.279085,-7.21899 -0.96875,-9.15625 -0.252884,-1.25573 -0.628262,-2.5083 -1.09375,-3.71875 -0.0081,-0.0105 -0.02308,-0.0207 -0.03125,-0.0312 -0.167497,-0.4322 -0.311632,-0.86231 -0.5,-1.28125 -0.07121,-0.15932 -0.145027,-0.31191 -0.21875,-0.46875 -0.15123,-0.3199 -0.308186,-0.62913 -0.46875,-0.9375 -0.424999,-0.82153 -0.876833,-1.60085 -1.34375,-2.3125 -0.0566,-0.0862 -0.09935,-0.16572 -0.15625,-0.25 -0.261393,-0.38789 -0.516111,-0.75046 -0.78125,-1.09375 -1.064894,-1.37879 -2.2856783,-3.08421 -3.5,-4.875 C 4.284668,-486.47492 0.625,-492.53125 0.625,-492.53125 z" transform="matrix(0.26458336,0,0,0.26458336,320.08182,94.083721)" id="path30460"/>
        <g transform="matrix(0.99768934,-0.06794096,-0.06794096,-0.99768934,24.815776,-39.76519)" id="g30462">
          <g id="g30464" transform="matrix(0.88676279,0,0,0.88676279,30.069783,-4.9306227)">
            <path style="color: rgb(0, 0, 0); fill: rgb(0, 89, 121); fill-opacity: 1; fill-rule: nonzero; stroke: none; stroke-width: 0; marker: none; visibility: visible; display: inline; overflow: visible;" d="m 295.42233,-34.773558 c -2.61482,0.49227 -3.81252,1.872148 -3.98742,3.399687 -0.0961,0.83937 0.0662,2.67621 0.36105,3.460662 0.32832,0.873492 0.84538,0.695933 1.8613,1.674477 2.9545,2.845802 4.40467,4.410998 4.40467,4.410998 0,0 1.72132,-3.541013 2.8698,-5.364707 0.72091,-1.144751 1.76649,-1.205994 1.4239,-4.762317 -0.0892,-0.925552 -1.30189,-3.715352 -6.9333,-2.8188 z" id="path30466" inkscape:connector-curvature="0" sodipodi:nodetypes="cssscssc"/>
            <path sodipodi:nodetypes="csscssc" inkscape:connector-curvature="0" id="path30468" d="m 295.58671,-33.253552 c -2.61536,0.468404 -3.76297,2.12551 -3.94047,3.565773 -0.20615,1.672656 0.23606,2.735073 2.16091,4.482726 2.94925,2.677752 4.39656,4.150799 4.39656,4.150799 0,0 1.72722,-3.340888 2.8787,-5.06195 1.15148,-1.721063 2.14594,-5.264428 -0.2617,-6.378058 -2.40764,-1.113629 -4.34422,-0.911149 -5.234,-0.75929 z" style="color: rgb(0, 0, 0); fill: rgb(0, 141, 193); fill-opacity: 1; fill-rule: nonzero; stroke: none; stroke-width: 0; marker: none; visibility: visible; display: inline; overflow: visible;"/>
            <path inkscape:connector-curvature="0" style="color: rgb(0, 0, 0); fill: rgb(0, 163, 222); fill-opacity: 1; fill-rule: nonzero; stroke: none; stroke-width: 0; marker: none; visibility: visible; display: inline; overflow: visible;" d="m -118.75,-470.21875 c 0.3286,3.80753 2.33833,6.95537 7.34375,11.5 9.88454,8.9746 14.75,13.9375 14.75,13.9375 0,0 5.765764,-11.20053 9.625,-16.96875 1.176601,-1.75861 2.323197,-4.10359 3.09375,-6.59375 -2.439116,3.66375 -8.465478,9.8602 -10.4375,10.21875 -2.176025,0.39564 -5.33343,-7.69869 -5.53125,-9.28125 -0.19783,-1.58256 0.603496,11.65654 -0.78125,12.25 -1.26199,0.54085 -14.01278,-8.25291 -18.0625,-15.0625 z" transform="matrix(0.29836994,0,0,0.29836994,327.04579,111.65821)" id="path30470"/>
            <path inkscape:connector-curvature="0" style="color: rgb(0, 0, 0); fill: rgb(0, 163, 222); fill-opacity: 1; fill-rule: nonzero; stroke: none; stroke-width: 0; marker: none; visibility: visible; display: inline; overflow: visible;" d="m -100.71875,-486.09375 c -2.00328,-0.003 -3.60045,0.21539 -4.71875,0.40625 -8.76549,1.56988 -12.62385,7.14165 -13.21875,11.96875 -0.47501,3.85411 0.0747,6.7309 2.5625,10.0625 -1.59814,-6.56491 -0.59207,-14.87277 10.84375,-18.1875 13.649611,-3.95641 21.76032,5.54359 21.5625,9.5 -0.03709,0.74183 0.09705,1.33364 0.3125,1.8125 1.068837,-5.07612 0.363627,-10.32967 -4.53125,-12.59375 -5.04332,-2.33274 -9.473699,-2.96378 -12.8125,-2.96875 z" transform="matrix(0.29836994,0,0,0.29836994,327.04579,111.65821)" id="path30472"/>
          </g>
          <path style="color: rgb(0, 0, 0); fill: rgb(0, 88, 119); fill-opacity: 1; fill-rule: nonzero; stroke: none; stroke-width: 0; marker: none; visibility: visible; display: inline; overflow: visible;" d="m 292.81269,-34.03457 c 0.0523,3.192738 1.67488,9.787576 1.67488,9.368857 0,-0.418721 -0.20936,-2.931038 -0.47106,-4.396557 -0.2617,-1.465522 -1.20382,-4.9723 -1.20382,-4.9723 z" id="path30474" inkscape:connector-curvature="0"/>
        </g>
      </g>
      <g id="g30940" transform="matrix(-0.53627882,0.32718948,0.32718948,0.53627882,245.69966,259.09276)">
        <g transform="translate(-2.0725574,2.8127567)" id="g30942">
          <path id="path30944" transform="matrix(0.26458336,0,0,0.26458336,322.15438,91.270964)" d="m -277.4375,-443.53125 c -6.96986,0.098 -12.70886,0.71955 -15.625,1.5 0.0469,-0.0738 0.0395,-0.10614 -0.0625,-0.0625 -0.0432,0.0185 -0.15313,0.11835 -0.21875,0.15625 -0.0129,0.007 -0.0488,-0.008 -0.0625,0 -0.80049,0.23414 -1.34896,0.47396 -1.59375,0.71875 -0.36175,0.36175 -0.73336,0.87778 -0.96875,1.46875 -0.004,0.009 0.003,0.0223 0,0.0312 -2.22028,2.35645 -4.32451,6.00197 -0.75,8.90625 5.9301,4.81821 18.13101,8.58481 28.0625,6.90625 8.45346,-1.148 10.25655,-3.77145 14.40625,-5.6875 12.74195,9.40303 15.34375,18.46875 15.34375,18.46875 0,0 0.67642,-1.32175 1.65625,-3.28125 0.4122,-0.63817 9.3554,-14.50064 8.96875,-17.59375 0.037,0.0581 0.0889,0.097 0.125,0.15625 0,0 0.16219,-1.38692 -1.65625,-3.625 -0.73226,-0.90124 -1.88292,-1.49352 -4.09375,-2.125 -2.1343,-0.82318 -4.91179,-1.37017 -7.8125,-1.71875 -3.11269,-0.60169 -6.97849,-1.34082 -12.03125,-2.3125 -7.95568,-1.52994 -16.45806,-2.00785 -23.6875,-1.90625 z m 6.96875,13.96875 c -0.15209,0.0412 -0.25073,0.0833 -0.40625,0.125 -1.62127,0.19615 -3.29547,0.1903 -5,0 2.00225,0.11171 3.76699,0.0571 5.40625,-0.125 z" style="color: rgb(0, 0, 0); fill: rgb(156, 237, 255); fill-opacity: 1; fill-rule: nonzero; stroke: rgb(13, 13, 13); stroke-width: 15.9182; stroke-linecap: round; stroke-linejoin: round; stroke-miterlimit: 4; stroke-opacity: 1; stroke-dasharray: none; stroke-dashoffset: 37.6; marker: none; visibility: visible; display: inline; overflow: visible;" inkscape:connector-curvature="0"/>
          <path transform="matrix(0.26458336,0,0,0.26458336,320.08182,94.083721)" inkscape:connector-curvature="0" id="path30946" d="m -252.34377,-444.14087 c 17.90466,10.63089 21.26178,22.38082 21.26178,22.38082 0,0 9.51185,-17.90466 8.95233,-22.94034 -0.55952,-5.03569 -16.22609,-6.15473 -23.49986,-5.59521 -7.27377,0.55952 -6.71425,6.15473 -6.71425,6.15473 z" style="color: rgb(0, 0, 0); fill: rgb(0, 105, 144); fill-opacity: 1; fill-rule: nonzero; stroke: none; stroke-width: 0; marker: none; visibility: visible; display: inline; overflow: visible;"/>
        </g>
        <path sodipodi:nodetypes="cscscsscssc" inkscape:connector-curvature="0" id="path30948" transform="matrix(0.26458336,0,0,0.26458336,320.08182,94.083721)" d="m -293.125,-442.09375 c -1.04938,0.44896 -9.13272,6.78084 -3.59375,11.28125 5.9301,4.81821 18.12805,8.58481 28.05954,6.90625 11.33029,-1.53868 10.71573,-5.72994 19.81546,-7.3125 9.09974,-1.58256 20.17284,-2.35514 11.46875,17.03125 0,0 9.4894,-14.64737 9.09375,-17.8125 -0.39564,-3.16513 -2.89087,-6.75071 -17.8125,-4.75 -10.84658,1.45432 -9.7539,3.29704 -24.78421,7.3244 -5.78389,0.69978 -12.15208,-1.32807 -18.71579,-4.16815 -7.01276,-3.03438 -5.14507,-6.72994 -3.5625,-8.3125 0.19782,-0.19782 0.18116,-0.25164 0.0312,-0.1875 z" style="color: rgb(0, 0, 0); fill: rgb(0, 89, 121); fill-opacity: 1; fill-rule: nonzero; stroke: none; stroke-width: 0; marker: none; visibility: visible; display: inline; overflow: visible;"/>
        <path sodipodi:nodetypes="csssssc" transform="matrix(0.26458336,0,0,0.26458336,320.08182,94.083721)" inkscape:connector-curvature="0" id="path30950" d="m -228.1445,-431.83142 c -5.87497,-9.65173 -24.42454,-3.83789 -31.33315,-0.97916 -8.11305,3.35712 -12.58922,4.61604 -25.73795,2.0982 -13.14873,-2.51784 -11.74993,-8.53269 -9.79161,-10.49101 1.95832,-1.95832 23.08022,-3.91664 41.26464,-0.41964 18.18442,3.497 22.10106,3.91664 23.91951,6.15473 1.81844,2.23808 1.67856,3.63688 1.67856,3.63688 z" style="color: rgb(0, 0, 0); fill: rgb(0, 163, 222); fill-opacity: 1; fill-rule: nonzero; stroke: none; stroke-width: 0; marker: none; visibility: visible; display: inline; overflow: visible;"/>
      </g>
    </g>
    <path style="opacity: 0.25; color: rgb(0, 0, 0); fill: rgb(0, 0, 0); fill-opacity: 1; fill-rule: nonzero; stroke: none; stroke-width: 0; marker: none; visibility: visible; display: inline; overflow: visible;" d="m 55.375,-65.28125 c -9.25521,0.03015 -12.15625,2.65625 -12.15625,2.65625 0,0 1.883768,3.584805 5.53125,7.09375 C 35.572441,-50.906254 36.4375,-42.25 36.4375,-42.25 c 0,0 7.264256,0.24975 13.34375,-0.53125 4.686513,5.069987 14.637201,8.5625 26.15625,8.5625 3.808965,0 7.448768,-0.398344 10.78125,-1.09375 4.940565,6.530978 10.058904,10.985615 9.59375,9.125 -0.497015,-1.98806 6.99103,-9.979297 5.75,-16.5625 0.0815,-0.08759 0.17171,-0.161476 0.25,-0.25 13.61939,-1.16216 17.46875,-7.875 17.46875,-7.875 0,0 -4.79865,-4.380645 -18.5,-5.84375 -4.963821,-4.625377 -14.453836,-7.75 -25.34375,-7.75 -2.555373,0 -5.014283,0.207936 -7.375,0.53125 -5.384179,-0.986956 -9.74354,-1.354968 -13.1875,-1.34375 z" transform="matrix(0.2645833,0,0,0.2645833,90.014161,402.23157)" id="path34763" gds_color="shadow" inkscape:connector-curvature="0" gds_switchable="shadow"/>
    <g id="g30701" transform="matrix(1.2524672,0,0,1.2524672,-192.12849,395.28697)" gds_color="stalk">
      <g transform="matrix(0.89005877,0,0,1,26.106734,0)" id="g30660">
        <path sodipodi:nodetypes="ssssssscscsssssssss" inkscape:connector-curvature="0" id="path30658" d="m 242.8369,-66.01394 c 0.61073,8.454922 -1.89359,10.335801 -2.8412,12.360927 -0.9476,2.025127 -2.77427,4.255842 -2.50881,6.779949 0.3712,3.529574 2.63001,5.843456 4.67234,8.069792 2.04233,2.226337 2.89661,4.029321 3.07224,7.269351 0.0943,1.739942 -3.26336,7.069973 -4.83597,9.704867 -1.92024,3.217347 -2.41696,9.215311 -2.38747,14.5393172 0.004,0.6705924 1.01546,2.7960118 2.62181,-1.848022 0,0.2938441 2.45077,-1.6806912 2.54203,-0.3515973 0.29172,4.2486074 -1.34756,0.216381 -1.49155,-1.1883359 0.0636,0.627325 3.46791,7.3251289 3.34103,2.3943765 -0.21739,-8.4476565 -0.54826,-10.8467575 3.25912,-17.3734705 0.93116,-1.596216 1.64567,-3.436422 1.52135,-5.729883 -0.22483,-4.147826 -2.55775,-6.91632 -4.65501,-9.20254 -2.09726,-2.28622 -3.88615,-4.128641 -4.14238,-6.564975 -0.17781,-1.690714 0.48026,-3.432149 1.38906,-5.374349 0.9088,-1.942201 1.71905,-4.105028 2.16362,-6.509828 0.52856,-2.859098 -0.12948,-4.072952 -0.12948,-7.008728 0,-2.313053 -1.75226,-2.203078 -1.59073,0.03315 z" style="font-size: medium; font-style: normal; font-variant: normal; font-weight: normal; font-stretch: normal; text-indent: 0px; text-align: start; text-decoration: none; line-height: normal; letter-spacing: normal; word-spacing: normal; text-transform: none; direction: ltr; writing-mode: lr-tb; text-anchor: start; baseline-shift: baseline; color: rgb(0, 0, 0); fill: rgb(212, 124, 202); fill-opacity: 1; fill-rule: nonzero; stroke: rgb(13, 13, 13); stroke-width: 2.23917; stroke-linejoin: round; stroke-miterlimit: 4; stroke-opacity: 1; stroke-dasharray: none; marker: none; visibility: visible; display: inline; overflow: visible; font-family: Sans;"/>
        <path style="font-size: medium; font-style: normal; font-variant: normal; font-weight: normal; font-stretch: normal; text-indent: 0px; text-align: start; text-decoration: none; line-height: normal; letter-spacing: normal; word-spacing: normal; text-transform: none; direction: ltr; writing-mode: lr-tb; text-anchor: start; baseline-shift: baseline; color: rgb(0, 0, 0); fill: rgb(212, 124, 202); fill-opacity: 1; fill-rule: nonzero; stroke: none; stroke-width: 0; marker: none; visibility: visible; display: inline; overflow: visible; font-family: Sans;" d="m 242.8369,-66.01394 c 0.61073,8.454922 -1.89359,10.335801 -2.8412,12.360927 -0.9476,2.025127 -2.77427,4.255842 -2.50881,6.779949 0.3712,3.529574 2.63001,5.843456 4.67234,8.069792 2.04233,2.226337 2.89661,4.029321 3.07224,7.269351 0.0943,1.739942 -3.36804,7.279332 -4.83597,9.704867 -2.18431,3.609247 -2.51951,10.770389 -2.35308,16.5121139 0,2.6556123 7.05476,2.9142545 6.98979,-0.074414 0,-9.6077159 -1.09278,-12.8895719 3.24826,-20.2654319 0.93767,-1.593192 1.64567,-3.436422 1.52135,-5.729883 -0.22483,-4.147826 -2.55775,-6.91632 -4.65501,-9.20254 -2.09726,-2.28622 -3.88615,-4.128641 -4.14238,-6.564975 -0.17781,-1.690714 0.48026,-3.432149 1.38906,-5.374349 0.9088,-1.942201 1.71905,-4.105028 2.16362,-6.509828 0.52856,-2.859098 -0.12948,-4.072952 -0.12948,-7.008728 0,-2.313053 -1.75226,-2.203078 -1.59073,0.03315 z" id="path30654" inkscape:connector-curvature="0" sodipodi:nodetypes="ssssssccssssssss"/>
        <path id="path30693" transform="matrix(0.29726504,0,0,0.26458336,330.28727,94.083721)" d="m -295.875,-502.1875 c -0.1523,-0.012 -0.35481,0.029 -0.53125,0.0312 6.81841,8.3739 9.6925,15.17215 10.28125,27.375 0.31723,6.57616 -11.34313,27.52012 -16.28125,36.6875 -7.34802,13.64125 -8.46612,40.70524 -7.90625,62.40625 0,2.99043 2.11023,5.17172 5.0625,6.46875 0.67583,-17.36953 1.26061,-47.90251 3.78125,-57.625 2.76949,-10.6823 20.16744,-37.20446 21.75,-50.65625 1.58257,-13.45179 -12.27237,-23.34433 -15.4375,-24.53125 -0.19782,-0.0742 -0.42337,-0.13307 -0.71875,-0.15625 z" style="font-size: medium; font-style: normal; font-variant: normal; font-weight: normal; font-stretch: normal; text-indent: 0px; text-align: start; text-decoration: none; line-height: normal; letter-spacing: normal; word-spacing: normal; text-transform: none; direction: ltr; writing-mode: lr-tb; text-anchor: start; baseline-shift: baseline; color: rgb(0, 0, 0); fill: rgb(238, 180, 231); fill-opacity: 1; fill-rule: nonzero; stroke: none; stroke-width: 0; marker: none; visibility: visible; display: inline; overflow: visible; font-family: Sans;" inkscape:connector-curvature="0"/>
        <path sodipodi:nodetypes="cscssccsscsccssccsscccc" inkscape:connector-curvature="0" id="path30688" transform="matrix(0.29726504,0,0,0.26458336,330.28727,94.083721)" d="m -288.8125,-603.40625 c -0.3162,4.63115 -0.84064,10.8833 -1.59375,19.46875 -1.97655,22.53274 -15.37775,35.20636 -9.875,45.09375 0.54001,-4.83285 2.33039,-9.84673 4.59375,-15.28125 3.0572,-7.3406 5.78572,-15.50474 7.28125,-24.59375 1.67413,-10.17434 -0.18254,-14.91576 -0.40625,-24.6875 z m -21.6875,78.8125 c 2.8829,9.00381 8.66657,15.77338 14.03125,22.34375 6.8704,8.4145 9.75293,15.22297 10.34375,27.46875 0.0632,1.3095 -0.35552,3.22674 -1.09375,5.46875 5.04126,-6.33635 6.62102,-12.28798 2.75,-20.4375 -4.85383,-10.21859 -19.09484,-22.27431 -26.03125,-34.84375 z m 38.5,41.5625 c 0.10722,1.89995 0.0672,3.74823 -0.1875,5.53125 -2.37385,16.61691 -11.87846,28.4969 -18.20872,46.30074 -4.24442,11.93744 -3.25229,49.08544 -2.85378,62.69926 3.70825,-1.09578 6.51346,-3.54297 6.4375,-7.46875 0,-36.31262 -3.66576,-48.71649 10.9375,-76.59375 3.15432,-6.02151 5.54321,-12.98805 5.125,-21.65625 -0.15156,-3.14152 -0.59233,-6.06239 -1.25,-8.8125 z m -30.625,114.6875 c 1.46299,0.35118 3.01478,0.5097 4.5625,0.5 -1.45871,-0.12065 -2.99136,-0.30908 -4.5625,-0.5 z" style="font-size: medium; font-style: normal; font-variant: normal; font-weight: normal; font-stretch: normal; text-indent: 0px; text-align: start; text-decoration: none; line-height: normal; letter-spacing: normal; word-spacing: normal; text-transform: none; direction: ltr; writing-mode: lr-tb; text-anchor: start; baseline-shift: baseline; color: rgb(0, 0, 0); fill: rgb(184, 60, 170); fill-opacity: 1; fill-rule: nonzero; stroke: none; stroke-width: 0; marker: none; visibility: visible; display: inline; overflow: visible; font-family: Sans;"/>
        <path id="path30698" transform="matrix(0.29726504,0,0,0.26458336,330.28727,94.083721)" d="m -291.71875,-611.59375 c -1.40573,0.0676 -2.74044,2.27406 -2.46875,6.5 2.0545,31.95561 -6.37474,39.06473 -9.5625,46.71875 -3.18773,7.65402 -9.33051,16.08507 -8.4375,25.625 0.63357,6.76847 2.89661,12.35277 5.875,17.3125 -0.10449,-0.27521 -0.15916,-0.48597 -0.3125,-0.84375 -4.74769,-11.07794 -2.37211,-24.92148 3.5625,-34.8125 5.93461,-9.89102 11.875,-34.4209 11.875,-43.125 0,-4.53338 1.16968,-6.37773 2.46875,-6.71875 -0.0695,-1.3314 -0.125,-2.7303 -0.125,-4.28125 0,-4.37112 -1.46927,-6.44262 -2.875,-6.375 z" style="font-size: medium; font-style: normal; font-variant: normal; font-weight: normal; font-stretch: normal; text-indent: 0px; text-align: start; text-decoration: none; line-height: normal; letter-spacing: normal; word-spacing: normal; text-transform: none; direction: ltr; writing-mode: lr-tb; text-anchor: start; baseline-shift: baseline; color: rgb(0, 0, 0); fill: rgb(238, 180, 231); fill-opacity: 1; fill-rule: nonzero; stroke: none; stroke-width: 0; marker: none; visibility: visible; display: inline; overflow: visible; font-family: Sans;" inkscape:connector-curvature="0"/>
      </g>
    </g>
    <g id="g34050" transform="translate(-0.81678966,0)" gds_color="leaves" gds_switchable="leaves">
      <g transform="matrix(1.0048793,0.14244074,-0.14244074,1.0048793,-192.48459,331.03798)" id="g30765">
        <g id="g30767" transform="matrix(0.88676279,0,0,0.88676279,30.069783,-4.9306227)">
          <path id="path30769" transform="matrix(0.26458336,0,0,0.26458336,320.08182,94.083721)" d="m -87.25,-476.14171 c -2.259094,-0.003 -4.082645,2.23 -5.34375,2.44523 -9.88482,1.77035 -14.20413,0.44047 -14.875,5.88398 -0.10434,0.84663 -0.17863,1.66184 -0.1875,2.4375 -0.001,0.0101 0.001,0.0211 0,0.0312 -0.77915,6.53672 1.06873,12.07644 8.34375,18.90625 11.146771,10.46462 16.625,16.21875 16.625,16.21875 0,0 6.52295,-13.05536 10.875,-19.78125 2.731842,-4.22191 5.644323,-13.43215 4.875,-19.15625 -0.08399,-0.62492 -0.249803,-1.15683 -0.4375,-1.625 -0.0035,-0.009 0.0035,-0.0226 0,-0.0312 -0.472677,-3.2459 -2.080162,-6.04085 -5.4375,-7.59375 -5.687338,-2.63062 -11.118506,-1.52225 -14.4375,2.26454 z" style="color: rgb(0, 0, 0); fill: rgb(0, 105, 144); fill-opacity: 1; fill-rule: nonzero; stroke: rgb(13, 13, 13); stroke-width: 11.1111; stroke-linejoin: round; stroke-miterlimit: 4; stroke-opacity: 1; stroke-dasharray: none; marker: none; visibility: visible; display: inline; overflow: visible;" inkscape:connector-curvature="0" sodipodi:nodetypes="ccsccscssccsc"/>
          <path style="color: rgb(0, 0, 0); fill: rgb(0, 89, 121); fill-opacity: 1; fill-rule: nonzero; stroke: none; stroke-width: 0; marker: none; visibility: visible; display: inline; overflow: visible;" d="m 295.58671,-32.35969 c -2.61536,0.484326 -3.81531,1.831374 -3.99281,3.32059 -0.20615,1.729507 0.2884,3.194413 2.21325,5.001467 2.94925,2.768765 4.39656,4.291878 4.39656,4.291878 0,0 1.72722,-3.45444 2.8787,-5.233998 0.7228,-1.117047 1.4884,-3.552263 1.28485,-5.066765 -0.12072,-0.898238 -0.65021,-1.099389 -1.54655,-1.528073 -2.40764,-1.15148 -4.34422,-0.942118 -5.234,-0.785099 z" id="path30771" inkscape:connector-curvature="0" sodipodi:nodetypes="csscsssc"/>
          <path sodipodi:nodetypes="csscssc" inkscape:connector-curvature="0" id="path30773" d="m 295.58671,-33.253552 c -2.61536,0.468404 -3.76297,2.12551 -3.94047,3.565773 -0.20615,1.672656 0.23606,2.735073 2.16091,4.482726 2.94925,2.677752 4.39656,4.150799 4.39656,4.150799 0,0 1.72722,-3.340888 2.8787,-5.06195 1.15148,-1.721063 2.14594,-5.264428 -0.2617,-6.378058 -2.40764,-1.113629 -4.34422,-0.911149 -5.234,-0.75929 z" style="color: rgb(0, 0, 0); fill: rgb(0, 141, 193); fill-opacity: 1; fill-rule: nonzero; stroke: none; stroke-width: 0; marker: none; visibility: visible; display: inline; overflow: visible;"/>
          <path inkscape:connector-curvature="0" style="color: rgb(0, 0, 0); fill: rgb(0, 163, 222); fill-opacity: 1; fill-rule: nonzero; stroke: none; stroke-width: 0; marker: none; visibility: visible; display: inline; overflow: visible;" d="m -118.75,-470.21875 c 0.3286,3.80753 2.33833,6.95537 7.34375,11.5 9.88454,8.9746 14.75,13.9375 14.75,13.9375 0,0 5.765764,-11.20053 9.625,-16.96875 1.176601,-1.75861 2.323197,-4.10359 3.09375,-6.59375 -2.439116,3.66375 -8.465478,9.8602 -10.4375,10.21875 -2.176025,0.39564 -5.33343,-7.69869 -5.53125,-9.28125 -0.19783,-1.58256 0.603496,11.65654 -0.78125,12.25 -1.26199,0.54085 -14.01278,-8.25291 -18.0625,-15.0625 z" transform="matrix(0.29836994,0,0,0.29836994,327.04579,111.65821)" id="path30775"/>
          <path inkscape:connector-curvature="0" style="color: rgb(0, 0, 0); fill: rgb(0, 163, 222); fill-opacity: 1; fill-rule: nonzero; stroke: none; stroke-width: 0; marker: none; visibility: visible; display: inline; overflow: visible;" d="m -100.71875,-486.09375 c -2.00328,-0.003 -3.60045,0.21539 -4.71875,0.40625 -8.76549,1.56988 -12.62385,7.14165 -13.21875,11.96875 -0.47501,3.85411 0.0747,6.7309 2.5625,10.0625 -1.59814,-6.56491 -0.59207,-14.87277 10.84375,-18.1875 13.649611,-3.95641 21.76032,5.54359 21.5625,9.5 -0.03709,0.74183 0.09705,1.33364 0.3125,1.8125 1.068837,-5.07612 0.363627,-10.32967 -4.53125,-12.59375 -5.04332,-2.33274 -9.473699,-2.96378 -12.8125,-2.96875 z" transform="matrix(0.29836994,0,0,0.29836994,327.04579,111.65821)" id="path30777"/>
        </g>
        <path style="color: rgb(0, 0, 0); fill: rgb(0, 88, 119); fill-opacity: 1; fill-rule: nonzero; stroke: none; stroke-width: 0; marker: none; visibility: visible; display: inline; overflow: visible;" d="m 292.81269,-34.03457 c 0.0523,3.192738 1.67488,9.787576 1.67488,9.368857 0,-0.418721 -0.20936,-2.931038 -0.47106,-4.396557 -0.2617,-1.465522 -1.20382,-4.9723 -1.20382,-4.9723 z" id="path30779" inkscape:connector-curvature="0"/>
      </g>
      <g id="g30528" transform="matrix(0.81403822,0.50875502,-0.50875502,0.81403822,-148.57901,225.90549)">
        <path id="path30530" transform="matrix(0.26458336,0,0,0.26458336,320.08182,94.083721)" d="m -38.9375,-520.0625 c -8.371562,-0.10071 -17.236082,2.66412 -22.875,11.84375 0,0 -0.484192,1.19467 -1,3 -0.0051,0.0178 0.0051,0.0445 0,0.0625 -0.03599,0.0576 -0.08928,0.0981 -0.125,0.15625 0,0 -0.08532,0.34181 -0.1875,0.90625 -0.830486,3.25939 -1.551101,7.85506 -0.40625,11.625 0.686595,4.8786 2.837878,9.60791 8.28125,10.96875 12.309429,3.07736 15.526823,-5.3036 23.5,-10.96875 7.973177,-5.66514 20.84375,-5.53125 20.84375,-5.53125 0,0 0.897744,-1.84904 0.5625,-3.09375 0,0 -0.428614,-6.56403 -7.5625,-12.71875 -2.710096,-2.33812 -11.543479,-6.13586 -21.03125,-6.25 z" style="color: rgb(0, 0, 0); fill: rgb(0, 89, 121); fill-opacity: 1; fill-rule: nonzero; stroke: rgb(13, 13, 13); stroke-width: 10.4173; stroke-linejoin: round; stroke-miterlimit: 4; stroke-opacity: 1; stroke-dasharray: none; marker: none; visibility: visible; display: inline; overflow: visible;" inkscape:connector-curvature="0"/>
        <path style="color: rgb(0, 0, 0); fill: rgb(0, 89, 121); fill-opacity: 1; fill-rule: nonzero; stroke: none; stroke-width: 0; marker: none; visibility: visible; display: inline; overflow: visible;" d="m 303.42734,-39.527896 c 3.18286,-5.181391 10.56747,-2.570858 11.91721,-1.406377 1.25198,1.080141 1.82855,1.787588 2.00338,2.436365 0.0887,0.329329 -0.15289,0.820511 -0.15289,0.820511 0,0 -3.40491,-0.03701 -5.51448,1.461892 -2.10957,1.498905 -2.9608,3.719503 -6.21767,2.905285 -3.25688,-0.814221 -2.03555,-6.217676 -2.03555,-6.217676 z" id="path30532" inkscape:connector-curvature="0" sodipodi:nodetypes="csscssc"/>
        <path sodipodi:nodetypes="cscssc" transform="matrix(0.26458336,0,0,0.26458336,320.08182,94.083721)" inkscape:connector-curvature="0" id="path30534" d="m -61.82702,-508.20598 c 12.029691,-19.58321 38.821006,-9.99637 43.922363,-5.5952 7.133886,6.15472 7.571852,12.70531 7.571852,12.70531 0,0 -14.286099,-2.2143 -21.839626,3.10114 -7.553527,5.31545 -12.589213,14.68742 -24.898665,11.61006 -12.309452,-3.07737 -4.755924,-21.82131 -4.755924,-21.82131 z" style="color: rgb(0, 0, 0); fill: rgb(0, 141, 193); fill-opacity: 1; fill-rule: nonzero; stroke: none; stroke-width: 0; marker: none; visibility: visible; display: inline; overflow: visible;"/>
        <path id="path30536" transform="matrix(0.26458336,0,0,0.26458336,320.08182,94.083721)" d="m -38.9375,-520.0625 c -1.810845,-0.0218 -3.648096,0.0923 -5.46875,0.375 16.839165,1.37148 17.998798,12.99321 13.34375,17.78125 -4.895811,5.03569 -12.450956,13.4256 -17.90625,14.125 -5.455332,0.6994 -11.608644,0.55501 -14.40625,-6.71875 -0.297518,-0.77355 -0.534008,-1.45933 -0.75,-2.125 0.05682,4.49499 1.639319,8.8942 7.0625,10.25 12.309452,3.07736 17.321473,-6.30955 24.875,-11.625 7.553527,-5.31544 21.84375,-3.09375 21.84375,-3.09375 0,0 -0.428614,-6.56403 -7.5625,-12.71875 -2.710096,-2.33812 -11.543479,-6.13586 -21.03125,-6.25 z" style="color: rgb(0, 0, 0); fill: rgb(0, 177, 243); fill-opacity: 1; fill-rule: nonzero; stroke: none; stroke-width: 0; marker: none; visibility: visible; display: inline; overflow: visible;" inkscape:connector-curvature="0"/>
        <path sodipodi:nodetypes="ccc" transform="matrix(0.26458336,0,0,0.26458336,320.08182,94.083721)" inkscape:connector-curvature="0" id="path30538" d="m -59.029418,-502.33101 c 19.922131,-21.49699 46.688266,-4.32886 46.300326,-2.0982 0.177237,-1.35882 -23.210906,-15.03769 -46.300326,2.0982 z" style="color: rgb(0, 0, 0); fill: rgb(0, 88, 119); fill-opacity: 1; fill-rule: nonzero; stroke: none; stroke-width: 0; marker: none; visibility: visible; display: inline; overflow: visible;"/>
      </g>
      <g id="g30781" transform="matrix(0.79080559,0,0,0.79080559,-126.8879,339.31235)">
        <path id="path30783" transform="matrix(0.26458336,0,0,0.26458336,320.08182,94.083721)" d="m -38.9375,-520.0625 c -8.371562,-0.10071 -17.236082,2.66412 -22.875,11.84375 0,0 -0.484192,1.19467 -1,3 -0.0051,0.0178 0.0051,0.0445 0,0.0625 -0.03599,0.0576 -0.08928,0.0981 -0.125,0.15625 0,0 -0.08532,0.34181 -0.1875,0.90625 -0.830486,3.25939 -1.551101,7.85506 -0.40625,11.625 0.686595,4.8786 2.837878,9.60791 8.28125,10.96875 12.309429,3.07736 15.526823,-5.3036 23.5,-10.96875 7.973177,-5.66514 20.84375,-5.53125 20.84375,-5.53125 0,0 0.897744,-1.84904 0.5625,-3.09375 0,0 -0.428614,-6.56403 -7.5625,-12.71875 -2.710096,-2.33812 -11.543479,-6.13586 -21.03125,-6.25 z" style="color: rgb(0, 0, 0); fill: rgb(0, 89, 121); fill-opacity: 1; fill-rule: nonzero; stroke: rgb(13, 13, 13); stroke-width: 12.6453; stroke-linejoin: round; stroke-miterlimit: 4; stroke-opacity: 1; stroke-dasharray: none; marker: none; visibility: visible; display: inline; overflow: visible;" inkscape:connector-curvature="0"/>
        <path style="color: rgb(0, 0, 0); fill: rgb(0, 89, 121); fill-opacity: 1; fill-rule: nonzero; stroke: none; stroke-width: 0; marker: none; visibility: visible; display: inline; overflow: visible;" d="m 303.42734,-39.527896 c 3.18286,-5.181391 10.56747,-2.570858 11.91721,-1.406377 1.25198,1.080141 1.82855,1.787588 2.00338,2.436365 0.0887,0.329329 -0.15289,0.820511 -0.15289,0.820511 0,0 -3.40491,-0.03701 -5.51448,1.461892 -2.10957,1.498905 -2.9608,3.719503 -6.21767,2.905285 -3.25688,-0.814221 -2.03555,-6.217676 -2.03555,-6.217676 z" id="path30785" inkscape:connector-curvature="0" sodipodi:nodetypes="csscssc"/>
        <path sodipodi:nodetypes="cscssc" transform="matrix(0.26458336,0,0,0.26458336,320.08182,94.083721)" inkscape:connector-curvature="0" id="path30787" d="m -61.82702,-508.20598 c 12.029691,-19.58321 38.821006,-9.99637 43.922363,-5.5952 7.133886,6.15472 7.571852,12.70531 7.571852,12.70531 0,0 -14.286099,-2.2143 -21.839626,3.10114 -7.553527,5.31545 -12.589213,14.68742 -24.898665,11.61006 -12.309452,-3.07737 -4.755924,-21.82131 -4.755924,-21.82131 z" style="color: rgb(0, 0, 0); fill: rgb(0, 141, 193); fill-opacity: 1; fill-rule: nonzero; stroke: none; stroke-width: 0; marker: none; visibility: visible; display: inline; overflow: visible;"/>
        <path id="path30789" transform="matrix(0.26458336,0,0,0.26458336,320.08182,94.083721)" d="m -38.9375,-520.0625 c -1.810845,-0.0218 -3.648096,0.0923 -5.46875,0.375 16.839165,1.37148 17.998798,12.99321 13.34375,17.78125 -4.895811,5.03569 -12.450956,13.4256 -17.90625,14.125 -5.455332,0.6994 -11.608644,0.55501 -14.40625,-6.71875 -0.297518,-0.77355 -0.534008,-1.45933 -0.75,-2.125 0.05682,4.49499 1.639319,8.8942 7.0625,10.25 12.309452,3.07736 17.321473,-6.30955 24.875,-11.625 7.553527,-5.31544 21.84375,-3.09375 21.84375,-3.09375 0,0 -0.428614,-6.56403 -7.5625,-12.71875 -2.710096,-2.33812 -11.543479,-6.13586 -21.03125,-6.25 z" style="color: rgb(0, 0, 0); fill: rgb(0, 177, 243); fill-opacity: 1; fill-rule: nonzero; stroke: none; stroke-width: 0; marker: none; visibility: visible; display: inline; overflow: visible;" inkscape:connector-curvature="0"/>
        <path sodipodi:nodetypes="ccc" transform="matrix(0.26458336,0,0,0.26458336,320.08182,94.083721)" inkscape:connector-curvature="0" id="path30791" d="m -59.029418,-502.33101 c 19.922131,-21.49699 46.688266,-4.32886 46.300326,-2.0982 0.177237,-1.35882 -23.210906,-15.03769 -46.300326,2.0982 z" style="color: rgb(0, 0, 0); fill: rgb(0, 88, 119); fill-opacity: 1; fill-rule: nonzero; stroke: none; stroke-width: 0; marker: none; visibility: visible; display: inline; overflow: visible;"/>
      </g>
      <g transform="matrix(-0.74211476,0.70971435,0.70971435,0.74211476,361.82429,174.80741)" id="g30793">
        <path inkscape:connector-curvature="0" style="color: rgb(0, 0, 0); fill: rgb(0, 89, 121); fill-opacity: 1; fill-rule: nonzero; stroke: rgb(13, 13, 13); stroke-width: 9.73848; stroke-linejoin: round; stroke-miterlimit: 4; stroke-opacity: 1; stroke-dasharray: none; marker: none; visibility: visible; display: inline; overflow: visible;" d="m -38.9375,-520.0625 c -8.371562,-0.10071 -17.236082,2.66412 -22.875,11.84375 0,0 -0.484192,1.19467 -1,3 -0.0051,0.0178 0.0051,0.0445 0,0.0625 -0.03599,0.0576 -0.08928,0.0981 -0.125,0.15625 0,0 -0.08532,0.34181 -0.1875,0.90625 -0.830486,3.25939 -1.551101,7.85506 -0.40625,11.625 0.686595,4.8786 2.837878,9.60791 8.28125,10.96875 12.309429,3.07736 15.526823,-5.3036 23.5,-10.96875 7.973177,-5.66514 20.84375,-5.53125 20.84375,-5.53125 0,0 0.897744,-1.84904 0.5625,-3.09375 0,0 -0.428614,-6.56403 -7.5625,-12.71875 -2.710096,-2.33812 -11.543479,-6.13586 -21.03125,-6.25 z" transform="matrix(0.26458336,0,0,0.26458336,320.08182,94.083721)" id="path30795"/>
        <path sodipodi:nodetypes="csscssc" inkscape:connector-curvature="0" id="path30797" d="m 303.42734,-39.527896 c 3.18286,-5.181391 10.56747,-2.570858 11.91721,-1.406377 1.25198,1.080141 1.82855,1.787588 2.00338,2.436365 0.0887,0.329329 -0.15289,0.820511 -0.15289,0.820511 0,0 -3.40491,-0.03701 -5.51448,1.461892 -2.10957,1.498905 -2.9608,3.719503 -6.21767,2.905285 -3.25688,-0.814221 -2.03555,-6.217676 -2.03555,-6.217676 z" style="color: rgb(0, 0, 0); fill: rgb(0, 89, 121); fill-opacity: 1; fill-rule: nonzero; stroke: none; stroke-width: 0; marker: none; visibility: visible; display: inline; overflow: visible;"/>
        <path style="color: rgb(0, 0, 0); fill: rgb(0, 141, 193); fill-opacity: 1; fill-rule: nonzero; stroke: none; stroke-width: 0; marker: none; visibility: visible; display: inline; overflow: visible;" d="m -61.82702,-508.20598 c 12.029691,-19.58321 38.821006,-9.99637 43.922363,-5.5952 7.133886,6.15472 7.571852,12.70531 7.571852,12.70531 0,0 -14.286099,-2.2143 -21.839626,3.10114 -7.553527,5.31545 -12.589213,14.68742 -24.898665,11.61006 -12.309452,-3.07737 -4.755924,-21.82131 -4.755924,-21.82131 z" id="path30799" inkscape:connector-curvature="0" transform="matrix(0.26458336,0,0,0.26458336,320.08182,94.083721)" sodipodi:nodetypes="cscssc"/>
        <path inkscape:connector-curvature="0" style="color: rgb(0, 0, 0); fill: rgb(0, 177, 243); fill-opacity: 1; fill-rule: nonzero; stroke: none; stroke-width: 0; marker: none; visibility: visible; display: inline; overflow: visible;" d="m -38.9375,-520.0625 c -1.810845,-0.0218 -3.648096,0.0923 -5.46875,0.375 16.839165,1.37148 17.998798,12.99321 13.34375,17.78125 -4.895811,5.03569 -12.450956,13.4256 -17.90625,14.125 -5.455332,0.6994 -11.608644,0.55501 -14.40625,-6.71875 -0.297518,-0.77355 -0.534008,-1.45933 -0.75,-2.125 0.05682,4.49499 1.639319,8.8942 7.0625,10.25 12.309452,3.07736 17.321473,-6.30955 24.875,-11.625 7.553527,-5.31544 21.84375,-3.09375 21.84375,-3.09375 0,0 -0.428614,-6.56403 -7.5625,-12.71875 -2.710096,-2.33812 -11.543479,-6.13586 -21.03125,-6.25 z" transform="matrix(0.26458336,0,0,0.26458336,320.08182,94.083721)" id="path30801"/>
        <path style="color: rgb(0, 0, 0); fill: rgb(0, 88, 119); fill-opacity: 1; fill-rule: nonzero; stroke: none; stroke-width: 0; marker: none; visibility: visible; display: inline; overflow: visible;" d="m -59.029418,-502.33101 c 19.922131,-21.49699 46.688266,-4.32886 46.300326,-2.0982 0.177237,-1.35882 -23.210906,-15.03769 -46.300326,2.0982 z" id="path30803" inkscape:connector-curvature="0" transform="matrix(0.26458336,0,0,0.26458336,320.08182,94.083721)" sodipodi:nodetypes="ccc"/>
      </g>
      <g id="g30805" transform="matrix(1.3605354,0.25759388,-0.17752707,1.3743875,-290.08265,342.99452)">
        <g transform="matrix(0.88676279,0,0,0.88676279,30.069783,-4.9306227)" id="g30807">
          <path sodipodi:nodetypes="ccsccscssccsc" inkscape:connector-curvature="0" style="color: rgb(0, 0, 0); fill: rgb(0, 105, 144); fill-opacity: 1; fill-rule: nonzero; stroke: rgb(13, 13, 13); stroke-width: 8.14772; stroke-linejoin: round; stroke-miterlimit: 4; stroke-opacity: 1; stroke-dasharray: none; marker: none; visibility: visible; display: inline; overflow: visible;" d="m -87.25,-476.14171 c -2.259094,-0.003 -4.082645,2.23 -5.34375,2.44523 -9.88482,1.77035 -14.20413,0.44047 -14.875,5.88398 -0.10434,0.84663 -0.17863,1.66184 -0.1875,2.4375 -0.001,0.0101 0.001,0.0211 0,0.0312 -0.77915,6.53672 1.06873,12.07644 8.34375,18.90625 11.146771,10.46462 16.625,16.21875 16.625,16.21875 0,0 6.52295,-13.05536 10.875,-19.78125 2.731842,-4.22191 5.644323,-13.43215 4.875,-19.15625 -0.08399,-0.62492 -0.249803,-1.15683 -0.4375,-1.625 -0.0035,-0.009 0.0035,-0.0226 0,-0.0312 -0.472677,-3.2459 -2.080162,-6.04085 -5.4375,-7.59375 -5.687338,-2.63062 -11.118506,-1.52225 -14.4375,2.26454 z" transform="matrix(0.26458336,0,0,0.26458336,320.08182,94.083721)" id="path30809"/>
          <path sodipodi:nodetypes="csscsssc" inkscape:connector-curvature="0" id="path30811" d="m 295.58671,-32.35969 c -2.61536,0.484326 -3.81531,1.831374 -3.99281,3.32059 -0.20615,1.729507 0.2884,3.194413 2.21325,5.001467 2.94925,2.768765 4.39656,4.291878 4.39656,4.291878 0,0 1.72722,-3.45444 2.8787,-5.233998 0.7228,-1.117047 1.4884,-3.552263 1.28485,-5.066765 -0.12072,-0.898238 -0.65021,-1.099389 -1.54655,-1.528073 -2.40764,-1.15148 -4.34422,-0.942118 -5.234,-0.785099 z" style="color: rgb(0, 0, 0); fill: rgb(0, 89, 121); fill-opacity: 1; fill-rule: nonzero; stroke: none; stroke-width: 0; marker: none; visibility: visible; display: inline; overflow: visible;"/>
          <path style="color: rgb(0, 0, 0); fill: rgb(0, 141, 193); fill-opacity: 1; fill-rule: nonzero; stroke: none; stroke-width: 0; marker: none; visibility: visible; display: inline; overflow: visible;" d="m 295.58671,-33.253552 c -2.61536,0.468404 -3.76297,2.12551 -3.94047,3.565773 -0.20615,1.672656 0.23606,2.735073 2.16091,4.482726 2.94925,2.677752 4.39656,4.150799 4.39656,4.150799 0,0 1.72722,-3.340888 2.8787,-5.06195 1.15148,-1.721063 2.14594,-5.264428 -0.2617,-6.378058 -2.40764,-1.113629 -4.34422,-0.911149 -5.234,-0.75929 z" id="path30813" inkscape:connector-curvature="0" sodipodi:nodetypes="csscssc"/>
          <path id="path30815" transform="matrix(0.29836994,0,0,0.29836994,327.04579,111.65821)" d="m -118.75,-470.21875 c 0.3286,3.80753 2.33833,6.95537 7.34375,11.5 9.88454,8.9746 14.75,13.9375 14.75,13.9375 0,0 5.765764,-11.20053 9.625,-16.96875 1.176601,-1.75861 2.323197,-4.10359 3.09375,-6.59375 -2.439116,3.66375 -8.465478,9.8602 -10.4375,10.21875 -2.176025,0.39564 -5.33343,-7.69869 -5.53125,-9.28125 -0.19783,-1.58256 0.603496,11.65654 -0.78125,12.25 -1.26199,0.54085 -14.01278,-8.25291 -18.0625,-15.0625 z" style="color: rgb(0, 0, 0); fill: rgb(0, 163, 222); fill-opacity: 1; fill-rule: nonzero; stroke: none; stroke-width: 0; marker: none; visibility: visible; display: inline; overflow: visible;" inkscape:connector-curvature="0"/>
          <path id="path30817" transform="matrix(0.29836994,0,0,0.29836994,327.04579,111.65821)" d="m -100.71875,-486.09375 c -2.00328,-0.003 -3.60045,0.21539 -4.71875,0.40625 -8.76549,1.56988 -12.62385,7.14165 -13.21875,11.96875 -0.47501,3.85411 0.0747,6.7309 2.5625,10.0625 -1.59814,-6.56491 -0.59207,-14.87277 10.84375,-18.1875 13.649611,-3.95641 21.76032,5.54359 21.5625,9.5 -0.03709,0.74183 0.09705,1.33364 0.3125,1.8125 1.068837,-5.07612 0.363627,-10.32967 -4.53125,-12.59375 -5.04332,-2.33274 -9.473699,-2.96378 -12.8125,-2.96875 z" style="color: rgb(0, 0, 0); fill: rgb(0, 163, 222); fill-opacity: 1; fill-rule: nonzero; stroke: none; stroke-width: 0; marker: none; visibility: visible; display: inline; overflow: visible;" inkscape:connector-curvature="0"/>
        </g>
        <path inkscape:connector-curvature="0" id="path30819" d="m 292.81269,-34.03457 c 0.0523,3.192738 1.67488,9.787576 1.67488,9.368857 0,-0.418721 -0.20936,-2.931038 -0.47106,-4.396557 -0.2617,-1.465522 -1.20382,-4.9723 -1.20382,-4.9723 z" style="color: rgb(0, 0, 0); fill: rgb(0, 88, 119); fill-opacity: 1; fill-rule: nonzero; stroke: none; stroke-width: 0; marker: none; visibility: visible; display: inline; overflow: visible;"/>
      </g>
      <g transform="matrix(-0.60031271,0.47025629,0.47025629,0.60031271,309.76551,197.15925)" id="g30888">
        <path inkscape:connector-curvature="0" style="color: rgb(0, 0, 0); fill: rgb(0, 89, 121); fill-opacity: 1; fill-rule: nonzero; stroke: rgb(13, 13, 13); stroke-width: 13.1135; stroke-linejoin: round; stroke-miterlimit: 4; stroke-opacity: 1; stroke-dasharray: none; marker: none; visibility: visible; display: inline; overflow: visible;" d="m -38.9375,-520.0625 c -8.371562,-0.10071 -17.236082,2.66412 -22.875,11.84375 0,0 -0.484192,1.19467 -1,3 -0.0051,0.0178 0.0051,0.0445 0,0.0625 -0.03599,0.0576 -0.08928,0.0981 -0.125,0.15625 0,0 -0.08532,0.34181 -0.1875,0.90625 -0.830486,3.25939 -1.551101,7.85506 -0.40625,11.625 0.686595,4.8786 2.837878,9.60791 8.28125,10.96875 12.309429,3.07736 15.526823,-5.3036 23.5,-10.96875 7.973177,-5.66514 20.84375,-5.53125 20.84375,-5.53125 0,0 0.897744,-1.84904 0.5625,-3.09375 0,0 -0.428614,-6.56403 -7.5625,-12.71875 -2.710096,-2.33812 -11.543479,-6.13586 -21.03125,-6.25 z" transform="matrix(0.26458336,0,0,0.26458336,320.08182,94.083721)" id="path30890"/>
        <path sodipodi:nodetypes="csscssc" inkscape:connector-curvature="0" id="path30892" d="m 303.42734,-39.527896 c 3.18286,-5.181391 10.56747,-2.570858 11.91721,-1.406377 1.25198,1.080141 1.82855,1.787588 2.00338,2.436365 0.0887,0.329329 -0.15289,0.820511 -0.15289,0.820511 0,0 -3.40491,-0.03701 -5.51448,1.461892 -2.10957,1.498905 -2.9608,3.719503 -6.21767,2.905285 -3.25688,-0.814221 -2.03555,-6.217676 -2.03555,-6.217676 z" style="color: rgb(0, 0, 0); fill: rgb(0, 89, 121); fill-opacity: 1; fill-rule: nonzero; stroke: none; stroke-width: 0; marker: none; visibility: visible; display: inline; overflow: visible;"/>
        <path style="color: rgb(0, 0, 0); fill: rgb(0, 141, 193); fill-opacity: 1; fill-rule: nonzero; stroke: none; stroke-width: 0; marker: none; visibility: visible; display: inline; overflow: visible;" d="m -61.82702,-508.20598 c 12.029691,-19.58321 38.821006,-9.99637 43.922363,-5.5952 7.133886,6.15472 7.571852,12.70531 7.571852,12.70531 0,0 -14.286099,-2.2143 -21.839626,3.10114 -7.553527,5.31545 -12.589213,14.68742 -24.898665,11.61006 -12.309452,-3.07737 -4.755924,-21.82131 -4.755924,-21.82131 z" id="path30894" inkscape:connector-curvature="0" transform="matrix(0.26458336,0,0,0.26458336,320.08182,94.083721)" sodipodi:nodetypes="cscssc"/>
        <path inkscape:connector-curvature="0" style="color: rgb(0, 0, 0); fill: rgb(0, 177, 243); fill-opacity: 1; fill-rule: nonzero; stroke: none; stroke-width: 0; marker: none; visibility: visible; display: inline; overflow: visible;" d="m -38.9375,-520.0625 c -1.810845,-0.0218 -3.648096,0.0923 -5.46875,0.375 16.839165,1.37148 17.998798,12.99321 13.34375,17.78125 -4.895811,5.03569 -12.450956,13.4256 -17.90625,14.125 -5.455332,0.6994 -11.608644,0.55501 -14.40625,-6.71875 -0.297518,-0.77355 -0.534008,-1.45933 -0.75,-2.125 0.05682,4.49499 1.639319,8.8942 7.0625,10.25 12.309452,3.07736 17.321473,-6.30955 24.875,-11.625 7.553527,-5.31544 21.84375,-3.09375 21.84375,-3.09375 0,0 -0.428614,-6.56403 -7.5625,-12.71875 -2.710096,-2.33812 -11.543479,-6.13586 -21.03125,-6.25 z" transform="matrix(0.26458336,0,0,0.26458336,320.08182,94.083721)" id="path30896"/>
        <path style="color: rgb(0, 0, 0); fill: rgb(0, 88, 119); fill-opacity: 1; fill-rule: nonzero; stroke: none; stroke-width: 0; marker: none; visibility: visible; display: inline; overflow: visible;" d="m -59.029418,-502.33101 c 19.922131,-21.49699 46.688266,-4.32886 46.300326,-2.0982 0.177237,-1.35882 -23.210906,-15.03769 -46.300326,2.0982 z" id="path30898" inkscape:connector-curvature="0" transform="matrix(0.26458336,0,0,0.26458336,320.08182,94.083721)" sodipodi:nodetypes="ccc"/>
      </g>
      <g id="g30900" transform="matrix(0.60110155,0.47087423,-0.47087423,0.60110155,-88.340794,207.60327)">
        <path id="path30902" transform="matrix(0.26458336,0,0,0.26458336,320.08182,94.083721)" d="m -38.9375,-520.0625 c -8.371562,-0.10071 -17.236082,2.66412 -22.875,11.84375 0,0 -0.484192,1.19467 -1,3 -0.0051,0.0178 0.0051,0.0445 0,0.0625 -0.03599,0.0576 -0.08928,0.0981 -0.125,0.15625 0,0 -0.08532,0.34181 -0.1875,0.90625 -0.830486,3.25939 -1.551101,7.85506 -0.40625,11.625 0.686595,4.8786 2.837878,9.60791 8.28125,10.96875 12.309429,3.07736 15.526823,-5.3036 23.5,-10.96875 7.973177,-5.66514 20.84375,-5.53125 20.84375,-5.53125 0,0 0.897744,-1.84904 0.5625,-3.09375 0,0 -0.428614,-6.56403 -7.5625,-12.71875 -2.710096,-2.33812 -11.543479,-6.13586 -21.03125,-6.25 z" style="color: rgb(0, 0, 0); fill: rgb(0, 89, 121); fill-opacity: 1; fill-rule: nonzero; stroke: rgb(13, 13, 13); stroke-width: 13.0963; stroke-linejoin: round; stroke-miterlimit: 4; stroke-opacity: 1; stroke-dasharray: none; marker: none; visibility: visible; display: inline; overflow: visible;" inkscape:connector-curvature="0"/>
        <path style="color: rgb(0, 0, 0); fill: rgb(0, 89, 121); fill-opacity: 1; fill-rule: nonzero; stroke: none; stroke-width: 0; marker: none; visibility: visible; display: inline; overflow: visible;" d="m 303.42734,-39.527896 c 3.18286,-5.181391 10.56747,-2.570858 11.91721,-1.406377 1.25198,1.080141 1.82855,1.787588 2.00338,2.436365 0.0887,0.329329 -0.15289,0.820511 -0.15289,0.820511 0,0 -3.40491,-0.03701 -5.51448,1.461892 -2.10957,1.498905 -2.9608,3.719503 -6.21767,2.905285 -3.25688,-0.814221 -2.03555,-6.217676 -2.03555,-6.217676 z" id="path30904" inkscape:connector-curvature="0" sodipodi:nodetypes="csscssc"/>
        <path sodipodi:nodetypes="cscssc" transform="matrix(0.26458336,0,0,0.26458336,320.08182,94.083721)" inkscape:connector-curvature="0" id="path30906" d="m -61.82702,-508.20598 c 12.029691,-19.58321 38.821006,-9.99637 43.922363,-5.5952 7.133886,6.15472 7.571852,12.70531 7.571852,12.70531 0,0 -14.286099,-2.2143 -21.839626,3.10114 -7.553527,5.31545 -12.589213,14.68742 -24.898665,11.61006 -12.309452,-3.07737 -4.755924,-21.82131 -4.755924,-21.82131 z" style="color: rgb(0, 0, 0); fill: rgb(0, 141, 193); fill-opacity: 1; fill-rule: nonzero; stroke: none; stroke-width: 0; marker: none; visibility: visible; display: inline; overflow: visible;"/>
        <path id="path30908" transform="matrix(0.26458336,0,0,0.26458336,320.08182,94.083721)" d="m -38.9375,-520.0625 c -1.810845,-0.0218 -3.648096,0.0923 -5.46875,0.375 16.839165,1.37148 17.998798,12.99321 13.34375,17.78125 -4.895811,5.03569 -12.450956,13.4256 -17.90625,14.125 -5.455332,0.6994 -11.608644,0.55501 -14.40625,-6.71875 -0.297518,-0.77355 -0.534008,-1.45933 -0.75,-2.125 0.05682,4.49499 1.639319,8.8942 7.0625,10.25 12.309452,3.07736 17.321473,-6.30955 24.875,-11.625 7.553527,-5.31544 21.84375,-3.09375 21.84375,-3.09375 0,0 -0.428614,-6.56403 -7.5625,-12.71875 -2.710096,-2.33812 -11.543479,-6.13586 -21.03125,-6.25 z" style="color: rgb(0, 0, 0); fill: rgb(0, 177, 243); fill-opacity: 1; fill-rule: nonzero; stroke: none; stroke-width: 0; marker: none; visibility: visible; display: inline; overflow: visible;" inkscape:connector-curvature="0"/>
        <path sodipodi:nodetypes="ccc" transform="matrix(0.26458336,0,0,0.26458336,320.08182,94.083721)" inkscape:connector-curvature="0" id="path30910" d="m -59.029418,-502.33101 c 19.922131,-21.49699 46.688266,-4.32886 46.300326,-2.0982 0.177237,-1.35882 -23.210906,-15.03769 -46.300326,2.0982 z" style="color: rgb(0, 0, 0); fill: rgb(0, 88, 119); fill-opacity: 1; fill-rule: nonzero; stroke: none; stroke-width: 0; marker: none; visibility: visible; display: inline; overflow: visible;"/>
      </g>
    </g>
  </g>
</svg>