<?xml version="1.0" encoding="UTF-8" standalone="no"?><!-- Created with Inkscape (http://www.inkscape.org/) --><svg xmlns:dc="http://purl.org/dc/elements/1.1/" xmlns:cc="http://creativecommons.org/ns#" xmlns:rdf="http://www.w3.org/1999/02/22-rdf-syntax-ns#" xmlns:svg="http://www.w3.org/2000/svg" xmlns="http://www.w3.org/2000/svg" xmlns:sodipodi="http://sodipodi.sourceforge.net/DTD/sodipodi-0.dtd" xmlns:inkscape="http://www.inkscape.org/namespaces/inkscape" width="290.66034" height="162.28268" viewBox="0 0 76.903872 42.937287" version="1.1" id="svg23489" inkscape:version="0.48.5 r10040" sodipodi:docname="stalk_01.svg">
  <defs id="defs23483">
    <clipPath clipPathUnits="userSpaceOnUse" id="clipPath22932">
      <path style="opacity: 0.39823; color: rgb(0, 0, 0); fill: rgb(186, 255, 81); fill-opacity: 1; fill-rule: nonzero; stroke: none; stroke-width: 0; marker: none; visibility: visible; display: inline; overflow: visible;" d="m 544.30169,181.88988 c 0.28587,0.59217 2.59866,1.15837 3.74216,0.1578 0.98015,2.77708 16.86469,0 16.86469,0 l 0,-16.17162 -30.55281,0 0,15.42079 c 0,0 6.65838,3.49263 9.94596,0.59303 z" id="path22934" inkscape:connector-curvature="0" sodipodi:nodetypes="ccccccc"/>
    </clipPath>
    <clipPath clipPathUnits="userSpaceOnUse" id="clipPath22874">
      <path style="opacity: 0.39823; color: rgb(0, 0, 0); fill: rgb(186, 255, 81); fill-opacity: 1; fill-rule: nonzero; stroke: none; stroke-width: 0; marker: none; visibility: visible; display: inline; overflow: visible;" d="m 507.96393,172.04108 c 5.63585,4.14521 4.40861,7.03756 4.24526,7.42553 -0.16336,0.38797 -0.45419,0.84609 -0.55527,0.75946 0,0 -0.23077,1.39392 -0.96715,1.52387 0,0 0.7281,2.05291 -3.23333,2.91054 -3.96143,0.85763 -12.08849,-2.45037 -11.76178,-7.80034 0.32672,-5.34998 9.00511,-7.35111 12.27227,-4.81906 z" id="path22876" inkscape:connector-curvature="0" sodipodi:nodetypes="csccssc"/>
    </clipPath>
    <clipPath clipPathUnits="userSpaceOnUse" id="clipPath22894">
      <path style="opacity: 0.39823; color: rgb(0, 0, 0); fill: rgb(186, 255, 81); fill-opacity: 1; fill-rule: nonzero; stroke: none; stroke-width: 0; marker: none; visibility: visible; display: inline; overflow: visible;" d="m 519.13353,181.84256 c 1.53,1.07862 2.21773,-0.85703 2.00114,-1.06183 0.0817,0.0408 1.9603,0.65343 4.32899,-2.85877 2.36869,-3.51219 0,-9.96483 -8.00455,-11.96597 -8.00454,-2.00113 -11.2717,3.47136 -11.47589,10.16904 -0.2042,6.69767 5.75836,9.27056 9.76064,9.7198 4.00227,0.44923 3.38967,-4.00227 3.38967,-4.00227 z" id="path22896" inkscape:connector-curvature="0" sodipodi:nodetypes="ccssssc"/>
    </clipPath>
    <clipPath clipPathUnits="userSpaceOnUse" id="clipPath23263">
      <path style="opacity: 0.39823; color: rgb(0, 0, 0); fill: rgb(186, 255, 81); fill-opacity: 1; fill-rule: nonzero; stroke: none; stroke-width: 0; marker: none; visibility: visible; display: inline; overflow: visible;" d="m 507.96393,172.04108 c 5.63585,4.14521 4.40861,7.03756 4.24526,7.42553 -0.16336,0.38797 -0.45419,0.84609 -0.55527,0.75946 0,0 -0.23077,1.39392 -0.96715,1.52387 0,0 0.7281,2.05291 -3.23333,2.91054 -3.96143,0.85763 -12.08849,-2.45037 -11.76178,-7.80034 0.32672,-5.34998 9.00511,-7.35111 12.27227,-4.81906 z" id="path23265" inkscape:connector-curvature="0" sodipodi:nodetypes="csccssc"/>
    </clipPath>
    <clipPath clipPathUnits="userSpaceOnUse" id="clipPath22907">
      <path style="opacity: 0.39823; color: rgb(0, 0, 0); fill: rgb(186, 255, 81); fill-opacity: 1; fill-rule: nonzero; stroke: none; stroke-width: 0; marker: none; visibility: visible; display: inline; overflow: visible;" d="m 525.58617,181.98549 c 0.89522,0.98185 2.40724,0.64233 3.04255,0.12252 0.16124,0.72559 12.13955,0.23486 11.90471,0 -0.23482,-0.23483 4.09811,-23.83249 0,-26.19853 -4.09811,-2.36605 -15.11061,0 -21.31822,0 -6.2076,0 -9.48879,8.76153 -8.08444,14.00265 1.40436,5.24112 4.81751,7.15803 7.00687,9.97898 2.18936,2.82095 7.44853,2.09438 7.44853,2.09438 z" id="path22909" inkscape:connector-curvature="0" sodipodi:nodetypes="ccsssssc"/>
    </clipPath>
    <clipPath clipPathUnits="userSpaceOnUse" id="clipPath23269">
      <path style="opacity: 0.39823; color: rgb(0, 0, 0); fill: rgb(186, 255, 81); fill-opacity: 1; fill-rule: nonzero; stroke: none; stroke-width: 0; marker: none; visibility: visible; display: inline; overflow: visible;" d="m 525.58617,181.98549 c 0.89522,0.98185 2.40724,0.64233 3.04255,0.12252 0.16124,0.72559 12.13955,0.23486 11.90471,0 -0.23482,-0.23483 4.09811,-23.83249 0,-26.19853 -4.09811,-2.36605 -15.11061,0 -21.31822,0 -6.2076,0 -9.48879,8.76153 -8.08444,14.00265 1.40436,5.24112 4.81751,7.15803 7.00687,9.97898 2.18936,2.82095 7.44853,2.09438 7.44853,2.09438 z" id="path23271" inkscape:connector-curvature="0" sodipodi:nodetypes="ccsssssc"/>
    </clipPath>
    <clipPath clipPathUnits="userSpaceOnUse" id="clipPath23273">
      <path style="opacity: 0.39823; color: rgb(0, 0, 0); fill: rgb(186, 255, 81); fill-opacity: 1; fill-rule: nonzero; stroke: none; stroke-width: 0; marker: none; visibility: visible; display: inline; overflow: visible;" d="m 507.96393,172.04108 c 5.63585,4.14521 4.40861,7.03756 4.24526,7.42553 -0.16336,0.38797 -0.45419,0.84609 -0.55527,0.75946 0,0 -0.23077,1.39392 -0.96715,1.52387 0,0 0.7281,2.05291 -3.23333,2.91054 -3.96143,0.85763 -12.08849,-2.45037 -11.76178,-7.80034 0.32672,-5.34998 9.00511,-7.35111 12.27227,-4.81906 z" id="path23275" inkscape:connector-curvature="0" sodipodi:nodetypes="csccssc"/>
    </clipPath>
    <clipPath clipPathUnits="userSpaceOnUse" id="clipPath23277">
      <path style="opacity: 0.39823; color: rgb(0, 0, 0); fill: rgb(186, 255, 81); fill-opacity: 1; fill-rule: nonzero; stroke: none; stroke-width: 0; marker: none; visibility: visible; display: inline; overflow: visible;" d="m 519.13353,181.84256 c 1.53,1.07862 2.21773,-0.85703 2.00114,-1.06183 0.0817,0.0408 1.9603,0.65343 4.32899,-2.85877 2.36869,-3.51219 0,-9.96483 -8.00455,-11.96597 -8.00454,-2.00113 -11.2717,3.47136 -11.47589,10.16904 -0.2042,6.69767 5.75836,9.27056 9.76064,9.7198 4.00227,0.44923 3.38967,-4.00227 3.38967,-4.00227 z" id="path23279" inkscape:connector-curvature="0" sodipodi:nodetypes="ccssssc"/>
    </clipPath>
    <clipPath clipPathUnits="userSpaceOnUse" id="clipPath23281">
      <path style="opacity: 0.39823; color: rgb(0, 0, 0); fill: rgb(186, 255, 81); fill-opacity: 1; fill-rule: nonzero; stroke: none; stroke-width: 0; marker: none; visibility: visible; display: inline; overflow: visible;" d="m 525.58617,181.98549 c 0.89522,0.98185 2.40724,0.64233 3.04255,0.12252 0.16124,0.72559 12.13955,0.23486 11.90471,0 -0.23482,-0.23483 4.09811,-23.83249 0,-26.19853 -4.09811,-2.36605 -15.11061,0 -21.31822,0 -6.2076,0 -9.48879,8.76153 -8.08444,14.00265 1.40436,5.24112 4.81751,7.15803 7.00687,9.97898 2.18936,2.82095 7.44853,2.09438 7.44853,2.09438 z" id="path23283" inkscape:connector-curvature="0" sodipodi:nodetypes="ccsssssc"/>
    </clipPath>
    <clipPath clipPathUnits="userSpaceOnUse" id="clipPath23285">
      <path style="opacity: 0.39823; color: rgb(0, 0, 0); fill: rgb(186, 255, 81); fill-opacity: 1; fill-rule: nonzero; stroke: none; stroke-width: 0; marker: none; visibility: visible; display: inline; overflow: visible;" d="m 544.30169,181.88988 c 0.28587,0.59217 2.59866,1.15837 3.74216,0.1578 0.98015,2.77708 16.86469,0 16.86469,0 l 0,-16.17162 -30.55281,0 0,15.42079 c 0,0 6.65838,3.49263 9.94596,0.59303 z" id="path23287" inkscape:connector-curvature="0" sodipodi:nodetypes="ccccccc"/>
    </clipPath>
    <clipPath clipPathUnits="userSpaceOnUse" id="clipPath23289">
      <path style="opacity: 0.39823; color: rgb(0, 0, 0); fill: rgb(186, 255, 81); fill-opacity: 1; fill-rule: nonzero; stroke: none; stroke-width: 0; marker: none; visibility: visible; display: inline; overflow: visible;" d="m 507.96393,172.04108 c 5.63585,4.14521 4.40861,7.03756 4.24526,7.42553 -0.16336,0.38797 -0.45419,0.84609 -0.55527,0.75946 0,0 -0.23077,1.39392 -0.96715,1.52387 0,0 0.7281,2.05291 -3.23333,2.91054 -3.96143,0.85763 -12.08849,-2.45037 -11.76178,-7.80034 0.32672,-5.34998 9.00511,-7.35111 12.27227,-4.81906 z" id="path23291" inkscape:connector-curvature="0" sodipodi:nodetypes="csccssc"/>
    </clipPath>
    <clipPath clipPathUnits="userSpaceOnUse" id="clipPath22919">
      <path style="opacity: 0.39823; color: rgb(0, 0, 0); fill: rgb(186, 255, 81); fill-opacity: 1; fill-rule: nonzero; stroke: none; stroke-width: 0; marker: none; visibility: visible; display: inline; overflow: visible;" d="m 533.24358,180.67863 c -0.16336,1.16393 0.51049,2.00114 2.00114,1.20477 -1.74256,1.5022 -0.71572,1.26164 1.42124,3.05207 2.13697,1.79043 11.4934,0.98185 12.12872,0.5198 0.63531,-0.46205 8.02805,-6.41089 8.0858,-8.66336 0.0578,-2.25248 -1.90593,-15.01651 -5.19801,-17.78878 -3.29208,-2.77228 -16.4604,-0.57756 -19.75248,-0.0578 -3.29208,0.5198 -10.16501,5.71782 -9.93399,5.77558 0.23102,0.0577 2.83003,15.42079 2.77228,15.65181 -0.0578,0.23102 2.42574,4.15842 2.83003,3.92739 0.40429,-0.23102 3.95121,-3.17246 3.95121,-3.17246 0,0 1.59196,0.89865 1.69406,-0.44906 z" id="path22921" inkscape:connector-curvature="0" sodipodi:nodetypes="ccsssssssscc"/>
    </clipPath>
    <clipPath clipPathUnits="userSpaceOnUse" id="clipPath23295">
      <path style="opacity: 0.39823; color: rgb(0, 0, 0); fill: rgb(186, 255, 81); fill-opacity: 1; fill-rule: nonzero; stroke: none; stroke-width: 0; marker: none; visibility: visible; display: inline; overflow: visible;" d="m 525.58617,181.98549 c 0.89522,0.98185 2.40724,0.64233 3.04255,0.12252 0.16124,0.72559 12.13955,0.23486 11.90471,0 -0.23482,-0.23483 4.09811,-23.83249 0,-26.19853 -4.09811,-2.36605 -15.11061,0 -21.31822,0 -6.2076,0 -9.48879,8.76153 -8.08444,14.00265 1.40436,5.24112 4.81751,7.15803 7.00687,9.97898 2.18936,2.82095 7.44853,2.09438 7.44853,2.09438 z" id="path23297" inkscape:connector-curvature="0" sodipodi:nodetypes="ccsssssc"/>
    </clipPath>
    <clipPath clipPathUnits="userSpaceOnUse" id="clipPath23299">
      <path style="opacity: 0.39823; color: rgb(0, 0, 0); fill: rgb(186, 255, 81); fill-opacity: 1; fill-rule: nonzero; stroke: none; stroke-width: 0; marker: none; visibility: visible; display: inline; overflow: visible;" d="m 525.58617,181.98549 c 0.89522,0.98185 2.40724,0.64233 3.04255,0.12252 0.16124,0.72559 12.13955,0.23486 11.90471,0 -0.23482,-0.23483 4.09811,-23.83249 0,-26.19853 -4.09811,-2.36605 -15.11061,0 -21.31822,0 -6.2076,0 -9.48879,8.76153 -8.08444,14.00265 1.40436,5.24112 4.81751,7.15803 7.00687,9.97898 2.18936,2.82095 7.44853,2.09438 7.44853,2.09438 z" id="path23301" inkscape:connector-curvature="0" sodipodi:nodetypes="ccsssssc"/>
    </clipPath>
  </defs>
  <sodipodi:namedview id="base" pagecolor="#7d848b" bordercolor="#666666" borderopacity="1.0" inkscape:pageopacity="0" inkscape:pageshadow="2" inkscape:zoom="0.8098268" inkscape:cx="472.27548" inkscape:cy="65.912599" inkscape:document-units="px" inkscape:current-layer="layer1" showgrid="false" inkscape:pagecheckerboard="false" showborder="true" units="px" inkscape:window-width="1920" inkscape:window-height="1017" inkscape:window-x="-8" inkscape:window-y="-8" inkscape:window-maximized="1" inkscape:showpageshadow="false" guidetolerance="28" fit-margin-top="8" fit-margin-left="8" fit-margin-right="8" fit-margin-bottom="8">
    <inkscape:grid type="xygrid" id="grid24034" spacingx="1px" spacingy="1px" empspacing="8" visible="true" enabled="true" snapvisiblegridlinesonly="true" originx="5.416838px" originy="405.516px"/>
  </sodipodi:namedview>
  <metadata id="metadata23486">
    <rdf:RDF>
      <cc:Work rdf:about="">
        <dc:format>image/svg+xml</dc:format>
        <dc:type rdf:resource="http://purl.org/dc/dcmitype/StillImage"/>
        <dc:title/>
        <cc:license rdf:resource=""/>
        <dc:creator>
          <cc:Agent>
            <dc:title>Robert Brooks</dc:title>
          </cc:Agent>
        </dc:creator>
      </cc:Work>
    </rdf:RDF>
  </metadata>
  <g inkscape:label="Layer 1" inkscape:groupmode="layer" id="layer1" transform="translate(1.4332075,-361.35545)">
    <path sodipodi:nodetypes="sssscsssss" inkscape:connector-curvature="0" id="path30353" d="m 30.863567,387.7973 c -6.303499,0.67996 -12.925982,6.76273 -13.887305,6.76273 -3.680327,0 -6.133205,2.54377 -6.133205,4.30042 0,2.08492 2.452878,3.31562 6.133205,3.31562 3.199027,0 4.293236,-0.8898 5.594091,-2.39609 2.496041,-2.5489 5.886659,-5.70869 9.807449,-7.32601 5.252275,-2.16657 16.426708,-1.59081 19.432098,-2.95147 3.698666,-1.67453 3.49749,-2.81774 2.897138,-2.76126 -0.555397,0.0522 -2.211287,2.49281 -4.609099,1.64096 -4.054103,-1.44028 -11.360042,-1.43429 -19.234372,-0.5849 z" style="opacity: 0.336283; color: rgb(0, 0, 0); fill: rgb(0, 0, 0); fill-opacity: 1; fill-rule: nonzero; stroke: none; stroke-width: 0; marker: none; visibility: visible; display: inline; overflow: visible;" gds_color="shadow" gds_switchable="shadow"/>
    <g id="g34740" gds_color="leaves" gds_switchable="leaves">
      <g id="g30324" transform="matrix(1.0171011,0.00758764,-0.00758764,1.0171011,-279.52004,405.19539)">
        <path id="path30327" transform="matrix(0.26458336,0,0,0.26458336,320.08182,94.083721)" d="m 0.625,-492.53125 c 0,0 -1.12049114,1.32007 -3.40625,3.84375 -1.141259,1.25848 -2.5891862,2.81 -4.3125,4.65625 -1.7286358,1.85336 -3.741163,3.9912 -6.0625,6.40625 -0.66472,0.69155 -1.260941,1.33538 -1.8125,1.96875 -1.026678,1.18107 -1.864289,2.30276 -2.53125,3.34375 0.0035,-0.0205 -0.0035,-0.042 0,-0.0625 -0.36737,0.56887 -0.667549,1.112 -0.9375,1.65625 -0.06699,0.1353 -0.126241,0.27195 -0.1875,0.40625 -0.104345,0.22831 -0.193104,0.46138 -0.28125,0.6875 -0.116278,0.29898 -0.22338,0.60904 -0.3125,0.90625 -0.01226,0.0411 -0.0195,0.0839 -0.03125,0.125 -0.05083,0.17654 -0.08338,0.35457 -0.125,0.53125 -0.01755,0.075 -0.04657,0.14371 -0.0625,0.21875 -0.02887,0.135 -0.0388,0.27081 -0.0625,0.40625 -0.0017,0.01 0.0017,0.0213 0,0.0312 -0.004,0.0234 -0.02735,0.0391 -0.03125,0.0625 -0.03628,0.21874 -0.07046,0.43553 -0.09375,0.65625 -0.01901,0.18012 -0.05187,0.34931 -0.0625,0.53125 -0.0025,0.0415 0.002,0.0834 0,0.125 -0.0034,0.0715 0.0022,0.14686 0,0.21875 -0.384994,3.02896 -0.364475,7.19333 0.03125,9.34375 0.932636,5.06796 5.238204,9.41811 14.09375,10.46875 19.034455,1.71558 22.443565,-7.88483 22.53125,-11 0.124044,-4.42242 -0.279085,-7.21899 -0.96875,-9.15625 -0.252884,-1.25573 -0.628262,-2.5083 -1.09375,-3.71875 -0.0081,-0.0105 -0.02308,-0.0207 -0.03125,-0.0312 -0.167497,-0.4322 -0.311632,-0.86231 -0.5,-1.28125 -0.07121,-0.15932 -0.145027,-0.31191 -0.21875,-0.46875 -0.15123,-0.3199 -0.308186,-0.62913 -0.46875,-0.9375 -0.424999,-0.82153 -0.876833,-1.60085 -1.34375,-2.3125 -0.0566,-0.0862 -0.09935,-0.16572 -0.15625,-0.25 -0.261393,-0.38789 -0.516111,-0.75046 -0.78125,-1.09375 -1.064894,-1.37879 -2.2856783,-3.08421 -3.5,-4.875 C 4.284668,-486.47492 0.625,-492.53125 0.625,-492.53125 z" style="color: rgb(0, 0, 0); fill: rgb(0, 89, 121); fill-opacity: 1; fill-rule: nonzero; stroke: rgb(13, 13, 13); stroke-width: 9.83159; stroke-linejoin: round; stroke-miterlimit: 4; stroke-opacity: 1; stroke-dasharray: none; marker: none; visibility: visible; display: inline; overflow: visible;" inkscape:connector-curvature="0"/>
        <g id="g30329" transform="matrix(0.99768934,-0.06794096,-0.06794096,-0.99768934,24.815776,-39.76519)">
          <g transform="matrix(0.88676279,0,0,0.88676279,30.069783,-4.9306227)" id="g30331">
            <path sodipodi:nodetypes="cssscssc" inkscape:connector-curvature="0" id="path30333" d="m 295.42233,-34.773558 c -2.61482,0.49227 -3.81252,1.872148 -3.98742,3.399687 -0.0961,0.83937 0.0662,2.67621 0.36105,3.460662 0.32832,0.873492 0.84538,0.695933 1.8613,1.674477 2.9545,2.845802 4.40467,4.410998 4.40467,4.410998 0,0 1.72132,-3.541013 2.8698,-5.364707 0.72091,-1.144751 1.76649,-1.205994 1.4239,-4.762317 -0.0892,-0.925552 -1.30189,-3.715352 -6.9333,-2.8188 z" style="color: rgb(0, 0, 0); fill: rgb(0, 89, 121); fill-opacity: 1; fill-rule: nonzero; stroke: none; stroke-width: 0; marker: none; visibility: visible; display: inline; overflow: visible;"/>
            <path style="color: rgb(0, 0, 0); fill: rgb(0, 141, 193); fill-opacity: 1; fill-rule: nonzero; stroke: none; stroke-width: 0; marker: none; visibility: visible; display: inline; overflow: visible;" d="m 295.58671,-33.253552 c -2.61536,0.468404 -3.76297,2.12551 -3.94047,3.565773 -0.20615,1.672656 0.23606,2.735073 2.16091,4.482726 2.94925,2.677752 4.39656,4.150799 4.39656,4.150799 0,0 1.72722,-3.340888 2.8787,-5.06195 1.15148,-1.721063 2.14594,-5.264428 -0.2617,-6.378058 -2.40764,-1.113629 -4.34422,-0.911149 -5.234,-0.75929 z" id="path30335" inkscape:connector-curvature="0" sodipodi:nodetypes="csscssc"/>
            <path id="path30337" transform="matrix(0.29836994,0,0,0.29836994,327.04579,111.65821)" d="m -118.75,-470.21875 c 0.3286,3.80753 2.33833,6.95537 7.34375,11.5 9.88454,8.9746 14.75,13.9375 14.75,13.9375 0,0 5.765764,-11.20053 9.625,-16.96875 1.176601,-1.75861 2.323197,-4.10359 3.09375,-6.59375 -2.439116,3.66375 -8.465478,9.8602 -10.4375,10.21875 -2.176025,0.39564 -5.33343,-7.69869 -5.53125,-9.28125 -0.19783,-1.58256 0.603496,11.65654 -0.78125,12.25 -1.26199,0.54085 -14.01278,-8.25291 -18.0625,-15.0625 z" style="color: rgb(0, 0, 0); fill: rgb(0, 163, 222); fill-opacity: 1; fill-rule: nonzero; stroke: none; stroke-width: 0; marker: none; visibility: visible; display: inline; overflow: visible;" inkscape:connector-curvature="0"/>
            <path id="path30339" transform="matrix(0.29836994,0,0,0.29836994,327.04579,111.65821)" d="m -100.71875,-486.09375 c -2.00328,-0.003 -3.60045,0.21539 -4.71875,0.40625 -8.76549,1.56988 -12.62385,7.14165 -13.21875,11.96875 -0.47501,3.85411 0.0747,6.7309 2.5625,10.0625 -1.59814,-6.56491 -0.59207,-14.87277 10.84375,-18.1875 13.649611,-3.95641 21.76032,5.54359 21.5625,9.5 -0.03709,0.74183 0.09705,1.33364 0.3125,1.8125 1.068837,-5.07612 0.363627,-10.32967 -4.53125,-12.59375 -5.04332,-2.33274 -9.473699,-2.96378 -12.8125,-2.96875 z" style="color: rgb(0, 0, 0); fill: rgb(0, 163, 222); fill-opacity: 1; fill-rule: nonzero; stroke: none; stroke-width: 0; marker: none; visibility: visible; display: inline; overflow: visible;" inkscape:connector-curvature="0"/>
          </g>
          <path inkscape:connector-curvature="0" id="path30341" d="m 292.81269,-34.03457 c 0.0523,3.192738 1.67488,9.787576 1.67488,9.368857 0,-0.418721 -0.20936,-2.931038 -0.47106,-4.396557 -0.2617,-1.465522 -1.20382,-4.9723 -1.20382,-4.9723 z" style="color: rgb(0, 0, 0); fill: rgb(0, 88, 119); fill-opacity: 1; fill-rule: nonzero; stroke: none; stroke-width: 0; marker: none; visibility: visible; display: inline; overflow: visible;"/>
        </g>
      </g>
      <g id="g30343" transform="matrix(-0.3994685,0.63132833,0.63132833,0.3994685,205.86167,217.87446)">
        <path id="path30345" transform="matrix(0.26458336,0,0,0.26458336,320.08182,94.083721)" d="m -167.6875,-575.375 c -9.93262,0.29689 -17.12738,3.35209 -25.53125,9.09375 -16.46876,11.25171 -15.86181,26.49286 -17.65625,35.5 0.1958,-0.66571 0.49057,-1.53068 0.84375,-2.5 -0.0869,0.40908 -0.19865,0.80412 -0.28125,1.21875 1.3988,-4.75592 5.97136,-10.59308 18.84375,-14.78125 11.80781,-3.8418 21.29543,6.88157 32,-2.0625 2.04151,-1.31004 2.55449,-8.30909 2.1875,-9.9375 -0.0574,-0.25488 -0.15788,-0.43566 -0.28125,-0.59375 -0.002,-0.69849 -0.16,-1.37994 -0.40625,-2.03125 1.79958,-1.30722 3.46636,-2.65145 4.03125,-3.53125 1.33256,-2.07539 1.53877,-5.72061 0.9375,-7.40625 0.2656,-1.06604 -0.62069,-1.95296 -3.6875,-2.34375 -4.06938,-0.51855 -7.68913,-0.72396 -11,-0.625 z" style="color: rgb(0, 0, 0); fill: rgb(0, 89, 121); fill-opacity: 1; fill-rule: nonzero; stroke: rgb(13, 13, 13); stroke-width: 13.3852; stroke-linejoin: round; stroke-miterlimit: 4; stroke-opacity: 1; stroke-dasharray: none; marker: none; visibility: visible; display: inline; overflow: visible;" inkscape:connector-curvature="0"/>
        <path style="color: rgb(0, 0, 0); fill: rgb(0, 89, 121); fill-opacity: 1; fill-rule: nonzero; stroke: none; stroke-width: 0; marker: none; visibility: visible; display: inline; overflow: visible;" d="m 264.43852,-46.687431 c 0.47478,-2.38314 1.16156,-4.406455 4.52446,-6.650709 2.98659,-1.99312 6.20569,-4.787886 10.51245,-4.239087 0.29949,0.217341 0.3058,1.507572 -0.12141,2.172929 -0.37588,0.585419 -2.59084,1.957759 -2.59084,1.957759 0,0 1.524,-1.125048 1.70384,-0.326671 0.0971,0.430851 -0.0407,2.281474 -0.58085,2.628088 -2.83225,2.366452 -5.33696,-0.469855 -8.46111,0.546621 -3.40582,1.10812 -4.61644,2.652733 -4.98654,3.91107 z" id="path30347" inkscape:connector-curvature="0" sodipodi:nodetypes="cscscccsc"/>
        <path sodipodi:nodetypes="csscssc" inkscape:connector-curvature="0" id="path30349" d="m 264.29048,-46.354342 c 0.47478,-2.38314 0.31514,-6.411342 4.6725,-9.388356 2.9647,-2.025531 5.35446,-2.790437 9.66122,-2.241639 2.80561,0.357511 -1.23294,2.29026 -1.23294,2.29026 0,0 1.88359,1.578877 0.49491,2.772477 -2.57055,2.209438 -5.33696,-0.469855 -8.46111,0.546621 -3.40582,1.10812 -4.76448,4.7623 -5.13458,6.020637 z" style="color: rgb(0, 0, 0); fill: rgb(0, 157, 214); fill-opacity: 1; fill-rule: nonzero; stroke: none; stroke-width: 0; marker: none; visibility: visible; display: inline; overflow: visible;"/>
        <path id="path30351" transform="matrix(0.26458336,0,0,0.26458336,320.08182,94.083721)" d="m -194.21875,-565.5625 c -15.41825,11.17345 -14.8999,25.96533 -16.65625,34.78125 1.3988,-4.75592 6.53386,-18.56183 19.40625,-22.75 3.68994,-1.20056 7.24297,-1.03746 10.6875,-0.5 -0.0764,-0.0715 -0.14607,-0.14607 -0.21875,-0.21875 -3.16513,-3.16513 -12.06395,-2.3856 -15.03125,-2.78125 -2.02335,-0.26978 -2.49008,-3.37413 1.8125,-8.53125 z" style="color: rgb(0, 0, 0); fill: rgb(0, 141, 193); fill-opacity: 1; fill-rule: nonzero; stroke: none; stroke-width: 0; marker: none; visibility: visible; display: inline; overflow: visible;" inkscape:connector-curvature="0"/>
      </g>
      <g id="g30355" transform="matrix(-0.90941676,0,0,0.90941676,281.71073,417.25768)">
        <path id="path30357" transform="matrix(0.26458336,0,0,0.26458336,320.08182,94.083721)" d="m -134.8125,-565.28125 c -6.4468,-0.0444 -13.05818,2.3557 -18.90625,6.84375 -3.91765,3.00657 -6.50378,6.69266 -6.84375,10.21875 -0.6436,2.82337 -0.0737,6.86458 -0.0312,7.59375 0.21271,3.65953 3.01196,7.01513 9.4375,9.125 5.93461,1.18692 12.46875,-1.78125 12.46875,-1.78125 0,0 2.37731,2.78183 7.125,3.96875 4.74769,1.18693 17.20872,-0.6087 18,-9.90625 0.0772,-0.9072 0.51512,-6.90001 0.5,-7.71875 -0.0272,-1.58043 -0.26439,-2.82943 -0.625,-3.84375 -1.08896,-6.97358 -6.00578,-10.32981 -12.53125,-12.875 -2.76607,-1.07888 -5.66339,-1.60481 -8.59375,-1.625 z" style="color: rgb(0, 0, 0); fill: rgb(0, 89, 121); fill-opacity: 1; fill-rule: nonzero; stroke: rgb(13, 13, 13); stroke-width: 10.9961; stroke-miterlimit: 4; stroke-opacity: 1; stroke-dasharray: none; marker: none; visibility: visible; display: inline; overflow: visible;" inkscape:connector-curvature="0"/>
        <path style="color: rgb(0, 0, 0); fill: rgb(0, 89, 121); fill-opacity: 1; fill-rule: nonzero; stroke: none; stroke-width: 0; marker: none; visibility: visible; display: inline; overflow: visible;" d="m 280.09046,-46.539205 c -1.70009,-0.558237 -2.44153,-1.450725 -2.49781,-2.418976 -0.0123,-0.211219 -0.20131,-1.472844 0.0581,-2.21199 0.284,-0.809097 0.83403,-0.114173 1.75553,-0.821372 2.25062,-1.727219 4.93704,-2.299689 7.27898,-1.386239 1.93348,0.754135 3.44274,0.416837 3.48288,2.751912 0.004,0.216625 -0.10897,1.805376 -0.1294,2.045407 -0.20936,2.459977 -3.5105,2.931039 -4.76666,2.616997 -1.25616,-0.31404 -1.88424,-1.046798 -1.88424,-1.046798 0,0 -1.72722,0.785098 -3.29742,0.471059 z" id="path30359" inkscape:connector-curvature="0" sodipodi:nodetypes="cssssssscc"/>
        <path sodipodi:nodetypes="csssscc" inkscape:connector-curvature="0" id="path30361" d="m 280.09046,-48.214084 c -3.50678,-1.15148 -2.93476,-3.725119 -0.68414,-5.452338 2.25062,-1.727219 4.93704,-2.299688 7.27898,-1.386239 2.11285,0.824096 3.59411,1.969902 3.35348,4.797319 -0.20936,2.459977 -3.5105,2.931039 -4.76666,2.616997 -1.25616,-0.31404 -1.88424,-1.046798 -1.88424,-1.046798 0,0 -1.72722,0.785098 -3.29742,0.471059 z" style="color: rgb(0, 0, 0); fill: rgb(0, 141, 193); fill-opacity: 1; fill-rule: nonzero; stroke: none; stroke-width: 0; marker: none; visibility: visible; display: inline; overflow: visible;"/>
        <path id="path30363" transform="matrix(0.26458336,0,0,0.26458336,320.08182,94.083721)" d="m -134.8125,-565.28125 c -6.43381,-0.0443 -13.03559,2.34179 -18.875,6.8125 19.35411,-6.63091 35.97139,2.24166 39.9375,7.25 -1.22452,-6.67651 -6.08179,-9.94633 -12.46875,-12.4375 -2.76607,-1.07888 -5.66339,-1.60481 -8.59375,-1.625 z" style="opacity: 0.544248; color: rgb(0, 0, 0); fill: rgb(0, 177, 243); fill-opacity: 1; fill-rule: nonzero; stroke: none; stroke-width: 0; marker: none; visibility: visible; display: inline; overflow: visible;" inkscape:connector-curvature="0"/>
        <path sodipodi:nodetypes="cccsscscsc" inkscape:connector-curvature="0" id="path30365" transform="matrix(0.26458336,0,0,0.26458336,320.08182,94.083721)" d="m -158.28125,-553.78125 c -4.14638,5.87546 -3.23578,12.5667 7.125,15.96875 5.93461,1.18692 12.46875,-1.78125 12.46875,-1.78125 0,0 2.37731,2.75058 7.125,3.9375 4.74769,1.18693 17.20872,-0.57745 18,-9.875 0.1577,-1.85296 0.11841,-3.50242 -0.0937,-5 -0.79268,3.90898 -3.21509,9.29851 -8.68601,10.21726 -11.8634,1.99226 -14.93899,-3.24851 -14.93899,-3.24851 0,0 -6.33545,3.14535 -10.6875,2.15625 -3.76556,-0.85582 -13.01465,-3.78463 -10.3125,-12.375 z" style="color: rgb(0, 0, 0); fill: rgb(0, 177, 243); fill-opacity: 1; fill-rule: nonzero; stroke: none; stroke-width: 0; marker: none; visibility: visible; display: inline; overflow: visible;"/>
        <path id="path30367" d="m 284.86866,-54.956183 c -2.28284,2.310274 -2.04943,5.972496 -1.90169,5.23379 0.15702,-0.785101 1.05333,-3.506187 2.10013,-4.448308 0.2617,-0.235529 0.48581,-0.426664 0.67799,-0.578776 -0.28864,-0.09265 -0.58019,-0.156848 -0.87643,-0.206706 z" style="color: rgb(0, 0, 0); fill: rgb(0, 88, 119); fill-opacity: 1; fill-rule: nonzero; stroke: none; stroke-width: 0; marker: none; visibility: visible; display: inline; overflow: visible;" inkscape:connector-curvature="0"/>
      </g>
    </g>
    <g transform="matrix(1.2543676,0,0,1.2543676,-322.90752,427.39951)" id="g30369" gds_color="stalk">
      <path sodipodi:nodetypes="ccssscsssscscssssc" inkscape:connector-curvature="0" id="path30371" transform="matrix(0.26458336,0,0,0.26458336,320.08182,94.083721)" d="m -146.5625,-516.5 c -1.11486,0.005 -2.24561,0.0441 -3.40625,0.125 -18.88943,1.31774 -35.15163,14.8006 -40.84375,29.875 -4.94853,13.10516 -6.56327,28.37437 -7.3084,39.85265 -0.11196,1.72478 0.98263,14.04627 8.02311,-9.1479 3.28218,-10.81282 8.56736,9.65388 8.88337,1.52064 4.41485,14.0444 8.97599,10.88425 8.96918,9.02063 -0.0337,-9.21759 -0.5097,-25.43271 2.61966,-36.08977 9.31316,-31.71609 40.85248,-20.70551 52.25058,-9.03298 10.28633,10.53398 28.104288,29.09172 45.25,13.66772 9.93804,-8.94011 9.193778,-24.71561 9.34375,-26.79099 0.214299,-3.45913 -0.972095,-4.781 -3,-4.53125 -2.492485,0.30697 -2.036401,2.49924 -2.15625,4.15625 -0.117921,1.65712 0.531699,16.56926 -9.15625,21.5 -13.23375,6.73537 -22.429399,-7.26883 -32.03125,-16.53125 -8.40159,-8.10461 -19.1558,-16.42525 -34.15625,-17.5 -1.07146,-0.0768 -2.16639,-0.0984 -3.28125,-0.0937 z" style="font-size: medium; font-style: normal; font-variant: normal; font-weight: normal; font-stretch: normal; text-indent: 0px; text-align: start; text-decoration: none; line-height: normal; letter-spacing: normal; word-spacing: normal; text-transform: none; direction: ltr; writing-mode: lr-tb; text-anchor: start; baseline-shift: baseline; color: rgb(0, 0, 0); fill: rgb(160, 44, 146); fill-opacity: 1; stroke: rgb(13, 13, 13); stroke-width: 7.97215; stroke-linejoin: round; stroke-opacity: 1; marker: none; visibility: visible; display: inline; overflow: visible; font-family: Sans;"/>
      <path style="font-size: medium; font-style: normal; font-variant: normal; font-weight: normal; font-stretch: normal; text-indent: 0px; text-align: start; text-decoration: none; line-height: normal; letter-spacing: normal; word-spacing: normal; text-transform: none; direction: ltr; writing-mode: lr-tb; text-anchor: start; baseline-shift: baseline; color: rgb(0, 0, 0); fill: rgb(212, 124, 202); fill-opacity: 1; stroke: none; stroke-width: 0; marker: none; visibility: visible; display: inline; overflow: visible; font-family: Sans;" d="m -146.5625,-516.5 c -1.11486,0.005 -2.24561,0.0441 -3.40625,0.125 -18.88943,1.31774 -35.15163,14.8006 -40.84375,29.875 -5.69212,15.0744 -6.97327,33.01208 -7.59375,44.75 -0.59652,11.28424 25.77774,9.25824 26.09375,1.125 0.37342,-7.06261 -1.07513,-27.90704 2.68692,-40.71875 9.31317,-31.71609 40.85248,-20.70551 52.25058,-9.03298 10.28633,10.53398 28.104288,29.09172 45.25,13.66772 9.93804,-8.94011 9.193778,-24.71561 9.34375,-26.79099 -0.379162,-2.47003 -0.972095,-4.781 -3,-4.53125 -2.492485,0.30697 -2.036401,2.49924 -2.15625,4.15625 -0.117921,1.65712 0.531699,16.56926 -9.15625,21.5 -13.23375,6.73537 -22.429399,-7.26883 -32.03125,-16.53125 -8.40159,-8.10461 -19.1558,-16.42525 -34.15625,-17.5 -1.07146,-0.0768 -2.16639,-0.0984 -3.28125,-0.0937 z" transform="matrix(0.26458336,0,0,0.26458336,320.08182,94.083721)" id="path30373" inkscape:connector-curvature="0" sodipodi:nodetypes="scsscssscscssss"/>
      <path sodipodi:nodetypes="ssscccccssssccscssscss" inkscape:connector-curvature="0" id="path30375" transform="matrix(0.26458336,0,0,0.26458336,320.08182,94.083721)" d="m -145.53125,-507.5625 c -2.34802,0.0772 -4.79406,0.38147 -7.375,0.96875 -33.036,7.51718 -25.47194,51.378 -27.125,56.59375 -1.20206,3.79274 -3.28578,5.50915 -5.6875,1.40625 -0.18492,-5.99628 0.0883,-12.97007 0.53125,-15.40625 0.0525,-0.2885 0.0546,-0.4363 0.0312,-0.4375 -0.1611,-0.008 -1.92953,6.54595 -2.75,15.46875 -2.14438,3.99725 -3.15006,2.2157 -3.71875,-1.625 0.33868,-3.12746 0.76115,-6.74989 1.375,-11.4375 3.07737,-23.49986 19.03721,-39.19495 20.15625,-40.59375 0.27976,-0.3497 0.30292,-0.5625 0.0625,-0.5625 -0.72126,0 -3.7545,2.04468 -9,8.96875 -5.75456,7.59602 -13.03595,21.28078 -15.59375,41 -1.15892,-1.45949 -2.02681,-3.29328 -2.40625,-5.5 -0.73534,6.27395 -1.12054,12.15507 -1.375,16.96875 -0.59652,11.28424 25.77774,9.25824 26.09375,1.125 0.37342,-7.06261 -1.07455,-27.90704 2.6875,-40.71875 9.31317,-31.71609 40.8519,-20.70378 52.25,-9.03125 10.28633,10.53398 28.104288,29.08025 45.25,13.65625 5.559287,-5.00105 7.755987,-12.12824 8.65625,-17.8125 -3.824466,10.03998 -10.834983,21.55279 -22.78125,20.1875 -19.1484,-2.18839 -31.57458,-34.13004 -59.28125,-33.21875 z" style="color: rgb(0, 0, 0); fill: rgb(184, 60, 170); fill-opacity: 1; stroke: none; stroke-width: 0; marker: none; visibility: visible; display: inline; overflow: visible;"/>
      <path style="color: rgb(0, 0, 0); fill: rgb(238, 179, 231); fill-opacity: 1; fill-rule: nonzero; stroke: none; stroke-width: 0; marker: none; visibility: visible; display: inline; overflow: visible;" d="m -146.5625,-516.5 c -1.11486,0.005 -2.24561,0.0441 -3.40625,0.125 -18.88943,1.31774 -35.15163,14.8006 -40.84375,29.875 -4.36035,11.54747 -6.13061,24.75984 -7,35.59375 0.27933,0.10025 0.51386,-0.49026 0.59375,-1.875 0.59347,-10.28666 9.29418,-59.65535 49.24913,-60.33256 35.82873,-0.60727 44.50037,39.75714 64.87587,37.58112 20.3755,-2.17603 17.219327,-28.88417 18.40625,-29.27981 0.483228,-0.16108 1.199711,1.10515 1.875,2.5625 0.01094,-0.55957 0.01421,-1.01415 0.03125,-1.25 -0.379162,-2.47003 -0.972095,-4.781 -3,-4.53125 -2.492485,0.30697 -2.036401,2.49924 -2.15625,4.15625 -0.117921,1.65712 0.531699,16.56926 -9.15625,21.5 -13.23375,6.73537 -22.429399,-7.26883 -32.03125,-16.53125 -8.40159,-8.10461 -19.1558,-16.42525 -34.15625,-17.5 -1.07146,-0.0768 -2.16639,-0.0984 -3.28125,-0.0937 z" transform="matrix(0.26458336,0,0,0.26458336,320.08182,94.083721)" id="path30377" inkscape:connector-curvature="0" sodipodi:nodetypes="ccscssssccscssccc"/>
    </g>
    <g id="g34710" gds_color="leaves" gds_switchable="leaves">
      <g id="g30379" transform="matrix(1.0254231,-0.3110169,0.3110169,1.0254231,-239.95143,513.38427)">
        <g transform="matrix(0.88676279,0,0,0.88676279,30.069783,-4.9306227)" id="g30381">
          <path sodipodi:nodetypes="ccsccscssccsc" inkscape:connector-curvature="0" style="color: rgb(0, 0, 0); fill: rgb(0, 105, 144); fill-opacity: 1; fill-rule: nonzero; stroke: rgb(13, 13, 13); stroke-width: 10.524; stroke-linejoin: round; stroke-miterlimit: 4; stroke-opacity: 1; stroke-dasharray: none; marker: none; visibility: visible; display: inline; overflow: visible;" d="m -87.25,-476.14171 c -2.259094,-0.003 -4.082645,2.23 -5.34375,2.44523 -9.88482,1.77035 -14.20413,0.44047 -14.875,5.88398 -0.10434,0.84663 -0.17863,1.66184 -0.1875,2.4375 -0.001,0.0101 0.001,0.0211 0,0.0312 -0.77915,6.53672 1.06873,12.07644 8.34375,18.90625 11.146771,10.46462 16.625,16.21875 16.625,16.21875 0,0 6.52295,-13.05536 10.875,-19.78125 2.731842,-4.22191 5.644323,-13.43215 4.875,-19.15625 -0.08399,-0.62492 -0.249803,-1.15683 -0.4375,-1.625 -0.0035,-0.009 0.0035,-0.0226 0,-0.0312 -0.472677,-3.2459 -2.080162,-6.04085 -5.4375,-7.59375 -5.687338,-2.63062 -11.118506,-1.52225 -14.4375,2.26454 z" transform="matrix(0.26458336,0,0,0.26458336,320.08182,94.083721)" id="path30383"/>
          <path sodipodi:nodetypes="csscsssc" inkscape:connector-curvature="0" id="path30385" d="m 295.58671,-32.35969 c -2.61536,0.484326 -3.81531,1.831374 -3.99281,3.32059 -0.20615,1.729507 0.2884,3.194413 2.21325,5.001467 2.94925,2.768765 4.39656,4.291878 4.39656,4.291878 0,0 1.72722,-3.45444 2.8787,-5.233998 0.7228,-1.117047 1.4884,-3.552263 1.28485,-5.066765 -0.12072,-0.898238 -0.65021,-1.099389 -1.54655,-1.528073 -2.40764,-1.15148 -4.34422,-0.942118 -5.234,-0.785099 z" style="color: rgb(0, 0, 0); fill: rgb(0, 89, 121); fill-opacity: 1; fill-rule: nonzero; stroke: none; stroke-width: 0; marker: none; visibility: visible; display: inline; overflow: visible;"/>
          <path style="color: rgb(0, 0, 0); fill: rgb(0, 141, 193); fill-opacity: 1; fill-rule: nonzero; stroke: none; stroke-width: 0; marker: none; visibility: visible; display: inline; overflow: visible;" d="m 295.58671,-33.253552 c -2.61536,0.468404 -3.76297,2.12551 -3.94047,3.565773 -0.20615,1.672656 0.23606,2.735073 2.16091,4.482726 2.94925,2.677752 4.39656,4.150799 4.39656,4.150799 0,0 1.72722,-3.340888 2.8787,-5.06195 1.15148,-1.721063 2.14594,-5.264428 -0.2617,-6.378058 -2.40764,-1.113629 -4.34422,-0.911149 -5.234,-0.75929 z" id="path30387" inkscape:connector-curvature="0" sodipodi:nodetypes="csscssc"/>
          <path id="path30389" transform="matrix(0.29836994,0,0,0.29836994,327.04579,111.65821)" d="m -118.75,-470.21875 c 0.3286,3.80753 2.33833,6.95537 7.34375,11.5 9.88454,8.9746 14.75,13.9375 14.75,13.9375 0,0 5.765764,-11.20053 9.625,-16.96875 1.176601,-1.75861 2.323197,-4.10359 3.09375,-6.59375 -2.439116,3.66375 -8.465478,9.8602 -10.4375,10.21875 -2.176025,0.39564 -5.33343,-7.69869 -5.53125,-9.28125 -0.19783,-1.58256 0.603496,11.65654 -0.78125,12.25 -1.26199,0.54085 -14.01278,-8.25291 -18.0625,-15.0625 z" style="color: rgb(0, 0, 0); fill: rgb(0, 163, 222); fill-opacity: 1; fill-rule: nonzero; stroke: none; stroke-width: 0; marker: none; visibility: visible; display: inline; overflow: visible;" inkscape:connector-curvature="0"/>
          <path id="path30391" transform="matrix(0.29836994,0,0,0.29836994,327.04579,111.65821)" d="m -100.71875,-486.09375 c -2.00328,-0.003 -3.60045,0.21539 -4.71875,0.40625 -8.76549,1.56988 -12.62385,7.14165 -13.21875,11.96875 -0.47501,3.85411 0.0747,6.7309 2.5625,10.0625 -1.59814,-6.56491 -0.59207,-14.87277 10.84375,-18.1875 13.649611,-3.95641 21.76032,5.54359 21.5625,9.5 -0.03709,0.74183 0.09705,1.33364 0.3125,1.8125 1.068837,-5.07612 0.363627,-10.32967 -4.53125,-12.59375 -5.04332,-2.33274 -9.473699,-2.96378 -12.8125,-2.96875 z" style="color: rgb(0, 0, 0); fill: rgb(0, 163, 222); fill-opacity: 1; fill-rule: nonzero; stroke: none; stroke-width: 0; marker: none; visibility: visible; display: inline; overflow: visible;" inkscape:connector-curvature="0"/>
        </g>
        <path inkscape:connector-curvature="0" id="path30393" d="m 292.81269,-34.03457 c 0.0523,3.192738 1.67488,9.787576 1.67488,9.368857 0,-0.418721 -0.20936,-2.931038 -0.47106,-4.396557 -0.2617,-1.465522 -1.20382,-4.9723 -1.20382,-4.9723 z" style="color: rgb(0, 0, 0); fill: rgb(0, 88, 119); fill-opacity: 1; fill-rule: nonzero; stroke: none; stroke-width: 0; marker: none; visibility: visible; display: inline; overflow: visible;"/>
      </g>
      <g transform="matrix(1.0912116,0,0,1.0912116,-274.26278,416.93517)" id="g30395">
        <path inkscape:connector-curvature="0" style="color: rgb(0, 0, 0); fill: rgb(0, 89, 121); fill-opacity: 1; fill-rule: nonzero; stroke: rgb(13, 13, 13); stroke-width: 9.16412; stroke-linejoin: round; stroke-miterlimit: 4; stroke-opacity: 1; stroke-dasharray: none; marker: none; visibility: visible; display: inline; overflow: visible;" d="m -38.9375,-520.0625 c -8.371562,-0.10071 -17.236082,2.66412 -22.875,11.84375 0,0 -0.484192,1.19467 -1,3 -0.0051,0.0178 0.0051,0.0445 0,0.0625 -0.03599,0.0576 -0.08928,0.0981 -0.125,0.15625 0,0 -0.08532,0.34181 -0.1875,0.90625 -0.830486,3.25939 -1.551101,7.85506 -0.40625,11.625 0.686595,4.8786 2.837878,9.60791 8.28125,10.96875 12.309429,3.07736 15.526823,-5.3036 23.5,-10.96875 7.973177,-5.66514 20.84375,-5.53125 20.84375,-5.53125 0,0 0.897744,-1.84904 0.5625,-3.09375 0,0 -0.428614,-6.56403 -7.5625,-12.71875 -2.710096,-2.33812 -11.543479,-6.13586 -21.03125,-6.25 z" transform="matrix(0.26458336,0,0,0.26458336,320.08182,94.083721)" id="path30397"/>
        <path sodipodi:nodetypes="csscssc" inkscape:connector-curvature="0" id="path30399" d="m 303.42734,-39.527896 c 3.18286,-5.181391 10.56747,-2.570858 11.91721,-1.406377 1.25198,1.080141 1.82855,1.787588 2.00338,2.436365 0.0887,0.329329 -0.15289,0.820511 -0.15289,0.820511 0,0 -3.40491,-0.03701 -5.51448,1.461892 -2.10957,1.498905 -2.9608,3.719503 -6.21767,2.905285 -3.25688,-0.814221 -2.03555,-6.217676 -2.03555,-6.217676 z" style="color: rgb(0, 0, 0); fill: rgb(0, 89, 121); fill-opacity: 1; fill-rule: nonzero; stroke: none; stroke-width: 0; marker: none; visibility: visible; display: inline; overflow: visible;"/>
        <path style="color: rgb(0, 0, 0); fill: rgb(0, 141, 193); fill-opacity: 1; fill-rule: nonzero; stroke: none; stroke-width: 0; marker: none; visibility: visible; display: inline; overflow: visible;" d="m -61.82702,-508.20598 c 12.029691,-19.58321 38.821006,-9.99637 43.922363,-5.5952 7.133886,6.15472 7.571852,12.70531 7.571852,12.70531 0,0 -14.286099,-2.2143 -21.839626,3.10114 -7.553527,5.31545 -12.589213,14.68742 -24.898665,11.61006 -12.309452,-3.07737 -4.755924,-21.82131 -4.755924,-21.82131 z" id="path30401" inkscape:connector-curvature="0" transform="matrix(0.26458336,0,0,0.26458336,320.08182,94.083721)" sodipodi:nodetypes="cscssc"/>
        <path inkscape:connector-curvature="0" style="color: rgb(0, 0, 0); fill: rgb(0, 177, 243); fill-opacity: 1; fill-rule: nonzero; stroke: none; stroke-width: 0; marker: none; visibility: visible; display: inline; overflow: visible;" d="m -38.9375,-520.0625 c -1.810845,-0.0218 -3.648096,0.0923 -5.46875,0.375 16.839165,1.37148 17.998798,12.99321 13.34375,17.78125 -4.895811,5.03569 -12.450956,13.4256 -17.90625,14.125 -5.455332,0.6994 -11.608644,0.55501 -14.40625,-6.71875 -0.297518,-0.77355 -0.534008,-1.45933 -0.75,-2.125 0.05682,4.49499 1.639319,8.8942 7.0625,10.25 12.309452,3.07736 17.321473,-6.30955 24.875,-11.625 7.553527,-5.31544 21.84375,-3.09375 21.84375,-3.09375 0,0 -0.428614,-6.56403 -7.5625,-12.71875 -2.710096,-2.33812 -11.543479,-6.13586 -21.03125,-6.25 z" transform="matrix(0.26458336,0,0,0.26458336,320.08182,94.083721)" id="path30403"/>
        <path style="color: rgb(0, 0, 0); fill: rgb(0, 88, 119); fill-opacity: 1; fill-rule: nonzero; stroke: none; stroke-width: 0; marker: none; visibility: visible; display: inline; overflow: visible;" d="m -59.029418,-502.33101 c 19.922131,-21.49699 46.688266,-4.32886 46.300326,-2.0982 0.177237,-1.35882 -23.210906,-15.03769 -46.300326,2.0982 z" id="path30405" inkscape:connector-curvature="0" transform="matrix(0.26458336,0,0,0.26458336,320.08182,94.083721)" sodipodi:nodetypes="ccc"/>
      </g>
      <g id="g30407" transform="matrix(-1.1963323,0.67334526,0.67334526,1.1963323,407.99761,222.44642)">
        <path id="path30409" transform="matrix(0.26458336,0,0,0.26458336,320.08182,94.083721)" d="m -38.9375,-520.0625 c -8.371562,-0.10071 -17.236082,2.66412 -22.875,11.84375 0,0 -0.484192,1.19467 -1,3 -0.0051,0.0178 0.0051,0.0445 0,0.0625 -0.03599,0.0576 -0.08928,0.0981 -0.125,0.15625 0,0 -0.08532,0.34181 -0.1875,0.90625 -0.830486,3.25939 -1.551101,7.85506 -0.40625,11.625 0.686595,4.8786 2.837878,9.60791 8.28125,10.96875 12.309429,3.07736 15.526823,-5.3036 23.5,-10.96875 7.973177,-5.66514 20.84375,-5.53125 20.84375,-5.53125 0,0 0.897744,-1.84904 0.5625,-3.09375 0,0 -0.428614,-6.56403 -7.5625,-12.71875 -2.710096,-2.33812 -11.543479,-6.13586 -21.03125,-6.25 z" style="color: rgb(0, 0, 0); fill: rgb(0, 89, 121); fill-opacity: 1; fill-rule: nonzero; stroke: rgb(13, 13, 13); stroke-width: 7.28433; stroke-linejoin: round; stroke-miterlimit: 4; stroke-opacity: 1; stroke-dasharray: none; marker: none; visibility: visible; display: inline; overflow: visible;" inkscape:connector-curvature="0"/>
        <path style="color: rgb(0, 0, 0); fill: rgb(0, 89, 121); fill-opacity: 1; fill-rule: nonzero; stroke: none; stroke-width: 0; marker: none; visibility: visible; display: inline; overflow: visible;" d="m 303.42734,-39.527896 c 3.18286,-5.181391 10.56747,-2.570858 11.91721,-1.406377 1.25198,1.080141 1.82855,1.787588 2.00338,2.436365 0.0887,0.329329 -0.15289,0.820511 -0.15289,0.820511 0,0 -3.40491,-0.03701 -5.51448,1.461892 -2.10957,1.498905 -2.9608,3.719503 -6.21767,2.905285 -3.25688,-0.814221 -2.03555,-6.217676 -2.03555,-6.217676 z" id="path30411" inkscape:connector-curvature="0" sodipodi:nodetypes="csscssc"/>
        <path sodipodi:nodetypes="cscssc" transform="matrix(0.26458336,0,0,0.26458336,320.08182,94.083721)" inkscape:connector-curvature="0" id="path30413" d="m -61.82702,-508.20598 c 12.029691,-19.58321 38.821006,-9.99637 43.922363,-5.5952 7.133886,6.15472 7.571852,12.70531 7.571852,12.70531 0,0 -14.286099,-2.2143 -21.839626,3.10114 -7.553527,5.31545 -12.589213,14.68742 -24.898665,11.61006 -12.309452,-3.07737 -4.755924,-21.82131 -4.755924,-21.82131 z" style="color: rgb(0, 0, 0); fill: rgb(0, 141, 193); fill-opacity: 1; fill-rule: nonzero; stroke: none; stroke-width: 0; marker: none; visibility: visible; display: inline; overflow: visible;"/>
        <path id="path30415" transform="matrix(0.26458336,0,0,0.26458336,320.08182,94.083721)" d="m -38.9375,-520.0625 c -1.810845,-0.0218 -3.648096,0.0923 -5.46875,0.375 16.839165,1.37148 17.998798,12.99321 13.34375,17.78125 -4.895811,5.03569 -12.450956,13.4256 -17.90625,14.125 -5.455332,0.6994 -11.608644,0.55501 -14.40625,-6.71875 -0.297518,-0.77355 -0.534008,-1.45933 -0.75,-2.125 0.05682,4.49499 1.639319,8.8942 7.0625,10.25 12.309452,3.07736 17.321473,-6.30955 24.875,-11.625 7.553527,-5.31544 21.84375,-3.09375 21.84375,-3.09375 0,0 -0.428614,-6.56403 -7.5625,-12.71875 -2.710096,-2.33812 -11.543479,-6.13586 -21.03125,-6.25 z" style="color: rgb(0, 0, 0); fill: rgb(0, 177, 243); fill-opacity: 1; fill-rule: nonzero; stroke: none; stroke-width: 0; marker: none; visibility: visible; display: inline; overflow: visible;" inkscape:connector-curvature="0"/>
        <path sodipodi:nodetypes="ccc" transform="matrix(0.26458336,0,0,0.26458336,320.08182,94.083721)" inkscape:connector-curvature="0" id="path30417" d="m -59.029418,-502.33101 c 19.922131,-21.49699 46.688266,-4.32886 46.300326,-2.0982 0.177237,-1.35882 -23.210906,-15.03769 -46.300326,2.0982 z" style="color: rgb(0, 0, 0); fill: rgb(0, 88, 119); fill-opacity: 1; fill-rule: nonzero; stroke: none; stroke-width: 0; marker: none; visibility: visible; display: inline; overflow: visible;"/>
      </g>
      <g transform="matrix(1.4364465,0.27196631,-0.18743219,1.4510714,-392.18887,349.70625)" id="g30419">
        <g id="g30421" transform="matrix(0.88676279,0,0,0.88676279,30.069783,-4.9306227)">
          <path id="path30423" transform="matrix(0.26458336,0,0,0.26458336,320.08182,94.083721)" d="m -87.25,-476.14171 c -2.259094,-0.003 -4.082645,2.23 -5.34375,2.44523 -9.88482,1.77035 -14.20413,0.44047 -14.875,5.88398 -0.10434,0.84663 -0.17863,1.66184 -0.1875,2.4375 -0.001,0.0101 0.001,0.0211 0,0.0312 -0.77915,6.53672 1.06873,12.07644 8.34375,18.90625 11.146771,10.46462 16.625,16.21875 16.625,16.21875 0,0 6.52295,-13.05536 10.875,-19.78125 2.731842,-4.22191 5.644323,-13.43215 4.875,-19.15625 -0.08399,-0.62492 -0.249803,-1.15683 -0.4375,-1.625 -0.0035,-0.009 0.0035,-0.0226 0,-0.0312 -0.472677,-3.2459 -2.080162,-6.04085 -5.4375,-7.59375 -5.687338,-2.63062 -11.118506,-1.52225 -14.4375,2.26454 z" style="color: rgb(0, 0, 0); fill: rgb(0, 105, 144); fill-opacity: 1; fill-rule: nonzero; stroke: rgb(13, 13, 13); stroke-width: 7.71715; stroke-linejoin: round; stroke-miterlimit: 4; stroke-opacity: 1; stroke-dasharray: none; marker: none; visibility: visible; display: inline; overflow: visible;" inkscape:connector-curvature="0" sodipodi:nodetypes="ccsccscssccsc"/>
          <path style="color: rgb(0, 0, 0); fill: rgb(0, 89, 121); fill-opacity: 1; fill-rule: nonzero; stroke: none; stroke-width: 0; marker: none; visibility: visible; display: inline; overflow: visible;" d="m 295.58671,-32.35969 c -2.61536,0.484326 -3.81531,1.831374 -3.99281,3.32059 -0.20615,1.729507 0.2884,3.194413 2.21325,5.001467 2.94925,2.768765 4.39656,4.291878 4.39656,4.291878 0,0 1.72722,-3.45444 2.8787,-5.233998 0.7228,-1.117047 1.4884,-3.552263 1.28485,-5.066765 -0.12072,-0.898238 -0.65021,-1.099389 -1.54655,-1.528073 -2.40764,-1.15148 -4.34422,-0.942118 -5.234,-0.785099 z" id="path30425" inkscape:connector-curvature="0" sodipodi:nodetypes="csscsssc"/>
          <path sodipodi:nodetypes="csscssc" inkscape:connector-curvature="0" id="path30427" d="m 295.58671,-33.253552 c -2.61536,0.468404 -3.76297,2.12551 -3.94047,3.565773 -0.20615,1.672656 0.23606,2.735073 2.16091,4.482726 2.94925,2.677752 4.39656,4.150799 4.39656,4.150799 0,0 1.72722,-3.340888 2.8787,-5.06195 1.15148,-1.721063 2.14594,-5.264428 -0.2617,-6.378058 -2.40764,-1.113629 -4.34422,-0.911149 -5.234,-0.75929 z" style="color: rgb(0, 0, 0); fill: rgb(0, 141, 193); fill-opacity: 1; fill-rule: nonzero; stroke: none; stroke-width: 0; marker: none; visibility: visible; display: inline; overflow: visible;"/>
          <path inkscape:connector-curvature="0" style="color: rgb(0, 0, 0); fill: rgb(0, 163, 222); fill-opacity: 1; fill-rule: nonzero; stroke: none; stroke-width: 0; marker: none; visibility: visible; display: inline; overflow: visible;" d="m -118.75,-470.21875 c 0.3286,3.80753 2.33833,6.95537 7.34375,11.5 9.88454,8.9746 14.75,13.9375 14.75,13.9375 0,0 5.765764,-11.20053 9.625,-16.96875 1.176601,-1.75861 2.323197,-4.10359 3.09375,-6.59375 -2.439116,3.66375 -8.465478,9.8602 -10.4375,10.21875 -2.176025,0.39564 -5.33343,-7.69869 -5.53125,-9.28125 -0.19783,-1.58256 0.603496,11.65654 -0.78125,12.25 -1.26199,0.54085 -14.01278,-8.25291 -18.0625,-15.0625 z" transform="matrix(0.29836994,0,0,0.29836994,327.04579,111.65821)" id="path30429"/>
          <path inkscape:connector-curvature="0" style="color: rgb(0, 0, 0); fill: rgb(0, 163, 222); fill-opacity: 1; fill-rule: nonzero; stroke: none; stroke-width: 0; marker: none; visibility: visible; display: inline; overflow: visible;" d="m -100.71875,-486.09375 c -2.00328,-0.003 -3.60045,0.21539 -4.71875,0.40625 -8.76549,1.56988 -12.62385,7.14165 -13.21875,11.96875 -0.47501,3.85411 0.0747,6.7309 2.5625,10.0625 -1.59814,-6.56491 -0.59207,-14.87277 10.84375,-18.1875 13.649611,-3.95641 21.76032,5.54359 21.5625,9.5 -0.03709,0.74183 0.09705,1.33364 0.3125,1.8125 1.068837,-5.07612 0.363627,-10.32967 -4.53125,-12.59375 -5.04332,-2.33274 -9.473699,-2.96378 -12.8125,-2.96875 z" transform="matrix(0.29836994,0,0,0.29836994,327.04579,111.65821)" id="path30431"/>
        </g>
        <path style="color: rgb(0, 0, 0); fill: rgb(0, 88, 119); fill-opacity: 1; fill-rule: nonzero; stroke: none; stroke-width: 0; marker: none; visibility: visible; display: inline; overflow: visible;" d="m 292.81269,-34.03457 c 0.0523,3.192738 1.67488,9.787576 1.67488,9.368857 0,-0.418721 -0.20936,-2.931038 -0.47106,-4.396557 -0.2617,-1.465522 -1.20382,-4.9723 -1.20382,-4.9723 z" id="path30433" inkscape:connector-curvature="0"/>
      </g>
    </g>
  </g>
</svg>