<?xml version="1.0" encoding="UTF-8" standalone="no"?><!-- Created with Inkscape (http://www.inkscape.org/) --><svg xmlns:dc="http://purl.org/dc/elements/1.1/" xmlns:cc="http://creativecommons.org/ns#" xmlns:rdf="http://www.w3.org/1999/02/22-rdf-syntax-ns#" xmlns:svg="http://www.w3.org/2000/svg" xmlns="http://www.w3.org/2000/svg" xmlns:sodipodi="http://sodipodi.sourceforge.net/DTD/sodipodi-0.dtd" xmlns:inkscape="http://www.inkscape.org/namespaces/inkscape" width="138.47125" height="119.2912" viewBox="0 0 36.637181 31.562458" version="1.1" id="svg23489" inkscape:version="0.48.5 r10040" sodipodi:docname="stalk_01.svg">
  <defs id="defs23483">
    <clipPath clipPathUnits="userSpaceOnUse" id="clipPath22932">
      <path style="opacity: 0.39823; color: rgb(0, 0, 0); fill: rgb(186, 255, 81); fill-opacity: 1; fill-rule: nonzero; stroke: none; stroke-width: 0; marker: none; visibility: visible; display: inline; overflow: visible;" d="m 544.30169,181.88988 c 0.28587,0.59217 2.59866,1.15837 3.74216,0.1578 0.98015,2.77708 16.86469,0 16.86469,0 l 0,-16.17162 -30.55281,0 0,15.42079 c 0,0 6.65838,3.49263 9.94596,0.59303 z" id="path22934" inkscape:connector-curvature="0" sodipodi:nodetypes="ccccccc"/>
    </clipPath>
    <clipPath clipPathUnits="userSpaceOnUse" id="clipPath22874">
      <path style="opacity: 0.39823; color: rgb(0, 0, 0); fill: rgb(186, 255, 81); fill-opacity: 1; fill-rule: nonzero; stroke: none; stroke-width: 0; marker: none; visibility: visible; display: inline; overflow: visible;" d="m 507.96393,172.04108 c 5.63585,4.14521 4.40861,7.03756 4.24526,7.42553 -0.16336,0.38797 -0.45419,0.84609 -0.55527,0.75946 0,0 -0.23077,1.39392 -0.96715,1.52387 0,0 0.7281,2.05291 -3.23333,2.91054 -3.96143,0.85763 -12.08849,-2.45037 -11.76178,-7.80034 0.32672,-5.34998 9.00511,-7.35111 12.27227,-4.81906 z" id="path22876" inkscape:connector-curvature="0" sodipodi:nodetypes="csccssc"/>
    </clipPath>
    <clipPath clipPathUnits="userSpaceOnUse" id="clipPath22894">
      <path style="opacity: 0.39823; color: rgb(0, 0, 0); fill: rgb(186, 255, 81); fill-opacity: 1; fill-rule: nonzero; stroke: none; stroke-width: 0; marker: none; visibility: visible; display: inline; overflow: visible;" d="m 519.13353,181.84256 c 1.53,1.07862 2.21773,-0.85703 2.00114,-1.06183 0.0817,0.0408 1.9603,0.65343 4.32899,-2.85877 2.36869,-3.51219 0,-9.96483 -8.00455,-11.96597 -8.00454,-2.00113 -11.2717,3.47136 -11.47589,10.16904 -0.2042,6.69767 5.75836,9.27056 9.76064,9.7198 4.00227,0.44923 3.38967,-4.00227 3.38967,-4.00227 z" id="path22896" inkscape:connector-curvature="0" sodipodi:nodetypes="ccssssc"/>
    </clipPath>
    <clipPath clipPathUnits="userSpaceOnUse" id="clipPath23263">
      <path style="opacity: 0.39823; color: rgb(0, 0, 0); fill: rgb(186, 255, 81); fill-opacity: 1; fill-rule: nonzero; stroke: none; stroke-width: 0; marker: none; visibility: visible; display: inline; overflow: visible;" d="m 507.96393,172.04108 c 5.63585,4.14521 4.40861,7.03756 4.24526,7.42553 -0.16336,0.38797 -0.45419,0.84609 -0.55527,0.75946 0,0 -0.23077,1.39392 -0.96715,1.52387 0,0 0.7281,2.05291 -3.23333,2.91054 -3.96143,0.85763 -12.08849,-2.45037 -11.76178,-7.80034 0.32672,-5.34998 9.00511,-7.35111 12.27227,-4.81906 z" id="path23265" inkscape:connector-curvature="0" sodipodi:nodetypes="csccssc"/>
    </clipPath>
    <clipPath clipPathUnits="userSpaceOnUse" id="clipPath22907">
      <path style="opacity: 0.39823; color: rgb(0, 0, 0); fill: rgb(186, 255, 81); fill-opacity: 1; fill-rule: nonzero; stroke: none; stroke-width: 0; marker: none; visibility: visible; display: inline; overflow: visible;" d="m 525.58617,181.98549 c 0.89522,0.98185 2.40724,0.64233 3.04255,0.12252 0.16124,0.72559 12.13955,0.23486 11.90471,0 -0.23482,-0.23483 4.09811,-23.83249 0,-26.19853 -4.09811,-2.36605 -15.11061,0 -21.31822,0 -6.2076,0 -9.48879,8.76153 -8.08444,14.00265 1.40436,5.24112 4.81751,7.15803 7.00687,9.97898 2.18936,2.82095 7.44853,2.09438 7.44853,2.09438 z" id="path22909" inkscape:connector-curvature="0" sodipodi:nodetypes="ccsssssc"/>
    </clipPath>
    <clipPath clipPathUnits="userSpaceOnUse" id="clipPath23269">
      <path style="opacity: 0.39823; color: rgb(0, 0, 0); fill: rgb(186, 255, 81); fill-opacity: 1; fill-rule: nonzero; stroke: none; stroke-width: 0; marker: none; visibility: visible; display: inline; overflow: visible;" d="m 525.58617,181.98549 c 0.89522,0.98185 2.40724,0.64233 3.04255,0.12252 0.16124,0.72559 12.13955,0.23486 11.90471,0 -0.23482,-0.23483 4.09811,-23.83249 0,-26.19853 -4.09811,-2.36605 -15.11061,0 -21.31822,0 -6.2076,0 -9.48879,8.76153 -8.08444,14.00265 1.40436,5.24112 4.81751,7.15803 7.00687,9.97898 2.18936,2.82095 7.44853,2.09438 7.44853,2.09438 z" id="path23271" inkscape:connector-curvature="0" sodipodi:nodetypes="ccsssssc"/>
    </clipPath>
    <clipPath clipPathUnits="userSpaceOnUse" id="clipPath23273">
      <path style="opacity: 0.39823; color: rgb(0, 0, 0); fill: rgb(186, 255, 81); fill-opacity: 1; fill-rule: nonzero; stroke: none; stroke-width: 0; marker: none; visibility: visible; display: inline; overflow: visible;" d="m 507.96393,172.04108 c 5.63585,4.14521 4.40861,7.03756 4.24526,7.42553 -0.16336,0.38797 -0.45419,0.84609 -0.55527,0.75946 0,0 -0.23077,1.39392 -0.96715,1.52387 0,0 0.7281,2.05291 -3.23333,2.91054 -3.96143,0.85763 -12.08849,-2.45037 -11.76178,-7.80034 0.32672,-5.34998 9.00511,-7.35111 12.27227,-4.81906 z" id="path23275" inkscape:connector-curvature="0" sodipodi:nodetypes="csccssc"/>
    </clipPath>
    <clipPath clipPathUnits="userSpaceOnUse" id="clipPath23277">
      <path style="opacity: 0.39823; color: rgb(0, 0, 0); fill: rgb(186, 255, 81); fill-opacity: 1; fill-rule: nonzero; stroke: none; stroke-width: 0; marker: none; visibility: visible; display: inline; overflow: visible;" d="m 519.13353,181.84256 c 1.53,1.07862 2.21773,-0.85703 2.00114,-1.06183 0.0817,0.0408 1.9603,0.65343 4.32899,-2.85877 2.36869,-3.51219 0,-9.96483 -8.00455,-11.96597 -8.00454,-2.00113 -11.2717,3.47136 -11.47589,10.16904 -0.2042,6.69767 5.75836,9.27056 9.76064,9.7198 4.00227,0.44923 3.38967,-4.00227 3.38967,-4.00227 z" id="path23279" inkscape:connector-curvature="0" sodipodi:nodetypes="ccssssc"/>
    </clipPath>
    <clipPath clipPathUnits="userSpaceOnUse" id="clipPath23281">
      <path style="opacity: 0.39823; color: rgb(0, 0, 0); fill: rgb(186, 255, 81); fill-opacity: 1; fill-rule: nonzero; stroke: none; stroke-width: 0; marker: none; visibility: visible; display: inline; overflow: visible;" d="m 525.58617,181.98549 c 0.89522,0.98185 2.40724,0.64233 3.04255,0.12252 0.16124,0.72559 12.13955,0.23486 11.90471,0 -0.23482,-0.23483 4.09811,-23.83249 0,-26.19853 -4.09811,-2.36605 -15.11061,0 -21.31822,0 -6.2076,0 -9.48879,8.76153 -8.08444,14.00265 1.40436,5.24112 4.81751,7.15803 7.00687,9.97898 2.18936,2.82095 7.44853,2.09438 7.44853,2.09438 z" id="path23283" inkscape:connector-curvature="0" sodipodi:nodetypes="ccsssssc"/>
    </clipPath>
    <clipPath clipPathUnits="userSpaceOnUse" id="clipPath23285">
      <path style="opacity: 0.39823; color: rgb(0, 0, 0); fill: rgb(186, 255, 81); fill-opacity: 1; fill-rule: nonzero; stroke: none; stroke-width: 0; marker: none; visibility: visible; display: inline; overflow: visible;" d="m 544.30169,181.88988 c 0.28587,0.59217 2.59866,1.15837 3.74216,0.1578 0.98015,2.77708 16.86469,0 16.86469,0 l 0,-16.17162 -30.55281,0 0,15.42079 c 0,0 6.65838,3.49263 9.94596,0.59303 z" id="path23287" inkscape:connector-curvature="0" sodipodi:nodetypes="ccccccc"/>
    </clipPath>
    <clipPath clipPathUnits="userSpaceOnUse" id="clipPath23289">
      <path style="opacity: 0.39823; color: rgb(0, 0, 0); fill: rgb(186, 255, 81); fill-opacity: 1; fill-rule: nonzero; stroke: none; stroke-width: 0; marker: none; visibility: visible; display: inline; overflow: visible;" d="m 507.96393,172.04108 c 5.63585,4.14521 4.40861,7.03756 4.24526,7.42553 -0.16336,0.38797 -0.45419,0.84609 -0.55527,0.75946 0,0 -0.23077,1.39392 -0.96715,1.52387 0,0 0.7281,2.05291 -3.23333,2.91054 -3.96143,0.85763 -12.08849,-2.45037 -11.76178,-7.80034 0.32672,-5.34998 9.00511,-7.35111 12.27227,-4.81906 z" id="path23291" inkscape:connector-curvature="0" sodipodi:nodetypes="csccssc"/>
    </clipPath>
    <clipPath clipPathUnits="userSpaceOnUse" id="clipPath22919">
      <path style="opacity: 0.39823; color: rgb(0, 0, 0); fill: rgb(186, 255, 81); fill-opacity: 1; fill-rule: nonzero; stroke: none; stroke-width: 0; marker: none; visibility: visible; display: inline; overflow: visible;" d="m 533.24358,180.67863 c -0.16336,1.16393 0.51049,2.00114 2.00114,1.20477 -1.74256,1.5022 -0.71572,1.26164 1.42124,3.05207 2.13697,1.79043 11.4934,0.98185 12.12872,0.5198 0.63531,-0.46205 8.02805,-6.41089 8.0858,-8.66336 0.0578,-2.25248 -1.90593,-15.01651 -5.19801,-17.78878 -3.29208,-2.77228 -16.4604,-0.57756 -19.75248,-0.0578 -3.29208,0.5198 -10.16501,5.71782 -9.93399,5.77558 0.23102,0.0577 2.83003,15.42079 2.77228,15.65181 -0.0578,0.23102 2.42574,4.15842 2.83003,3.92739 0.40429,-0.23102 3.95121,-3.17246 3.95121,-3.17246 0,0 1.59196,0.89865 1.69406,-0.44906 z" id="path22921" inkscape:connector-curvature="0" sodipodi:nodetypes="ccsssssssscc"/>
    </clipPath>
    <clipPath clipPathUnits="userSpaceOnUse" id="clipPath23295">
      <path style="opacity: 0.39823; color: rgb(0, 0, 0); fill: rgb(186, 255, 81); fill-opacity: 1; fill-rule: nonzero; stroke: none; stroke-width: 0; marker: none; visibility: visible; display: inline; overflow: visible;" d="m 525.58617,181.98549 c 0.89522,0.98185 2.40724,0.64233 3.04255,0.12252 0.16124,0.72559 12.13955,0.23486 11.90471,0 -0.23482,-0.23483 4.09811,-23.83249 0,-26.19853 -4.09811,-2.36605 -15.11061,0 -21.31822,0 -6.2076,0 -9.48879,8.76153 -8.08444,14.00265 1.40436,5.24112 4.81751,7.15803 7.00687,9.97898 2.18936,2.82095 7.44853,2.09438 7.44853,2.09438 z" id="path23297" inkscape:connector-curvature="0" sodipodi:nodetypes="ccsssssc"/>
    </clipPath>
    <clipPath clipPathUnits="userSpaceOnUse" id="clipPath23299">
      <path style="opacity: 0.39823; color: rgb(0, 0, 0); fill: rgb(186, 255, 81); fill-opacity: 1; fill-rule: nonzero; stroke: none; stroke-width: 0; marker: none; visibility: visible; display: inline; overflow: visible;" d="m 525.58617,181.98549 c 0.89522,0.98185 2.40724,0.64233 3.04255,0.12252 0.16124,0.72559 12.13955,0.23486 11.90471,0 -0.23482,-0.23483 4.09811,-23.83249 0,-26.19853 -4.09811,-2.36605 -15.11061,0 -21.31822,0 -6.2076,0 -9.48879,8.76153 -8.08444,14.00265 1.40436,5.24112 4.81751,7.15803 7.00687,9.97898 2.18936,2.82095 7.44853,2.09438 7.44853,2.09438 z" id="path23301" inkscape:connector-curvature="0" sodipodi:nodetypes="ccsssssc"/>
    </clipPath>
  </defs>
  <sodipodi:namedview id="base" pagecolor="#7d848b" bordercolor="#666666" borderopacity="1.0" inkscape:pageopacity="0" inkscape:pageshadow="2" inkscape:zoom="0.8098268" inkscape:cx="-677.38766" inkscape:cy="23.872539" inkscape:document-units="px" inkscape:current-layer="layer1" showgrid="false" inkscape:pagecheckerboard="false" showborder="true" units="px" inkscape:window-width="1920" inkscape:window-height="1017" inkscape:window-x="-8" inkscape:window-y="-8" inkscape:window-maximized="1" inkscape:showpageshadow="false" guidetolerance="28" fit-margin-top="8" fit-margin-left="8" fit-margin-right="8" fit-margin-bottom="8">
    <inkscape:grid type="xygrid" id="grid24034" spacingx="1px" spacingy="1px" empspacing="8" visible="true" enabled="true" snapvisiblegridlinesonly="true" originx="-1144.2463px" originy="363.47594px"/>
  </sodipodi:namedview>
  <metadata id="metadata23486">
    <rdf:RDF>
      <cc:Work rdf:about="">
        <dc:format>image/svg+xml</dc:format>
        <dc:type rdf:resource="http://purl.org/dc/dcmitype/StillImage"/>
        <dc:title/>
        <cc:license rdf:resource=""/>
        <dc:creator>
          <cc:Agent>
            <dc:title>Robert Brooks</dc:title>
          </cc:Agent>
        </dc:creator>
      </cc:Work>
    </rdf:RDF>
  </metadata>
  <g inkscape:label="Layer 1" inkscape:groupmode="layer" id="layer1" transform="translate(-302.74846,-361.60718)">
    <path style="opacity: 0.25; color: rgb(0, 0, 0); fill: rgb(0, 0, 0); fill-opacity: 1; fill-rule: nonzero; stroke: none; stroke-width: 0; marker: none; visibility: visible; display: inline; overflow: visible;" d="m 325.7824,383.57018 c -2.04022,0 -4.41501,0.28101 -6.41615,1.28157 0,0 0.17702,0.12765 0.42168,0.29766 -1.15169,0.17156 -2.13127,0.38837 -2.94349,0.62839 -0.35976,-0.0736 -0.57877,-0.11576 -0.57877,-0.11576 -8.33126,0.81679 -9.80612,3.59668 -9.80612,3.59668 0,0 4.90112,0.98215 10.12858,0.16536 0.11449,-0.0179 0.18569,-0.0241 0.29765,-0.0413 2.54868,0.44396 5.87105,0.34349 8.83047,-0.26458 4.22419,0.91113 9.82266,1.93477 9.82266,1.93477 0,0 2.6167,-1.14005 -2.4474,-3.75378 -1.45178,-0.7493 -2.57793,-1.21941 -3.48919,-1.50482 0.87741,-0.86943 0.87643,-1.76113 0.87643,-1.76113 0,0 -2.07321,-0.46302 -4.69635,-0.46302 z" id="path34806" gds_color="shadow" inkscape:connector-curvature="0" gds_switchable="shadow"/>
    <g id="g31452" transform="matrix(-0.57419097,-0.01538928,0.05087019,0.84949034,460.20565,390.1329)" gds_color="leaves" gds_switchable="leaves">
      <g transform="translate(-2.0725574,2.8127567)" id="g31454">
        <path inkscape:connector-curvature="0" style="color: rgb(0, 0, 0); fill: rgb(203, 238, 180); fill-opacity: 1; fill-rule: nonzero; stroke: rgb(13, 13, 13); stroke-width: 9.26869; stroke-linecap: round; stroke-linejoin: round; stroke-miterlimit: 4; stroke-opacity: 1; stroke-dasharray: none; stroke-dashoffset: 37.6; marker: none; visibility: visible; display: inline; overflow: visible;" d="m -563.75,-944.96875 c -4.19949,0.14518 -8.88692,0.87389 -13.03125,2.28125 -6.45496,2.19202 -13.08157,4.68613 -16.875,6.59375 -0.38287,0.14618 -0.73697,0.31671 -1.0625,0.5 -0.9307,0.37791 -1.45275,0.77991 -1.8125,1.28125 -0.0835,0.11642 -0.18456,0.21199 -0.25,0.34375 -0.43112,0.86812 -0.61559,1.57641 -0.6875,2.0625 -0.0676,0.45837 -0.0352,0.71435 -0.0312,0.75 0.006,-0.0177 0.0226,-0.0215 0.0312,-0.0312 0.008,-0.0221 0.0231,-0.0407 0.0312,-0.0625 -0.006,0.25105 0.0573,0.58619 0.15625,1 0.0208,0.0868 0.0377,0.15712 0.0625,0.25 0.006,0.0219 -0.006,0.0403 0,0.0625 0.14223,0.52494 0.34989,1.14104 0.59375,1.8125 0.0163,0.0451 0.0145,0.0794 0.0312,0.125 0.49608,1.35224 1.17603,2.91768 1.84375,4.4375 0.3835,0.87291 0.69937,1.55463 1.0625,2.34375 0.28775,0.6239 0.60319,1.36661 0.84375,1.875 0.0505,0.10688 0.13972,0.27427 0.1875,0.375 0.39124,0.81977 0.76154,1.58366 0.8125,1.6875 0.007,0.0144 0.0937,0.1875 0.0937,0.1875 0.5402,1.36738 0.9375,2.40625 0.9375,2.40625 0,0 0.97459,-7.09062 7.3125,-14.3125 0.28735,0.19598 0.55398,0.41577 0.8125,0.625 0.0735,0.0596 0.14664,0.1272 0.21875,0.1875 0.1787,0.14941 0.35644,0.28505 0.53125,0.4375 0.1576,0.13745 0.30934,0.26801 0.46875,0.40625 0.0947,0.0821 0.18468,0.16803 0.28125,0.25 0.24928,0.21153 0.50737,0.41853 0.78125,0.625 0.0409,0.031 0.0833,0.063 0.125,0.0937 0.25058,0.18443 0.52711,0.35599 0.8125,0.53125 0.10533,0.0647 0.20128,0.12445 0.3125,0.1875 0.24038,0.13695 0.4775,0.2785 0.75,0.40625 0.39019,0.18353 0.80939,0.34071 1.28125,0.5 0.47186,0.15929 0.99039,0.30877 1.5625,0.4375 0.33529,0.0915 0.65834,0.15972 1,0.21875 0.0106,10e-4 0.0207,-10e-4 0.0312,0 2.79459,0.47489 5.77708,-0.0917 8.34375,-1.28125 3.74819,-1.25153 7.38622,-3.12721 9.5,-4.4375 2.92623,-1.81391 5.49111,-4.82433 5.71875,-5.90625 0.97715,-4.09464 -0.11012,-5.75579 -0.75,-6.34375 -0.004,-0.0136 -0.0272,-0.0177 -0.0312,-0.0312 -0.59308,-2.00883 -5.743,-3.0913 -12,-2.875 z m -11.125,16.21875 c 0.41939,0.0794 0.86033,0.12672 1.3125,0.15625 0.36849,0.0241 0.72613,0.0418 1.125,0.0312 0.1069,-0.002 0.20312,0.005 0.3125,0 -0.0528,0.007 -0.10355,0.0256 -0.15625,0.0312 -0.0212,0.002 -0.0414,-0.002 -0.0625,0 -0.33615,0.0336 -0.66739,0.0387 -1,0.0312 -0.0738,-0.002 -0.14511,0.004 -0.21875,0 -0.3632,-0.0185 -0.73522,-0.052 -1.09375,-0.125 -0.0847,-0.035 -0.13587,-0.0904 -0.21875,-0.125 z" transform="matrix(-0.49794969,-0.0090208,0.02981881,0.33657618,-7.9722933,285.02232)" id="path31456"/>
        <path transform="matrix(0.26458336,0,0,0.26458336,320.08182,94.083721)" inkscape:connector-curvature="0" id="path31458" d="m -252.34377,-444.14087 c 17.90466,10.63089 21.26178,22.38082 21.26178,22.38082 0,0 9.51185,-17.90466 8.95233,-22.94034 -0.55952,-5.03569 -16.22609,-6.15473 -23.49986,-5.59521 -7.27377,0.55952 -6.71425,6.15473 -6.71425,6.15473 z" style="color: rgb(0, 0, 0); fill: rgb(56, 118, 15); fill-opacity: 1; fill-rule: nonzero; stroke: none; stroke-width: 0; marker: none; visibility: visible; display: inline; overflow: visible;"/>
      </g>
      <path sodipodi:nodetypes="ccscscsscscc" inkscape:connector-curvature="0" id="path31460" transform="matrix(0.26458336,0,0,0.26458336,320.08182,94.083721)" d="m -314.80319,-447.63696 c 0,0 -4.53295,1.284 -1.42063,8.37606 0.55036,1.38407 5.70398,5.32224 11.41561,7.72948 7.84047,3.30446 26.21751,9.30373 36.149,7.62517 11.33029,-1.53868 10.71573,-5.72994 19.81546,-7.3125 9.09974,-1.58256 20.17284,-2.35514 11.46875,17.03125 0,0 9.4894,-14.64737 9.09375,-17.8125 -0.39564,-3.16513 -2.89087,-6.75071 -17.8125,-4.75 -10.84658,1.45432 -9.7539,3.29704 -24.78421,7.3244 -5.78389,0.69978 -12.15208,-1.32807 -18.71579,-4.16815 -7.01276,-3.03438 -4.03346,-8.06824 -7.87634,-9.8297 z" style="color: rgb(0, 0, 0); fill: rgb(47, 99, 13); fill-opacity: 1; fill-rule: nonzero; stroke: none; stroke-width: 0; marker: none; visibility: visible; display: inline; overflow: visible;"/>
      <path sodipodi:nodetypes="csssssc" transform="matrix(0.26458336,0,0,0.26458336,320.08182,94.083721)" inkscape:connector-curvature="0" id="path31462" d="m -228.1445,-431.83142 c -5.87497,-9.65173 -24.42454,-3.83789 -31.33315,-0.97916 -8.11305,3.35712 -12.58922,4.61604 -25.73795,2.0982 -13.14873,-2.51784 -27.47148,-9.40285 -30.24732,-15.66569 -2.26183,-5.10311 25.78686,-5.99948 47.00898,-0.84854 17.88186,4.3402 36.81243,9.52022 38.63088,11.75831 1.81844,2.23808 1.67856,3.63688 1.67856,3.63688 z" style="color: rgb(0, 0, 0); fill: rgb(86, 183, 23); fill-opacity: 1; fill-rule: nonzero; stroke: none; stroke-width: 0; marker: none; visibility: visible; display: inline; overflow: visible;"/>
    </g>
    <path style="color: rgb(0, 0, 0); fill: rgb(47, 98, 12); fill-opacity: 1; fill-rule: nonzero; stroke: none; stroke-width: 0; marker: none; visibility: visible; display: inline; overflow: visible;" d="m 314.10706,366.82364 c 4.87148,-0.31944 7.10756,1.35763 6.78812,1.35763 -0.31944,0 0.7986,-0.71874 -1.75692,-1.43749 -2.55553,-0.71874 -5.0312,0.0799 -5.0312,0.0799 z" id="path31663" inkscape:connector-curvature="0"/>
    <g id="g31679" transform="matrix(1.0789013,0,0,1.0789013,135.27885,533.29355)" gds_color="stalk">
      <path style="color: rgb(0, 0, 0); fill: rgb(159, 212, 124); fill-opacity: 1; fill-rule: nonzero; stroke: rgb(13, 13, 13); stroke-width: 9.26869; stroke-linejoin: round; stroke-miterlimit: 4; stroke-opacity: 1; stroke-dasharray: none; marker: none; visibility: visible; display: inline; overflow: visible;" d="m -562.31815,-928.68567 c -9.51185,11.19042 -4.75149,27.30008 0.80534,36.03526 4.16725,6.5508 1.3873,15.10559 -1.10148,21.00709 -3.37777,8.00953 6.63069,-3.94762 7.57041,-5.1912 2.79615,1.5887 4.89851,0.83718 3.00316,-2.30595 -0.0668,0.31075 3.82592,17.16708 5.18726,7.94031 0.80076,-5.42736 1.05056,-9.12907 0.20189,-12.4441 -2.85822,-11.16457 -10.07138,-13.98802 -11.74994,-23.49987 -1.67856,-9.51184 0.83929,-13.98801 2.23809,-19.7231 1.0355,-4.24554 -3.91664,-4.8958 -6.15473,-1.81844 z" id="path31667" inkscape:connector-curvature="0" transform="matrix(0.26458336,0,0,0.26458336,320.08182,94.083721)" sodipodi:nodetypes="cssccssssc"/>
      <path sodipodi:nodetypes="csccsssc" transform="matrix(0.26458336,0,0,0.26458336,320.08182,94.083721)" inkscape:connector-curvature="0" id="path31665" d="m -562.31815,-928.68567 c -9.51185,11.19042 -4.75148,27.30008 0.80534,36.03526 6.10673,9.59961 -2.94456,23.4043 -3.32318,27.19056 0.83928,6.15473 18.07616,4.74086 17.34514,-1.11903 1.11904,-8.11305 1.90869,-12.88813 0.83928,-17.06538 -2.85822,-11.16457 -10.07138,-13.98802 -11.74994,-23.49987 -1.67856,-9.51184 0.83929,-13.98801 2.23809,-19.7231 1.0355,-4.24554 -3.91664,-4.8958 -6.15473,-1.81844 z" style="color: rgb(0, 0, 0); fill: rgb(159, 212, 124); fill-opacity: 1; fill-rule: nonzero; stroke: none; stroke-width: 0; marker: none; visibility: visible; display: inline; overflow: visible;"/>
      <path inkscape:connector-curvature="0" id="path31669" transform="matrix(0.26458336,0,0,0.26458336,320.08182,94.083721)" d="m -567.1875,-918.71875 c -1.16559,5.48952 -0.40041,11.25369 1.21875,16.375 4.34196,4.92224 11.29612,8.66258 14.0625,12.59375 3.75859,5.34116 3.53926,16.39709 -1.40625,18.96875 -4.63642,2.41094 -8.2192,-2.13241 -6.53125,-9.71875 -1.24862,6.60183 -4.76705,12.70167 -5,15.03125 0.83928,6.15473 18.07477,4.73489 17.34375,-1.125 1.11904,-8.11305 1.91316,-12.88525 0.84375,-17.0625 -2.85822,-11.16457 -10.07144,-13.98815 -11.75,-23.5 -0.12903,-0.73118 -0.1994,-1.41922 -0.28125,-2.09375 -0.47619,-0.006 -0.97156,-0.066 -1.53125,-0.28125 -2.17638,-0.83707 -6.34085,-5.4958 -6.96875,-9.1875 z m 7.34375,38.21875 c 0.11253,-0.50576 0.24552,-0.99961 0.40625,-1.53125 0.66196,-2.18957 0.54885,-2.72898 0,-2.125 -0.0431,1.21633 -0.17844,2.45173 -0.40625,3.65625 z" style="opacity: 0.610619; color: rgb(0, 0, 0); fill: rgb(75, 159, 20); fill-opacity: 1; fill-rule: nonzero; stroke: none; stroke-width: 0; marker: none; visibility: visible; display: inline; overflow: visible;"/>
      <path inkscape:connector-curvature="0" id="path31674" transform="matrix(0.26458336,0,0,0.26458336,320.08182,94.083721)" d="m -559.125,-930.59375 c -1.14373,0.1126 -2.34822,0.75224 -3.1875,1.90625 -5.52309,6.49775 -6.21273,14.65439 -4.75,22.0625 0.40791,-8.39687 4.16559,-15.13921 5.875,-16.46875 2.51784,-1.95832 0.81399,7.26341 1.09375,9.78125 0.0534,0.48043 0.49879,1.00884 1.15625,1.46875 -0.27313,-6.46591 1.63565,-10.3343 2.78125,-15.03125 0.64719,-2.65346 -1.06253,-3.90641 -2.96875,-3.71875 z" style="color: rgb(0, 0, 0); fill: rgb(203, 238, 180); fill-opacity: 1; fill-rule: nonzero; stroke: none; stroke-width: 0; marker: none; visibility: visible; display: inline; overflow: visible;"/>
    </g>
    <g id="g34614" transform="translate(358.85688,-10.165013)" gds_color="leaves" gds_switchable="leaves">
      <g transform="matrix(0.82626083,0.64725325,-0.64725325,0.82626083,-310.70088,214.74341)" id="g31558">
        <path inkscape:connector-curvature="0" style="color: rgb(0, 0, 0); fill: rgb(47, 99, 13); fill-opacity: 1; fill-rule: nonzero; stroke: rgb(13, 13, 13); stroke-width: 9.52751; stroke-linejoin: round; stroke-miterlimit: 4; stroke-opacity: 1; stroke-dasharray: none; marker: none; visibility: visible; display: inline; overflow: visible;" d="m -38.9375,-520.0625 c -8.371562,-0.10071 -17.236082,2.66412 -22.875,11.84375 0,0 -0.484192,1.19467 -1,3 -0.0051,0.0178 0.0051,0.0445 0,0.0625 -0.03599,0.0576 -0.08928,0.0981 -0.125,0.15625 0,0 -0.08532,0.34181 -0.1875,0.90625 -0.830486,3.25939 -1.551101,7.85506 -0.40625,11.625 0.686595,4.8786 2.837878,9.60791 8.28125,10.96875 12.309429,3.07736 15.526823,-5.3036 23.5,-10.96875 7.973177,-5.66514 20.84375,-5.53125 20.84375,-5.53125 0,0 0.897744,-1.84904 0.5625,-3.09375 0,0 -0.428614,-6.56403 -7.5625,-12.71875 -2.710096,-2.33812 -11.543479,-6.13586 -21.03125,-6.25 z" transform="matrix(0.26458336,0,0,0.26458336,320.08182,94.083721)" id="path31560"/>
        <path sodipodi:nodetypes="csscssc" inkscape:connector-curvature="0" id="path31562" d="m 303.42734,-39.527896 c 3.18286,-5.181391 10.56747,-2.570858 11.91721,-1.406377 1.25198,1.080141 1.82855,1.787588 2.00338,2.436365 0.0887,0.329329 -0.15289,0.820511 -0.15289,0.820511 0,0 -3.40491,-0.03701 -5.51448,1.461892 -2.10957,1.498905 -2.9608,3.719503 -6.21767,2.905285 -3.25688,-0.814221 -2.03555,-6.217676 -2.03555,-6.217676 z" style="color: rgb(0, 0, 0); fill: rgb(47, 99, 13); fill-opacity: 1; fill-rule: nonzero; stroke: none; stroke-width: 0; marker: none; visibility: visible; display: inline; overflow: visible;"/>
        <path style="color: rgb(0, 0, 0); fill: rgb(75, 159, 20); fill-opacity: 1; fill-rule: nonzero; stroke: none; stroke-width: 0; marker: none; visibility: visible; display: inline; overflow: visible;" d="m -61.82702,-508.20598 c 12.029691,-19.58321 38.821006,-9.99637 43.922363,-5.5952 7.133886,6.15472 7.571852,12.70531 7.571852,12.70531 0,0 -14.286099,-2.2143 -21.839626,3.10114 -7.553527,5.31545 -12.589213,14.68742 -24.898665,11.61006 -12.309452,-3.07737 -4.755924,-21.82131 -4.755924,-21.82131 z" id="path31564" inkscape:connector-curvature="0" transform="matrix(0.26458336,0,0,0.26458336,320.08182,94.083721)" sodipodi:nodetypes="cscssc"/>
        <path inkscape:connector-curvature="0" style="color: rgb(0, 0, 0); fill: rgb(94, 200, 25); fill-opacity: 1; fill-rule: nonzero; stroke: none; stroke-width: 0; marker: none; visibility: visible; display: inline; overflow: visible;" d="m -38.9375,-520.0625 c -1.810845,-0.0218 -3.648096,0.0923 -5.46875,0.375 16.839165,1.37148 17.998798,12.99321 13.34375,17.78125 -4.895811,5.03569 -12.450956,13.4256 -17.90625,14.125 -5.455332,0.6994 -11.608644,0.55501 -14.40625,-6.71875 -0.297518,-0.77355 -0.534008,-1.45933 -0.75,-2.125 0.05682,4.49499 1.639319,8.8942 7.0625,10.25 12.309452,3.07736 17.321473,-6.30955 24.875,-11.625 7.553527,-5.31544 21.84375,-3.09375 21.84375,-3.09375 0,0 -0.428614,-6.56403 -7.5625,-12.71875 -2.710096,-2.33812 -11.543479,-6.13586 -21.03125,-6.25 z" transform="matrix(0.26458336,0,0,0.26458336,320.08182,94.083721)" id="path31566"/>
        <path style="color: rgb(0, 0, 0); fill: rgb(47, 98, 12); fill-opacity: 1; fill-rule: nonzero; stroke: none; stroke-width: 0; marker: none; visibility: visible; display: inline; overflow: visible;" d="m -59.029418,-502.33101 c 19.922131,-21.49699 46.688266,-4.32886 46.300326,-2.0982 0.177237,-1.35882 -23.210906,-15.03769 -46.300326,2.0982 z" id="path31568" inkscape:connector-curvature="0" transform="matrix(0.26458336,0,0,0.26458336,320.08182,94.083721)" sodipodi:nodetypes="ccc"/>
      </g>
      <g id="g31644" transform="matrix(-0.82626083,0.64725325,0.64725325,0.82626083,235.12122,216.50034)">
        <path id="path31646" transform="matrix(0.26458336,0,0,0.26458336,320.08182,94.083721)" d="m -38.9375,-520.0625 c -8.371562,-0.10071 -17.236082,2.66412 -22.875,11.84375 0,0 -0.484192,1.19467 -1,3 -0.0051,0.0178 0.0051,0.0445 0,0.0625 -0.03599,0.0576 -0.08928,0.0981 -0.125,0.15625 0,0 -0.08532,0.34181 -0.1875,0.90625 -0.830486,3.25939 -1.551101,7.85506 -0.40625,11.625 0.686595,4.8786 2.837878,9.60791 8.28125,10.96875 12.309429,3.07736 15.526823,-5.3036 23.5,-10.96875 7.973177,-5.66514 20.84375,-5.53125 20.84375,-5.53125 0,0 0.897744,-1.84904 0.5625,-3.09375 0,0 -0.428614,-6.56403 -7.5625,-12.71875 -2.710096,-2.33812 -11.543479,-6.13586 -21.03125,-6.25 z" style="color: rgb(0, 0, 0); fill: rgb(47, 99, 13); fill-opacity: 1; fill-rule: nonzero; stroke: rgb(13, 13, 13); stroke-width: 9.52751; stroke-linejoin: round; stroke-miterlimit: 4; stroke-opacity: 1; stroke-dasharray: none; marker: none; visibility: visible; display: inline; overflow: visible;" inkscape:connector-curvature="0"/>
        <path style="color: rgb(0, 0, 0); fill: rgb(47, 99, 13); fill-opacity: 1; fill-rule: nonzero; stroke: none; stroke-width: 0; marker: none; visibility: visible; display: inline; overflow: visible;" d="m 303.42734,-39.527896 c 3.18286,-5.181391 10.56747,-2.570858 11.91721,-1.406377 1.25198,1.080141 1.82855,1.787588 2.00338,2.436365 0.0887,0.329329 -0.15289,0.820511 -0.15289,0.820511 0,0 -3.40491,-0.03701 -5.51448,1.461892 -2.10957,1.498905 -2.9608,3.719503 -6.21767,2.905285 -3.25688,-0.814221 -2.03555,-6.217676 -2.03555,-6.217676 z" id="path31648" inkscape:connector-curvature="0" sodipodi:nodetypes="csscssc"/>
        <path sodipodi:nodetypes="cscssc" transform="matrix(0.26458336,0,0,0.26458336,320.08182,94.083721)" inkscape:connector-curvature="0" id="path31650" d="m -61.82702,-508.20598 c 12.029691,-19.58321 38.821006,-9.99637 43.922363,-5.5952 7.133886,6.15472 7.571852,12.70531 7.571852,12.70531 0,0 -14.286099,-2.2143 -21.839626,3.10114 -7.553527,5.31545 -12.589213,14.68742 -24.898665,11.61006 -12.309452,-3.07737 -4.755924,-21.82131 -4.755924,-21.82131 z" style="color: rgb(0, 0, 0); fill: rgb(75, 159, 20); fill-opacity: 1; fill-rule: nonzero; stroke: none; stroke-width: 0; marker: none; visibility: visible; display: inline; overflow: visible;"/>
        <path id="path31652" transform="matrix(0.26458336,0,0,0.26458336,320.08182,94.083721)" d="m -38.9375,-520.0625 c -1.810845,-0.0218 -3.648096,0.0923 -5.46875,0.375 16.839165,1.37148 17.998798,12.99321 13.34375,17.78125 -4.895811,5.03569 -12.450956,13.4256 -17.90625,14.125 -5.455332,0.6994 -11.608644,0.55501 -14.40625,-6.71875 -0.297518,-0.77355 -0.534008,-1.45933 -0.75,-2.125 0.05682,4.49499 1.639319,8.8942 7.0625,10.25 12.309452,3.07736 17.321473,-6.30955 24.875,-11.625 7.553527,-5.31544 21.84375,-3.09375 21.84375,-3.09375 0,0 -0.428614,-6.56403 -7.5625,-12.71875 -2.710096,-2.33812 -11.543479,-6.13586 -21.03125,-6.25 z" style="color: rgb(0, 0, 0); fill: rgb(94, 200, 25); fill-opacity: 1; fill-rule: nonzero; stroke: none; stroke-width: 0; marker: none; visibility: visible; display: inline; overflow: visible;" inkscape:connector-curvature="0"/>
        <path sodipodi:nodetypes="ccc" transform="matrix(0.26458336,0,0,0.26458336,320.08182,94.083721)" inkscape:connector-curvature="0" id="path31654" d="m -59.029418,-502.33101 c 19.922131,-21.49699 46.688266,-4.32886 46.300326,-2.0982 0.177237,-1.35882 -23.210906,-15.03769 -46.300326,2.0982 z" style="color: rgb(0, 0, 0); fill: rgb(47, 98, 12); fill-opacity: 1; fill-rule: nonzero; stroke: none; stroke-width: 0; marker: none; visibility: visible; display: inline; overflow: visible;"/>
      </g>
    </g>
  </g>
</svg>