<?xml version="1.0" encoding="UTF-8" standalone="no"?><!-- Created with Inkscape (http://www.inkscape.org/) --><svg xmlns:dc="http://purl.org/dc/elements/1.1/" xmlns:cc="http://creativecommons.org/ns#" xmlns:rdf="http://www.w3.org/1999/02/22-rdf-syntax-ns#" xmlns:svg="http://www.w3.org/2000/svg" xmlns="http://www.w3.org/2000/svg" xmlns:sodipodi="http://sodipodi.sourceforge.net/DTD/sodipodi-0.dtd" xmlns:inkscape="http://www.inkscape.org/namespaces/inkscape" width="73.752335" height="75.590668" viewBox="0 0 19.513636 20.000027" version="1.1" id="svg23489" inkscape:version="0.48.5 r10040" sodipodi:docname="plant_17.svg">
  <defs id="defs23483">
    <clipPath clipPathUnits="userSpaceOnUse" id="clipPath22932">
      <path style="opacity: 0.39823; color: rgb(0, 0, 0); fill: rgb(186, 255, 81); fill-opacity: 1; fill-rule: nonzero; stroke: none; stroke-width: 0; marker: none; visibility: visible; display: inline; overflow: visible;" d="m 544.30169,181.88988 c 0.28587,0.59217 2.59866,1.15837 3.74216,0.1578 0.98015,2.77708 16.86469,0 16.86469,0 l 0,-16.17162 -30.55281,0 0,15.42079 c 0,0 6.65838,3.49263 9.94596,0.59303 z" id="path22934" inkscape:connector-curvature="0" sodipodi:nodetypes="ccccccc"/>
    </clipPath>
    <clipPath clipPathUnits="userSpaceOnUse" id="clipPath22874">
      <path style="opacity: 0.39823; color: rgb(0, 0, 0); fill: rgb(186, 255, 81); fill-opacity: 1; fill-rule: nonzero; stroke: none; stroke-width: 0; marker: none; visibility: visible; display: inline; overflow: visible;" d="m 507.96393,172.04108 c 5.63585,4.14521 4.40861,7.03756 4.24526,7.42553 -0.16336,0.38797 -0.45419,0.84609 -0.55527,0.75946 0,0 -0.23077,1.39392 -0.96715,1.52387 0,0 0.7281,2.05291 -3.23333,2.91054 -3.96143,0.85763 -12.08849,-2.45037 -11.76178,-7.80034 0.32672,-5.34998 9.00511,-7.35111 12.27227,-4.81906 z" id="path22876" inkscape:connector-curvature="0" sodipodi:nodetypes="csccssc"/>
    </clipPath>
    <clipPath clipPathUnits="userSpaceOnUse" id="clipPath22894">
      <path style="opacity: 0.39823; color: rgb(0, 0, 0); fill: rgb(186, 255, 81); fill-opacity: 1; fill-rule: nonzero; stroke: none; stroke-width: 0; marker: none; visibility: visible; display: inline; overflow: visible;" d="m 519.13353,181.84256 c 1.53,1.07862 2.21773,-0.85703 2.00114,-1.06183 0.0817,0.0408 1.9603,0.65343 4.32899,-2.85877 2.36869,-3.51219 0,-9.96483 -8.00455,-11.96597 -8.00454,-2.00113 -11.2717,3.47136 -11.47589,10.16904 -0.2042,6.69767 5.75836,9.27056 9.76064,9.7198 4.00227,0.44923 3.38967,-4.00227 3.38967,-4.00227 z" id="path22896" inkscape:connector-curvature="0" sodipodi:nodetypes="ccssssc"/>
    </clipPath>
    <clipPath clipPathUnits="userSpaceOnUse" id="clipPath23263">
      <path style="opacity: 0.39823; color: rgb(0, 0, 0); fill: rgb(186, 255, 81); fill-opacity: 1; fill-rule: nonzero; stroke: none; stroke-width: 0; marker: none; visibility: visible; display: inline; overflow: visible;" d="m 507.96393,172.04108 c 5.63585,4.14521 4.40861,7.03756 4.24526,7.42553 -0.16336,0.38797 -0.45419,0.84609 -0.55527,0.75946 0,0 -0.23077,1.39392 -0.96715,1.52387 0,0 0.7281,2.05291 -3.23333,2.91054 -3.96143,0.85763 -12.08849,-2.45037 -11.76178,-7.80034 0.32672,-5.34998 9.00511,-7.35111 12.27227,-4.81906 z" id="path23265" inkscape:connector-curvature="0" sodipodi:nodetypes="csccssc"/>
    </clipPath>
    <clipPath clipPathUnits="userSpaceOnUse" id="clipPath22907">
      <path style="opacity: 0.39823; color: rgb(0, 0, 0); fill: rgb(186, 255, 81); fill-opacity: 1; fill-rule: nonzero; stroke: none; stroke-width: 0; marker: none; visibility: visible; display: inline; overflow: visible;" d="m 525.58617,181.98549 c 0.89522,0.98185 2.40724,0.64233 3.04255,0.12252 0.16124,0.72559 12.13955,0.23486 11.90471,0 -0.23482,-0.23483 4.09811,-23.83249 0,-26.19853 -4.09811,-2.36605 -15.11061,0 -21.31822,0 -6.2076,0 -9.48879,8.76153 -8.08444,14.00265 1.40436,5.24112 4.81751,7.15803 7.00687,9.97898 2.18936,2.82095 7.44853,2.09438 7.44853,2.09438 z" id="path22909" inkscape:connector-curvature="0" sodipodi:nodetypes="ccsssssc"/>
    </clipPath>
    <clipPath clipPathUnits="userSpaceOnUse" id="clipPath23269">
      <path style="opacity: 0.39823; color: rgb(0, 0, 0); fill: rgb(186, 255, 81); fill-opacity: 1; fill-rule: nonzero; stroke: none; stroke-width: 0; marker: none; visibility: visible; display: inline; overflow: visible;" d="m 525.58617,181.98549 c 0.89522,0.98185 2.40724,0.64233 3.04255,0.12252 0.16124,0.72559 12.13955,0.23486 11.90471,0 -0.23482,-0.23483 4.09811,-23.83249 0,-26.19853 -4.09811,-2.36605 -15.11061,0 -21.31822,0 -6.2076,0 -9.48879,8.76153 -8.08444,14.00265 1.40436,5.24112 4.81751,7.15803 7.00687,9.97898 2.18936,2.82095 7.44853,2.09438 7.44853,2.09438 z" id="path23271" inkscape:connector-curvature="0" sodipodi:nodetypes="ccsssssc"/>
    </clipPath>
    <clipPath clipPathUnits="userSpaceOnUse" id="clipPath23273">
      <path style="opacity: 0.39823; color: rgb(0, 0, 0); fill: rgb(186, 255, 81); fill-opacity: 1; fill-rule: nonzero; stroke: none; stroke-width: 0; marker: none; visibility: visible; display: inline; overflow: visible;" d="m 507.96393,172.04108 c 5.63585,4.14521 4.40861,7.03756 4.24526,7.42553 -0.16336,0.38797 -0.45419,0.84609 -0.55527,0.75946 0,0 -0.23077,1.39392 -0.96715,1.52387 0,0 0.7281,2.05291 -3.23333,2.91054 -3.96143,0.85763 -12.08849,-2.45037 -11.76178,-7.80034 0.32672,-5.34998 9.00511,-7.35111 12.27227,-4.81906 z" id="path23275" inkscape:connector-curvature="0" sodipodi:nodetypes="csccssc"/>
    </clipPath>
    <clipPath clipPathUnits="userSpaceOnUse" id="clipPath23277">
      <path style="opacity: 0.39823; color: rgb(0, 0, 0); fill: rgb(186, 255, 81); fill-opacity: 1; fill-rule: nonzero; stroke: none; stroke-width: 0; marker: none; visibility: visible; display: inline; overflow: visible;" d="m 519.13353,181.84256 c 1.53,1.07862 2.21773,-0.85703 2.00114,-1.06183 0.0817,0.0408 1.9603,0.65343 4.32899,-2.85877 2.36869,-3.51219 0,-9.96483 -8.00455,-11.96597 -8.00454,-2.00113 -11.2717,3.47136 -11.47589,10.16904 -0.2042,6.69767 5.75836,9.27056 9.76064,9.7198 4.00227,0.44923 3.38967,-4.00227 3.38967,-4.00227 z" id="path23279" inkscape:connector-curvature="0" sodipodi:nodetypes="ccssssc"/>
    </clipPath>
    <clipPath clipPathUnits="userSpaceOnUse" id="clipPath23281">
      <path style="opacity: 0.39823; color: rgb(0, 0, 0); fill: rgb(186, 255, 81); fill-opacity: 1; fill-rule: nonzero; stroke: none; stroke-width: 0; marker: none; visibility: visible; display: inline; overflow: visible;" d="m 525.58617,181.98549 c 0.89522,0.98185 2.40724,0.64233 3.04255,0.12252 0.16124,0.72559 12.13955,0.23486 11.90471,0 -0.23482,-0.23483 4.09811,-23.83249 0,-26.19853 -4.09811,-2.36605 -15.11061,0 -21.31822,0 -6.2076,0 -9.48879,8.76153 -8.08444,14.00265 1.40436,5.24112 4.81751,7.15803 7.00687,9.97898 2.18936,2.82095 7.44853,2.09438 7.44853,2.09438 z" id="path23283" inkscape:connector-curvature="0" sodipodi:nodetypes="ccsssssc"/>
    </clipPath>
    <clipPath clipPathUnits="userSpaceOnUse" id="clipPath23285">
      <path style="opacity: 0.39823; color: rgb(0, 0, 0); fill: rgb(186, 255, 81); fill-opacity: 1; fill-rule: nonzero; stroke: none; stroke-width: 0; marker: none; visibility: visible; display: inline; overflow: visible;" d="m 544.30169,181.88988 c 0.28587,0.59217 2.59866,1.15837 3.74216,0.1578 0.98015,2.77708 16.86469,0 16.86469,0 l 0,-16.17162 -30.55281,0 0,15.42079 c 0,0 6.65838,3.49263 9.94596,0.59303 z" id="path23287" inkscape:connector-curvature="0" sodipodi:nodetypes="ccccccc"/>
    </clipPath>
    <clipPath clipPathUnits="userSpaceOnUse" id="clipPath23289">
      <path style="opacity: 0.39823; color: rgb(0, 0, 0); fill: rgb(186, 255, 81); fill-opacity: 1; fill-rule: nonzero; stroke: none; stroke-width: 0; marker: none; visibility: visible; display: inline; overflow: visible;" d="m 507.96393,172.04108 c 5.63585,4.14521 4.40861,7.03756 4.24526,7.42553 -0.16336,0.38797 -0.45419,0.84609 -0.55527,0.75946 0,0 -0.23077,1.39392 -0.96715,1.52387 0,0 0.7281,2.05291 -3.23333,2.91054 -3.96143,0.85763 -12.08849,-2.45037 -11.76178,-7.80034 0.32672,-5.34998 9.00511,-7.35111 12.27227,-4.81906 z" id="path23291" inkscape:connector-curvature="0" sodipodi:nodetypes="csccssc"/>
    </clipPath>
    <clipPath clipPathUnits="userSpaceOnUse" id="clipPath22919">
      <path style="opacity: 0.39823; color: rgb(0, 0, 0); fill: rgb(186, 255, 81); fill-opacity: 1; fill-rule: nonzero; stroke: none; stroke-width: 0; marker: none; visibility: visible; display: inline; overflow: visible;" d="m 533.24358,180.67863 c -0.16336,1.16393 0.51049,2.00114 2.00114,1.20477 -1.74256,1.5022 -0.71572,1.26164 1.42124,3.05207 2.13697,1.79043 11.4934,0.98185 12.12872,0.5198 0.63531,-0.46205 8.02805,-6.41089 8.0858,-8.66336 0.0578,-2.25248 -1.90593,-15.01651 -5.19801,-17.78878 -3.29208,-2.77228 -16.4604,-0.57756 -19.75248,-0.0578 -3.29208,0.5198 -10.16501,5.71782 -9.93399,5.77558 0.23102,0.0577 2.83003,15.42079 2.77228,15.65181 -0.0578,0.23102 2.42574,4.15842 2.83003,3.92739 0.40429,-0.23102 3.95121,-3.17246 3.95121,-3.17246 0,0 1.59196,0.89865 1.69406,-0.44906 z" id="path22921" inkscape:connector-curvature="0" sodipodi:nodetypes="ccsssssssscc"/>
    </clipPath>
    <clipPath clipPathUnits="userSpaceOnUse" id="clipPath23295">
      <path style="opacity: 0.39823; color: rgb(0, 0, 0); fill: rgb(186, 255, 81); fill-opacity: 1; fill-rule: nonzero; stroke: none; stroke-width: 0; marker: none; visibility: visible; display: inline; overflow: visible;" d="m 525.58617,181.98549 c 0.89522,0.98185 2.40724,0.64233 3.04255,0.12252 0.16124,0.72559 12.13955,0.23486 11.90471,0 -0.23482,-0.23483 4.09811,-23.83249 0,-26.19853 -4.09811,-2.36605 -15.11061,0 -21.31822,0 -6.2076,0 -9.48879,8.76153 -8.08444,14.00265 1.40436,5.24112 4.81751,7.15803 7.00687,9.97898 2.18936,2.82095 7.44853,2.09438 7.44853,2.09438 z" id="path23297" inkscape:connector-curvature="0" sodipodi:nodetypes="ccsssssc"/>
    </clipPath>
    <clipPath clipPathUnits="userSpaceOnUse" id="clipPath23299">
      <path style="opacity: 0.39823; color: rgb(0, 0, 0); fill: rgb(186, 255, 81); fill-opacity: 1; fill-rule: nonzero; stroke: none; stroke-width: 0; marker: none; visibility: visible; display: inline; overflow: visible;" d="m 525.58617,181.98549 c 0.89522,0.98185 2.40724,0.64233 3.04255,0.12252 0.16124,0.72559 12.13955,0.23486 11.90471,0 -0.23482,-0.23483 4.09811,-23.83249 0,-26.19853 -4.09811,-2.36605 -15.11061,0 -21.31822,0 -6.2076,0 -9.48879,8.76153 -8.08444,14.00265 1.40436,5.24112 4.81751,7.15803 7.00687,9.97898 2.18936,2.82095 7.44853,2.09438 7.44853,2.09438 z" id="path23301" inkscape:connector-curvature="0" sodipodi:nodetypes="ccsssssc"/>
    </clipPath>
  </defs>
  <sodipodi:namedview id="base" pagecolor="#7d848b" bordercolor="#666666" borderopacity="1.0" inkscape:pageopacity="0" inkscape:pageshadow="2" inkscape:zoom="1.7872445" inkscape:cx="96.473044" inkscape:cy="28.5304" inkscape:document-units="px" inkscape:current-layer="layer1" showgrid="false" inkscape:pagecheckerboard="false" showborder="true" units="px" inkscape:window-width="1920" inkscape:window-height="1017" inkscape:window-x="-8" inkscape:window-y="-8" inkscape:window-maximized="1" inkscape:showpageshadow="false" guidetolerance="28" fit-margin-top="8" fit-margin-left="8" fit-margin-right="8" fit-margin-bottom="8">
    <inkscape:grid type="xygrid" id="grid24034" spacingx="1px" spacingy="1px" empspacing="8" visible="true" enabled="true" snapvisiblegridlinesonly="true" originx="-201.3467px" originy="428.89483px"/>
  </sodipodi:namedview>
  <metadata id="metadata23486">
    <rdf:RDF>
      <cc:Work rdf:about="">
        <dc:format>image/svg+xml</dc:format>
        <dc:type rdf:resource="http://purl.org/dc/dcmitype/StillImage"/>
        <dc:title/>
        <cc:license rdf:resource=""/>
        <dc:creator>
          <cc:Agent>
            <dc:title>Robert Brooks</dc:title>
          </cc:Agent>
        </dc:creator>
      </cc:Work>
    </rdf:RDF>
  </metadata>
  <g inkscape:label="Layer 1" inkscape:groupmode="layer" id="layer1" transform="translate(-53.272963,-390.47835)">
    <g id="g11052" transform="matrix(0.30420086,-0.00604567,0.00604567,0.30420086,44.807673,422.88271)">
      <g id="g11054">
        <g id="g11056" style="stroke: rgb(43, 0, 0); stroke-width: 7.9375; stroke-linejoin: round; stroke-miterlimit: 4; stroke-opacity: 1; stroke-dasharray: none;">
          <path style="color: rgb(0, 0, 0); fill: rgb(165, 0, 0); fill-opacity: 1; fill-rule: nonzero; stroke: rgb(43, 0, 0); stroke-width: 30; stroke-linejoin: round; stroke-miterlimit: 4; stroke-opacity: 1; stroke-dasharray: none; marker: none; visibility: visible; display: inline; overflow: visible;" d="m -1016.6433,-691.91965 c -4.0564,12.67635 -3.0423,12.67635 0,21.80332 3.0423,9.12697 21.29628,70.48051 48.17014,72.00167 26.87387,1.52116 50.70541,-65.40997 49.6913,-79.60748 -1.01411,-14.19751 -11.66224,-28.90208 -39.55021,-30.93029 -27.88798,-2.02822 -52.73363,8.61992 -56.79003,11.66224 -4.0565,3.04232 -1.5212,5.07054 -1.5212,5.07054 z" id="path11058" inkscape:connector-curvature="0" transform="matrix(0.26458336,0,0,0.26458336,320.08182,94.083721)"/>
          <path transform="matrix(0.26458336,0,0,0.26458336,320.08182,94.083721)" inkscape:connector-curvature="0" id="path11060" d="m -1021.7138,-701.04662 c 26.36678,-19.26805 73.01575,-14.70457 92.2838,-2.02822 19.26806,12.67635 16.73279,24.33859 12.1693,25.3527 -4.56349,1.01411 -10.14108,-1.01411 -19.77511,-13.1834 -9.63402,-12.1693 -46.64897,-10.14108 -63.88879,-5.5776 -17.2398,4.56349 -14.1975,26.36681 -20.2822,18.25395 -6.0846,-8.11287 -0.507,-22.81743 -0.507,-22.81743 z" style="color: rgb(0, 0, 0); fill: rgb(236, 19, 19); fill-opacity: 1; fill-rule: nonzero; stroke: rgb(60, 0, 0); stroke-width: 26.2932; stroke-linejoin: round; stroke-miterlimit: 4; stroke-opacity: 1; stroke-dasharray: none; marker: none; visibility: visible; display: inline; overflow: visible;"/>
        </g>
        <g id="g11062">
          <path transform="matrix(0.26458336,0,0,0.26458336,320.08182,94.083721)" inkscape:connector-curvature="0" id="path11064" d="m -1016.6433,-691.91965 c -4.0564,12.67635 -3.0423,12.67635 0,21.80332 3.0423,9.12697 21.29628,70.48051 48.17014,72.00167 26.87387,1.52116 50.70541,-65.40997 49.6913,-79.60748 -1.01411,-14.19751 -11.66224,-28.90208 -39.55021,-30.93029 -27.88798,-2.02822 -52.73363,8.61992 -56.79003,11.66224 -4.0565,3.04232 -1.5212,5.07054 -1.5212,5.07054 z" style="color: rgb(0, 0, 0); fill: rgb(165, 0, 0); fill-opacity: 1; fill-rule: nonzero; stroke: none; stroke-width: 0; marker: none; visibility: visible; display: inline; overflow: visible;"/>
          <path style="color: rgb(0, 0, 0); fill: rgb(236, 19, 19); fill-opacity: 1; fill-rule: nonzero; stroke: none; stroke-width: 0; marker: none; visibility: visible; display: inline; overflow: visible;" d="m -1021.7138,-701.04662 c 26.36678,-19.26805 73.01575,-14.70457 92.2838,-2.02822 19.26806,12.67635 16.73279,24.33859 12.1693,25.3527 -4.56349,1.01411 -10.14108,-1.01411 -19.77511,-13.1834 -9.63402,-12.1693 -46.64897,-10.14108 -63.88879,-5.5776 -17.2398,4.56349 -14.1975,26.36681 -20.2822,18.25395 -6.0846,-8.11287 -0.507,-22.81743 -0.507,-22.81743 z" id="path11066" inkscape:connector-curvature="0" transform="matrix(0.26458336,0,0,0.26458336,320.08182,94.083721)"/>
        </g>
        <path style="color: rgb(0, 0, 0); fill: rgb(252, 23, 23); fill-opacity: 1; fill-rule: nonzero; stroke: none; stroke-width: 0; marker: none; visibility: visible; display: inline; overflow: visible;" d="m -1021.7138,-701.04662 c 26.36678,-19.26805 73.01575,-14.70457 92.2838,-2.02822 19.26806,12.67635 16.73279,24.33859 12.1693,25.3527 -4.56349,1.01411 -10.14108,-1.01411 -19.77511,-13.1834 -9.63402,-12.1693 -46.64897,-10.14108 -63.88879,-5.5776 -17.2398,4.56349 -14.1975,26.36681 -20.2822,18.25395 -6.0846,-8.11287 -0.507,-22.81743 -0.507,-22.81743 z" id="path11068" inkscape:connector-curvature="0" transform="matrix(0.26458336,0,0,0.26458336,320.08182,94.083721)"/>
      </g>
      <g transform="translate(-3.0126315,1.8131084)" id="g11070">
        <path transform="matrix(0.26458336,0,0,0.26458336,320.08182,94.083721)" sodipodi:nodetypes="ccssscccccc" inkscape:connector-curvature="0" id="path11072" d="m -1020.6135,-703.73354 c -2.9403,-0.55664 -4.824,0.70229 -4.824,0.70229 -44.4593,40.87371 -15.7622,101.08461 19.375,124.03125 35.13698,22.94665 70.25833,-6.42959 73.84375,-16.46875 3.58541,-10.03916 -11.44503,12.17164 -41.5625,-21.53125 -11.66135,-13.04959 -14.6143,-25.00651 -14.5625,-35.65625 -0.87674,-0.15806 -1.73536,-0.3137 -2.59375,-0.5 -0.22791,-4.26301 -2.21875,-8.3125 -2.21875,-8.3125 0,0 -17.94405,-8.58418 -20.81255,-17.90625 -2.8683,-9.32207 5.0362,-14.34208 7.1876,-13.625 2.0384,0.67951 -6.6621,-8.82609 -13.8323,-10.73354 z" style="color: rgb(0, 0, 0); fill: rgb(165, 0, 0); fill-opacity: 1; fill-rule: nonzero; stroke: rgb(60, 0, 0); stroke-width: 26.2932; stroke-linejoin: round; stroke-miterlimit: 4; stroke-opacity: 1; stroke-dasharray: none; marker: none; visibility: visible; display: inline; overflow: visible;"/>
        <path style="color: rgb(0, 0, 0); fill: rgb(212, 0, 0); fill-opacity: 1; fill-rule: nonzero; stroke: none; stroke-width: 0; marker: none; visibility: visible; display: inline; overflow: visible;" d="m -1020.6135,-703.73354 c -2.9403,-0.55664 -4.824,0.70229 -4.824,0.70229 -44.4593,40.87371 -15.7622,101.08461 19.375,124.03125 35.13698,22.94665 70.25833,-6.42959 73.84375,-16.46875 3.58541,-10.03916 -4.09275,19.01687 -34.21022,-14.68602 -11.66135,-13.04959 -10.81139,-21.71066 -12.02723,-27.79691 -0.62321,-6.74976 1.81402,-15.77885 -0.81906,-18.75395 -6.31256,-2.99537 -13.88099,-4.76312 -13.88099,-4.76312 0,0 -17.94405,-8.58418 -20.81255,-17.90625 -2.8683,-9.32207 5.0362,-14.34208 7.1876,-13.625 2.0384,0.67951 -6.6621,-8.82609 -13.8323,-10.73354 z" id="path11074" inkscape:connector-curvature="0" sodipodi:nodetypes="ccssscccccc" transform="matrix(0.26458336,0,0,0.26458336,320.08182,94.083721)"/>
        <path id="path11076" transform="matrix(0.26458336,0,0,0.26458336,323.09445,92.270613)" d="m -1034,-697 c -0.2908,0.0208 -0.5616,0.0468 -0.8125,0.0937 -0.082,0.015 -0.1414,0.0455 -0.2187,0.0625 -0.1194,0.0265 -0.2354,0.0326 -0.3438,0.0625 -0.087,0.0238 -0.1703,0.0374 -0.25,0.0625 -0.1197,0.038 -0.2097,0.0861 -0.3125,0.125 -0.21,0.0784 -0.3959,0.15224 -0.5313,0.21875 -0.2154,0.10745 -0.3437,0.1875 -0.3437,0.1875 -0.5791,0.5324 -1.1642,1.08616 -1.7187,1.625 -0.1047,0.10175 -0.2088,0.21053 -0.3126,0.3125 -0.444,0.4362 -0.8842,0.87228 -1.3124,1.3125 -0.2086,0.21449 -0.4203,0.44083 -0.625,0.65625 -0.5934,0.62417 -1.1566,1.24327 -1.7188,1.875 -0.1532,0.17215 -0.3178,0.3273 -0.4688,0.5 -0.1614,0.18461 -0.3098,0.37727 -0.4687,0.5625 -0.3574,0.41712 -0.7182,0.82985 -1.0625,1.25 -0.9789,1.19405 -1.9067,2.4081 -2.7812,3.625 -0.06,0.0835 -0.128,0.16636 -0.1876,0.25 -0.325,0.4566 -0.6268,0.91545 -0.9374,1.375 -2.3987,25.40701 35.8991,50.13587 58.8437,53.59375 -0.0913,-0.63143 -0.16486,-1.26111 -0.28125,-1.84375 -0.62321,-6.74976 1.82058,-15.7749 -0.8125,-18.75 -6.31256,-2.99537 -13.87495,-4.78125 -13.87495,-4.78125 0,0 -17.9439,-8.58418 -20.8126,-17.90625 -2.8683,-9.32207 5.036,-14.34208 7.1876,-13.625 1.4014,0.46716 -2.2958,-3.87211 -7.0626,-7.25 -0.8595,-0.60909 -1.7494,-1.20604 -2.6562,-1.71875 -0.01,-0.005 -0.023,0.005 -0.031,0 -0.4492,-0.25334 -0.8918,-0.50158 -1.3438,-0.71875 -0.01,-0.004 -0.022,0.004 -0.031,0 -0.4515,-0.21615 -0.8953,-0.42201 -1.3438,-0.59375 -0.01,-0.004 -0.022,0.004 -0.031,0 -0.4572,-0.17413 -0.8957,-0.31828 -1.3438,-0.4375 -0.7351,-0.13916 -1.4099,-0.16475 -2,-0.125 z" style="opacity: 0.610619; color: rgb(0, 0, 0); fill: rgb(255, 24, 24); fill-opacity: 1; fill-rule: nonzero; stroke: none; stroke-width: 0; marker: none; visibility: visible; display: inline; overflow: visible;" inkscape:connector-curvature="0"/>
        <path id="path11078" transform="matrix(0.26458336,0,0,0.26458336,323.09445,92.270613)" d="m -1058.5312,-657.9375 c -5.906,33.84719 15.9469,69.35892 41.0937,85.78125 35.13698,22.94665 70.25833,-6.42959 73.84375,-16.46875 2.69553,-7.54748 -5.1513,3.14837 -22,-5.40625 -10.4968,4.5936 -22.78747,6.4302 -36.15625,2.125 -37.0643,-11.93597 -54.8664,-40.35992 -56.7812,-66.03125 z" style="color: rgb(0, 0, 0); fill: rgb(170, 0, 0); fill-opacity: 1; fill-rule: nonzero; stroke: none; stroke-width: 0; marker: none; visibility: visible; display: inline; overflow: visible;" inkscape:connector-curvature="0"/>
      </g>
      <g transform="matrix(1,0,0,1.0898465,2.9514763,11.899405)" id="g11080">
        <path sodipodi:nodetypes="cccccccccccc" inkscape:connector-curvature="0" id="path11082" d="m 71.770337,-92.125087 c -0.262435,1.229379 -0.03561,3.613405 -0.936999,5.094278 -1.103196,2.85515 -3.257597,5.32879 -6.165199,6.421067 -2.129923,1.003184 1.5228,3.949601 -0.626152,4.854683 -0.347607,1.429639 1.052105,-0.03371 1.481748,1.114955 0.650474,3.637922 6.943659,-2.100847 -3.446031,8.284819 -1.284408,4.057426 -6.823296,6.251743 -8.373357,6.492726 -1.68066,1.467966 1.578266,2.682597 2.826724,2.760975 7.017314,0.976257 14.920879,-1.104437 19.381649,-6.895077 3.659352,-4.959477 4.505225,-11.406623 4.272336,-17.418946 -0.256024,-2.73974 -0.334859,-5.761147 -1.965632,-8.096785 -1.534414,-1.896648 -4.114748,-2.534288 -6.449087,-2.612695 z" style="color: rgb(0, 0, 0); fill: rgb(212, 0, 0); fill-opacity: 1; fill-rule: nonzero; stroke: rgb(60, 0, 0); stroke-width: 6.66382; stroke-linejoin: round; stroke-miterlimit: 4; stroke-opacity: 1; stroke-dasharray: none; marker: none; visibility: visible; display: inline; overflow: visible;"/>
        <g id="g11084">
          <path transform="matrix(0.26458336,0,0,0.26458336,320.08182,94.083721)" sodipodi:nodetypes="csscsssc" inkscape:connector-curvature="0" id="path11086" d="m -1006.7841,-581.85926 c 33.70294,-5.73666 12.90754,-66.68869 15.77587,-70.2741 2.86833,-3.58541 30.83456,-3.58541 43.02496,-21.51248 12.19041,-17.92707 8.60499,-30.11747 8.60499,-30.11747 0,0 20.07832,-0.71708 27.24914,12.90749 7.17083,13.62457 11.47333,68.12285 -12.90748,96.08907 -24.38081,27.96623 -63.82036,25.0979 -73.14244,22.94665 -9.32204,-2.15125 -13.62454,-7.17083 -8.60504,-10.03916 z" style="color: rgb(0, 0, 0); fill: rgb(212, 0, 0); fill-opacity: 1; fill-rule: nonzero; stroke: none; stroke-width: 0; marker: none; visibility: visible; display: inline; overflow: visible;"/>
          <path sodipodi:nodetypes="scssccss" inkscape:connector-curvature="0" id="path11088" transform="matrix(0.26458336,0,0,0.26458336,320.08182,94.083721)" d="m -938.5,-703.78125 c -0.56302,-0.007 -0.875,0.0312 -0.875,0.0312 0,0 3.59666,12.16668 -8.59375,30.09375 -12.1904,17.92707 -40.16292,17.94584 -43.03125,21.53125 -0.85593,1.06991 0.20606,8.2007 1.21875,17.75 59.47451,-0.47615 74.05858,-43.62991 78.53125,-54.5625 -0.28583,-0.70128 -0.57745,-1.34091 -0.875,-1.90625 -6.27447,-11.9215 -22.43385,-12.88848 -26.375,-12.9375 z" style="color: rgb(0, 0, 0); fill: rgb(255, 24, 24); fill-opacity: 1; fill-rule: nonzero; stroke: none; stroke-width: 0; marker: none; visibility: visible; display: inline; overflow: visible;"/>
          <path sodipodi:nodetypes="cccssc" inkscape:connector-curvature="0" id="path11090" transform="matrix(0.26458336,0,0,0.26458336,320.08182,94.083721)" d="m -907.21875,-642.21875 c -8.72764,23.88327 -68.77142,70.81088 -80.53125,36.4375 -1.41313,11.79704 -6.34879,21.77879 -19.0312,23.9375 -5.0196,2.86833 -0.7283,7.88 8.5937,10.03125 9.32208,2.15125 48.77544,4.99748 73.15625,-22.96875 10.91203,-12.51674 16.07747,-30.33443 17.8125,-47.4375 z" style="color: rgb(0, 0, 0); fill: rgb(170, 0, 0); fill-opacity: 1; fill-rule: nonzero; stroke: none; stroke-width: 0; marker: none; visibility: visible; display: inline; overflow: visible;"/>
        </g>
      </g>
      <path transform="matrix(0.26458336,0,0,0.26458336,320.08182,94.083721)" d="m -968.06158,-676.51416 c 0,3.5643 -2.88944,6.45374 -6.45374,6.45374 -3.5643,0 -6.45374,-2.88944 -6.45374,-6.45374 0,-3.5643 2.88944,-6.45374 6.45374,-6.45374 3.5643,0 6.45374,2.88944 6.45374,6.45374 z" sodipodi:ry="6.4537439" sodipodi:rx="6.4537439" sodipodi:cy="-676.51416" sodipodi:cx="-974.51532" id="path11092" style="color: rgb(0, 0, 0); fill: rgb(243, 17, 17); fill-opacity: 1; fill-rule: nonzero; stroke: none; stroke-width: 0; marker: none; visibility: visible; display: inline; overflow: visible;" sodipodi:type="arc"/>
      <path sodipodi:type="arc" style="color: rgb(0, 0, 0); fill: rgb(243, 17, 17); fill-opacity: 1; fill-rule: nonzero; stroke: none; stroke-width: 0; marker: none; visibility: visible; display: inline; overflow: visible;" id="path11094" sodipodi:cx="-974.51532" sodipodi:cy="-676.51416" sodipodi:rx="6.4537439" sodipodi:ry="6.4537439" d="m -968.06158,-676.51416 c 0,3.5643 -2.88944,6.45374 -6.45374,6.45374 -3.5643,0 -6.45374,-2.88944 -6.45374,-6.45374 0,-3.5643 2.88944,-6.45374 6.45374,-6.45374 3.5643,0 6.45374,2.88944 6.45374,6.45374 z" transform="matrix(0.26458336,0,0,0.26458336,315.52834,94.652905)"/>
      <path transform="matrix(0.26458336,0,0,0.26458336,320.84073,98.637196)" d="m -968.06158,-676.51416 c 0,3.5643 -2.88944,6.45374 -6.45374,6.45374 -3.5643,0 -6.45374,-2.88944 -6.45374,-6.45374 0,-3.5643 2.88944,-6.45374 6.45374,-6.45374 3.5643,0 6.45374,2.88944 6.45374,6.45374 z" sodipodi:ry="6.4537439" sodipodi:rx="6.4537439" sodipodi:cy="-676.51416" sodipodi:cx="-974.51532" id="path11096" style="color: rgb(0, 0, 0); fill: rgb(243, 17, 17); fill-opacity: 1; fill-rule: nonzero; stroke: none; stroke-width: 0; marker: none; visibility: visible; display: inline; overflow: visible;" sodipodi:type="arc"/>
    </g>
  </g>
</svg>